<svg width="330" height="50" viewBox="0 0 330 50" fill="none" xmlns="http://www.w3.org/2000/svg">
<path d="M40.1771 13.2598C40.39 13.2598 40.7671 13.437 41.2809 14.007C43.9563 16.9539 46.9579 19.2829 49.4832 20.6915C49.8476 20.8909 50.047 21.0441 50.047 21.2376C50.047 21.3849 50.0264 21.5283 49.7121 21.5283C49.1427 21.5283 45.9594 20.8909 45.1169 20.4942C44.2707 20.086 42.452 18.5895 40.2823 14.7939C40.0366 14.3656 39.7773 13.9972 39.7773 13.6522C39.7773 13.3097 40.0816 13.2598 40.1771 13.2598Z" fill="white"/>
<path d="M47.3812 2.40939C47.3812 2.40939 47.9093 3.46739 42.7662 4.20348C43.3259 2.59255 43.6975 1.5307 43.6975 1.5307C44.024 0.562353 43.2867 0.00132547 42.7565 0.00132547C42.2255 0.00132547 41.8383 0.415904 41.6157 0.938932L40.0878 4.48741C38.0827 4.62318 36.5981 4.54803 35.9244 4.48356C34.994 4.39177 34.7512 4.9118 34.7512 5.44679C34.7512 6.38012 36.3742 7.32712 37.4111 7.22295C38.0621 7.16146 38.4404 7.13456 38.9744 7.07692L33.2872 20.2645C33.0692 20.7568 32.8946 21.5518 33.8696 21.5518C34.8475 21.5518 37.0429 20.647 37.4111 19.5971C37.5643 19.1565 38.6975 15.8971 39.9603 12.2688C40.5865 12.1432 42.8815 11.7884 43.5203 11.7884C44.1262 11.7884 44.4385 12.0613 44.4385 12.3862C44.4385 13.1475 42.6417 15.3292 39.1608 18.0131C38.7816 18.3098 39.0968 18.5408 39.2904 18.5408C39.8286 18.5408 42.228 16.8753 43.4155 15.9628C44.7234 14.9625 46.9961 12.3623 46.9961 10.5293C46.9961 9.81246 46.6818 9.15281 45.2574 9.15281C43.878 9.15281 41.4331 9.46278 40.9147 9.53067C41.2505 8.55336 41.5863 7.59952 41.8985 6.70589C44.5887 6.32761 46.1911 6.07954 47.1375 5.88229C48.4378 5.60305 49.4852 4.84221 49.4852 4.05916C49.4852 2.3953 47.3812 2.40939 47.3812 2.40939Z" fill="white"/>
<path d="M1.63776 10.6607H0V9.01859H1.63776V6.8317H3.85287V9.01859H5.94721V10.6607H3.85287V14.6814C3.85287 15.4204 4.04896 16.1061 4.89183 16.1061C5.29033 16.1061 5.66821 16.0246 5.89713 15.8769L5.96782 17.6483C5.50031 17.7918 4.99367 17.8516 4.3309 17.8516C2.59383 17.8516 1.63776 16.7598 1.63776 15.0503V10.6607Z" fill="white"/>
<path d="M7.63672 9.02261H9.6006V10.9858H9.63595C9.734 10.1763 10.6421 8.81809 11.963 8.81809C12.1772 8.81809 12.4086 8.81809 12.6396 8.88982V11.151C12.4419 11.0374 12.0463 10.9678 11.6487 10.9678C9.84972 10.9678 9.84972 13.2474 9.84972 14.4843V17.6523H7.63672L7.63672 9.02261Z" fill="white"/>
<path d="M21.8256 17.6483H19.7241V16.4806H19.6909C19.0172 17.3174 18.059 17.8516 16.9022 17.8516C14.8874 17.8516 14.0117 16.411 14.0117 14.4623V9.01859H16.2188V13.6255C16.2188 14.6814 16.2407 16.1061 17.6622 16.1061C19.2629 16.1061 19.6122 14.3466 19.6122 13.2429V9.01859H21.8256V17.6483Z" fill="white"/>
<path d="M29.1159 12.4877C29.0469 11.3998 28.5521 10.4596 27.3162 10.4596C26.0748 10.4596 25.4486 11.3319 25.3493 12.4877H29.1159ZM30.6005 17.162C29.7913 17.6142 28.8672 17.8516 27.6764 17.8516C24.8721 17.8516 23.2344 16.2099 23.2344 13.3804C23.2344 10.8797 24.5401 8.81408 27.1836 8.81408C30.3392 8.81408 31.2309 11.0095 31.2309 14.032H25.3493C25.4486 15.4204 26.4051 16.2099 27.7757 16.2099C28.8546 16.2099 29.7758 15.8073 30.6005 15.3368V17.162Z" fill="white"/>
<path d="M48.5508 9.15035H50.5176V11.1084H50.5509C50.6481 10.3031 51.5574 8.94327 52.8808 8.94327C53.0938 8.94327 53.3248 8.94327 53.5554 9.00988V11.2758C53.361 11.1583 52.9633 11.0926 52.5657 11.0926C50.7638 11.0926 50.7638 13.37 50.7638 14.6073V17.7754H48.5508V9.15035Z" fill="white"/>
<path d="M54.8438 9.15013H57.0597V17.7752H54.8438V9.15013ZM54.8438 5.55469H57.0597V7.69974H54.8438V5.55469Z" fill="white"/>
<path d="M64.3295 12.6185C64.2639 11.5246 63.7686 10.5904 62.5297 10.5904C61.2867 10.5904 60.6622 11.461 60.5663 12.6185H64.3295ZM65.8141 17.2929C65.0062 17.7472 64.0842 17.9824 62.8929 17.9824C60.0861 17.9824 58.4492 16.3382 58.4492 13.5053C58.4492 11.0067 59.7512 8.94494 62.398 8.94494C65.5519 8.94494 66.4407 11.1399 66.4407 14.1607H60.5663C60.6622 15.5534 61.6187 16.3382 62.9922 16.3382C64.0636 16.3382 64.9923 15.9381 65.8141 15.4676V17.2929Z" fill="white"/>
<path d="M67.7578 9.22567H69.8589V10.3964H69.8883C70.5856 9.40585 71.5274 9.01859 72.6808 9.01859C74.6998 9.01859 75.5713 10.4613 75.5713 12.4061V17.8516H73.3604V13.2429C73.3604 12.1871 73.3427 10.7623 71.9229 10.7623C70.3243 10.7623 69.9729 12.5197 69.9729 13.6315V17.8516H67.7578V9.22567Z" fill="white"/>
<path d="M81.0949 16.237C82.5693 16.237 83.0507 14.6649 83.0507 13.4374C83.0507 12.23 82.4852 10.6878 81.0633 10.6878C79.6309 10.6878 79.2353 12.2821 79.2353 13.4374C79.2353 14.6312 79.6435 16.237 81.0949 16.237ZM83.1311 16.8087H83.0979C82.436 17.6455 81.5287 17.9824 80.4902 17.9824C77.8766 17.9824 76.918 15.8007 76.918 13.4374C76.918 11.0567 77.8766 8.94494 80.4902 8.94494C81.5956 8.94494 82.3712 9.33262 83.0331 10.1532H83.0667V5.20732H85.2776V17.7771H83.1311V16.8087Z" fill="white"/>
<path d="M94.7656 6.9666H99.4428V16.3324H99.5363C100 15.5148 100.497 14.7608 100.961 14.0068L105.7 6.9666H111.493L104.585 15.9866L111.864 28.1494H106.35L101.24 19.0039L99.4428 21.2348V28.1494H94.7656V6.9666Z" fill="white"/>
<path d="M116.789 20.4534C116.789 23.0933 117.873 25.0731 119.886 25.0731C121.714 25.0731 122.891 23.2188 122.891 20.4534C122.891 18.1589 122.024 15.8332 119.886 15.8332C117.625 15.8332 116.789 18.1905 116.789 20.4534ZM127.754 20.2962C127.754 25.9215 123.82 28.499 119.763 28.499C115.333 28.499 111.926 25.5449 111.926 20.5789C111.926 15.6138 115.147 12.4389 120.011 12.4389C124.657 12.4389 127.754 15.6765 127.754 20.2962Z" fill="white"/>
<path d="M130.351 17.8463C130.351 15.5834 130.289 14.1065 130.227 12.7864H134.284L134.439 15.615H134.563C135.338 13.3837 137.196 12.4405 138.652 12.4405C139.085 12.4405 139.302 12.4405 139.643 12.5033V17.0291C139.302 16.9352 138.9 16.872 138.373 16.872C136.638 16.872 135.461 17.8147 135.152 19.2924C135.09 19.6062 135.059 19.9837 135.059 20.3607V28.1553H130.351V17.8463Z" fill="white"/>
<path d="M150.735 18.7246C150.735 17.5616 150.24 15.6133 148.071 15.6133C146.088 15.6133 145.283 17.4356 145.16 18.7246H150.735ZM145.191 21.993C145.345 23.9728 147.266 24.9151 149.465 24.9151C151.076 24.9151 152.376 24.6957 153.646 24.2875L154.266 27.5243C152.717 28.1532 150.828 28.499 148.784 28.499C143.642 28.499 140.699 25.4501 140.699 20.6417C140.699 16.7444 143.084 12.4389 148.35 12.4389C153.244 12.4389 155.102 16.305 155.102 20.1075C155.102 20.9243 155.009 21.6476 154.948 21.993H145.191Z" fill="white"/>
<path d="M165.662 20.8931C163.184 20.862 161.264 21.4593 161.264 23.3136C161.264 24.539 162.069 25.1367 163.122 25.1367C164.299 25.1367 165.259 24.3511 165.569 23.3763C165.631 23.1244 165.662 22.8414 165.662 22.5587V20.8931ZM170.246 24.4134C170.246 25.8899 170.308 27.3048 170.463 28.1536H166.219L165.941 26.6131H165.848C164.857 27.8385 163.308 28.499 161.512 28.499C158.445 28.499 156.617 26.2366 156.617 23.7849C156.617 19.7933 160.148 17.8762 165.507 17.9074V17.6879C165.507 16.8703 165.073 15.7077 162.75 15.7077C161.202 15.7077 159.56 16.2418 158.569 16.8703L157.702 13.7906C158.754 13.1933 160.83 12.4393 163.587 12.4393C168.636 12.4393 170.246 15.4562 170.246 19.0704V24.4134Z" fill="white"/>
<path d="M184.497 28.1516H179.758V6.96875H184.497V28.1516Z" fill="white"/>
<path d="M188.21 17.6837C188.21 15.7663 188.148 14.1323 188.086 12.7809H192.175L192.391 14.8863H192.485C193.104 13.9124 194.653 12.4351 197.161 12.4351C200.259 12.4351 202.583 14.5093 202.583 19.0351V28.1494H197.873V19.6324C197.873 17.6526 197.192 16.3012 195.49 16.3012C194.188 16.3012 193.414 17.212 193.104 18.0923C192.98 18.4066 192.918 18.8464 192.918 19.2866V28.1494H188.21V17.6837Z" fill="white"/>
<path d="M208.961 12.7864L211.005 19.9205C211.378 21.209 211.656 22.4348 211.873 23.6607H211.966C212.214 22.4037 212.462 21.2406 212.802 19.9205L214.755 12.7864H219.711L214.073 28.1553H209.365L203.852 12.7864H208.961Z" fill="white"/>
<path d="M230.267 18.7246C230.267 17.5616 229.77 15.6133 227.603 15.6133C225.62 15.6133 224.815 17.4356 224.691 18.7246H230.267ZM224.722 21.993C224.877 23.9728 226.798 24.9151 228.997 24.9151C230.607 24.9151 231.908 24.6957 233.178 24.2875L233.798 27.5243C232.249 28.1532 230.36 28.499 228.315 28.499C223.174 28.499 220.23 25.4501 220.23 20.6417C220.23 16.7444 222.616 12.4389 227.882 12.4389C232.775 12.4389 234.635 16.305 234.635 20.1075C234.635 20.9243 234.54 21.6476 234.48 21.993H224.722Z" fill="white"/>
<path d="M237.11 23.9728C237.977 24.5069 239.774 25.1367 241.167 25.1367C242.593 25.1367 243.181 24.6333 243.181 23.8473C243.181 23.0621 242.716 22.6847 240.951 22.0873C237.822 21.0191 236.614 19.2903 236.645 17.4988C236.645 14.6074 239.062 12.4389 242.809 12.4389C244.574 12.4389 246.155 12.8471 247.083 13.3189L246.247 16.6188C245.566 16.2414 244.265 15.7389 242.964 15.7389C241.818 15.7389 241.167 16.2098 241.167 16.9963C241.167 17.7191 241.756 18.0957 243.614 18.7558C246.495 19.7617 247.703 21.2386 247.734 23.5014C247.734 26.3617 245.504 28.499 241.167 28.499C239.186 28.499 237.42 28.0277 236.273 27.3987L237.11 23.9728Z" fill="white"/>
<path d="M255.542 8.60477V12.7847H258.918V16.305H255.542V21.867C255.542 23.7218 255.976 24.571 257.4 24.571C258.051 24.571 258.33 24.5385 258.794 24.445L258.825 28.0593C258.206 28.3103 257.091 28.499 255.759 28.499C254.241 28.499 252.971 27.9333 252.228 27.1468C251.361 26.2361 250.927 24.7588 250.927 22.5899V16.305H248.914V12.7847H250.927V9.89334L255.542 8.60477Z" fill="white"/>
<path d="M261.335 17.6837C261.335 15.7663 261.274 14.1323 261.211 12.7809H265.176L265.393 14.8551H265.486C266.136 13.8808 267.467 12.4351 270.07 12.4351C272.021 12.4351 273.571 13.4406 274.221 15.0434H274.283C274.84 14.2262 275.522 13.6293 276.234 13.1891C277.071 12.6866 277.999 12.4351 279.114 12.4351C282.027 12.4351 284.226 14.5093 284.226 19.0983V28.1494H279.641V19.7895C279.641 17.5578 278.929 16.2696 277.411 16.2696C276.327 16.2696 275.552 17.0237 275.243 17.9352C275.118 18.2811 275.057 18.7836 275.057 19.1606V28.1494H270.472V19.5376C270.472 17.589 269.791 16.2696 268.304 16.2696C267.096 16.2696 266.383 17.212 266.104 17.998C265.95 18.3754 265.92 18.8148 265.92 19.1922V28.1494H261.335V17.6837Z" fill="white"/>
<path d="M296.83 18.7246C296.83 17.5616 296.334 15.6133 294.165 15.6133C292.183 15.6133 291.378 17.4356 291.255 18.7246H296.83ZM291.285 21.993C291.439 23.9728 293.36 24.9151 295.559 24.9151C297.17 24.9151 298.471 24.6957 299.741 24.2875L300.361 27.5243C298.811 28.1532 296.922 28.499 294.878 28.499C289.737 28.499 286.793 25.4501 286.793 20.6417C286.793 16.7444 289.179 12.4389 294.444 12.4389C299.338 12.4389 301.197 16.305 301.197 20.1075C301.197 20.9243 301.104 21.6476 301.042 21.993H291.285Z" fill="white"/>
<path d="M303.702 17.6837C303.702 15.7663 303.64 14.1323 303.578 12.7809H307.667L307.883 14.8863H307.977C308.595 13.9124 310.145 12.4351 312.653 12.4351C315.752 12.4351 318.074 14.5093 318.074 19.0351V28.1494H313.366V19.6324C313.366 17.6526 312.684 16.3012 310.981 16.3012C309.679 16.3012 308.905 17.212 308.595 18.0923C308.472 18.4066 308.41 18.8464 308.41 19.2866V28.1494H303.702V17.6837Z" fill="white"/>
<path d="M326.625 8.60477V12.7847H330.001V16.305H326.625V21.867C326.625 23.7218 327.058 24.571 328.483 24.571C329.133 24.571 329.412 24.5385 329.877 24.445L329.907 28.0593C329.288 28.3103 328.173 28.499 326.842 28.499C325.323 28.499 324.053 27.9333 323.311 27.1468C322.443 26.2361 322.009 24.7588 322.009 22.5899V16.305H319.996V12.7847H322.009V9.89334L326.625 8.60477Z" fill="white"/>
<path d="M97.5369 38.523C96.5589 38.523 96.0435 39.3539 96.0435 40.2928C96.0435 41.1574 96.4348 41.8247 96.9503 42.4741C98.1593 41.7709 98.942 41.1215 98.942 40.0934C98.942 39.3539 98.5329 38.523 97.555 38.523H97.5369ZM97.2352 48.8073C98.248 48.8073 99.1195 48.338 99.6889 47.7065C98.9773 46.9133 97.6438 45.4334 96.3098 43.8823C95.6698 44.2973 94.763 45.0726 94.763 46.3539C94.763 47.7424 95.7767 48.8073 97.2167 48.8073H97.2352ZM101.574 49.7995C101.236 49.4567 100.916 49.1142 100.453 48.6091C99.4217 49.5835 98.2657 49.998 96.9503 49.998C94.6207 49.998 93.2695 48.4098 93.2695 46.5888C93.2695 44.9292 94.2479 43.7913 95.6168 43.0339V42.9801C94.9944 42.1864 94.6207 41.303 94.6207 40.4358C94.6207 38.9577 95.6698 37.4411 97.6614 37.4411C99.1553 37.4411 100.311 38.4513 100.311 40.0217C100.311 41.303 99.5816 42.3127 97.6791 43.2691V43.3229C98.6933 44.5133 99.8311 45.8484 100.596 46.7147C101.147 45.8663 101.52 44.6939 101.751 43.1607H103.174C102.854 45.0726 102.338 46.5888 101.449 47.6527C102.089 48.338 102.712 49.0237 103.423 49.7995H101.574Z" fill="white"/>
<path d="M108.032 47.888C108.725 48.3205 109.739 48.6809 110.806 48.6809C112.389 48.6809 113.313 47.8334 113.313 46.6067C113.313 45.4701 112.673 44.8203 111.055 44.1892C109.099 43.4848 107.89 42.4562 107.89 40.7432C107.89 38.848 109.437 37.4411 111.766 37.4411C112.993 37.4411 113.882 37.7302 114.416 38.0372L113.988 39.3185C113.597 39.1011 112.798 38.7404 111.713 38.7404C110.077 38.7404 109.455 39.7326 109.455 40.5626C109.455 41.6996 110.183 42.259 111.837 42.9079C113.864 43.7017 114.895 44.6943 114.895 46.4803C114.895 48.3564 113.526 49.998 110.699 49.998C109.543 49.998 108.281 49.6377 107.641 49.2052L108.032 47.888Z" fill="white"/>
<path d="M122.347 44.5863C122.365 43.5761 121.938 42.0058 120.178 42.0058C118.595 42.0058 117.902 43.4843 117.778 44.5863H122.347ZM117.76 45.722C117.795 47.8696 119.147 48.7526 120.711 48.7526C121.832 48.7526 122.507 48.5553 123.094 48.3022L123.361 49.4387C122.81 49.6911 121.867 49.998 120.498 49.998C117.849 49.998 116.266 48.2125 116.266 45.5786C116.266 42.9442 117.795 40.8692 120.302 40.8692C123.112 40.8692 123.859 43.3767 123.859 44.983C123.859 45.3075 123.823 45.5606 123.805 45.722H117.76Z" fill="white"/>
<path d="M127.168 45.0719H127.203C127.417 44.765 127.72 44.3867 127.968 44.0797L130.493 41.067H132.378L129.053 44.6574L132.84 49.7988H130.938L127.968 45.6142L127.168 46.5155V49.7988H125.621V36.99H127.168V45.0719Z" fill="white"/>
<path d="M141.052 47.4175C141.052 48.3201 141.07 49.1142 141.123 49.7995H139.736L139.647 48.3739H139.612C139.203 49.0775 138.296 49.998 136.766 49.998C135.415 49.998 133.797 49.241 133.797 46.1733V41.0677H135.362V45.9035C135.362 47.5631 135.86 48.6809 137.282 48.6809C138.331 48.6809 139.06 47.9418 139.345 47.2382C139.434 47.0029 139.487 46.7147 139.487 46.4257V41.0677H141.052V47.4175Z" fill="white"/>
<path d="M143.473 43.7906C143.473 42.7625 143.456 41.8787 143.402 41.067H144.772L144.825 42.7804H144.896C145.287 41.6093 146.23 40.8685 147.279 40.8685C147.456 40.8685 147.581 40.8864 147.723 40.9223V42.4197C147.563 42.3838 147.403 42.3663 147.19 42.3663C146.087 42.3663 145.305 43.2138 145.092 44.4042C145.056 44.6215 145.02 44.8734 145.02 45.1445V49.7988H143.473V43.7906Z" fill="white"/>
<path d="M149.176 41.0714H150.74V49.8032H149.176V41.0714ZM150.918 38.6177C150.936 39.1582 150.545 39.5916 149.922 39.5916C149.371 39.5916 148.98 39.1582 148.98 38.6177C148.98 38.0584 149.389 37.625 149.958 37.625C150.545 37.625 150.918 38.0584 150.918 38.6177Z" fill="white"/>
<path d="M155.042 38.9756V41.0677H157.283V42.2769H155.042V46.9854C155.042 48.0673 155.345 48.6809 156.216 48.6809C156.643 48.6809 156.892 48.645 157.123 48.5733L157.194 49.7641C156.892 49.8905 156.411 49.998 155.807 49.998C155.078 49.998 154.491 49.7453 154.118 49.3128C153.673 48.8435 153.513 48.0673 153.513 47.0392V42.2769H152.18V41.0677H153.513V39.4619L155.042 38.9756Z" fill="white"/>
<path d="M163.405 45.3437C161.698 45.3079 159.759 45.6149 159.759 47.3099C159.759 48.3384 160.435 48.8252 161.236 48.8252C162.356 48.8252 163.067 48.1032 163.316 47.3637C163.369 47.2019 163.405 47.0217 163.405 46.859V45.3437ZM164.916 47.7065C164.916 48.4653 164.952 49.2052 165.059 49.7999H163.636L163.511 48.6988H163.458C162.978 49.3845 162.054 49.998 160.827 49.998C159.084 49.998 158.195 48.7526 158.195 47.4905C158.195 45.3796 160.044 44.2247 163.369 44.2439V44.0624C163.369 43.3413 163.174 42.0421 161.413 42.0421C160.613 42.0421 159.777 42.2948 159.173 42.6915L158.817 41.6454C159.528 41.1753 160.56 40.8696 161.644 40.8696C164.276 40.8696 164.916 42.6915 164.916 44.4411V47.7065Z" fill="white"/>
<path d="M167.043 48.1758C167.506 48.4828 168.324 48.8073 169.106 48.8073C170.243 48.8073 170.778 48.2304 170.778 47.5084C170.778 46.7497 170.333 46.3356 169.177 45.9035C167.631 45.3433 166.901 44.4766 166.901 43.4305C166.901 42.0237 168.021 40.8692 169.871 40.8692C170.743 40.8692 171.506 41.1215 171.986 41.4102L171.595 42.5647C171.257 42.3486 170.635 42.06 169.835 42.06C168.91 42.06 168.395 42.6014 168.395 43.2512C168.395 43.9723 168.91 44.2973 170.031 44.7298C171.524 45.3075 172.289 46.0649 172.289 47.3637C172.289 48.8978 171.116 49.998 169.07 49.998C168.128 49.998 167.257 49.7449 166.652 49.3841L167.043 48.1758Z" fill="white"/>
<path d="M179.313 49.8H177.766V37.6406H179.313V49.8Z" fill="white"/>
<path d="M181.965 43.4299C181.965 42.5285 181.948 41.7878 181.895 41.067H183.281L183.369 42.5106H183.406C183.833 41.6806 184.829 40.8685 186.25 40.8685C187.442 40.8685 189.291 41.5896 189.291 44.5856V49.7988H187.727V44.765C187.727 43.3581 187.211 42.1857 185.735 42.1857C184.704 42.1857 183.903 42.9256 183.637 43.8086C183.566 44.008 183.531 44.2786 183.531 44.5485V49.7988H181.965V43.4299Z" fill="white"/>
<path d="M197.521 44.6222C197.521 44.4228 197.504 44.1525 197.45 43.9548C197.219 42.9442 196.366 42.1134 195.191 42.1134C193.574 42.1134 192.614 43.5573 192.614 45.4876C192.614 47.2561 193.467 48.7167 195.156 48.7167C196.206 48.7167 197.166 48.0131 197.45 46.8227C197.504 46.6063 197.521 46.3898 197.521 46.1375V44.6222ZM199.086 36.9907V47.5452C199.086 48.3201 199.104 49.2048 199.158 49.7995H197.752L197.682 48.2842H197.646C197.166 49.2586 196.116 49.998 194.712 49.998C192.632 49.998 191.031 48.2125 191.031 45.5606C191.014 42.6556 192.792 40.8692 194.89 40.8692C196.206 40.8692 197.094 41.5002 197.486 42.2043H197.521V36.9907H199.086Z" fill="white"/>
<path d="M202.466 45.4513C202.466 47.3637 203.55 48.8073 205.079 48.8073C206.572 48.8073 207.694 47.3816 207.694 45.4155C207.694 43.9369 206.963 42.0604 205.115 42.0604C203.265 42.0604 202.466 43.7913 202.466 45.4513ZM209.294 45.3617C209.294 48.5912 207.088 49.998 205.008 49.998C202.678 49.998 200.883 48.2667 200.883 45.506C200.883 42.583 202.768 40.8696 205.15 40.8696C207.622 40.8696 209.294 42.6915 209.294 45.3617Z" fill="white"/>
<path d="M211.09 43.4299C211.09 42.5285 211.073 41.7878 211.02 41.067H212.406L212.495 42.5106H212.531C212.957 41.6806 213.953 40.8685 215.376 40.8685C216.567 40.8685 218.417 41.5896 218.417 44.5856V49.7988H216.851V44.765C216.851 43.3581 216.336 42.1857 214.861 42.1857C213.83 42.1857 213.028 42.9256 212.762 43.8086C212.691 44.008 212.656 44.2786 212.656 44.5485V49.7988H211.09V43.4299Z" fill="white"/>
<path d="M226.237 44.5863C226.255 43.5761 225.827 42.0058 224.068 42.0058C222.485 42.0058 221.792 43.4843 221.667 44.5863H226.237ZM221.65 45.722C221.685 47.8696 223.037 48.7526 224.601 48.7526C225.721 48.7526 226.397 48.5553 226.984 48.3022L227.251 49.4387C226.699 49.6911 225.757 49.998 224.388 49.998C221.739 49.998 220.156 48.2125 220.156 45.5786C220.156 42.9442 221.685 40.8692 224.192 40.8692C227.001 40.8692 227.748 43.3767 227.748 44.983C227.748 45.3075 227.713 45.5606 227.695 45.722H221.65Z" fill="white"/>
<path d="M229.297 48.1758C229.759 48.4828 230.577 48.8073 231.359 48.8073C232.498 48.8073 233.03 48.2304 233.03 47.5084C233.03 46.7497 232.586 46.3356 231.431 45.9035C229.885 45.3433 229.155 44.4766 229.155 43.4305C229.155 42.0237 230.275 40.8692 232.124 40.8692C232.995 40.8692 233.759 41.1215 234.24 41.4102L233.849 42.5647C233.512 42.3486 232.889 42.06 232.089 42.06C231.164 42.06 230.648 42.6014 230.648 43.2512C230.648 43.9723 231.164 44.2973 232.284 44.7298C233.777 45.3075 234.542 46.0649 234.542 47.3637C234.542 48.8978 233.368 49.998 231.323 49.998C230.381 49.998 229.51 49.7449 228.906 49.3841L229.297 48.1758Z" fill="white"/>
<path d="M236.371 41.0714H237.936V49.8032H236.371V41.0714ZM238.114 38.6177C238.132 39.1582 237.741 39.5916 237.118 39.5916C236.567 39.5916 236.176 39.1582 236.176 38.6177C236.176 38.0584 236.584 37.625 237.154 37.625C237.741 37.625 238.114 38.0584 238.114 38.6177Z" fill="white"/>
<path d="M244.89 45.3437C243.182 45.3079 241.244 45.6149 241.244 47.3099C241.244 48.3384 241.92 48.8252 242.72 48.8252C243.84 48.8252 244.552 48.1032 244.8 47.3637C244.853 47.2019 244.89 47.0217 244.89 46.859V45.3437ZM246.4 47.7065C246.4 48.4653 246.436 49.2052 246.543 49.7999H245.121L244.996 48.6988H244.943C244.461 49.3845 243.538 49.998 242.311 49.998C240.568 49.998 239.68 48.7526 239.68 47.4905C239.68 45.3796 241.528 44.2247 244.853 44.2439V44.0624C244.853 43.3413 244.658 42.0421 242.898 42.0421C242.097 42.0421 241.262 42.2948 240.658 42.6915L240.302 41.6454C241.013 41.1753 242.044 40.8696 243.128 40.8696C245.759 40.8696 246.4 42.6915 246.4 44.4411V47.7065Z" fill="white"/>
</svg>
