<svg width="225" height="35" viewBox="0 0 225 35" fill="none" xmlns="http://www.w3.org/2000/svg">
<path d="M27.3937 9.04012C27.5388 9.04012 27.7959 9.16093 28.1462 9.54956C29.9704 11.5588 32.0169 13.1468 33.7387 14.1072C33.9871 14.2431 34.1231 14.3476 34.1231 14.4795C34.1231 14.5799 34.1091 14.6777 33.8948 14.6777C33.5066 14.6777 31.3361 14.2431 30.7617 13.9727C30.1847 13.6944 28.9447 12.674 27.4654 10.0861C27.2978 9.79409 27.1211 9.54287 27.1211 9.30765C27.1211 9.07418 27.3285 9.04012 27.3937 9.04012Z" fill="white"/>
<path d="M32.3074 1.64195C32.3074 1.64195 32.6675 2.36336 29.1609 2.86526C29.5425 1.76684 29.7958 1.04281 29.7958 1.04281C30.0185 0.382533 29.5158 -7.78837e-06 29.1543 -7.78837e-06C28.7922 -7.78837e-06 28.5283 0.282676 28.3765 0.639307L27.3347 3.05886C25.9676 3.15144 24.9554 3.1002 24.496 3.05624C23.8617 2.99365 23.6961 3.34824 23.6961 3.71303C23.6961 4.34943 24.8027 4.99515 25.5097 4.92411C25.9535 4.88219 26.2115 4.86385 26.5755 4.82455L22.698 13.8166C22.5493 14.1523 22.4303 14.6943 23.095 14.6943C23.7618 14.6943 25.2586 14.0774 25.5097 13.3616C25.6141 13.0611 26.3868 10.8386 27.2478 8.36465C27.6747 8.27906 29.2395 8.03713 29.675 8.03713C30.0882 8.03713 30.3011 8.22317 30.3011 8.44471C30.3011 8.96379 29.076 10.4515 26.7026 12.2815C26.4441 12.4838 26.659 12.6413 26.791 12.6413C27.158 12.6413 28.7939 11.5056 29.6036 10.8835C30.4953 10.2014 32.0449 8.42841 32.0449 7.1786C32.0449 6.6898 31.8306 6.24001 30.8594 6.24001C29.9189 6.24001 28.252 6.45137 27.8985 6.49766C28.1274 5.83127 28.3564 5.18089 28.5693 4.57156C30.4035 4.31362 31.4961 4.14448 32.1413 4.00997C33.0279 3.81958 33.742 3.30079 33.742 2.76686C33.742 1.63234 32.3074 1.64195 32.3074 1.64195Z" fill="white"/>
<path d="M1.11665 7.26707H0V6.14746H1.11665V4.6564H2.62695V6.14746H4.0549V7.26707H2.62695V10.0084C2.62695 10.5123 2.76065 10.9799 3.33533 10.9799C3.60703 10.9799 3.86468 10.9243 4.02076 10.8235L4.06896 12.0314C3.7502 12.1292 3.40476 12.1699 2.95288 12.1699C1.76851 12.1699 1.11665 11.4256 1.11665 10.26V7.26707Z" fill="white"/>
<path d="M5.20703 6.14931H6.54604V7.48783H6.57014C6.63699 6.93589 7.25614 6.00987 8.15675 6.00987C8.30279 6.00987 8.46059 6.00987 8.6181 6.05878V7.60049C8.48326 7.52305 8.21356 7.4756 7.94243 7.4756C6.71589 7.4756 6.71589 9.02983 6.71589 9.87318V12.0332H5.20703L5.20703 6.14931Z" fill="white"/>
<path d="M14.8784 12.0314H13.4456V11.2352H13.4229C12.9636 11.8057 12.3103 12.1699 11.5216 12.1699C10.1478 12.1699 9.55078 11.1877 9.55078 9.8591V6.14746H11.0556V9.28853C11.0556 10.0084 11.0705 10.9799 12.0397 10.9799C13.1311 10.9799 13.3693 9.78021 13.3693 9.02769V6.14746H14.8784V12.0314Z" fill="white"/>
<path d="M19.8539 8.51272C19.8068 7.77098 19.4694 7.12995 18.6268 7.12995C17.7804 7.12995 17.3535 7.72469 17.2858 8.51272H19.8539ZM20.8661 11.6998C20.3144 12.0081 19.6843 12.1699 18.8724 12.1699C16.9604 12.1699 15.8438 11.0506 15.8438 9.12143C15.8438 7.41641 16.734 6.00802 18.5364 6.00802C20.6879 6.00802 21.2959 7.5049 21.2959 9.56566H17.2858C17.3535 10.5123 18.0056 11.0506 18.9401 11.0506C19.6757 11.0506 20.3038 10.7761 20.8661 10.4553V11.6998Z" fill="white"/>
<path d="M33.1055 6.2365H34.4465V7.57152H34.4692C34.5354 7.02249 35.1554 6.09531 36.0578 6.09531C36.2029 6.09531 36.3605 6.09531 36.5177 6.14072V7.68564C36.3851 7.60558 36.114 7.56075 35.8429 7.56075C34.6143 7.56075 34.6143 9.11353 34.6143 9.95716V12.1172H33.1055V6.2365Z" fill="white"/>
<path d="M37.3945 6.23561H38.9054V12.1163H37.3945V6.23561ZM37.3945 3.78418H38.9054V5.24671H37.3945V3.78418Z" fill="white"/>
<path d="M43.8608 8.60159C43.8161 7.85577 43.4784 7.21882 42.6337 7.21882C41.7862 7.21882 41.3604 7.81239 41.295 8.60159H43.8608ZM44.8731 11.7886C44.3222 12.0984 43.6936 12.2588 42.8813 12.2588C40.9676 12.2588 39.8516 11.1377 39.8516 9.20622C39.8516 7.50265 40.7393 6.09689 42.5439 6.09689C44.6943 6.09689 45.3003 7.59348 45.3003 9.65307H41.295C41.3604 10.6027 42.0126 11.1377 42.949 11.1377C43.6795 11.1377 44.3127 10.865 44.8731 10.5442V11.7886Z" fill="white"/>
<path d="M46.1992 6.28865H47.6318V7.08687H47.6518C48.1273 6.4115 48.7694 6.14746 49.5558 6.14746C50.9324 6.14746 51.5266 7.13112 51.5266 8.45712V12.1699H50.0191V9.02769C50.0191 8.30778 50.0071 7.33635 49.0391 7.33635C47.9491 7.33635 47.7095 8.53455 47.7095 9.2926V12.1699H46.1992V6.28865Z" fill="white"/>
<path d="M55.2893 11.0678C56.2946 11.0678 56.6228 9.9959 56.6228 9.15896C56.6228 8.3357 56.2372 7.28422 55.2678 7.28422C54.2911 7.28422 54.0214 8.37122 54.0214 9.15896C54.0214 9.9729 54.2997 11.0678 55.2893 11.0678ZM56.6776 11.4576H56.655C56.2037 12.0281 55.5851 12.2578 54.877 12.2578C53.095 12.2578 52.4414 10.7702 52.4414 9.15896C52.4414 7.53574 53.095 6.09591 54.877 6.09591C55.6307 6.09591 56.1595 6.36024 56.6108 6.91975H56.6337V3.54754H58.1412V12.1178H56.6776V11.4576Z" fill="white"/>
<path d="M64.6133 4.74968H67.8023V11.1358H67.866C68.1824 10.5783 68.5207 10.0642 68.8372 9.55007L72.0684 4.74968H76.018L71.308 10.9L76.2713 19.1934H72.5119L69.0274 12.9574L67.8023 14.4786V19.1934H64.6133V4.74968Z" fill="white"/>
<path d="M79.6283 13.947C79.6283 15.7469 80.3674 17.0968 81.74 17.0968C82.9863 17.0968 83.7885 15.8325 83.7885 13.947C83.7885 12.3825 83.1975 10.7969 81.74 10.7969C80.1984 10.7969 79.6283 12.4041 79.6283 13.947ZM87.1046 13.8398C87.1046 17.6752 84.4223 19.4326 81.6559 19.4326C78.6356 19.4326 76.3125 17.4184 76.3125 14.0325C76.3125 10.6472 78.5091 8.48256 81.8249 8.48256C84.9927 8.48256 87.1046 10.69 87.1046 13.8398Z" fill="white"/>
<path d="M88.8776 12.1694C88.8776 10.6265 88.8354 9.6196 88.793 8.71949H91.5596L91.6652 10.6481H91.7496C92.2778 9.12675 93.5448 8.48369 94.5375 8.48369C94.833 8.48369 94.981 8.48369 95.2134 8.52648V11.6122C94.981 11.5482 94.7065 11.5051 94.3473 11.5051C93.1646 11.5051 92.3621 12.1479 92.151 13.1554C92.1088 13.3694 92.0876 13.6267 92.0876 13.8838V19.1982H88.8776V12.1694Z" fill="white"/>
<path d="M102.776 12.7683C102.776 11.9753 102.438 10.647 100.96 10.647C99.6081 10.647 99.0592 11.8894 98.9748 12.7683H102.776ZM98.9961 14.9967C99.1014 16.3466 100.411 16.989 101.911 16.989C103.009 16.989 103.895 16.8394 104.761 16.5611L105.184 18.768C104.128 19.1968 102.84 19.4326 101.446 19.4326C97.94 19.4326 95.9336 17.3538 95.9336 14.0753C95.9336 11.4181 97.5595 8.48256 101.15 8.48256C104.487 8.48256 105.754 11.1185 105.754 13.7112C105.754 14.2681 105.691 14.7612 105.648 14.9967H98.9961Z" fill="white"/>
<path d="M112.948 14.2468C111.259 14.2256 109.949 14.6328 109.949 15.8971C109.949 16.7326 110.498 17.1401 111.216 17.1401C112.019 17.1401 112.674 16.6045 112.885 15.9399C112.927 15.7681 112.948 15.5751 112.948 15.3824V14.2468ZM116.074 16.647C116.074 17.6537 116.116 18.6184 116.222 19.1971H113.328L113.138 18.1468H113.075C112.399 18.9823 111.343 19.4326 110.118 19.4326C108.027 19.4326 106.781 17.89 106.781 16.2185C106.781 13.4969 109.189 12.1898 112.843 12.2111V12.0615C112.843 11.504 112.547 10.7113 110.963 10.7113C109.907 10.7113 108.788 11.0755 108.112 11.504L107.521 9.40421C108.238 8.99695 109.654 8.48285 111.533 8.48285C114.976 8.48285 116.074 10.5398 116.074 13.0041V16.647Z" fill="white"/>
<path d="M125.794 19.1908H122.562V4.74707H125.794V19.1908Z" fill="white"/>
<path d="M128.327 12.0577C128.327 10.7503 128.285 9.63626 128.242 8.7149H131.03L131.177 10.1504H131.242C131.663 9.48633 132.72 8.4791 134.43 8.4791C136.542 8.4791 138.126 9.8933 138.126 12.9791V19.1934H134.915V13.3863C134.915 12.0364 134.451 11.1151 133.29 11.1151C132.402 11.1151 131.875 11.736 131.663 12.3363C131.579 12.5505 131.537 12.8504 131.537 13.1505V19.1934H128.327V12.0577Z" fill="white"/>
<path d="M142.472 8.71949L143.866 13.5836C144.12 14.4622 144.31 15.298 144.458 16.1337H144.521C144.69 15.2767 144.859 14.4837 145.091 13.5836L146.422 8.71949H149.801L145.957 19.1982H142.747L138.988 8.71949H142.472Z" fill="white"/>
<path d="M156.999 12.7683C156.999 11.9753 156.661 10.647 155.183 10.647C153.831 10.647 153.282 11.8894 153.198 12.7683H156.999ZM153.218 14.9967C153.324 16.3466 154.634 16.989 156.133 16.989C157.231 16.989 158.118 16.8394 158.984 16.5611L159.407 18.768C158.351 19.1968 157.062 19.4326 155.669 19.4326C152.163 19.4326 150.156 17.3538 150.156 14.0753C150.156 11.4181 151.782 8.48256 155.373 8.48256C158.709 8.48256 159.977 11.1185 159.977 13.7112C159.977 14.2681 159.913 14.7612 159.872 14.9967H153.218Z" fill="white"/>
<path d="M161.668 16.3466C162.259 16.7107 163.484 17.1401 164.434 17.1401C165.406 17.1401 165.807 16.7969 165.807 16.261C165.807 15.7256 165.491 15.4683 164.287 15.061C162.154 14.3327 161.33 13.154 161.351 11.9325C161.351 9.9611 162.999 8.48256 165.553 8.48256C166.757 8.48256 167.835 8.76086 168.468 9.08253L167.898 11.3325C167.433 11.0752 166.546 10.7325 165.659 10.7325C164.878 10.7325 164.434 11.0536 164.434 11.5899C164.434 12.0827 164.836 12.3395 166.102 12.7895C168.067 13.4754 168.891 14.4823 168.911 16.0252C168.911 17.9753 167.391 19.4326 164.434 19.4326C163.083 19.4326 161.879 19.1112 161.098 18.6824L161.668 16.3466Z" fill="white"/>
<path d="M174.23 5.86755V8.71769H176.532V11.118H174.23V14.9105C174.23 16.1752 174.526 16.7542 175.497 16.7542C175.941 16.7542 176.131 16.7321 176.447 16.6684L176.469 19.1328C176.046 19.3039 175.286 19.4326 174.378 19.4326C173.343 19.4326 172.477 19.0469 171.97 18.5106C171.379 17.8896 171.083 16.8823 171.083 15.4034V11.118H169.711V8.71769H171.083V6.74618L174.23 5.86755Z" fill="white"/>
<path d="M178.182 12.0577C178.182 10.7503 178.14 9.63626 178.098 8.7149H180.801L180.949 10.1291H181.012C181.456 9.46479 182.363 8.4791 184.138 8.4791C185.468 8.4791 186.525 9.16466 186.968 10.2575H187.01C187.39 9.7003 187.855 9.29333 188.34 8.9932C188.911 8.65056 189.544 8.4791 190.305 8.4791C192.29 8.4791 193.79 9.8933 193.79 13.0221V19.1934H190.663V13.4934C190.663 11.9718 190.178 11.0935 189.143 11.0935C188.404 11.0935 187.876 11.6076 187.665 12.2292C187.58 12.465 187.538 12.8076 187.538 13.0646V19.1934H184.412V13.3217C184.412 11.9931 183.947 11.0935 182.934 11.0935C182.11 11.0935 181.624 11.736 181.434 12.272C181.329 12.5293 181.308 12.8288 181.308 13.0862V19.1934H178.182V12.0577Z" fill="white"/>
<path d="M202.382 12.7683C202.382 11.9753 202.044 10.647 200.565 10.647C199.214 10.647 198.666 11.8894 198.581 12.7683H202.382ZM198.602 14.9967C198.707 16.3466 200.017 16.989 201.516 16.989C202.614 16.989 203.501 16.8394 204.367 16.5611L204.79 18.768C203.733 19.1968 202.445 19.4326 201.051 19.4326C197.546 19.4326 195.539 17.3538 195.539 14.0753C195.539 11.4181 197.166 8.48256 200.756 8.48256C204.093 8.48256 205.36 11.1185 205.36 13.7112C205.36 14.2681 205.296 14.7612 205.254 14.9967H198.602Z" fill="white"/>
<path d="M207.069 12.0577C207.069 10.7503 207.027 9.63626 206.984 8.7149H209.772L209.919 10.1504H209.983C210.405 9.48633 211.462 8.4791 213.172 8.4791C215.284 8.4791 216.868 9.8933 216.868 12.9791V19.1934H213.658V13.3863C213.658 12.0364 213.193 11.1151 212.032 11.1151C211.144 11.1151 210.617 11.736 210.405 12.3363C210.321 12.5505 210.279 12.8504 210.279 13.1505V19.1934H207.069V12.0577Z" fill="white"/>
<path d="M222.695 5.86755V8.71769H224.997V11.118H222.695V14.9105C222.695 16.1752 222.99 16.7542 223.962 16.7542C224.406 16.7542 224.596 16.7321 224.913 16.6684L224.933 19.1328C224.511 19.3039 223.751 19.4326 222.843 19.4326C221.808 19.4326 220.942 19.0469 220.436 18.5106C219.844 17.8896 219.548 16.8823 219.548 15.4034V11.118H218.176V8.71769H219.548V6.74618L222.695 5.86755Z" fill="white"/>
<path d="M66.4994 26.264C65.8326 26.264 65.4812 26.8305 65.4812 27.4707C65.4812 28.0602 65.748 28.5152 66.0994 28.958C66.9237 28.4785 67.4574 28.0357 67.4574 27.3347C67.4574 26.8305 67.1785 26.264 66.5117 26.264H66.4994ZM66.2937 33.276C66.9843 33.276 67.5785 32.9561 67.9667 32.5255C67.4815 31.9846 66.5723 30.9756 65.6628 29.918C65.2264 30.201 64.6081 30.7297 64.6081 31.6033C64.6081 32.55 65.2993 33.276 66.2811 33.276H66.2937ZM69.2517 33.9525C69.0213 33.7188 68.803 33.4853 68.4877 33.1409C67.7845 33.8052 66.9963 34.0879 66.0994 34.0879C64.5111 34.0879 63.5898 33.005 63.5898 31.7634C63.5898 30.6318 64.2569 29.856 65.1902 29.3396V29.3029C64.7659 28.7618 64.5111 28.1595 64.5111 27.5682C64.5111 26.5604 65.2264 25.5264 66.5843 25.5264C67.6029 25.5264 68.3907 26.2151 68.3907 27.2858C68.3907 28.1595 67.8935 28.8479 66.5964 29.5V29.5367C67.2878 30.3483 68.0636 31.2586 68.5849 31.8493C68.9608 31.2708 69.215 30.4714 69.3728 29.4261H70.3428C70.1245 30.7297 69.7728 31.7634 69.1665 32.4888C69.6029 32.9561 70.0275 33.4236 70.5124 33.9525H69.2517Z" fill="white"/>
<path d="M73.6575 32.6492C74.1303 32.9441 74.8214 33.1898 75.5488 33.1898C76.6278 33.1898 77.2582 32.612 77.2582 31.7756C77.2582 31.0007 76.8215 30.5576 75.7183 30.1274C74.3848 29.647 73.5605 28.9457 73.5605 27.7778C73.5605 26.4856 74.6152 25.5264 76.2035 25.5264C77.0398 25.5264 77.6461 25.7235 78.0099 25.9328L77.7187 26.8064C77.4518 26.6582 76.9067 26.4122 76.1671 26.4122C75.0515 26.4122 74.6275 27.0888 74.6275 27.6547C74.6275 28.4299 75.1241 28.8113 76.252 29.2537C77.634 29.7949 78.337 30.4717 78.337 31.6894C78.337 32.9686 77.4036 34.0879 75.4759 34.0879C74.688 34.0879 73.827 33.8422 73.3906 33.5473L73.6575 32.6492Z" fill="white"/>
<path d="M83.416 30.3981C83.428 29.7093 83.1371 28.6386 81.9369 28.6386C80.8579 28.6386 80.385 29.6467 80.3004 30.3981H83.416ZM80.2883 31.1724C80.3124 32.6367 81.234 33.2387 82.3007 33.2387C83.0645 33.2387 83.525 33.1042 83.9249 32.9316L84.1071 33.7065C83.7313 33.8786 83.0886 34.0879 82.155 34.0879C80.3489 34.0879 79.2695 32.8705 79.2695 31.0746C79.2695 29.2785 80.3124 27.8637 82.0219 27.8637C83.9376 27.8637 84.4465 29.5734 84.4465 30.6685C84.4465 30.8898 84.4221 31.0624 84.4101 31.1724H80.2883Z" fill="white"/>
<path d="M86.7031 30.7283H86.7272C86.873 30.519 87.0793 30.2611 87.2488 30.0518L88.9703 27.9977H90.2554L87.9882 30.4456L90.5707 33.9512H89.2733L87.2488 31.098L86.7031 31.7125V33.9512H85.6484V25.2179H86.7031V30.7283Z" fill="white"/>
<path d="M96.1693 32.3284C96.1693 32.9438 96.1813 33.4853 96.2175 33.9525H95.2718L95.2113 32.9805H95.1872C94.9083 33.4603 94.29 34.0879 93.2474 34.0879C92.3258 34.0879 91.2227 33.5718 91.2227 31.4801V27.9991H92.2897V31.2962C92.2897 32.4277 92.6291 33.1898 93.5988 33.1898C94.3141 33.1898 94.8113 32.6859 95.0053 32.2062C95.0658 32.0458 95.1023 31.8493 95.1023 31.6522V27.9991H96.1693V32.3284Z" fill="white"/>
<path d="M97.8219 29.8547C97.8219 29.1537 97.8099 28.5511 97.7734 27.9977H98.707L98.7435 29.1659H98.7917C99.0585 28.3674 99.7012 27.8623 100.416 27.8623C100.538 27.8623 100.622 27.8746 100.719 27.899V28.9199C100.61 28.8955 100.501 28.8835 100.356 28.8835C99.6039 28.8835 99.0706 29.4614 98.9254 30.273C98.9007 30.4212 98.8766 30.5929 98.8766 30.7778V33.9512H97.8219V29.8547Z" fill="white"/>
<path d="M101.711 28.0032H102.778V33.9566H101.711V28.0032ZM102.899 26.3301C102.912 26.6987 102.645 26.9942 102.22 26.9942C101.844 26.9942 101.578 26.6987 101.578 26.3301C101.578 25.9488 101.857 25.6533 102.245 25.6533C102.645 25.6533 102.899 25.9488 102.899 26.3301Z" fill="white"/>
<path d="M105.71 26.5726V27.9991H107.237V28.8235H105.71V32.0338C105.71 32.7715 105.916 33.1898 106.51 33.1898C106.801 33.1898 106.971 33.1654 107.128 33.1165L107.177 33.9284C106.971 34.0145 106.643 34.0879 106.231 34.0879C105.734 34.0879 105.334 33.9156 105.079 33.6207C104.776 33.3007 104.667 32.7715 104.667 32.0705V28.8235H103.758V27.9991H104.667V26.9042L105.71 26.5726Z" fill="white"/>
<path d="M111.411 30.9145C110.248 30.8901 108.926 31.0994 108.926 32.2551C108.926 32.9564 109.387 33.2882 109.932 33.2882C110.696 33.2882 111.181 32.7959 111.351 32.2917C111.387 32.1814 111.411 32.0586 111.411 31.9477V30.9145ZM112.442 32.5255C112.442 33.0428 112.466 33.5473 112.539 33.9528H111.569L111.484 33.202H111.447C111.12 33.6696 110.49 34.0879 109.653 34.0879C108.465 34.0879 107.859 33.2387 107.859 32.3782C107.859 30.939 109.12 30.1515 111.387 30.1646V30.0409C111.387 29.5492 111.254 28.6634 110.053 28.6634C109.508 28.6634 108.938 28.8357 108.526 29.1061L108.283 28.3929C108.768 28.0724 109.472 27.864 110.211 27.864C112.005 27.864 112.442 29.1061 112.442 30.2991V32.5255Z" fill="white"/>
<path d="M113.895 32.8454C114.211 33.0547 114.769 33.276 115.302 33.276C116.077 33.276 116.442 32.8827 116.442 32.3904C116.442 31.8731 116.138 31.5908 115.35 31.2962C114.296 30.9142 113.799 30.3233 113.799 29.6101C113.799 28.6509 114.562 27.8637 115.823 27.8637C116.418 27.8637 116.938 28.0357 117.266 28.2325L116.999 29.0197C116.769 28.8724 116.345 28.6756 115.799 28.6756C115.168 28.6756 114.817 29.0447 114.817 29.4878C114.817 29.9795 115.168 30.201 115.932 30.4959C116.95 30.8898 117.472 31.4062 117.472 32.2917C117.472 33.3377 116.672 34.0879 115.277 34.0879C114.635 34.0879 114.041 33.9153 113.629 33.6693L113.895 32.8454Z" fill="white"/>
<path d="M122.258 33.9546H121.203V25.6641H122.258V33.9546Z" fill="white"/>
<path d="M124.068 29.6087C124.068 28.9942 124.056 28.4891 124.02 27.9977H124.965L125.025 28.9819H125.05C125.341 28.416 126.02 27.8623 126.989 27.8623C127.802 27.8623 129.063 28.354 129.063 30.3967V33.9512H127.996V30.519C127.996 29.5598 127.644 28.7604 126.638 28.7604C125.935 28.7604 125.389 29.2649 125.207 29.8669C125.159 30.0029 125.135 30.1874 125.135 30.3714V33.9512H124.068V29.6087Z" fill="white"/>
<path d="M134.671 30.4225C134.671 30.2866 134.659 30.1023 134.622 29.9675C134.465 29.2785 133.883 28.712 133.083 28.712C131.98 28.712 131.325 29.6965 131.325 31.0126C131.325 32.2184 131.907 33.2143 133.058 33.2143C133.774 33.2143 134.429 32.7345 134.622 31.9229C134.659 31.7753 134.671 31.6277 134.671 31.4557V30.4225ZM135.738 25.2193V32.4155C135.738 32.9438 135.751 33.547 135.787 33.9525H134.829L134.781 32.9194H134.756C134.429 33.5837 133.713 34.0879 132.756 34.0879C131.338 34.0879 130.246 32.8705 130.246 31.0624C130.234 29.0817 131.447 27.8637 132.877 27.8637C133.774 27.8637 134.38 28.294 134.647 28.774H134.671V25.2193H135.738Z" fill="white"/>
<path d="M138.044 30.9879C138.044 32.2917 138.783 33.276 139.826 33.276C140.844 33.276 141.608 32.304 141.608 30.9634C141.608 29.9553 141.111 28.6759 139.85 28.6759C138.589 28.6759 138.044 29.856 138.044 30.9879ZM142.7 30.9267C142.7 33.1287 141.196 34.0879 139.777 34.0879C138.189 34.0879 136.965 32.9074 136.965 31.0251C136.965 29.0322 138.25 27.864 139.874 27.864C141.559 27.864 142.7 29.1061 142.7 30.9267Z" fill="white"/>
<path d="M143.927 29.6087C143.927 28.9942 143.915 28.4891 143.879 27.9977H144.824L144.885 28.9819H144.91C145.2 28.416 145.879 27.8623 146.849 27.8623C147.662 27.8623 148.922 28.354 148.922 30.3967V33.9512H147.855V30.519C147.855 29.5598 147.503 28.7604 146.498 28.7604C145.795 28.7604 145.248 29.2649 145.067 29.8669C145.018 30.0029 144.994 30.1874 144.994 30.3714V33.9512H143.927V29.6087Z" fill="white"/>
<path d="M154.251 30.3981C154.263 29.7093 153.972 28.6386 152.773 28.6386C151.693 28.6386 151.221 29.6467 151.136 30.3981H154.251ZM151.124 31.1724C151.148 32.6367 152.07 33.2387 153.136 33.2387C153.9 33.2387 154.36 33.1042 154.761 32.9316L154.943 33.7065C154.567 33.8786 153.924 34.0879 152.991 34.0879C151.185 34.0879 150.105 32.8705 150.105 31.0746C150.105 29.2785 151.148 27.8637 152.857 27.8637C154.773 27.8637 155.282 29.5734 155.282 30.6685C155.282 30.8898 155.258 31.0624 155.245 31.1724H151.124Z" fill="white"/>
<path d="M156.341 32.8454C156.655 33.0547 157.214 33.276 157.746 33.276C158.523 33.276 158.886 32.8827 158.886 32.3904C158.886 31.8731 158.583 31.5908 157.795 31.2962C156.741 30.9142 156.243 30.3233 156.243 29.6101C156.243 28.6509 157.008 27.8637 158.268 27.8637C158.862 27.8637 159.383 28.0357 159.711 28.2325L159.444 29.0197C159.214 28.8724 158.79 28.6756 158.244 28.6756C157.613 28.6756 157.262 29.0447 157.262 29.4878C157.262 29.9795 157.613 30.201 158.377 30.4959C159.395 30.8898 159.917 31.4062 159.917 32.2917C159.917 33.3377 159.116 34.0879 157.722 34.0879C157.08 34.0879 156.486 33.9153 156.074 33.6693L156.341 32.8454Z" fill="white"/>
<path d="M161.161 28.0032H162.227V33.9566H161.161V28.0032ZM162.349 26.3301C162.361 26.6987 162.095 26.9942 161.67 26.9942C161.294 26.9942 161.027 26.6987 161.027 26.3301C161.027 25.9488 161.306 25.6533 161.694 25.6533C162.095 25.6533 162.349 25.9488 162.349 26.3301Z" fill="white"/>
<path d="M166.97 30.9145C165.806 30.8901 164.485 31.0994 164.485 32.2551C164.485 32.9564 164.945 33.2882 165.491 33.2882C166.255 33.2882 166.74 32.7959 166.909 32.2917C166.946 32.1814 166.97 32.0586 166.97 31.9477V30.9145ZM168 32.5255C168 33.0428 168.025 33.5473 168.098 33.9528H167.128L167.043 33.202H167.006C166.678 33.6696 166.048 34.0879 165.212 34.0879C164.024 34.0879 163.418 33.2387 163.418 32.3782C163.418 30.939 164.678 30.1515 166.946 30.1646V30.0409C166.946 29.5492 166.812 28.6634 165.612 28.6634C165.066 28.6634 164.497 28.8357 164.085 29.1061L163.842 28.3929C164.327 28.0724 165.03 27.864 165.769 27.864C167.563 27.864 168 29.1061 168 30.2991V32.5255Z" fill="white"/>
</svg>
