<svg width="330" height="50" viewBox="0 0 330 50" fill="none" xmlns="http://www.w3.org/2000/svg">
<path d="M40.1771 13.2588C40.39 13.2588 40.7671 13.436 41.2809 14.006C43.9563 16.9529 46.9579 19.282 49.4832 20.6905C49.8476 20.8899 50.047 21.0432 50.047 21.2366C50.047 21.3839 50.0264 21.5273 49.7121 21.5273C49.1427 21.5273 45.9594 20.8899 45.1169 20.4932C44.2707 20.0851 42.452 18.5886 40.2823 14.7929C40.0366 14.3646 39.7773 13.9962 39.7773 13.6512C39.7773 13.3088 40.0816 13.2588 40.1771 13.2588Z" fill="white"/>
<path d="M47.3812 2.40734C47.3812 2.40734 47.9093 3.4654 42.7662 4.20153C43.3259 2.59051 43.6975 1.5286 43.6975 1.5286C44.024 0.5602 43.2867 -0.000859001 42.7565 -0.000859001C42.2255 -0.000859001 41.8383 0.413743 41.6157 0.9368L40.0878 4.48547C38.0827 4.62125 36.5981 4.5461 35.9244 4.48163C34.994 4.38983 34.7512 4.90989 34.7512 5.44491C34.7512 6.3783 36.3742 7.32535 37.4111 7.22117C38.0621 7.15968 38.4404 7.13278 38.9744 7.07514L33.2872 20.2634C33.0692 20.7557 32.8946 21.5508 33.8696 21.5508C34.8475 21.5508 37.0429 20.646 37.4111 19.596C37.5643 19.1554 38.6975 15.8958 39.9603 12.2673C40.5865 12.1417 42.8815 11.7869 43.5203 11.7869C44.1262 11.7869 44.4385 12.0598 44.4385 12.3847C44.4385 13.146 42.6417 15.3279 39.1608 18.0119C38.7816 18.3087 39.0968 18.5397 39.2904 18.5397C39.8286 18.5397 42.228 16.874 43.4155 15.9615C44.7234 14.9611 46.9961 12.3608 46.9961 10.5277C46.9961 9.81083 46.6818 9.15114 45.2574 9.15114C43.878 9.15114 41.4331 9.46113 40.9147 9.52902C41.2505 8.55165 41.5863 7.59777 41.8985 6.70409C44.5887 6.32578 46.1911 6.0777 47.1375 5.88043C48.4378 5.60118 49.4852 4.8403 49.4852 4.05721C49.4852 2.39324 47.3812 2.40734 47.3812 2.40734Z" fill="white"/>
<path d="M1.63776 10.6597H0V9.01762H1.63776V6.83072H3.85287V9.01762H5.94721V10.6597H3.85287V14.6804C3.85287 15.4195 4.04896 16.1052 4.89183 16.1052C5.29033 16.1052 5.66821 16.0236 5.89713 15.8759L5.96782 17.6474C5.50031 17.7908 4.99367 17.8506 4.3309 17.8506C2.59383 17.8506 1.63776 16.7588 1.63776 15.0493V10.6597Z" fill="white"/>
<path d="M7.63672 9.02163H9.6006V10.9848H9.63595C9.734 10.1753 10.6421 8.81712 11.963 8.81712C12.1772 8.81712 12.4086 8.81712 12.6396 8.88884V11.15C12.4419 11.0365 12.0463 10.9669 11.6487 10.9669C9.84972 10.9669 9.84972 13.2464 9.84972 14.4833V17.6514H7.63672L7.63672 9.02163Z" fill="white"/>
<path d="M21.8256 17.6474H19.7241V16.4796H19.6909C19.0172 17.3165 18.059 17.8506 16.9022 17.8506C14.8874 17.8506 14.0117 16.41 14.0117 14.4614V9.01761H16.2188V13.6245C16.2188 14.6804 16.2407 16.1052 17.6622 16.1052C19.2629 16.1052 19.6122 14.3457 19.6122 13.242V9.01761H21.8256V17.6474Z" fill="white"/>
<path d="M29.1159 12.4867C29.0469 11.3988 28.5521 10.4586 27.3162 10.4586C26.0748 10.4586 25.4486 11.3309 25.3493 12.4867H29.1159ZM30.6005 17.161C29.7913 17.6132 28.8672 17.8506 27.6764 17.8506C24.8721 17.8506 23.2344 16.2089 23.2344 13.3794C23.2344 10.8787 24.5401 8.8131 27.1836 8.8131C30.3392 8.8131 31.2309 11.0085 31.2309 14.031H25.3493C25.4486 15.4195 26.4051 16.2089 27.7757 16.2089C28.8546 16.2089 29.7758 15.8063 30.6005 15.3358V17.161Z" fill="white"/>
<path d="M48.5508 9.14937H50.5176V11.1074H50.5509C50.6481 10.3022 51.5574 8.9423 52.8808 8.9423C53.0938 8.9423 53.3248 8.9423 53.5554 9.0089V11.2748C53.361 11.1574 52.9633 11.0916 52.5657 11.0916C50.7638 11.0916 50.7638 13.369 50.7638 14.6064V17.7744H48.5508V9.14937Z" fill="white"/>
<path d="M54.8438 9.14817H57.0597V17.7732H54.8438V9.14817ZM54.8438 5.55273H57.0597V7.69779H54.8438V5.55273Z" fill="white"/>
<path d="M64.3295 12.6175C64.2639 11.5237 63.7686 10.5895 62.5297 10.5895C61.2867 10.5895 60.6622 11.46 60.5663 12.6175H64.3295ZM65.8141 17.2919C65.0062 17.7462 64.0842 17.9814 62.8929 17.9814C60.0861 17.9814 58.4492 16.3372 58.4492 13.5043C58.4492 11.0058 59.7512 8.94396 62.398 8.94396C65.5519 8.94396 66.4407 11.139 66.4407 14.1597H60.5663C60.6622 15.5525 61.6187 16.3372 62.9922 16.3372C64.0636 16.3372 64.9923 15.9372 65.8141 15.4666V17.2919Z" fill="white"/>
<path d="M67.7578 9.22469H69.8589V10.3954H69.8883C70.5856 9.40487 71.5274 9.01761 72.6808 9.01761C74.6998 9.01761 75.5713 10.4603 75.5713 12.4051V17.8506H73.3604V13.242C73.3604 12.1861 73.3427 10.7613 71.9229 10.7613C70.3243 10.7613 69.9729 12.5187 69.9729 13.6305V17.8506H67.7578V9.22469Z" fill="white"/>
<path d="M81.0949 16.236C82.5693 16.236 83.0507 14.664 83.0507 13.4364C83.0507 12.229 82.4852 10.6868 81.0633 10.6868C79.6309 10.6868 79.2353 12.2811 79.2353 13.4364C79.2353 14.6302 79.6435 16.236 81.0949 16.236ZM83.1311 16.8077H83.0979C82.436 17.6446 81.5287 17.9814 80.4902 17.9814C77.8766 17.9814 76.918 15.7997 76.918 13.4364C76.918 11.0557 77.8766 8.94396 80.4902 8.94396C81.5956 8.94396 82.3712 9.33164 83.0331 10.1523H83.0667V5.20634H85.2776V17.7761H83.1311V16.8077Z" fill="white"/>
<path d="M94.7656 6.96541H99.4428V16.3318H99.5363C100 15.5141 100.497 14.76 100.961 14.006L105.7 6.96541H111.493L104.585 15.9859L111.864 28.1494H106.35L101.24 19.0034L99.4428 21.2344V28.1494H94.7656V6.96541Z" fill="white"/>
<path d="M116.789 20.4534C116.789 23.0933 117.873 25.0731 119.886 25.0731C121.714 25.0731 122.891 23.2188 122.891 20.4534C122.891 18.1589 122.024 15.8332 119.886 15.8332C117.625 15.8332 116.789 18.1905 116.789 20.4534ZM127.754 20.2962C127.754 25.9215 123.82 28.499 119.763 28.499C115.333 28.499 111.926 25.5449 111.926 20.5789C111.926 15.6138 115.147 12.4389 120.011 12.4389C124.657 12.4389 127.754 15.6765 127.754 20.2962Z" fill="white"/>
<path d="M130.351 17.8463C130.351 15.5834 130.289 14.1065 130.227 12.7864H134.284L134.439 15.615H134.563C135.338 13.3837 137.196 12.4405 138.652 12.4405C139.085 12.4405 139.302 12.4405 139.643 12.5033V17.0291C139.302 16.9352 138.9 16.872 138.373 16.872C136.638 16.872 135.461 17.8147 135.152 19.2924C135.09 19.6062 135.059 19.9837 135.059 20.3607V28.1553H130.351V17.8463Z" fill="white"/>
<path d="M150.735 18.7246C150.735 17.5616 150.24 15.6133 148.071 15.6133C146.088 15.6133 145.283 17.4356 145.16 18.7246H150.735ZM145.191 21.993C145.345 23.9728 147.266 24.9151 149.465 24.9151C151.076 24.9151 152.376 24.6957 153.646 24.2875L154.266 27.5243C152.717 28.1532 150.828 28.499 148.784 28.499C143.642 28.499 140.699 25.4501 140.699 20.6417C140.699 16.7444 143.084 12.4389 148.35 12.4389C153.244 12.4389 155.102 16.305 155.102 20.1075C155.102 20.9243 155.009 21.6476 154.948 21.993H145.191Z" fill="white"/>
<path d="M165.662 20.8931C163.184 20.862 161.264 21.4593 161.264 23.3136C161.264 24.539 162.069 25.1367 163.122 25.1367C164.299 25.1367 165.259 24.3511 165.569 23.3763C165.631 23.1244 165.662 22.8414 165.662 22.5587V20.8931ZM170.246 24.4134C170.246 25.8899 170.308 27.3048 170.463 28.1536H166.219L165.941 26.6131H165.848C164.857 27.8385 163.308 28.499 161.512 28.499C158.445 28.499 156.617 26.2366 156.617 23.7849C156.617 19.7933 160.148 17.8762 165.507 17.9074V17.6879C165.507 16.8703 165.073 15.7077 162.75 15.7077C161.202 15.7077 159.56 16.2418 158.569 16.8703L157.702 13.7906C158.754 13.1933 160.83 12.4393 163.587 12.4393C168.636 12.4393 170.246 15.4562 170.246 19.0704V24.4134Z" fill="white"/>
<path d="M184.497 28.1508H179.758V6.9668H184.497V28.1508Z" fill="white"/>
<path d="M188.21 17.6837C188.21 15.7663 188.148 14.1323 188.086 12.7809H192.175L192.391 14.8863H192.485C193.104 13.9124 194.653 12.4351 197.161 12.4351C200.259 12.4351 202.583 14.5093 202.583 19.0351V28.1494H197.873V19.6324C197.873 17.6526 197.192 16.3012 195.49 16.3012C194.188 16.3012 193.414 17.212 193.104 18.0923C192.98 18.4066 192.918 18.8464 192.918 19.2866V28.1494H188.21V17.6837Z" fill="white"/>
<path d="M208.961 12.7864L211.005 19.9205C211.378 21.209 211.656 22.4348 211.873 23.6607H211.966C212.214 22.4037 212.462 21.2406 212.802 19.9205L214.755 12.7864H219.711L214.073 28.1553H209.365L203.852 12.7864H208.961Z" fill="white"/>
<path d="M230.267 18.7246C230.267 17.5616 229.77 15.6133 227.603 15.6133C225.62 15.6133 224.815 17.4356 224.691 18.7246H230.267ZM224.722 21.993C224.877 23.9728 226.798 24.9151 228.997 24.9151C230.607 24.9151 231.908 24.6957 233.178 24.2875L233.798 27.5243C232.249 28.1532 230.36 28.499 228.315 28.499C223.174 28.499 220.23 25.4501 220.23 20.6417C220.23 16.7444 222.616 12.4389 227.882 12.4389C232.775 12.4389 234.635 16.305 234.635 20.1075C234.635 20.9243 234.54 21.6476 234.48 21.993H224.722Z" fill="white"/>
<path d="M237.11 23.9728C237.977 24.5069 239.774 25.1367 241.167 25.1367C242.593 25.1367 243.181 24.6333 243.181 23.8473C243.181 23.0621 242.716 22.6847 240.951 22.0873C237.822 21.0191 236.614 19.2903 236.645 17.4988C236.645 14.6074 239.062 12.4389 242.809 12.4389C244.574 12.4389 246.155 12.8471 247.083 13.3189L246.247 16.6188C245.566 16.2414 244.265 15.7389 242.964 15.7389C241.818 15.7389 241.167 16.2098 241.167 16.9963C241.167 17.7191 241.756 18.0957 243.614 18.7558C246.495 19.7617 247.703 21.2386 247.734 23.5014C247.734 26.3617 245.504 28.499 241.167 28.499C239.186 28.499 237.42 28.0277 236.273 27.3987L237.11 23.9728Z" fill="white"/>
<path d="M255.542 8.60366V12.7838H258.918V16.3043H255.542V21.8667C255.542 23.7215 255.976 24.5708 257.4 24.5708C258.051 24.5708 258.33 24.5383 258.794 24.4448L258.825 28.0592C258.206 28.3103 257.091 28.499 255.759 28.499C254.241 28.499 252.971 27.9333 252.228 27.1468C251.361 26.236 250.927 24.7586 250.927 22.5896V16.3043H248.914V12.7838H250.927V9.8923L255.542 8.60366Z" fill="white"/>
<path d="M261.335 17.6837C261.335 15.7663 261.274 14.1323 261.211 12.7809H265.176L265.393 14.8551H265.486C266.136 13.8808 267.467 12.4351 270.07 12.4351C272.021 12.4351 273.571 13.4406 274.221 15.0434H274.283C274.84 14.2262 275.522 13.6293 276.234 13.1891C277.071 12.6866 277.999 12.4351 279.114 12.4351C282.027 12.4351 284.226 14.5093 284.226 19.0983V28.1494H279.641V19.7895C279.641 17.5578 278.929 16.2696 277.411 16.2696C276.327 16.2696 275.552 17.0237 275.243 17.9352C275.118 18.2811 275.057 18.7836 275.057 19.1606V28.1494H270.472V19.5376C270.472 17.589 269.791 16.2696 268.304 16.2696C267.096 16.2696 266.383 17.212 266.104 17.998C265.95 18.3754 265.92 18.8148 265.92 19.1922V28.1494H261.335V17.6837Z" fill="white"/>
<path d="M296.83 18.7246C296.83 17.5616 296.334 15.6133 294.165 15.6133C292.183 15.6133 291.378 17.4356 291.255 18.7246H296.83ZM291.285 21.993C291.439 23.9728 293.36 24.9151 295.559 24.9151C297.17 24.9151 298.471 24.6957 299.741 24.2875L300.361 27.5243C298.811 28.1532 296.922 28.499 294.878 28.499C289.737 28.499 286.793 25.4501 286.793 20.6417C286.793 16.7444 289.179 12.4389 294.444 12.4389C299.338 12.4389 301.197 16.305 301.197 20.1075C301.197 20.9243 301.104 21.6476 301.042 21.993H291.285Z" fill="white"/>
<path d="M303.702 17.6837C303.702 15.7663 303.64 14.1323 303.578 12.7809H307.667L307.883 14.8863H307.977C308.595 13.9124 310.145 12.4351 312.653 12.4351C315.752 12.4351 318.074 14.5093 318.074 19.0351V28.1494H313.366V19.6324C313.366 17.6526 312.684 16.3012 310.981 16.3012C309.679 16.3012 308.905 17.212 308.595 18.0923C308.472 18.4066 308.41 18.8464 308.41 19.2866V28.1494H303.702V17.6837Z" fill="white"/>
<path d="M326.625 8.60366V12.7838H330.001V16.3043H326.625V21.8667C326.625 23.7215 327.058 24.5708 328.483 24.5708C329.133 24.5708 329.412 24.5383 329.877 24.4448L329.907 28.0592C329.288 28.3103 328.173 28.499 326.842 28.499C325.323 28.499 324.053 27.9333 323.311 27.1468C322.443 26.236 322.009 24.7586 322.009 22.5896V16.3043H319.996V12.7838H322.009V9.8923L326.625 8.60366Z" fill="white"/>
<path d="M97.5369 38.526C96.5589 38.526 96.0435 39.3568 96.0435 40.2957C96.0435 41.1603 96.4348 41.8277 96.9503 42.4771C98.1593 41.7739 98.942 41.1245 98.942 40.0963C98.942 39.3568 98.5329 38.526 97.555 38.526H97.5369ZM97.2352 48.8102C98.248 48.8102 99.1195 48.341 99.6889 47.7095C98.9773 46.9162 97.6438 45.4363 96.3098 43.8852C95.6698 44.3002 94.763 45.0756 94.763 46.3569C94.763 47.7453 95.7767 48.8102 97.2167 48.8102H97.2352ZM101.574 49.8024C101.236 49.4596 100.916 49.1172 100.453 48.6121C99.4217 49.5864 98.2657 50.001 96.9503 50.001C94.6207 50.001 93.2695 48.4127 93.2695 46.5917C93.2695 44.9321 94.2479 43.7942 95.6168 43.0368V42.983C94.9944 42.1893 94.6207 41.3059 94.6207 40.4388C94.6207 38.9606 95.6698 37.4441 97.6614 37.4441C99.1553 37.4441 100.311 38.4542 100.311 40.0246C100.311 41.3059 99.5816 42.3157 97.6791 43.2721V43.3259C98.6933 44.5162 99.8311 45.8513 100.596 46.7176C101.147 45.8693 101.52 44.6968 101.751 43.1636H103.174C102.854 45.0756 102.338 46.5917 101.449 47.6557C102.089 48.341 102.712 49.0267 103.423 49.8024H101.574Z" fill="white"/>
<path d="M108.032 47.8909C108.725 48.3234 109.739 48.6838 110.806 48.6838C112.389 48.6838 113.313 47.8363 113.313 46.6096C113.313 45.4731 112.673 44.8232 111.055 44.1922C109.099 43.4877 107.89 42.4591 107.89 40.7462C107.89 38.8509 109.437 37.4441 111.766 37.4441C112.993 37.4441 113.882 37.7331 114.416 38.0401L113.988 39.3214C113.597 39.1041 112.798 38.7433 111.713 38.7433C110.077 38.7433 109.455 39.7356 109.455 40.5656C109.455 41.7026 110.183 42.2619 111.837 42.9109C113.864 43.7046 114.895 44.6973 114.895 46.4832C114.895 48.3593 113.526 50.001 110.699 50.001C109.543 50.001 108.281 49.6406 107.641 49.2081L108.032 47.8909Z" fill="white"/>
<path d="M122.347 44.5892C122.365 43.5791 121.938 42.0087 120.178 42.0087C118.595 42.0087 117.902 43.4873 117.778 44.5892H122.347ZM117.76 45.725C117.795 47.8726 119.147 48.7555 120.711 48.7555C121.832 48.7555 122.507 48.5583 123.094 48.3051L123.361 49.4417C122.81 49.694 121.867 50.001 120.498 50.001C117.849 50.001 116.266 48.2154 116.266 45.5815C116.266 42.9472 117.795 40.8721 120.302 40.8721C123.112 40.8721 123.859 43.3797 123.859 44.9859C123.859 45.3104 123.823 45.5636 123.805 45.725H117.76Z" fill="white"/>
<path d="M127.168 45.0749H127.203C127.417 44.7679 127.72 44.3896 127.968 44.0826L130.493 41.07H132.378L129.053 44.6603L132.84 49.8018H130.938L127.968 45.6171L127.168 46.5184V49.8018H125.621V36.9929H127.168V45.0749Z" fill="white"/>
<path d="M141.052 47.4204C141.052 48.323 141.07 49.1172 141.123 49.8024H139.736L139.647 48.3768H139.612C139.203 49.0804 138.296 50.001 136.766 50.001C135.415 50.001 133.797 49.244 133.797 46.1763V41.0707H135.362V45.9064C135.362 47.566 135.86 48.6838 137.282 48.6838C138.331 48.6838 139.06 47.9447 139.345 47.2411C139.434 47.0058 139.487 46.7176 139.487 46.4286V41.0707H141.052V47.4204Z" fill="white"/>
<path d="M143.473 43.7936C143.473 42.7654 143.456 41.8816 143.402 41.07H144.772L144.825 42.7834H144.896C145.287 41.6122 146.23 40.8714 147.279 40.8714C147.456 40.8714 147.581 40.8894 147.723 40.9252V42.4226C147.563 42.3867 147.403 42.3692 147.19 42.3692C146.087 42.3692 145.305 43.2167 145.092 44.4071C145.056 44.6244 145.02 44.8763 145.02 45.1475V49.8018H143.473V43.7936Z" fill="white"/>
<path d="M149.176 41.0734H150.74V49.8052H149.176V41.0734ZM150.918 38.6196C150.936 39.1602 150.545 39.5935 149.922 39.5935C149.371 39.5935 148.98 39.1602 148.98 38.6196C148.98 38.0603 149.389 37.627 149.958 37.627C150.545 37.627 150.918 38.0603 150.918 38.6196Z" fill="white"/>
<path d="M155.042 38.9785V41.0707H157.283V42.2798H155.042V46.9883C155.042 48.0703 155.345 48.6838 156.216 48.6838C156.643 48.6838 156.892 48.6479 157.123 48.5762L157.194 49.767C156.892 49.8934 156.411 50.001 155.807 50.001C155.078 50.001 154.491 49.7482 154.118 49.3157C153.673 48.8465 153.513 48.0703 153.513 47.0421V42.2798H152.18V41.0707H153.513V39.4649L155.042 38.9785Z" fill="white"/>
<path d="M163.405 45.3467C161.698 45.3108 159.759 45.6178 159.759 47.3128C159.759 48.3414 160.435 48.8281 161.236 48.8281C162.356 48.8281 163.067 48.1061 163.316 47.3666C163.369 47.2048 163.405 47.0246 163.405 46.862V45.3467ZM164.916 47.7095C164.916 48.4682 164.952 49.2081 165.059 49.8029H163.636L163.511 48.7017H163.458C162.978 49.3874 162.054 50.001 160.827 50.001C159.084 50.001 158.195 48.7555 158.195 47.4934C158.195 45.3825 160.044 44.2276 163.369 44.2468V44.0654C163.369 43.3442 163.174 42.045 161.413 42.045C160.613 42.045 159.777 42.2977 159.173 42.6944L158.817 41.6483C159.528 41.1783 160.56 40.8725 161.644 40.8725C164.276 40.8725 164.916 42.6944 164.916 44.4441V47.7095Z" fill="white"/>
<path d="M167.043 48.1787C167.506 48.4857 168.324 48.8102 169.106 48.8102C170.243 48.8102 170.778 48.2334 170.778 47.5114C170.778 46.7527 170.333 46.3385 169.177 45.9064C167.631 45.3462 166.901 44.4795 166.901 43.4335C166.901 42.0266 168.021 40.8721 169.871 40.8721C170.743 40.8721 171.506 41.1245 171.986 41.4131L171.595 42.5676C171.257 42.3515 170.635 42.0629 169.835 42.0629C168.91 42.0629 168.395 42.6043 168.395 43.2541C168.395 43.9753 168.91 44.3002 170.031 44.7327C171.524 45.3104 172.289 46.0678 172.289 47.3666C172.289 48.9007 171.116 50.001 169.07 50.001C168.128 50.001 167.257 49.7478 166.652 49.387L167.043 48.1787Z" fill="white"/>
<path d="M179.313 49.802H177.766V37.6426H179.313V49.802Z" fill="white"/>
<path d="M181.965 43.4328C181.965 42.5315 181.948 41.7907 181.895 41.07H183.281L183.369 42.5135H183.406C183.833 41.6835 184.829 40.8714 186.25 40.8714C187.442 40.8714 189.291 41.5926 189.291 44.5886V49.8018H187.727V44.7679C187.727 43.3611 187.211 42.1886 185.735 42.1886C184.704 42.1886 183.903 42.9285 183.637 43.8115C183.566 44.0109 183.531 44.2816 183.531 44.5514V49.8018H181.965V43.4328Z" fill="white"/>
<path d="M197.521 44.6251C197.521 44.4257 197.504 44.1555 197.45 43.9578C197.219 42.9472 196.366 42.1163 195.191 42.1163C193.574 42.1163 192.614 43.5603 192.614 45.4906C192.614 47.259 193.467 48.7197 195.156 48.7197C196.206 48.7197 197.166 48.016 197.45 46.8257C197.504 46.6092 197.521 46.3927 197.521 46.1404V44.6251ZM199.086 36.9936V47.5481C199.086 48.323 199.104 49.2077 199.158 49.8024H197.752L197.682 48.2872H197.646C197.166 49.2615 196.116 50.001 194.712 50.001C192.632 50.001 191.031 48.2154 191.031 45.5636C191.014 42.6585 192.792 40.8721 194.89 40.8721C196.206 40.8721 197.094 41.5032 197.486 42.2072H197.521V36.9936H199.086Z" fill="white"/>
<path d="M202.466 45.4543C202.466 47.3666 203.55 48.8102 205.079 48.8102C206.572 48.8102 207.694 47.3846 207.694 45.4184C207.694 43.9398 206.963 42.0633 205.115 42.0633C203.265 42.0633 202.466 43.7942 202.466 45.4543ZM209.294 45.3646C209.294 48.5941 207.088 50.001 205.008 50.001C202.678 50.001 200.883 48.2696 200.883 45.5089C200.883 42.5859 202.768 40.8725 205.15 40.8725C207.622 40.8725 209.294 42.6944 209.294 45.3646Z" fill="white"/>
<path d="M211.09 43.4328C211.09 42.5315 211.073 41.7907 211.02 41.07H212.406L212.495 42.5135H212.531C212.957 41.6835 213.953 40.8714 215.376 40.8714C216.567 40.8714 218.417 41.5926 218.417 44.5886V49.8018H216.851V44.7679C216.851 43.3611 216.336 42.1886 214.861 42.1886C213.83 42.1886 213.028 42.9285 212.762 43.8115C212.691 44.0109 212.656 44.2816 212.656 44.5514V49.8018H211.09V43.4328Z" fill="white"/>
<path d="M226.237 44.5892C226.255 43.5791 225.827 42.0087 224.068 42.0087C222.485 42.0087 221.792 43.4873 221.667 44.5892H226.237ZM221.65 45.725C221.685 47.8726 223.037 48.7555 224.601 48.7555C225.721 48.7555 226.397 48.5583 226.984 48.3051L227.251 49.4417C226.699 49.694 225.757 50.001 224.388 50.001C221.739 50.001 220.156 48.2154 220.156 45.5815C220.156 42.9472 221.685 40.8721 224.192 40.8721C227.001 40.8721 227.748 43.3797 227.748 44.9859C227.748 45.3104 227.713 45.5636 227.695 45.725H221.65Z" fill="white"/>
<path d="M229.297 48.1787C229.759 48.4857 230.577 48.8102 231.359 48.8102C232.498 48.8102 233.03 48.2334 233.03 47.5114C233.03 46.7527 232.586 46.3385 231.431 45.9064C229.885 45.3462 229.155 44.4795 229.155 43.4335C229.155 42.0266 230.275 40.8721 232.124 40.8721C232.995 40.8721 233.759 41.1245 234.24 41.4131L233.849 42.5676C233.512 42.3515 232.889 42.0629 232.089 42.0629C231.164 42.0629 230.648 42.6043 230.648 43.2541C230.648 43.9753 231.164 44.3002 232.284 44.7327C233.777 45.3104 234.542 46.0678 234.542 47.3666C234.542 48.9007 233.368 50.001 231.323 50.001C230.381 50.001 229.51 49.7478 228.906 49.387L229.297 48.1787Z" fill="white"/>
<path d="M236.371 41.0734H237.936V49.8052H236.371V41.0734ZM238.114 38.6196C238.132 39.1602 237.741 39.5935 237.118 39.5935C236.567 39.5935 236.176 39.1602 236.176 38.6196C236.176 38.0603 236.584 37.627 237.154 37.627C237.741 37.627 238.114 38.0603 238.114 38.6196Z" fill="white"/>
<path d="M244.89 45.3467C243.182 45.3108 241.244 45.6178 241.244 47.3128C241.244 48.3414 241.92 48.8281 242.72 48.8281C243.84 48.8281 244.552 48.1061 244.8 47.3666C244.853 47.2048 244.89 47.0246 244.89 46.862V45.3467ZM246.4 47.7095C246.4 48.4682 246.436 49.2081 246.543 49.8029H245.121L244.996 48.7017H244.943C244.461 49.3874 243.538 50.001 242.311 50.001C240.568 50.001 239.68 48.7555 239.68 47.4934C239.68 45.3825 241.528 44.2276 244.853 44.2468V44.0654C244.853 43.3442 244.658 42.045 242.898 42.045C242.097 42.045 241.262 42.2977 240.658 42.6944L240.302 41.6483C241.013 41.1783 242.044 40.8725 243.128 40.8725C245.759 40.8725 246.4 42.6944 246.4 44.4441V47.7095Z" fill="white"/>
</svg>
