<svg width="26" height="25" viewBox="0 0 26 25" fill="none" xmlns="http://www.w3.org/2000/svg">
<path d="M18.3056 0H7.19444C3.375 0 0.25 3.125 0.25 6.94444V18.0556C0.25 21.875 3.375 25 7.19444 25H18.3056C22.125 25 25.25 21.875 25.25 18.0556V6.94444C25.25 3.125 22.125 0 18.3056 0ZM21.4653 6.11111C21.3264 6.77083 18.7569 19.7222 18.6875 20V20.0694C18.6181 20.2778 18.5486 20.4514 18.3403 20.6597C18.2014 20.7986 17.9236 21.0069 17.5417 21.0069C16.9514 21.0069 16.7431 20.7292 16.7083 20.6944L16.6736 20.625L13.3403 17.5347L10.5972 19.8611L10.5625 19.8958C10.5625 19.8958 10.3889 20 10.1458 20C10.1111 20 10.0764 20 9.97222 19.9653H9.90278L9.86806 19.9306H9.79861C9.72917 19.8958 9.69444 19.8611 9.625 19.7917C9.52083 19.6528 9.41667 19.4444 9.3125 19.1667L9.27778 19.0625C9.10417 18.5417 8.40972 16.4236 8.0625 15.3819L7.95833 15.0694C7.95833 15.0694 4.72917 13.7847 4.06944 13.5069C3.89583 13.4375 3.72222 13.3681 3.51389 13.1944C3.375 13.0556 3.23611 12.7778 3.23611 12.5347C3.23611 12.2222 3.44444 11.9097 3.61806 11.8056C3.79167 11.6667 3.96528 11.5972 4.03472 11.5625L4.10417 11.5278L13.3403 7.63889C15.0417 6.90972 18.2708 5.55556 18.2708 5.55556C19.2431 5.13889 19.8333 4.89583 20.0417 4.82639C20.25 4.72222 20.4236 4.6875 20.5972 4.6875H20.6319C20.8056 4.6875 20.9444 4.72222 21.1181 4.82639C21.2917 4.93056 21.4306 5.13889 21.5 5.3125C21.5347 5.55556 21.5347 5.79861 21.4653 6.11111Z" fill="#42A5DC"/>
<path d="M20.18 6.14556C19.937 6.24973 19.3814 6.45806 18.3745 6.90945C17.1592 7.43028 15.562 8.09001 13.8606 8.81917C10.5967 10.1733 7.12446 11.6664 5.07585 12.4997C5.9439 12.847 7.40223 13.4372 8.16612 13.7497C8.27029 13.7844 8.33973 13.8539 8.4439 13.8886C10.7703 12.5692 15.5967 9.7914 16.7425 9.09695C16.8467 9.02751 16.9856 8.92334 17.1245 8.92334C17.2633 8.92334 17.3328 8.99278 17.3328 9.13167C17.3328 9.20112 17.2633 9.30528 17.0203 9.54834C16.7078 9.86084 11.43 15.1733 11.43 15.1733L10.6661 18.1595L12.0897 16.9442C12.8536 16.3192 13.9647 16.3192 14.6939 17.0136L17.5064 19.6178C17.6453 18.8192 20.0758 6.70112 20.18 6.14556Z" fill="#42A5DC"/>
</svg>
