<svg width="79" height="31" viewBox="0 0 79 31" fill="none" xmlns="http://www.w3.org/2000/svg">
<path fill-rule="evenodd" clip-rule="evenodd" d="M27.2447 22.1422L32.2327 30.3885H37.8743L30.2891 18.8335L36.5843 11.6052L31.3727 11.1641L29.9279 12.5894L24.7163 18.9692L24.5959 24.7043L27.2447 22.1422ZM9.09858 15.2193C5.29736 16.6107 5.21136 24.4328 8.27297 26.435C11.8506 28.7765 14.7574 25.5527 15.067 22.0064C15.2046 20.1739 14.8434 17.493 13.3814 16.0847C12.2634 14.9988 10.5778 14.7103 9.09858 15.2193ZM19.7626 11.741H23.5639L23.6154 23.2281C23.667 29.4892 20.4506 31.8477 14.3618 29.6928C14.3618 29.6928 10.7498 31.169 7.56777 29.9982C2.27014 28.03 0.997338 19.6988 4.17935 15.0497C6.46697 11.741 10.2682 11.0623 13.4674 12.267C15.3078 12.9966 17.8706 14.7103 18.5414 19.088C18.5414 19.088 19.5046 22.9566 17.2514 27.0798C17.2514 27.0798 19.7626 27.7755 19.7626 24.6025C19.7626 21.4465 19.7626 11.741 19.7626 11.741Z" fill="url(#paint0_radial_18_1540)"/>
<path fill-rule="evenodd" clip-rule="evenodd" d="M9.95966 4.63197C6.43364 5.667 3.83643 9.23022 3.83643 9.23022C4.76523 10.8082 5.50483 12.7595 5.59083 14.9314C12.8665 8.31397 17.9749 8.44971 27.3489 10.8082C35.3126 12.8104 39.6298 11.3682 42.3302 8.46667C42.3302 8.46667 36.379 11.5548 32.4058 9.94286C32.4058 9.94286 32.3542 9.90893 32.2166 9.85803C30.015 10.0786 26.3685 7.94067 26.3685 7.94067C21.6385 5.39552 14.6381 3.30849 9.95966 4.63197Z" fill="#A1A0A0"/>
<path fill-rule="evenodd" clip-rule="evenodd" d="M3.83562 8.87378C3.83562 8.87378 6.43283 5.31056 9.95885 4.30947C14.6373 2.95205 21.6377 5.03908 26.3505 7.61817C26.3505 7.61817 29.9969 9.7561 32.1986 9.51855C31.4074 9.21313 28.5865 7.95752 25.8173 5.61598C22.5665 2.83328 16.2885 -0.950524 9.20205 0.220248C2.11561 1.39102 0 4.22463 0 4.22463C0 4.22463 2.18441 5.9723 3.83562 8.87378Z" fill="url(#paint1_linear_18_1540)"/>
<path fill-rule="evenodd" clip-rule="evenodd" d="M9.95966 4.30923C6.43364 5.31033 3.83643 8.87355 3.83643 8.87355C4.76523 10.4855 5.50483 12.4028 5.59083 14.6086C12.8665 7.95729 17.9749 8.09303 27.3489 10.4685C35.3126 12.4707 39.6298 11.0454 42.3302 8.1609C42.3302 8.1609 36.379 11.2151 32.4058 9.60316C32.4058 9.60316 32.3542 9.56922 32.2166 9.51832C30.015 9.77283 26.3685 7.61794 26.3685 7.61794C21.6385 5.02188 14.6381 2.93485 9.95966 4.30923Z" fill="url(#paint2_linear_18_1540)"/>
<path fill-rule="evenodd" clip-rule="evenodd" d="M41.1255 11.3682H41.8307V30.9659H41.1255V11.3682Z" fill="#801710"/>
<path d="M41.1247 11.3508H41.8815V30.9994H41.0903V11.3508H41.1247ZM41.7955 11.4017H41.1419V30.9146H41.7955V11.4017Z" fill="#801710"/>
<path d="M45.4946 29.3203V24.5693H46.3202V26.7412H46.3546L48.0402 24.5693H49.0894L47.1974 26.9278L49.227 29.3203H48.1434L46.3374 27.1824H46.303V29.3203H45.4946ZM50.3451 28.6077H52.5811V29.3373H49.5366V24.5863H52.4779V25.3159H50.3623V26.5715H52.1683V27.3011H50.3623V28.6077H50.3451ZM54.9719 29.4051C54.7483 29.4051 54.5419 29.4051 54.3527 29.3542C54.1635 29.3033 53.9915 29.2185 53.8367 29.1336C53.6991 29.0488 53.5787 28.947 53.4755 28.7943C53.3895 28.6586 53.3035 28.5228 53.2519 28.3531C53.2003 28.2174 53.1315 28.0817 53.1315 27.912C53.0971 27.7423 53.0971 27.5726 53.0971 27.386V24.5693H53.9227V27.3011C53.9227 27.6405 53.9571 27.912 54.0431 28.0817C54.1291 28.3022 54.2323 28.438 54.4043 28.5567C54.5763 28.6416 54.7655 28.6925 54.9891 28.6925C55.2127 28.6925 55.4191 28.6416 55.5567 28.5567C55.7287 28.438 55.8663 28.3022 55.9523 28.0817C56.0039 27.912 56.0727 27.6405 56.0727 27.3011V24.5693H56.8983V27.386C56.8983 27.5726 56.8983 27.7423 56.8639 27.912C56.8295 28.0817 56.8123 28.2174 56.7435 28.3531C56.6919 28.5228 56.6059 28.6586 56.4855 28.7943C56.3995 28.93 56.2619 29.0488 56.1243 29.1336C55.9867 29.2185 55.8147 29.3033 55.6083 29.3542C55.4363 29.4051 55.2299 29.4051 54.9719 29.4051ZM60.2007 28.1326H58.5151L58.0679 29.3373H57.1907L58.9967 24.5863H59.7363L61.5423 29.3373H60.6651L60.2007 28.1326ZM59.3579 25.7062C59.1859 26.2152 59.0483 26.6224 58.9279 26.9618L58.7559 27.386H59.9427L59.8051 26.9618C59.6675 26.6224 59.5299 26.2152 59.3579 25.7062ZM64.1739 26.7921C64.5179 27.2672 64.7587 27.7084 64.9651 28.0647H64.9995C64.9651 27.4538 64.9479 27.0127 64.9479 26.7242V24.5524H65.7907V29.3033H64.9135L63.4515 27.0975C63.1935 26.7412 62.9183 26.2831 62.6259 25.791C62.6603 26.3679 62.6603 26.826 62.6603 27.1484V29.2864H61.8347V24.5354H62.7119L64.1739 26.7921ZM69.3167 27.5217H68.3363V26.7751H70.1596V29.2015C70.0736 29.2355 69.9876 29.2524 69.9016 29.2864C69.7812 29.3203 69.6779 29.3373 69.5403 29.3712C69.4199 29.3712 69.2823 29.4051 69.1447 29.4221C69.0071 29.4221 68.8695 29.4221 68.7491 29.4221C68.3191 29.4221 67.9923 29.3712 67.6827 29.2524C67.3731 29.1336 67.1151 28.9809 66.9259 28.7773C66.7367 28.5567 66.5819 28.3022 66.4787 28.0307C66.3927 27.7253 66.3411 27.4199 66.3411 27.0636C66.3411 26.843 66.3755 26.5885 66.4271 26.3679C66.4787 26.1473 66.5475 25.9268 66.6507 25.7571C66.7711 25.5704 66.8743 25.4008 67.0119 25.2311C67.1839 25.0614 67.3215 24.9596 67.5279 24.8408C67.7171 24.722 67.9235 24.6542 68.1471 24.5863C68.3707 24.5354 68.5943 24.5015 68.8867 24.5015C69.1103 24.5015 69.3168 24.5015 69.506 24.5354C69.7296 24.5863 69.9016 24.6202 70.022 24.6711V25.4008C69.85 25.3498 69.678 25.3159 69.4888 25.282C69.3167 25.248 69.1447 25.2311 68.9555 25.2311C68.7319 25.2311 68.4739 25.265 68.2847 25.3499C68.0611 25.4347 67.8891 25.5365 67.7171 25.7062C67.5795 25.8419 67.4419 26.0455 67.3559 26.2661C67.2699 26.4867 67.2183 26.7412 67.2183 27.0127C67.2183 27.5726 67.3559 28.0138 67.6483 28.2853C67.9235 28.5567 68.3191 28.7095 68.8351 28.7095C68.9211 28.7095 69.0243 28.7095 69.1103 28.6755C69.2307 28.6755 69.2995 28.6416 69.3683 28.6416V27.5217H69.3167ZM73.4276 28.1326H71.7076L71.2776 29.3373H70.3832L72.1892 24.5863H72.946L74.7176 29.3373H73.8404L73.4276 28.1326ZM72.5504 25.7062C72.3784 26.2152 72.2408 26.6224 72.1204 26.9618L71.9484 27.386H73.1352L72.9976 26.9618C72.86 26.6224 72.7224 26.2152 72.5676 25.7062H72.5504ZM77.3836 26.7921C77.7276 27.2672 77.9684 27.7084 78.1748 28.0647H78.2092C78.1748 27.4538 78.1748 27.0127 78.1748 26.7242V24.5524H79.0004V29.3033H78.1232L76.6612 27.0975C76.4032 26.7412 76.128 26.2831 75.87 25.791H75.8356C75.87 26.3679 75.87 26.826 75.87 27.1484V29.2864H75.0444V24.5354H75.9216L77.3836 26.7921Z" fill="#626261"/>
<path d="M46.405 18.1721H47.2306V21.7014C47.2306 21.8371 47.2306 21.9729 47.1962 22.0917C47.1618 22.2104 47.1446 22.3122 47.0758 22.3971C47.0242 22.5159 46.9554 22.5837 46.8866 22.6686C46.8006 22.7534 46.6974 22.8043 46.6114 22.8552C46.491 22.9061 46.3878 22.94 46.2502 22.974C46.1298 23.0079 45.9922 23.0079 45.889 23.0079C45.7514 23.0079 45.6138 23.0079 45.459 22.974C45.3386 22.94 45.2354 22.9231 45.1494 22.8891V22.1426C45.2354 22.1935 45.3386 22.2274 45.459 22.2613C45.5794 22.2613 45.6826 22.2953 45.803 22.2953C46.0266 22.2953 46.1642 22.2444 46.2502 22.1256C46.3706 22.0408 46.4222 21.8711 46.4222 21.6844V18.1721H46.405ZM50.5158 21.7353H48.8302L48.383 22.94H47.5058L49.3118 18.1891H50.0514L51.8574 22.94H50.9802L50.5158 21.7353ZM49.673 19.309C49.501 19.818 49.3634 20.2252 49.243 20.5646L49.071 20.9888H50.2578L50.1202 20.5646C49.9826 20.2252 49.845 19.801 49.673 19.309ZM54.3515 21.5657C54.3515 21.4469 54.3171 21.3451 54.2655 21.2602C54.2139 21.2093 54.1451 21.1415 54.0419 21.0906C53.9559 21.0397 53.8527 21.0057 53.7323 20.9718C53.6119 20.9379 53.4743 20.9209 53.3367 20.887C53.1647 20.8361 52.9927 20.7682 52.8551 20.7173C52.683 20.6664 52.5454 20.5985 52.425 20.4967C52.2874 20.3779 52.2014 20.2761 52.1154 20.1404C52.0638 19.9707 52.0294 19.784 52.0294 19.5635C52.0294 19.309 52.0638 19.0884 52.1498 18.9017C52.2358 18.7321 52.339 18.5624 52.4938 18.4606C52.6314 18.3248 52.8034 18.24 53.0098 18.1891C53.1991 18.1382 53.4055 18.1042 53.6635 18.1042C53.9215 18.1042 54.1451 18.1042 54.4031 18.1552C54.6267 18.2061 54.8503 18.2739 55.0223 18.3418V19.0884C54.7987 19.0035 54.5751 18.9187 54.3515 18.8678C54.1279 18.8339 53.9215 18.8169 53.7667 18.8169C53.4915 18.8169 53.2851 18.8678 53.1131 18.9866C52.9755 19.0714 52.8895 19.2411 52.8895 19.4617C52.8895 19.5804 52.9239 19.6822 52.9755 19.7331C53.0271 19.818 53.0959 19.9028 53.1647 19.9198C53.2507 19.9707 53.3367 20.0386 53.4399 20.0555C53.5603 20.0895 53.6635 20.1064 53.7839 20.1404C53.9731 20.1743 54.1451 20.2252 54.3515 20.2761C54.5235 20.327 54.6611 20.4119 54.7987 20.5306C54.9363 20.6155 55.0567 20.7512 55.1083 20.9209C55.1943 21.0566 55.2287 21.2772 55.2287 21.5317C55.2287 21.7862 55.1943 22.0068 55.1083 22.1935C55.0223 22.3631 54.8847 22.5328 54.7127 22.6346C54.5407 22.7704 54.3515 22.8552 54.1279 22.9061C53.8699 22.957 53.6119 22.9909 53.3367 22.9909C53.1131 22.9909 52.8551 22.9909 52.6315 22.94C52.3734 22.8891 52.1843 22.8043 52.0466 22.7195V21.9729C52.2703 22.0917 52.4766 22.1595 52.7003 22.1935C52.8895 22.2444 53.1303 22.2783 53.3539 22.2783C53.4915 22.2783 53.6119 22.2783 53.7495 22.2444C53.8699 22.2104 53.9731 22.1935 54.0935 22.1256C54.1795 22.0747 54.2655 21.9899 54.3171 21.905C54.3343 21.8202 54.3515 21.7014 54.3515 21.5657ZM58.3935 21.7353H56.6735L56.2435 22.94H55.3663L57.1379 18.1891H57.8947L59.6663 22.94H58.8235L58.3935 21.7353ZM57.5163 19.309C57.3787 19.818 57.2411 20.2252 57.0863 20.5646L56.9487 20.9888H58.1355L57.9635 20.5646C57.8431 20.2252 57.7055 19.818 57.5335 19.309H57.5163Z" fill="#626261"/>
<path d="M48.8488 14.2186C48.8488 13.9471 48.7972 13.6926 48.7284 13.472C48.6596 13.2515 48.5564 13.0818 48.4532 12.9121C48.3328 12.7764 48.1952 12.6576 48.0232 12.6067C47.8512 12.5218 47.6792 12.4879 47.49 12.4879C47.3008 12.4879 47.1288 12.5218 46.9568 12.6067C46.7848 12.6576 46.6472 12.7764 46.5268 12.9121C46.4064 13.0818 46.3032 13.2515 46.2516 13.472C46.1656 13.6926 46.1312 13.9471 46.1312 14.2186C46.1312 14.524 46.1656 14.7786 46.2516 14.9991C46.3032 15.2197 46.4236 15.3894 46.5268 15.5251C46.6472 15.6609 46.7848 15.7796 46.9568 15.8645C47.1288 15.9493 47.3008 15.9833 47.49 15.9833C47.6792 15.9833 47.8512 15.9493 48.0232 15.8645C48.1952 15.7796 48.3328 15.6778 48.4532 15.5251C48.5736 15.3894 48.6768 15.2197 48.7284 14.9991C48.7972 14.7616 48.8488 14.524 48.8488 14.2186ZM49.7088 14.2186C49.7088 14.5749 49.6572 14.9143 49.5712 15.2197C49.4508 15.5251 49.3132 15.7966 49.124 16.0002C48.952 16.2208 48.7284 16.3905 48.4532 16.5262C48.178 16.645 47.8684 16.6959 47.5244 16.6959C47.1804 16.6959 46.8708 16.645 46.5956 16.5262C46.3204 16.3905 46.0796 16.2208 45.8904 16.0002C45.7184 15.8136 45.5808 15.5251 45.4604 15.2197C45.3744 14.9143 45.3228 14.5749 45.3228 14.2186C45.3228 13.8623 45.3744 13.5229 45.4604 13.2175C45.5808 12.946 45.7184 12.6576 45.8904 12.437C46.0796 12.2164 46.3204 12.0468 46.5956 11.928C46.8708 11.8092 47.1804 11.7413 47.5244 11.7413C47.8684 11.7413 48.178 11.8262 48.4532 11.928C48.7284 12.0468 48.9692 12.1995 49.124 12.437C49.3132 12.6576 49.468 12.946 49.5712 13.2175C49.64 13.5229 49.7088 13.8453 49.7088 14.2186ZM51.9276 16.6111H51.0848V12.5728H49.64V11.8431H53.3724V12.5728H51.9276V16.6111ZM56.8468 14.2186C56.8468 13.9471 56.8124 13.6926 56.7608 13.472C56.6748 13.2515 56.5888 13.0818 56.4856 12.9121C56.3652 12.7764 56.2276 12.6576 56.0556 12.6067C55.8836 12.5218 55.7116 12.4879 55.5224 12.4879C55.3332 12.4879 55.1268 12.5218 54.9892 12.6067C54.8172 12.6576 54.6796 12.7764 54.5592 12.9121C54.4216 13.0818 54.3356 13.2515 54.284 13.472C54.198 13.6926 54.1636 13.9471 54.1636 14.2186C54.1636 14.524 54.198 14.7786 54.284 14.9991C54.3356 15.2197 54.4216 15.3894 54.5592 15.5251C54.6796 15.6609 54.8172 15.7796 54.9892 15.8645C55.1268 15.9493 55.3332 15.9833 55.5224 15.9833C55.7116 15.9833 55.8836 15.9493 56.0556 15.8645C56.2276 15.7796 56.3652 15.6778 56.4856 15.5251C56.606 15.3894 56.6748 15.2197 56.7608 14.9991C56.8124 14.7616 56.8468 14.524 56.8468 14.2186ZM57.724 14.2186C57.724 14.5749 57.6724 14.9143 57.5864 15.2197C57.466 15.5251 57.3284 15.7966 57.1392 16.0002C56.9672 16.2208 56.7436 16.3905 56.4684 16.5262C56.1932 16.645 55.8836 16.6959 55.5396 16.6959C55.1784 16.6959 54.8688 16.645 54.6108 16.5262C54.3356 16.3905 54.0948 16.2208 53.9056 16.0002C53.7336 15.8136 53.5616 15.5251 53.4756 15.2197C53.3896 14.9143 53.338 14.5749 53.338 14.2186C53.338 13.8623 53.3896 13.5229 53.4756 13.2175C53.5616 12.946 53.7336 12.6576 53.9056 12.437C54.0948 12.2164 54.3356 12.0468 54.6108 11.928C54.8688 11.8092 55.1784 11.7413 55.5396 11.7413C55.8836 11.7413 56.1932 11.8262 56.4684 11.928C56.7436 12.0468 56.9844 12.1995 57.1392 12.437C57.3284 12.6576 57.4832 12.946 57.5864 13.2175C57.6552 13.5229 57.724 13.8453 57.724 14.2186ZM61.5768 13.2684C61.5768 13.6078 61.4908 13.8793 61.3188 14.1338C61.1468 14.3544 60.8716 14.524 60.4932 14.6428V14.6767L61.852 16.628H60.8716L59.6332 14.7955H59.0656V16.6111H58.24V11.8601H59.5988C59.8568 11.8601 60.046 11.8601 60.2524 11.894C60.4416 11.928 60.6136 11.9789 60.7684 12.0298C61.0264 12.1486 61.2156 12.2843 61.3532 12.5049C61.5252 12.6746 61.5768 12.963 61.5768 13.2684ZM59.4956 14.0489C59.6676 14.0489 59.8396 14.015 59.9772 14.015C60.0976 13.9811 60.2008 13.9641 60.2868 13.9302C60.4588 13.8453 60.562 13.7605 60.648 13.6587C60.6996 13.5399 60.734 13.4042 60.734 13.2684C60.734 13.1327 60.6996 13.0139 60.648 12.9121C60.6136 12.8273 60.5276 12.7424 60.39 12.6915C60.304 12.6576 60.218 12.6406 60.1148 12.6067C59.9944 12.5728 59.8396 12.5728 59.6676 12.5728H59.0828V14.0489H59.4956ZM62.2648 16.6111V11.8601H63.0904V16.6111H62.2648ZM65.6705 16.6111H64.8449V12.5728H63.3828V11.8431H67.1325V12.5728H65.6705V16.6111ZM69.6437 15.4064H67.9237L67.4937 16.6111H66.6165L68.3881 11.8601H69.1449L70.9165 16.6111H70.0393L69.6437 15.4064ZM68.7837 12.9969C68.6461 13.506 68.5085 13.9132 68.3537 14.2526L68.2161 14.6767H69.3685L69.2309 14.2526C69.1105 13.9132 68.9729 13.506 68.8009 12.9969H68.7837ZM73.4793 15.2367C73.4793 15.1179 73.4449 15.0161 73.3933 14.9313C73.3417 14.8804 73.2557 14.7955 73.1697 14.7616C73.0493 14.7107 72.9461 14.6767 72.8257 14.6428C72.7053 14.6089 72.6021 14.558 72.4645 14.524C72.2925 14.4901 72.1205 14.4392 71.9485 14.3883C71.7765 14.3374 71.6389 14.2526 71.5185 14.1677C71.3981 14.0489 71.2949 13.9471 71.2433 13.7775C71.1573 13.6417 71.1229 13.4381 71.1229 13.2175C71.1229 12.963 71.1745 12.7424 71.2605 12.5558C71.3121 12.3861 71.4497 12.2164 71.6045 12.1146C71.7421 11.9789 71.9141 11.894 72.0861 11.8431C72.2753 11.7922 72.5161 11.7244 72.7397 11.7244C72.9977 11.7244 73.2557 11.7583 73.4793 11.8092C73.7373 11.8601 73.9265 11.928 74.0985 11.9958V12.7424C73.8749 12.6237 73.6513 12.5728 73.4449 12.5218C73.2213 12.4879 73.0149 12.4709 72.8257 12.4709C72.5505 12.4709 72.3441 12.5218 72.2065 12.6406C72.0689 12.7255 71.9829 12.8951 71.9829 13.1157C71.9829 13.2345 72.0173 13.3024 72.0689 13.3872C72.1033 13.472 72.1893 13.5229 72.2409 13.5738C72.3269 13.6248 72.4301 13.6926 72.5505 13.7096C72.6365 13.7435 72.7397 13.7605 72.8945 13.7944C73.0837 13.8284 73.2557 13.8793 73.4277 13.9302C73.5997 13.9811 73.7717 14.0659 73.8749 14.1507C74.0125 14.2695 74.1329 14.4053 74.2189 14.5749C74.3049 14.7107 74.3393 14.9313 74.3393 15.1858C74.3393 15.4403 74.2877 15.6609 74.2017 15.8475C74.1157 16.0172 73.9781 16.1869 73.8405 16.2887C73.6685 16.4244 73.4793 16.5093 73.2213 16.5602C72.9977 16.6111 72.7397 16.645 72.4645 16.645C72.2065 16.645 71.9829 16.6111 71.7249 16.5941C71.5013 16.5432 71.2949 16.4584 71.1401 16.3735V15.6269C71.3637 15.7457 71.5873 15.8136 71.7937 15.8475C72.0173 15.8984 72.2237 15.9324 72.4473 15.9324C72.5849 15.9324 72.7225 15.8984 72.8429 15.8984C72.9805 15.8645 73.1009 15.8136 73.1869 15.7627C73.3073 15.7118 73.3589 15.6439 73.4449 15.5421C73.4621 15.4912 73.4793 15.3894 73.4793 15.2367Z" fill="#626261"/>
<defs>
<radialGradient id="paint0_radial_18_1540" cx="0" cy="0" r="1" gradientUnits="userSpaceOnUse" gradientTransform="translate(16.9923 23.5308) scale(39.835 39.2967)">
<stop stop-color="#CA1517"/>
<stop offset="0.2784" stop-color="#A61916"/>
<stop offset="1" stop-color="#801710"/>
</radialGradient>
<linearGradient id="paint1_linear_18_1540" x1="6.8031" y1="14.0505" x2="27.1492" y2="-2.29421" gradientUnits="userSpaceOnUse">
<stop stop-color="#CE1420"/>
<stop offset="0.4196" stop-color="#F29376"/>
<stop offset="0.7608" stop-color="#B4191B"/>
<stop offset="0.9882" stop-color="#F29379"/>
<stop offset="1" stop-color="white"/>
</linearGradient>
<linearGradient id="paint2_linear_18_1540" x1="13.8847" y1="18.8591" x2="31.2372" y2="-1.28765" gradientUnits="userSpaceOnUse">
<stop stop-color="#CBCBCD"/>
<stop offset="0.0117647" stop-color="#CBCBCD"/>
<stop offset="0.349" stop-color="white"/>
<stop offset="0.6392" stop-color="#BFC0C4"/>
<stop offset="0.949" stop-color="white"/>
<stop offset="1" stop-color="white"/>
</linearGradient>
</defs>
</svg>
