<svg width="79" height="31" viewBox="0 0 79 31" fill="none" xmlns="http://www.w3.org/2000/svg">
<path fill-rule="evenodd" clip-rule="evenodd" d="M27.2452 22.1422L32.2332 30.3885H37.8748L30.2896 18.8335L36.5848 11.6052L31.3732 11.1641L29.9284 12.5894L24.7167 18.9692L24.5963 24.7043L27.2452 22.1422ZM9.09907 15.2193C5.29785 16.6107 5.21185 24.4328 8.27346 26.435C11.8511 28.7765 14.7579 25.5527 15.0675 22.0064C15.2051 20.1739 14.8439 17.493 13.3819 16.0847C12.2639 14.9988 10.5783 14.7103 9.09907 15.2193ZM19.7631 11.741H23.5643L23.6159 23.2281C23.6675 29.4892 20.4511 31.8477 14.3623 29.6928C14.3623 29.6928 10.7503 31.169 7.56826 29.9982C2.27063 28.03 0.997827 19.6988 4.17984 15.0497C6.46745 11.741 10.2687 11.0623 13.4679 12.267C15.3083 12.9966 17.8711 14.7103 18.5419 19.088C18.5419 19.088 19.5051 22.9566 17.2519 27.0798C17.2519 27.0798 19.7631 27.7755 19.7631 24.6025C19.7631 21.4465 19.7631 11.741 19.7631 11.741Z" fill="url(#paint0_radial_21_2118)"/>
<path fill-rule="evenodd" clip-rule="evenodd" d="M9.95917 4.63197C6.43315 5.667 3.83594 9.23022 3.83594 9.23022C4.76474 10.8082 5.50435 12.7595 5.59035 14.9314C12.866 8.31397 17.9744 8.44971 27.3485 10.8082C35.3121 12.8104 39.6293 11.3682 42.3297 8.46667C42.3297 8.46667 36.3785 11.5548 32.4053 9.94286C32.4053 9.94286 32.3537 9.90893 32.2161 9.85803C30.0145 10.0786 26.3681 7.94067 26.3681 7.94067C21.638 5.39552 14.6376 3.30849 9.95917 4.63197Z" fill="#A1A0A0"/>
<path fill-rule="evenodd" clip-rule="evenodd" d="M3.83562 8.87378C3.83562 8.87378 6.43283 5.31056 9.95885 4.30947C14.6373 2.95205 21.6377 5.03908 26.3505 7.61817C26.3505 7.61817 29.9969 9.7561 32.1986 9.51855C31.4074 9.21313 28.5865 7.95752 25.8173 5.61598C22.5665 2.83328 16.2885 -0.950524 9.20205 0.220248C2.11561 1.39102 0 4.22463 0 4.22463C0 4.22463 2.18441 5.9723 3.83562 8.87378Z" fill="url(#paint1_linear_21_2118)"/>
<path fill-rule="evenodd" clip-rule="evenodd" d="M9.95917 4.30923C6.43315 5.31033 3.83594 8.87355 3.83594 8.87355C4.76474 10.4855 5.50435 12.4028 5.59035 14.6086C12.866 7.95729 17.9744 8.09303 27.3485 10.4685C35.3121 12.4707 39.6293 11.0454 42.3297 8.1609C42.3297 8.1609 36.3785 11.2151 32.4053 9.60316C32.4053 9.60316 32.3537 9.56922 32.2161 9.51832C30.0145 9.77283 26.3681 7.61794 26.3681 7.61794C21.638 5.02188 14.6376 2.93485 9.95917 4.30923Z" fill="url(#paint2_linear_21_2118)"/>
<path fill-rule="evenodd" clip-rule="evenodd" d="M41.125 11.3682H41.8302V30.9659H41.125V11.3682Z" fill="#801710"/>
<path d="M41.1242 11.3508H41.881V30.9994H41.0898V11.3508H41.1242ZM41.795 11.4017H41.1414V30.9146H41.795V11.4017Z" fill="#801710"/>
<path d="M45.4951 29.3203V24.5693H46.3207V26.7412H46.3551L48.0407 24.5693H49.0899L47.1979 26.9278L49.2275 29.3203H48.1439L46.3379 27.1824H46.3035V29.3203H45.4951ZM50.3455 28.6077H52.5815V29.3373H49.5371V24.5863H52.4784V25.3159H50.3627V26.5715H52.1687V27.3011H50.3627V28.6077H50.3455ZM54.9724 29.4051C54.7488 29.4051 54.5424 29.4051 54.3532 29.3542C54.164 29.3033 53.992 29.2185 53.8372 29.1336C53.6996 29.0488 53.5792 28.947 53.476 28.7943C53.39 28.6586 53.304 28.5228 53.2524 28.3531C53.2008 28.2174 53.132 28.0817 53.132 27.912C53.0976 27.7423 53.0976 27.5726 53.0976 27.386V24.5693H53.9232V27.3011C53.9232 27.6405 53.9576 27.912 54.0436 28.0817C54.1296 28.3022 54.2328 28.438 54.4048 28.5567C54.5768 28.6416 54.766 28.6925 54.9896 28.6925C55.2132 28.6925 55.4196 28.6416 55.5572 28.5567C55.7292 28.438 55.8668 28.3022 55.9528 28.0817C56.0044 27.912 56.0732 27.6405 56.0732 27.3011V24.5693H56.8988V27.386C56.8988 27.5726 56.8988 27.7423 56.8644 27.912C56.83 28.0817 56.8128 28.2174 56.744 28.3531C56.6924 28.5228 56.6064 28.6586 56.486 28.7943C56.4 28.93 56.2624 29.0488 56.1248 29.1336C55.9872 29.2185 55.8152 29.3033 55.6088 29.3542C55.4368 29.4051 55.2304 29.4051 54.9724 29.4051ZM60.2012 28.1326H58.5156L58.0684 29.3373H57.1912L58.9972 24.5863H59.7368L61.5428 29.3373H60.6656L60.2012 28.1326ZM59.3584 25.7062C59.1864 26.2152 59.0488 26.6224 58.9284 26.9618L58.7564 27.386H59.9432L59.8056 26.9618C59.668 26.6224 59.5304 26.2152 59.3584 25.7062ZM64.1744 26.7921C64.5184 27.2672 64.7592 27.7084 64.9656 28.0647H65C64.9656 27.4538 64.9484 27.0127 64.9484 26.7242V24.5524H65.7912V29.3033H64.914L63.452 27.0975C63.194 26.7412 62.9188 26.2831 62.6264 25.791C62.6608 26.3679 62.6608 26.826 62.6608 27.1484V29.2864H61.8352V24.5354H62.7124L64.1744 26.7921ZM69.3172 27.5217H68.3368V26.7751H70.16V29.2015C70.074 29.2355 69.988 29.2524 69.902 29.2864C69.7816 29.3203 69.6784 29.3373 69.5408 29.3712C69.4204 29.3712 69.2828 29.4051 69.1452 29.4221C69.0076 29.4221 68.87 29.4221 68.7496 29.4221C68.3196 29.4221 67.9928 29.3712 67.6832 29.2524C67.3736 29.1336 67.1156 28.9809 66.9264 28.7773C66.7372 28.5567 66.5824 28.3022 66.4792 28.0307C66.3932 27.7253 66.3416 27.4199 66.3416 27.0636C66.3416 26.843 66.376 26.5885 66.4276 26.3679C66.4792 26.1473 66.548 25.9268 66.6512 25.7571C66.7716 25.5704 66.8748 25.4008 67.0124 25.2311C67.1844 25.0614 67.322 24.9596 67.5284 24.8408C67.7176 24.722 67.924 24.6542 68.1476 24.5863C68.3712 24.5354 68.5948 24.5015 68.8872 24.5015C69.1108 24.5015 69.3172 24.5015 69.5064 24.5354C69.73 24.5863 69.902 24.6202 70.0224 24.6711V25.4008C69.8504 25.3498 69.6784 25.3159 69.4892 25.282C69.3172 25.248 69.1452 25.2311 68.956 25.2311C68.7324 25.2311 68.4744 25.265 68.2852 25.3499C68.0616 25.4347 67.8896 25.5365 67.7176 25.7062C67.58 25.8419 67.4424 26.0455 67.3564 26.2661C67.2704 26.4867 67.2188 26.7412 67.2188 27.0127C67.2188 27.5726 67.3564 28.0138 67.6488 28.2853C67.924 28.5567 68.3196 28.7095 68.8356 28.7095C68.9216 28.7095 69.0248 28.7095 69.1108 28.6755C69.2312 28.6755 69.3 28.6416 69.3688 28.6416V27.5217H69.3172ZM73.4281 28.1326H71.708L71.278 29.3373H70.3836L72.1896 24.5863H72.9465L74.7181 29.3373H73.8409L73.4281 28.1326ZM72.5509 25.7062C72.3789 26.2152 72.2413 26.6224 72.1208 26.9618L71.9488 27.386H73.1357L72.9981 26.9618C72.8605 26.6224 72.7229 26.2152 72.5681 25.7062H72.5509ZM77.3841 26.7921C77.7281 27.2672 77.9689 27.7084 78.1753 28.0647H78.2097C78.1753 27.4538 78.1753 27.0127 78.1753 26.7242V24.5524H79.0009V29.3033H78.1237L76.6617 27.0975C76.4037 26.7412 76.1285 26.2831 75.8705 25.791H75.8361C75.8705 26.3679 75.8705 26.826 75.8705 27.1484V29.2864H75.0449V24.5354H75.9221L77.3841 26.7921Z" fill="#626261"/>
<path d="M46.405 18.1721H47.2306V21.7014C47.2306 21.8371 47.2306 21.9729 47.1962 22.0917C47.1618 22.2104 47.1446 22.3122 47.0758 22.3971C47.0242 22.5159 46.9554 22.5837 46.8866 22.6686C46.8006 22.7534 46.6974 22.8043 46.6114 22.8552C46.491 22.9061 46.3878 22.94 46.2502 22.974C46.1298 23.0079 45.9922 23.0079 45.889 23.0079C45.7514 23.0079 45.6138 23.0079 45.459 22.974C45.3386 22.94 45.2354 22.9231 45.1494 22.8891V22.1426C45.2354 22.1935 45.3386 22.2274 45.459 22.2613C45.5794 22.2613 45.6826 22.2953 45.803 22.2953C46.0266 22.2953 46.1642 22.2444 46.2502 22.1256C46.3706 22.0408 46.4222 21.8711 46.4222 21.6844V18.1721H46.405ZM50.5158 21.7353H48.8302L48.383 22.94H47.5058L49.3118 18.1891H50.0514L51.8574 22.94H50.9802L50.5158 21.7353ZM49.673 19.309C49.501 19.818 49.3634 20.2252 49.243 20.5646L49.071 20.9888H50.2578L50.1202 20.5646C49.9826 20.2252 49.845 19.801 49.673 19.309ZM54.3515 21.5657C54.3515 21.4469 54.3171 21.3451 54.2655 21.2602C54.2139 21.2093 54.1451 21.1415 54.0419 21.0906C53.9559 21.0397 53.8527 21.0057 53.7323 20.9718C53.6119 20.9379 53.4743 20.9209 53.3367 20.887C53.1647 20.8361 52.9927 20.7682 52.8551 20.7173C52.683 20.6664 52.5454 20.5985 52.425 20.4967C52.2874 20.3779 52.2014 20.2761 52.1154 20.1404C52.0638 19.9707 52.0294 19.784 52.0294 19.5635C52.0294 19.309 52.0638 19.0884 52.1498 18.9017C52.2358 18.7321 52.339 18.5624 52.4938 18.4606C52.6314 18.3248 52.8034 18.24 53.0098 18.1891C53.1991 18.1382 53.4055 18.1042 53.6635 18.1042C53.9215 18.1042 54.1451 18.1042 54.4031 18.1552C54.6267 18.2061 54.8503 18.2739 55.0223 18.3418V19.0884C54.7987 19.0035 54.5751 18.9187 54.3515 18.8678C54.1279 18.8339 53.9215 18.8169 53.7667 18.8169C53.4915 18.8169 53.2851 18.8678 53.1131 18.9866C52.9755 19.0714 52.8895 19.2411 52.8895 19.4617C52.8895 19.5804 52.9239 19.6822 52.9755 19.7331C53.0271 19.818 53.0959 19.9028 53.1647 19.9198C53.2507 19.9707 53.3367 20.0386 53.4399 20.0555C53.5603 20.0895 53.6635 20.1064 53.7839 20.1404C53.9731 20.1743 54.1451 20.2252 54.3515 20.2761C54.5235 20.327 54.6611 20.4119 54.7987 20.5306C54.9363 20.6155 55.0567 20.7512 55.1083 20.9209C55.1943 21.0566 55.2287 21.2772 55.2287 21.5317C55.2287 21.7862 55.1943 22.0068 55.1083 22.1935C55.0223 22.3631 54.8847 22.5328 54.7127 22.6346C54.5407 22.7704 54.3515 22.8552 54.1279 22.9061C53.8699 22.957 53.6119 22.9909 53.3367 22.9909C53.1131 22.9909 52.8551 22.9909 52.6315 22.94C52.3734 22.8891 52.1843 22.8043 52.0466 22.7195V21.9729C52.2703 22.0917 52.4766 22.1595 52.7003 22.1935C52.8895 22.2444 53.1303 22.2783 53.3539 22.2783C53.4915 22.2783 53.6119 22.2783 53.7495 22.2444C53.8699 22.2104 53.9731 22.1935 54.0935 22.1256C54.1795 22.0747 54.2655 21.9899 54.3171 21.905C54.3343 21.8202 54.3515 21.7014 54.3515 21.5657ZM58.3935 21.7353H56.6735L56.2435 22.94H55.3663L57.1379 18.1891H57.8947L59.6663 22.94H58.8235L58.3935 21.7353ZM57.5163 19.309C57.3787 19.818 57.2411 20.2252 57.0863 20.5646L56.9487 20.9888H58.1355L57.9635 20.5646C57.8431 20.2252 57.7055 19.818 57.5335 19.309H57.5163Z" fill="#626261"/>
<path d="M48.8493 14.2186C48.8493 13.9471 48.7977 13.6926 48.7289 13.472C48.6601 13.2515 48.5569 13.0818 48.4537 12.9121C48.3333 12.7764 48.1957 12.6576 48.0237 12.6067C47.8517 12.5218 47.6797 12.4879 47.4905 12.4879C47.3013 12.4879 47.1293 12.5218 46.9573 12.6067C46.7852 12.6576 46.6476 12.7764 46.5272 12.9121C46.4068 13.0818 46.3036 13.2515 46.252 13.472C46.166 13.6926 46.1316 13.9471 46.1316 14.2186C46.1316 14.524 46.166 14.7786 46.252 14.9991C46.3036 15.2197 46.424 15.3894 46.5272 15.5251C46.6476 15.6609 46.7852 15.7796 46.9573 15.8645C47.1293 15.9493 47.3013 15.9833 47.4905 15.9833C47.6797 15.9833 47.8517 15.9493 48.0237 15.8645C48.1957 15.7796 48.3333 15.6778 48.4537 15.5251C48.5741 15.3894 48.6773 15.2197 48.7289 14.9991C48.7977 14.7616 48.8493 14.524 48.8493 14.2186ZM49.7093 14.2186C49.7093 14.5749 49.6577 14.9143 49.5717 15.2197C49.4513 15.5251 49.3137 15.7966 49.1245 16.0002C48.9525 16.2208 48.7289 16.3905 48.4537 16.5262C48.1785 16.645 47.8689 16.6959 47.5249 16.6959C47.1808 16.6959 46.8712 16.645 46.596 16.5262C46.3208 16.3905 46.08 16.2208 45.8908 16.0002C45.7188 15.8136 45.5812 15.5251 45.4608 15.2197C45.3748 14.9143 45.3232 14.5749 45.3232 14.2186C45.3232 13.8623 45.3748 13.5229 45.4608 13.2175C45.5812 12.946 45.7188 12.6576 45.8908 12.437C46.08 12.2164 46.3208 12.0468 46.596 11.928C46.8712 11.8092 47.1808 11.7413 47.5249 11.7413C47.8689 11.7413 48.1785 11.8262 48.4537 11.928C48.7289 12.0468 48.9697 12.1995 49.1245 12.437C49.3137 12.6576 49.4685 12.946 49.5717 13.2175C49.6405 13.5229 49.7093 13.8453 49.7093 14.2186ZM51.9281 16.6111H51.0853V12.5728H49.6405V11.8431H53.3729V12.5728H51.9281V16.6111ZM56.8473 14.2186C56.8473 13.9471 56.8129 13.6926 56.7613 13.472C56.6753 13.2515 56.5893 13.0818 56.4861 12.9121C56.3657 12.7764 56.2281 12.6576 56.0561 12.6067C55.8841 12.5218 55.7121 12.4879 55.5229 12.4879C55.3337 12.4879 55.1273 12.5218 54.9897 12.6067C54.8177 12.6576 54.6801 12.7764 54.5597 12.9121C54.4221 13.0818 54.3361 13.2515 54.2845 13.472C54.1985 13.6926 54.1641 13.9471 54.1641 14.2186C54.1641 14.524 54.1985 14.7786 54.2845 14.9991C54.3361 15.2197 54.4221 15.3894 54.5597 15.5251C54.6801 15.6609 54.8177 15.7796 54.9897 15.8645C55.1273 15.9493 55.3337 15.9833 55.5229 15.9833C55.7121 15.9833 55.8841 15.9493 56.0561 15.8645C56.2281 15.7796 56.3657 15.6778 56.4861 15.5251C56.6065 15.3894 56.6753 15.2197 56.7613 14.9991C56.8129 14.7616 56.8473 14.524 56.8473 14.2186ZM57.7245 14.2186C57.7245 14.5749 57.6729 14.9143 57.5869 15.2197C57.4665 15.5251 57.3289 15.7966 57.1397 16.0002C56.9677 16.2208 56.7441 16.3905 56.4689 16.5262C56.1937 16.645 55.8841 16.6959 55.5401 16.6959C55.1789 16.6959 54.8693 16.645 54.6113 16.5262C54.3361 16.3905 54.0953 16.2208 53.9061 16.0002C53.7341 15.8136 53.5621 15.5251 53.4761 15.2197C53.3901 14.9143 53.3385 14.5749 53.3385 14.2186C53.3385 13.8623 53.3901 13.5229 53.4761 13.2175C53.5621 12.946 53.7341 12.6576 53.9061 12.437C54.0953 12.2164 54.3361 12.0468 54.6113 11.928C54.8693 11.8092 55.1789 11.7413 55.5401 11.7413C55.8841 11.7413 56.1937 11.8262 56.4689 11.928C56.7441 12.0468 56.9849 12.1995 57.1397 12.437C57.3289 12.6576 57.4837 12.946 57.5869 13.2175C57.6557 13.5229 57.7245 13.8453 57.7245 14.2186ZM61.5773 13.2684C61.5773 13.6078 61.4913 13.8793 61.3193 14.1338C61.1473 14.3544 60.8721 14.524 60.4937 14.6428V14.6767L61.8525 16.628H60.8721L59.6337 14.7955H59.0661V16.6111H58.2405V11.8601H59.5993C59.8573 11.8601 60.0465 11.8601 60.2529 11.894C60.4421 11.928 60.6141 11.9789 60.7689 12.0298C61.0269 12.1486 61.2161 12.2843 61.3537 12.5049C61.5257 12.6746 61.5773 12.963 61.5773 13.2684ZM59.4961 14.0489C59.6681 14.0489 59.8401 14.015 59.9777 14.015C60.0981 13.9811 60.2013 13.9641 60.2873 13.9302C60.4593 13.8453 60.5625 13.7605 60.6485 13.6587C60.7001 13.5399 60.7345 13.4042 60.7345 13.2684C60.7345 13.1327 60.7001 13.0139 60.6485 12.9121C60.6141 12.8273 60.5281 12.7424 60.3905 12.6915C60.3045 12.6576 60.2185 12.6406 60.1153 12.6067C59.9949 12.5728 59.8401 12.5728 59.6681 12.5728H59.0833V14.0489H59.4961ZM62.2653 16.6111V11.8601H63.0909V16.6111H62.2653ZM65.6709 16.6111H64.8453V12.5728H63.3833V11.8431H67.133V12.5728H65.6709V16.6111ZM69.6442 15.4064H67.9242L67.4942 16.6111H66.6169L68.3886 11.8601H69.1454L70.917 16.6111H70.0398L69.6442 15.4064ZM68.7842 12.9969C68.6466 13.506 68.509 13.9132 68.3542 14.2526L68.2166 14.6767H69.369L69.2314 14.2526C69.111 13.9132 68.9734 13.506 68.8014 12.9969H68.7842ZM73.4798 15.2367C73.4798 15.1179 73.4454 15.0161 73.3938 14.9313C73.3422 14.8804 73.2562 14.7955 73.1702 14.7616C73.0498 14.7107 72.9466 14.6767 72.8262 14.6428C72.7058 14.6089 72.6026 14.558 72.465 14.524C72.293 14.4901 72.121 14.4392 71.949 14.3883C71.777 14.3374 71.6394 14.2526 71.519 14.1677C71.3986 14.0489 71.2954 13.9471 71.2438 13.7775C71.1578 13.6417 71.1234 13.4381 71.1234 13.2175C71.1234 12.963 71.175 12.7424 71.261 12.5558C71.3126 12.3861 71.4502 12.2164 71.605 12.1146C71.7426 11.9789 71.9146 11.894 72.0866 11.8431C72.2758 11.7922 72.5166 11.7244 72.7402 11.7244C72.9982 11.7244 73.2562 11.7583 73.4798 11.8092C73.7378 11.8601 73.927 11.928 74.099 11.9958V12.7424C73.8754 12.6237 73.6518 12.5728 73.4454 12.5218C73.2218 12.4879 73.0154 12.4709 72.8262 12.4709C72.551 12.4709 72.3446 12.5218 72.207 12.6406C72.0694 12.7255 71.9834 12.8951 71.9834 13.1157C71.9834 13.2345 72.0178 13.3024 72.0694 13.3872C72.1038 13.472 72.1898 13.5229 72.2414 13.5738C72.3274 13.6248 72.4306 13.6926 72.551 13.7096C72.637 13.7435 72.7402 13.7605 72.895 13.7944C73.0842 13.8284 73.2562 13.8793 73.4282 13.9302C73.6002 13.9811 73.7722 14.0659 73.8754 14.1507C74.013 14.2695 74.1334 14.4053 74.2194 14.5749C74.3054 14.7107 74.3398 14.9313 74.3398 15.1858C74.3398 15.4403 74.2882 15.6609 74.2022 15.8475C74.1162 16.0172 73.9786 16.1869 73.841 16.2887C73.669 16.4244 73.4798 16.5093 73.2218 16.5602C72.9982 16.6111 72.7402 16.645 72.465 16.645C72.207 16.645 71.9834 16.6111 71.7254 16.5941C71.5018 16.5432 71.2954 16.4584 71.1406 16.3735V15.6269C71.3642 15.7457 71.5878 15.8136 71.7942 15.8475C72.0178 15.8984 72.2242 15.9324 72.4478 15.9324C72.5854 15.9324 72.723 15.8984 72.8434 15.8984C72.981 15.8645 73.1014 15.8136 73.1874 15.7627C73.3078 15.7118 73.3594 15.6439 73.4454 15.5421C73.4626 15.4912 73.4798 15.3894 73.4798 15.2367Z" fill="#626261"/>
<defs>
<radialGradient id="paint0_radial_21_2118" cx="0" cy="0" r="1" gradientUnits="userSpaceOnUse" gradientTransform="translate(16.9928 23.5308) scale(39.835 39.2967)">
<stop stop-color="#CA1517"/>
<stop offset="0.2784" stop-color="#A61916"/>
<stop offset="1" stop-color="#801710"/>
</radialGradient>
<linearGradient id="paint1_linear_21_2118" x1="6.8031" y1="14.0505" x2="27.1492" y2="-2.29421" gradientUnits="userSpaceOnUse">
<stop stop-color="#CE1420"/>
<stop offset="0.4196" stop-color="#F29376"/>
<stop offset="0.7608" stop-color="#B4191B"/>
<stop offset="0.9882" stop-color="#F29379"/>
<stop offset="1" stop-color="white"/>
</linearGradient>
<linearGradient id="paint2_linear_21_2118" x1="13.8842" y1="18.8591" x2="31.2367" y2="-1.28765" gradientUnits="userSpaceOnUse">
<stop stop-color="#CBCBCD"/>
<stop offset="0.0117647" stop-color="#CBCBCD"/>
<stop offset="0.349" stop-color="white"/>
<stop offset="0.6392" stop-color="#BFC0C4"/>
<stop offset="0.949" stop-color="white"/>
<stop offset="1" stop-color="white"/>
</linearGradient>
</defs>
</svg>
