<svg width="15" height="16" viewBox="0 0 15 16" fill="none" xmlns="http://www.w3.org/2000/svg">
<path d="M11.1191 0.5H3.82853C1.9877 0.5 0 2.51388 0 4.35471V11.6191C0 13.4599 2.04006 15.5 3.88089 15.5H8.0175V9.69917H6.065V7.42833H8.0175V5.7575C8.0175 3.82083 9.20167 2.765 10.93 2.765C11.5125 2.76333 12.0942 2.79333 12.6733 2.8525V4.8775H11.4833C10.5417 4.8775 10.3583 5.3225 10.3583 5.97917V7.425H12.6083L12.3158 9.69583H10.345V15.5H11.1191C12.9599 15.5 15 13.4861 15 11.6453V4.38089C15 2.54006 12.9599 0.5 11.1191 0.5Z" fill="#5C250B"/>
</svg>
