<svg width="79" height="31" viewBox="0 0 79 31" fill="none" xmlns="http://www.w3.org/2000/svg">
<path fill-rule="evenodd" clip-rule="evenodd" d="M27.2447 22.1422L32.2327 30.3885H37.8743L30.2891 18.8335L36.5843 11.6052L31.3727 11.1641L29.9279 12.5894L24.7163 18.9692L24.5959 24.7043L27.2447 22.1422ZM9.09858 15.2193C5.29736 16.6107 5.21136 24.4328 8.27297 26.435C11.8506 28.7765 14.7574 25.5527 15.067 22.0064C15.2046 20.1739 14.8434 17.493 13.3814 16.0847C12.2634 14.9988 10.5778 14.7103 9.09858 15.2193ZM19.7626 11.741H23.5639L23.6154 23.2281C23.667 29.4892 20.4506 31.8477 14.3618 29.6928C14.3618 29.6928 10.7498 31.169 7.56777 29.9982C2.27014 28.03 0.997338 19.6988 4.17935 15.0497C6.46697 11.741 10.2682 11.0623 13.4674 12.267C15.3078 12.9966 17.8706 14.7103 18.5414 19.088C18.5414 19.088 19.5046 22.9566 17.2514 27.0798C17.2514 27.0798 19.7626 27.7755 19.7626 24.6025C19.7626 21.4465 19.7626 11.741 19.7626 11.741Z" fill="url(#paint0_radial_26_2711)"/>
<path fill-rule="evenodd" clip-rule="evenodd" d="M9.95966 4.63221C6.43364 5.66724 3.83643 9.23046 3.83643 9.23046C4.76523 10.8085 5.50483 12.7597 5.59083 14.9316C12.8665 8.31421 17.9749 8.44995 27.3489 10.8085C35.3126 12.8107 39.6298 11.3684 42.3302 8.46692C42.3302 8.46692 36.379 11.555 32.4058 9.94311C32.4058 9.94311 32.3542 9.90917 32.2166 9.85827C30.015 10.0788 26.3685 7.94092 26.3685 7.94092C21.6385 5.39576 14.6381 3.30873 9.95966 4.63221Z" fill="#A1A0A0"/>
<path fill-rule="evenodd" clip-rule="evenodd" d="M3.83562 8.87402C3.83562 8.87402 6.43283 5.31081 9.95885 4.30971C14.6373 2.95229 21.6377 5.03932 26.3505 7.61841C26.3505 7.61841 29.9969 9.75634 32.1986 9.5188C31.4074 9.21338 28.5865 7.95777 25.8173 5.61622C22.5665 2.83352 16.2885 -0.950279 9.20205 0.220492C2.11561 1.39126 0 4.22487 0 4.22487C0 4.22487 2.18441 5.97255 3.83562 8.87402Z" fill="url(#paint1_linear_26_2711)"/>
<path fill-rule="evenodd" clip-rule="evenodd" d="M9.95966 4.30948C6.43364 5.31057 3.83643 8.87379 3.83643 8.87379C4.76523 10.4857 5.50483 12.4031 5.59083 14.6089C12.8665 7.95753 17.9749 8.09328 27.3489 10.4688C35.3126 12.4709 39.6298 11.0457 42.3302 8.16115C42.3302 8.16115 36.379 11.2153 32.4058 9.6034C32.4058 9.6034 32.3542 9.56947 32.2166 9.51856C30.015 9.77308 26.3685 7.61818 26.3685 7.61818C21.6385 5.02212 14.6381 2.93509 9.95966 4.30948Z" fill="url(#paint2_linear_26_2711)"/>
<path fill-rule="evenodd" clip-rule="evenodd" d="M41.1255 11.3682H41.8307V30.9659H41.1255V11.3682Z" fill="#801710"/>
<path d="M41.1247 11.3511H41.8815V30.9997H41.0903V11.3511H41.1247ZM41.7955 11.402H41.1419V30.9148H41.7955V11.402Z" fill="#801710"/>
<path d="M45.4946 29.3208V24.5698H46.3202V26.7417H46.3546L48.0402 24.5698H49.0894L47.1974 26.9283L49.227 29.3208H48.1434L46.3374 27.1828H46.303V29.3208H45.4946ZM50.3451 28.6081H52.5811V29.3378H49.5366V24.5868H52.4779V25.3164H50.3623V26.572H52.1683V27.3016H50.3623V28.6081H50.3451ZM54.9719 29.4056C54.7483 29.4056 54.5419 29.4056 54.3527 29.3547C54.1635 29.3038 53.9915 29.219 53.8367 29.1341C53.6991 29.0493 53.5787 28.9475 53.4755 28.7948C53.3895 28.659 53.3035 28.5233 53.2519 28.3536C53.2003 28.2179 53.1315 28.0821 53.1315 27.9125C53.0971 27.7428 53.0971 27.5731 53.0971 27.3865V24.5698H53.9227V27.3016C53.9227 27.641 53.9571 27.9125 54.0431 28.0821C54.1291 28.3027 54.2323 28.4385 54.4043 28.5572C54.5763 28.6421 54.7655 28.693 54.9891 28.693C55.2127 28.693 55.4191 28.6421 55.5567 28.5572C55.7287 28.4385 55.8663 28.3027 55.9523 28.0821C56.0039 27.9125 56.0727 27.641 56.0727 27.3016V24.5698H56.8983V27.3865C56.8983 27.5731 56.8983 27.7428 56.8639 27.9125C56.8295 28.0821 56.8123 28.2179 56.7435 28.3536C56.6919 28.5233 56.6059 28.659 56.4855 28.7948C56.3995 28.9305 56.2619 29.0493 56.1243 29.1341C55.9867 29.219 55.8147 29.3038 55.6083 29.3547C55.4363 29.4056 55.2299 29.4056 54.9719 29.4056ZM60.2007 28.133H58.5151L58.0679 29.3378H57.1907L58.9967 24.5868H59.7363L61.5423 29.3378H60.6651L60.2007 28.133ZM59.3579 25.7067C59.1859 26.2157 59.0483 26.6229 58.9279 26.9623L58.7559 27.3865H59.9427L59.8051 26.9623C59.6675 26.6229 59.5299 26.2157 59.3579 25.7067ZM64.1739 26.7926C64.5179 27.2677 64.7587 27.7089 64.9651 28.0652H64.9995C64.9651 27.4543 64.9479 27.0132 64.9479 26.7247V24.5529H65.7907V29.3038H64.9135L63.4515 27.098C63.1935 26.7417 62.9183 26.2836 62.6259 25.7915C62.6603 26.3684 62.6603 26.8265 62.6603 27.1489V29.2868H61.8347V24.5359H62.7119L64.1739 26.7926ZM69.3167 27.5222H68.3363V26.7756H70.1596V29.202C70.0736 29.2359 69.9876 29.2529 69.9016 29.2868C69.7812 29.3208 69.6779 29.3378 69.5403 29.3717C69.4199 29.3717 69.2823 29.4056 69.1447 29.4226C69.0071 29.4226 68.8695 29.4226 68.7491 29.4226C68.3191 29.4226 67.9923 29.3717 67.6827 29.2529C67.3731 29.1341 67.1151 28.9814 66.9259 28.7778C66.7367 28.5572 66.5819 28.3027 66.4787 28.0312C66.3927 27.7258 66.3411 27.4204 66.3411 27.0641C66.3411 26.8435 66.3755 26.589 66.4271 26.3684C66.4787 26.1478 66.5475 25.9272 66.6507 25.7576C66.7711 25.5709 66.8743 25.4012 67.0119 25.2316C67.1839 25.0619 67.3215 24.9601 67.5279 24.8413C67.7171 24.7225 67.9235 24.6547 68.1471 24.5868C68.3707 24.5359 68.5943 24.502 68.8867 24.502C69.1103 24.502 69.3168 24.502 69.506 24.5359C69.7296 24.5868 69.9016 24.6207 70.022 24.6716V25.4012C69.85 25.3503 69.678 25.3164 69.4888 25.2825C69.3167 25.2485 69.1447 25.2316 68.9555 25.2316C68.7319 25.2316 68.4739 25.2655 68.2847 25.3503C68.0611 25.4352 67.8891 25.537 67.7171 25.7067C67.5795 25.8424 67.4419 26.046 67.3559 26.2666C67.2699 26.4872 67.2183 26.7417 67.2183 27.0132C67.2183 27.5731 67.3559 28.0143 67.6483 28.2858C67.9235 28.5572 68.3191 28.7099 68.8351 28.7099C68.9211 28.7099 69.0243 28.7099 69.1103 28.676C69.2307 28.676 69.2995 28.6421 69.3683 28.6421V27.5222H69.3167ZM73.4276 28.133H71.7076L71.2776 29.3378H70.3832L72.1892 24.5868H72.946L74.7176 29.3378H73.8404L73.4276 28.133ZM72.5504 25.7067C72.3784 26.2157 72.2408 26.6229 72.1204 26.9623L71.9484 27.3865H73.1352L72.9976 26.9623C72.86 26.6229 72.7224 26.2157 72.5676 25.7067H72.5504ZM77.3836 26.7926C77.7276 27.2677 77.9684 27.7089 78.1748 28.0652H78.2092C78.1748 27.4543 78.1748 27.0132 78.1748 26.7247V24.5529H79.0004V29.3038H78.1232L76.6612 27.098C76.4032 26.7417 76.128 26.2836 75.87 25.7915H75.8356C75.87 26.3684 75.87 26.8265 75.87 27.1489V29.2868H75.0444V24.5359H75.9216L77.3836 26.7926Z" fill="#626261"/>
<path d="M46.405 18.1724H47.2306V21.7016C47.2306 21.8374 47.2306 21.9731 47.1962 22.0919C47.1618 22.2107 47.1446 22.3125 47.0758 22.3973C47.0242 22.5161 46.9554 22.584 46.8866 22.6688C46.8006 22.7536 46.6974 22.8045 46.6114 22.8554C46.491 22.9064 46.3878 22.9403 46.2502 22.9742C46.1298 23.0082 45.9922 23.0082 45.889 23.0082C45.7514 23.0082 45.6138 23.0082 45.459 22.9742C45.3386 22.9403 45.2354 22.9233 45.1494 22.8894V22.1428C45.2354 22.1937 45.3386 22.2276 45.459 22.2616C45.5794 22.2616 45.6826 22.2955 45.803 22.2955C46.0266 22.2955 46.1642 22.2446 46.2502 22.1258C46.3706 22.041 46.4222 21.8713 46.4222 21.6847V18.1724H46.405ZM50.5158 21.7356H48.8302L48.383 22.9403H47.5058L49.3118 18.1893H50.0514L51.8574 22.9403H50.9802L50.5158 21.7356ZM49.673 19.3092C49.501 19.8182 49.3634 20.2255 49.243 20.5648L49.071 20.989H50.2578L50.1202 20.5648C49.9826 20.2255 49.845 19.8013 49.673 19.3092ZM54.3515 21.5659C54.3515 21.4471 54.3171 21.3453 54.2655 21.2605C54.2139 21.2096 54.1451 21.1417 54.0419 21.0908C53.9559 21.0399 53.8527 21.006 53.7323 20.972C53.6119 20.9381 53.4743 20.9211 53.3367 20.8872C53.1647 20.8363 52.9927 20.7684 52.8551 20.7175C52.683 20.6666 52.5454 20.5987 52.425 20.4969C52.2874 20.3782 52.2014 20.2764 52.1154 20.1406C52.0638 19.9709 52.0294 19.7843 52.0294 19.5637C52.0294 19.3092 52.0638 19.0886 52.1498 18.902C52.2358 18.7323 52.339 18.5626 52.4938 18.4608C52.6314 18.3251 52.8034 18.2402 53.0098 18.1893C53.1991 18.1384 53.4055 18.1045 53.6635 18.1045C53.9215 18.1045 54.1451 18.1045 54.4031 18.1554C54.6267 18.2063 54.8503 18.2742 55.0223 18.342V19.0886C54.7987 19.0038 54.5751 18.9189 54.3515 18.868C54.1279 18.8341 53.9215 18.8171 53.7667 18.8171C53.4915 18.8171 53.2851 18.868 53.1131 18.9868C52.9755 19.0717 52.8895 19.2413 52.8895 19.4619C52.8895 19.5807 52.9239 19.6825 52.9755 19.7334C53.0271 19.8182 53.0959 19.9031 53.1647 19.92C53.2507 19.9709 53.3367 20.0388 53.4399 20.0558C53.5603 20.0897 53.6635 20.1067 53.7839 20.1406C53.9731 20.1746 54.1451 20.2255 54.3515 20.2764C54.5235 20.3273 54.6611 20.4121 54.7987 20.5309C54.9363 20.6157 55.0567 20.7515 55.1083 20.9211C55.1943 21.0569 55.2287 21.2775 55.2287 21.532C55.2287 21.7865 55.1943 22.0071 55.1083 22.1937C55.0223 22.3634 54.8847 22.5331 54.7127 22.6349C54.5407 22.7706 54.3515 22.8555 54.1279 22.9064C53.8699 22.9573 53.6119 22.9912 53.3367 22.9912C53.1131 22.9912 52.8551 22.9912 52.6315 22.9403C52.3734 22.8894 52.1843 22.8045 52.0466 22.7197V21.9731C52.2703 22.0919 52.4766 22.1598 52.7003 22.1937C52.8895 22.2446 53.1303 22.2785 53.3539 22.2785C53.4915 22.2785 53.6119 22.2786 53.7495 22.2446C53.8699 22.2107 53.9731 22.1937 54.0935 22.1258C54.1795 22.0749 54.2655 21.9901 54.3171 21.9053C54.3343 21.8204 54.3515 21.7016 54.3515 21.5659ZM58.3935 21.7356H56.6735L56.2435 22.9403H55.3663L57.1379 18.1893H57.8947L59.6663 22.9403H58.8235L58.3935 21.7356ZM57.5163 19.3092C57.3787 19.8182 57.2411 20.2255 57.0863 20.5648L56.9487 20.989H58.1355L57.9635 20.5648C57.8431 20.2255 57.7055 19.8182 57.5335 19.3092H57.5163Z" fill="#626261"/>
<path d="M48.8488 14.2189C48.8488 13.9474 48.7972 13.6929 48.7284 13.4723C48.6596 13.2517 48.5564 13.082 48.4532 12.9123C48.3328 12.7766 48.1952 12.6578 48.0232 12.6069C47.8512 12.5221 47.6792 12.4882 47.49 12.4882C47.3008 12.4882 47.1288 12.5221 46.9568 12.6069C46.7848 12.6578 46.6472 12.7766 46.5268 12.9123C46.4064 13.082 46.3032 13.2517 46.2516 13.4723C46.1656 13.6929 46.1312 13.9474 46.1312 14.2189C46.1312 14.5243 46.1656 14.7788 46.2516 14.9994C46.3032 15.22 46.4236 15.3896 46.5268 15.5254C46.6472 15.6611 46.7848 15.7799 46.9568 15.8647C47.1288 15.9496 47.3008 15.9835 47.49 15.9835C47.6792 15.9835 47.8512 15.9496 48.0232 15.8647C48.1952 15.7799 48.3328 15.6781 48.4532 15.5254C48.5736 15.3896 48.6768 15.22 48.7284 14.9994C48.7972 14.7618 48.8488 14.5243 48.8488 14.2189ZM49.7088 14.2189C49.7088 14.5752 49.6572 14.9145 49.5712 15.22C49.4508 15.5254 49.3132 15.7969 49.124 16.0005C48.952 16.2211 48.7284 16.3907 48.4532 16.5265C48.178 16.6452 47.8684 16.6961 47.5244 16.6961C47.1804 16.6961 46.8708 16.6452 46.5956 16.5265C46.3204 16.3907 46.0796 16.2211 45.8904 16.0005C45.7184 15.8138 45.5808 15.5254 45.4604 15.22C45.3744 14.9145 45.3228 14.5752 45.3228 14.2189C45.3228 13.8625 45.3744 13.5232 45.4604 13.2178C45.5808 12.9463 45.7184 12.6578 45.8904 12.4373C46.0796 12.2167 46.3204 12.047 46.5956 11.9282C46.8708 11.8094 47.1804 11.7416 47.5244 11.7416C47.8684 11.7416 48.178 11.8264 48.4532 11.9282C48.7284 12.047 48.9692 12.1997 49.124 12.4373C49.3132 12.6578 49.468 12.9463 49.5712 13.2178C49.64 13.5232 49.7088 13.8456 49.7088 14.2189ZM51.9276 16.6113H51.0848V12.573H49.64V11.8434H53.3724V12.573H51.9276V16.6113ZM56.8468 14.2189C56.8468 13.9474 56.8124 13.6929 56.7608 13.4723C56.6748 13.2517 56.5888 13.082 56.4856 12.9123C56.3652 12.7766 56.2276 12.6578 56.0556 12.6069C55.8836 12.5221 55.7116 12.4882 55.5224 12.4882C55.3332 12.4882 55.1268 12.5221 54.9892 12.6069C54.8172 12.6578 54.6796 12.7766 54.5592 12.9123C54.4216 13.082 54.3356 13.2517 54.284 13.4723C54.198 13.6929 54.1636 13.9474 54.1636 14.2189C54.1636 14.5243 54.198 14.7788 54.284 14.9994C54.3356 15.22 54.4216 15.3896 54.5592 15.5254C54.6796 15.6611 54.8172 15.7799 54.9892 15.8647C55.1268 15.9496 55.3332 15.9835 55.5224 15.9835C55.7116 15.9835 55.8836 15.9496 56.0556 15.8647C56.2276 15.7799 56.3652 15.6781 56.4856 15.5254C56.606 15.3896 56.6748 15.22 56.7608 14.9994C56.8124 14.7618 56.8468 14.5243 56.8468 14.2189ZM57.724 14.2189C57.724 14.5752 57.6724 14.9145 57.5864 15.22C57.466 15.5254 57.3284 15.7969 57.1392 16.0005C56.9672 16.2211 56.7436 16.3907 56.4684 16.5265C56.1932 16.6452 55.8836 16.6961 55.5396 16.6961C55.1784 16.6961 54.8688 16.6452 54.6108 16.5265C54.3356 16.3907 54.0948 16.2211 53.9056 16.0005C53.7336 15.8138 53.5616 15.5254 53.4756 15.22C53.3896 14.9145 53.338 14.5752 53.338 14.2189C53.338 13.8625 53.3896 13.5232 53.4756 13.2178C53.5616 12.9463 53.7336 12.6578 53.9056 12.4373C54.0948 12.2167 54.3356 12.047 54.6108 11.9282C54.8688 11.8094 55.1784 11.7416 55.5396 11.7416C55.8836 11.7416 56.1932 11.8264 56.4684 11.9282C56.7436 12.047 56.9844 12.1997 57.1392 12.4373C57.3284 12.6578 57.4832 12.9463 57.5864 13.2178C57.6552 13.5232 57.724 13.8456 57.724 14.2189ZM61.5768 13.2687C61.5768 13.608 61.4908 13.8795 61.3188 14.134C61.1468 14.3546 60.8716 14.5243 60.4932 14.6431V14.677L61.852 16.6283H60.8716L59.6332 14.7958H59.0656V16.6113H58.24V11.8604H59.5988C59.8568 11.8604 60.046 11.8604 60.2524 11.8943C60.4416 11.9282 60.6136 11.9791 60.7684 12.03C61.0264 12.1488 61.2156 12.2845 61.3532 12.5051C61.5252 12.6748 61.5768 12.9633 61.5768 13.2687ZM59.4956 14.0492C59.6676 14.0492 59.8396 14.0152 59.9772 14.0152C60.0976 13.9813 60.2008 13.9643 60.2868 13.9304C60.4588 13.8456 60.562 13.7607 60.648 13.6589C60.6996 13.5402 60.734 13.4044 60.734 13.2687C60.734 13.1329 60.6996 13.0142 60.648 12.9123C60.6136 12.8275 60.5276 12.7427 60.39 12.6918C60.304 12.6578 60.218 12.6409 60.1148 12.6069C59.9944 12.573 59.8396 12.573 59.6676 12.573H59.0828V14.0492H59.4956ZM62.2648 16.6113V11.8604H63.0904V16.6113H62.2648ZM65.6705 16.6113H64.8449V12.573H63.3828V11.8434H67.1325V12.573H65.6705V16.6113ZM69.6437 15.4066H67.9237L67.4937 16.6113H66.6165L68.3881 11.8604H69.1449L70.9165 16.6113H70.0393L69.6437 15.4066ZM68.7837 12.9972C68.6461 13.5062 68.5085 13.9134 68.3537 14.2528L68.2161 14.677H69.3685L69.2309 14.2528C69.1105 13.9134 68.9729 13.5062 68.8009 12.9972H68.7837ZM73.4793 15.2369C73.4793 15.1182 73.4449 15.0163 73.3933 14.9315C73.3417 14.8806 73.2557 14.7958 73.1697 14.7618C73.0493 14.7109 72.9461 14.677 72.8257 14.6431C72.7053 14.6091 72.6021 14.5582 72.4645 14.5243C72.2925 14.4903 72.1205 14.4394 71.9485 14.3885C71.7765 14.3376 71.6389 14.2528 71.5185 14.168C71.3981 14.0492 71.2949 13.9474 71.2433 13.7777C71.1573 13.642 71.1229 13.4383 71.1229 13.2178C71.1229 12.9633 71.1745 12.7427 71.2605 12.556C71.3121 12.3864 71.4497 12.2167 71.6045 12.1149C71.7421 11.9791 71.9141 11.8943 72.0861 11.8434C72.2753 11.7925 72.5161 11.7246 72.7397 11.7246C72.9977 11.7246 73.2557 11.7585 73.4793 11.8094C73.7373 11.8604 73.9265 11.9282 74.0985 11.9961V12.7427C73.8749 12.6239 73.6513 12.573 73.4449 12.5221C73.2213 12.4882 73.0149 12.4712 72.8257 12.4712C72.5505 12.4712 72.3441 12.5221 72.2065 12.6409C72.0689 12.7257 71.9829 12.8954 71.9829 13.116C71.9829 13.2347 72.0173 13.3026 72.0689 13.3874C72.1033 13.4723 72.1893 13.5232 72.2409 13.5741C72.3269 13.625 72.4301 13.6929 72.5505 13.7098C72.6365 13.7438 72.7397 13.7607 72.8945 13.7947C73.0837 13.8286 73.2557 13.8795 73.4277 13.9304C73.5997 13.9813 73.7717 14.0662 73.8749 14.151C74.0125 14.2698 74.1329 14.4055 74.2189 14.5752C74.3049 14.7109 74.3393 14.9315 74.3393 15.186C74.3393 15.4405 74.2877 15.6611 74.2017 15.8478C74.1157 16.0174 73.9781 16.1871 73.8405 16.2889C73.6685 16.4247 73.4793 16.5095 73.2213 16.5604C72.9977 16.6113 72.7397 16.6452 72.4645 16.6452C72.2065 16.6452 71.9829 16.6113 71.7249 16.5943C71.5013 16.5434 71.2949 16.4586 71.1401 16.3738V15.6272C71.3637 15.746 71.5873 15.8138 71.7937 15.8478C72.0173 15.8987 72.2237 15.9326 72.4473 15.9326C72.5849 15.9326 72.7225 15.8987 72.8429 15.8987C72.9805 15.8647 73.1009 15.8138 73.1869 15.7629C73.3073 15.712 73.3589 15.6441 73.4449 15.5423C73.4621 15.4914 73.4793 15.3896 73.4793 15.2369Z" fill="#626261"/>
<defs>
<radialGradient id="paint0_radial_26_2711" cx="0" cy="0" r="1" gradientUnits="userSpaceOnUse" gradientTransform="translate(16.9923 23.5308) scale(39.835 39.2967)">
<stop stop-color="#CA1517"/>
<stop offset="0.2784" stop-color="#A61916"/>
<stop offset="1" stop-color="#801710"/>
</radialGradient>
<linearGradient id="paint1_linear_26_2711" x1="6.8031" y1="14.0508" x2="27.1492" y2="-2.29396" gradientUnits="userSpaceOnUse">
<stop stop-color="#CE1420"/>
<stop offset="0.4196" stop-color="#F29376"/>
<stop offset="0.7608" stop-color="#B4191B"/>
<stop offset="0.9882" stop-color="#F29379"/>
<stop offset="1" stop-color="white"/>
</linearGradient>
<linearGradient id="paint2_linear_26_2711" x1="13.8847" y1="18.8594" x2="31.2372" y2="-1.28741" gradientUnits="userSpaceOnUse">
<stop stop-color="#CBCBCD"/>
<stop offset="0.0117647" stop-color="#CBCBCD"/>
<stop offset="0.349" stop-color="white"/>
<stop offset="0.6392" stop-color="#BFC0C4"/>
<stop offset="0.949" stop-color="white"/>
<stop offset="1" stop-color="white"/>
</linearGradient>
</defs>
</svg>
