<svg width="79" height="31" viewBox="0 0 79 31" fill="none" xmlns="http://www.w3.org/2000/svg">
<path fill-rule="evenodd" clip-rule="evenodd" d="M27.2452 22.1422L32.2332 30.3885H37.8748L30.2896 18.8335L36.5848 11.6052L31.3732 11.1641L29.9284 12.5894L24.7167 18.9692L24.5963 24.7043L27.2452 22.1422ZM9.09907 15.2193C5.29785 16.6107 5.21185 24.4328 8.27346 26.435C11.8511 28.7765 14.7579 25.5527 15.0675 22.0064C15.2051 20.1739 14.8439 17.493 13.3819 16.0847C12.2639 14.9988 10.5783 14.7103 9.09907 15.2193ZM19.7631 11.741H23.5643L23.6159 23.2281C23.6675 29.4892 20.4511 31.8477 14.3623 29.6928C14.3623 29.6928 10.7503 31.169 7.56826 29.9982C2.27063 28.03 0.997827 19.6988 4.17984 15.0497C6.46745 11.741 10.2687 11.0623 13.4679 12.267C15.3083 12.9966 17.8711 14.7103 18.5419 19.088C18.5419 19.088 19.5051 22.9566 17.2519 27.0798C17.2519 27.0798 19.7631 27.7755 19.7631 24.6025C19.7631 21.4465 19.7631 11.741 19.7631 11.741Z" fill="url(#paint0_radial_26_2730)"/>
<path fill-rule="evenodd" clip-rule="evenodd" d="M9.95917 4.63221C6.43315 5.66724 3.83594 9.23046 3.83594 9.23046C4.76474 10.8085 5.50435 12.7597 5.59035 14.9316C12.866 8.31421 17.9744 8.44995 27.3485 10.8085C35.3121 12.8107 39.6293 11.3684 42.3297 8.46692C42.3297 8.46692 36.3785 11.555 32.4053 9.94311C32.4053 9.94311 32.3537 9.90917 32.2161 9.85827C30.0145 10.0788 26.3681 7.94092 26.3681 7.94092C21.638 5.39576 14.6376 3.30873 9.95917 4.63221Z" fill="#A1A0A0"/>
<path fill-rule="evenodd" clip-rule="evenodd" d="M3.83562 8.87402C3.83562 8.87402 6.43283 5.31081 9.95885 4.30971C14.6373 2.95229 21.6377 5.03932 26.3505 7.61841C26.3505 7.61841 29.9969 9.75634 32.1986 9.5188C31.4074 9.21338 28.5865 7.95777 25.8173 5.61622C22.5665 2.83352 16.2885 -0.950279 9.20205 0.220492C2.11561 1.39126 0 4.22487 0 4.22487C0 4.22487 2.18441 5.97255 3.83562 8.87402Z" fill="url(#paint1_linear_26_2730)"/>
<path fill-rule="evenodd" clip-rule="evenodd" d="M9.95917 4.30948C6.43315 5.31057 3.83594 8.87379 3.83594 8.87379C4.76474 10.4857 5.50435 12.4031 5.59035 14.6089C12.866 7.95753 17.9744 8.09328 27.3485 10.4688C35.3121 12.4709 39.6293 11.0457 42.3297 8.16115C42.3297 8.16115 36.3785 11.2153 32.4053 9.6034C32.4053 9.6034 32.3537 9.56947 32.2161 9.51856C30.0145 9.77308 26.3681 7.61818 26.3681 7.61818C21.638 5.02212 14.6376 2.93509 9.95917 4.30948Z" fill="url(#paint2_linear_26_2730)"/>
<path fill-rule="evenodd" clip-rule="evenodd" d="M41.125 11.3682H41.8302V30.9659H41.125V11.3682Z" fill="#801710"/>
<path d="M41.1242 11.3511H41.881V30.9997H41.0898V11.3511H41.1242ZM41.795 11.402H41.1414V30.9148H41.795V11.402Z" fill="#801710"/>
<path d="M45.4951 29.3208V24.5698H46.3207V26.7417H46.3551L48.0407 24.5698H49.0899L47.1979 26.9283L49.2275 29.3208H48.1439L46.3379 27.1828H46.3035V29.3208H45.4951ZM50.3455 28.6081H52.5815V29.3378H49.5371V24.5868H52.4784V25.3164H50.3627V26.572H52.1687V27.3016H50.3627V28.6081H50.3455ZM54.9724 29.4056C54.7488 29.4056 54.5424 29.4056 54.3532 29.3547C54.164 29.3038 53.992 29.219 53.8372 29.1341C53.6996 29.0493 53.5792 28.9475 53.476 28.7948C53.39 28.659 53.304 28.5233 53.2524 28.3536C53.2008 28.2179 53.132 28.0821 53.132 27.9125C53.0976 27.7428 53.0976 27.5731 53.0976 27.3865V24.5698H53.9232V27.3016C53.9232 27.641 53.9576 27.9125 54.0436 28.0821C54.1296 28.3027 54.2328 28.4385 54.4048 28.5572C54.5768 28.6421 54.766 28.693 54.9896 28.693C55.2132 28.693 55.4196 28.6421 55.5572 28.5572C55.7292 28.4385 55.8668 28.3027 55.9528 28.0821C56.0044 27.9125 56.0732 27.641 56.0732 27.3016V24.5698H56.8988V27.3865C56.8988 27.5731 56.8988 27.7428 56.8644 27.9125C56.83 28.0821 56.8128 28.2179 56.744 28.3536C56.6924 28.5233 56.6064 28.659 56.486 28.7948C56.4 28.9305 56.2624 29.0493 56.1248 29.1341C55.9872 29.219 55.8152 29.3038 55.6088 29.3547C55.4368 29.4056 55.2304 29.4056 54.9724 29.4056ZM60.2012 28.133H58.5156L58.0684 29.3378H57.1912L58.9972 24.5868H59.7368L61.5428 29.3378H60.6656L60.2012 28.133ZM59.3584 25.7067C59.1864 26.2157 59.0488 26.6229 58.9284 26.9623L58.7564 27.3865H59.9432L59.8056 26.9623C59.668 26.6229 59.5304 26.2157 59.3584 25.7067ZM64.1744 26.7926C64.5184 27.2677 64.7592 27.7089 64.9656 28.0652H65C64.9656 27.4543 64.9484 27.0132 64.9484 26.7247V24.5529H65.7912V29.3038H64.914L63.452 27.098C63.194 26.7417 62.9188 26.2836 62.6264 25.7915C62.6608 26.3684 62.6608 26.8265 62.6608 27.1489V29.2868H61.8352V24.5359H62.7124L64.1744 26.7926ZM69.3172 27.5222H68.3368V26.7756H70.16V29.202C70.074 29.2359 69.988 29.2529 69.902 29.2868C69.7816 29.3208 69.6784 29.3378 69.5408 29.3717C69.4204 29.3717 69.2828 29.4056 69.1452 29.4226C69.0076 29.4226 68.87 29.4226 68.7496 29.4226C68.3196 29.4226 67.9928 29.3717 67.6832 29.2529C67.3736 29.1341 67.1156 28.9814 66.9264 28.7778C66.7372 28.5572 66.5824 28.3027 66.4792 28.0312C66.3932 27.7258 66.3416 27.4204 66.3416 27.0641C66.3416 26.8435 66.376 26.589 66.4276 26.3684C66.4792 26.1478 66.548 25.9272 66.6512 25.7576C66.7716 25.5709 66.8748 25.4012 67.0124 25.2316C67.1844 25.0619 67.322 24.9601 67.5284 24.8413C67.7176 24.7225 67.924 24.6547 68.1476 24.5868C68.3712 24.5359 68.5948 24.502 68.8872 24.502C69.1108 24.502 69.3172 24.502 69.5064 24.5359C69.73 24.5868 69.902 24.6207 70.0224 24.6716V25.4012C69.8504 25.3503 69.6784 25.3164 69.4892 25.2825C69.3172 25.2485 69.1452 25.2316 68.956 25.2316C68.7324 25.2316 68.4744 25.2655 68.2852 25.3503C68.0616 25.4352 67.8896 25.537 67.7176 25.7067C67.58 25.8424 67.4424 26.046 67.3564 26.2666C67.2704 26.4872 67.2188 26.7417 67.2188 27.0132C67.2188 27.5731 67.3564 28.0143 67.6488 28.2858C67.924 28.5572 68.3196 28.7099 68.8356 28.7099C68.9216 28.7099 69.0248 28.7099 69.1108 28.676C69.2312 28.676 69.3 28.6421 69.3688 28.6421V27.5222H69.3172ZM73.4281 28.133H71.708L71.278 29.3378H70.3836L72.1896 24.5868H72.9465L74.7181 29.3378H73.8409L73.4281 28.133ZM72.5509 25.7067C72.3789 26.2157 72.2413 26.6229 72.1208 26.9623L71.9488 27.3865H73.1357L72.9981 26.9623C72.8605 26.6229 72.7229 26.2157 72.5681 25.7067H72.5509ZM77.3841 26.7926C77.7281 27.2677 77.9689 27.7089 78.1753 28.0652H78.2097C78.1753 27.4543 78.1753 27.0132 78.1753 26.7247V24.5529H79.0009V29.3038H78.1237L76.6617 27.098C76.4037 26.7417 76.1285 26.2836 75.8705 25.7915H75.8361C75.8705 26.3684 75.8705 26.8265 75.8705 27.1489V29.2868H75.0449V24.5359H75.9221L77.3841 26.7926Z" fill="#626261"/>
<path d="M46.405 18.1724H47.2306V21.7016C47.2306 21.8374 47.2306 21.9731 47.1962 22.0919C47.1618 22.2107 47.1446 22.3125 47.0758 22.3973C47.0242 22.5161 46.9554 22.584 46.8866 22.6688C46.8006 22.7536 46.6974 22.8045 46.6114 22.8554C46.491 22.9064 46.3878 22.9403 46.2502 22.9742C46.1298 23.0082 45.9922 23.0082 45.889 23.0082C45.7514 23.0082 45.6138 23.0082 45.459 22.9742C45.3386 22.9403 45.2354 22.9233 45.1494 22.8894V22.1428C45.2354 22.1937 45.3386 22.2276 45.459 22.2616C45.5794 22.2616 45.6826 22.2955 45.803 22.2955C46.0266 22.2955 46.1642 22.2446 46.2502 22.1258C46.3706 22.041 46.4222 21.8713 46.4222 21.6847V18.1724H46.405ZM50.5158 21.7356H48.8302L48.383 22.9403H47.5058L49.3118 18.1893H50.0514L51.8574 22.9403H50.9802L50.5158 21.7356ZM49.673 19.3092C49.501 19.8182 49.3634 20.2255 49.243 20.5648L49.071 20.989H50.2578L50.1202 20.5648C49.9826 20.2255 49.845 19.8013 49.673 19.3092ZM54.3515 21.5659C54.3515 21.4471 54.3171 21.3453 54.2655 21.2605C54.2139 21.2096 54.1451 21.1417 54.0419 21.0908C53.9559 21.0399 53.8527 21.006 53.7323 20.972C53.6119 20.9381 53.4743 20.9211 53.3367 20.8872C53.1647 20.8363 52.9927 20.7684 52.8551 20.7175C52.683 20.6666 52.5454 20.5987 52.425 20.4969C52.2874 20.3782 52.2014 20.2764 52.1154 20.1406C52.0638 19.9709 52.0294 19.7843 52.0294 19.5637C52.0294 19.3092 52.0638 19.0886 52.1498 18.902C52.2358 18.7323 52.339 18.5626 52.4938 18.4608C52.6314 18.3251 52.8034 18.2402 53.0098 18.1893C53.1991 18.1384 53.4055 18.1045 53.6635 18.1045C53.9215 18.1045 54.1451 18.1045 54.4031 18.1554C54.6267 18.2063 54.8503 18.2742 55.0223 18.342V19.0886C54.7987 19.0038 54.5751 18.9189 54.3515 18.868C54.1279 18.8341 53.9215 18.8171 53.7667 18.8171C53.4915 18.8171 53.2851 18.868 53.1131 18.9868C52.9755 19.0717 52.8895 19.2413 52.8895 19.4619C52.8895 19.5807 52.9239 19.6825 52.9755 19.7334C53.0271 19.8182 53.0959 19.9031 53.1647 19.92C53.2507 19.9709 53.3367 20.0388 53.4399 20.0558C53.5603 20.0897 53.6635 20.1067 53.7839 20.1406C53.9731 20.1746 54.1451 20.2255 54.3515 20.2764C54.5235 20.3273 54.6611 20.4121 54.7987 20.5309C54.9363 20.6157 55.0567 20.7515 55.1083 20.9211C55.1943 21.0569 55.2287 21.2775 55.2287 21.532C55.2287 21.7865 55.1943 22.0071 55.1083 22.1937C55.0223 22.3634 54.8847 22.5331 54.7127 22.6349C54.5407 22.7706 54.3515 22.8555 54.1279 22.9064C53.8699 22.9573 53.6119 22.9912 53.3367 22.9912C53.1131 22.9912 52.8551 22.9912 52.6315 22.9403C52.3734 22.8894 52.1843 22.8045 52.0466 22.7197V21.9731C52.2703 22.0919 52.4766 22.1598 52.7003 22.1937C52.8895 22.2446 53.1303 22.2785 53.3539 22.2785C53.4915 22.2785 53.6119 22.2786 53.7495 22.2446C53.8699 22.2107 53.9731 22.1937 54.0935 22.1258C54.1795 22.0749 54.2655 21.9901 54.3171 21.9053C54.3343 21.8204 54.3515 21.7016 54.3515 21.5659ZM58.3935 21.7356H56.6735L56.2435 22.9403H55.3663L57.1379 18.1893H57.8947L59.6663 22.9403H58.8235L58.3935 21.7356ZM57.5163 19.3092C57.3787 19.8182 57.2411 20.2255 57.0863 20.5648L56.9487 20.989H58.1355L57.9635 20.5648C57.8431 20.2255 57.7055 19.8182 57.5335 19.3092H57.5163Z" fill="#626261"/>
<path d="M48.8493 14.2189C48.8493 13.9474 48.7977 13.6929 48.7289 13.4723C48.6601 13.2517 48.5569 13.082 48.4537 12.9123C48.3333 12.7766 48.1957 12.6578 48.0237 12.6069C47.8517 12.5221 47.6797 12.4882 47.4905 12.4882C47.3013 12.4882 47.1293 12.5221 46.9573 12.6069C46.7852 12.6578 46.6476 12.7766 46.5272 12.9123C46.4068 13.082 46.3036 13.2517 46.252 13.4723C46.166 13.6929 46.1316 13.9474 46.1316 14.2189C46.1316 14.5243 46.166 14.7788 46.252 14.9994C46.3036 15.22 46.424 15.3896 46.5272 15.5254C46.6476 15.6611 46.7852 15.7799 46.9573 15.8647C47.1293 15.9496 47.3013 15.9835 47.4905 15.9835C47.6797 15.9835 47.8517 15.9496 48.0237 15.8647C48.1957 15.7799 48.3333 15.6781 48.4537 15.5254C48.5741 15.3896 48.6773 15.22 48.7289 14.9994C48.7977 14.7618 48.8493 14.5243 48.8493 14.2189ZM49.7093 14.2189C49.7093 14.5752 49.6577 14.9145 49.5717 15.22C49.4513 15.5254 49.3137 15.7969 49.1245 16.0005C48.9525 16.2211 48.7289 16.3907 48.4537 16.5265C48.1785 16.6452 47.8689 16.6961 47.5249 16.6961C47.1808 16.6961 46.8712 16.6452 46.596 16.5265C46.3208 16.3907 46.08 16.2211 45.8908 16.0005C45.7188 15.8138 45.5812 15.5254 45.4608 15.22C45.3748 14.9145 45.3232 14.5752 45.3232 14.2189C45.3232 13.8625 45.3748 13.5232 45.4608 13.2178C45.5812 12.9463 45.7188 12.6578 45.8908 12.4373C46.08 12.2167 46.3208 12.047 46.596 11.9282C46.8712 11.8094 47.1808 11.7416 47.5249 11.7416C47.8689 11.7416 48.1785 11.8264 48.4537 11.9282C48.7289 12.047 48.9697 12.1997 49.1245 12.4373C49.3137 12.6578 49.4685 12.9463 49.5717 13.2178C49.6405 13.5232 49.7093 13.8456 49.7093 14.2189ZM51.9281 16.6113H51.0853V12.573H49.6405V11.8434H53.3729V12.573H51.9281V16.6113ZM56.8473 14.2189C56.8473 13.9474 56.8129 13.6929 56.7613 13.4723C56.6753 13.2517 56.5893 13.082 56.4861 12.9123C56.3657 12.7766 56.2281 12.6578 56.0561 12.6069C55.8841 12.5221 55.7121 12.4882 55.5229 12.4882C55.3337 12.4882 55.1273 12.5221 54.9897 12.6069C54.8177 12.6578 54.6801 12.7766 54.5597 12.9123C54.4221 13.082 54.3361 13.2517 54.2845 13.4723C54.1985 13.6929 54.1641 13.9474 54.1641 14.2189C54.1641 14.5243 54.1985 14.7788 54.2845 14.9994C54.3361 15.22 54.4221 15.3896 54.5597 15.5254C54.6801 15.6611 54.8177 15.7799 54.9897 15.8647C55.1273 15.9496 55.3337 15.9835 55.5229 15.9835C55.7121 15.9835 55.8841 15.9496 56.0561 15.8647C56.2281 15.7799 56.3657 15.6781 56.4861 15.5254C56.6065 15.3896 56.6753 15.22 56.7613 14.9994C56.8129 14.7618 56.8473 14.5243 56.8473 14.2189ZM57.7245 14.2189C57.7245 14.5752 57.6729 14.9145 57.5869 15.22C57.4665 15.5254 57.3289 15.7969 57.1397 16.0005C56.9677 16.2211 56.7441 16.3907 56.4689 16.5265C56.1937 16.6452 55.8841 16.6961 55.5401 16.6961C55.1789 16.6961 54.8693 16.6452 54.6113 16.5265C54.3361 16.3907 54.0953 16.2211 53.9061 16.0005C53.7341 15.8138 53.5621 15.5254 53.4761 15.22C53.3901 14.9145 53.3385 14.5752 53.3385 14.2189C53.3385 13.8625 53.3901 13.5232 53.4761 13.2178C53.5621 12.9463 53.7341 12.6578 53.9061 12.4373C54.0953 12.2167 54.3361 12.047 54.6113 11.9282C54.8693 11.8094 55.1789 11.7416 55.5401 11.7416C55.8841 11.7416 56.1937 11.8264 56.4689 11.9282C56.7441 12.047 56.9849 12.1997 57.1397 12.4373C57.3289 12.6578 57.4837 12.9463 57.5869 13.2178C57.6557 13.5232 57.7245 13.8456 57.7245 14.2189ZM61.5773 13.2687C61.5773 13.608 61.4913 13.8795 61.3193 14.134C61.1473 14.3546 60.8721 14.5243 60.4937 14.6431V14.677L61.8525 16.6283H60.8721L59.6337 14.7958H59.0661V16.6113H58.2405V11.8604H59.5993C59.8573 11.8604 60.0465 11.8604 60.2529 11.8943C60.4421 11.9282 60.6141 11.9791 60.7689 12.03C61.0269 12.1488 61.2161 12.2845 61.3537 12.5051C61.5257 12.6748 61.5773 12.9633 61.5773 13.2687ZM59.4961 14.0492C59.6681 14.0492 59.8401 14.0152 59.9777 14.0152C60.0981 13.9813 60.2013 13.9643 60.2873 13.9304C60.4593 13.8456 60.5625 13.7607 60.6485 13.6589C60.7001 13.5402 60.7345 13.4044 60.7345 13.2687C60.7345 13.1329 60.7001 13.0142 60.6485 12.9123C60.6141 12.8275 60.5281 12.7427 60.3905 12.6918C60.3045 12.6578 60.2185 12.6409 60.1153 12.6069C59.9949 12.573 59.8401 12.573 59.6681 12.573H59.0833V14.0492H59.4961ZM62.2653 16.6113V11.8604H63.0909V16.6113H62.2653ZM65.6709 16.6113H64.8453V12.573H63.3833V11.8434H67.133V12.573H65.6709V16.6113ZM69.6442 15.4066H67.9242L67.4942 16.6113H66.6169L68.3886 11.8604H69.1454L70.917 16.6113H70.0398L69.6442 15.4066ZM68.7842 12.9972C68.6466 13.5062 68.509 13.9134 68.3542 14.2528L68.2166 14.677H69.369L69.2314 14.2528C69.111 13.9134 68.9734 13.5062 68.8014 12.9972H68.7842ZM73.4798 15.2369C73.4798 15.1182 73.4454 15.0163 73.3938 14.9315C73.3422 14.8806 73.2562 14.7958 73.1702 14.7618C73.0498 14.7109 72.9466 14.677 72.8262 14.6431C72.7058 14.6091 72.6026 14.5582 72.465 14.5243C72.293 14.4903 72.121 14.4394 71.949 14.3885C71.777 14.3376 71.6394 14.2528 71.519 14.168C71.3986 14.0492 71.2954 13.9474 71.2438 13.7777C71.1578 13.642 71.1234 13.4383 71.1234 13.2178C71.1234 12.9633 71.175 12.7427 71.261 12.556C71.3126 12.3864 71.4502 12.2167 71.605 12.1149C71.7426 11.9791 71.9146 11.8943 72.0866 11.8434C72.2758 11.7925 72.5166 11.7246 72.7402 11.7246C72.9982 11.7246 73.2562 11.7585 73.4798 11.8094C73.7378 11.8604 73.927 11.9282 74.099 11.9961V12.7427C73.8754 12.6239 73.6518 12.573 73.4454 12.5221C73.2218 12.4882 73.0154 12.4712 72.8262 12.4712C72.551 12.4712 72.3446 12.5221 72.207 12.6409C72.0694 12.7257 71.9834 12.8954 71.9834 13.116C71.9834 13.2347 72.0178 13.3026 72.0694 13.3874C72.1038 13.4723 72.1898 13.5232 72.2414 13.5741C72.3274 13.625 72.4306 13.6929 72.551 13.7098C72.637 13.7438 72.7402 13.7607 72.895 13.7947C73.0842 13.8286 73.2562 13.8795 73.4282 13.9304C73.6002 13.9813 73.7722 14.0662 73.8754 14.151C74.013 14.2698 74.1334 14.4055 74.2194 14.5752C74.3054 14.7109 74.3398 14.9315 74.3398 15.186C74.3398 15.4405 74.2882 15.6611 74.2022 15.8478C74.1162 16.0174 73.9786 16.1871 73.841 16.2889C73.669 16.4247 73.4798 16.5095 73.2218 16.5604C72.9982 16.6113 72.7402 16.6452 72.465 16.6452C72.207 16.6452 71.9834 16.6113 71.7254 16.5943C71.5018 16.5434 71.2954 16.4586 71.1406 16.3738V15.6272C71.3642 15.746 71.5878 15.8138 71.7942 15.8478C72.0178 15.8987 72.2242 15.9326 72.4478 15.9326C72.5854 15.9326 72.723 15.8987 72.8434 15.8987C72.981 15.8647 73.1014 15.8138 73.1874 15.7629C73.3078 15.712 73.3594 15.6441 73.4454 15.5423C73.4626 15.4914 73.4798 15.3896 73.4798 15.2369Z" fill="#626261"/>
<defs>
<radialGradient id="paint0_radial_26_2730" cx="0" cy="0" r="1" gradientUnits="userSpaceOnUse" gradientTransform="translate(16.9928 23.5308) scale(39.835 39.2967)">
<stop stop-color="#CA1517"/>
<stop offset="0.2784" stop-color="#A61916"/>
<stop offset="1" stop-color="#801710"/>
</radialGradient>
<linearGradient id="paint1_linear_26_2730" x1="6.8031" y1="14.0508" x2="27.1492" y2="-2.29396" gradientUnits="userSpaceOnUse">
<stop stop-color="#CE1420"/>
<stop offset="0.4196" stop-color="#F29376"/>
<stop offset="0.7608" stop-color="#B4191B"/>
<stop offset="0.9882" stop-color="#F29379"/>
<stop offset="1" stop-color="white"/>
</linearGradient>
<linearGradient id="paint2_linear_26_2730" x1="13.8842" y1="18.8594" x2="31.2367" y2="-1.28741" gradientUnits="userSpaceOnUse">
<stop stop-color="#CBCBCD"/>
<stop offset="0.0117647" stop-color="#CBCBCD"/>
<stop offset="0.349" stop-color="white"/>
<stop offset="0.6392" stop-color="#BFC0C4"/>
<stop offset="0.949" stop-color="white"/>
<stop offset="1" stop-color="white"/>
</linearGradient>
</defs>
</svg>
