<svg width="330" height="50" viewBox="0 0 330 50" fill="none" xmlns="http://www.w3.org/2000/svg">
<g clip-path="url(#clip0_18_1436)">
<path d="M40.1776 13.2599C40.3905 13.2599 40.7676 13.4371 41.2814 14.0071C43.9568 16.954 46.9584 19.2831 49.4837 20.6917C49.8481 20.8911 50.0476 21.0444 50.0476 21.2378C50.0476 21.3851 50.0269 21.5286 49.7126 21.5286C49.1432 21.5286 45.9599 20.8911 45.1174 20.4945C44.2712 20.0863 42.4525 18.5898 40.2828 14.794C40.037 14.3658 39.7778 13.9973 39.7778 13.6523C39.7778 13.3099 40.0821 13.2599 40.1776 13.2599Z" fill="#6C99D7"/>
<path d="M47.3856 2.40817C47.3856 2.40817 47.9137 3.46619 42.7706 4.20228C43.3303 2.59134 43.7019 1.52947 43.7019 1.52947C44.0284 0.561111 43.2912 7.66377e-05 42.761 7.66377e-05C42.2299 7.66377e-05 41.8428 0.414661 41.6202 0.937695L40.0922 4.48621C38.0871 4.62199 36.6025 4.54684 35.9288 4.48237C34.9984 4.39057 34.7556 4.91062 34.7556 5.44561C34.7556 6.37895 36.3786 7.32597 37.4155 7.22179C38.0665 7.1603 38.4448 7.1334 38.9788 7.07576L33.2916 20.2635C33.0736 20.7558 32.899 21.5508 33.874 21.5508C34.8519 21.5508 37.0473 20.646 37.4155 19.5961C37.5687 19.1555 38.7019 15.896 39.9647 12.2677C40.5909 12.1421 42.8859 11.7873 43.5247 11.7873C44.1307 11.7873 44.4429 12.0602 44.4429 12.3851C44.4429 13.1464 42.6461 15.3282 39.1652 18.0121C38.786 18.3088 39.1012 18.5398 39.2948 18.5398C39.833 18.5398 42.2324 16.8742 43.4199 15.9618C44.7278 14.9614 47.0006 12.3612 47.0006 10.5282C47.0006 9.81134 46.6862 9.15167 45.2618 9.15167C43.8824 9.15167 41.4375 9.46165 40.9191 9.52954C41.2549 8.55221 41.5907 7.59837 41.9029 6.70473C44.5931 6.32644 46.1956 6.07837 47.1419 5.88111C48.4422 5.60188 49.4896 4.84102 49.4896 4.05796C49.4896 2.39408 47.3856 2.40817 47.3856 2.40817Z" fill="#5C250B"/>
<path d="M1.63777 10.6635H0V9.02141H1.63777V6.83449H3.85288V9.02141H5.94722V10.6635H3.85288V14.6843C3.85288 15.4233 4.04897 16.1091 4.89184 16.1091C5.29035 16.1091 5.66823 16.0275 5.89714 15.8798L5.96784 17.6513C5.50033 17.7947 4.99368 17.8545 4.33091 17.8545C2.59383 17.8545 1.63777 16.7627 1.63777 15.0532V10.6635Z" fill="#5C250B"/>
<path d="M7.63525 9.02128H9.59914V10.9845H9.63449C9.73254 10.1749 10.6406 8.81676 11.9615 8.81676C12.1757 8.81676 12.4072 8.81676 12.6382 8.88849V11.1497C12.4404 11.0361 12.0449 10.9665 11.6472 10.9665C9.84826 10.9665 9.84826 13.2461 9.84826 14.483V17.6511H7.63525L7.63525 9.02128Z" fill="#5C250B"/>
<path d="M21.8251 17.6513H19.7236V16.4835H19.6904C19.0167 17.3204 18.0585 17.8545 16.9017 17.8545C14.8869 17.8545 14.0112 16.4139 14.0112 14.4652V9.02141H16.2183V13.6284C16.2183 14.6843 16.2402 16.1091 17.6617 16.1091C19.2624 16.1091 19.6117 14.3495 19.6117 13.2458V9.02141H21.8251V17.6513Z" fill="#5C250B"/>
<path d="M29.115 12.4905C29.046 11.4026 28.5511 10.4624 27.3152 10.4624C26.0738 10.4624 25.4477 11.3347 25.3484 12.4905H29.115ZM30.5996 17.1649C29.7904 17.6171 28.8663 17.8545 27.6754 17.8545C24.8712 17.8545 23.2334 16.2128 23.2334 13.3833C23.2334 10.8826 24.5392 8.81689 27.1826 8.81689C30.3383 8.81689 31.2299 11.0124 31.2299 14.0349H25.3484C25.4477 15.4233 26.4042 16.2128 27.7747 16.2128C28.8537 16.2128 29.7748 15.8102 30.5996 15.3397V17.1649Z" fill="#5C250B"/>
<path d="M48.5518 9.1517H50.5186V11.1098H50.5518C50.649 10.3045 51.5584 8.94463 52.8818 8.94463C53.0948 8.94463 53.3258 8.94463 53.5564 9.01123V11.2771C53.362 11.1597 52.9643 11.094 52.5666 11.094C50.7648 11.094 50.7648 13.3714 50.7648 14.6088V17.7769H48.5518V9.1517Z" fill="#5C250B"/>
<path d="M54.8428 9.15164H57.0587V17.7768H54.8428V9.15164ZM54.8428 5.55615H57.0587V7.70123H54.8428V5.55615Z" fill="#5C250B"/>
<path d="M64.3315 12.6182C64.2658 11.5243 63.7706 10.5901 62.5317 10.5901C61.2887 10.5901 60.6642 11.4607 60.5682 12.6182H64.3315ZM65.8161 17.2926C65.0081 17.7469 64.0862 17.9822 62.8949 17.9822C60.0881 17.9822 58.4512 16.3379 58.4512 13.505C58.4512 11.0064 59.7531 8.94458 62.4 8.94458C65.5539 8.94458 66.4427 11.1396 66.4427 14.1604H60.5682C60.6642 15.5532 61.6207 16.3379 62.9942 16.3379C64.0655 16.3379 64.9943 15.9379 65.8161 15.4673V17.2926Z" fill="#5C250B"/>
<path d="M67.7573 9.22849H69.8584V10.3992H69.8879C70.5851 9.40867 71.5269 9.02141 72.6803 9.02141C74.6993 9.02141 75.5708 10.4641 75.5708 12.409V17.8545H73.3599V13.2458C73.3599 12.1899 73.3422 10.7651 71.9224 10.7651C70.3238 10.7651 69.9724 12.5225 69.9724 13.6344V17.8545H67.7573V9.22849Z" fill="#5C250B"/>
<path d="M81.0934 16.2365C82.5679 16.2365 83.0493 14.6644 83.0493 13.4369C83.0493 12.2294 82.4837 10.6872 81.0618 10.6872C79.6294 10.6872 79.2339 12.2815 79.2339 13.4369C79.2339 14.6307 79.6421 16.2365 81.0934 16.2365ZM83.1297 16.8082H83.0964C82.4345 17.6451 81.5273 17.9819 80.4887 17.9819C77.8751 17.9819 76.9165 15.8001 76.9165 13.4369C76.9165 11.0561 77.8751 8.94433 80.4887 8.94433C81.5942 8.94433 82.3697 9.33202 83.0316 10.1526H83.0653V5.20667H85.2762V17.7766H83.1297V16.8082Z" fill="#5C250B"/>
<path d="M94.7676 6.96876H99.4448V16.3347H99.5382C100.002 15.5171 100.499 14.763 100.963 14.009L105.702 6.96876H111.495L104.587 15.9889L111.866 28.1519H106.352L101.242 19.0062L99.4448 21.2371V28.1519H94.7676V6.96876Z" fill="#231F20"/>
<path d="M116.789 20.4518C116.789 23.0917 117.873 25.0716 119.886 25.0716C121.714 25.0716 122.891 23.2173 122.891 20.4518C122.891 18.1573 122.024 15.8316 119.886 15.8316C117.625 15.8316 116.789 18.1889 116.789 20.4518ZM127.754 20.2947C127.754 25.92 123.82 28.4976 119.763 28.4976C115.333 28.4976 111.926 25.5434 111.926 20.5773C111.926 15.6121 115.147 12.4372 120.011 12.4372C124.657 12.4372 127.754 15.6749 127.754 20.2947Z" fill="#231F20"/>
<path d="M130.355 17.843C130.355 15.5801 130.293 14.1032 130.23 12.783H134.288L134.443 15.6117H134.567C135.342 13.3803 137.2 12.4372 138.656 12.4372C139.089 12.4372 139.306 12.4372 139.647 12.4999V17.0258C139.306 16.9318 138.904 16.8687 138.377 16.8687C136.642 16.8687 135.465 17.8114 135.156 19.2891C135.094 19.6029 135.063 19.9804 135.063 20.3574V28.1521H130.355V17.843Z" fill="#231F20"/>
<path d="M150.734 18.7233C150.734 17.5602 150.239 15.612 148.07 15.612C146.088 15.612 145.283 17.4342 145.159 18.7233H150.734ZM145.19 21.9917C145.345 23.9715 147.265 24.9138 149.465 24.9138C151.075 24.9138 152.376 24.6944 153.646 24.2862L154.266 27.523C152.717 28.152 150.828 28.4978 148.784 28.4978C143.641 28.4978 140.699 25.4488 140.699 20.6403C140.699 16.743 143.083 12.4375 148.349 12.4375C153.244 12.4375 155.102 16.3036 155.102 20.1062C155.102 20.923 155.009 21.6463 154.947 21.9917H145.19Z" fill="#231F20"/>
<path d="M165.663 20.8916C163.186 20.8604 161.265 21.4577 161.265 23.3121C161.265 24.5374 162.07 25.1352 163.123 25.1352C164.3 25.1352 165.261 24.3496 165.57 23.3748C165.633 23.1229 165.663 22.8398 165.663 22.5572V20.8916ZM170.248 24.4119C170.248 25.8884 170.31 27.3033 170.465 28.1521H166.221L165.942 26.6116H165.849C164.858 27.837 163.309 28.4976 161.513 28.4976C158.446 28.4976 156.619 26.2351 156.619 23.7834C156.619 19.7917 160.15 17.8746 165.509 17.9058V17.6863C165.509 16.8687 165.075 15.7061 162.752 15.7061C161.203 15.7061 159.562 16.2402 158.57 16.8687L157.703 13.789C158.756 13.1917 160.831 12.4376 163.588 12.4376C168.637 12.4376 170.248 15.4546 170.248 19.0689V24.4119Z" fill="#231F20"/>
<path d="M184.494 28.1521H179.754V6.96899H184.494V28.1521Z" fill="#231F20"/>
<path d="M188.21 17.6861C188.21 15.7685 188.148 14.1345 188.085 12.7832H192.174L192.39 14.8886H192.485C193.103 13.9147 194.653 12.4374 197.161 12.4374C200.259 12.4374 202.582 14.5116 202.582 19.0374V28.1519H197.873V19.6347C197.873 17.6549 197.192 16.3035 195.489 16.3035C194.187 16.3035 193.413 17.2143 193.103 18.0947C192.979 18.4089 192.918 18.8487 192.918 19.2889V28.1519H188.21V17.6861Z" fill="#231F20"/>
<path d="M208.96 12.783L211.004 19.9172C211.378 21.2058 211.655 22.4316 211.872 23.6574H211.965C212.213 22.4004 212.461 21.2374 212.802 19.9172L214.754 12.783H219.71L214.072 28.1521H209.364L203.851 12.783H208.96Z" fill="#231F20"/>
<path d="M230.27 18.7233C230.27 17.5602 229.774 15.612 227.606 15.612C225.624 15.612 224.819 17.4342 224.695 18.7233H230.27ZM224.725 21.9917C224.88 23.9715 226.801 24.9138 229 24.9138C230.611 24.9138 231.912 24.6944 233.181 24.2862L233.802 27.523C232.252 28.152 230.363 28.4978 228.319 28.4978C223.177 28.4978 220.234 25.4488 220.234 20.6403C220.234 16.743 222.619 12.4375 227.885 12.4375C232.778 12.4375 234.638 16.3036 234.638 20.1062C234.638 20.923 234.544 21.6463 234.483 21.9917H224.725Z" fill="#231F20"/>
<path d="M237.115 23.9715C237.982 24.5057 239.779 25.1354 241.172 25.1354C242.598 25.1354 243.186 24.632 243.186 23.846C243.186 23.0608 242.721 22.6834 240.956 22.086C237.827 21.0178 236.619 19.289 236.649 17.4974C236.649 14.606 239.067 12.4375 242.813 12.4375C244.579 12.4375 246.16 12.8456 247.088 13.3174L246.252 16.6175C245.571 16.24 244.27 15.7375 242.969 15.7375C241.823 15.7375 241.172 16.2084 241.172 16.9949C241.172 17.7178 241.761 18.0943 243.618 18.7544C246.5 19.7604 247.708 21.2372 247.738 23.5002C247.738 26.3604 245.509 28.4978 241.172 28.4978C239.191 28.4978 237.425 28.0264 236.278 27.3975L237.115 23.9715Z" fill="#231F20"/>
<path d="M255.543 8.6033V12.7833H258.919V16.3036H255.543V21.8657C255.543 23.7205 255.977 24.5697 257.401 24.5697C258.052 24.5697 258.331 24.5373 258.795 24.4438L258.826 28.058C258.207 28.3091 257.092 28.4978 255.76 28.4978C254.242 28.4978 252.972 27.9321 252.229 27.1456C251.362 26.2349 250.928 24.7576 250.928 22.5886V16.3036H248.915V12.7833H250.928V9.89188L255.543 8.6033Z" fill="#231F20"/>
<path d="M261.334 17.6861C261.334 15.7685 261.273 14.1345 261.21 12.7832H265.175L265.392 14.8574H265.485C266.135 13.8831 267.466 12.4374 270.069 12.4374C272.02 12.4374 273.57 13.4429 274.22 15.0457H274.282C274.839 14.2285 275.521 13.6316 276.233 13.1914C277.07 12.6888 277.998 12.4374 279.113 12.4374C282.026 12.4374 284.225 14.5116 284.225 19.1006V28.1519H279.64V19.7919C279.64 17.5601 278.928 16.2719 277.41 16.2719C276.326 16.2719 275.551 17.026 275.242 17.9375C275.118 18.2834 275.056 18.7859 275.056 19.1629V28.1519H270.471V19.5399C270.471 17.5913 269.79 16.2719 268.303 16.2719C267.095 16.2719 266.382 17.2143 266.103 18.0003C265.949 18.3777 265.919 18.8171 265.919 19.1945V28.1519H261.334V17.6861Z" fill="#231F20"/>
<path d="M296.829 18.7233C296.829 17.5602 296.332 15.612 294.164 15.612C292.182 15.612 291.377 17.4342 291.253 18.7233H296.829ZM291.284 21.9917C291.438 23.9715 293.359 24.9138 295.558 24.9138C297.168 24.9138 298.47 24.6944 299.74 24.2862L300.359 27.523C298.81 28.152 296.921 28.4978 294.876 28.4978C289.735 28.4978 286.792 25.4488 286.792 20.6403C286.792 16.743 289.177 12.4375 294.443 12.4375C299.337 12.4375 301.196 16.3036 301.196 20.1062C301.196 20.923 301.102 21.6463 301.041 21.9917H291.284Z" fill="#231F20"/>
<path d="M303.704 17.6861C303.704 15.7685 303.642 14.1345 303.58 12.7832H307.669L307.884 14.8886H307.979C308.597 13.9147 310.147 12.4374 312.655 12.4374C315.754 12.4374 318.076 14.5116 318.076 19.0374V28.1519H313.368V19.6347C313.368 17.6549 312.686 16.3035 310.983 16.3035C309.681 16.3035 308.907 17.2143 308.597 18.0947C308.474 18.4089 308.412 18.8487 308.412 19.2889V28.1519H303.704V17.6861Z" fill="#231F20"/>
<path d="M326.624 8.6033V12.7833H330V16.3036H326.624V21.8657C326.624 23.7205 327.057 24.5697 328.482 24.5697C329.132 24.5697 329.411 24.5373 329.876 24.4438L329.906 28.058C329.287 28.3091 328.172 28.4978 326.841 28.4978C325.322 28.4978 324.052 27.9321 323.31 27.1456C322.442 26.2349 322.008 24.7576 322.008 22.5886V16.3036H319.995V12.7833H322.008V9.89188L326.624 8.6033Z" fill="#231F20"/>
<path d="M97.5418 38.5246C96.5638 38.5246 96.0484 39.3555 96.0484 40.2944C96.0484 41.159 96.4397 41.8263 96.9552 42.4758C98.1642 41.7725 98.9468 41.1231 98.9468 40.095C98.9468 39.3555 98.5378 38.5246 97.5599 38.5246H97.5418ZM97.2401 48.8089C98.2529 48.8089 99.1244 48.3397 99.6938 47.7082C98.9822 46.9149 97.6487 45.4351 96.3147 43.8839C95.6747 44.2989 94.7678 45.0743 94.7678 46.3556C94.7678 47.7441 95.7816 48.8089 97.2216 48.8089H97.2401ZM101.579 49.8012C101.241 49.4584 100.92 49.1159 100.458 48.6108C99.4266 49.5852 98.2706 49.9998 96.9552 49.9998C94.6256 49.9998 93.2744 48.4114 93.2744 46.5904C93.2744 44.9308 94.2528 43.7929 95.6217 43.0355V42.9817C94.9993 42.188 94.6256 41.3046 94.6256 40.4374C94.6256 38.9593 95.6747 37.4427 97.6663 37.4427C99.1602 37.4427 100.316 38.4529 100.316 40.0233C100.316 41.3046 99.5865 42.3144 97.684 43.2708V43.3246C98.6982 44.5149 99.836 45.8501 100.601 46.7164C101.152 45.868 101.525 44.6956 101.756 43.1623H103.179C102.859 45.0743 102.343 46.5904 101.454 47.6544C102.094 48.3397 102.716 49.0254 103.428 49.8012H101.579Z" fill="#231F20"/>
<path d="M108.032 47.8894C108.726 48.322 109.74 48.6823 110.806 48.6823C112.389 48.6823 113.314 47.8348 113.314 46.6081C113.314 45.4715 112.673 44.8217 111.055 44.1906C109.099 43.4861 107.89 42.4576 107.89 40.7446C107.89 38.8493 109.437 37.4424 111.767 37.4424C112.993 37.4424 113.882 37.7315 114.416 38.0385L113.989 39.3198C113.598 39.1025 112.798 38.7417 111.713 38.7417C110.077 38.7417 109.455 39.734 109.455 40.564C109.455 41.701 110.184 42.2603 111.838 42.9093C113.865 43.703 114.896 44.6957 114.896 46.4817C114.896 48.3578 113.527 49.9995 110.7 49.9995C109.544 49.9995 108.281 49.6392 107.641 49.2066L108.032 47.8894Z" fill="#231F20"/>
<path d="M122.346 44.5882C122.363 43.578 121.937 42.0076 120.176 42.0076C118.594 42.0076 117.9 43.4862 117.776 44.5882H122.346ZM117.758 45.7239C117.794 47.8716 119.145 48.7545 120.71 48.7545C121.83 48.7545 122.506 48.5573 123.092 48.3041L123.359 49.4407C122.808 49.693 121.865 50 120.496 50C117.847 50 116.264 48.2144 116.264 45.5805C116.264 42.9461 117.794 40.871 120.301 40.871C123.111 40.871 123.857 43.3786 123.857 44.9849C123.857 45.3093 123.821 45.5625 123.804 45.7239H117.758Z" fill="#231F20"/>
<path d="M127.164 45.0743H127.199C127.413 44.7673 127.716 44.389 127.964 44.0821L130.489 41.0694H132.374L129.049 44.6597L132.836 49.8013H130.934L127.964 45.6166L127.164 46.5179V49.8013H125.617V36.9923H127.164V45.0743Z" fill="#231F20"/>
<path d="M141.051 47.4192C141.051 48.3218 141.069 49.1159 141.122 49.8012H139.735L139.646 48.3756H139.611C139.202 49.0792 138.295 49.9998 136.766 49.9998C135.414 49.9998 133.796 49.2427 133.796 46.175V41.0693H135.361V45.9051C135.361 47.5648 135.859 48.6826 137.281 48.6826C138.331 48.6826 139.06 47.9435 139.344 47.2398C139.433 47.0046 139.486 46.7164 139.486 46.4273V41.0693H141.051V47.4192Z" fill="#231F20"/>
<path d="M143.47 43.793C143.47 42.7649 143.452 41.881 143.398 41.0694H144.768L144.821 42.7828H144.892C145.283 41.6116 146.226 40.8708 147.275 40.8708C147.452 40.8708 147.577 40.8888 147.719 40.9246V42.422C147.559 42.3861 147.399 42.3686 147.186 42.3686C146.083 42.3686 145.301 43.2162 145.088 44.4065C145.052 44.6239 145.016 44.8758 145.016 45.1469V49.8013H143.47V43.793Z" fill="#231F20"/>
<path d="M149.177 41.0695H150.741V49.8014H149.177V41.0695ZM150.919 38.6157C150.937 39.1563 150.546 39.5897 149.923 39.5897C149.372 39.5897 148.981 39.1563 148.981 38.6157C148.981 38.0564 149.39 37.623 149.959 37.623C150.546 37.623 150.919 38.0564 150.919 38.6157Z" fill="#231F20"/>
<path d="M155.044 38.9772V41.0693H157.285V42.2785H155.044V46.9871C155.044 48.069 155.347 48.6826 156.218 48.6826C156.645 48.6826 156.894 48.6467 157.125 48.575L157.196 49.7658C156.894 49.8922 156.413 49.9998 155.809 49.9998C155.08 49.9998 154.493 49.747 154.12 49.3145C153.675 48.8452 153.515 48.069 153.515 47.0409V42.2785H152.182V41.0693H153.515V39.4635L155.044 38.9772Z" fill="#231F20"/>
<path d="M163.401 45.3454C161.695 45.3095 159.756 45.6165 159.756 47.3116C159.756 48.3401 160.432 48.8269 161.232 48.8269C162.352 48.8269 163.064 48.1049 163.313 47.3654C163.366 47.2036 163.401 47.0234 163.401 46.8607V45.3454ZM164.913 47.7082C164.913 48.4669 164.948 49.2069 165.055 49.8016H163.633L163.508 48.7005H163.454C162.974 49.3862 162.05 49.9998 160.823 49.9998C159.081 49.9998 158.192 48.7543 158.192 47.4922C158.192 45.3813 160.04 44.2263 163.366 44.2455V44.0641C163.366 43.3429 163.17 42.0437 161.41 42.0437C160.609 42.0437 159.774 42.2964 159.169 42.6931L158.814 41.647C159.525 41.1769 160.556 40.8712 161.641 40.8712C164.273 40.8712 164.913 42.6931 164.913 44.4428V47.7082Z" fill="#231F20"/>
<path d="M167.046 48.1777C167.509 48.4847 168.327 48.8092 169.109 48.8092C170.246 48.8092 170.781 48.2324 170.781 47.5104C170.781 46.7516 170.336 46.3375 169.18 45.9054C167.634 45.3452 166.904 44.4785 166.904 43.4324C166.904 42.0255 168.024 40.871 169.874 40.871C170.745 40.871 171.509 41.1234 171.989 41.412L171.598 42.5665C171.26 42.3505 170.638 42.0618 169.838 42.0618C168.913 42.0618 168.398 42.6032 168.398 43.2531C168.398 43.9742 168.913 44.2991 170.033 44.7317C171.527 45.3093 172.292 46.0668 172.292 47.3656C172.292 48.8997 171.119 50 169.073 50C168.131 50 167.26 49.7468 166.655 49.386L167.046 48.1777Z" fill="#231F20"/>
<path d="M179.315 49.8014H177.768V37.6418H179.315V49.8014Z" fill="#231F20"/>
<path d="M181.964 43.4322C181.964 42.5309 181.947 41.7901 181.894 41.0694H183.28L183.368 42.513H183.405C183.832 41.6829 184.828 40.8708 186.249 40.8708C187.441 40.8708 189.29 41.592 189.29 44.588V49.8013H187.726V44.7673C187.726 43.3605 187.21 42.188 185.734 42.188C184.703 42.188 183.902 42.928 183.636 43.8109C183.565 44.0103 183.53 44.281 183.53 44.5509V49.8013H181.964V43.4322Z" fill="#231F20"/>
<path d="M197.522 44.6241C197.522 44.4247 197.504 44.1544 197.45 43.9567C197.219 42.9461 196.366 42.1152 195.192 42.1152C193.575 42.1152 192.615 43.5592 192.615 45.4895C192.615 47.258 193.468 48.7187 195.157 48.7187C196.206 48.7187 197.166 48.015 197.45 46.8247C197.504 46.6082 197.522 46.3917 197.522 46.1394V44.6241ZM199.086 36.9925V47.5471C199.086 48.322 199.105 49.2067 199.158 49.8015H197.753L197.682 48.2862H197.647C197.166 49.2605 196.117 50 194.713 50C192.633 50 191.032 48.2144 191.032 45.5625C191.014 42.6575 192.793 40.871 194.891 40.871C196.206 40.871 197.095 41.5021 197.487 42.2062H197.522V36.9925H199.086Z" fill="#231F20"/>
<path d="M202.466 45.453C202.466 47.3654 203.55 48.8089 205.08 48.8089C206.573 48.8089 207.694 47.3833 207.694 45.4171C207.694 43.9385 206.964 42.062 205.115 42.062C203.265 42.062 202.466 43.7929 202.466 45.453ZM209.294 45.3633C209.294 48.5929 207.089 49.9998 205.008 49.9998C202.678 49.9998 200.883 48.2684 200.883 45.5076C200.883 42.5846 202.769 40.8712 205.151 40.8712C207.622 40.8712 209.294 42.6931 209.294 45.3633Z" fill="#231F20"/>
<path d="M211.089 43.4322C211.089 42.5309 211.071 41.7901 211.018 41.0694H212.405L212.494 42.513H212.53C212.956 41.6829 213.952 40.8708 215.375 40.8708C216.566 40.8708 218.415 41.592 218.415 44.588V49.8013H216.85V44.7673C216.85 43.3605 216.334 42.188 214.859 42.188C213.828 42.188 213.027 42.928 212.761 43.8109C212.689 44.0103 212.654 44.281 212.654 44.5509V49.8013H211.089V43.4322Z" fill="#231F20"/>
<path d="M226.238 44.5882C226.256 43.578 225.829 42.0076 224.07 42.0076C222.486 42.0076 221.793 43.4862 221.669 44.5882H226.238ZM221.651 45.7239C221.686 47.8716 223.039 48.7545 224.602 48.7545C225.722 48.7545 226.398 48.5573 226.985 48.3041L227.252 49.4407C226.701 49.693 225.758 50 224.389 50C221.74 50 220.158 48.2144 220.158 45.5805C220.158 42.9461 221.686 40.871 224.193 40.871C227.003 40.871 227.749 43.3786 227.749 44.9849C227.749 45.3093 227.714 45.5625 227.696 45.7239H221.651Z" fill="#231F20"/>
<path d="M229.297 48.1777C229.759 48.4847 230.577 48.8092 231.359 48.8092C232.498 48.8092 233.03 48.2324 233.03 47.5104C233.03 46.7516 232.586 46.3375 231.431 45.9054C229.885 45.3452 229.155 44.4785 229.155 43.4324C229.155 42.0255 230.275 40.871 232.124 40.871C232.995 40.871 233.759 41.1234 234.24 41.412L233.849 42.5665C233.512 42.3505 232.889 42.0618 232.089 42.0618C231.164 42.0618 230.648 42.6032 230.648 43.2531C230.648 43.9742 231.164 44.2991 232.284 44.7317C233.777 45.3093 234.542 46.0668 234.542 47.3656C234.542 48.8997 233.368 50 231.323 50C230.381 50 229.51 49.7468 228.906 49.386L229.297 48.1777Z" fill="#231F20"/>
<path d="M236.373 41.0695H237.938V49.8014H236.373V41.0695ZM238.116 38.6157C238.134 39.1563 237.743 39.5897 237.12 39.5897C236.569 39.5897 236.178 39.1563 236.178 38.6157C236.178 38.0564 236.586 37.623 237.156 37.623C237.743 37.623 238.116 38.0564 238.116 38.6157Z" fill="#231F20"/>
<path d="M244.891 45.3454C243.184 45.3095 241.246 45.6165 241.246 47.3116C241.246 48.3401 241.921 48.8269 242.721 48.8269C243.842 48.8269 244.553 48.1049 244.802 47.3654C244.855 47.2036 244.891 47.0234 244.891 46.8607V45.3454ZM246.401 47.7082C246.401 48.4669 246.438 49.2069 246.545 49.8016H245.122L244.997 48.7005H244.944C244.463 49.3862 243.539 49.9998 242.313 49.9998C240.57 49.9998 239.681 48.7543 239.681 47.4922C239.681 45.3813 241.529 44.2263 244.855 44.2455V44.0641C244.855 43.3429 244.659 42.0437 242.899 42.0437C242.099 42.0437 241.263 42.2964 240.659 42.6931L240.303 41.647C241.015 41.1769 242.046 40.8712 243.13 40.8712C245.761 40.8712 246.401 42.6931 246.401 44.4428V47.7082Z" fill="#231F20"/>
</g>
<defs>
<clipPath id="clip0_18_1436">
<rect width="330" height="50" fill="white"/>
</clipPath>
</defs>
</svg>
