<svg width="15" height="16" viewBox="0 0 15 16" fill="none" xmlns="http://www.w3.org/2000/svg">
<path d="M4.16667 0.5C1.86583 0.5 0 2.36583 0 4.66667V11.3333C0 13.6342 1.86583 15.5 4.16667 15.5H10.8333C13.1342 15.5 15 13.6342 15 11.3333V4.66667C15 2.36583 13.1342 0.5 10.8333 0.5H4.16667ZM12.5 2.16667C12.96 2.16667 13.3333 2.54 13.3333 3C13.3333 3.46 12.96 3.83333 12.5 3.83333C12.04 3.83333 11.6667 3.46 11.6667 3C11.6667 2.54 12.04 2.16667 12.5 2.16667ZM7.5 3.83333C9.80083 3.83333 11.6667 5.69917 11.6667 8C11.6667 10.3008 9.80083 12.1667 7.5 12.1667C5.19917 12.1667 3.33333 10.3008 3.33333 8C3.33333 5.69917 5.19917 3.83333 7.5 3.83333ZM7.5 5.5C6.83696 5.5 6.20107 5.76339 5.73223 6.23223C5.26339 6.70107 5 7.33696 5 8C5 8.66304 5.26339 9.29893 5.73223 9.76777C6.20107 10.2366 6.83696 10.5 7.5 10.5C8.16304 10.5 8.79893 10.2366 9.26777 9.76777C9.73661 9.29893 10 8.66304 10 8C10 7.33696 9.73661 6.70107 9.26777 6.23223C8.79893 5.76339 8.16304 5.5 7.5 5.5Z" fill="#5C250B"/>
</svg>
