<svg width="79" height="31" viewBox="0 0 79 31" fill="none" xmlns="http://www.w3.org/2000/svg">
<path fill-rule="evenodd" clip-rule="evenodd" d="M27.2452 22.1421L32.2332 30.3884H37.8748L30.2896 18.8334L36.5848 11.6052L31.3732 11.164L29.9284 12.5893L24.7167 18.9691L24.5963 24.7042L27.2452 22.1421ZM9.09907 15.2193C5.29785 16.6106 5.21185 24.4327 8.27346 26.4349C11.8511 28.7765 14.7579 25.5526 15.0675 22.0064C15.2051 20.1739 14.8439 17.493 13.3819 16.0846C12.2639 14.9987 10.5783 14.7103 9.09907 15.2193ZM19.7631 11.7409H23.5643L23.6159 23.228C23.6675 29.4891 20.4511 31.8476 14.3623 29.6927C14.3623 29.6927 10.7503 31.1689 7.56826 29.9982C2.27063 28.0299 0.997827 19.6988 4.17984 15.0496C6.46745 11.7409 10.2687 11.0622 13.4679 12.2669C15.3083 12.9965 17.8711 14.7103 18.5419 19.0879C18.5419 19.0879 19.5051 22.9566 17.2519 27.0797C17.2519 27.0797 19.7631 27.7754 19.7631 24.6024C19.7631 21.4464 19.7631 11.7409 19.7631 11.7409Z" fill="url(#paint0_radial_1_7230)"/>
<path fill-rule="evenodd" clip-rule="evenodd" d="M9.95917 4.63191C6.43315 5.66694 3.83594 9.23016 3.83594 9.23016C4.76474 10.8082 5.50435 12.7594 5.59035 14.9313C12.866 8.3139 17.9744 8.44965 27.3485 10.8082C35.3121 12.8103 39.6293 11.3681 42.3297 8.46661C42.3297 8.46661 36.3785 11.5547 32.4053 9.9428C32.4053 9.9428 32.3537 9.90887 32.2161 9.85796C30.0145 10.0785 26.3681 7.94061 26.3681 7.94061C21.638 5.39546 14.6376 3.30843 9.95917 4.63191Z" fill="#A1A0A0"/>
<path fill-rule="evenodd" clip-rule="evenodd" d="M3.83562 8.87381C3.83562 8.87381 6.43283 5.31059 9.95885 4.3095C14.6373 2.95208 21.6377 5.03911 26.3505 7.6182C26.3505 7.6182 29.9969 9.75613 32.1986 9.51858C31.4074 9.21316 28.5865 7.95755 25.8173 5.61601C22.5665 2.83331 16.2885 -0.950493 9.20205 0.220279C2.11561 1.39105 0 4.22466 0 4.22466C0 4.22466 2.18441 5.97233 3.83562 8.87381Z" fill="url(#paint1_linear_1_7230)"/>
<path fill-rule="evenodd" clip-rule="evenodd" d="M9.95917 4.30923C6.43315 5.31033 3.83594 8.87355 3.83594 8.87355C4.76474 10.4855 5.50435 12.4028 5.59035 14.6086C12.866 7.95729 17.9744 8.09303 27.3485 10.4685C35.3121 12.4707 39.6293 11.0454 42.3297 8.1609C42.3297 8.1609 36.3785 11.2151 32.4053 9.60316C32.4053 9.60316 32.3537 9.56922 32.2161 9.51832C30.0145 9.77283 26.3681 7.61794 26.3681 7.61794C21.638 5.02188 14.6376 2.93485 9.95917 4.30923Z" fill="url(#paint2_linear_1_7230)"/>
<path fill-rule="evenodd" clip-rule="evenodd" d="M41.125 11.3681H41.8302V30.9658H41.125V11.3681Z" fill="#801710"/>
<path d="M41.1242 11.3508H41.881V30.9994H41.0898V11.3508H41.1242ZM41.795 11.4017H41.1414V30.9146H41.795V11.4017Z" fill="#801710"/>
<path d="M45.4951 29.3204V24.5695H46.3207V26.7413H46.3551L48.0407 24.5695H49.0899L47.1979 26.928L49.2275 29.3204H48.1439L46.3379 27.1825H46.3035V29.3204H45.4951ZM50.3455 28.6078H52.5815V29.3374H49.5371V24.5864H52.4784V25.316H50.3627V26.5716H52.1687V27.3013H50.3627V28.6078H50.3455ZM54.9724 29.4053C54.7488 29.4053 54.5424 29.4053 54.3532 29.3544C54.164 29.3034 53.992 29.2186 53.8372 29.1338C53.6996 29.0489 53.5792 28.9471 53.476 28.7944C53.39 28.6587 53.304 28.5229 53.2524 28.3533C53.2008 28.2175 53.132 28.0818 53.132 27.9121C53.0976 27.7424 53.0976 27.5727 53.0976 27.3861V24.5695H53.9232V27.3013C53.9232 27.6406 53.9576 27.9121 54.0436 28.0818C54.1296 28.3024 54.2328 28.4381 54.4048 28.5569C54.5768 28.6417 54.766 28.6926 54.9896 28.6926C55.2132 28.6926 55.4196 28.6417 55.5572 28.5569C55.7292 28.4381 55.8668 28.3024 55.9528 28.0818C56.0044 27.9121 56.0732 27.6406 56.0732 27.3013V24.5695H56.8988V27.3861C56.8988 27.5727 56.8988 27.7424 56.8644 27.9121C56.83 28.0818 56.8128 28.2175 56.744 28.3533C56.6924 28.5229 56.6064 28.6587 56.486 28.7944C56.4 28.9302 56.2624 29.0489 56.1248 29.1338C55.9872 29.2186 55.8152 29.3034 55.6088 29.3544C55.4368 29.4053 55.2304 29.4053 54.9724 29.4053ZM60.2012 28.1327H58.5156L58.0684 29.3374H57.1912L58.9972 24.5864H59.7368L61.5428 29.3374H60.6656L60.2012 28.1327ZM59.3584 25.7063C59.1864 26.2153 59.0488 26.6226 58.9284 26.9619L58.7564 27.3861H59.9432L59.8056 26.9619C59.668 26.6226 59.5304 26.2153 59.3584 25.7063ZM64.1744 26.7922C64.5184 27.2673 64.7592 27.7085 64.9656 28.0648H65C64.9656 27.454 64.9484 27.0128 64.9484 26.7244V24.5525H65.7912V29.3034H64.914L63.452 27.0976C63.194 26.7413 62.9188 26.2832 62.6264 25.7911C62.6608 26.368 62.6608 26.8262 62.6608 27.1486V29.2865H61.8352V24.5355H62.7124L64.1744 26.7922ZM69.3172 27.5218H68.3368V26.7753H70.16V29.2016C70.074 29.2356 69.988 29.2525 69.902 29.2865C69.7816 29.3204 69.6784 29.3374 69.5408 29.3713C69.4204 29.3713 69.2828 29.4053 69.1452 29.4222C69.0076 29.4222 68.87 29.4222 68.7496 29.4222C68.3196 29.4222 67.9928 29.3713 67.6832 29.2525C67.3736 29.1338 67.1156 28.9811 66.9264 28.7775C66.7372 28.5569 66.5824 28.3024 66.4792 28.0309C66.3932 27.7254 66.3416 27.42 66.3416 27.0637C66.3416 26.8431 66.376 26.5886 66.4276 26.368C66.4792 26.1475 66.548 25.9269 66.6512 25.7572C66.7716 25.5706 66.8748 25.4009 67.0124 25.2312C67.1844 25.0615 67.322 24.9597 67.5284 24.8409C67.7176 24.7222 67.924 24.6543 68.1476 24.5864C68.3712 24.5355 68.5948 24.5016 68.8872 24.5016C69.1108 24.5016 69.3172 24.5016 69.5064 24.5355C69.73 24.5864 69.902 24.6204 70.0224 24.6713V25.4009C69.8504 25.35 69.6784 25.316 69.4892 25.2821C69.3172 25.2482 69.1452 25.2312 68.956 25.2312C68.7324 25.2312 68.4744 25.2651 68.2852 25.35C68.0616 25.4348 67.8896 25.5366 67.7176 25.7063C67.58 25.842 67.4424 26.0456 67.3564 26.2662C67.2704 26.4868 67.2188 26.7413 67.2188 27.0128C67.2188 27.5727 67.3564 28.0139 67.6488 28.2854C67.924 28.5569 68.3196 28.7096 68.8356 28.7096C68.9216 28.7096 69.0248 28.7096 69.1108 28.6756C69.2312 28.6756 69.3 28.6417 69.3688 28.6417V27.5218H69.3172ZM73.4281 28.1327H71.708L71.278 29.3374H70.3836L72.1896 24.5864H72.9465L74.7181 29.3374H73.8409L73.4281 28.1327ZM72.5509 25.7063C72.3789 26.2153 72.2413 26.6226 72.1208 26.9619L71.9488 27.3861H73.1357L72.9981 26.9619C72.8605 26.6226 72.7229 26.2153 72.5681 25.7063H72.5509ZM77.3841 26.7922C77.7281 27.2673 77.9689 27.7085 78.1753 28.0648H78.2097C78.1753 27.454 78.1753 27.0128 78.1753 26.7244V24.5525H79.0009V29.3034H78.1237L76.6617 27.0976C76.4037 26.7413 76.1285 26.2832 75.8705 25.7911H75.8361C75.8705 26.368 75.8705 26.8262 75.8705 27.1486V29.2865H75.0449V24.5355H75.9221L77.3841 26.7922Z" fill="#626261"/>
<path d="M46.405 18.1723H47.2306V21.7016C47.2306 21.8373 47.2306 21.973 47.1962 22.0918C47.1618 22.2106 47.1446 22.3124 47.0758 22.3972C47.0242 22.516 46.9554 22.5839 46.8866 22.6687C46.8006 22.7536 46.6974 22.8045 46.6114 22.8554C46.491 22.9063 46.3878 22.9402 46.2502 22.9741C46.1298 23.0081 45.9922 23.0081 45.889 23.0081C45.7514 23.0081 45.6138 23.0081 45.459 22.9741C45.3386 22.9402 45.2354 22.9232 45.1494 22.8893V22.1427C45.2354 22.1936 45.3386 22.2276 45.459 22.2615C45.5794 22.2615 45.6826 22.2954 45.803 22.2954C46.0266 22.2954 46.1642 22.2445 46.2502 22.1257C46.3706 22.0409 46.4222 21.8712 46.4222 21.6846V18.1723H46.405ZM50.5158 21.7355H48.8302L48.383 22.9402H47.5058L49.3118 18.1892H50.0514L51.8574 22.9402H50.9802L50.5158 21.7355ZM49.673 19.3091C49.501 19.8181 49.3634 20.2254 49.243 20.5647L49.071 20.9889H50.2578L50.1202 20.5647C49.9826 20.2254 49.845 19.8012 49.673 19.3091ZM54.3515 21.5658C54.3515 21.447 54.3171 21.3452 54.2655 21.2604C54.2139 21.2095 54.1451 21.1416 54.0419 21.0907C53.9559 21.0398 53.8527 21.0059 53.7323 20.9719C53.6119 20.938 53.4743 20.921 53.3367 20.8871C53.1647 20.8362 52.9927 20.7683 52.8551 20.7174C52.683 20.6665 52.5454 20.5987 52.425 20.4968C52.2874 20.3781 52.2014 20.2763 52.1154 20.1405C52.0638 19.9708 52.0294 19.7842 52.0294 19.5636C52.0294 19.3091 52.0638 19.0885 52.1498 18.9019C52.2358 18.7322 52.339 18.5625 52.4938 18.4607C52.6314 18.325 52.8034 18.2401 53.0098 18.1892C53.1991 18.1383 53.4055 18.1044 53.6635 18.1044C53.9215 18.1044 54.1451 18.1044 54.4031 18.1553C54.6267 18.2062 54.8503 18.2741 55.0223 18.3419V19.0885C54.7987 19.0037 54.5751 18.9189 54.3515 18.8679C54.1279 18.834 53.9215 18.817 53.7667 18.817C53.4915 18.817 53.2851 18.8679 53.1131 18.9867C52.9755 19.0716 52.8895 19.2412 52.8895 19.4618C52.8895 19.5806 52.9239 19.6824 52.9755 19.7333C53.0271 19.8181 53.0959 19.903 53.1647 19.9199C53.2507 19.9708 53.3367 20.0387 53.4399 20.0557C53.5603 20.0896 53.6635 20.1066 53.7839 20.1405C53.9731 20.1745 54.1451 20.2254 54.3515 20.2763C54.5235 20.3272 54.6611 20.412 54.7987 20.5308C54.9363 20.6156 55.0567 20.7514 55.1083 20.921C55.1943 21.0568 55.2287 21.2774 55.2287 21.5319C55.2287 21.7864 55.1943 22.007 55.1083 22.1936C55.0223 22.3633 54.8847 22.533 54.7127 22.6348C54.5407 22.7705 54.3515 22.8554 54.1279 22.9063C53.8699 22.9572 53.6119 22.9911 53.3367 22.9911C53.1131 22.9911 52.8551 22.9911 52.6315 22.9402C52.3734 22.8893 52.1843 22.8045 52.0466 22.7196V21.973C52.2703 22.0918 52.4766 22.1597 52.7003 22.1936C52.8895 22.2445 53.1303 22.2785 53.3539 22.2785C53.4915 22.2785 53.6119 22.2785 53.7495 22.2445C53.8699 22.2106 53.9731 22.1936 54.0935 22.1257C54.1795 22.0748 54.2655 21.99 54.3171 21.9052C54.3343 21.8203 54.3515 21.7016 54.3515 21.5658ZM58.3935 21.7355H56.6735L56.2435 22.9402H55.3663L57.1379 18.1892H57.8947L59.6663 22.9402H58.8235L58.3935 21.7355ZM57.5163 19.3091C57.3787 19.8181 57.2411 20.2254 57.0863 20.5647L56.9487 20.9889H58.1355L57.9635 20.5647C57.8431 20.2254 57.7055 19.8181 57.5335 19.3091H57.5163Z" fill="#626261"/>
<path d="M48.8493 14.2187C48.8493 13.9473 48.7977 13.6927 48.7289 13.4722C48.6601 13.2516 48.5569 13.0819 48.4537 12.9122C48.3333 12.7765 48.1957 12.6577 48.0237 12.6068C47.8517 12.522 47.6797 12.488 47.4905 12.488C47.3013 12.488 47.1293 12.522 46.9573 12.6068C46.7852 12.6577 46.6476 12.7765 46.5272 12.9122C46.4068 13.0819 46.3036 13.2516 46.252 13.4722C46.166 13.6927 46.1316 13.9473 46.1316 14.2187C46.1316 14.5242 46.166 14.7787 46.252 14.9993C46.3036 15.2198 46.424 15.3895 46.5272 15.5253C46.6476 15.661 46.7852 15.7798 46.9573 15.8646C47.1293 15.9494 47.3013 15.9834 47.4905 15.9834C47.6797 15.9834 47.8517 15.9494 48.0237 15.8646C48.1957 15.7798 48.3333 15.678 48.4537 15.5253C48.5741 15.3895 48.6773 15.2198 48.7289 14.9993C48.7977 14.7617 48.8493 14.5242 48.8493 14.2187ZM49.7093 14.2187C49.7093 14.5751 49.6577 14.9144 49.5717 15.2198C49.4513 15.5253 49.3137 15.7967 49.1245 16.0003C48.9525 16.2209 48.7289 16.3906 48.4537 16.5263C48.1785 16.6451 47.8689 16.696 47.5249 16.696C47.1808 16.696 46.8712 16.6451 46.596 16.5263C46.3208 16.3906 46.08 16.2209 45.8908 16.0003C45.7188 15.8137 45.5812 15.5253 45.4608 15.2198C45.3748 14.9144 45.3232 14.5751 45.3232 14.2187C45.3232 13.8624 45.3748 13.5231 45.4608 13.2176C45.5812 12.9462 45.7188 12.6577 45.8908 12.4371C46.08 12.2166 46.3208 12.0469 46.596 11.9281C46.8712 11.8093 47.1808 11.7415 47.5249 11.7415C47.8689 11.7415 48.1785 11.8263 48.4537 11.9281C48.7289 12.0469 48.9697 12.1996 49.1245 12.4371C49.3137 12.6577 49.4685 12.9462 49.5717 13.2176C49.6405 13.5231 49.7093 13.8455 49.7093 14.2187ZM51.9281 16.6112H51.0853V12.5729H49.6405V11.8433H53.3729V12.5729H51.9281V16.6112ZM56.8473 14.2187C56.8473 13.9473 56.8129 13.6927 56.7613 13.4722C56.6753 13.2516 56.5893 13.0819 56.4861 12.9122C56.3657 12.7765 56.2281 12.6577 56.0561 12.6068C55.8841 12.522 55.7121 12.488 55.5229 12.488C55.3337 12.488 55.1273 12.522 54.9897 12.6068C54.8177 12.6577 54.6801 12.7765 54.5597 12.9122C54.4221 13.0819 54.3361 13.2516 54.2845 13.4722C54.1985 13.6927 54.1641 13.9473 54.1641 14.2187C54.1641 14.5242 54.1985 14.7787 54.2845 14.9993C54.3361 15.2198 54.4221 15.3895 54.5597 15.5253C54.6801 15.661 54.8177 15.7798 54.9897 15.8646C55.1273 15.9494 55.3337 15.9834 55.5229 15.9834C55.7121 15.9834 55.8841 15.9494 56.0561 15.8646C56.2281 15.7798 56.3657 15.678 56.4861 15.5253C56.6065 15.3895 56.6753 15.2198 56.7613 14.9993C56.8129 14.7617 56.8473 14.5242 56.8473 14.2187ZM57.7245 14.2187C57.7245 14.5751 57.6729 14.9144 57.5869 15.2198C57.4665 15.5253 57.3289 15.7967 57.1397 16.0003C56.9677 16.2209 56.7441 16.3906 56.4689 16.5263C56.1937 16.6451 55.8841 16.696 55.5401 16.696C55.1789 16.696 54.8693 16.6451 54.6113 16.5263C54.3361 16.3906 54.0953 16.2209 53.9061 16.0003C53.7341 15.8137 53.5621 15.5253 53.4761 15.2198C53.3901 14.9144 53.3385 14.5751 53.3385 14.2187C53.3385 13.8624 53.3901 13.5231 53.4761 13.2176C53.5621 12.9462 53.7341 12.6577 53.9061 12.4371C54.0953 12.2166 54.3361 12.0469 54.6113 11.9281C54.8693 11.8093 55.1789 11.7415 55.5401 11.7415C55.8841 11.7415 56.1937 11.8263 56.4689 11.9281C56.7441 12.0469 56.9849 12.1996 57.1397 12.4371C57.3289 12.6577 57.4837 12.9462 57.5869 13.2176C57.6557 13.5231 57.7245 13.8455 57.7245 14.2187ZM61.5773 13.2685C61.5773 13.6079 61.4913 13.8794 61.3193 14.1339C61.1473 14.3545 60.8721 14.5242 60.4937 14.6429V14.6769L61.8525 16.6282H60.8721L59.6337 14.7956H59.0661V16.6112H58.2405V11.8602H59.5993C59.8573 11.8602 60.0465 11.8602 60.2529 11.8942C60.4421 11.9281 60.6141 11.979 60.7689 12.0299C61.0269 12.1487 61.2161 12.2844 61.3537 12.505C61.5257 12.6747 61.5773 12.9631 61.5773 13.2685ZM59.4961 14.0491C59.6681 14.0491 59.8401 14.0151 59.9777 14.0151C60.0981 13.9812 60.2013 13.9642 60.2873 13.9303C60.4593 13.8455 60.5625 13.7606 60.6485 13.6588C60.7001 13.54 60.7345 13.4043 60.7345 13.2685C60.7345 13.1328 60.7001 13.014 60.6485 12.9122C60.6141 12.8274 60.5281 12.7425 60.3905 12.6916C60.3045 12.6577 60.2185 12.6407 60.1153 12.6068C59.9949 12.5729 59.8401 12.5729 59.6681 12.5729H59.0833V14.0491H59.4961ZM62.2653 16.6112V11.8602H63.0909V16.6112H62.2653ZM65.6709 16.6112H64.8453V12.5729H63.3833V11.8433H67.133V12.5729H65.6709V16.6112ZM69.6442 15.4065H67.9242L67.4942 16.6112H66.6169L68.3886 11.8602H69.1454L70.917 16.6112H70.0398L69.6442 15.4065ZM68.7842 12.9971C68.6466 13.5061 68.509 13.9133 68.3542 14.2527L68.2166 14.6769H69.369L69.2314 14.2527C69.111 13.9133 68.9734 13.5061 68.8014 12.9971H68.7842ZM73.4798 15.2368C73.4798 15.118 73.4454 15.0162 73.3938 14.9314C73.3422 14.8805 73.2562 14.7956 73.1702 14.7617C73.0498 14.7108 72.9466 14.6769 72.8262 14.6429C72.7058 14.609 72.6026 14.5581 72.465 14.5242C72.293 14.4902 72.121 14.4393 71.949 14.3884C71.777 14.3375 71.6394 14.2527 71.519 14.1678C71.3986 14.0491 71.2954 13.9473 71.2438 13.7776C71.1578 13.6418 71.1234 13.4382 71.1234 13.2176C71.1234 12.9631 71.175 12.7426 71.261 12.5559C71.3126 12.3862 71.4502 12.2166 71.605 12.1147C71.7426 11.979 71.9146 11.8942 72.0866 11.8433C72.2758 11.7924 72.5166 11.7245 72.7402 11.7245C72.9982 11.7245 73.2562 11.7584 73.4798 11.8093C73.7378 11.8602 73.927 11.9281 74.099 11.996V12.7425C73.8754 12.6238 73.6518 12.5729 73.4454 12.522C73.2218 12.488 73.0154 12.4711 72.8262 12.4711C72.551 12.4711 72.3446 12.522 72.207 12.6407C72.0694 12.7256 71.9834 12.8953 71.9834 13.1158C71.9834 13.2346 72.0178 13.3025 72.0694 13.3873C72.1038 13.4722 72.1898 13.5231 72.2414 13.574C72.3274 13.6249 72.4306 13.6927 72.551 13.7097C72.637 13.7436 72.7402 13.7606 72.895 13.7945C73.0842 13.8285 73.2562 13.8794 73.4282 13.9303C73.6002 13.9812 73.7722 14.066 73.8754 14.1509C74.013 14.2696 74.1334 14.4054 74.2194 14.5751C74.3054 14.7108 74.3398 14.9314 74.3398 15.1859C74.3398 15.4404 74.2882 15.661 74.2022 15.8476C74.1162 16.0173 73.9786 16.187 73.841 16.2888C73.669 16.4245 73.4798 16.5094 73.2218 16.5603C72.9982 16.6112 72.7402 16.6451 72.465 16.6451C72.207 16.6451 71.9834 16.6112 71.7254 16.5942C71.5018 16.5433 71.2954 16.4585 71.1406 16.3736V15.6271C71.3642 15.7458 71.5878 15.8137 71.7942 15.8476C72.0178 15.8985 72.2242 15.9325 72.4478 15.9325C72.5854 15.9325 72.723 15.8985 72.8434 15.8985C72.981 15.8646 73.1014 15.8137 73.1874 15.7628C73.3078 15.7119 73.3594 15.644 73.4454 15.5422C73.4626 15.4913 73.4798 15.3895 73.4798 15.2368Z" fill="#626261"/>
<defs>
<radialGradient id="paint0_radial_1_7230" cx="0" cy="0" r="1" gradientUnits="userSpaceOnUse" gradientTransform="translate(16.9928 23.5307) scale(39.835 39.2967)">
<stop stop-color="#CA1517"/>
<stop offset="0.2784" stop-color="#A61916"/>
<stop offset="1" stop-color="#801710"/>
</radialGradient>
<linearGradient id="paint1_linear_1_7230" x1="6.8031" y1="14.0506" x2="27.1492" y2="-2.29418" gradientUnits="userSpaceOnUse">
<stop stop-color="#CE1420"/>
<stop offset="0.4196" stop-color="#F29376"/>
<stop offset="0.7608" stop-color="#B4191B"/>
<stop offset="0.9882" stop-color="#F29379"/>
<stop offset="1" stop-color="white"/>
</linearGradient>
<linearGradient id="paint2_linear_1_7230" x1="13.8842" y1="18.8591" x2="31.2367" y2="-1.28765" gradientUnits="userSpaceOnUse">
<stop stop-color="#CBCBCD"/>
<stop offset="0.0117647" stop-color="#CBCBCD"/>
<stop offset="0.349" stop-color="white"/>
<stop offset="0.6392" stop-color="#BFC0C4"/>
<stop offset="0.949" stop-color="white"/>
<stop offset="1" stop-color="white"/>
</linearGradient>
</defs>
</svg>
