<svg width="21" height="16" viewBox="0 0 21 16" fill="none" xmlns="http://www.w3.org/2000/svg">
<path d="M20.5611 2.54937C20.3196 1.74312 19.6077 1.1075 18.7047 0.891875C17.0667 0.5 10.5 0.5 10.5 0.5C10.5 0.5 3.9333 0.5 2.2953 0.891875C1.3923 1.1075 0.6804 1.74312 0.4389 2.54937C0 4.01187 0 8 0 8C0 8 0 11.9881 0.4389 13.4506C0.6804 14.2569 1.3923 14.8925 2.2953 15.1081C3.9333 15.5 10.5 15.5 10.5 15.5C10.5 15.5 17.0667 15.5 18.7047 15.1081C19.6088 14.8925 20.3196 14.2569 20.5611 13.4506C21 11.9881 21 8 21 8C21 8 21 4.01187 20.5611 2.54937ZM8.4 10.4356V5.56437C8.4 5.20344 8.83785 4.97844 9.1875 5.15844L13.9125 7.59406C14.2622 7.77406 14.2622 8.22594 13.9125 8.40594L9.1875 10.8416C8.83785 11.0225 8.4 10.7966 8.4 10.4356Z" fill="#5C250B"/>
</svg>
