<svg width="47" height="47" viewBox="0 0 47 47" fill="none" xmlns="http://www.w3.org/2000/svg">
<g id="Group">
<path id="Vector" d="M46.7949 23.3975C46.7949 10.5055 36.2895 0 23.3975 0C10.5055 0 0 10.5055 0 23.3975C0 30.1827 2.92468 36.2895 7.55738 40.5712C7.55738 40.5946 7.55738 40.5946 7.53398 40.618C7.76796 40.852 8.04873 41.0391 8.2827 41.2497C8.42309 41.3667 8.54007 41.4837 8.68046 41.5773C9.10161 41.9282 9.56956 42.2558 10.0141 42.5834C10.1779 42.7004 10.3183 42.794 10.4821 42.9109C10.9266 43.2151 11.3946 43.4959 11.8859 43.7533C12.0497 43.8468 12.2369 43.9638 12.4007 44.0574C12.8686 44.3148 13.3599 44.5488 13.8747 44.7593C14.0619 44.8529 14.2491 44.9465 14.4362 45.0167C14.951 45.2273 15.4657 45.4145 15.9805 45.5783C16.1676 45.6484 16.3548 45.7186 16.542 45.7654C17.1035 45.9292 17.6651 46.0696 18.2266 46.21C18.3904 46.2568 18.5542 46.3036 18.7414 46.327C19.3965 46.4674 20.0516 46.5609 20.7301 46.6311C20.8237 46.6311 20.9173 46.6545 21.0109 46.6779C21.8064 46.7481 22.6019 46.7949 23.3975 46.7949C24.193 46.7949 24.9885 46.7481 25.7606 46.6779C25.8542 46.6779 25.9478 46.6545 26.0414 46.6311C26.7199 46.5609 27.375 46.4674 28.0302 46.327C28.1939 46.3036 28.3577 46.2334 28.5449 46.21C29.1064 46.0696 29.6914 45.9526 30.2295 45.7654C30.4167 45.6952 30.6039 45.625 30.7911 45.5783C31.3058 45.3911 31.8439 45.2273 32.3353 45.0167C32.5225 44.9465 32.7096 44.8529 32.8968 44.7593C33.3882 44.5488 33.8795 44.3148 34.3709 44.0574C34.558 43.9638 34.7218 43.8468 34.8856 43.7533C35.3536 43.4725 35.8215 43.2151 36.2895 42.9109C36.4532 42.8174 36.5936 42.7004 36.7574 42.5834C37.2254 42.2558 37.6699 41.9282 38.0911 41.5773C38.2315 41.4603 38.3484 41.3433 38.4888 41.2497C38.7462 41.0391 39.0036 40.8286 39.2375 40.618C39.2375 40.5946 39.2375 40.5946 39.2141 40.5712C43.8702 36.2895 46.7949 30.1827 46.7949 23.3975ZM34.9558 35.026C28.6151 30.7677 18.2266 30.7677 11.8391 35.026C10.8096 35.7045 9.96732 36.5 9.26539 37.3657C5.70898 33.7625 3.50962 28.8257 3.50962 23.3975C3.50962 12.4241 12.4241 3.50962 23.3975 3.50962C34.3709 3.50962 43.2853 12.4241 43.2853 23.3975C43.2853 28.8257 41.0859 33.7625 37.5295 37.3657C36.851 36.5 35.9853 35.7045 34.9558 35.026Z" fill="#42A5DC"/>
<path id="Vector_2" d="M23.3951 11.5332C18.5519 11.5332 14.6211 15.464 14.6211 20.3073C14.6211 25.057 18.3413 28.9175 23.2782 29.0579H23.4887H23.6525H23.6993C28.4256 28.8941 32.1458 25.057 32.1692 20.3073C32.1692 15.464 28.2384 11.5332 23.3951 11.5332Z" fill="#42A5DC"/>
</g>
</svg>
