<svg width="334" height="50" viewBox="0 0 334 50" fill="none" xmlns="http://www.w3.org/2000/svg">
<g clip-path="url(#clip0_148_3665)">
<path d="M40.5835 13.2607C40.7986 13.2607 41.1794 13.4379 41.6984 14.0079C44.4009 16.9548 47.4328 19.2839 49.9836 20.6924C50.3517 20.8918 50.5531 21.0451 50.5531 21.2385C50.5531 21.3858 50.5323 21.5293 50.2148 21.5293C49.6397 21.5293 46.4242 20.8918 45.5732 20.4952C44.7184 20.087 42.8813 18.5905 40.6898 14.7948C40.4415 14.3665 40.1797 13.998 40.1797 13.653C40.1797 13.3106 40.487 13.2607 40.5835 13.2607Z" fill="#6C99D7"/>
<path d="M47.8641 2.40817C47.8641 2.40817 48.3976 3.46619 43.2026 4.20228C43.7679 2.59134 44.1432 1.52947 44.1432 1.52947C44.4731 0.561111 43.7284 7.66377e-05 43.1928 7.66377e-05C42.6564 7.66377e-05 42.2653 0.414661 42.0405 0.937695L40.4971 4.48621C38.4717 4.62199 36.9721 4.54684 36.2916 4.48237C35.3518 4.39057 35.1066 4.91062 35.1066 5.44561C35.1066 6.37895 36.746 7.32597 37.7933 7.22179C38.4509 7.1603 38.833 7.1334 39.3724 7.07576L33.6278 20.2635C33.4076 20.7558 33.2312 21.5508 34.2161 21.5508C35.2039 21.5508 37.4214 20.646 37.7933 19.5961C37.9481 19.1555 39.0927 15.896 40.3683 12.2677C41.0008 12.1421 43.319 11.7873 43.9643 11.7873C44.5763 11.7873 44.8917 12.0602 44.8917 12.3851C44.8917 13.1464 43.0768 15.3282 39.5607 18.0121C39.1777 18.3088 39.4961 18.5398 39.6916 18.5398C40.2353 18.5398 42.6589 16.8742 43.8584 15.9618C45.1795 14.9614 47.4752 12.3612 47.4752 10.5282C47.4752 9.81134 47.1577 9.15167 45.7189 9.15167C44.3256 9.15167 41.856 9.46165 41.3323 9.52954C41.6715 8.55221 42.0107 7.59837 42.3261 6.70473C45.0435 6.32644 46.6621 6.07837 47.618 5.88111C48.9315 5.60188 49.9894 4.84102 49.9894 4.05796C49.9894 2.39408 47.8641 2.40817 47.8641 2.40817Z" fill="#5C250B"/>
<path d="M1.65431 10.6625H0V9.02043H1.65431V6.83351H3.8918V9.02043H6.00729V10.6625H3.8918V14.6833C3.8918 15.4224 4.08987 16.1081 4.94126 16.1081C5.34378 16.1081 5.72548 16.0265 5.95671 15.8788L6.02812 17.6503C5.55589 17.7937 5.04412 17.8535 4.37466 17.8535C2.62004 17.8535 1.65431 16.7618 1.65431 15.0522V10.6625Z" fill="#5C250B"/>
<path d="M7.71191 9.02054H9.69564V10.9837H9.73135C9.83038 10.1742 10.7477 8.81603 12.0819 8.81603C12.2983 8.81603 12.532 8.81603 12.7654 8.88776V11.149C12.5656 11.0354 12.1661 10.9658 11.7644 10.9658C9.94727 10.9658 9.94727 13.2454 9.94727 14.4823V17.6504H7.71191L7.71191 9.02054Z" fill="#5C250B"/>
<path d="M22.0462 17.6522H19.9234V16.4845H19.8899C19.2093 17.3213 18.2415 17.8555 17.073 17.8555C15.0379 17.8555 14.1533 16.4149 14.1533 14.4662V9.02239H16.3827V13.6294C16.3827 14.6852 16.4048 16.11 17.8407 16.11C19.4576 16.11 19.8104 14.3505 19.8104 13.2468V9.02239H22.0462V17.6522Z" fill="#5C250B"/>
<path d="M29.4088 12.4915C29.339 11.4036 28.8392 10.4634 27.5908 10.4634C26.3369 10.4634 25.7044 11.3357 25.6041 12.4915H29.4088ZM30.9084 17.1659C30.091 17.6181 29.1576 17.8555 27.9546 17.8555C25.1221 17.8555 23.4678 16.2138 23.4678 13.3843C23.4678 10.8835 24.7867 8.81787 27.4569 8.81787C30.6444 8.81787 31.5451 11.0133 31.5451 14.0358H25.6041C25.7044 15.4243 26.6706 16.2138 28.055 16.2138C29.1448 16.2138 30.0752 15.8112 30.9084 15.3406V17.1659Z" fill="#5C250B"/>
<path d="M49.042 9.15219H51.0287V11.1103H51.0623C51.1605 10.305 52.079 8.94511 53.4158 8.94511C53.6309 8.94511 53.8642 8.94511 54.0972 9.01172V11.2776C53.9008 11.1602 53.4991 11.0945 53.0974 11.0945C51.2774 11.0945 51.2774 13.3719 51.2774 14.6093V17.7773H49.042V9.15219Z" fill="#5C250B"/>
<path d="M55.3965 9.15213H57.6348V17.7773H55.3965V9.15213ZM55.3965 5.55664H57.6348V7.70172H55.3965V5.55664Z" fill="#5C250B"/>
<path d="M64.9817 12.6184C64.9154 11.5246 64.4151 10.5904 63.1637 10.5904C61.9081 10.5904 61.2774 11.4609 61.1804 12.6184H64.9817ZM66.4813 17.2929C65.6652 17.7472 64.7339 17.9824 63.5306 17.9824C60.6955 17.9824 59.042 16.3382 59.042 13.5053C59.042 11.0066 60.3571 8.94482 63.0307 8.94482C66.2165 8.94482 67.1142 11.1399 67.1142 14.1606H61.1804C61.2774 15.5534 62.2435 16.3382 63.6309 16.3382C64.7131 16.3382 65.6512 15.9381 66.4813 15.4676V17.2929Z" fill="#5C250B"/>
<path d="M68.4414 9.22946H70.5637V10.4002H70.5935C71.2978 9.40964 72.249 9.02239 73.4141 9.02239C75.4535 9.02239 76.3338 10.4651 76.3338 12.4099V17.8555H74.1006V13.2468C74.1006 12.1909 74.0827 10.7661 72.6486 10.7661C71.0338 10.7661 70.6789 12.5235 70.6789 13.6353V17.8555H68.4414V9.22946Z" fill="#5C250B"/>
<path d="M81.9124 16.237C83.4018 16.237 83.8881 14.6649 83.8881 13.4374C83.8881 12.2299 83.3168 10.6877 81.8806 10.6877C80.4337 10.6877 80.0341 12.282 80.0341 13.4374C80.0341 14.6312 80.4464 16.237 81.9124 16.237ZM83.9693 16.8087H83.9357C83.2671 17.6455 82.3507 17.9824 81.3016 17.9824C78.6616 17.9824 77.6934 15.8006 77.6934 13.4374C77.6934 11.0566 78.6616 8.94482 81.3016 8.94482C82.4183 8.94482 83.2016 9.33251 83.8702 10.1531H83.9043V5.20716H86.1375V17.7771H83.9693V16.8087Z" fill="#5C250B"/>
<path d="M95.7246 6.96925H100.449V16.3352H100.543C101.012 15.5176 101.513 14.7635 101.982 14.0095L106.769 6.96925H112.621L105.643 15.9893L112.996 28.1523H107.426L102.264 19.0067L100.449 21.2376V28.1523H95.7246V6.96925Z" fill="#231F20"/>
<path d="M117.969 20.4523C117.969 23.0922 119.064 25.0721 121.097 25.0721C122.944 25.0721 124.132 23.2178 124.132 20.4523C124.132 18.1578 123.257 15.8321 121.097 15.8321C118.814 15.8321 117.969 18.1894 117.969 20.4523ZM129.045 20.2952C129.045 25.9205 125.071 28.498 120.973 28.498C116.498 28.498 113.057 25.5439 113.057 20.5778C113.057 15.6126 116.311 12.4377 121.223 12.4377C125.916 12.4377 129.045 15.6754 129.045 20.2952Z" fill="#231F20"/>
<path d="M131.671 17.8432C131.671 15.5803 131.609 14.1034 131.546 12.7833H135.645L135.801 15.6119H135.926C136.709 13.3806 138.586 12.4374 140.056 12.4374C140.494 12.4374 140.713 12.4374 141.058 12.5002V17.026C140.713 16.9321 140.307 16.8689 139.775 16.8689C138.022 16.8689 136.834 17.8116 136.521 19.2894C136.458 19.6032 136.427 19.9806 136.427 20.3576V28.1523H131.671V17.8432Z" fill="#231F20"/>
<path d="M152.257 18.7235C152.257 17.5604 151.757 15.6122 149.566 15.6122C147.564 15.6122 146.751 17.4345 146.626 18.7235H152.257ZM146.657 21.9919C146.813 23.9718 148.753 24.9141 150.975 24.9141C152.602 24.9141 153.915 24.6946 155.198 24.2864L155.824 27.5233C154.26 28.1522 152.352 28.498 150.287 28.498C145.093 28.498 142.12 25.4491 142.12 20.6406C142.12 16.7432 144.529 12.4377 149.848 12.4377C154.792 12.4377 156.669 16.3039 156.669 20.1064C156.669 20.9232 156.575 21.6465 156.512 21.9919H146.657Z" fill="#231F20"/>
<path d="M167.336 20.8921C164.834 20.8609 162.894 21.4582 162.894 23.3125C162.894 24.5379 163.707 25.1357 164.771 25.1357C165.96 25.1357 166.93 24.3501 167.242 23.3753C167.305 23.1234 167.336 22.8403 167.336 22.5577V20.8921ZM171.967 24.4124C171.967 25.8889 172.03 27.3038 172.186 28.1526H167.9L167.618 26.6121H167.524C166.523 27.8375 164.959 28.498 163.144 28.498C160.046 28.498 158.2 26.2356 158.2 23.7839C158.2 19.7922 161.767 17.8751 167.18 17.9063V17.6868C167.18 16.8692 166.742 15.7066 164.395 15.7066C162.831 15.7066 161.173 16.2407 160.172 16.8692L159.296 13.7895C160.359 13.1922 162.455 12.4381 165.24 12.4381C170.34 12.4381 171.967 15.4551 171.967 19.0693V24.4124Z" fill="#231F20"/>
<path d="M186.358 28.1518H181.57V6.96875H186.358V28.1518Z" fill="#231F20"/>
<path d="M190.111 17.6865C190.111 15.769 190.048 14.135 189.985 12.7837H194.116L194.334 14.8891H194.429C195.054 13.9151 196.619 12.4378 199.152 12.4378C202.282 12.4378 204.628 14.512 204.628 19.0379V28.1523H199.872V19.6352C199.872 17.6554 199.184 16.304 197.464 16.304C196.149 16.304 195.367 17.2147 195.054 18.0951C194.929 18.4094 194.866 18.8492 194.866 19.2894V28.1523H190.111V17.6865Z" fill="#231F20"/>
<path d="M211.071 12.7833L213.135 19.9174C213.512 21.206 213.793 22.4318 214.012 23.6577H214.106C214.356 22.4007 214.607 21.2376 214.951 19.9174L216.922 12.7833H221.929L216.234 28.1523H211.478L205.909 12.7833H211.071Z" fill="#231F20"/>
<path d="M232.596 18.7235C232.596 17.5604 232.094 15.6122 229.905 15.6122C227.902 15.6122 227.089 17.4345 226.964 18.7235H232.596ZM226.995 21.9919C227.151 23.9718 229.091 24.9141 231.313 24.9141C232.94 24.9141 234.254 24.6946 235.536 24.2864L236.163 27.5233C234.598 28.1522 232.689 28.498 230.625 28.498C225.431 28.498 222.458 25.4491 222.458 20.6406C222.458 16.7432 224.867 12.4377 230.186 12.4377C235.129 12.4377 237.008 16.3039 237.008 20.1064C237.008 20.9232 236.912 21.6465 236.851 21.9919H226.995Z" fill="#231F20"/>
<path d="M239.51 23.9718C240.386 24.5059 242.201 25.1357 243.608 25.1357C245.048 25.1357 245.642 24.6323 245.642 23.8462C245.642 23.0611 245.173 22.6836 243.39 22.0863C240.23 21.018 239.009 19.2892 239.04 17.4977C239.04 14.6063 241.482 12.4377 245.266 12.4377C247.049 12.4377 248.646 12.8459 249.584 13.3177L248.74 16.6177C248.051 16.2403 246.737 15.7377 245.423 15.7377C244.266 15.7377 243.608 16.2087 243.608 16.9951C243.608 17.718 244.203 18.0946 246.079 18.7547C248.99 19.7606 250.21 21.2375 250.241 23.5004C250.241 26.3607 247.989 28.498 243.608 28.498C241.607 28.498 239.823 28.0267 238.665 27.3978L239.51 23.9718Z" fill="#231F20"/>
<path d="M258.124 8.60354V12.7835H261.535V16.3039H258.124V21.866C258.124 23.7207 258.563 24.57 260.002 24.57C260.659 24.57 260.941 24.5375 261.409 24.444L261.441 28.0583C260.816 28.3093 259.689 28.498 258.344 28.498C256.811 28.498 255.528 27.9323 254.777 27.1458C253.901 26.2351 253.463 24.7578 253.463 22.5888V16.3039H251.43V12.7835H253.463V9.89213L258.124 8.60354Z" fill="#231F20"/>
<path d="M263.974 17.6865C263.974 15.769 263.912 14.135 263.849 12.7837H267.853L268.073 14.8579H268.167C268.823 13.8836 270.168 12.4378 272.797 12.4378C274.768 12.4378 276.333 13.4433 276.99 15.0462H277.053C277.616 14.229 278.304 13.6321 279.023 13.1919C279.869 12.6893 280.807 12.4378 281.933 12.4378C284.875 12.4378 287.096 14.512 287.096 19.1011V28.1523H282.465V19.7923C282.465 17.5606 281.746 16.2724 280.212 16.2724C279.117 16.2724 278.335 17.0265 278.022 17.938C277.897 18.2839 277.835 18.7864 277.835 19.1634V28.1523H273.203V19.5404C273.203 17.5918 272.515 16.2724 271.013 16.2724C269.793 16.2724 269.073 17.2147 268.792 18.0008C268.636 18.3782 268.605 18.8176 268.605 19.195V28.1523H263.974V17.6865Z" fill="#231F20"/>
<path d="M299.827 18.7235C299.827 17.5604 299.326 15.6122 297.135 15.6122C295.133 15.6122 294.32 17.4345 294.195 18.7235H299.827ZM294.226 21.9919C294.382 23.9718 296.322 24.9141 298.543 24.9141C300.17 24.9141 301.485 24.6946 302.767 24.2864L303.394 27.5233C301.828 28.1522 299.92 28.498 297.855 28.498C292.662 28.498 289.688 25.4491 289.688 20.6406C289.688 16.7432 292.099 12.4377 297.417 12.4377C302.361 12.4377 304.238 16.3039 304.238 20.1064C304.238 20.9232 304.144 21.6465 304.082 21.9919H294.226Z" fill="#231F20"/>
<path d="M306.771 17.6865C306.771 15.769 306.709 14.135 306.646 12.7837H310.776L310.994 14.8891H311.09C311.714 13.9151 313.28 12.4378 315.813 12.4378C318.943 12.4378 321.289 14.512 321.289 19.0379V28.1523H316.533V19.6352C316.533 17.6554 315.844 16.304 314.124 16.304C312.809 16.304 312.028 17.2147 311.714 18.0951C311.589 18.4094 311.527 18.8492 311.527 19.2894V28.1523H306.771V17.6865Z" fill="#231F20"/>
<path d="M329.923 8.60354V12.7835H333.334V16.3039H329.923V21.866C329.923 23.7207 330.36 24.57 331.8 24.57C332.457 24.57 332.739 24.5375 333.209 24.444L333.239 28.0583C332.614 28.3093 331.487 28.498 330.142 28.498C328.609 28.498 327.325 27.9323 326.576 27.1458C325.699 26.2351 325.261 24.7578 325.261 22.5888V16.3039H323.228V12.7835H325.261V9.89213L329.923 8.60354Z" fill="#231F20"/>
<path d="M98.5273 38.5248C97.5394 38.5248 97.0188 39.3557 97.0188 40.2946C97.0188 41.1592 97.4141 41.8266 97.9347 42.476C99.1559 41.7728 99.9465 41.1234 99.9465 40.0952C99.9465 39.3557 99.5334 38.5248 98.5456 38.5248H98.5273ZM98.2225 48.8092C99.2456 48.8092 100.126 48.34 100.701 47.7085C99.9822 46.9152 98.6352 45.4353 97.2878 43.8841C96.6413 44.2991 95.7253 45.0745 95.7253 46.3558C95.7253 47.7443 96.7493 48.8092 98.2038 48.8092H98.2225ZM102.605 49.8015C102.264 49.4586 101.94 49.1162 101.473 48.6111C100.431 49.5854 99.2635 50 97.9347 50C95.5816 50 94.2168 48.4117 94.2168 46.5907C94.2168 44.9311 95.205 43.7932 96.5877 43.0357V42.982C95.9591 42.1882 95.5816 41.3048 95.5816 40.4377C95.5816 38.9595 96.6413 37.4429 98.6531 37.4429C100.162 37.4429 101.329 38.4531 101.329 40.0235C101.329 41.3048 100.593 42.3146 98.6709 43.271V43.3248C99.6953 44.5152 100.845 45.8503 101.617 46.7166C102.174 45.8682 102.55 44.6958 102.784 43.1626H104.221C103.898 45.0745 103.377 46.5907 102.479 47.6547C103.125 48.34 103.754 49.0257 104.473 49.8015H102.605Z" fill="#231F20"/>
<path d="M109.124 47.8899C109.824 48.3224 110.848 48.6828 111.926 48.6828C113.524 48.6828 114.458 47.8353 114.458 46.6086C114.458 45.472 113.811 44.8222 112.177 44.1911C110.201 43.4866 108.98 42.4581 108.98 40.7451C108.98 38.8498 110.543 37.4429 112.896 37.4429C114.135 37.4429 115.033 37.732 115.572 38.039L115.14 39.3203C114.745 39.103 113.938 38.7422 112.842 38.7422C111.189 38.7422 110.561 39.7344 110.561 40.5645C110.561 41.7015 111.297 42.2608 112.968 42.9098C115.015 43.7035 116.056 44.6962 116.056 46.4822C116.056 48.3583 114.674 50 111.818 50C110.651 50 109.375 49.6396 108.729 49.2071L109.124 47.8899Z" fill="#231F20"/>
<path d="M123.581 44.5882C123.599 43.578 123.168 42.0076 121.39 42.0076C119.792 42.0076 119.091 43.4862 118.966 44.5882H123.581ZM118.948 45.7239C118.984 47.8716 120.349 48.7545 121.929 48.7545C123.061 48.7545 123.743 48.5573 124.335 48.3041L124.605 49.4407C124.048 49.693 123.096 50 121.713 50C119.038 50 117.438 48.2144 117.438 45.5805C117.438 42.9461 118.984 40.871 121.516 40.871C124.354 40.871 125.108 43.3786 125.108 44.9849C125.108 45.3093 125.072 45.5625 125.054 45.7239H118.948Z" fill="#231F20"/>
<path d="M128.449 45.0738H128.485C128.701 44.7668 129.006 44.3886 129.258 44.0816L131.808 41.0689H133.712L130.353 44.6593L134.179 49.8008H132.257L129.258 45.6161L128.449 46.5174V49.8008H126.887V36.9918H128.449V45.0738Z" fill="#231F20"/>
<path d="M142.477 47.4194C142.477 48.322 142.495 49.1162 142.548 49.8015H141.147L141.058 48.3758H141.022C140.609 49.0795 139.693 50 138.148 50C136.783 50 135.148 49.243 135.148 46.1752V41.0696H136.729V45.9054C136.729 47.565 137.232 48.6828 138.669 48.6828C139.728 48.6828 140.465 47.9437 140.752 47.2401C140.842 47.0048 140.896 46.7166 140.896 46.4276V41.0696H142.477V47.4194Z" fill="#231F20"/>
<path d="M144.919 43.7925C144.919 42.7644 144.901 41.8806 144.847 41.0689H146.23L146.284 42.7823H146.355C146.75 41.6111 147.703 40.8704 148.762 40.8704C148.942 40.8704 149.067 40.8883 149.211 40.9241V42.4215C149.049 42.3857 148.888 42.3681 148.673 42.3681C147.559 42.3681 146.768 43.2157 146.553 44.4061C146.517 44.6234 146.481 44.8753 146.481 45.1464V49.8008H144.919V43.7925Z" fill="#231F20"/>
<path d="M150.684 41.0695H152.264V49.8014H150.684V41.0695ZM152.444 38.6157C152.462 39.1563 152.067 39.5897 151.438 39.5897C150.881 39.5897 150.486 39.1563 150.486 38.6157C150.486 38.0564 150.899 37.623 151.474 37.623C152.067 37.623 152.444 38.0564 152.444 38.6157Z" fill="#231F20"/>
<path d="M156.61 38.9774V41.0696H158.873V42.2787H156.61V46.9873C156.61 48.0693 156.916 48.6828 157.796 48.6828C158.227 48.6828 158.479 48.6469 158.712 48.5752L158.784 49.766C158.479 49.8924 157.993 50 157.383 50C156.647 50 156.054 49.7472 155.677 49.3147C155.227 48.8455 155.066 48.0693 155.066 47.0411V42.2787H153.719V41.0696H155.066V39.4637L156.61 38.9774Z" fill="#231F20"/>
<path d="M165.052 45.3456C163.328 45.3098 161.37 45.6168 161.37 47.3118C161.37 48.3404 162.053 48.8271 162.861 48.8271C163.993 48.8271 164.711 48.1051 164.963 47.3656C165.016 47.2038 165.052 47.0236 165.052 46.8609V45.3456ZM166.579 47.7085C166.579 48.4672 166.615 49.2071 166.723 49.8019H165.286L165.16 48.7007H165.106C164.621 49.3864 163.687 50 162.448 50C160.688 50 159.79 48.7545 159.79 47.4924C159.79 45.3815 161.657 44.2266 165.016 44.2458V44.0643C165.016 43.3432 164.819 42.0439 163.04 42.0439C162.232 42.0439 161.388 42.2967 160.777 42.6933L160.418 41.6473C161.137 41.1772 162.178 40.8715 163.274 40.8715C165.932 40.8715 166.579 42.6933 166.579 44.443V47.7085Z" fill="#231F20"/>
<path d="M168.734 48.1777C169.201 48.4847 170.027 48.8092 170.817 48.8092C171.966 48.8092 172.506 48.2324 172.506 47.5104C172.506 46.7516 172.056 46.3375 170.889 45.9054C169.327 45.3452 168.59 44.4785 168.59 43.4324C168.59 42.0255 169.722 40.871 171.59 40.871C172.47 40.871 173.242 41.1234 173.727 41.412L173.331 42.5665C172.99 42.3505 172.362 42.0618 171.554 42.0618C170.62 42.0618 170.099 42.6032 170.099 43.2531C170.099 43.9742 170.62 44.2991 171.751 44.7317C173.26 45.3093 174.032 46.0668 174.032 47.3656C174.032 48.8997 172.847 50 170.781 50C169.83 50 168.949 49.7468 168.339 49.386L168.734 48.1777Z" fill="#231F20"/>
<path d="M181.127 49.8022H179.563V37.6426H181.127V49.8022Z" fill="#231F20"/>
<path d="M183.802 43.4317C183.802 42.5304 183.784 41.7896 183.73 41.0689H185.131L185.22 42.5125H185.257C185.688 41.6824 186.694 40.8704 188.13 40.8704C189.334 40.8704 191.202 41.5915 191.202 44.5875V49.8008H189.622V44.7668C189.622 43.36 189.1 42.1875 187.61 42.1875C186.568 42.1875 185.76 42.9275 185.49 43.8104C185.419 44.0098 185.383 44.2805 185.383 44.5504V49.8008H183.802V43.4317Z" fill="#231F20"/>
<path d="M199.518 44.6241C199.518 44.4247 199.5 44.1544 199.445 43.9567C199.212 42.9461 198.35 42.1152 197.164 42.1152C195.531 42.1152 194.561 43.5592 194.561 45.4895C194.561 47.258 195.423 48.7187 197.128 48.7187C198.189 48.7187 199.158 48.015 199.445 46.8247C199.5 46.6082 199.518 46.3917 199.518 46.1394V44.6241ZM201.098 36.9925V47.5471C201.098 48.322 201.117 49.2067 201.17 49.8015H199.751L199.68 48.2862H199.644C199.158 49.2605 198.098 50 196.68 50C194.579 50 192.962 48.2144 192.962 45.5625C192.944 42.6575 194.74 40.871 196.86 40.871C198.189 40.871 199.086 41.5021 199.482 42.2062H199.518V36.9925H201.098Z" fill="#231F20"/>
<path d="M204.511 45.4532C204.511 47.3656 205.606 48.8092 207.151 48.8092C208.659 48.8092 209.792 47.3835 209.792 45.4174C209.792 43.9388 209.054 42.0623 207.187 42.0623C205.318 42.0623 204.511 43.7932 204.511 45.4532ZM211.408 45.3636C211.408 48.5931 209.18 50 207.079 50C204.725 50 202.912 48.2687 202.912 45.5079C202.912 42.5849 204.817 40.8715 207.223 40.8715C209.719 40.8715 211.408 42.6933 211.408 45.3636Z" fill="#231F20"/>
<path d="M213.221 43.4317C213.221 42.5304 213.203 41.7896 213.149 41.0689H214.55L214.64 42.5125H214.677C215.107 41.6824 216.113 40.8704 217.55 40.8704C218.753 40.8704 220.621 41.5915 220.621 44.5875V49.8008H219.04V44.7668C219.04 43.36 218.519 42.1875 217.029 42.1875C215.988 42.1875 215.178 42.9275 214.91 43.8104C214.837 44.0098 214.802 44.2805 214.802 44.5504V49.8008H213.221V43.4317Z" fill="#231F20"/>
<path d="M228.524 44.5882C228.542 43.578 228.11 42.0076 226.333 42.0076C224.734 42.0076 224.034 43.4862 223.908 44.5882H228.524ZM223.89 45.7239C223.926 47.8716 225.292 48.7545 226.871 48.7545C228.003 48.7545 228.685 48.5573 229.278 48.3041L229.548 49.4407C228.991 49.693 228.039 50 226.656 50C223.98 50 222.382 48.2144 222.382 45.5805C222.382 42.9461 223.926 40.871 226.458 40.871C229.296 40.871 230.05 43.3786 230.05 44.9849C230.05 45.3093 230.015 45.5625 229.997 45.7239H223.89Z" fill="#231F20"/>
<path d="M231.613 48.1777C232.079 48.4847 232.906 48.8092 233.695 48.8092C234.846 48.8092 235.383 48.2324 235.383 47.5104C235.383 46.7516 234.935 46.3375 233.768 45.9054C232.206 45.3452 231.469 44.4785 231.469 43.4324C231.469 42.0255 232.6 40.871 234.468 40.871C235.348 40.871 236.12 41.1234 236.605 41.412L236.21 42.5665C235.87 42.3505 235.24 42.0618 234.432 42.0618C233.498 42.0618 232.977 42.6032 232.977 43.2531C232.977 43.9742 233.498 44.2991 234.63 44.7317C236.138 45.3093 236.911 46.0668 236.911 47.3656C236.911 48.8997 235.725 50 233.659 50C232.707 50 231.828 49.7468 231.218 49.386L231.613 48.1777Z" fill="#231F20"/>
<path d="M238.761 41.0695H240.341V49.8014H238.761V41.0695ZM240.521 38.6157C240.539 39.1563 240.145 39.5897 239.516 39.5897C238.958 39.5897 238.563 39.1563 238.563 38.6157C238.563 38.0564 238.976 37.623 239.551 37.623C240.145 37.623 240.521 38.0564 240.521 38.6157Z" fill="#231F20"/>
<path d="M247.364 45.3456C245.639 45.3098 243.682 45.6168 243.682 47.3118C243.682 48.3404 244.364 48.8271 245.173 48.8271C246.304 48.8271 247.023 48.1051 247.274 47.3656C247.328 47.2038 247.364 47.0236 247.364 46.8609V45.3456ZM248.89 47.7085C248.89 48.4672 248.926 49.2071 249.035 49.8019H247.598L247.471 48.7007H247.418C246.931 49.3864 245.998 50 244.76 50C242.999 50 242.102 48.7545 242.102 47.4924C242.102 45.3815 243.968 44.2266 247.328 44.2458V44.0643C247.328 43.3432 247.13 42.0439 245.352 42.0439C244.543 42.0439 243.7 42.2967 243.089 42.6933L242.73 41.6473C243.449 41.1772 244.49 40.8715 245.585 40.8715C248.243 40.8715 248.89 42.6933 248.89 44.443V47.7085Z" fill="#231F20"/>
</g>
<defs>
<clipPath id="clip0_148_3665">
<rect width="333.333" height="50" fill="white"/>
</clipPath>
</defs>
</svg>
