<svg width="29" height="23" viewBox="0 0 29 23" fill="none" xmlns="http://www.w3.org/2000/svg">
<path fill-rule="evenodd" clip-rule="evenodd" d="M0 0.854054C0 0.382374 0.382374 0 0.854054 0H9.64803C9.8519 0 10.049 0.0729361 10.2038 0.205613L14.7061 4.06466C14.8608 4.19733 15.058 4.27027 15.2619 4.27027H27.6144C28.0861 4.27027 28.4685 4.65264 28.4685 5.12432V21.9522C28.4685 22.4065 28.1002 22.7748 27.6459 22.7748H0.854054C0.382374 22.7748 0 22.3924 0 21.9207V0.854054ZM15.9028 14.2097V10.3691C15.9028 9.79144 16.3613 9.32311 16.9269 9.32311H23.3785C23.9441 9.32311 24.4026 9.79144 24.4026 10.3691V15.4968C24.4026 15.8249 24.0554 16.0326 23.7722 15.874L19.7754 13.6365C19.3394 13.3924 18.8119 13.3857 18.3701 13.6186L16.5239 14.592C16.241 14.7411 15.9028 14.533 15.9028 14.2097ZM15.9028 17.285V18.1478C15.9028 18.7255 16.3613 19.1939 16.9269 19.1939H23.3785C23.9441 19.1939 24.4026 18.7255 24.4026 18.1478C24.4026 18.0187 24.3334 17.8999 24.222 17.8375L19.576 15.2365C19.2646 15.0622 18.8878 15.0574 18.5722 15.2238L16.4751 16.3294C16.1234 16.5148 15.9028 16.8832 15.9028 17.285Z" fill="#1E1E1E"/>
</svg>
