<svg width="10" height="11" viewBox="0 0 10 11" fill="none" xmlns="http://www.w3.org/2000/svg">
<path fill-rule="evenodd" clip-rule="evenodd" d="M0.491614 0.991614C0.930954 0.552274 1.64326 0.552274 2.0826 0.991614L4.99976 3.90877L7.91691 0.991614C8.35625 0.552274 9.06856 0.552274 9.5079 0.991614C9.94724 1.43095 9.94724 2.14326 9.5079 2.5826L6.59075 5.49976L9.50723 8.41624C9.94657 8.85558 9.94657 9.56789 9.50723 10.0072C9.06789 10.4466 8.35558 10.4466 7.91624 10.0072L4.99976 7.09075L2.08328 10.0072C1.64394 10.4466 0.931626 10.4466 0.492286 10.0072C0.0529463 9.56789 0.0529463 8.85558 0.492286 8.41624L3.40877 5.49976L0.491614 2.5826C0.0522744 2.14326 0.0522744 1.43095 0.491614 0.991614Z" fill="#DC4B42"/>
</svg>
