<svg width="22" height="12" viewBox="0 0 22 12" fill="none" xmlns="http://www.w3.org/2000/svg">
<mask id="path-1-inside-1_148_5578" fill="white">
<path d="M11 12C10.1116 12 9.22323 11.6231 8.5506 10.8834L0.276032 1.78308C-0.0920105 1.37831 -0.0920105 0.708349 0.276032 0.303578C0.644074 -0.101193 1.25325 -0.101193 1.62129 0.303578L9.89586 9.40388C10.505 10.0738 11.4949 10.0738 12.1041 9.40388L20.3787 0.303578C20.7468 -0.101193 21.3559 -0.101193 21.724 0.303578C22.092 0.708349 22.092 1.37831 21.724 1.78308L13.4494 10.8834C12.7767 11.6231 11.8884 12 11 12Z"/>
</mask>
<path d="M11 12C10.1116 12 9.22323 11.6231 8.5506 10.8834L0.276032 1.78308C-0.0920105 1.37831 -0.0920105 0.708349 0.276032 0.303578C0.644074 -0.101193 1.25325 -0.101193 1.62129 0.303578L9.89586 9.40388C10.505 10.0738 11.4949 10.0738 12.1041 9.40388L20.3787 0.303578C20.7468 -0.101193 21.3559 -0.101193 21.724 0.303578C22.092 0.708349 22.092 1.37831 21.724 1.78308L13.4494 10.8834C12.7767 11.6231 11.8884 12 11 12Z" fill="#1E1E1E"/>
<path d="M8.5506 10.8834L12.6378 7.1671L12.6377 7.1671L8.5506 10.8834ZM0.276032 1.78308L-3.81112 5.49937L-3.81112 5.49938L0.276032 1.78308ZM1.62129 0.303578L-2.46586 4.01987L-2.46586 4.01987L1.62129 0.303578ZM9.89586 9.40388L13.983 5.6876L13.983 5.68759L9.89586 9.40388ZM12.1041 9.40388L8.01697 5.68758L8.01696 5.6876L12.1041 9.40388ZM20.3787 0.303578L24.4659 4.01988L24.4659 4.01987L20.3787 0.303578ZM21.724 1.78308L25.8111 5.49939L25.8111 5.49937L21.724 1.78308ZM13.4494 10.8834L9.36222 7.16709L9.36221 7.1671L13.4494 10.8834ZM11 6.47591C11.7021 6.47591 12.2868 6.7811 12.6378 7.1671L4.46344 14.5997C6.15968 16.4652 8.52107 17.5241 11 17.5241V6.47591ZM12.6377 7.1671L4.36318 -1.93321L-3.81112 5.49938L4.46345 14.5997L12.6377 7.1671ZM4.36318 -1.9332C5.20228 -1.01037 5.52409 0.0914463 5.52409 1.04333C5.52409 1.99522 5.20228 3.09703 4.36318 4.01987L-3.81112 -3.41271C-6.09509 -0.900819 -6.09509 2.98748 -3.81112 5.49937L4.36318 -1.9332ZM4.36318 4.01987C2.53954 6.0255 -0.642216 6.0255 -2.46586 4.01987L5.70844 -3.41271C3.14871 -6.22789 -1.25139 -6.22789 -3.81112 -3.41271L4.36318 4.01987ZM-2.46586 4.01987L5.80871 13.1202L13.983 5.68759L5.70844 -3.41271L-2.46586 4.01987ZM5.8087 13.1202C8.60957 16.2005 13.3904 16.2005 16.1913 13.1202L8.01696 5.6876C9.59947 3.94715 12.4005 3.94715 13.983 5.6876L5.8087 13.1202ZM16.1912 13.1202L24.4659 4.01988L16.2916 -3.41272L8.01697 5.68758L16.1912 13.1202ZM24.4659 4.01987C22.6422 6.0255 19.4605 6.0255 17.6368 4.01987L25.8111 -3.41271C23.2514 -6.22789 18.8513 -6.22789 16.2916 -3.41271L24.4659 4.01987ZM17.6368 4.01987C16.7977 3.09703 16.4759 1.99522 16.4759 1.04333C16.4759 0.0914463 16.7977 -1.01037 17.6368 -1.9332L25.8111 5.49937C28.0951 2.98748 28.0951 -0.900819 25.8111 -3.41271L17.6368 4.01987ZM17.6368 -1.93322L9.36222 7.16709L17.5365 14.5997L25.8111 5.49939L17.6368 -1.93322ZM9.36221 7.1671C9.71319 6.7811 10.2978 6.47591 11 6.47591V17.5241C13.4789 17.5241 15.8403 16.4652 17.5365 14.5997L9.36221 7.1671Z" fill="#434343" mask="url(#path-1-inside-1_148_5578)"/>
</svg>
