<svg width="13" height="18" viewBox="0 0 13 18" fill="none" xmlns="http://www.w3.org/2000/svg">
<path d="M0.55806 14.9645C1.08326 14.5474 1.32269 14.3543 1.27635 14.3852C2.79017 13.134 3.97961 12.1068 4.84465 11.3035C5.72513 10.5003 6.4666 9.65839 7.06904 8.77791C7.67148 7.89742 7.9727 7.0401 7.9727 6.20595C7.9727 5.57262 7.82595 5.07831 7.53245 4.72303C7.23895 4.36774 6.79871 4.1901 6.21172 4.1901C5.62473 4.1901 5.16131 4.41408 4.82148 4.86205C4.49708 5.29457 4.33489 5.91246 4.33489 6.71571H0.511719C0.542613 5.4027 0.820662 4.30595 1.34587 3.42547C1.88652 2.54498 2.58936 1.8962 3.4544 1.47913C4.33489 1.06205 5.30806 0.853516 6.37391 0.853516C8.21213 0.853516 9.59465 1.32465 10.5215 2.26693C11.4638 3.20921 11.9349 4.43726 11.9349 5.95108C11.9349 7.60392 11.3711 9.14091 10.2434 10.5621C9.11578 11.9677 7.6792 13.3425 5.93367 14.6864H12.1898V17.9072H0.55806V14.9645Z" fill="white"/>
</svg>
