<svg width="13" height="19" viewBox="0 0 13 19" fill="none" xmlns="http://www.w3.org/2000/svg">
<path d="M0.720255 6.02059C0.782044 4.36774 1.32269 3.09335 2.34221 2.19742C3.36172 1.30148 4.74424 0.853516 6.48977 0.853516C7.6483 0.853516 8.63692 1.05433 9.45562 1.45596C10.2898 1.85758 10.9154 2.40595 11.3324 3.10108C11.765 3.7962 11.9812 4.57628 11.9812 5.44132C11.9812 6.46083 11.7264 7.29498 11.2166 7.94376C10.7068 8.57709 10.1121 9.00961 9.43245 9.24132V9.334C10.3129 9.6275 11.0081 10.1141 11.5178 10.7938C12.0276 11.4734 12.2825 12.3462 12.2825 13.4121C12.2825 14.3698 12.0585 15.2194 11.6105 15.9608C11.178 16.6869 10.5369 17.2584 9.68733 17.6755C8.85318 18.0925 7.85684 18.3011 6.6983 18.3011C4.84465 18.3011 3.36172 17.8454 2.24952 16.934C1.15278 16.0226 0.573507 14.6478 0.511719 12.8096H4.35806C4.37351 13.4893 4.5666 14.0299 4.93733 14.4316C5.30806 14.8177 5.84871 15.0108 6.55928 15.0108C7.16172 15.0108 7.62513 14.8409 7.94952 14.5011C8.28936 14.1458 8.45928 13.6824 8.45928 13.1108C8.45928 12.3694 8.21985 11.8364 7.74099 11.5121C7.27757 11.1722 6.52839 11.0023 5.49343 11.0023H4.75196V7.78157H5.49343C6.28123 7.78157 6.91456 7.65026 7.39343 7.38766C7.88773 7.10961 8.13489 6.62303 8.13489 5.92791C8.13489 5.37181 7.98042 4.93929 7.67147 4.63034C7.36253 4.3214 6.93774 4.16693 6.39708 4.16693C5.81009 4.16693 5.36985 4.34457 5.07635 4.69986C4.7983 5.05514 4.63611 5.49539 4.58977 6.02059H0.720255Z" fill="white"/>
</svg>
