<svg width="20" height="20" viewBox="0 0 20 20" fill="none" xmlns="http://www.w3.org/2000/svg">
<path fill-rule="evenodd" clip-rule="evenodd" d="M16.2547 6.98345H17.5606C18.9358 6.98345 20 8.17403 20 9.55735V18.5009C20 19.7215 18.614 20.4287 17.622 19.7142L16.5603 18.9496C16.4751 18.8882 16.3727 18.8552 16.2677 18.8552H5.43939C4.0642 18.8552 3 17.6646 3 16.2813V9.88676H4V16.2813C4 17.1806 4.68125 17.8576 5.43939 17.8576H16.2677C16.5829 17.8576 16.8901 17.9566 17.1457 18.1407L18.2073 18.9053C18.538 19.1435 19 18.9078 19 18.5009V9.55735C19 8.65809 18.3187 7.98109 17.5606 7.98109H16.2547V6.98345Z" fill="#333333"/>
<path d="M12.3141 15.9901H10.4786L10.1217 17.0582H9L10.8865 11.9716H11.8553L13.7418 17.0582H12.6201L12.3141 15.9901ZM10.7335 15.1762H12.0082L11.3964 13.2433L10.7335 15.1762Z" fill="#333333"/>
<path fill-rule="evenodd" clip-rule="evenodd" d="M3.47341 9.68424H14.7861C15.3555 9.68424 15.8256 9.21531 15.8256 8.64724V2.03464C15.8256 1.46657 15.3555 0.997636 14.7861 0.997636H2.03946C1.47004 0.997636 1 1.46657 1 2.03464V11.3253L2.0592 10.2686C2.43427 9.89446 2.94298 9.68424 3.47341 9.68424ZM3.47341 10.6819H14.7861C15.9078 10.6819 16.8256 9.76629 16.8256 8.64724V2.03464C16.8256 0.91559 15.9078 0 14.7861 0H2.03946C0.917759 0 0 0.91559 0 2.03464V11.3253C0 12.2141 1.07714 12.6592 1.70711 12.0308L2.7663 10.9741C2.95384 10.787 3.20819 10.6819 3.47341 10.6819Z" fill="#333333"/>
<path d="M10.9126 5.18805C10.9126 5.69671 10.8106 6.10364 10.6577 6.4597C10.5047 6.81576 10.3008 7.12096 9.99484 7.32442L10.8616 7.98568L10.1988 8.59607L9.07708 7.73135C8.97511 7.73135 8.82215 7.78222 8.66919 7.78222C8.36327 7.78222 8.05735 7.73135 7.75143 7.62962C7.4965 7.52789 7.24157 7.32442 7.03762 7.12096C6.83367 6.91749 6.68071 6.6123 6.57874 6.3071C6.47677 6.0019 6.42578 5.64584 6.42578 5.23891V5.03545C6.42578 4.62852 6.47677 4.27246 6.57874 3.96726C6.68071 3.66206 6.83367 3.35687 7.03762 3.1534C7.24157 2.94994 7.44551 2.74647 7.75143 2.64474C8.00637 2.54301 8.31229 2.49214 8.66919 2.49214C8.97511 2.49214 9.28103 2.54301 9.58695 2.64474C9.84188 2.74647 10.0968 2.94994 10.3008 3.1534C10.5047 3.35687 10.6577 3.66206 10.7596 3.96726C10.8616 4.27246 10.9126 4.62852 10.9126 5.03545V5.18805ZM9.7909 4.93371C9.7909 4.37419 9.68893 3.96726 9.48498 3.71293C9.28103 3.40773 9.0261 3.306 8.66919 3.306C8.31229 3.306 8.00637 3.4586 7.85341 3.71293C7.64946 4.01813 7.54749 4.42505 7.54749 4.93371V5.18805C7.54749 5.44238 7.59847 5.69671 7.64946 5.90017C7.70045 6.10364 7.75143 6.3071 7.85341 6.40883C7.95538 6.56143 8.05735 6.66316 8.21031 6.71403C8.36327 6.76489 8.51623 6.81576 8.66919 6.81576C9.0261 6.81576 9.33202 6.66316 9.48498 6.40883C9.68893 6.10364 9.7909 5.69671 9.7909 5.13718V4.93371Z" fill="#333333"/>
</svg>
