<svg width="60" height="61" viewBox="0 0 60 61" fill="none" xmlns="http://www.w3.org/2000/svg">
<path d="M60 30.5C60 13.97 46.53 0.5 30 0.5C13.47 0.5 0 13.97 0 30.5C0 39.2 3.75 47.03 9.69 52.52C9.69 52.55 9.69 52.55 9.66 52.58C9.96 52.88 10.32 53.12 10.62 53.39C10.8 53.54 10.95 53.69 11.13 53.81C11.67 54.26 12.27 54.68 12.84 55.1C13.05 55.25 13.23 55.37 13.44 55.52C14.01 55.91 14.61 56.27 15.24 56.6C15.45 56.72 15.69 56.87 15.9 56.99C16.5 57.32 17.13 57.62 17.79 57.89C18.03 58.01 18.27 58.13 18.51 58.22C19.17 58.49 19.83 58.73 20.49 58.94C20.73 59.03 20.97 59.12 21.21 59.18C21.93 59.39 22.65 59.57 23.37 59.75C23.58 59.81 23.79 59.87 24.03 59.9C24.87 60.08 25.71 60.2 26.58 60.29C26.7 60.29 26.82 60.32 26.94 60.35C27.96 60.44 28.98 60.5 30 60.5C31.02 60.5 32.04 60.44 33.03 60.35C33.15 60.35 33.27 60.32 33.39 60.29C34.26 60.2 35.1 60.08 35.94 59.9C36.15 59.87 36.36 59.78 36.6 59.75C37.32 59.57 38.07 59.42 38.76 59.18C39 59.09 39.24 59 39.48 58.94C40.14 58.7 40.83 58.49 41.46 58.22C41.7 58.13 41.94 58.01 42.18 57.89C42.81 57.62 43.44 57.32 44.07 56.99C44.31 56.87 44.52 56.72 44.73 56.6C45.33 56.24 45.93 55.91 46.53 55.52C46.74 55.4 46.92 55.25 47.13 55.1C47.73 54.68 48.3 54.26 48.84 53.81C49.02 53.66 49.17 53.51 49.35 53.39C49.68 53.12 50.01 52.85 50.31 52.58C50.31 52.55 50.31 52.55 50.28 52.52C56.25 47.03 60 39.2 60 30.5ZM44.82 45.41C36.69 39.95 23.37 39.95 15.18 45.41C13.86 46.28 12.78 47.3 11.88 48.41C7.32 43.79 4.5 37.46 4.5 30.5C4.5 16.43 15.93 5 30 5C44.07 5 55.5 16.43 55.5 30.5C55.5 37.46 52.68 43.79 48.12 48.41C47.25 47.3 46.14 46.28 44.82 45.41Z" fill="#42A5DC"/>
<path d="M29.9961 15.2881C23.7861 15.2881 18.7461 20.3281 18.7461 26.5381C18.7461 32.6281 23.5161 37.5781 29.8461 37.7581H30.1161H30.3261H30.3861C36.4461 37.5481 41.2161 32.6281 41.2461 26.5381C41.2461 20.3281 36.2061 15.2881 29.9961 15.2881Z" fill="#42A5DC"/>
</svg>
