<svg width="20" height="20" viewBox="0 0 20 20" fill="none" xmlns="http://www.w3.org/2000/svg">
<mask id="path-1-inside-1_278_5222" fill="white">
<path d="M10.9771 0V0.02003V2.02303C15.378 2.56385 18.4957 6.55984 17.9544 10.9564C17.4932 14.6019 14.6262 17.4962 10.9771 17.9269V19.9299C16.4908 19.3791 20.5007 14.4917 19.9493 8.98348C19.4982 4.22634 15.7189 0.470706 10.9771 0ZM8.97218 0.030045C7.01735 0.22033 5.15274 0.971457 3.62897 2.23335L5.06252 3.71557C6.18529 2.81422 7.53864 2.23335 8.97218 2.03305V0.030045ZM2.21548 3.64547C0.952355 5.16775 0.200496 7.02053 0 8.98348H2.00496C2.19543 7.56134 2.75682 6.20931 3.64902 5.07762L2.21548 3.64547ZM13.4833 6.47972L8.59124 11.3671L6.46598 9.24387L5.40336 10.3055L8.59124 13.4902L14.546 7.54131L13.4833 6.47972ZM0.0100248 10.9865C0.21052 12.9494 0.982429 14.8022 2.2255 16.3245L3.64902 14.8923C2.76684 13.7606 2.19543 12.4086 2.01498 10.9865H0.0100248ZM5.06252 16.3645L3.62897 17.7366C5.14271 18.9985 7.00732 19.7897 8.97218 20V17.997C7.54866 17.8167 6.19532 17.2459 5.06252 16.3645Z"/>
</mask>
<path d="M10.9771 0L11.6676 -6.95528L3.98767 -7.71766V0H10.9771ZM10.9771 2.02303H3.98767V8.20616L10.1246 8.96032L10.9771 2.02303ZM17.9544 10.9564L24.8886 11.8336L24.89 11.8221L24.8915 11.8106L17.9544 10.9564ZM10.9771 17.9269L10.1579 10.9856L3.98767 11.7138V17.9269H10.9771ZM10.9771 19.9299H3.98767V27.6524L11.6719 26.8847L10.9771 19.9299ZM19.9493 8.98348L12.9911 9.64332L12.9928 9.66148L12.9946 9.67962L19.9493 8.98348ZM8.97218 0.030045H15.9616V-7.67282L8.29502 -6.92654L8.97218 0.030045ZM3.62897 2.23335L-0.829058 -3.14983L-6.64379 1.66558L-1.39514 7.09246L3.62897 2.23335ZM5.06252 3.71557L0.0384034 8.57468L4.46867 13.1554L9.43806 9.16601L5.06252 3.71557ZM8.97218 2.03305L9.93938 8.95527L15.9616 8.11382V2.03305H8.97218ZM2.21548 3.64547L7.15537 -1.29924L1.73189 -6.71743L-3.16343 -0.817711L2.21548 3.64547ZM0 8.98348L-6.95329 8.27326L-7.73974 15.9729H0V8.98348ZM2.00496 8.98348V15.9729H8.12071L8.93257 9.91131L2.00496 8.98348ZM3.64902 5.07762L9.13786 9.40489L12.9852 4.52487L8.58891 0.132909L3.64902 5.07762ZM13.4833 6.47972L18.4232 1.53502L13.4833 -3.40007L8.54344 1.53501L13.4833 6.47972ZM8.59124 11.3671L3.65135 16.3118L8.59124 21.2468L13.5311 16.3118L8.59124 11.3671ZM6.46598 9.24387L11.4059 4.29916L6.46598 -0.635923L1.52609 4.29916L6.46598 9.24387ZM5.40336 10.3055L0.463466 5.36075L-4.48606 10.3055L0.463465 15.2502L5.40336 10.3055ZM8.59124 13.4902L3.65135 18.4349L8.59124 23.37L13.5311 18.4349L8.59124 13.4902ZM14.546 7.54131L19.4859 12.486L24.4354 7.54132L19.4859 2.59661L14.546 7.54131ZM0.0100248 10.9865V3.99701H-7.72971L-6.94327 11.6967L0.0100248 10.9865ZM2.2255 16.3245L-3.18828 20.7453L1.71624 26.7514L7.18271 21.2518L2.2255 16.3245ZM3.64902 14.8923L8.60623 19.8197L12.9475 15.4521L9.16152 10.5952L3.64902 14.8923ZM2.01498 10.9865L8.94886 10.1067L8.17364 3.99701H2.01498V10.9865ZM5.06252 16.3645L9.35441 10.848L4.59033 7.14154L0.22969 11.3151L5.06252 16.3645ZM3.62897 17.7366L-1.20385 12.6872L-6.85528 18.0962L-0.8465 23.1053L3.62897 17.7366ZM8.97218 20L8.22829 26.9498L15.9616 27.7775V20H8.97218ZM8.97218 17.997H15.9616V11.8368L9.85029 11.0629L8.97218 17.997ZM3.98767 0V0.02003H17.9666V0H3.98767ZM3.98767 0.02003V2.02303H17.9666V0.02003H3.98767ZM10.1246 8.96032C10.6922 9.03007 11.087 9.53631 11.0173 10.1023L24.8915 11.8106C25.9045 3.58338 20.0638 -3.90238 11.8296 -4.91425L10.1246 8.96032ZM11.0202 10.0793C10.9543 10.6 10.5564 10.9386 10.1579 10.9856L11.7963 24.8682C18.6959 24.0539 24.0322 18.6039 24.8886 11.8336L11.0202 10.0793ZM3.98767 17.9269V19.9299H17.9666V17.9269H3.98767ZM11.6719 26.8847C21.0137 25.9515 27.8413 17.6506 26.904 8.28733L12.9946 9.67962C13.1601 11.3329 11.9679 12.8067 10.2823 12.975L11.6719 26.8847ZM26.9076 8.32363C26.1379 0.207185 19.7026 -6.15765 11.6676 -6.95528L10.2867 6.95528C11.7351 7.09906 12.8585 8.24549 12.9911 9.64332L26.9076 8.32363ZM8.29502 -6.92654C5.00338 -6.60613 1.80942 -5.33486 -0.829058 -3.14983L8.087 7.61653C8.49606 7.27777 9.03132 7.04679 9.64934 6.98663L8.29502 -6.92654ZM-1.39514 7.09246L0.0384034 8.57468L10.0866 -1.14354L8.65308 -2.62576L-1.39514 7.09246ZM9.43806 9.16601C9.567 9.0625 9.73959 8.98319 9.93938 8.95527L8.00498 -4.88917C5.33768 -4.51649 2.80358 -3.43406 0.686966 -1.73486L9.43806 9.16601ZM15.9616 2.03305V0.030045H1.98271V2.03305H15.9616ZM-3.16343 -0.817711C-5.34795 1.81501 -6.61773 4.98794 -6.95329 8.27326L6.95329 9.69369C7.01872 9.05312 7.25266 8.52049 7.59439 8.10865L-3.16343 -0.817711ZM0 15.9729H2.00496V1.99401H0V15.9729ZM8.93257 9.91131C8.96089 9.69984 9.04031 9.52862 9.13786 9.40489L-1.83982 0.750338C-3.52668 2.89001 -4.57003 5.42284 -4.92265 8.05564L8.93257 9.91131ZM8.58891 0.132909L7.15537 -1.29924L-2.72441 8.59018L-1.29087 10.0223L8.58891 0.132909ZM8.54344 1.53501L3.65135 6.42234L13.5311 16.3118L18.4232 11.4244L8.54344 1.53501ZM13.5311 6.42234L11.4059 4.29916L1.52609 14.1886L3.65135 16.3118L13.5311 6.42234ZM1.52609 4.29916L0.463466 5.36075L10.3433 15.2502L11.4059 14.1886L1.52609 4.29916ZM0.463465 15.2502L3.65135 18.4349L13.5311 8.54553L10.3433 5.36075L0.463465 15.2502ZM13.5311 18.4349L19.4859 12.486L9.60607 2.59661L3.65135 8.54553L13.5311 18.4349ZM19.4859 2.59661L18.4232 1.53502L8.54344 11.4244L9.60606 12.486L19.4859 2.59661ZM-6.94327 11.6967C-6.60331 15.0251 -5.29368 18.167 -3.18828 20.7453L7.63929 11.9037C7.25854 11.4374 7.02435 10.8738 6.96332 10.2763L-6.94327 11.6967ZM7.18271 21.2518L8.60623 19.8197L-1.30819 9.96499L-2.73171 11.3971L7.18271 21.2518ZM9.16152 10.5952C9.03369 10.4313 8.96756 10.2541 8.94886 10.1067L-4.91889 11.8663C-4.57671 14.5631 -3.50001 17.09 -1.86347 19.1894L9.16152 10.5952ZM2.01498 3.99701H0.0100248V17.9759H2.01498V3.99701ZM0.22969 11.3151L-1.20385 12.6872L8.4618 22.786L9.89534 21.4139L0.22969 11.3151ZM-0.8465 23.1053C1.72712 25.2507 4.89003 26.5924 8.22829 26.9498L9.71607 13.0502C9.12462 12.9869 8.55831 12.7463 8.10444 12.3679L-0.8465 23.1053ZM15.9616 20V17.997H1.98271V20H15.9616ZM9.85029 11.0629C9.6989 11.0437 9.51931 10.9763 9.35441 10.848L0.770624 21.8811C2.87132 23.5154 5.39842 24.5897 8.09407 24.9311L9.85029 11.0629Z" fill="white" mask="url(#path-1-inside-1_278_5222)"/>
</svg>
