<svg width="20" height="20" viewBox="0 0 20 20" fill="none" xmlns="http://www.w3.org/2000/svg">
<path d="M14.1561 2.73983L13.7135 3.47743C13.6522 3.5826 13.6335 3.70727 13.6613 3.8258C13.6891 3.94432 13.7613 4.04769 13.863 4.11463C15.224 5.04307 16.2518 6.38313 16.7957 7.93834C17.3396 9.49355 17.3709 11.1821 16.8851 12.7564C16.3993 14.3307 15.4219 15.708 14.0962 16.6863C12.7705 17.6646 11.1663 18.1924 9.5187 18.1924C7.87113 18.1924 6.26689 17.6646 4.9412 16.6863C3.61551 15.708 2.63811 14.3307 2.15229 12.7564C1.66647 11.1821 1.69779 9.49355 2.24167 7.93834C2.78555 6.38313 3.81337 5.04307 5.17443 4.11463C5.27591 4.04763 5.34789 3.94431 5.37559 3.8259C5.40329 3.7075 5.38461 3.58298 5.32338 3.47791L4.88272 2.7422C4.84967 2.68657 4.80576 2.63817 4.75359 2.59989C4.70142 2.56161 4.64207 2.53423 4.57909 2.5194C4.5161 2.50456 4.45078 2.50257 4.38701 2.51354C4.32324 2.52452 4.26233 2.54823 4.20793 2.58326C2.51523 3.72109 1.23282 5.3726 0.549703 7.29438C-0.133415 9.21617 -0.181104 11.3066 0.413663 13.2575C1.00843 15.2084 2.21419 16.9167 3.85324 18.1305C5.49229 19.3444 7.47793 19.9996 9.51751 19.9996C11.5571 19.9996 13.5427 19.3444 15.1818 18.1305C16.8208 16.9167 18.0266 15.2084 18.6214 13.2575C19.2161 11.3066 19.1684 9.21617 18.4853 7.29438C17.8022 5.3726 16.5198 3.72109 14.8271 2.58326C14.7732 2.54794 14.7127 2.52393 14.6493 2.51268C14.5859 2.50143 14.5208 2.50318 14.4581 2.51782C14.3953 2.53246 14.3362 2.55968 14.2843 2.59784C14.2324 2.63601 14.1888 2.68431 14.1561 2.73983Z" fill="white"/>
<path d="M9.99379 0.000366211H9.04204C8.77922 0.000366211 8.56616 0.213423 8.56616 0.476242V9.042C8.56616 9.30482 8.77922 9.51787 9.04204 9.51787H9.99379C10.2566 9.51787 10.4697 9.30482 10.4697 9.042V0.476242C10.4697 0.213423 10.2566 0.000366211 9.99379 0.000366211Z" fill="white"/>
</svg>
