<svg width="300" height="45" viewBox="0 0 300 45" fill="none" xmlns="http://www.w3.org/2000/svg">
<g clip-path="url(#clip0_288_5920)">
<path d="M36.5275 11.9352C36.7211 11.9352 37.0638 12.0947 37.5309 12.6077C39.9632 15.2599 42.6919 17.3561 44.9876 18.6238C45.3188 18.8032 45.5002 18.9412 45.5002 19.1153C45.5002 19.2478 45.4814 19.377 45.1957 19.377C44.6781 19.377 41.7841 18.8032 41.0182 18.4463C40.2489 18.0789 38.5955 16.732 36.6231 13.3159C36.3997 12.9304 36.1641 12.5988 36.1641 12.2883C36.1641 11.9801 36.4406 11.9352 36.5275 11.9352Z" fill="#6C99D7"/>
<path d="M43.0845 2.16618C43.0845 2.16618 43.5646 3.1184 38.8891 3.78088C39.3978 2.33103 39.7356 1.37535 39.7356 1.37535C40.0325 0.503826 39.3623 -0.00110435 38.8803 -0.00110435C38.3975 -0.00110435 38.0455 0.372023 37.8432 0.842752L36.4541 4.03642C34.6313 4.15862 33.2817 4.09099 32.6692 4.03296C31.8234 3.95034 31.6026 4.41838 31.6026 4.89987C31.6026 5.73989 33.0781 6.5922 34.0207 6.49844C34.6125 6.4431 34.9565 6.41889 35.4419 6.36701L30.2718 18.236C30.0736 18.679 29.9148 19.3945 30.8012 19.3945C31.6902 19.3945 33.686 18.5803 34.0207 17.6353C34.16 17.2388 35.1902 14.3053 36.3382 11.0397C36.9075 10.9268 38.9939 10.6074 39.5746 10.6074C40.1255 10.6074 40.4093 10.853 40.4093 11.1454C40.4093 11.8306 38.7758 13.7942 35.6114 16.2097C35.2667 16.4768 35.5532 16.6847 35.7292 16.6847C36.2185 16.6847 38.3998 15.1856 39.4793 14.3644C40.6683 13.4641 42.7344 11.1239 42.7344 9.47422C42.7344 8.82903 42.4487 8.23534 41.1537 8.23534C39.8997 8.23534 37.6771 8.51432 37.2058 8.57541C37.5111 7.69582 37.8164 6.83736 38.1002 6.03308C40.5459 5.69262 42.0026 5.46936 42.863 5.29183C44.0451 5.04052 44.9972 4.35575 44.9972 3.651C44.9972 2.1535 43.0845 2.16618 43.0845 2.16618Z" fill="#5C250B"/>
<path d="M1.49279 9.59649H0.00390625V8.11858H1.49279V6.15035H3.50652V8.11858H5.41047V9.59649H3.50652V13.2152C3.50652 13.8803 3.68479 14.4975 4.45104 14.4975C4.81331 14.4975 5.15684 14.4241 5.36495 14.2911L5.42922 15.8854C5.0042 16.0146 4.54361 16.0684 3.9411 16.0684C2.36194 16.0684 1.49279 15.0858 1.49279 13.5472V9.59649Z" fill="#5C250B"/>
<path d="M6.94531 8.11595H8.73067V9.88282H8.7628C8.85194 9.15425 9.67748 7.93188 10.8783 7.93188C11.073 7.93188 11.2834 7.93188 11.4934 7.99644V10.0315C11.3136 9.92932 10.954 9.86668 10.5925 9.86668C8.95714 9.86668 8.95714 11.9183 8.95714 13.0315V15.8828H6.94531L6.94531 8.11595Z" fill="#5C250B"/>
<path d="M19.8457 15.8874H17.9353V14.8364H17.9051C17.2926 15.5896 16.4215 16.0703 15.3699 16.0703C13.5383 16.0703 12.7422 14.7738 12.7422 13.02V8.12054H14.7487V12.2668C14.7487 13.2171 14.7685 14.4994 16.0608 14.4994C17.516 14.4994 17.8335 12.9158 17.8335 11.9225V8.12054H19.8457V15.8874Z" fill="#5C250B"/>
<path d="M26.468 11.2427C26.4052 10.2636 25.9554 9.41745 24.8318 9.41745C23.7033 9.41745 23.1341 10.2025 23.0438 11.2427H26.468ZM27.8176 15.4497C27.082 15.8567 26.2419 16.0703 25.1593 16.0703C22.61 16.0703 21.1211 14.5928 21.1211 12.0462C21.1211 9.79557 22.3081 7.93647 24.7113 7.93647C27.5801 7.93647 28.3907 9.91239 28.3907 12.6326H23.0438C23.1341 13.8823 24.0036 14.5928 25.2496 14.5928C26.2304 14.5928 27.0678 14.2304 27.8176 13.807V15.4497Z" fill="#5C250B"/>
<path d="M44.1406 8.23736H45.9287V9.99963H45.9589C46.0472 9.27489 46.8739 8.05099 48.0771 8.05099C48.2706 8.05099 48.4806 8.05099 48.6903 8.11094V10.1503C48.5135 10.0446 48.152 9.98541 47.7905 9.98541C46.1524 9.98541 46.1524 12.0351 46.1524 13.1487V16H44.1406V8.23736Z" fill="#5C250B"/>
<path d="M49.8613 8.23594H51.8758V15.9986H49.8613V8.23594ZM49.8613 5H51.8758V6.93057H49.8613V5Z" fill="#5C250B"/>
<path d="M58.4903 11.356C58.4306 10.3715 57.9803 9.53073 56.8541 9.53073C55.7241 9.53073 55.1564 10.3143 55.0691 11.356H58.4903ZM59.8399 15.563C59.1054 15.9719 58.2672 16.1836 57.1842 16.1836C54.6326 16.1836 53.1445 14.7038 53.1445 12.1541C53.1445 9.90539 54.3281 8.04975 56.7344 8.04975C59.6016 8.04975 60.4095 10.0253 60.4095 12.744H55.0691C55.1564 13.9975 56.0259 14.7038 57.2745 14.7038C58.2485 14.7038 59.0928 14.3437 59.8399 13.9202V15.563Z" fill="#5C250B"/>
<path d="M61.6055 8.30691H63.5155V9.36058H63.5423C64.1762 8.46907 65.0323 8.12054 66.0809 8.12054C67.9164 8.12054 68.7086 9.41898 68.7086 11.1693V16.0703H66.6987V11.9225C66.6987 10.9722 66.6827 9.6899 65.3919 9.6899C63.9386 9.6899 63.6192 11.2716 63.6192 12.2722V16.0703H61.6055V8.30691Z" fill="#5C250B"/>
<path d="M73.723 14.6127C75.0634 14.6127 75.501 13.1978 75.501 12.093C75.501 11.0063 74.9869 9.61834 73.6943 9.61834C72.3921 9.61834 72.0325 11.0532 72.0325 12.093C72.0325 13.1675 72.4036 14.6127 73.723 14.6127ZM75.5741 15.1272H75.5439C74.9421 15.8804 74.1174 16.1836 73.1732 16.1836C70.7972 16.1836 69.9258 14.22 69.9258 12.093C69.9258 9.95035 70.7972 8.04975 73.1732 8.04975C74.1782 8.04975 74.8832 8.39867 75.485 9.13724H75.5156V4.68585H77.5255V15.9988H75.5741V15.1272Z" fill="#5C250B"/>
<path d="M86.1562 6.27115H90.4083V14.7005H90.4932C90.9152 13.9646 91.3662 13.286 91.7881 12.6074L96.0964 6.27115H101.363L95.0826 14.3892L101.7 25.3359H96.6878L92.0418 17.1049L90.4083 19.1127V25.3359H86.1562V6.27115Z" fill="#231F20"/>
<path d="M106.175 18.4073C106.175 20.7832 107.16 22.5651 108.991 22.5651C110.652 22.5651 111.722 20.8962 111.722 18.4073C111.722 16.3422 110.934 14.2491 108.991 14.2491C106.935 14.2491 106.175 16.3706 106.175 18.4073ZM116.143 18.2658C116.143 23.3286 112.567 25.6484 108.878 25.6484C104.851 25.6484 101.754 22.9897 101.754 18.5202C101.754 14.0516 104.683 11.1941 109.104 11.1941C113.328 11.1941 116.143 14.108 116.143 18.2658Z" fill="#231F20"/>
<path d="M118.503 16.0577C118.503 14.0211 118.447 12.6919 118.391 11.5038H122.08L122.22 14.0495H122.333C123.037 12.0414 124.726 11.1925 126.05 11.1925C126.444 11.1925 126.641 11.1925 126.951 11.249V15.3222C126.641 15.2377 126.275 15.1808 125.796 15.1808C124.22 15.1808 123.15 16.0293 122.868 17.3593C122.812 17.6417 122.783 17.9814 122.783 18.3207V25.3359H118.503V16.0577Z" fill="#231F20"/>
<path d="M137.034 16.8513C137.034 15.8046 136.583 14.0512 134.612 14.0512C132.809 14.0512 132.078 15.6912 131.965 16.8513H137.034ZM131.993 19.7929C132.134 21.5748 133.88 22.4229 135.879 22.4229C137.343 22.4229 138.526 22.2254 139.68 21.858L140.244 24.7711C138.836 25.3372 137.118 25.6484 135.26 25.6484C130.585 25.6484 127.91 22.9044 127.91 18.5767C127.91 15.0691 130.078 11.1941 134.865 11.1941C139.315 11.1941 141.004 14.6737 141.004 18.096C141.004 18.8311 140.919 19.4821 140.863 19.7929H131.993Z" fill="#231F20"/>
<path d="M150.601 18.8031C148.349 18.775 146.603 19.3126 146.603 20.9815C146.603 22.0843 147.335 22.6223 148.292 22.6223C149.362 22.6223 150.235 21.9153 150.517 21.038C150.573 20.8112 150.601 20.5565 150.601 20.3021V18.8031ZM154.769 21.9714C154.769 23.3002 154.826 24.5736 154.966 25.3376H151.108L150.855 23.9511H150.77C149.87 25.054 148.461 25.6484 146.828 25.6484C144.04 25.6484 142.379 23.6122 142.379 21.4057C142.379 17.8132 145.589 16.0878 150.461 16.1159V15.9183C150.461 15.1825 150.066 14.1361 147.955 14.1361C146.547 14.1361 145.054 14.6168 144.153 15.1825L143.365 12.4107C144.322 11.8731 146.209 11.1945 148.715 11.1945C153.305 11.1945 154.769 13.9098 154.769 17.1626V21.9714Z" fill="#231F20"/>
<path d="M167.721 25.3353H163.412V6.27051H167.721V25.3353Z" fill="#231F20"/>
<path d="M171.097 15.9167C171.097 14.191 171.041 12.7204 170.984 11.5041H174.702L174.898 13.399H174.984C175.546 12.5225 176.954 11.1929 179.235 11.1929C182.051 11.1929 184.163 13.0597 184.163 17.1329V25.3359H179.882V17.6705C179.882 15.8887 179.263 14.6724 177.715 14.6724C176.531 14.6724 175.828 15.4921 175.546 16.2845C175.433 16.5673 175.377 16.9631 175.377 17.3593V25.3359H171.097V15.9167Z" fill="#231F20"/>
<path d="M189.962 11.5038L191.82 17.9245C192.159 19.0843 192.412 20.1875 192.609 21.2907H192.693C192.919 20.1594 193.145 19.1127 193.454 17.9245L195.228 11.5038H199.734L194.609 25.3359H190.329L185.316 11.5038H189.962Z" fill="#231F20"/>
<path d="M209.339 16.8513C209.339 15.8046 208.888 14.0512 206.917 14.0512C205.115 14.0512 204.383 15.6912 204.27 16.8513H209.339ZM204.298 19.7929C204.439 21.5748 206.185 22.4229 208.184 22.4229C209.649 22.4229 210.831 22.2254 211.985 21.858L212.549 24.7711C211.141 25.3372 209.423 25.6484 207.565 25.6484C202.89 25.6484 200.215 22.9044 200.215 18.5767C200.215 15.0691 202.383 11.1941 207.17 11.1941C211.619 11.1941 213.31 14.6737 213.31 18.096C213.31 18.8311 213.224 19.4821 213.169 19.7929H204.298Z" fill="#231F20"/>
<path d="M215.561 21.5748C216.349 22.0555 217.983 22.6223 219.249 22.6223C220.546 22.6223 221.08 22.1693 221.08 21.4618C221.08 20.7551 220.658 20.4155 219.053 19.8779C216.209 18.9164 215.11 17.3605 215.138 15.7481C215.138 13.1458 217.336 11.1941 220.742 11.1941C222.347 11.1941 223.784 11.5615 224.628 11.9861L223.868 14.9561C223.248 14.6164 222.066 14.1641 220.883 14.1641C219.841 14.1641 219.249 14.588 219.249 15.2958C219.249 15.9464 219.785 16.2853 221.474 16.8794C224.093 17.7847 225.192 19.1139 225.219 21.1506C225.219 23.7248 223.192 25.6484 219.249 25.6484C217.448 25.6484 215.843 25.2242 214.801 24.6582L215.561 21.5748Z" fill="#231F20"/>
<path d="M232.318 7.74338V11.5054H235.388V14.6737H232.318V19.6796C232.318 21.3488 232.713 22.1132 234.008 22.1132C234.6 22.1132 234.853 22.0839 235.274 21.9998L235.303 25.2526C234.74 25.4786 233.727 25.6484 232.516 25.6484C231.136 25.6484 229.981 25.1393 229.306 24.4315C228.517 23.6118 228.123 22.2822 228.123 20.3301V14.6737H226.293V11.5054H228.123V8.90311L232.318 7.74338Z" fill="#231F20"/>
<path d="M237.581 15.9167C237.581 14.191 237.526 12.7204 237.469 11.5041H241.073L241.271 13.3709H241.355C241.946 12.494 243.156 11.1929 245.522 11.1929C247.296 11.1929 248.705 12.0978 249.296 13.5404H249.352C249.859 12.8049 250.478 12.2677 251.126 11.8715C251.887 11.4192 252.731 11.1929 253.745 11.1929C256.392 11.1929 258.392 13.0597 258.392 17.1898V25.3359H254.223V17.8119C254.223 15.8034 253.576 14.644 252.196 14.644C251.211 14.644 250.506 15.3226 250.225 16.143C250.112 16.4543 250.056 16.9066 250.056 17.2459V25.3359H245.888V17.5852C245.888 15.8314 245.269 14.644 243.917 14.644C242.819 14.644 242.171 15.4921 241.917 16.1995C241.777 16.5392 241.749 16.9346 241.749 17.2743V25.3359H237.581V15.9167Z" fill="#231F20"/>
<path d="M269.843 16.8513C269.843 15.8046 269.392 14.0512 267.421 14.0512C265.619 14.0512 264.887 15.6912 264.775 16.8513H269.843ZM264.802 19.7929C264.942 21.5748 266.689 22.4229 268.688 22.4229C270.152 22.4229 271.335 22.2254 272.49 21.858L273.053 24.7711C271.644 25.3372 269.927 25.6484 268.069 25.6484C263.395 25.6484 260.719 22.9044 260.719 18.5767C260.719 15.0691 262.888 11.1941 267.674 11.1941C272.124 11.1941 273.813 14.6737 273.813 18.096C273.813 18.8311 273.728 19.4821 273.673 19.7929H264.802Z" fill="#231F20"/>
<path d="M276.101 15.9167C276.101 14.191 276.045 12.7204 275.988 11.5041H279.705L279.901 13.399H279.987C280.549 12.5225 281.958 11.1929 284.238 11.1929C287.055 11.1929 289.167 13.0597 289.167 17.1329V25.3359H284.886V17.6705C284.886 15.8887 284.266 14.6724 282.718 14.6724C281.535 14.6724 280.831 15.4921 280.549 16.2845C280.437 16.5673 280.381 16.9631 280.381 17.3593V25.3359H276.101V15.9167Z" fill="#231F20"/>
<path d="M296.936 7.74338V11.5054H300.006V14.6737H296.936V19.6796C296.936 21.3488 297.33 22.1132 298.626 22.1132C299.217 22.1132 299.47 22.0839 299.893 21.9998L299.92 25.2526C299.358 25.4786 298.344 25.6484 297.133 25.6484C295.753 25.6484 294.598 25.1393 293.923 24.4315C293.134 23.6118 292.74 22.2822 292.74 20.3301V14.6737H290.91V11.5054H292.74V8.90311L296.936 7.74338Z" fill="#231F20"/>
<path d="M88.6763 34.6724C87.7873 34.6724 87.3186 35.4202 87.3186 36.2652C87.3186 37.0433 87.6744 37.6439 88.143 38.2284C89.2421 37.5955 89.9536 37.011 89.9536 36.0857C89.9536 35.4202 89.5818 34.6724 88.6928 34.6724H88.6763ZM88.402 43.9283C89.3228 43.9283 90.1151 43.506 90.6327 42.9376C89.9858 42.2237 88.7735 40.8918 87.5608 39.4957C86.9789 39.8692 86.1545 40.5671 86.1545 41.7203C86.1545 42.9699 87.0761 43.9283 88.3852 43.9283H88.402ZM92.3461 44.8213C92.0389 44.5127 91.7478 44.2046 91.3274 43.75C90.3897 44.6269 89.3389 45 88.143 45C86.0252 45 84.7969 43.5705 84.7969 41.9316C84.7969 40.4379 85.6863 39.4139 86.9307 38.7322V38.6838C86.3649 37.9694 86.0252 37.1743 86.0252 36.3939C86.0252 35.0635 86.9789 33.6986 88.7895 33.6986C90.1476 33.6986 91.1981 34.6078 91.1981 36.0211C91.1981 37.1743 90.5351 38.0831 88.8056 38.9439V38.9923C89.7275 40.0637 90.762 41.2653 91.4571 42.045C91.9582 41.2814 92.2971 40.2262 92.5075 38.8463H93.8009C93.5098 40.5671 93.0408 41.9316 92.2325 42.8892C92.8143 43.506 93.3805 44.1231 94.027 44.8213H92.3461Z" fill="#231F20"/>
<path d="M98.2112 43.1009C98.8417 43.4902 99.7632 43.8145 100.733 43.8145C102.172 43.8145 103.012 43.0518 103.012 41.9477C103.012 40.9248 102.43 40.34 100.959 39.772C99.181 39.138 98.0819 38.2123 98.0819 36.6706C98.0819 34.9648 99.4882 33.6986 101.606 33.6986C102.721 33.6986 103.529 33.9588 104.015 34.2351L103.626 35.3883C103.27 35.1927 102.544 34.868 101.557 34.868C100.07 34.868 99.5046 35.761 99.5046 36.508C99.5046 37.5313 100.167 38.0347 101.671 38.6188C103.513 39.3332 104.451 40.2266 104.451 41.834C104.451 43.5225 103.206 45 100.636 45C99.5854 45 98.4373 44.6757 97.8555 44.2864L98.2112 43.1009Z" fill="#231F20"/>
<path d="M111.224 40.1294C111.24 39.2202 110.852 37.8069 109.252 37.8069C107.813 37.8069 107.183 39.1376 107.07 40.1294H111.224ZM107.054 41.1515C107.086 43.0844 108.315 43.8791 109.737 43.8791C110.755 43.8791 111.369 43.7016 111.903 43.4737L112.145 44.4966C111.644 44.7237 110.787 45 109.543 45C107.134 45 105.695 43.393 105.695 41.0224C105.695 38.6515 107.086 36.7839 109.365 36.7839C111.919 36.7839 112.598 39.0407 112.598 40.4864C112.598 40.7784 112.566 41.0063 112.549 41.1515H107.054Z" fill="#231F20"/>
<path d="M115.609 40.5641H115.642C115.836 40.2878 116.111 39.9474 116.337 39.6711L118.632 36.9597H120.346L117.323 40.191L120.766 44.8184H119.036L116.337 41.0521L115.609 41.8633V44.8184H114.203V33.2903H115.609V40.5641Z" fill="#231F20"/>
<path d="M128.228 42.6775C128.228 43.4898 128.244 44.2046 128.293 44.8213H127.032L126.951 43.5382H126.919C126.547 44.1715 125.723 45 124.332 45C123.104 45 121.633 44.3187 121.633 41.5577V36.9626H123.056V41.3149C123.056 42.8085 123.508 43.8145 124.801 43.8145C125.755 43.8145 126.418 43.1494 126.676 42.5161C126.757 42.3043 126.806 42.045 126.806 41.7848V36.9626H128.228V42.6775Z" fill="#231F20"/>
<path d="M130.428 39.4109C130.428 38.4856 130.412 37.6902 130.363 36.9597H131.608L131.657 38.5017H131.721C132.077 37.4477 132.934 36.781 133.887 36.781C134.049 36.781 134.162 36.7971 134.291 36.8294V38.177C134.146 38.1447 134 38.129 133.807 38.129C132.804 38.129 132.093 38.8918 131.899 39.9631C131.866 40.1587 131.834 40.3854 131.834 40.6294V44.8184H130.428V39.4109Z" fill="#231F20"/>
<path d="M135.613 36.9632H137.035V44.8219H135.613V36.9632ZM137.197 34.7548C137.214 35.2412 136.858 35.6313 136.292 35.6313C135.791 35.6313 135.436 35.2412 135.436 34.7548C135.436 34.2514 135.807 33.8613 136.325 33.8613C136.858 33.8613 137.197 34.2514 137.197 34.7548Z" fill="#231F20"/>
<path d="M140.954 35.0797V36.9626H142.991V38.0509H140.954V42.2886C140.954 43.2623 141.229 43.8145 142.021 43.8145C142.409 43.8145 142.635 43.7822 142.845 43.7177L142.91 44.7894C142.635 44.9032 142.198 45 141.649 45C140.987 45 140.453 44.7725 140.114 44.3832C139.709 43.9609 139.564 43.2623 139.564 42.337V38.0509H138.352V36.9626H139.564V35.5174L140.954 35.0797Z" fill="#231F20"/>
<path d="M148.548 40.8111C146.997 40.7788 145.234 41.0551 145.234 42.5806C145.234 43.5063 145.849 43.9444 146.576 43.9444C147.595 43.9444 148.242 43.2946 148.468 42.6291C148.516 42.4834 148.548 42.3213 148.548 42.1748V40.8111ZM149.922 42.9376C149.922 43.6205 149.955 44.2864 150.052 44.8217H148.759L148.645 43.8307H148.597C148.16 44.4478 147.32 45 146.205 45C144.62 45 143.812 43.8791 143.812 42.7432C143.812 40.8434 145.493 39.8039 148.516 39.8212V39.6579C148.516 39.0088 148.338 37.8395 146.738 37.8395C146.01 37.8395 145.251 38.067 144.701 38.424L144.378 37.4825C145.024 37.0594 145.962 36.7843 146.948 36.7843C149.34 36.7843 149.922 38.424 149.922 39.9987V42.9376Z" fill="#231F20"/>
<path d="M151.867 43.3599C152.288 43.6362 153.031 43.9283 153.742 43.9283C154.776 43.9283 155.262 43.4091 155.262 42.7593C155.262 42.0765 154.857 41.7037 153.807 41.3149C152.401 40.8107 151.738 40.0306 151.738 39.0892C151.738 37.823 152.756 36.7839 154.437 36.7839C155.23 36.7839 155.924 37.011 156.361 37.2708L156.005 38.3099C155.698 38.1154 155.133 37.8557 154.405 37.8557C153.564 37.8557 153.096 38.3429 153.096 38.9278C153.096 39.5768 153.564 39.8692 154.583 40.2585C155.94 40.7784 156.636 41.4601 156.636 42.6291C156.636 44.0097 155.569 45 153.71 45C152.853 45 152.061 44.7721 151.512 44.4474L151.867 43.3599Z" fill="#231F20"/>
<path d="M163.018 44.8196H161.611V33.876H163.018V44.8196Z" fill="#231F20"/>
<path d="M165.424 39.0862C165.424 38.275 165.408 37.6083 165.359 36.9597H166.62L166.7 38.2589H166.733C167.121 37.5119 168.027 36.781 169.319 36.781C170.403 36.781 172.083 37.43 172.083 40.1264V44.8184H170.662V40.2878C170.662 39.0216 170.192 37.9664 168.851 37.9664C167.913 37.9664 167.186 38.6324 166.943 39.4271C166.879 39.6065 166.847 39.8501 166.847 40.093V44.8184H165.424V39.0862Z" fill="#231F20"/>
<path d="M179.568 40.1617C179.568 39.9822 179.552 39.739 179.503 39.561C179.293 38.6515 178.518 37.9037 177.45 37.9037C175.98 37.9037 175.107 39.2033 175.107 40.9406C175.107 42.5322 175.883 43.8468 177.418 43.8468C178.372 43.8468 179.245 43.2135 179.503 42.1422C179.552 41.9474 179.568 41.7525 179.568 41.5254V40.1617ZM180.99 33.2932V42.7924C180.99 43.4898 181.007 44.286 181.055 44.8213H179.778L179.714 43.4575H179.682C179.245 44.3344 178.291 45 177.014 45C175.123 45 173.668 43.393 173.668 41.0063C173.652 38.3917 175.269 36.7839 177.176 36.7839C178.372 36.7839 179.18 37.3519 179.536 37.9855H179.568V33.2932H180.99Z" fill="#231F20"/>
<path d="M184.064 40.9079C184.064 42.6291 185.05 43.9283 186.44 43.9283C187.797 43.9283 188.817 42.6452 188.817 40.8756C188.817 39.5449 188.153 37.856 186.472 37.856C184.791 37.856 184.064 39.4139 184.064 40.9079ZM190.271 40.8272C190.271 43.7338 188.266 45 186.375 45C184.257 45 182.625 43.4418 182.625 40.9571C182.625 38.3264 184.339 36.7843 186.504 36.7843C188.751 36.7843 190.271 38.424 190.271 40.8272Z" fill="#231F20"/>
<path d="M191.904 39.0862C191.904 38.275 191.888 37.6083 191.84 36.9597H193.1L193.181 38.2589H193.214C193.601 37.5119 194.507 36.781 195.8 36.781C196.883 36.781 198.565 37.43 198.565 40.1264V44.8184H197.142V40.2878C197.142 39.0216 196.673 37.9664 195.332 37.9664C194.395 37.9664 193.666 38.6324 193.424 39.4271C193.359 39.6065 193.327 39.8501 193.327 40.093V44.8184H191.904V39.0862Z" fill="#231F20"/>
<path d="M205.672 40.1294C205.688 39.2202 205.3 37.8069 203.701 37.8069C202.262 37.8069 201.631 39.1376 201.518 40.1294H205.672ZM201.502 41.1515C201.534 43.0844 202.763 43.8791 204.185 43.8791C205.203 43.8791 205.818 43.7016 206.351 43.4737L206.594 44.4966C206.093 44.7237 205.236 45 203.991 45C201.583 45 200.145 43.393 200.145 41.0224C200.145 38.6515 201.534 36.7839 203.813 36.7839C206.367 36.7839 207.046 39.0407 207.046 40.4864C207.046 40.7784 207.014 41.0063 206.998 41.1515H201.502Z" fill="#231F20"/>
<path d="M208.453 43.3599C208.873 43.6362 209.617 43.9283 210.327 43.9283C211.363 43.9283 211.847 43.4091 211.847 42.7593C211.847 42.0765 211.443 41.7037 210.393 41.3149C208.987 40.8107 208.323 40.0306 208.323 39.0892C208.323 37.823 209.342 36.7839 211.023 36.7839C211.815 36.7839 212.51 37.011 212.946 37.2708L212.591 38.3099C212.284 38.1154 211.718 37.8557 210.991 37.8557C210.15 37.8557 209.681 38.3429 209.681 38.9278C209.681 39.5768 210.15 39.8692 211.168 40.2585C212.526 40.7784 213.222 41.4601 213.222 42.6291C213.222 44.0097 212.154 45 210.295 45C209.438 45 208.647 44.7721 208.098 44.4474L208.453 43.3599Z" fill="#231F20"/>
<path d="M214.883 36.9632H216.305V44.8219H214.883V36.9632ZM216.467 34.7548C216.483 35.2412 216.128 35.6313 215.562 35.6313C215.06 35.6313 214.705 35.2412 214.705 34.7548C214.705 34.2514 215.077 33.8613 215.594 33.8613C216.128 33.8613 216.467 34.2514 216.467 34.7548Z" fill="#231F20"/>
<path d="M222.627 40.8111C221.075 40.7788 219.313 41.0551 219.313 42.5806C219.313 43.5063 219.927 43.9444 220.655 43.9444C221.673 43.9444 222.32 43.2946 222.546 42.6291C222.594 42.4834 222.627 42.3213 222.627 42.1748V40.8111ZM224 42.9376C224 43.6205 224.033 44.2864 224.13 44.8217H222.837L222.723 43.8307H222.675C222.238 44.4478 221.398 45 220.283 45C218.699 45 217.891 43.8791 217.891 42.7432C217.891 40.8434 219.571 39.8039 222.594 39.8212V39.6579C222.594 39.0088 222.416 37.8395 220.816 37.8395C220.088 37.8395 219.329 38.067 218.78 38.424L218.456 37.4825C219.103 37.0594 220.04 36.7843 221.026 36.7843C223.418 36.7843 224 38.424 224 39.9987V42.9376Z" fill="#231F20"/>
</g>
<defs>
<clipPath id="clip0_288_5920">
<rect width="300" height="45" fill="white"/>
</clipPath>
</defs>
</svg>
