<svg width="15" height="14" viewBox="0 0 15 14" fill="none" xmlns="http://www.w3.org/2000/svg">
<path d="M6.56029 3.25551L4.3614 0.718316C4.10771 0.425601 3.64321 0.427493 3.34864 0.72245L1.54037 2.53312C1.0022 3.072 0.84816 3.87233 1.15913 4.51387C3.03216 8.37794 6.11527 11.4652 9.97422 13.3407C10.6149 13.652 11.4142 13.4978 11.9524 12.9589L13.7778 11.131C14.0736 10.8349 14.0741 10.3677 13.7791 10.1144L11.2307 7.92716C10.964 7.69823 10.5503 7.72826 10.283 7.99593L9.3965 8.88357C9.2979 8.98231 9.1497 9.0059 9.03699 8.9409C7.58541 8.10396 6.38889 6.90588 5.55304 5.45238C5.48813 5.3395 5.51173 5.19109 5.6103 5.09239L6.49406 4.20745C6.76251 3.93866 6.7915 3.52227 6.56029 3.25551Z" stroke="#434343" stroke-linecap="round" stroke-linejoin="round"/>
</svg>
