<svg width="13" height="14" viewBox="0 0 13 14" fill="none" xmlns="http://www.w3.org/2000/svg">
<path d="M9.477 8.29066C9.31409 8.20819 8.52069 7.82103 8.37241 7.76578C8.22412 7.71297 8.11647 7.68534 8.00841 7.84825C7.90278 8.00709 7.59159 8.37069 7.49653 8.47672C7.40147 8.58275 7.30803 8.59088 7.14756 8.51897C6.98466 8.4365 6.46425 8.26709 5.84634 7.71297C5.36372 7.28356 5.04238 6.75462 4.94691 6.59172C4.85184 6.43084 4.93634 6.33984 5.01678 6.25941C5.09072 6.18547 5.17969 6.07334 5.26216 5.97584C5.34056 5.87834 5.36575 5.81294 5.42303 5.70731C5.47584 5.59316 5.44862 5.50419 5.40841 5.42375C5.36819 5.34331 5.04441 4.54584 4.90912 4.22816C4.77994 3.91291 4.64466 3.95312 4.54512 3.95312C4.45209 3.94459 4.34403 3.94459 4.23638 3.94459C4.12872 3.94459 3.95281 3.98481 3.80453 4.13919C3.65625 4.30209 3.23741 4.69128 3.23741 5.47859C3.23741 6.26794 3.81712 7.03169 3.89756 7.14584C3.98003 7.25147 5.03791 8.87647 6.66087 9.57481C7.04803 9.73772 7.34866 9.83522 7.58347 9.91566C7.97062 10.0383 8.32406 10.0213 8.60316 9.98106C8.91191 9.93028 9.55947 9.58944 9.69516 9.20878C9.83287 8.82569 9.83287 8.50841 9.79266 8.4365C9.75244 8.36256 9.64681 8.32234 9.48391 8.25044L9.477 8.29066ZM6.53372 12.2812H6.52519C5.56441 12.2812 4.61459 12.0208 3.78503 11.5342L3.59044 11.418L1.55919 11.9469L2.10519 9.9705L1.97397 9.76738C1.43853 8.91466 1.15294 7.93072 1.15294 6.91956C1.15294 3.97019 3.56728 1.56437 6.53778 1.56437C7.97672 1.56437 9.32669 2.125 10.3423 3.14062C11.3579 4.14772 11.9186 5.49769 11.9186 6.92809C11.9145 9.87544 9.50219 12.2812 6.53575 12.2812H6.53372ZM11.1146 2.36834C9.87878 1.17478 8.25378 0.5 6.52519 0.5C2.95994 0.5 0.056875 3.39047 0.0548438 6.94272C0.0548438 8.07697 0.351 9.18359 0.918125 10.1631L0 13.5L3.432 12.605C4.37775 13.1149 5.44212 13.3879 6.52559 13.3899H6.52763C10.0949 13.3899 12.998 10.4994 13 6.94475C13 5.22469 12.3293 3.60578 11.1065 2.38906L11.1146 2.36834Z" fill="#434343"/>
</svg>
