<svg width="26" height="25" viewBox="0 0 26 25" fill="none" xmlns="http://www.w3.org/2000/svg">
<path d="M7.19444 0C3.375 0 0.25 3.125 0.25 6.94444V18.0556C0.25 21.875 3.375 25 7.19444 25H18.3056C22.125 25 25.25 21.875 25.25 18.0556V6.94444C25.25 3.125 22.125 0 18.3056 0H7.19444ZM20.3889 3.47222C21.1528 3.47222 21.7778 4.09722 21.7778 4.86111C21.7778 5.625 21.1528 6.25 20.3889 6.25C19.625 6.25 19 5.625 19 4.86111C19 4.09722 19.625 3.47222 20.3889 3.47222ZM12.75 5.55556C16.5694 5.55556 19.6944 8.68056 19.6944 12.5C19.6944 16.3194 16.5694 19.4444 12.75 19.4444C8.93056 19.4444 5.80556 16.3194 5.80556 12.5C5.80556 8.68056 8.93056 5.55556 12.75 5.55556ZM12.75 8.33333C10.4583 8.33333 8.58333 10.2083 8.58333 12.5C8.58333 14.7917 10.4583 16.6667 12.75 16.6667C15.0417 16.6667 16.9167 14.7917 16.9167 12.5C16.9167 10.2083 15.0417 8.33333 12.75 8.33333Z" fill="#42A5DC"/>
</svg>
