<svg width="330" height="50" viewBox="0 0 330 50" fill="none" xmlns="http://www.w3.org/2000/svg">
<path d="M40.1776 13.2598C40.3905 13.2598 40.7676 13.437 41.2814 14.007C43.9568 16.9539 46.9584 19.2829 49.4836 20.6915C49.8481 20.8909 50.0475 21.0441 50.0475 21.2376C50.0475 21.3849 50.0269 21.5283 49.7126 21.5283C49.1432 21.5283 45.9598 20.8909 45.1174 20.4942C44.2712 20.086 42.4525 18.5895 40.2828 14.7939C40.037 14.3656 39.7778 13.9972 39.7778 13.6522C39.7778 13.3097 40.0821 13.2598 40.1776 13.2598Z" fill="white"/>
<path d="M47.3816 2.40819C47.3816 2.40819 47.9098 3.46627 42.7667 4.20239C43.3264 2.59137 43.6979 1.52945 43.6979 1.52945C44.0245 0.561045 43.2872 -1.71661e-05 42.757 -1.71661e-05C42.226 -1.71661e-05 41.8388 0.414587 41.6162 0.937647L40.0883 4.48634C38.0832 4.62212 36.5986 4.54697 35.9249 4.4825C34.9945 4.3907 34.7517 4.91077 34.7517 5.44578C34.7517 6.37918 36.3747 7.32624 37.4116 7.22205C38.0625 7.16057 38.4409 7.13367 38.9748 7.07602L33.2877 20.2644C33.0697 20.7567 32.8951 21.5518 33.8701 21.5518C34.848 21.5518 37.0434 20.647 37.4116 19.597C37.5647 19.1564 38.698 15.8967 39.9608 12.2682C40.5869 12.1427 42.882 11.7878 43.5208 11.7878C44.1267 11.7878 44.439 12.0607 44.439 12.3856C44.439 13.1469 42.6421 15.3288 39.1613 18.0129C38.7821 18.3096 39.0973 18.5406 39.2909 18.5406C39.8291 18.5406 42.2285 16.875 43.416 15.9625C44.7239 14.9621 46.9966 12.3617 46.9966 10.5286C46.9966 9.81173 46.6823 9.15204 45.2579 9.15204C43.8785 9.15204 41.4336 9.46203 40.9152 9.52992C41.251 8.55255 41.5868 7.59865 41.899 6.70497C44.5892 6.32666 46.1916 6.07858 47.138 5.88131C48.4383 5.60206 49.4857 4.84117 49.4857 4.05807C49.4857 2.3941 47.3816 2.40819 47.3816 2.40819Z" fill="white"/>
<path d="M1.63825 10.6617H0.000488281V9.01957H1.63825V6.83267H3.85336V9.01957H5.94769V10.6617H3.85336V14.6824C3.85336 15.4214 4.04945 16.1071 4.89232 16.1071C5.29082 16.1071 5.6687 16.0256 5.89762 15.8778L5.96831 17.6493C5.5008 17.7928 4.99415 17.8525 4.33139 17.8525C2.59432 17.8525 1.63825 16.7608 1.63825 15.0512V10.6617Z" fill="white"/>
<path d="M7.63721 9.02358H9.60109V10.9868H9.63644C9.73449 10.1772 10.6426 8.81907 11.9635 8.81907C12.1777 8.81907 12.4091 8.81907 12.6401 8.8908V11.152C12.4424 11.0384 12.0468 10.9688 11.6491 10.9688C9.85021 10.9688 9.85021 13.2484 9.85021 14.4853V17.6533H7.63721L7.63721 9.02358Z" fill="white"/>
<path d="M21.8261 17.6493H19.7246V16.4816H19.6914C19.0177 17.3184 18.0595 17.8525 16.9027 17.8525C14.8879 17.8525 14.0122 16.412 14.0122 14.4633V9.01957H16.2193V13.6265C16.2193 14.6824 16.2412 16.1071 17.6627 16.1071C19.2634 16.1071 19.6127 14.3476 19.6127 13.2439V9.01957H21.8261V17.6493Z" fill="white"/>
<path d="M29.1164 12.4886C29.0474 11.4007 28.5525 10.4606 27.3167 10.4606C26.0753 10.4606 25.4491 11.3328 25.3498 12.4886H29.1164ZM30.601 17.163C29.7918 17.6151 28.8677 17.8525 27.6769 17.8525C24.8726 17.8525 23.2349 16.2109 23.2349 13.3814C23.2349 10.8807 24.5406 8.81505 27.1841 8.81505C30.3397 8.81505 31.2314 11.0105 31.2314 14.0329H25.3498C25.4491 15.4214 26.4056 16.2109 27.7762 16.2109C28.8551 16.2109 29.7762 15.8082 30.601 15.3377V17.163Z" fill="white"/>
<path d="M48.5513 9.15133H50.5181V11.1094H50.5513C50.6486 10.3041 51.5579 8.94425 52.8813 8.94425C53.0943 8.94425 53.3253 8.94425 53.5559 9.01086V11.2767C53.3615 11.1593 52.9638 11.0936 52.5661 11.0936C50.7643 11.0936 50.7643 13.371 50.7643 14.6083V17.7764H48.5513V9.15133Z" fill="white"/>
<path d="M54.8442 9.14915H57.0602V17.7742H54.8442V9.14915ZM54.8442 5.55371H57.0602V7.69876H54.8442V5.55371Z" fill="white"/>
<path d="M64.33 12.6195C64.2644 11.5256 63.7691 10.5914 62.5302 10.5914C61.2872 10.5914 60.6627 11.462 60.5668 12.6195H64.33ZM65.8146 17.2939C65.0067 17.7481 64.0847 17.9834 62.8934 17.9834C60.0866 17.9834 58.4497 16.3392 58.4497 13.5063C58.4497 11.0077 59.7517 8.94591 62.3985 8.94591C65.5524 8.94591 66.4412 11.1409 66.4412 14.1617H60.5668C60.6627 15.5544 61.6192 16.3392 62.9927 16.3392C64.0641 16.3392 64.9928 15.9391 65.8146 15.4686V17.2939Z" fill="white"/>
<path d="M67.7583 9.22664H69.8594V10.3974H69.8888C70.5861 9.40682 71.5279 9.01957 72.6813 9.01957C74.7003 9.01957 75.5718 10.4623 75.5718 12.4071V17.8525H73.3609V13.2439C73.3609 12.188 73.3432 10.7633 71.9234 10.7633C70.3248 10.7633 69.9734 12.5206 69.9734 13.6325V17.8525H67.7583V9.22664Z" fill="white"/>
<path d="M81.0953 16.238C82.5698 16.238 83.0512 14.6659 83.0512 13.4384C83.0512 12.231 82.4857 10.6888 81.0638 10.6888C79.6314 10.6888 79.2358 12.283 79.2358 13.4384C79.2358 14.6322 79.644 16.238 81.0953 16.238ZM83.1316 16.8097H83.0984C82.4364 17.6465 81.5292 17.9834 80.4907 17.9834C77.877 17.9834 76.9185 15.8016 76.9185 13.4384C76.9185 11.0577 77.877 8.94591 80.4907 8.94591C81.5961 8.94591 82.3716 9.33359 83.0336 10.1542H83.0672V5.2083H85.2781V17.778H83.1316V16.8097Z" fill="white"/>
<path d="M94.7661 6.97016H99.4433V16.3366H99.5368C100.001 15.5189 100.497 14.7648 100.961 14.0108L105.7 6.97016H111.493L104.585 15.9907L111.865 28.1543H106.351L101.24 19.0082L99.4433 21.2392V28.1543H94.7661V6.97016Z" fill="white"/>
<path d="M116.789 20.4583C116.789 23.0982 117.873 25.078 119.887 25.078C121.715 25.078 122.891 23.2237 122.891 20.4583C122.891 18.1638 122.024 15.8381 119.887 15.8381C117.626 15.8381 116.789 18.1954 116.789 20.4583ZM127.755 20.3011C127.755 25.9263 123.821 28.5039 119.763 28.5039C115.334 28.5039 111.926 25.5498 111.926 20.5838C111.926 15.6186 115.148 12.4438 120.011 12.4438C124.657 12.4438 127.755 15.6814 127.755 20.3011Z" fill="white"/>
<path d="M130.351 17.8512C130.351 15.5883 130.289 14.1114 130.227 12.7913H134.285L134.44 15.6199H134.563C135.338 13.3886 137.196 12.4454 138.652 12.4454C139.086 12.4454 139.303 12.4454 139.644 12.5082V17.034C139.303 16.94 138.9 16.8769 138.373 16.8769C136.639 16.8769 135.462 17.8196 135.152 19.2973C135.09 19.6111 135.059 19.9885 135.059 20.3656V28.1602H130.351V17.8512Z" fill="white"/>
<path d="M150.735 18.7295C150.735 17.5664 150.24 15.6182 148.071 15.6182C146.089 15.6182 145.284 17.4405 145.16 18.7295H150.735ZM145.191 21.9979C145.346 23.9777 147.266 24.92 149.466 24.92C151.076 24.92 152.377 24.7005 153.647 24.2924L154.267 27.5292C152.718 28.1581 150.829 28.5039 148.785 28.5039C143.642 28.5039 140.7 25.455 140.7 20.6465C140.7 16.7492 143.084 12.4438 148.35 12.4438C153.245 12.4438 155.103 16.3099 155.103 20.1124C155.103 20.9292 155.01 21.6525 154.948 21.9979H145.191Z" fill="white"/>
<path d="M165.662 20.898C163.185 20.8669 161.264 21.4642 161.264 23.3185C161.264 24.5438 162.069 25.1416 163.122 25.1416C164.299 25.1416 165.26 24.356 165.569 23.3812C165.632 23.1293 165.662 22.8462 165.662 22.5636V20.898ZM170.247 24.4183C170.247 25.8947 170.309 27.3097 170.464 28.1585H166.22L165.941 26.618H165.848C164.857 27.8434 163.308 28.5039 161.512 28.5039C158.445 28.5039 156.618 26.2414 156.618 23.7898C156.618 19.7982 160.149 17.8811 165.508 17.9123V17.6928C165.508 16.8752 165.074 15.7126 162.751 15.7126C161.202 15.7126 159.561 16.2467 158.569 16.8752L157.702 13.7955C158.755 13.1982 160.83 12.4442 163.587 12.4442C168.636 12.4442 170.247 15.4611 170.247 19.0753V24.4183Z" fill="white"/>
<path d="M184.498 28.1519H179.758V6.96777H184.498V28.1519Z" fill="white"/>
<path d="M188.211 17.6886C188.211 15.7711 188.149 14.1372 188.086 12.7858H192.175L192.391 14.8912H192.485C193.104 13.9173 194.653 12.44 197.162 12.44C200.26 12.44 202.583 14.5142 202.583 19.04V28.1543H197.874V19.6373C197.874 17.6575 197.193 16.3061 195.49 16.3061C194.188 16.3061 193.414 17.2168 193.104 18.0972C192.98 18.4115 192.919 18.8512 192.919 19.2914V28.1543H188.211V17.6886Z" fill="white"/>
<path d="M208.962 12.7913L211.006 19.9254C211.379 21.2139 211.657 22.4397 211.874 23.6655H211.966C212.215 22.4086 212.463 21.2455 212.803 19.9254L214.755 12.7913H219.711L214.073 28.1602H209.365L203.852 12.7913H208.962Z" fill="white"/>
<path d="M230.267 18.7295C230.267 17.5664 229.771 15.6182 227.603 15.6182C225.621 15.6182 224.816 17.4405 224.692 18.7295H230.267ZM224.722 21.9979C224.877 23.9777 226.798 24.92 228.997 24.92C230.608 24.92 231.909 24.7005 233.178 24.2924L233.799 27.5292C232.25 28.1581 230.36 28.5039 228.316 28.5039C223.174 28.5039 220.231 25.455 220.231 20.6465C220.231 16.7492 222.616 12.4438 227.882 12.4438C232.776 12.4438 234.635 16.3099 234.635 20.1124C234.635 20.9292 234.541 21.6525 234.48 21.9979H224.722Z" fill="white"/>
<path d="M237.11 23.9777C237.977 24.5118 239.774 25.1416 241.167 25.1416C242.593 25.1416 243.181 24.6382 243.181 23.8522C243.181 23.067 242.717 22.6896 240.952 22.0922C237.823 21.024 236.614 19.2952 236.645 17.5037C236.645 14.6123 239.063 12.4438 242.809 12.4438C244.574 12.4438 246.155 12.8519 247.084 13.3237L246.248 16.6237C245.566 16.2463 244.265 15.7437 242.964 15.7437C241.818 15.7437 241.167 16.2147 241.167 17.0011C241.167 17.724 241.757 18.1006 243.614 18.7607C246.495 19.7666 247.704 21.2434 247.734 23.5063C247.734 26.3665 245.504 28.5039 241.167 28.5039C239.186 28.5039 237.421 28.0325 236.274 27.4036L237.11 23.9777Z" fill="white"/>
<path d="M255.542 8.60842V12.7886H258.919V16.3091H255.542V21.8715C255.542 23.7263 255.976 24.5756 257.401 24.5756C258.052 24.5756 258.331 24.5432 258.794 24.4497L258.826 28.0641C258.207 28.3152 257.092 28.5039 255.759 28.5039C254.242 28.5039 252.972 27.9381 252.228 27.1516C251.361 26.2409 250.927 24.7635 250.927 22.5944V16.3091H248.915V12.7886H250.927V9.89707L255.542 8.60842Z" fill="white"/>
<path d="M261.335 17.6886C261.335 15.7711 261.274 14.1372 261.211 12.7858H265.176L265.393 14.86H265.486C266.137 13.8857 267.468 12.44 270.07 12.44C272.022 12.44 273.571 13.4455 274.221 15.0483H274.283C274.841 14.2311 275.522 13.6342 276.234 13.194C277.071 12.6915 278 12.44 279.115 12.44C282.027 12.44 284.226 14.5142 284.226 19.1031V28.1543H279.641V19.7944C279.641 17.5627 278.93 16.2745 277.411 16.2745C276.328 16.2745 275.553 17.0285 275.244 17.9401C275.119 18.2859 275.058 18.7885 275.058 19.1655V28.1543H270.472V19.5425C270.472 17.5938 269.791 16.2745 268.304 16.2745C267.097 16.2745 266.384 17.2168 266.105 18.0029C265.951 18.3803 265.92 18.8196 265.92 19.1971V28.1543H261.335V17.6886Z" fill="white"/>
<path d="M296.83 18.7295C296.83 17.5664 296.334 15.6182 294.166 15.6182C292.184 15.6182 291.379 17.4405 291.255 18.7295H296.83ZM291.286 21.9979C291.44 23.9777 293.361 24.92 295.56 24.92C297.17 24.92 298.472 24.7005 299.742 24.2924L300.361 27.5292C298.812 28.1581 296.923 28.5039 294.878 28.5039C289.737 28.5039 286.793 25.455 286.793 20.6465C286.793 16.7492 289.179 12.4438 294.444 12.4438C299.339 12.4438 301.198 16.3099 301.198 20.1124C301.198 20.9292 301.104 21.6525 301.043 21.9979H291.286Z" fill="white"/>
<path d="M303.7 17.6886C303.7 15.7711 303.639 14.1372 303.577 12.7858H307.665L307.881 14.8912H307.975C308.594 13.9173 310.144 12.44 312.652 12.44C315.75 12.44 318.073 14.5142 318.073 19.04V28.1543H313.364V19.6373C313.364 17.6575 312.682 16.3061 310.98 16.3061C309.678 16.3061 308.904 17.2168 308.594 18.0972C308.47 18.4115 308.408 18.8512 308.408 19.2914V28.1543H303.7V17.6886Z" fill="white"/>
<path d="M326.623 8.60842V12.7886H330V16.3091H326.623V21.8715C326.623 23.7263 327.056 24.5756 328.482 24.5756C329.132 24.5756 329.411 24.5432 329.876 24.4497L329.906 28.0641C329.287 28.3152 328.172 28.5039 326.84 28.5039C325.322 28.5039 324.052 27.9381 323.309 27.1516C322.441 26.2409 322.007 24.7635 322.007 22.5944V16.3091H319.995V12.7886H322.007V9.89707L326.623 8.60842Z" fill="white"/>
<path d="M97.5374 38.525C96.5594 38.525 96.044 39.3559 96.044 40.2947C96.044 41.1593 96.4353 41.8267 96.9508 42.4761C98.1597 41.7729 98.9424 41.1235 98.9424 40.0954C98.9424 39.3559 98.5334 38.525 97.5555 38.525H97.5374ZM97.2357 48.8092C98.2485 48.8092 99.12 48.34 99.6894 47.7085C98.9778 46.9152 97.6443 45.4354 96.3103 43.8842C95.6703 44.2992 94.7634 45.0746 94.7634 46.3559C94.7634 47.7444 95.7772 48.8092 97.2171 48.8092H97.2357ZM101.574 49.8015C101.236 49.4586 100.916 49.1162 100.454 48.6111C99.4222 49.5854 98.2662 50 96.9508 50C94.6212 50 93.27 48.4117 93.27 46.5907C93.27 44.9311 94.2484 43.7933 95.6173 43.0358V42.982C94.9949 42.1883 94.6212 41.3049 94.6212 40.4378C94.6212 38.9596 95.6703 37.4431 97.6619 37.4431C99.1558 37.4431 100.311 38.4533 100.311 40.0236C100.311 41.3049 99.5821 42.3147 97.6796 43.2711V43.3249C98.6937 44.5153 99.8316 45.8504 100.596 46.7167C101.147 45.8683 101.52 44.6959 101.752 43.1626H103.174C102.854 45.0746 102.338 46.5907 101.449 47.6547C102.089 48.34 102.712 49.0257 103.423 49.8015H101.574Z" fill="white"/>
<path d="M108.032 47.89C108.726 48.3225 109.74 48.6828 110.806 48.6828C112.389 48.6828 113.314 47.8353 113.314 46.6086C113.314 45.4721 112.673 44.8222 111.055 44.1912C109.099 43.4867 107.89 42.4582 107.89 40.7452C107.89 38.8499 109.437 37.4431 111.767 37.4431C112.993 37.4431 113.882 37.7321 114.416 38.0391L113.989 39.3204C113.598 39.1031 112.798 38.7423 111.713 38.7423C110.077 38.7423 109.455 39.7346 109.455 40.5646C109.455 41.7016 110.184 42.2609 111.838 42.9099C113.865 43.7036 114.896 44.6963 114.896 46.4823C114.896 48.3583 113.527 50 110.7 50C109.544 50 108.281 49.6396 107.641 49.2071L108.032 47.89Z" fill="white"/>
<path d="M122.348 44.5883C122.365 43.5781 121.939 42.0077 120.178 42.0077C118.596 42.0077 117.902 43.4863 117.778 44.5883H122.348ZM117.76 45.724C117.796 47.8716 119.147 48.7546 120.712 48.7546C121.832 48.7546 122.507 48.5573 123.094 48.3041L123.361 49.4407C122.81 49.693 121.867 50 120.498 50C117.849 50 116.266 48.2144 116.266 45.5805C116.266 42.9462 117.796 40.8711 120.303 40.8711C123.113 40.8711 123.859 43.3787 123.859 44.9849C123.859 45.3094 123.823 45.5626 123.806 45.724H117.76Z" fill="white"/>
<path d="M127.168 45.0739H127.204C127.418 44.7669 127.72 44.3886 127.969 44.0816L130.494 41.069H132.378L129.053 44.6593L132.841 49.8008H130.938L127.969 45.6161L127.168 46.5175V49.8008H125.622V36.9919H127.168V45.0739Z" fill="white"/>
<path d="M141.052 47.4194C141.052 48.322 141.07 49.1162 141.123 49.8015H139.736L139.647 48.3758H139.612C139.203 49.0795 138.296 50 136.767 50C135.415 50 133.797 49.243 133.797 46.1753V41.0697H135.362V45.9054C135.362 47.565 135.86 48.6828 137.282 48.6828C138.332 48.6828 139.061 47.9438 139.345 47.2401C139.434 47.0049 139.487 46.7167 139.487 46.4276V41.0697H141.052V47.4194Z" fill="white"/>
<path d="M143.474 43.7926C143.474 42.7645 143.456 41.8807 143.403 41.069H144.772L144.826 42.7824H144.896C145.288 41.6112 146.23 40.8705 147.279 40.8705C147.457 40.8705 147.581 40.8884 147.724 40.9243V42.4216C147.563 42.3857 147.403 42.3682 147.19 42.3682C146.088 42.3682 145.305 43.2158 145.092 44.4061C145.056 44.6235 145.021 44.8754 145.021 45.1465V49.8008H143.474V43.7926Z" fill="white"/>
<path d="M149.176 41.0753H150.741V49.8071H149.176V41.0753ZM150.919 38.6216C150.937 39.1621 150.546 39.5955 149.923 39.5955C149.371 39.5955 148.981 39.1621 148.981 38.6216C148.981 38.0623 149.39 37.6289 149.959 37.6289C150.546 37.6289 150.919 38.0623 150.919 38.6216Z" fill="white"/>
<path d="M155.043 38.9776V41.0697H157.283V42.2788H155.043V46.9874C155.043 48.0693 155.345 48.6828 156.217 48.6828C156.643 48.6828 156.892 48.647 157.123 48.5752L157.194 49.766C156.892 49.8924 156.412 50 155.807 50C155.079 50 154.492 49.7472 154.118 49.3147C153.674 48.8455 153.514 48.0693 153.514 47.0412V42.2788H152.18V41.0697H153.514V39.4639L155.043 38.9776Z" fill="white"/>
<path d="M163.405 45.3457C161.699 45.3098 159.76 45.6168 159.76 47.3119C159.76 48.3404 160.436 48.8271 161.236 48.8271C162.356 48.8271 163.068 48.1051 163.317 47.3656C163.37 47.2038 163.405 47.0237 163.405 46.861V45.3457ZM164.916 47.7085C164.916 48.4672 164.952 49.2071 165.059 49.8019H163.637L163.512 48.7008H163.458C162.978 49.3865 162.054 50 160.827 50C159.085 50 158.196 48.7546 158.196 47.4925C158.196 45.3816 160.044 44.2266 163.37 44.2458V44.0644C163.37 43.3432 163.174 42.044 161.414 42.044C160.613 42.044 159.778 42.2968 159.173 42.6934L158.818 41.6474C159.529 41.1773 160.56 40.8716 161.645 40.8716C164.276 40.8716 164.916 42.6934 164.916 44.4431V47.7085Z" fill="white"/>
<path d="M167.044 48.1777C167.506 48.4847 168.324 48.8092 169.107 48.8092C170.244 48.8092 170.778 48.2324 170.778 47.5104C170.778 46.7517 170.333 46.3375 169.178 45.9054C167.631 45.3453 166.902 44.4785 166.902 43.4325C166.902 42.0256 168.022 40.8711 169.871 40.8711C170.743 40.8711 171.507 41.1235 171.987 41.4121L171.595 42.5666C171.258 42.3506 170.636 42.0619 169.836 42.0619C168.911 42.0619 168.395 42.6033 168.395 43.2532C168.395 43.9743 168.911 44.2992 170.031 44.7317C171.524 45.3094 172.289 46.0668 172.289 47.3657C172.289 48.8997 171.116 50 169.071 50C168.129 50 167.257 49.7468 166.653 49.386L167.044 48.1777Z" fill="white"/>
<path d="M179.314 49.804H177.766V37.6445H179.314V49.804Z" fill="white"/>
<path d="M181.966 43.4318C181.966 42.5305 181.948 41.7897 181.895 41.069H183.282L183.37 42.5126H183.406C183.833 41.6825 184.829 40.8705 186.251 40.8705C187.443 40.8705 189.291 41.5916 189.291 44.5876V49.8008H187.727V44.7669C187.727 43.3601 187.211 42.1876 185.735 42.1876C184.704 42.1876 183.904 42.9276 183.637 43.8105C183.566 44.0099 183.531 44.2806 183.531 44.5504V49.8008H181.966V43.4318Z" fill="white"/>
<path d="M197.522 44.6241C197.522 44.4247 197.504 44.1545 197.45 43.9568C197.219 42.9462 196.366 42.1153 195.192 42.1153C193.575 42.1153 192.615 43.5593 192.615 45.4896C192.615 47.2581 193.468 48.7187 195.157 48.7187C196.206 48.7187 197.166 48.0151 197.45 46.8247C197.504 46.6082 197.522 46.3918 197.522 46.1394V44.6241ZM199.086 36.9926V47.5471C199.086 48.322 199.105 49.2067 199.158 49.8015H197.753L197.682 48.2862H197.647C197.166 49.2605 196.117 50 194.713 50C192.633 50 191.032 48.2144 191.032 45.5626C191.014 42.6576 192.793 40.8711 194.891 40.8711C196.206 40.8711 197.095 41.5022 197.487 42.2063H197.522V36.9926H199.086Z" fill="white"/>
<path d="M202.466 45.4533C202.466 47.3656 203.55 48.8092 205.08 48.8092C206.573 48.8092 207.694 47.3836 207.694 45.4174C207.694 43.9389 206.964 42.0624 205.115 42.0624C203.265 42.0624 202.466 43.7933 202.466 45.4533ZM209.294 45.3636C209.294 48.5932 207.089 50 205.008 50C202.678 50 200.883 48.2687 200.883 45.5079C200.883 42.585 202.769 40.8716 205.151 40.8716C207.622 40.8716 209.294 42.6934 209.294 45.3636Z" fill="white"/>
<path d="M211.091 43.4318C211.091 42.5305 211.073 41.7897 211.02 41.069H212.407L212.496 42.5126H212.532C212.958 41.6825 213.954 40.8705 215.377 40.8705C216.568 40.8705 218.417 41.5916 218.417 44.5876V49.8008H216.852V44.7669C216.852 43.3601 216.336 42.1876 214.861 42.1876C213.83 42.1876 213.029 42.9276 212.763 43.8105C212.691 44.0099 212.656 44.2806 212.656 44.5504V49.8008H211.091V43.4318Z" fill="white"/>
<path d="M226.237 44.5883C226.255 43.5781 225.828 42.0077 224.069 42.0077C222.485 42.0077 221.792 43.4863 221.668 44.5883H226.237ZM221.65 45.724C221.686 47.8716 223.038 48.7546 224.601 48.7546C225.721 48.7546 226.397 48.5573 226.984 48.3041L227.251 49.4407C226.7 49.693 225.757 50 224.388 50C221.739 50 220.157 48.2144 220.157 45.5805C220.157 42.9462 221.686 40.8711 224.192 40.8711C227.002 40.8711 227.748 43.3787 227.748 44.9849C227.748 45.3094 227.713 45.5626 227.695 45.724H221.65Z" fill="white"/>
<path d="M229.298 48.1777C229.759 48.4847 230.578 48.8092 231.359 48.8092C232.498 48.8092 233.031 48.2324 233.031 47.5104C233.031 46.7517 232.587 46.3375 231.431 45.9054C229.885 45.3453 229.155 44.4785 229.155 43.4325C229.155 42.0256 230.276 40.8711 232.125 40.8711C232.995 40.8711 233.76 41.1235 234.24 41.4121L233.849 42.5666C233.512 42.3506 232.889 42.0619 232.089 42.0619C231.164 42.0619 230.648 42.6033 230.648 43.2532C230.648 43.9743 231.164 44.2992 232.285 44.7317C233.778 45.3094 234.543 46.0668 234.543 47.3657C234.543 48.8997 233.369 50 231.324 50C230.381 50 229.511 49.7468 228.907 49.386L229.298 48.1777Z" fill="white"/>
<path d="M236.372 41.0753H237.936V49.8071H236.372V41.0753ZM238.114 38.6216C238.132 39.1621 237.742 39.5955 237.119 39.5955C236.567 39.5955 236.176 39.1621 236.176 38.6216C236.176 38.0623 236.585 37.6289 237.154 37.6289C237.742 37.6289 238.114 38.0623 238.114 38.6216Z" fill="white"/>
<path d="M244.89 45.3457C243.183 45.3098 241.245 45.6168 241.245 47.3119C241.245 48.3404 241.92 48.8271 242.72 48.8271C243.841 48.8271 244.552 48.1051 244.801 47.3656C244.854 47.2038 244.89 47.0237 244.89 46.861V45.3457ZM246.4 47.7085C246.4 48.4672 246.437 49.2071 246.544 49.8019H245.121L244.996 48.7008H244.943C244.462 49.3865 243.538 50 242.312 50C240.569 50 239.68 48.7546 239.68 47.4925C239.68 45.3816 241.528 44.2266 244.854 44.2458V44.0644C244.854 43.3432 244.658 42.044 242.898 42.044C242.098 42.044 241.262 42.2968 240.658 42.6934L240.302 41.6474C241.014 41.1773 242.045 40.8716 243.129 40.8716C245.76 40.8716 246.4 42.6934 246.4 44.4431V47.7085Z" fill="white"/>
</svg>
