<svg width="330" height="50" viewBox="0 0 330 50" fill="none" xmlns="http://www.w3.org/2000/svg">
<path d="M40.1776 13.2588C40.3905 13.2588 40.7676 13.436 41.2814 14.006C43.9568 16.9529 46.9584 19.282 49.4836 20.6905C49.8481 20.8899 50.0475 21.0432 50.0475 21.2366C50.0475 21.3839 50.0269 21.5273 49.7126 21.5273C49.1432 21.5273 45.9598 20.8899 45.1174 20.4932C44.2712 20.0851 42.4525 18.5886 40.2828 14.7929C40.037 14.3646 39.7778 13.9962 39.7778 13.6512C39.7778 13.3088 40.0821 13.2588 40.1776 13.2588Z" fill="white"/>
<path d="M47.3816 2.4083C47.3816 2.4083 47.9098 3.46632 42.7667 4.2024C43.3264 2.59147 43.6979 1.52961 43.6979 1.52961C44.0245 0.561258 43.2872 0.000228882 42.757 0.000228882C42.226 0.000228882 41.8388 0.41481 41.6162 0.93784L40.0883 4.48633C38.0832 4.62211 36.5986 4.54696 35.9249 4.48249C34.9945 4.39069 34.7517 4.91073 34.7517 5.44572C34.7517 6.37906 36.3747 7.32607 37.4116 7.22189C38.0625 7.16041 38.4409 7.13351 38.9748 7.07587L33.2877 20.2635C33.0697 20.7558 32.8951 21.5508 33.8701 21.5508C34.848 21.5508 37.0434 20.646 37.4116 19.5961C37.5647 19.1555 38.698 15.8961 39.9608 12.2677C40.5869 12.1422 42.882 11.7874 43.5208 11.7874C44.1267 11.7874 44.439 12.0602 44.439 12.3852C44.439 13.1464 42.6421 15.3282 39.1613 18.0121C38.7821 18.3088 39.0973 18.5398 39.2909 18.5398C39.8291 18.5398 42.2285 16.8743 43.416 15.9618C44.7239 14.9615 46.9966 12.3612 46.9966 10.5283C46.9966 9.81142 46.6823 9.15176 45.2579 9.15176C43.8785 9.15176 41.4336 9.46174 40.9152 9.52963C41.251 8.55231 41.5868 7.59847 41.899 6.70483C44.5892 6.32655 46.1916 6.07848 47.138 5.88122C48.4383 5.60199 49.4857 4.84114 49.4857 4.05809C49.4857 2.39421 47.3816 2.4083 47.3816 2.4083Z" fill="white"/>
<path d="M1.63825 10.6607H0.000488281V9.01859H1.63825V6.8317H3.85336V9.01859H5.94769V10.6607H3.85336V14.6814C3.85336 15.4204 4.04945 16.1061 4.89232 16.1061C5.29082 16.1061 5.6687 16.0246 5.89762 15.8769L5.96831 17.6483C5.5008 17.7918 4.99415 17.8516 4.33139 17.8516C2.59432 17.8516 1.63825 16.7598 1.63825 15.0503V10.6607Z" fill="white"/>
<path d="M7.63721 9.02261H9.60109V10.9858H9.63644C9.73449 10.1763 10.6426 8.81809 11.9635 8.81809C12.1777 8.81809 12.4091 8.81809 12.6401 8.88982V11.151C12.4424 11.0374 12.0468 10.9678 11.6491 10.9678C9.85021 10.9678 9.85021 13.2474 9.85021 14.4843V17.6523H7.63721L7.63721 9.02261Z" fill="white"/>
<path d="M21.8261 17.6483H19.7246V16.4806H19.6914C19.0177 17.3174 18.0595 17.8516 16.9027 17.8516C14.8879 17.8516 14.0122 16.411 14.0122 14.4623V9.01859H16.2193V13.6255C16.2193 14.6814 16.2412 16.1061 17.6627 16.1061C19.2634 16.1061 19.6127 14.3466 19.6127 13.2429V9.01859H21.8261V17.6483Z" fill="white"/>
<path d="M29.1164 12.4877C29.0474 11.3998 28.5525 10.4596 27.3167 10.4596C26.0753 10.4596 25.4491 11.3319 25.3498 12.4877H29.1164ZM30.601 17.162C29.7918 17.6142 28.8677 17.8516 27.6769 17.8516C24.8726 17.8516 23.2349 16.2099 23.2349 13.3804C23.2349 10.8797 24.5406 8.81408 27.1841 8.81408C30.3397 8.81408 31.2314 11.0095 31.2314 14.032H25.3498C25.4491 15.4204 26.4056 16.2099 27.7762 16.2099C28.8551 16.2099 29.7762 15.8073 30.601 15.3368V17.162Z" fill="white"/>
<path d="M48.5513 9.15035H50.5181V11.1084H50.5513C50.6486 10.3031 51.5579 8.94327 52.8813 8.94327C53.0943 8.94327 53.3253 8.94327 53.5559 9.00988V11.2758C53.3615 11.1583 52.9638 11.0926 52.5661 11.0926C50.7643 11.0926 50.7643 13.37 50.7643 14.6073V17.7754H48.5513V9.15035Z" fill="white"/>
<path d="M54.8442 9.15013H57.0602V17.7752H54.8442V9.15013ZM54.8442 5.55469H57.0602V7.69974H54.8442V5.55469Z" fill="white"/>
<path d="M64.33 12.6185C64.2644 11.5246 63.7691 10.5904 62.5302 10.5904C61.2872 10.5904 60.6627 11.461 60.5668 12.6185H64.33ZM65.8146 17.2929C65.0067 17.7472 64.0847 17.9824 62.8934 17.9824C60.0866 17.9824 58.4497 16.3382 58.4497 13.5053C58.4497 11.0067 59.7517 8.94494 62.3985 8.94494C65.5524 8.94494 66.4412 11.1399 66.4412 14.1607H60.5668C60.6627 15.5534 61.6192 16.3382 62.9927 16.3382C64.0641 16.3382 64.9928 15.9381 65.8146 15.4676V17.2929Z" fill="white"/>
<path d="M67.7583 9.22567H69.8594V10.3964H69.8888C70.5861 9.40584 71.5279 9.01859 72.6813 9.01859C74.7003 9.01859 75.5718 10.4613 75.5718 12.4061V17.8516H73.3609V13.2429C73.3609 12.1871 73.3432 10.7623 71.9234 10.7623C70.3248 10.7623 69.9734 12.5197 69.9734 13.6315V17.8516H67.7583V9.22567Z" fill="white"/>
<path d="M81.0953 16.237C82.5698 16.237 83.0512 14.6649 83.0512 13.4374C83.0512 12.23 82.4857 10.6878 81.0638 10.6878C79.6314 10.6878 79.2358 12.2821 79.2358 13.4374C79.2358 14.6312 79.644 16.237 81.0953 16.237ZM83.1316 16.8087H83.0984C82.4364 17.6455 81.5292 17.9824 80.4907 17.9824C77.877 17.9824 76.9185 15.8007 76.9185 13.4374C76.9185 11.0567 77.877 8.94494 80.4907 8.94494C81.5961 8.94494 82.3716 9.33262 83.0336 10.1532H83.0672V5.20732H85.2781V17.7771H83.1316V16.8087Z" fill="white"/>
<path d="M94.7661 6.96843H99.4433V16.3343H99.5368C100.001 15.5167 100.497 14.7626 100.961 14.0086L105.7 6.96843H111.493L104.585 15.9885L111.865 28.1514H106.351L101.24 19.0058L99.4433 21.2367V28.1514H94.7661V6.96843Z" fill="white"/>
<path d="M116.789 20.4553C116.789 23.0952 117.873 25.075 119.887 25.075C121.715 25.075 122.891 23.2207 122.891 20.4553C122.891 18.1608 122.024 15.8352 119.887 15.8352C117.626 15.8352 116.789 18.1924 116.789 20.4553ZM127.755 20.2982C127.755 25.9234 123.821 28.501 119.763 28.501C115.334 28.501 111.926 25.5468 111.926 20.5808C111.926 15.6157 115.148 12.4408 120.011 12.4408C124.657 12.4408 127.755 15.6785 127.755 20.2982Z" fill="white"/>
<path d="M130.351 17.8483C130.351 15.5854 130.289 14.1085 130.227 12.7883H134.285L134.44 15.617H134.563C135.338 13.3857 137.196 12.4425 138.652 12.4425C139.086 12.4425 139.303 12.4425 139.644 12.5053V17.031C139.303 16.9371 138.9 16.8739 138.373 16.8739C136.639 16.8739 135.462 17.8167 135.152 19.2944C135.09 19.6082 135.059 19.9856 135.059 20.3626V28.1572H130.351V17.8483Z" fill="white"/>
<path d="M150.735 18.7266C150.735 17.5635 150.24 15.6153 148.071 15.6153C146.089 15.6153 145.284 17.4376 145.16 18.7266H150.735ZM145.191 21.9949C145.346 23.9748 147.266 24.9171 149.466 24.9171C151.076 24.9171 152.377 24.6976 153.647 24.2894L154.267 27.5262C152.718 28.1551 150.829 28.501 148.785 28.501C143.642 28.501 140.7 25.452 140.7 20.6436C140.7 16.7463 143.084 12.4408 148.35 12.4408C153.245 12.4408 155.103 16.307 155.103 20.1095C155.103 20.9263 155.01 21.6495 154.948 21.9949H145.191Z" fill="white"/>
<path d="M165.662 20.8951C163.185 20.8639 161.264 21.4612 161.264 23.3155C161.264 24.5409 162.069 25.1387 163.122 25.1387C164.299 25.1387 165.26 24.353 165.569 23.3783C165.632 23.1264 165.662 22.8433 165.662 22.5607V20.8951ZM170.247 24.4154C170.247 25.8918 170.309 27.3068 170.464 28.1556H166.22L165.941 26.6151H165.848C164.857 27.8405 163.308 28.501 161.512 28.501C158.445 28.501 156.618 26.2385 156.618 23.7869C156.618 19.7952 160.149 17.8782 165.508 17.9094V17.6899C165.508 16.8723 165.074 15.7096 162.751 15.7096C161.202 15.7096 159.561 16.2438 158.569 16.8723L157.702 13.7926C158.755 13.1953 160.83 12.4413 163.587 12.4413C168.636 12.4413 170.247 15.4582 170.247 19.0724V24.4154Z" fill="white"/>
<path d="M184.498 28.1517H179.758V6.96875H184.498V28.1517Z" fill="white"/>
<path d="M188.211 17.6857C188.211 15.7682 188.149 14.1342 188.086 12.7829H192.175L192.391 14.8882H192.485C193.104 13.9143 194.653 12.4371 197.162 12.4371C200.26 12.4371 202.583 14.5112 202.583 19.037V28.1514H197.874V19.6343C197.874 17.6545 197.193 16.3032 195.49 16.3032C194.188 16.3032 193.414 17.2139 193.104 18.0943C192.98 18.4085 192.919 18.8483 192.919 19.2885V28.1514H188.211V17.6857Z" fill="white"/>
<path d="M208.962 12.7883L211.006 19.9224C211.379 21.211 211.657 22.4368 211.874 23.6626H211.966C212.215 22.4056 212.463 21.2426 212.803 19.9224L214.755 12.7883H219.711L214.073 28.1572H209.365L203.852 12.7883H208.962Z" fill="white"/>
<path d="M230.267 18.7266C230.267 17.5635 229.771 15.6153 227.603 15.6153C225.621 15.6153 224.816 17.4376 224.692 18.7266H230.267ZM224.722 21.9949C224.877 23.9748 226.798 24.9171 228.997 24.9171C230.608 24.9171 231.909 24.6976 233.178 24.2894L233.799 27.5262C232.25 28.1551 230.36 28.501 228.316 28.501C223.174 28.501 220.231 25.452 220.231 20.6436C220.231 16.7463 222.616 12.4408 227.882 12.4408C232.776 12.4408 234.635 16.307 234.635 20.1095C234.635 20.9263 234.541 21.6495 234.48 21.9949H224.722Z" fill="white"/>
<path d="M237.11 23.9748C237.977 24.5089 239.774 25.1387 241.167 25.1387C242.593 25.1387 243.181 24.6353 243.181 23.8492C243.181 23.0641 242.717 22.6866 240.952 22.0893C237.823 21.021 236.614 19.2923 236.645 17.5008C236.645 14.6094 239.063 12.4408 242.809 12.4408C244.574 12.4408 246.155 12.849 247.084 13.3208L246.248 16.6208C245.566 16.2434 244.265 15.7408 242.964 15.7408C241.818 15.7408 241.167 16.2118 241.167 16.9982C241.167 17.7211 241.757 18.0976 243.614 18.7577C246.495 19.7636 247.704 21.2405 247.734 23.5034C247.734 26.3636 245.504 28.501 241.167 28.501C239.186 28.501 237.421 28.0296 236.274 27.4007L237.11 23.9748Z" fill="white"/>
<path d="M255.542 8.60661V12.7866H258.919V16.3069H255.542V21.869C255.542 23.7237 255.976 24.5729 257.401 24.5729C258.052 24.5729 258.331 24.5405 258.794 24.447L258.826 28.0612C258.207 28.3123 257.092 28.501 255.759 28.501C254.242 28.501 252.972 27.9353 252.228 27.1488C251.361 26.2381 250.927 24.7608 250.927 22.5918V16.3069H248.915V12.7866H250.927V9.89519L255.542 8.60661Z" fill="white"/>
<path d="M261.335 17.6857C261.335 15.7682 261.274 14.1342 261.211 12.7829H265.176L265.393 14.8571H265.486C266.137 13.8828 267.468 12.4371 270.07 12.4371C272.022 12.4371 273.571 13.4426 274.221 15.0454H274.283C274.841 14.2282 275.522 13.6313 276.234 13.1911C277.071 12.6885 278 12.4371 279.115 12.4371C282.027 12.4371 284.226 14.5112 284.226 19.1002V28.1514H279.641V19.7915C279.641 17.5597 278.93 16.2716 277.411 16.2716C276.328 16.2716 275.553 17.0256 275.244 17.9372C275.119 18.283 275.058 18.7855 275.058 19.1626V28.1514H270.472V19.5396C270.472 17.5909 269.791 16.2716 268.304 16.2716C267.097 16.2716 266.384 17.2139 266.105 17.9999C265.951 18.3774 265.92 18.8167 265.92 19.1941V28.1514H261.335V17.6857Z" fill="white"/>
<path d="M296.83 18.7266C296.83 17.5635 296.334 15.6153 294.166 15.6153C292.184 15.6153 291.379 17.4376 291.255 18.7266H296.83ZM291.286 21.9949C291.44 23.9748 293.361 24.9171 295.56 24.9171C297.17 24.9171 298.472 24.6976 299.742 24.2894L300.361 27.5262C298.812 28.1551 296.923 28.501 294.878 28.501C289.737 28.501 286.793 25.452 286.793 20.6436C286.793 16.7463 289.179 12.4408 294.444 12.4408C299.339 12.4408 301.198 16.307 301.198 20.1095C301.198 20.9263 301.104 21.6495 301.043 21.9949H291.286Z" fill="white"/>
<path d="M303.7 17.6857C303.7 15.7682 303.639 14.1342 303.577 12.7829H307.665L307.881 14.8882H307.975C308.594 13.9143 310.144 12.4371 312.652 12.4371C315.75 12.4371 318.073 14.5112 318.073 19.037V28.1514H313.364V19.6343C313.364 17.6545 312.682 16.3032 310.98 16.3032C309.678 16.3032 308.904 17.2139 308.594 18.0943C308.47 18.4085 308.408 18.8483 308.408 19.2885V28.1514H303.7V17.6857Z" fill="white"/>
<path d="M326.623 8.60661V12.7866H330V16.3069H326.623V21.869C326.623 23.7237 327.056 24.5729 328.482 24.5729C329.132 24.5729 329.411 24.5405 329.876 24.447L329.906 28.0612C329.287 28.3123 328.172 28.501 326.84 28.501C325.322 28.501 324.052 27.9353 323.309 27.1488C322.441 26.2381 322.007 24.7608 322.007 22.5918V16.3069H319.995V12.7866H322.007V9.89519L326.623 8.60661Z" fill="white"/>
<path d="M97.5374 38.525C96.5594 38.525 96.044 39.3559 96.044 40.2947C96.044 41.1593 96.4353 41.8267 96.9508 42.4761C98.1597 41.7729 98.9424 41.1235 98.9424 40.0954C98.9424 39.3559 98.5334 38.525 97.5555 38.525H97.5374ZM97.2357 48.8092C98.2485 48.8092 99.12 48.34 99.6894 47.7085C98.9778 46.9152 97.6443 45.4354 96.3103 43.8842C95.6703 44.2992 94.7634 45.0746 94.7634 46.3559C94.7634 47.7444 95.7772 48.8092 97.2171 48.8092H97.2357ZM101.574 49.8015C101.236 49.4586 100.916 49.1162 100.454 48.6111C99.4222 49.5854 98.2662 50 96.9508 50C94.6212 50 93.27 48.4117 93.27 46.5907C93.27 44.9311 94.2484 43.7933 95.6173 43.0358V42.982C94.9949 42.1883 94.6212 41.3049 94.6212 40.4378C94.6212 38.9596 95.6703 37.4431 97.6619 37.4431C99.1558 37.4431 100.311 38.4533 100.311 40.0236C100.311 41.3049 99.5821 42.3147 97.6796 43.2711V43.3249C98.6937 44.5153 99.8316 45.8504 100.596 46.7167C101.147 45.8683 101.52 44.6959 101.752 43.1626H103.174C102.854 45.0746 102.338 46.5907 101.449 47.6547C102.089 48.34 102.712 49.0257 103.423 49.8015H101.574Z" fill="white"/>
<path d="M108.032 47.89C108.726 48.3225 109.74 48.6828 110.806 48.6828C112.389 48.6828 113.314 47.8353 113.314 46.6086C113.314 45.4721 112.673 44.8222 111.055 44.1912C109.099 43.4867 107.89 42.4582 107.89 40.7452C107.89 38.8499 109.437 37.4431 111.767 37.4431C112.993 37.4431 113.882 37.7321 114.416 38.0391L113.989 39.3204C113.598 39.1031 112.798 38.7423 111.713 38.7423C110.077 38.7423 109.455 39.7346 109.455 40.5646C109.455 41.7016 110.184 42.2609 111.838 42.9099C113.865 43.7036 114.896 44.6963 114.896 46.4823C114.896 48.3583 113.527 50 110.7 50C109.544 50 108.281 49.6396 107.641 49.2071L108.032 47.89Z" fill="white"/>
<path d="M122.348 44.5883C122.365 43.5781 121.939 42.0077 120.178 42.0077C118.596 42.0077 117.902 43.4863 117.778 44.5883H122.348ZM117.76 45.724C117.796 47.8716 119.147 48.7546 120.712 48.7546C121.832 48.7546 122.507 48.5573 123.094 48.3041L123.361 49.4407C122.81 49.693 121.867 50 120.498 50C117.849 50 116.266 48.2144 116.266 45.5805C116.266 42.9462 117.796 40.8711 120.303 40.8711C123.113 40.8711 123.859 43.3787 123.859 44.9849C123.859 45.3094 123.823 45.5626 123.806 45.724H117.76Z" fill="white"/>
<path d="M127.168 45.0739H127.204C127.418 44.7669 127.72 44.3886 127.969 44.0816L130.494 41.069H132.378L129.053 44.6593L132.841 49.8008H130.938L127.969 45.6161L127.168 46.5175V49.8008H125.622V36.9919H127.168V45.0739Z" fill="white"/>
<path d="M141.052 47.4194C141.052 48.322 141.07 49.1162 141.123 49.8015H139.736L139.647 48.3758H139.612C139.203 49.0795 138.296 50 136.767 50C135.415 50 133.797 49.243 133.797 46.1753V41.0697H135.362V45.9054C135.362 47.565 135.86 48.6828 137.282 48.6828C138.332 48.6828 139.061 47.9438 139.345 47.2401C139.434 47.0049 139.487 46.7167 139.487 46.4276V41.0697H141.052V47.4194Z" fill="white"/>
<path d="M143.474 43.7926C143.474 42.7645 143.456 41.8807 143.403 41.069H144.772L144.826 42.7824H144.896C145.288 41.6112 146.23 40.8705 147.279 40.8705C147.457 40.8705 147.581 40.8884 147.724 40.9243V42.4216C147.563 42.3857 147.403 42.3682 147.19 42.3682C146.088 42.3682 145.305 43.2158 145.092 44.4061C145.056 44.6235 145.021 44.8754 145.021 45.1465V49.8008H143.474V43.7926Z" fill="white"/>
<path d="M149.176 41.0724H150.741V49.8042H149.176V41.0724ZM150.919 38.6187C150.937 39.1592 150.546 39.5926 149.923 39.5926C149.371 39.5926 148.981 39.1592 148.981 38.6187C148.981 38.0593 149.39 37.626 149.959 37.626C150.546 37.626 150.919 38.0593 150.919 38.6187Z" fill="white"/>
<path d="M155.043 38.9776V41.0697H157.283V42.2788H155.043V46.9874C155.043 48.0693 155.345 48.6828 156.217 48.6828C156.643 48.6828 156.892 48.647 157.123 48.5752L157.194 49.766C156.892 49.8924 156.412 50 155.807 50C155.079 50 154.492 49.7472 154.118 49.3147C153.674 48.8455 153.514 48.0693 153.514 47.0412V42.2788H152.18V41.0697H153.514V39.4639L155.043 38.9776Z" fill="white"/>
<path d="M163.405 45.3457C161.699 45.3098 159.76 45.6168 159.76 47.3119C159.76 48.3404 160.436 48.8271 161.236 48.8271C162.356 48.8271 163.068 48.1051 163.317 47.3656C163.37 47.2038 163.405 47.0237 163.405 46.861V45.3457ZM164.916 47.7085C164.916 48.4672 164.952 49.2071 165.059 49.8019H163.637L163.512 48.7008H163.458C162.978 49.3865 162.054 50 160.827 50C159.085 50 158.196 48.7546 158.196 47.4925C158.196 45.3816 160.044 44.2266 163.37 44.2458V44.0644C163.37 43.3432 163.174 42.044 161.414 42.044C160.613 42.044 159.778 42.2968 159.173 42.6934L158.818 41.6474C159.529 41.1773 160.56 40.8716 161.645 40.8716C164.276 40.8716 164.916 42.6934 164.916 44.4431V47.7085Z" fill="white"/>
<path d="M167.044 48.1777C167.506 48.4847 168.324 48.8092 169.107 48.8092C170.244 48.8092 170.778 48.2324 170.778 47.5104C170.778 46.7517 170.333 46.3375 169.178 45.9054C167.631 45.3453 166.902 44.4785 166.902 43.4325C166.902 42.0256 168.022 40.8711 169.871 40.8711C170.743 40.8711 171.507 41.1235 171.987 41.4121L171.595 42.5666C171.258 42.3506 170.636 42.0619 169.836 42.0619C168.911 42.0619 168.395 42.6033 168.395 43.2532C168.395 43.9743 168.911 44.2992 170.031 44.7317C171.524 45.3094 172.289 46.0668 172.289 47.3657C172.289 48.8997 171.116 50 169.071 50C168.129 50 167.257 49.7468 166.653 49.386L167.044 48.1777Z" fill="white"/>
<path d="M179.314 49.801H177.766V37.6416H179.314V49.801Z" fill="white"/>
<path d="M181.966 43.4318C181.966 42.5305 181.948 41.7897 181.895 41.069H183.282L183.37 42.5126H183.406C183.833 41.6825 184.829 40.8705 186.251 40.8705C187.443 40.8705 189.291 41.5916 189.291 44.5876V49.8008H187.727V44.7669C187.727 43.3601 187.211 42.1876 185.735 42.1876C184.704 42.1876 183.904 42.9276 183.637 43.8105C183.566 44.0099 183.531 44.2806 183.531 44.5504V49.8008H181.966V43.4318Z" fill="white"/>
<path d="M197.522 44.6241C197.522 44.4247 197.504 44.1545 197.45 43.9568C197.219 42.9462 196.366 42.1153 195.192 42.1153C193.575 42.1153 192.615 43.5593 192.615 45.4896C192.615 47.2581 193.468 48.7187 195.157 48.7187C196.206 48.7187 197.166 48.0151 197.45 46.8247C197.504 46.6082 197.522 46.3918 197.522 46.1394V44.6241ZM199.086 36.9926V47.5471C199.086 48.322 199.105 49.2067 199.158 49.8015H197.753L197.682 48.2862H197.647C197.166 49.2605 196.117 50 194.713 50C192.633 50 191.032 48.2144 191.032 45.5626C191.014 42.6576 192.793 40.8711 194.891 40.8711C196.206 40.8711 197.095 41.5022 197.487 42.2063H197.522V36.9926H199.086Z" fill="white"/>
<path d="M202.466 45.4533C202.466 47.3656 203.55 48.8092 205.08 48.8092C206.573 48.8092 207.694 47.3836 207.694 45.4174C207.694 43.9389 206.964 42.0624 205.115 42.0624C203.265 42.0624 202.466 43.7933 202.466 45.4533ZM209.294 45.3636C209.294 48.5932 207.089 50 205.008 50C202.678 50 200.883 48.2687 200.883 45.5079C200.883 42.585 202.769 40.8716 205.151 40.8716C207.622 40.8716 209.294 42.6934 209.294 45.3636Z" fill="white"/>
<path d="M211.091 43.4318C211.091 42.5305 211.073 41.7897 211.02 41.069H212.407L212.496 42.5126H212.532C212.958 41.6825 213.954 40.8705 215.377 40.8705C216.568 40.8705 218.417 41.5916 218.417 44.5876V49.8008H216.852V44.7669C216.852 43.3601 216.336 42.1876 214.861 42.1876C213.83 42.1876 213.029 42.9276 212.763 43.8105C212.691 44.0099 212.656 44.2806 212.656 44.5504V49.8008H211.091V43.4318Z" fill="white"/>
<path d="M226.237 44.5883C226.255 43.5781 225.828 42.0077 224.069 42.0077C222.485 42.0077 221.792 43.4863 221.668 44.5883H226.237ZM221.65 45.724C221.686 47.8716 223.038 48.7546 224.601 48.7546C225.721 48.7546 226.397 48.5573 226.984 48.3041L227.251 49.4407C226.7 49.693 225.757 50 224.388 50C221.739 50 220.157 48.2144 220.157 45.5805C220.157 42.9462 221.686 40.8711 224.192 40.8711C227.002 40.8711 227.748 43.3787 227.748 44.9849C227.748 45.3094 227.713 45.5626 227.695 45.724H221.65Z" fill="white"/>
<path d="M229.298 48.1777C229.759 48.4847 230.578 48.8092 231.359 48.8092C232.498 48.8092 233.031 48.2324 233.031 47.5104C233.031 46.7517 232.587 46.3375 231.431 45.9054C229.885 45.3453 229.155 44.4785 229.155 43.4325C229.155 42.0256 230.276 40.8711 232.125 40.8711C232.995 40.8711 233.76 41.1235 234.24 41.4121L233.849 42.5666C233.512 42.3506 232.889 42.0619 232.089 42.0619C231.164 42.0619 230.648 42.6033 230.648 43.2532C230.648 43.9743 231.164 44.2992 232.285 44.7317C233.778 45.3094 234.543 46.0668 234.543 47.3657C234.543 48.8997 233.369 50 231.324 50C230.381 50 229.511 49.7468 228.907 49.386L229.298 48.1777Z" fill="white"/>
<path d="M236.372 41.0724H237.936V49.8042H236.372V41.0724ZM238.114 38.6187C238.132 39.1592 237.742 39.5926 237.119 39.5926C236.567 39.5926 236.176 39.1592 236.176 38.6187C236.176 38.0593 236.585 37.626 237.154 37.626C237.742 37.626 238.114 38.0593 238.114 38.6187Z" fill="white"/>
<path d="M244.89 45.3457C243.183 45.3098 241.245 45.6168 241.245 47.3119C241.245 48.3404 241.92 48.8271 242.72 48.8271C243.841 48.8271 244.552 48.1051 244.801 47.3656C244.854 47.2038 244.89 47.0237 244.89 46.861V45.3457ZM246.4 47.7085C246.4 48.4672 246.437 49.2071 246.544 49.8019H245.121L244.996 48.7008H244.943C244.462 49.3865 243.538 50 242.312 50C240.569 50 239.68 48.7546 239.68 47.4925C239.68 45.3816 241.528 44.2266 244.854 44.2458V44.0644C244.854 43.3432 244.658 42.044 242.898 42.044C242.098 42.044 241.262 42.2968 240.658 42.6934L240.302 41.6474C241.014 41.1773 242.045 40.8716 243.129 40.8716C245.76 40.8716 246.4 42.6934 246.4 44.4431V47.7085Z" fill="white"/>
</svg>
