<svg width="330" height="50" viewBox="0 0 330 50" fill="none" xmlns="http://www.w3.org/2000/svg">
<path d="M40.177 13.2618C40.3899 13.2618 40.7669 13.439 41.2807 14.009C43.9562 16.9558 46.9578 19.2848 49.483 20.6934C49.8474 20.8927 50.0469 21.046 50.0469 21.2394C50.0469 21.3867 50.0263 21.5302 49.7119 21.5302C49.1426 21.5302 45.9592 20.8927 45.1168 20.4961C44.2705 20.0879 42.4518 18.5915 40.2822 14.7959C40.0364 14.3676 39.7772 13.9992 39.7772 13.6542C39.7772 13.3118 40.0814 13.2618 40.177 13.2618Z" fill="white"/>
<path d="M47.381 2.40842C47.381 2.40842 47.9091 3.46658 42.7661 4.20277C43.3257 2.59161 43.6973 1.5296 43.6973 1.5296C44.0238 0.561109 43.2866 0 42.7564 0C42.2253 0 41.8382 0.414639 41.6156 0.937744L40.0877 4.48674C38.0826 4.62254 36.598 4.54738 35.9243 4.4829C34.9939 4.39109 34.7511 4.9112 34.7511 5.44626C34.7511 6.37974 36.3741 7.32688 37.411 7.22269C38.0619 7.16119 38.4402 7.13429 38.9742 7.07664L33.2871 20.2661C33.0691 20.7585 32.8945 21.5536 33.8695 21.5536C34.8474 21.5536 37.0428 20.6488 37.411 19.5987C37.5641 19.158 38.6973 15.8981 39.9602 12.2693C40.5863 12.1437 42.8814 11.7889 43.5201 11.7889C44.1261 11.7889 44.4383 12.0617 44.4383 12.3867C44.4383 13.1481 42.6415 15.3302 39.1606 18.0144C38.7815 18.3112 39.0967 18.5422 39.2903 18.5422C39.8285 18.5422 42.2279 16.8764 43.4154 15.9639C44.7232 14.9634 46.996 12.3628 46.996 10.5296C46.996 9.81259 46.6816 9.15283 45.2572 9.15283C43.8778 9.15283 41.433 9.46285 40.9145 9.53075C41.2503 8.55329 41.5861 7.59932 41.8984 6.70556C44.5886 6.32722 46.191 6.07911 47.1374 5.88183C48.4376 5.60256 49.485 4.8416 49.485 4.05843C49.485 2.39432 47.381 2.40842 47.381 2.40842Z" fill="white"/>
<path d="M1.63776 10.6621H0V9.02005H1.63776V6.8332H3.85286V9.02005H5.94719V10.6621H3.85286V14.6827C3.85286 15.4218 4.04895 16.1075 4.89182 16.1075C5.29031 16.1075 5.66819 16.0259 5.89711 15.8782L5.9678 17.6496C5.50029 17.7931 4.99365 17.8528 4.33089 17.8528C2.59382 17.8528 1.63776 16.7611 1.63776 15.0516V10.6621Z" fill="white"/>
<path d="M7.63669 9.02212H9.60057V10.9852H9.63592C9.73397 10.1757 10.6421 8.81761 11.963 8.81761C12.1771 8.81761 12.4086 8.81761 12.6396 8.88934V11.1505C12.4418 11.0369 12.0463 10.9673 11.6486 10.9673C9.84969 10.9673 9.84969 13.2468 9.84969 14.4837V17.6517H7.63669V9.02212Z" fill="white"/>
<path d="M21.8255 17.6496H19.7241V16.4819H19.6908C19.0171 17.3187 18.0589 17.8528 16.9022 17.8528C14.8874 17.8528 14.0117 16.4123 14.0117 14.4637V9.02004H16.2188V13.6269C16.2188 14.6827 16.2407 16.1075 17.6621 16.1075C19.2629 16.1075 19.6121 14.348 19.6121 13.2443V9.02004H21.8255V17.6496Z" fill="white"/>
<path d="M29.1158 12.489C29.0468 11.4012 28.552 10.461 27.3161 10.461C26.0747 10.461 25.4486 11.3333 25.3492 12.489H29.1158ZM30.6004 17.1633C29.7912 17.6154 28.8671 17.8528 27.6763 17.8528C24.8721 17.8528 23.2343 16.2112 23.2343 13.3818C23.2343 10.8811 24.54 8.81553 27.1835 8.81553C30.3391 8.81553 31.2308 11.0109 31.2308 14.0333H25.3492C25.4486 15.4218 26.405 16.2112 27.7756 16.2112C28.8545 16.2112 29.7757 15.8086 30.6004 15.3381V17.1633Z" fill="white"/>
<path d="M48.5506 9.14985H50.5174V11.1079H50.5507C50.6479 10.3026 51.5572 8.94278 52.8807 8.94278C53.0936 8.94278 53.3246 8.94278 53.5552 9.00938V11.2752C53.3608 11.1578 52.9631 11.0921 52.5655 11.0921C50.7636 11.0921 50.7636 13.3694 50.7636 14.6067V17.7747H48.5506V9.14985Z" fill="white"/>
<path d="M54.8434 9.19019H57.0593V17.815H54.8434V9.19019ZM54.8434 5.59482H57.0593V7.73983H54.8434V5.59482Z" fill="white"/>
<path d="M64.3293 12.6199C64.2637 11.526 63.7684 10.5919 62.5295 10.5919C61.2865 10.5919 60.662 11.4624 60.5661 12.6199H64.3293ZM65.8139 17.2941C65.006 17.7484 64.084 17.9837 62.8927 17.9837C60.0859 17.9837 58.449 16.3395 58.449 13.5067C58.449 11.0081 59.751 8.94638 62.3978 8.94638C65.5517 8.94638 66.4405 11.1413 66.4405 14.162H60.5661C60.662 15.5547 61.6185 16.3395 62.992 16.3395C64.0634 16.3395 64.9921 15.9394 65.8139 15.4689V17.2941Z" fill="white"/>
<path d="M67.7576 9.22712H69.8586V10.3978H69.8881C70.5854 9.40729 71.5271 9.02004 72.6805 9.02004C74.6995 9.02004 75.571 10.4627 75.571 12.4075V17.8528H73.3601V13.2443C73.3601 12.1885 73.3425 10.7637 71.9227 10.7637C70.3241 10.7637 69.9727 12.5211 69.9727 13.6328V17.8528H67.7576V9.22712Z" fill="white"/>
<path d="M81.0946 16.2363C82.5691 16.2363 83.0505 14.6643 83.0505 13.4368C83.0505 12.2294 82.4849 10.6872 81.063 10.6872C79.6306 10.6872 79.2351 12.2815 79.2351 13.4368C79.2351 14.6306 79.6432 16.2363 81.0946 16.2363ZM83.1308 16.808H83.0976C82.4357 17.6449 81.5284 17.9817 80.4899 17.9817C77.8763 17.9817 76.9177 15.8 76.9177 13.4368C76.9177 11.0561 77.8763 8.94443 80.4899 8.94443C81.5953 8.94443 82.3709 9.3321 83.0328 10.1527H83.0665V5.20689H85.2774V17.7764H83.1308V16.808Z" fill="white"/>
<path d="M94.7653 6.96854H99.4425V16.3357H99.5359C100 15.518 100.496 14.7639 100.96 14.0097L105.699 6.96854H111.492L104.584 15.9899L111.864 28.1545H106.35L101.239 19.0076L99.4425 21.2388V28.1545H94.7653V6.96854Z" fill="white"/>
<path d="M116.789 20.4586C116.789 23.0984 117.873 25.0782 119.886 25.0782C121.714 25.0782 122.89 23.2239 122.89 20.4586C122.89 18.1641 122.023 15.8385 119.886 15.8385C117.625 15.8385 116.789 18.1957 116.789 20.4586ZM127.754 20.3015C127.754 25.9265 123.82 28.5041 119.762 28.5041C115.333 28.5041 111.925 25.55 111.925 20.5841C111.925 15.6191 115.147 12.4443 120.01 12.4443C124.656 12.4443 127.754 15.6818 127.754 20.3015Z" fill="white"/>
<path d="M130.35 17.8516C130.35 15.5887 130.288 14.1119 130.226 12.7918H134.284L134.439 15.6203H134.562C135.337 13.3891 137.195 12.4459 138.651 12.4459C139.085 12.4459 139.302 12.4459 139.643 12.5087V17.0344C139.302 16.9405 138.899 16.8773 138.372 16.8773C136.638 16.8773 135.461 17.82 135.151 19.2977C135.089 19.6115 135.058 19.9889 135.058 20.3659V28.1603H130.35V17.8516Z" fill="white"/>
<path d="M150.734 18.7298C150.734 17.5668 150.239 15.6186 148.07 15.6186C146.088 15.6186 145.283 17.4409 145.159 18.7298H150.734ZM145.19 21.9982C145.345 23.9779 147.265 24.9202 149.465 24.9202C151.075 24.9202 152.376 24.7008 153.646 24.2926L154.266 27.5293C152.717 28.1582 150.828 28.5041 148.784 28.5041C143.641 28.5041 140.699 25.4552 140.699 20.6469C140.699 16.7496 143.083 12.4443 148.349 12.4443C153.244 12.4443 155.102 16.3103 155.102 20.1127C155.102 20.9295 155.009 21.6528 154.947 21.9982H145.19Z" fill="white"/>
<path d="M165.661 20.8983C163.184 20.8672 161.263 21.4645 161.263 23.3187C161.263 24.5441 162.068 25.1418 163.121 25.1418C164.298 25.1418 165.259 24.3562 165.568 23.3815C165.631 23.1296 165.661 22.8465 165.661 22.5639V20.8983ZM170.246 24.4186C170.246 25.895 170.308 27.3099 170.463 28.1587H166.219L165.94 26.6182H165.847C164.856 27.8436 163.307 28.5041 161.511 28.5041C158.444 28.5041 156.617 26.2416 156.617 23.7901C156.617 19.7985 160.148 17.8815 165.507 17.9127V17.6932C165.507 16.8756 165.073 15.713 162.75 15.713C161.201 15.713 159.56 16.2471 158.568 16.8756L157.701 13.796C158.754 13.1987 160.829 12.4447 163.586 12.4447C168.635 12.4447 170.246 15.4615 170.246 19.0757V24.4186Z" fill="white"/>
<path d="M184.497 28.1496H179.757V6.96364H184.497V28.1496Z" fill="white"/>
<path d="M188.209 17.689C188.209 15.7716 188.148 14.1376 188.085 12.7863H192.174L192.39 14.8916H192.484C193.103 13.9178 194.652 12.4405 197.161 12.4405C200.259 12.4405 202.582 14.5146 202.582 19.0403V28.1545H197.873V19.6376C197.873 17.6579 197.191 16.3066 195.489 16.3066C194.187 16.3066 193.413 17.2173 193.103 18.0976C192.979 18.4119 192.917 18.8516 192.917 19.2918V28.1545H188.209V17.689Z" fill="white"/>
<path d="M208.961 12.7918L211.005 19.9257C211.378 21.2143 211.655 22.44 211.873 23.6658H211.965C212.213 22.4089 212.462 21.2459 212.802 19.9257L214.754 12.7918H219.71L214.072 28.1603H209.364L203.851 12.7918H208.961Z" fill="white"/>
<path d="M230.266 18.7298C230.266 17.5668 229.77 15.6186 227.602 15.6186C225.619 15.6186 224.814 17.4409 224.691 18.7298H230.266ZM224.721 21.9982C224.876 23.9779 226.797 24.9202 228.996 24.9202C230.607 24.9202 231.907 24.7008 233.177 24.2926L233.798 27.5293C232.248 28.1582 230.359 28.5041 228.315 28.5041C223.173 28.5041 220.23 25.4552 220.23 20.6469C220.23 16.7496 222.615 12.4443 227.881 12.4443C232.774 12.4443 234.634 16.3103 234.634 20.1127C234.634 20.9295 234.54 21.6528 234.479 21.9982H224.721Z" fill="white"/>
<path d="M237.109 23.9779C237.976 24.5121 239.773 25.1418 241.166 25.1418C242.592 25.1418 243.18 24.6384 243.18 23.8524C243.18 23.0672 242.716 22.6898 240.95 22.0925C237.822 21.0243 236.613 19.2956 236.644 17.5041C236.644 14.6127 239.061 12.4443 242.808 12.4443C244.573 12.4443 246.154 12.8524 247.083 13.3242L246.246 16.6241C245.565 16.2467 244.264 15.7442 242.963 15.7442C241.817 15.7442 241.166 16.2151 241.166 17.0015C241.166 17.7244 241.755 18.1009 243.613 18.761C246.494 19.7669 247.702 21.2437 247.733 23.5066C247.733 26.3667 245.503 28.5041 241.166 28.5041C239.185 28.5041 237.419 28.0327 236.273 27.4038L237.109 23.9779Z" fill="white"/>
<path d="M255.541 8.60781V12.7882H258.917V16.3088H255.541V21.8714C255.541 23.7263 255.975 24.5756 257.4 24.5756C258.051 24.5756 258.329 24.5432 258.793 24.4497L258.824 28.0642C258.205 28.3153 257.09 28.5041 255.758 28.5041C254.241 28.5041 252.97 27.9383 252.227 27.1517C251.36 26.2409 250.926 24.7635 250.926 22.5943V16.3088H248.913V12.7882H250.926V9.89651L255.541 8.60781Z" fill="white"/>
<path d="M261.334 17.689C261.334 15.7716 261.273 14.1376 261.21 12.7863H265.175L265.392 14.8605H265.485C266.135 13.8862 267.467 12.4405 270.069 12.4405C272.02 12.4405 273.57 13.446 274.22 15.0488H274.282C274.839 14.2316 275.521 13.6347 276.233 13.1945C277.07 12.692 277.998 12.4405 279.113 12.4405C282.026 12.4405 284.225 14.5146 284.225 19.1035V28.1545H279.64V19.7948C279.64 17.5631 278.928 16.275 277.41 16.275C276.326 16.275 275.551 17.029 275.242 17.9405C275.118 18.2863 275.056 18.7889 275.056 19.1659V28.1545H270.471V19.5429C270.471 17.5943 269.79 16.275 268.303 16.275C267.095 16.275 266.383 17.2173 266.104 18.0033C265.95 18.3807 265.919 18.82 265.919 19.1975V28.1545H261.334V17.689Z" fill="white"/>
<path d="M296.829 18.7298C296.829 17.5668 296.333 15.6186 294.164 15.6186C292.182 15.6186 291.377 17.4409 291.254 18.7298H296.829ZM291.284 21.9982C291.438 23.9779 293.359 24.9202 295.558 24.9202C297.169 24.9202 298.47 24.7008 299.74 24.2926L300.36 27.5293C298.81 28.1582 296.921 28.5041 294.877 28.5041C289.736 28.5041 286.792 25.4552 286.792 20.6469C286.792 16.7496 289.178 12.4443 294.443 12.4443C299.337 12.4443 301.196 16.3103 301.196 20.1127C301.196 20.9295 301.103 21.6528 301.041 21.9982H291.284Z" fill="white"/>
<path d="M303.701 17.689C303.701 15.7716 303.639 14.1376 303.577 12.7863H307.666L307.881 14.8916H307.976C308.594 13.9178 310.144 12.4405 312.652 12.4405C315.75 12.4405 318.073 14.5146 318.073 19.0403V28.1545H313.365V19.6376C313.365 17.6579 312.683 16.3066 310.98 16.3066C309.678 16.3066 308.904 17.2173 308.594 18.0976C308.471 18.4119 308.409 18.8516 308.409 19.2918V28.1545H303.701V17.689Z" fill="white"/>
<path d="M326.623 8.60781V12.7882H330V16.3088H326.623V21.8714C326.623 23.7263 327.057 24.5756 328.482 24.5756C329.132 24.5756 329.411 24.5432 329.876 24.4497L329.906 28.0642C329.287 28.3153 328.172 28.5041 326.841 28.5041C325.322 28.5041 324.052 27.9383 323.31 27.1517C322.442 26.2409 322.008 24.7635 322.008 22.5943V16.3088H319.995V12.7882H322.008V9.89651L326.623 8.60781Z" fill="white"/>
<path d="M97.5366 38.5251C96.5586 38.5251 96.0431 39.3559 96.0431 40.2948C96.0431 41.1594 96.4345 41.8267 96.95 42.4761C98.1589 41.7729 98.9416 41.1235 98.9416 40.0954C98.9416 39.3559 98.5326 38.5251 97.5547 38.5251H97.5366ZM97.2348 48.8091C98.2477 48.8091 99.1192 48.3399 99.6885 47.7084C98.977 46.9151 97.6434 45.4353 96.3095 43.8842C95.6695 44.2992 94.7626 45.0745 94.7626 46.3558C94.7626 47.7443 95.7764 48.8091 97.2163 48.8091H97.2348ZM101.573 49.8013C101.235 49.4585 100.915 49.1161 100.453 48.611C99.4213 49.5853 98.2654 49.9999 96.95 49.9999C94.6204 49.9999 93.2692 48.4116 93.2692 46.5906C93.2692 44.9311 94.2476 43.7932 95.6164 43.0358V42.982C94.9941 42.1883 94.6204 41.305 94.6204 40.4378C94.6204 38.9597 95.6695 37.4432 97.6611 37.4432C99.155 37.4432 100.31 38.4534 100.31 40.0237C100.31 41.305 99.5812 42.3147 97.6788 43.2711V43.3249C98.6929 44.5152 99.8308 45.8503 100.595 46.7166C101.147 45.8682 101.519 44.6958 101.751 43.1626H103.174C102.853 45.0745 102.337 46.5906 101.448 47.6546C102.088 48.3399 102.711 49.0255 103.422 49.8013H101.573Z" fill="white"/>
<path d="M108.032 47.8899C108.725 48.3224 109.739 48.6827 110.806 48.6827C112.388 48.6827 113.313 47.8352 113.313 46.6086C113.313 45.472 112.672 44.8222 111.054 44.1912C109.098 43.4867 107.889 42.4582 107.889 40.7452C107.889 38.85 109.436 37.4432 111.766 37.4432C112.992 37.4432 113.882 37.7322 114.415 38.0392L113.988 39.3205C113.597 39.1032 112.797 38.7424 111.712 38.7424C110.076 38.7424 109.454 39.7346 109.454 40.5646C109.454 41.7016 110.183 42.2609 111.837 42.9099C113.864 43.7036 114.895 44.6963 114.895 46.4822C114.895 48.3582 113.526 49.9999 110.699 49.9999C109.543 49.9999 108.28 49.6395 107.64 49.207L108.032 47.8899Z" fill="white"/>
<path d="M122.347 44.5882C122.364 43.5781 121.938 42.0077 120.177 42.0077C118.595 42.0077 117.901 43.4863 117.777 44.5882H122.347ZM117.759 45.7239C117.795 47.8715 119.146 48.7544 120.711 48.7544C121.831 48.7544 122.507 48.5572 123.093 48.304L123.36 49.4405C122.809 49.6929 121.867 49.9999 120.497 49.9999C117.848 49.9999 116.265 48.2143 116.265 45.5805C116.265 42.9462 117.795 40.8712 120.302 40.8712C123.112 40.8712 123.858 43.3787 123.858 44.9849C123.858 45.3094 123.822 45.5625 123.805 45.7239H117.759Z" fill="white"/>
<path d="M127.168 45.0758H127.203C127.417 44.7688 127.719 44.3906 127.968 44.0836L130.493 41.071H132.377L129.052 44.6612L132.84 49.8026H130.937L127.968 45.618L127.168 46.5193V49.8026H125.621V36.994H127.168V45.0758Z" fill="white"/>
<path d="M141.051 47.4194C141.051 48.3219 141.069 49.1161 141.122 49.8013H139.735L139.646 48.3757H139.611C139.202 49.0793 138.295 49.9999 136.766 49.9999C135.414 49.9999 133.796 49.2429 133.796 46.1752V41.0697H135.361V45.9054C135.361 47.5649 135.859 48.6827 137.282 48.6827C138.331 48.6827 139.06 47.9436 139.344 47.24C139.433 47.0048 139.486 46.7166 139.486 46.4275V41.0697H141.051V47.4194Z" fill="white"/>
<path d="M143.473 43.7945C143.473 42.7664 143.455 41.8826 143.402 41.071H144.771L144.825 42.7844H144.895C145.287 41.6132 146.229 40.8725 147.278 40.8725C147.456 40.8725 147.58 40.8904 147.723 40.9263V42.4236C147.562 42.3877 147.402 42.3702 147.189 42.3702C146.087 42.3702 145.304 43.2177 145.091 44.4081C145.055 44.6254 145.02 44.8773 145.02 45.1484V49.8026H143.473V43.7945Z" fill="white"/>
<path d="M149.175 41.076H150.74V49.8076H149.175V41.076ZM150.918 38.6223C150.936 39.1629 150.545 39.5962 149.922 39.5962C149.37 39.5962 148.98 39.1629 148.98 38.6223C148.98 38.063 149.389 37.6297 149.958 37.6297C150.545 37.6297 150.918 38.063 150.918 38.6223Z" fill="white"/>
<path d="M155.042 38.9777V41.0697H157.282V42.2788H155.042V46.9873C155.042 48.0692 155.344 48.6827 156.216 48.6827C156.642 48.6827 156.891 48.6468 157.122 48.5751L157.193 49.7659C156.891 49.8923 156.411 49.9999 155.806 49.9999C155.078 49.9999 154.491 49.7471 154.117 49.3146C153.673 48.8454 153.513 48.0692 153.513 47.0411V42.2788H152.179V41.0697H153.513V39.464L155.042 38.9777Z" fill="white"/>
<path d="M163.404 45.3456C161.698 45.3098 159.759 45.6168 159.759 47.3118C159.759 48.3403 160.435 48.827 161.235 48.827C162.355 48.827 163.067 48.105 163.316 47.3656C163.369 47.2037 163.404 47.0236 163.404 46.8609V45.3456ZM164.915 47.7084C164.915 48.4671 164.951 49.207 165.058 49.8017H163.636L163.511 48.7006H163.457C162.977 49.3863 162.053 49.9999 160.826 49.9999C159.084 49.9999 158.195 48.7544 158.195 47.4924C158.195 45.3815 160.043 44.2266 163.369 44.2458V44.0644C163.369 43.3432 163.173 42.044 161.413 42.044C160.612 42.044 159.777 42.2968 159.172 42.6934L158.817 41.6474C159.528 41.1773 160.559 40.8716 161.644 40.8716C164.275 40.8716 164.915 42.6934 164.915 44.4431V47.7084Z" fill="white"/>
<path d="M167.043 48.1776C167.505 48.4846 168.323 48.8091 169.105 48.8091C170.243 48.8091 170.777 48.2323 170.777 47.5103C170.777 46.7516 170.332 46.3375 169.177 45.9054C167.63 45.3452 166.901 44.4785 166.901 43.4325C166.901 42.0257 168.021 40.8712 169.87 40.8712C170.742 40.8712 171.506 41.1235 171.986 41.4121L171.594 42.5666C171.257 42.3506 170.635 42.062 169.835 42.062C168.91 42.062 168.394 42.6033 168.394 43.2532C168.394 43.9743 168.91 44.2992 170.03 44.7317C171.523 45.3094 172.288 46.0668 172.288 47.3656C172.288 48.8996 171.115 49.9999 169.07 49.9999C168.128 49.9999 167.256 49.7467 166.652 49.3859L167.043 48.1776Z" fill="white"/>
<path d="M179.313 49.8045H177.765V37.6453H179.313V49.8045Z" fill="white"/>
<path d="M181.965 43.4338C181.965 42.5325 181.947 41.7917 181.894 41.071H183.28L183.369 42.5145H183.405C183.832 41.6845 184.828 40.8725 186.25 40.8725C187.442 40.8725 189.29 41.5936 189.29 44.5895V49.8026H187.726V44.7688C187.726 43.362 187.21 42.1896 185.734 42.1896C184.703 42.1896 183.903 42.9295 183.636 43.8125C183.565 44.0119 183.53 44.2825 183.53 44.5524V49.8026H181.965V43.4338Z" fill="white"/>
<path d="M197.521 44.6241C197.521 44.4247 197.503 44.1544 197.449 43.9568C197.218 42.9462 196.365 42.1153 195.191 42.1153C193.574 42.1153 192.613 43.5593 192.613 45.4895C192.613 47.258 193.467 48.7186 195.155 48.7186C196.205 48.7186 197.165 48.015 197.449 46.8246C197.503 46.6081 197.521 46.3917 197.521 46.1394V44.6241ZM199.085 36.9928V47.547C199.085 48.3219 199.104 49.2066 199.157 49.8013H197.752L197.681 48.2861H197.646C197.165 49.2604 196.116 49.9999 194.711 49.9999C192.631 49.9999 191.031 48.2143 191.031 45.5625C191.013 42.6576 192.791 40.8712 194.889 40.8712C196.205 40.8712 197.094 41.5022 197.485 42.2063H197.521V36.9928H199.085Z" fill="white"/>
<path d="M202.465 45.4532C202.465 47.3656 203.549 48.8091 205.079 48.8091C206.571 48.8091 207.693 47.3835 207.693 45.4174C207.693 43.9388 206.963 42.0624 205.114 42.0624C203.264 42.0624 202.465 43.7932 202.465 45.4532ZM209.293 45.3636C209.293 48.593 207.088 49.9999 205.007 49.9999C202.677 49.9999 200.882 48.2686 200.882 45.5079C200.882 42.585 202.768 40.8716 205.149 40.8716C207.621 40.8716 209.293 42.6934 209.293 45.3636Z" fill="white"/>
<path d="M211.09 43.4338C211.09 42.5325 211.072 41.7917 211.019 41.071H212.405L212.495 42.5145H212.531C212.957 41.6845 213.953 40.8725 215.375 40.8725C216.567 40.8725 218.416 41.5936 218.416 44.5895V49.8026H216.851V44.7688C216.851 43.362 216.335 42.1896 214.86 42.1896C213.829 42.1896 213.027 42.9295 212.762 43.8125C212.69 44.0119 212.655 44.2825 212.655 44.5524V49.8026H211.09V43.4338Z" fill="white"/>
<path d="M226.236 44.5882C226.254 43.5781 225.827 42.0077 224.067 42.0077C222.484 42.0077 221.791 43.4863 221.667 44.5882H226.236ZM221.649 45.7239C221.684 47.8715 223.036 48.7544 224.6 48.7544C225.72 48.7544 226.396 48.5572 226.983 48.304L227.25 49.4405C226.699 49.6929 225.756 49.9999 224.387 49.9999C221.738 49.9999 220.156 48.2143 220.156 45.5805C220.156 42.9462 221.684 40.8712 224.191 40.8712C227.001 40.8712 227.747 43.3787 227.747 44.9849C227.747 45.3094 227.712 45.5625 227.694 45.7239H221.649Z" fill="white"/>
<path d="M229.296 48.1776C229.758 48.4846 230.576 48.8091 231.358 48.8091C232.497 48.8091 233.029 48.2323 233.029 47.5103C233.029 46.7516 232.585 46.3375 231.43 45.9054C229.884 45.3452 229.154 44.4785 229.154 43.4325C229.154 42.0257 230.274 40.8712 232.123 40.8712C232.994 40.8712 233.759 41.1235 234.239 41.4121L233.848 42.5666C233.511 42.3506 232.888 42.062 232.088 42.062C231.163 42.062 230.647 42.6033 230.647 43.2532C230.647 43.9743 231.163 44.2992 232.283 44.7317C233.776 45.3094 234.542 46.0668 234.542 47.3656C234.542 48.8996 233.367 49.9999 231.323 49.9999C230.38 49.9999 229.509 49.7467 228.905 49.3859L229.296 48.1776Z" fill="white"/>
<path d="M236.371 41.076H237.935V49.8076H236.371V41.076ZM238.113 38.6223C238.131 39.1629 237.74 39.5962 237.118 39.5962C236.566 39.5962 236.175 39.1629 236.175 38.6223C236.175 38.063 236.584 37.6297 237.153 37.6297C237.74 37.6297 238.113 38.063 238.113 38.6223Z" fill="white"/>
<path d="M244.889 45.3456C243.181 45.3098 241.243 45.6168 241.243 47.3118C241.243 48.3403 241.919 48.827 242.719 48.827C243.839 48.827 244.551 48.105 244.8 47.3656C244.853 47.2037 244.889 47.0236 244.889 46.8609V45.3456ZM246.399 47.7084C246.399 48.4671 246.435 49.207 246.543 49.8017H245.12L244.995 48.7006H244.942C244.46 49.3863 243.537 49.9999 242.311 49.9999C240.568 49.9999 239.679 48.7544 239.679 47.4924C239.679 45.3815 241.527 44.2266 244.853 44.2458V44.0644C244.853 43.3432 244.657 42.044 242.897 42.044C242.096 42.044 241.261 42.2968 240.657 42.6934L240.301 41.6474C241.012 41.1773 242.043 40.8716 243.127 40.8716C245.759 40.8716 246.399 42.6934 246.399 44.4431V47.7084Z" fill="white"/>
</svg>
