<svg width="330" height="50" viewBox="0 0 330 50" fill="none" xmlns="http://www.w3.org/2000/svg">
<path d="M40.1771 13.2588C40.39 13.2588 40.7671 13.436 41.2809 14.006C43.9563 16.9529 46.9579 19.282 49.4832 20.6905C49.8476 20.8899 50.047 21.0432 50.047 21.2366C50.047 21.3839 50.0264 21.5273 49.7121 21.5273C49.1427 21.5273 45.9594 20.8899 45.1169 20.4932C44.2707 20.0851 42.452 18.5886 40.2823 14.7929C40.0366 14.3646 39.7773 13.9962 39.7773 13.6512C39.7773 13.3088 40.0816 13.2588 40.1771 13.2588Z" fill="white"/>
<path d="M47.3812 2.4083C47.3812 2.4083 47.9093 3.46632 42.7662 4.2024C43.3259 2.59147 43.6975 1.52961 43.6975 1.52961C44.024 0.561258 43.2867 0.000228882 42.7565 0.000228882C42.2255 0.000228882 41.8383 0.41481 41.6157 0.93784L40.0878 4.48633C38.0827 4.62211 36.5981 4.54696 35.9244 4.48249C34.994 4.39069 34.7512 4.91073 34.7512 5.44572C34.7512 6.37906 36.3742 7.32607 37.4111 7.22189C38.0621 7.16041 38.4404 7.13351 38.9744 7.07587L33.2872 20.2635C33.0692 20.7558 32.8946 21.5508 33.8696 21.5508C34.8475 21.5508 37.0429 20.646 37.4111 19.5961C37.5643 19.1555 38.6975 15.8961 39.9603 12.2677C40.5865 12.1422 42.8815 11.7874 43.5203 11.7874C44.1262 11.7874 44.4385 12.0602 44.4385 12.3852C44.4385 13.1464 42.6417 15.3282 39.1608 18.0121C38.7816 18.3088 39.0968 18.5398 39.2904 18.5398C39.8286 18.5398 42.228 16.8743 43.4155 15.9618C44.7234 14.9615 46.9961 12.3612 46.9961 10.5283C46.9961 9.81142 46.6818 9.15176 45.2574 9.15176C43.878 9.15176 41.4331 9.46174 40.9147 9.52963C41.2505 8.55231 41.5863 7.59847 41.8985 6.70483C44.5887 6.32655 46.1911 6.07848 47.1375 5.88122C48.4378 5.60199 49.4852 4.84114 49.4852 4.05809C49.4852 2.39421 47.3812 2.4083 47.3812 2.4083Z" fill="white"/>
<path d="M1.63776 10.6607H0V9.01859H1.63776V6.8317H3.85287V9.01859H5.94721V10.6607H3.85287V14.6814C3.85287 15.4204 4.04896 16.1061 4.89183 16.1061C5.29033 16.1061 5.66821 16.0246 5.89713 15.8769L5.96782 17.6483C5.50031 17.7918 4.99367 17.8516 4.3309 17.8516C2.59383 17.8516 1.63776 16.7598 1.63776 15.0503V10.6607Z" fill="white"/>
<path d="M7.63672 9.02261H9.6006V10.9858H9.63595C9.734 10.1763 10.6421 8.81809 11.963 8.81809C12.1772 8.81809 12.4086 8.81809 12.6396 8.88982V11.151C12.4419 11.0374 12.0463 10.9678 11.6487 10.9678C9.84972 10.9678 9.84972 13.2474 9.84972 14.4843V17.6523H7.63672L7.63672 9.02261Z" fill="white"/>
<path d="M21.8256 17.6483H19.7241V16.4806H19.6909C19.0172 17.3174 18.059 17.8516 16.9022 17.8516C14.8874 17.8516 14.0117 16.411 14.0117 14.4623V9.01859H16.2188V13.6255C16.2188 14.6814 16.2407 16.1061 17.6622 16.1061C19.2629 16.1061 19.6122 14.3466 19.6122 13.2429V9.01859H21.8256V17.6483Z" fill="white"/>
<path d="M29.1159 12.4877C29.0469 11.3998 28.5521 10.4596 27.3162 10.4596C26.0748 10.4596 25.4486 11.3319 25.3493 12.4877H29.1159ZM30.6005 17.162C29.7913 17.6142 28.8672 17.8516 27.6764 17.8516C24.8721 17.8516 23.2344 16.2099 23.2344 13.3804C23.2344 10.8797 24.5401 8.81408 27.1836 8.81408C30.3392 8.81408 31.2309 11.0095 31.2309 14.032H25.3493C25.4486 15.4204 26.4051 16.2099 27.7757 16.2099C28.8546 16.2099 29.7758 15.8073 30.6005 15.3368V17.162Z" fill="white"/>
<path d="M48.5508 9.15035H50.5176V11.1084H50.5509C50.6481 10.3031 51.5574 8.94327 52.8808 8.94327C53.0938 8.94327 53.3248 8.94327 53.5554 9.00988V11.2758C53.361 11.1583 52.9633 11.0926 52.5657 11.0926C50.7638 11.0926 50.7638 13.37 50.7638 14.6073V17.7754H48.5508V9.15035Z" fill="white"/>
<path d="M54.8438 9.15013H57.0597V17.7752H54.8438V9.15013ZM54.8438 5.55469H57.0597V7.69974H54.8438V5.55469Z" fill="white"/>
<path d="M64.3295 12.6185C64.2639 11.5246 63.7686 10.5904 62.5297 10.5904C61.2867 10.5904 60.6622 11.461 60.5663 12.6185H64.3295ZM65.8141 17.2929C65.0062 17.7472 64.0842 17.9824 62.8929 17.9824C60.0861 17.9824 58.4492 16.3382 58.4492 13.5053C58.4492 11.0067 59.7512 8.94494 62.398 8.94494C65.5519 8.94494 66.4407 11.1399 66.4407 14.1607H60.5663C60.6622 15.5534 61.6187 16.3382 62.9922 16.3382C64.0636 16.3382 64.9923 15.9381 65.8141 15.4676V17.2929Z" fill="white"/>
<path d="M67.7578 9.22567H69.8589V10.3964H69.8883C70.5856 9.40584 71.5274 9.01859 72.6808 9.01859C74.6998 9.01859 75.5713 10.4613 75.5713 12.4061V17.8516H73.3604V13.2429C73.3604 12.1871 73.3427 10.7623 71.9229 10.7623C70.3243 10.7623 69.9729 12.5197 69.9729 13.6315V17.8516H67.7578V9.22567Z" fill="white"/>
<path d="M81.0949 16.237C82.5693 16.237 83.0507 14.6649 83.0507 13.4374C83.0507 12.23 82.4852 10.6878 81.0633 10.6878C79.6309 10.6878 79.2353 12.2821 79.2353 13.4374C79.2353 14.6312 79.6435 16.237 81.0949 16.237ZM83.1311 16.8087H83.0979C82.436 17.6455 81.5287 17.9824 80.4902 17.9824C77.8766 17.9824 76.918 15.8007 76.918 13.4374C76.918 11.0567 77.8766 8.94494 80.4902 8.94494C81.5956 8.94494 82.3712 9.33262 83.0331 10.1532H83.0667V5.20732H85.2776V17.7771H83.1311V16.8087Z" fill="white"/>
<path d="M94.7656 6.96843H99.4428V16.3343H99.5363C100 15.5167 100.497 14.7626 100.961 14.0086L105.7 6.96843H111.493L104.585 15.9885L111.864 28.1514H106.35L101.24 19.0058L99.4428 21.2367V28.1514H94.7656V6.96843Z" fill="white"/>
<path d="M116.789 20.4553C116.789 23.0952 117.873 25.075 119.886 25.075C121.714 25.075 122.891 23.2207 122.891 20.4553C122.891 18.1608 122.024 15.8352 119.886 15.8352C117.625 15.8352 116.789 18.1924 116.789 20.4553ZM127.754 20.2982C127.754 25.9234 123.82 28.501 119.763 28.501C115.333 28.501 111.926 25.5468 111.926 20.5808C111.926 15.6157 115.147 12.4408 120.011 12.4408C124.657 12.4408 127.754 15.6785 127.754 20.2982Z" fill="white"/>
<path d="M130.351 17.8483C130.351 15.5854 130.289 14.1085 130.227 12.7883H134.284L134.439 15.617H134.563C135.338 13.3857 137.196 12.4425 138.652 12.4425C139.085 12.4425 139.302 12.4425 139.643 12.5053V17.031C139.302 16.9371 138.9 16.8739 138.373 16.8739C136.638 16.8739 135.461 17.8167 135.152 19.2944C135.09 19.6082 135.059 19.9856 135.059 20.3626V28.1572H130.351V17.8483Z" fill="white"/>
<path d="M150.735 18.7266C150.735 17.5635 150.24 15.6153 148.071 15.6153C146.088 15.6153 145.283 17.4376 145.16 18.7266H150.735ZM145.191 21.9949C145.345 23.9748 147.266 24.9171 149.465 24.9171C151.076 24.9171 152.376 24.6976 153.646 24.2894L154.266 27.5262C152.717 28.1551 150.828 28.501 148.784 28.501C143.642 28.501 140.699 25.452 140.699 20.6436C140.699 16.7463 143.084 12.4408 148.35 12.4408C153.244 12.4408 155.102 16.307 155.102 20.1095C155.102 20.9263 155.009 21.6495 154.948 21.9949H145.191Z" fill="white"/>
<path d="M165.661 20.8951C163.183 20.8639 161.263 21.4612 161.263 23.3155C161.263 24.5409 162.068 25.1387 163.121 25.1387C164.298 25.1387 165.258 24.353 165.568 23.3783C165.63 23.1264 165.661 22.8433 165.661 22.5607V20.8951ZM170.245 24.4154C170.245 25.8918 170.307 27.3068 170.462 28.1556H166.219L165.94 26.6151H165.847C164.856 27.8405 163.307 28.501 161.511 28.501C158.444 28.501 156.616 26.2385 156.616 23.7869C156.616 19.7952 160.147 17.8782 165.506 17.9094V17.6899C165.506 16.8723 165.072 15.7096 162.749 15.7096C161.201 15.7096 159.559 16.2438 158.568 16.8723L157.701 13.7926C158.753 13.1953 160.829 12.4413 163.586 12.4413C168.635 12.4413 170.245 15.4582 170.245 19.0724V24.4154Z" fill="white"/>
<path d="M184.496 28.1517H179.757V6.96875H184.496V28.1517Z" fill="white"/>
<path d="M188.209 17.6857C188.209 15.7682 188.147 14.1342 188.085 12.7829H192.174L192.39 14.8882H192.484C193.103 13.9143 194.652 12.4371 197.16 12.4371C200.258 12.4371 202.582 14.5112 202.582 19.037V28.1514H197.872V19.6343C197.872 17.6545 197.191 16.3032 195.489 16.3032C194.187 16.3032 193.413 17.2139 193.103 18.0943C192.979 18.4085 192.917 18.8483 192.917 19.2885V28.1514H188.209V17.6857Z" fill="white"/>
<path d="M208.96 12.7883L211.004 19.9224C211.377 21.211 211.655 22.4368 211.872 23.6626H211.965C212.213 22.4056 212.461 21.2426 212.801 19.9224L214.754 12.7883H219.71L214.072 28.1572H209.364L203.851 12.7883H208.96Z" fill="white"/>
<path d="M230.266 18.7266C230.266 17.5635 229.77 15.6153 227.602 15.6153C225.619 15.6153 224.814 17.4376 224.69 18.7266H230.266ZM224.721 21.9949C224.876 23.9748 226.797 24.9171 228.996 24.9171C230.606 24.9171 231.907 24.6976 233.177 24.2894L233.797 27.5262C232.248 28.1551 230.359 28.501 228.314 28.501C223.173 28.501 220.229 25.452 220.229 20.6436C220.229 16.7463 222.615 12.4408 227.881 12.4408C232.774 12.4408 234.634 16.307 234.634 20.1095C234.634 20.9263 234.539 21.6495 234.479 21.9949H224.721Z" fill="white"/>
<path d="M237.109 23.9748C237.976 24.5089 239.773 25.1387 241.166 25.1387C242.592 25.1387 243.18 24.6353 243.18 23.8492C243.18 23.0641 242.715 22.6866 240.95 22.0893C237.821 21.021 236.613 19.2923 236.644 17.5008C236.644 14.6094 239.061 12.4408 242.808 12.4408C244.573 12.4408 246.154 12.849 247.082 13.3208L246.246 16.6208C245.565 16.2434 244.264 15.7408 242.963 15.7408C241.817 15.7408 241.166 16.2118 241.166 16.9982C241.166 17.7211 241.755 18.0976 243.613 18.7577C246.494 19.7636 247.702 21.2405 247.733 23.5034C247.733 26.3636 245.503 28.501 241.166 28.501C239.185 28.501 237.419 28.0296 236.272 27.4007L237.109 23.9748Z" fill="white"/>
<path d="M255.541 8.60661V12.7866H258.917V16.3069H255.541V21.869C255.541 23.7237 255.975 24.5729 257.399 24.5729C258.05 24.5729 258.329 24.5405 258.793 24.447L258.824 28.0612C258.205 28.3123 257.09 28.501 255.758 28.501C254.24 28.501 252.97 27.9353 252.227 27.1488C251.36 26.2381 250.926 24.7608 250.926 22.5918V16.3069H248.913V12.7866H250.926V9.89519L255.541 8.60661Z" fill="white"/>
<path d="M261.334 17.6857C261.334 15.7682 261.273 14.1342 261.21 12.7829H265.175L265.392 14.8571H265.485C266.135 13.8828 267.466 12.4371 270.069 12.4371C272.02 12.4371 273.57 13.4426 274.22 15.0454H274.282C274.839 14.2282 275.521 13.6313 276.233 13.1911C277.07 12.6885 277.998 12.4371 279.113 12.4371C282.026 12.4371 284.225 14.5112 284.225 19.1002V28.1514H279.64V19.7915C279.64 17.5597 278.928 16.2716 277.41 16.2716C276.326 16.2716 275.551 17.0256 275.242 17.9372C275.117 18.283 275.056 18.7855 275.056 19.1626V28.1514H270.471V19.5396C270.471 17.5909 269.79 16.2716 268.303 16.2716C267.095 16.2716 266.382 17.2139 266.103 17.9999C265.949 18.3774 265.919 18.8167 265.919 19.1941V28.1514H261.334V17.6857Z" fill="white"/>
<path d="M296.831 18.7266C296.831 17.5635 296.335 15.6153 294.166 15.6153C292.184 15.6153 291.379 17.4376 291.256 18.7266H296.831ZM291.286 21.9949C291.44 23.9748 293.361 24.9171 295.56 24.9171C297.171 24.9171 298.472 24.6976 299.742 24.2894L300.362 27.5262C298.812 28.1551 296.923 28.501 294.879 28.501C289.738 28.501 286.794 25.452 286.794 20.6436C286.794 16.7463 289.18 12.4408 294.445 12.4408C299.339 12.4408 301.198 16.307 301.198 20.1095C301.198 20.9263 301.105 21.6495 301.043 21.9949H291.286Z" fill="white"/>
<path d="M303.701 17.6857C303.701 15.7682 303.639 14.1342 303.577 12.7829H307.666L307.882 14.8882H307.976C308.594 13.9143 310.144 12.4371 312.652 12.4371C315.751 12.4371 318.073 14.5112 318.073 19.037V28.1514H313.365V19.6343C313.365 17.6545 312.683 16.3032 310.98 16.3032C309.678 16.3032 308.905 17.2139 308.594 18.0943C308.471 18.4085 308.409 18.8483 308.409 19.2885V28.1514H303.701V17.6857Z" fill="white"/>
<path d="M326.624 8.60661V12.7866H330V16.3069H326.624V21.869C326.624 23.7237 327.057 24.5729 328.482 24.5729C329.132 24.5729 329.411 24.5405 329.876 24.447L329.906 28.0612C329.287 28.3123 328.172 28.501 326.841 28.501C325.322 28.501 324.052 27.9353 323.31 27.1488C322.442 26.2381 322.008 24.7608 322.008 22.5918V16.3069H319.995V12.7866H322.008V9.89519L326.624 8.60661Z" fill="white"/>
<path d="M97.5369 38.525C96.5589 38.525 96.0435 39.3559 96.0435 40.2947C96.0435 41.1593 96.4348 41.8267 96.9503 42.4761C98.1593 41.7729 98.942 41.1235 98.942 40.0954C98.942 39.3559 98.5329 38.525 97.555 38.525H97.5369ZM97.2352 48.8092C98.248 48.8092 99.1195 48.34 99.6889 47.7085C98.9773 46.9152 97.6438 45.4354 96.3098 43.8842C95.6698 44.2992 94.763 45.0746 94.763 46.3559C94.763 47.7444 95.7767 48.8092 97.2167 48.8092H97.2352ZM101.574 49.8015C101.236 49.4586 100.916 49.1162 100.453 48.6111C99.4217 49.5854 98.2657 50 96.9503 50C94.6207 50 93.2695 48.4117 93.2695 46.5907C93.2695 44.9311 94.2479 43.7933 95.6168 43.0358V42.982C94.9944 42.1883 94.6207 41.3049 94.6207 40.4378C94.6207 38.9596 95.6698 37.4431 97.6614 37.4431C99.1553 37.4431 100.311 38.4533 100.311 40.0236C100.311 41.3049 99.5816 42.3147 97.6791 43.2711V43.3249C98.6933 44.5153 99.8311 45.8504 100.596 46.7167C101.147 45.8683 101.52 44.6959 101.751 43.1626H103.174C102.854 45.0746 102.338 46.5907 101.449 47.6547C102.089 48.34 102.712 49.0257 103.423 49.8015H101.574Z" fill="white"/>
<path d="M108.032 47.89C108.725 48.3225 109.739 48.6828 110.806 48.6828C112.389 48.6828 113.313 47.8353 113.313 46.6086C113.313 45.4721 112.673 44.8222 111.055 44.1912C109.099 43.4867 107.89 42.4582 107.89 40.7452C107.89 38.8499 109.437 37.4431 111.766 37.4431C112.993 37.4431 113.882 37.7321 114.416 38.0391L113.988 39.3204C113.597 39.1031 112.798 38.7423 111.713 38.7423C110.077 38.7423 109.455 39.7346 109.455 40.5646C109.455 41.7016 110.183 42.2609 111.837 42.9099C113.864 43.7036 114.895 44.6963 114.895 46.4823C114.895 48.3583 113.526 50 110.699 50C109.543 50 108.281 49.6396 107.641 49.2071L108.032 47.89Z" fill="white"/>
<path d="M122.347 44.5883C122.365 43.5781 121.938 42.0077 120.178 42.0077C118.595 42.0077 117.902 43.4863 117.778 44.5883H122.347ZM117.76 45.724C117.795 47.8716 119.147 48.7546 120.711 48.7546C121.832 48.7546 122.507 48.5573 123.094 48.3041L123.361 49.4407C122.81 49.693 121.867 50 120.498 50C117.849 50 116.266 48.2144 116.266 45.5805C116.266 42.9462 117.795 40.8711 120.302 40.8711C123.112 40.8711 123.859 43.3787 123.859 44.9849C123.859 45.3094 123.823 45.5626 123.805 45.724H117.76Z" fill="white"/>
<path d="M127.168 45.0739H127.203C127.417 44.7669 127.72 44.3886 127.968 44.0816L130.493 41.069H132.378L129.053 44.6593L132.84 49.8008H130.938L127.968 45.6161L127.168 46.5175V49.8008H125.621V36.9919H127.168V45.0739Z" fill="white"/>
<path d="M141.052 47.4194C141.052 48.322 141.07 49.1162 141.123 49.8015H139.736L139.647 48.3758H139.612C139.203 49.0795 138.296 50 136.766 50C135.415 50 133.797 49.243 133.797 46.1753V41.0697H135.362V45.9054C135.362 47.565 135.86 48.6828 137.282 48.6828C138.331 48.6828 139.06 47.9438 139.345 47.2401C139.434 47.0049 139.487 46.7167 139.487 46.4276V41.0697H141.052V47.4194Z" fill="white"/>
<path d="M143.473 43.7926C143.473 42.7645 143.456 41.8807 143.402 41.069H144.772L144.825 42.7824H144.896C145.287 41.6112 146.23 40.8705 147.279 40.8705C147.456 40.8705 147.581 40.8884 147.723 40.9243V42.4216C147.563 42.3857 147.403 42.3682 147.19 42.3682C146.087 42.3682 145.305 43.2158 145.092 44.4061C145.056 44.6235 145.02 44.8754 145.02 45.1465V49.8008H143.473V43.7926Z" fill="white"/>
<path d="M149.175 41.0724H150.739V49.8042H149.175V41.0724ZM150.917 38.6187C150.935 39.1592 150.544 39.5926 149.921 39.5926C149.37 39.5926 148.979 39.1592 148.979 38.6187C148.979 38.0593 149.389 37.626 149.957 37.626C150.544 37.626 150.917 38.0593 150.917 38.6187Z" fill="white"/>
<path d="M155.041 38.9776V41.0697H157.282V42.2788H155.041V46.9874C155.041 48.0693 155.344 48.6828 156.215 48.6828C156.642 48.6828 156.891 48.647 157.122 48.5752L157.193 49.766C156.891 49.8924 156.41 50 155.806 50C155.077 50 154.49 49.7472 154.117 49.3147C153.672 48.8455 153.512 48.0693 153.512 47.0412V42.2788H152.179V41.0697H153.512V39.4639L155.041 38.9776Z" fill="white"/>
<path d="M163.404 45.3457C161.697 45.3098 159.758 45.6168 159.758 47.3119C159.758 48.3404 160.434 48.8271 161.235 48.8271C162.355 48.8271 163.066 48.1051 163.315 47.3656C163.368 47.2038 163.404 47.0237 163.404 46.861V45.3457ZM164.915 47.7085C164.915 48.4672 164.951 49.2071 165.058 49.8019H163.635L163.51 48.7008H163.457C162.977 49.3865 162.053 50 160.826 50C159.083 50 158.194 48.7546 158.194 47.4925C158.194 45.3816 160.043 44.2266 163.368 44.2458V44.0644C163.368 43.3432 163.173 42.044 161.412 42.044C160.612 42.044 159.776 42.2968 159.172 42.6934L158.816 41.6474C159.527 41.1773 160.559 40.8716 161.643 40.8716C164.275 40.8716 164.915 42.6934 164.915 44.4431V47.7085Z" fill="white"/>
<path d="M167.042 48.1777C167.505 48.4847 168.323 48.8092 169.105 48.8092C170.242 48.8092 170.777 48.2324 170.777 47.5104C170.777 46.7517 170.332 46.3375 169.176 45.9054C167.63 45.3453 166.9 44.4785 166.9 43.4325C166.9 42.0256 168.02 40.8711 169.87 40.8711C170.742 40.8711 171.505 41.1235 171.985 41.4121L171.594 42.5666C171.256 42.3506 170.634 42.0619 169.834 42.0619C168.909 42.0619 168.394 42.6033 168.394 43.2532C168.394 43.9743 168.909 44.2992 170.03 44.7317C171.523 45.3094 172.288 46.0668 172.288 47.3657C172.288 48.8997 171.115 50 169.069 50C168.127 50 167.256 49.7468 166.651 49.386L167.042 48.1777Z" fill="white"/>
<path d="M179.312 49.801H177.765V37.6416H179.312V49.801Z" fill="white"/>
<path d="M181.964 43.4318C181.964 42.5305 181.947 41.7897 181.894 41.069H183.28L183.368 42.5126H183.405C183.832 41.6825 184.828 40.8705 186.249 40.8705C187.441 40.8705 189.29 41.5916 189.29 44.5876V49.8008H187.726V44.7669C187.726 43.3601 187.21 42.1876 185.734 42.1876C184.703 42.1876 183.902 42.9276 183.636 43.8105C183.565 44.0099 183.53 44.2806 183.53 44.5504V49.8008H181.964V43.4318Z" fill="white"/>
<path d="M197.52 44.6241C197.52 44.4247 197.503 44.1545 197.449 43.9568C197.218 42.9462 196.365 42.1153 195.19 42.1153C193.573 42.1153 192.613 43.5593 192.613 45.4896C192.613 47.2581 193.466 48.7187 195.155 48.7187C196.205 48.7187 197.165 48.0151 197.449 46.8247C197.503 46.6082 197.52 46.3918 197.52 46.1394V44.6241ZM199.085 36.9926V47.5471C199.085 48.322 199.104 49.2067 199.157 49.8015H197.751L197.681 48.2862H197.645C197.165 49.2605 196.115 50 194.711 50C192.631 50 191.03 48.2144 191.03 45.5626C191.013 42.6576 192.791 40.8711 194.889 40.8711C196.205 40.8711 197.093 41.5022 197.485 42.2063H197.52V36.9926H199.085Z" fill="white"/>
<path d="M202.465 45.4533C202.465 47.3656 203.549 48.8092 205.079 48.8092C206.571 48.8092 207.693 47.3836 207.693 45.4174C207.693 43.9389 206.962 42.0624 205.114 42.0624C203.264 42.0624 202.465 43.7933 202.465 45.4533ZM209.293 45.3636C209.293 48.5932 207.087 50 205.007 50C202.677 50 200.882 48.2687 200.882 45.5079C200.882 42.585 202.767 40.8716 205.149 40.8716C207.621 40.8716 209.293 42.6934 209.293 45.3636Z" fill="white"/>
<path d="M211.089 43.4318C211.089 42.5305 211.072 41.7897 211.019 41.069H212.405L212.494 42.5126H212.53C212.956 41.6825 213.952 40.8705 215.375 40.8705C216.566 40.8705 218.416 41.5916 218.416 44.5876V49.8008H216.85V44.7669C216.85 43.3601 216.335 42.1876 214.86 42.1876C213.829 42.1876 213.027 42.9276 212.762 43.8105C212.69 44.0099 212.655 44.2806 212.655 44.5504V49.8008H211.089V43.4318Z" fill="white"/>
<path d="M226.236 44.5883C226.254 43.5781 225.826 42.0077 224.067 42.0077C222.484 42.0077 221.791 43.4863 221.666 44.5883H226.236ZM221.649 45.724C221.684 47.8716 223.036 48.7546 224.6 48.7546C225.72 48.7546 226.396 48.5573 226.983 48.3041L227.25 49.4407C226.698 49.693 225.756 50 224.387 50C221.738 50 220.155 48.2144 220.155 45.5805C220.155 42.9462 221.684 40.8711 224.191 40.8711C227 40.8711 227.747 43.3787 227.747 44.9849C227.747 45.3094 227.712 45.5626 227.694 45.724H221.649Z" fill="white"/>
<path d="M229.296 48.1777C229.758 48.4847 230.576 48.8092 231.358 48.8092C232.497 48.8092 233.029 48.2324 233.029 47.5104C233.029 46.7517 232.585 46.3375 231.43 45.9054C229.884 45.3453 229.154 44.4785 229.154 43.4325C229.154 42.0256 230.274 40.8711 232.123 40.8711C232.994 40.8711 233.758 41.1235 234.239 41.4121L233.848 42.5666C233.511 42.3506 232.888 42.0619 232.088 42.0619C231.163 42.0619 230.647 42.6033 230.647 43.2532C230.647 43.9743 231.163 44.2992 232.283 44.7317C233.776 45.3094 234.542 46.0668 234.542 47.3657C234.542 48.8997 233.367 50 231.322 50C230.38 50 229.509 49.7468 228.905 49.386L229.296 48.1777Z" fill="white"/>
<path d="M236.37 41.0724H237.935V49.8042H236.37V41.0724ZM238.113 38.6187C238.131 39.1592 237.74 39.5926 237.117 39.5926C236.566 39.5926 236.175 39.1592 236.175 38.6187C236.175 38.0593 236.583 37.626 237.153 37.626C237.74 37.626 238.113 38.0593 238.113 38.6187Z" fill="white"/>
<path d="M244.889 45.3457C243.181 45.3098 241.243 45.6168 241.243 47.3119C241.243 48.3404 241.919 48.8271 242.719 48.8271C243.839 48.8271 244.551 48.1051 244.799 47.3656C244.852 47.2038 244.889 47.0237 244.889 46.861V45.3457ZM246.399 47.7085C246.399 48.4672 246.435 49.2071 246.542 49.8019H245.12L244.995 48.7008H244.942C244.46 49.3865 243.537 50 242.31 50C240.567 50 239.679 48.7546 239.679 47.4925C239.679 45.3816 241.527 44.2266 244.852 44.2458V44.0644C244.852 43.3432 244.657 42.044 242.897 42.044C242.096 42.044 241.261 42.2968 240.657 42.6934L240.301 41.6474C241.012 41.1773 242.043 40.8716 243.127 40.8716C245.758 40.8716 246.399 42.6934 246.399 44.4431V47.7085Z" fill="white"/>
</svg>
