<svg width="301" height="35" viewBox="0 0 301 35" fill="none" xmlns="http://www.w3.org/2000/svg">
<path d="M37.0268 9.03914C37.2203 9.03914 37.5631 9.15996 38.0302 9.54858C40.4624 11.5578 43.1911 13.1458 45.4868 14.1062C45.8181 14.2421 45.9994 14.3466 45.9994 14.4785C45.9994 14.5789 45.9807 14.6768 45.6949 14.6768C45.1773 14.6768 42.2834 14.2421 41.5175 13.9717C40.7482 13.6934 39.0948 12.6731 37.1224 10.0851C36.899 9.79312 36.6633 9.54189 36.6633 9.30667C36.6633 9.0732 36.9399 9.03914 37.0268 9.03914Z" fill="white"/>
<path d="M43.5769 1.64195C43.5769 1.64195 44.057 2.36336 39.3815 2.86526C39.8903 1.76684 40.2281 1.04281 40.2281 1.04281C40.5249 0.382533 39.8547 -7.62939e-06 39.3727 -7.62939e-06C38.8899 -7.62939e-06 38.538 0.282677 38.3356 0.639307L36.9466 3.05886C35.1237 3.15144 33.7741 3.1002 33.1616 3.05624C32.3158 2.99365 32.0951 3.34824 32.0951 3.71303C32.0951 4.34943 33.5706 4.99515 34.5132 4.92411C35.105 4.88219 35.4489 4.86385 35.9343 4.82455L30.7642 13.8166C30.566 14.1523 30.4073 14.6943 31.2936 14.6943C32.1827 14.6943 34.1784 14.0774 34.5132 13.3616C34.6524 13.0611 35.6826 10.8386 36.8306 8.36465C37.3999 8.27906 39.4863 8.03713 40.067 8.03713C40.6179 8.03713 40.9017 8.22317 40.9017 8.44471C40.9017 8.96379 39.2682 10.4515 36.1038 12.2815C35.7591 12.4838 36.0457 12.6413 36.2216 12.6413C36.7109 12.6413 38.8922 11.5056 39.9718 10.8835C41.1607 10.2014 43.2269 8.42841 43.2269 7.1786C43.2269 6.6898 42.9411 6.24001 41.6462 6.24001C40.3922 6.24001 38.1696 6.45137 37.6983 6.49766C38.0035 5.83127 38.3088 5.18089 38.5927 4.57156C41.0383 4.31362 42.495 4.14448 43.3554 4.00997C44.5375 3.81958 45.4896 3.30079 45.4896 2.76686C45.4896 1.63234 43.5769 1.64195 43.5769 1.64195Z" fill="white"/>
<path d="M1.989 7.26609H0.500122V6.14649H1.989V4.65543H4.00274V6.14649H5.90668V7.26609H4.00274V10.0075C4.00274 10.5114 4.18101 10.9789 4.94725 10.9789C5.30953 10.9789 5.65305 10.9233 5.86116 10.8226L5.92543 12.0304C5.50042 12.1282 5.03983 12.1689 4.43731 12.1689C2.85815 12.1689 1.989 11.4246 1.989 10.259V7.26609Z" fill="white"/>
<path d="M7.44421 6.14833H9.22957V7.48685H9.2617C9.35084 6.93491 10.1764 6.00889 11.3772 6.00889C11.5719 6.00889 11.7823 6.00889 11.9923 6.0578V7.59951C11.8125 7.52208 11.4529 7.47463 11.0914 7.47463C9.45604 7.47463 9.45604 9.02886 9.45604 9.8722V12.0322H7.44421L7.44421 6.14833Z" fill="white"/>
<path d="M20.3382 12.0304H18.4277V11.2342H18.3975C17.785 11.8048 16.914 12.1689 15.8623 12.1689C14.0307 12.1689 13.2346 11.1867 13.2346 9.85812V6.14648H15.2411V9.28755C15.2411 10.0075 15.261 10.9789 16.5532 10.9789C18.0084 10.9789 18.326 9.77923 18.326 9.02672V6.14648H20.3382V12.0304Z" fill="white"/>
<path d="M26.9721 8.51174C26.9094 7.77 26.4595 7.12898 25.336 7.12898C24.2074 7.12898 23.6382 7.72371 23.5479 8.51174H26.9721ZM28.3218 11.6988C27.5861 12.0071 26.746 12.1689 25.6634 12.1689C23.1141 12.1689 21.6252 11.0496 21.6252 9.12045C21.6252 7.41543 22.8123 6.00704 25.2155 6.00704C28.0842 6.00704 28.8948 7.50393 28.8948 9.56469H23.5479C23.6382 10.5114 24.5077 11.0496 25.7537 11.0496C26.7346 11.0496 27.572 10.7751 28.3218 10.4543V11.6988Z" fill="white"/>
<path d="M44.6412 6.23552H46.4293V7.57055H46.4595C46.5479 7.02151 47.3745 6.09433 48.5777 6.09433C48.7712 6.09433 48.9813 6.09433 49.1909 6.13975V7.68466C49.0142 7.60461 48.6526 7.55978 48.2911 7.55978C46.6531 7.55978 46.6531 9.11255 46.6531 9.95618V12.1162H44.6412V6.23552Z" fill="white"/>
<path d="M50.3597 6.23561H52.3742V12.1163H50.3597V6.23561ZM50.3597 3.78418H52.3742V5.24671H50.3597V3.78418Z" fill="white"/>
<path d="M58.9806 8.59964C58.9209 7.85381 58.4707 7.21687 57.3445 7.21687C56.2144 7.21687 55.6467 7.81044 55.5595 8.59964H58.9806ZM60.3303 11.7867C59.5958 12.0964 58.7576 12.2568 57.6746 12.2568C55.123 12.2568 53.6349 11.1358 53.6349 9.20427C53.6349 7.5007 54.8185 6.09493 57.2247 6.09493C60.0919 6.09493 60.8999 7.59153 60.8999 9.65112H55.5595C55.6467 10.6007 56.5162 11.1358 57.7649 11.1358C58.7389 11.1358 59.5831 10.863 60.3303 10.5422V11.7867Z" fill="white"/>
<path d="M62.1011 6.28767H64.0111V7.08589H64.0379C64.6718 6.41052 65.5279 6.14648 66.5765 6.14648C68.412 6.14648 69.2042 7.13014 69.2042 8.45614V12.1689H67.1943V9.02672C67.1943 8.3068 67.1783 7.33537 65.8875 7.33537C64.4342 7.33537 64.1148 8.53358 64.1148 9.29163V12.1689H62.1011V6.28767Z" fill="white"/>
<path d="M74.22 11.0668C75.5605 11.0668 75.9981 9.99492 75.9981 9.15798C75.9981 8.33473 75.484 7.28324 74.1913 7.28324C72.8891 7.28324 72.5295 8.37024 72.5295 9.15798C72.5295 9.97192 72.9006 11.0668 74.22 11.0668ZM76.0712 11.4566H76.041C75.4392 12.0272 74.6144 12.2568 73.6703 12.2568C71.2943 12.2568 70.4229 10.7693 70.4229 9.15798C70.4229 7.53476 71.2943 6.09493 73.6703 6.09493C74.6753 6.09493 75.3803 6.35926 75.9821 6.91877H76.0127V3.54657H78.0226V12.1168H76.0712V11.4566Z" fill="white"/>
<path d="M86.6509 4.7487H90.9029V11.1349H90.9878C91.4098 10.5774 91.8608 10.0632 92.2828 9.54909L96.591 4.7487H101.857L95.5773 10.899L102.195 19.1924H97.1824L92.5364 12.9564L90.9029 14.4776V19.1924H86.6509V4.7487Z" fill="white"/>
<path d="M106.672 13.945C106.672 15.7449 107.658 17.0948 109.488 17.0948C111.15 17.0948 112.219 15.8305 112.219 13.945C112.219 12.3806 111.431 10.7949 109.488 10.7949C107.432 10.7949 106.672 12.4021 106.672 13.945ZM116.641 13.8379C116.641 17.6732 113.064 19.4307 109.376 19.4307C105.349 19.4307 102.251 17.4165 102.251 14.0306C102.251 10.6453 105.18 8.48061 109.601 8.48061C113.825 8.48061 116.641 10.6881 116.641 13.8379Z" fill="white"/>
<path d="M119.005 12.1675C119.005 10.6246 118.949 9.61764 118.892 8.71753H122.581L122.722 10.6461H122.834C123.539 9.1248 125.228 8.48174 126.551 8.48174C126.946 8.48174 127.143 8.48174 127.453 8.52453V11.6103C127.143 11.5462 126.777 11.5032 126.298 11.5032C124.721 11.5032 123.651 12.1459 123.369 13.1535C123.313 13.3674 123.285 13.6248 123.285 13.8818V19.1963H119.005V12.1675Z" fill="white"/>
<path d="M137.534 12.7663C137.534 11.9733 137.084 10.645 135.112 10.645C133.31 10.645 132.578 11.8875 132.465 12.7663H137.534ZM132.494 14.9947C132.634 16.3446 134.38 16.9871 136.38 16.9871C137.844 16.9871 139.026 16.8375 140.181 16.5592L140.744 18.7661C139.336 19.1949 137.619 19.4307 135.76 19.4307C131.086 19.4307 128.41 17.3519 128.41 14.0734C128.41 11.4161 130.578 8.48061 135.366 8.48061C139.815 8.48061 141.504 11.1166 141.504 13.7092C141.504 14.2661 141.42 14.7592 141.364 14.9947H132.494Z" fill="white"/>
<path d="M151.099 14.2449C148.847 14.2236 147.101 14.6309 147.101 15.8951C147.101 16.7306 147.833 17.1382 148.79 17.1382C149.86 17.1382 150.733 16.6025 151.015 15.9379C151.071 15.7662 151.099 15.5732 151.099 15.3805V14.2449ZM155.267 16.645C155.267 17.6517 155.323 18.6164 155.464 19.1952H151.606L151.353 18.1448H151.268C150.367 18.9803 148.959 19.4307 147.326 19.4307C144.538 19.4307 142.877 17.8881 142.877 16.2165C142.877 13.495 146.087 12.1879 150.958 12.2091V12.0595C150.958 11.502 150.564 10.7093 148.452 10.7093C147.045 10.7093 145.552 11.0735 144.651 11.502L143.863 9.40226C144.82 8.995 146.706 8.4809 149.212 8.4809C153.803 8.4809 155.267 10.5379 155.267 13.0021V16.645Z" fill="white"/>
<path d="M168.226 19.1908H163.918V4.74707H168.226V19.1908Z" fill="white"/>
<path d="M171.602 12.0567C171.602 10.7494 171.546 9.63528 171.489 8.71392H175.206L175.402 10.1494H175.488C176.051 9.48536 177.459 8.47812 179.739 8.47812C182.556 8.47812 184.668 9.89233 184.668 12.9781V19.1924H180.387V13.3853C180.387 12.0355 179.767 11.1141 178.22 11.1141C177.036 11.1141 176.332 11.735 176.051 12.3353C175.938 12.5496 175.882 12.8494 175.882 13.1495V19.1924H171.602V12.0567Z" fill="white"/>
<path d="M190.463 8.71754L192.321 13.5817C192.66 14.4602 192.913 15.296 193.11 16.1318H193.194C193.42 15.2748 193.645 14.4818 193.955 13.5817L195.729 8.71754H200.235L195.109 19.1963H190.83L185.817 8.71754H190.463Z" fill="white"/>
<path d="M209.832 12.7663C209.832 11.9733 209.381 10.645 207.41 10.645C205.608 10.645 204.876 11.8875 204.764 12.7663H209.832ZM204.791 14.9947C204.932 16.3446 206.678 16.9871 208.677 16.9871C210.142 16.9871 211.324 16.8375 212.478 16.5592L213.043 18.7661C211.634 19.1949 209.916 19.4307 208.058 19.4307C203.384 19.4307 200.708 17.3519 200.708 14.0734C200.708 11.4161 202.876 8.48061 207.664 8.48061C212.112 8.48061 213.803 11.1166 213.803 13.7092C213.803 14.2661 213.717 14.7592 213.662 14.9947H204.791Z" fill="white"/>
<path d="M216.06 16.3446C216.848 16.7088 218.481 17.1382 219.748 17.1382C221.044 17.1382 221.579 16.795 221.579 16.259C221.579 15.7237 221.157 15.4663 219.552 15.0591C216.708 14.3307 215.609 13.152 215.637 11.9305C215.637 9.95915 217.835 8.48061 221.24 8.48061C222.845 8.48061 224.282 8.75891 225.127 9.08058L224.367 11.3306C223.747 11.0732 222.564 10.7306 221.382 10.7306C220.34 10.7306 219.748 11.0517 219.748 11.5879C219.748 12.0807 220.284 12.3375 221.972 12.7876C224.592 13.4734 225.69 14.4804 225.718 16.0232C225.718 17.9734 223.691 19.4307 219.748 19.4307C217.947 19.4307 216.342 19.1093 215.299 18.6805L216.06 16.3446Z" fill="white"/>
<path d="M232.809 5.8656V8.71573H235.879V11.1161H232.809V14.9086C232.809 16.1732 233.203 16.7523 234.499 16.7523C235.091 16.7523 235.344 16.7302 235.765 16.6664L235.794 19.1308C235.231 19.302 234.218 19.4307 233.006 19.4307C231.627 19.4307 230.472 19.0449 229.797 18.5087C229.008 17.8877 228.614 16.8804 228.614 15.4015V11.1161H226.784V8.71573H228.614V6.74422L232.809 5.8656Z" fill="white"/>
<path d="M238.077 12.0567C238.077 10.7494 238.022 9.63528 237.965 8.71392H241.569L241.767 10.1281H241.851C242.442 9.46382 243.653 8.47812 246.018 8.47812C247.793 8.47812 249.201 9.16368 249.792 10.2565H249.848C250.355 9.69932 250.975 9.29235 251.622 8.99222C252.383 8.64958 253.227 8.47812 254.241 8.47812C256.889 8.47812 258.888 9.89233 258.888 13.0212V19.1924H254.719V13.4925C254.719 11.9708 254.073 11.0926 252.692 11.0926C251.707 11.0926 251.003 11.6067 250.721 12.2282C250.608 12.464 250.552 12.8066 250.552 13.0637V19.1924H246.384V13.3207C246.384 11.9921 245.765 11.0926 244.413 11.0926C243.315 11.0926 242.667 11.735 242.414 12.271C242.274 12.5283 242.246 12.8279 242.246 13.0852V19.1924H238.077V12.0567Z" fill="white"/>
<path d="M270.346 12.7663C270.346 11.9733 269.895 10.645 267.924 10.645C266.122 10.645 265.39 11.8875 265.278 12.7663H270.346ZM265.306 14.9947C265.446 16.3446 267.192 16.9871 269.191 16.9871C270.655 16.9871 271.838 16.8375 272.993 16.5592L273.556 18.7661C272.147 19.1949 270.43 19.4307 268.572 19.4307C263.898 19.4307 261.222 17.3519 261.222 14.0734C261.222 11.4161 263.391 8.48061 268.177 8.48061C272.627 8.48061 274.316 11.1166 274.316 13.7092C274.316 14.2661 274.232 14.7592 274.176 14.9947H265.306Z" fill="white"/>
<path d="M276.594 12.0567C276.594 10.7494 276.537 9.63528 276.481 8.71392H280.198L280.394 10.1494H280.48C281.042 9.48536 282.451 8.47812 284.731 8.47812C287.548 8.47812 289.66 9.89233 289.66 12.9781V19.1924H285.379V13.3853C285.379 12.0355 284.759 11.1141 283.211 11.1141C282.028 11.1141 281.324 11.735 281.042 12.3353C280.93 12.5496 280.874 12.8494 280.874 13.1495V19.1924H276.594V12.0567Z" fill="white"/>
<path d="M297.429 5.8656V8.71573H300.499V11.1161H297.429V14.9086C297.429 16.1732 297.823 16.7523 299.119 16.7523C299.71 16.7523 299.963 16.7302 300.386 16.6664L300.413 19.1308C299.851 19.302 298.837 19.4307 297.626 19.4307C296.246 19.4307 295.091 19.0449 294.416 18.5087C293.627 17.8877 293.233 16.8804 293.233 15.4015V11.1161H291.403V8.71573H293.233V6.74422L297.429 5.8656Z" fill="white"/>
<path d="M89.1682 26.2631C88.2792 26.2631 87.8106 26.8296 87.8106 27.4697C87.8106 28.0592 88.1664 28.5142 88.635 28.957C89.734 28.4775 90.4456 28.0348 90.4456 27.3338C90.4456 26.8296 90.0737 26.2631 89.1847 26.2631H89.1682ZM88.894 33.275C89.8148 33.275 90.607 32.9551 91.1246 32.5245C90.4777 31.9837 89.2654 30.9747 88.0527 29.9171C87.4709 30.2 86.6465 30.7287 86.6465 31.6023C86.6465 32.549 87.568 33.275 88.8771 33.275H88.894ZM92.838 33.9515C92.5309 33.7178 92.2397 33.4843 91.8193 33.1399C90.8817 33.8042 89.8308 34.0869 88.635 34.0869C86.5172 34.0869 85.2888 33.004 85.2888 31.7624C85.2888 30.6309 86.1782 29.8551 87.4227 29.3386V29.302C86.8569 28.7608 86.5172 28.1585 86.5172 27.5672C86.5172 26.5594 87.4709 25.5254 89.2815 25.5254C90.6395 25.5254 91.69 26.2142 91.69 27.2849C91.69 28.1585 91.0271 28.847 89.2975 29.499V29.5357C90.2195 30.3473 91.2539 31.2576 91.949 31.8483C92.4501 31.2699 92.7891 30.4705 92.9995 29.4251H94.2929C94.0017 30.7287 93.5327 31.7624 92.7244 32.4879C93.3063 32.9551 93.8724 33.4226 94.519 33.9515H92.838Z" fill="white"/>
<path d="M98.7099 32.6483C99.3403 32.9431 100.262 33.1888 101.232 33.1888C102.67 33.1888 103.511 32.611 103.511 31.7746C103.511 30.9997 102.929 30.5566 101.458 30.1264C99.6797 29.646 98.5806 28.9448 98.5806 27.7768C98.5806 26.4846 99.9868 25.5254 102.105 25.5254C103.22 25.5254 104.028 25.7225 104.513 25.9318L104.125 26.8054C103.769 26.6572 103.042 26.4112 102.056 26.4112C100.569 26.4112 100.003 27.0878 100.003 27.6537C100.003 28.4289 100.665 28.8103 102.169 29.2528C104.012 29.7939 104.949 30.4708 104.949 31.6885C104.949 32.9676 103.705 34.0869 101.134 34.0869C100.084 34.0869 98.936 33.8412 98.3541 33.5463L98.7099 32.6483Z" fill="white"/>
<path d="M111.724 30.3971C111.74 29.7083 111.352 28.6376 109.752 28.6376C108.313 28.6376 107.683 29.6458 107.57 30.3971H111.724ZM107.554 31.1715C107.586 32.6357 108.815 33.2377 110.237 33.2377C111.255 33.2377 111.869 33.1033 112.403 32.9306L112.645 33.7056C112.144 33.8776 111.287 34.0869 110.043 34.0869C107.634 34.0869 106.195 32.8695 106.195 31.0736C106.195 29.2775 107.586 27.8627 109.865 27.8627C112.419 27.8627 113.098 29.5724 113.098 30.6675C113.098 30.8888 113.066 31.0614 113.049 31.1715H107.554Z" fill="white"/>
<path d="M116.104 30.7273H116.136C116.331 30.518 116.606 30.2601 116.832 30.0508L119.127 27.9967H120.841L117.818 30.4447L121.261 33.9502H119.531L116.832 31.097L116.104 31.7116V33.9502H114.698V25.2169H116.104V30.7273Z" fill="white"/>
<path d="M128.725 32.3275C128.725 32.9429 128.741 33.4843 128.789 33.9515H127.528L127.447 32.9795H127.415C127.043 33.4593 126.219 34.0869 124.829 34.0869C123.6 34.0869 122.129 33.5708 122.129 31.4792V27.9981H123.552V31.2952C123.552 32.4267 124.004 33.1888 125.297 33.1888C126.251 33.1888 126.914 32.6849 127.173 32.2052C127.253 32.0448 127.302 31.8483 127.302 31.6512V27.9981H128.725V32.3275Z" fill="white"/>
<path d="M130.928 29.8537C130.928 29.1527 130.912 28.5501 130.864 27.9967H132.108L132.157 29.1649H132.221C132.577 28.3664 133.434 27.8614 134.388 27.8614C134.549 27.8614 134.662 27.8736 134.792 27.898V28.919C134.646 28.8945 134.5 28.8826 134.307 28.8826C133.304 28.8826 132.593 29.4604 132.399 30.272C132.367 30.4202 132.334 30.592 132.334 30.7768V33.9502H130.928V29.8537Z" fill="white"/>
<path d="M136.116 28.0012H137.538V33.9547H136.116V28.0012ZM137.7 26.3282C137.716 26.6967 137.361 26.9922 136.795 26.9922C136.293 26.9922 135.938 26.6967 135.938 26.3282C135.938 25.9468 136.31 25.6514 136.827 25.6514C137.361 25.6514 137.7 25.9468 137.7 26.3282Z" fill="white"/>
<path d="M141.448 26.5716V27.9981H143.485V28.8225H141.448V32.0329C141.448 32.7705 141.723 33.1888 142.515 33.1888C142.903 33.1888 143.129 33.1644 143.339 33.1155L143.404 33.9274C143.129 34.0136 142.692 34.0869 142.143 34.0869C141.48 34.0869 140.947 33.9146 140.607 33.6197C140.203 33.2998 140.058 32.7705 140.058 32.0695V28.8225H138.845V27.9981H140.058V26.9032L141.448 26.5716Z" fill="white"/>
<path d="M149.05 30.9135C147.499 30.8891 145.736 31.0984 145.736 32.2541C145.736 32.9554 146.351 33.2872 147.078 33.2872C148.096 33.2872 148.743 32.795 148.969 32.2908C149.018 32.1804 149.05 32.0576 149.05 31.9467V30.9135ZM150.424 32.5245C150.424 33.0418 150.456 33.5463 150.554 33.9518H149.261L149.147 33.2011H149.098C148.662 33.6686 147.822 34.0869 146.706 34.0869C145.122 34.0869 144.314 33.2377 144.314 32.3772C144.314 30.938 145.995 30.1505 149.018 30.1636V30.0399C149.018 29.5482 148.84 28.6624 147.24 28.6624C146.512 28.6624 145.752 28.8347 145.203 29.1052L144.88 28.392C145.526 28.0714 146.464 27.863 147.45 27.863C149.842 27.863 150.424 29.1052 150.424 30.2981V32.5245Z" fill="white"/>
<path d="M152.36 32.8445C152.78 33.0538 153.524 33.275 154.235 33.275C155.269 33.275 155.755 32.8817 155.755 32.3895C155.755 31.8722 155.35 31.5898 154.3 31.2952C152.894 30.9132 152.231 30.3223 152.231 29.6091C152.231 28.6499 153.249 27.8627 154.93 27.8627C155.723 27.8627 156.417 28.0348 156.854 28.2316L156.497 29.0187C156.191 28.8714 155.625 28.6746 154.898 28.6746C154.057 28.6746 153.589 29.0437 153.589 29.4868C153.589 29.9785 154.057 30.2 155.075 30.4949C156.433 30.8888 157.129 31.4052 157.129 32.2908C157.129 33.3367 156.062 34.0869 154.203 34.0869C153.346 34.0869 152.554 33.9143 152.004 33.6683L152.36 32.8445Z" fill="white"/>
<path d="M163.512 33.9536H162.105V25.6631H163.512V33.9536Z" fill="white"/>
<path d="M165.926 29.6077C165.926 28.9932 165.91 28.4881 165.861 27.9967H167.122L167.202 28.981H167.235C167.623 28.4151 168.529 27.8614 169.821 27.8614C170.905 27.8614 172.585 28.353 172.585 30.3958V33.9502H171.163V30.518C171.163 29.5588 170.694 28.7594 169.352 28.7594C168.415 28.7594 167.688 29.2639 167.445 29.8659C167.381 30.0019 167.349 30.1864 167.349 30.3704V33.9502H165.926V29.6077Z" fill="white"/>
<path d="M180.061 30.4216C180.061 30.2856 180.045 30.1013 179.996 29.9666C179.786 29.2775 179.011 28.711 177.943 28.711C176.473 28.711 175.6 29.6955 175.6 31.0116C175.6 32.2174 176.376 33.2133 177.911 33.2133C178.865 33.2133 179.738 32.7335 179.996 31.9219C180.045 31.7743 180.061 31.6268 180.061 31.4547V30.4216ZM181.483 25.2183V32.4145C181.483 32.9429 181.5 33.546 181.548 33.9515H180.271L180.207 32.9184H180.175C179.738 33.5827 178.784 34.0869 177.507 34.0869C175.616 34.0869 174.161 32.8695 174.161 31.0614C174.145 29.0807 175.762 27.8627 177.669 27.8627C178.865 27.8627 179.673 28.293 180.029 28.773H180.061V25.2183H181.483Z" fill="white"/>
<path d="M184.56 30.9869C184.56 32.2908 185.545 33.275 186.936 33.275C188.293 33.275 189.312 32.303 189.312 30.9624C189.312 29.9543 188.648 28.6749 186.968 28.6749C185.286 28.6749 184.56 29.8551 184.56 30.9869ZM190.767 30.9258C190.767 33.1277 188.762 34.0869 186.871 34.0869C184.753 34.0869 183.121 32.9065 183.121 31.0242C183.121 29.0312 184.835 27.863 187 27.863C189.247 27.863 190.767 29.1052 190.767 30.9258Z" fill="white"/>
<path d="M192.404 29.6077C192.404 28.9932 192.388 28.4881 192.34 27.9967H193.6L193.681 28.981H193.714C194.101 28.4151 195.007 27.8614 196.3 27.8614C197.383 27.8614 199.065 28.353 199.065 30.3958V33.9502H197.641V30.518C197.641 29.5588 197.172 28.7594 195.832 28.7594C194.894 28.7594 194.166 29.2639 193.924 29.8659C193.859 30.0019 193.827 30.1864 193.827 30.3704V33.9502H192.404V29.6077Z" fill="white"/>
<path d="M206.171 30.3971C206.187 29.7083 205.799 28.6376 204.199 28.6376C202.76 28.6376 202.13 29.6458 202.017 30.3971H206.171ZM202.001 31.1715C202.033 32.6357 203.262 33.2377 204.684 33.2377C205.702 33.2377 206.316 33.1033 206.85 32.9306L207.093 33.7056C206.591 33.8776 205.734 34.0869 204.49 34.0869C202.082 34.0869 200.643 32.8695 200.643 31.0736C200.643 29.2775 202.033 27.8627 204.312 27.8627C206.866 27.8627 207.545 29.5724 207.545 30.6675C207.545 30.8888 207.512 31.0614 207.496 31.1715H202.001Z" fill="white"/>
<path d="M208.954 32.8445C209.374 33.0538 210.118 33.275 210.828 33.275C211.864 33.275 212.348 32.8817 212.348 32.3895C212.348 31.8722 211.944 31.5898 210.894 31.2952C209.488 30.9132 208.825 30.3223 208.825 29.6091C208.825 28.6499 209.843 27.8627 211.524 27.8627C212.316 27.8627 213.011 28.0348 213.448 28.2316L213.092 29.0187C212.785 28.8714 212.219 28.6746 211.492 28.6746C210.651 28.6746 210.182 29.0437 210.182 29.4868C210.182 29.9785 210.651 30.2 211.67 30.4949C213.027 30.8888 213.723 31.4052 213.723 32.2908C213.723 33.3367 212.655 34.0869 210.796 34.0869C209.939 34.0869 209.148 33.9143 208.599 33.6683L208.954 32.8445Z" fill="white"/>
<path d="M215.382 28.0012H216.804V33.9547H215.382V28.0012ZM216.966 26.3282C216.983 26.6967 216.628 26.9922 216.061 26.9922C215.56 26.9922 215.204 26.6967 215.204 26.3282C215.204 25.9468 215.576 25.6514 216.094 25.6514C216.628 25.6514 216.966 25.9468 216.966 26.3282Z" fill="white"/>
<path d="M223.13 30.9135C221.577 30.8891 219.816 31.0984 219.816 32.2541C219.816 32.9554 220.429 33.2872 221.157 33.2872C222.175 33.2872 222.822 32.795 223.048 32.2908C223.097 32.1804 223.13 32.0576 223.13 31.9467V30.9135ZM224.502 32.5245C224.502 33.0418 224.535 33.5463 224.633 33.9518H223.34L223.226 33.2011H223.178C222.74 33.6686 221.9 34.0869 220.786 34.0869C219.201 34.0869 218.393 33.2377 218.393 32.3772C218.393 30.938 220.073 30.1505 223.097 30.1636V30.0399C223.097 29.5482 222.919 28.6624 221.319 28.6624C220.591 28.6624 219.832 28.8347 219.282 29.1052L218.959 28.392C219.605 28.0714 220.543 27.863 221.528 27.863C223.92 27.863 224.502 29.1052 224.502 30.2981V32.5245Z" fill="white"/>
</svg>
