<svg width="66" height="65" viewBox="0 0 66 65" fill="none" xmlns="http://www.w3.org/2000/svg">
<path d="M52.9849 27.0399L47.416 15.4155L41.6309 27.0399" stroke="#3EA1DA" stroke-width="1.5" stroke-miterlimit="6" stroke-linecap="round" stroke-linejoin="round"/>
<path d="M19.1848 16.5269H46.5231C46.9677 16.5269 47.3281 16.1664 47.3281 15.7219V15.3429C47.3281 14.8983 46.9677 14.5379 46.5231 14.5379H19.1848C18.7402 14.5379 18.3798 14.8983 18.3798 15.3429V15.7219C18.3798 16.1664 18.7402 16.5269 19.1848 16.5269Z" fill="white" stroke="#3EA1DA" stroke-width="1.5" stroke-miterlimit="6" stroke-linecap="round" stroke-linejoin="round"/>
<path d="M41.8584 27.1458L41.8587 27.1482C40.8952 27.1976 40.1405 27.9898 40.1335 28.9664L40.124 30.2952C40.1143 30.6158 40.1076 31.1601 40.1076 31.8135V32.598L40.1016 33.4381C40.1012 33.4907 40.1036 33.5425 40.1076 33.5939C40.2696 36.7549 40.1663 39.8719 40.1418 43.1102H51.2405C51.3193 39.5142 51.2749 35.9113 51.2749 32.3132L51.289 32.3053L51.3128 28.9664C51.32 27.9578 52.1248 27.1458 53.1334 27.1458H41.9542H41.8584Z" fill="white" stroke="#3EA1DA" stroke-width="1.5" stroke-miterlimit="6" stroke-linecap="round" stroke-linejoin="round"/>
<path d="M53.1335 27.1458C52.1248 27.1458 51.3201 27.9578 51.3129 28.9664L51.2871 32.5758H54.9283L54.9541 28.9664C54.9613 27.9578 54.1421 27.1458 53.1335 27.1458Z" fill="white" stroke="#3EA1DA" stroke-width="1.5" stroke-miterlimit="6" stroke-linecap="round" stroke-linejoin="round"/>
<path d="M25.243 31.1846H13.4424C12.5206 31.1846 11.7734 31.9318 11.7734 32.8535V33.5526C11.7734 34.4743 12.5206 35.2215 13.4424 35.2215H25.243C26.1647 35.2215 26.9119 34.4743 26.9119 33.5526V32.8535C26.9119 31.9318 26.1647 31.1846 25.243 31.1846Z" fill="white" stroke="#3EA1DA" stroke-width="1.5" stroke-miterlimit="6" stroke-linecap="round" stroke-linejoin="round"/>
<path d="M25.243 39.262H13.4424C12.5206 39.262 11.7734 40.0092 11.7734 40.9309V41.63C11.7734 42.5517 12.5206 43.2989 13.4424 43.2989H25.243C26.1647 43.2989 26.9119 42.5517 26.9119 41.63V40.9309C26.9119 40.0092 26.1647 39.262 25.243 39.262Z" fill="white" stroke="#3EA1DA" stroke-width="1.5" stroke-miterlimit="6" stroke-linecap="round" stroke-linejoin="round"/>
<path d="M24.0086 35.2231H12.208C11.2863 35.2231 10.5391 35.9703 10.5391 36.8921V37.5912C10.5391 38.5129 11.2863 39.2601 12.208 39.2601H24.0086C24.9304 39.2601 25.6775 38.5129 25.6775 37.5912V36.8921C25.6775 35.9703 24.9304 35.2231 24.0086 35.2231Z" fill="white" stroke="#3EA1DA" stroke-width="1.5" stroke-miterlimit="6" stroke-linecap="round" stroke-linejoin="round"/>
<path d="M24.0086 27.1458H12.208C11.2863 27.1458 10.5391 27.8929 10.5391 28.8147V29.5138C10.5391 30.4355 11.2863 31.1827 12.208 31.1827H24.0086C24.9304 31.1827 25.6775 30.4355 25.6775 29.5138V28.8147C25.6775 27.8929 24.9304 27.1458 24.0086 27.1458Z" fill="white" stroke="#3EA1DA" stroke-width="1.5" stroke-miterlimit="6" stroke-linecap="round" stroke-linejoin="round"/>
<path d="M34.918 50.6963V11.7054C34.918 10.7635 34.1545 10 33.2126 10H32.4934C31.5516 10 30.7881 10.7635 30.7881 11.7054L30.7881 50.6963C30.7881 51.6381 31.5516 52.4016 32.4934 52.4016H33.2126C34.1545 52.4016 34.918 51.6381 34.918 50.6963Z" fill="white" stroke="#3EA1DA" stroke-width="1.5" stroke-miterlimit="6" stroke-linecap="round" stroke-linejoin="round"/>
<path d="M43.8676 51.2524H22.0439C21.545 51.2524 21.1406 51.6569 21.1406 52.1557V54.0967C21.1406 54.5956 21.545 55 22.0439 55H43.8676C44.3665 55 44.7709 54.5956 44.7709 54.0967V52.1557C44.7709 51.6569 44.3665 51.2524 43.8676 51.2524Z" fill="white" stroke="#3EA1DA" stroke-width="1.5" stroke-miterlimit="6" stroke-linecap="round" stroke-linejoin="round"/>
<path d="M23.9517 27.0399L18.3828 15.4155L12.5977 27.0399" stroke="#3EA1DA" stroke-width="1.5" stroke-miterlimit="6" stroke-linecap="round" stroke-linejoin="round"/>
</svg>
