<svg width="66" height="65" viewBox="0 0 66 65" fill="none" xmlns="http://www.w3.org/2000/svg">
<path d="M12.5977 22.1173L20.7625 28.6931L28.9822 24.912L37.0375 16.9663L44.8736 12.4729L53.2029 18.6103" stroke="#3EA1DA" stroke-width="1.5" stroke-miterlimit="6" stroke-linecap="round" stroke-linejoin="round"/>
<path d="M10.2266 54.9297L10.2266 29.1735H15.1223L15.1223 54.9297H10.2266Z" fill="white" stroke="#3EA1DA" stroke-width="1.5" stroke-miterlimit="6" stroke-linecap="round" stroke-linejoin="round"/>
<path d="M18.1836 55V37.3178H23.22V55H18.1836Z" fill="white" stroke="#3EA1DA" stroke-width="1.5" stroke-miterlimit="6" stroke-linecap="round" stroke-linejoin="round"/>
<path d="M26.2383 54.9736V34.0891H31.2221V54.9736H26.2383Z" fill="white" stroke="#3EA1DA" stroke-width="1.5" stroke-miterlimit="6" stroke-linecap="round" stroke-linejoin="round"/>
<path d="M34.332 54.9102V27.6432H39.1886V54.9102H34.332Z" fill="white" stroke="#3EA1DA" stroke-width="1.5" stroke-miterlimit="6" stroke-linecap="round" stroke-linejoin="round"/>
<path d="M42.4004 54.8687V21.3298H47.1741V54.8687H42.4004Z" fill="white" stroke="#3EA1DA" stroke-width="1.5" stroke-miterlimit="6" stroke-linecap="round" stroke-linejoin="round"/>
<path d="M50.4004 54.8975V25.8734H55.2317V54.8975H50.4004Z" fill="white" stroke="#3EA1DA" stroke-width="1.5" stroke-miterlimit="6" stroke-linecap="round" stroke-linejoin="round"/>
<path d="M15.2298 22.1439C15.2298 22.4869 15.1622 22.8266 15.0309 23.1435C14.8997 23.4604 14.7073 23.7483 14.4647 23.9909C14.2222 24.2334 13.9343 24.4258 13.6174 24.5571C13.3005 24.6883 12.9608 24.7559 12.6178 24.7559C12.2748 24.7559 11.9352 24.6883 11.6183 24.5571C11.3014 24.4258 11.0134 24.2334 10.7709 23.9909C10.5283 23.7483 10.3359 23.4604 10.2047 23.1435C10.0734 22.8266 10.0059 22.4869 10.0059 22.1439C10.0059 21.4512 10.2811 20.7868 10.7709 20.297C11.2607 19.8072 11.9251 19.532 12.6178 19.532C13.3105 19.532 13.9749 19.8072 14.4647 20.297C14.9546 20.7868 15.2298 21.4512 15.2298 22.1439Z" fill="white" stroke="#3EA1DA" stroke-width="1.5" stroke-miterlimit="6" stroke-linecap="round" stroke-linejoin="round"/>
<path d="M23.3704 28.421C23.3704 29.1138 23.0952 29.7781 22.6054 30.268C22.1155 30.7578 21.4512 31.033 20.7584 31.033C20.0657 31.033 19.4013 30.7578 18.9115 30.268C18.4217 29.7781 18.1465 29.1138 18.1465 28.421C18.1465 28.078 18.214 27.7384 18.3453 27.4215C18.4766 27.1046 18.669 26.8166 18.9115 26.5741C19.154 26.3316 19.442 26.1392 19.7589 26.0079C20.0758 25.8766 20.4154 25.8091 20.7584 25.8091C21.1014 25.8091 21.4411 25.8766 21.758 26.0079C22.0749 26.1392 22.3628 26.3316 22.6054 26.5741C22.8479 26.8166 23.0403 27.1046 23.1716 27.4215C23.3028 27.7384 23.3704 28.078 23.3704 28.421Z" fill="white" stroke="#3EA1DA" stroke-width="1.5" stroke-miterlimit="6" stroke-linecap="round" stroke-linejoin="round"/>
<path d="M31.3977 25.0114C31.3977 25.3544 31.3302 25.694 31.1989 26.0109C31.0676 26.3278 30.8753 26.6157 30.6327 26.8583C30.3902 27.1008 30.1022 27.2932 29.7853 27.4245C29.4684 27.5558 29.1288 27.6233 28.7858 27.6233C28.4428 27.6233 28.1031 27.5558 27.7862 27.4245C27.4693 27.2932 27.1814 27.1008 26.9389 26.8583C26.6963 26.6157 26.5039 26.3278 26.3727 26.0109C26.2414 25.694 26.1738 25.3544 26.1738 25.0114C26.1738 24.3186 26.449 23.6543 26.9389 23.1644C27.4287 22.6746 28.0931 22.3994 28.7858 22.3994C29.4785 22.3994 30.1429 22.6746 30.6327 23.1644C31.1225 23.6543 31.3977 24.3186 31.3977 25.0114Z" fill="white" stroke="#3EA1DA" stroke-width="1.5" stroke-miterlimit="6" stroke-linecap="round" stroke-linejoin="round"/>
<path d="M39.427 16.9518C39.427 17.6445 39.1518 18.3089 38.662 18.7987C38.1722 19.2886 37.5078 19.5637 36.8151 19.5637C36.1223 19.5637 35.458 19.2886 34.9682 18.7987C34.4783 18.3089 34.2031 17.6445 34.2031 16.9518C34.2031 16.6088 34.2707 16.2691 34.4019 15.9522C34.5332 15.6354 34.7256 15.3474 34.9681 15.1049C35.2107 14.8623 35.4986 14.6699 35.8155 14.5387C36.1324 14.4074 36.4721 14.3398 36.8151 14.3398C37.5078 14.3398 38.1722 14.615 38.662 15.1049C39.1518 15.5947 39.427 16.2591 39.427 16.9518Z" fill="white" stroke="#3EA1DA" stroke-width="1.5" stroke-miterlimit="6" stroke-linecap="round" stroke-linejoin="round"/>
<path d="M47.4563 12.612C47.4563 13.3047 47.1811 13.969 46.6913 14.4589C46.2015 14.9487 45.5371 15.2239 44.8444 15.2239C44.5014 15.2239 44.1617 15.1563 43.8448 15.0251C43.5279 14.8938 43.24 14.7014 42.9974 14.4589C42.7549 14.2163 42.5625 13.9284 42.4312 13.6115C42.3 13.2946 42.2324 12.955 42.2324 12.612C42.2324 12.2689 42.3 11.9293 42.4312 11.6124C42.5625 11.2955 42.7549 11.0076 42.9974 10.765C43.24 10.5225 43.5279 10.3301 43.8448 10.1988C44.1617 10.0676 44.5014 10 44.8444 10C45.5371 10 46.2015 10.2752 46.6913 10.765C47.1811 11.2549 47.4563 11.9192 47.4563 12.612Z" fill="white" stroke="#3EA1DA" stroke-width="1.5" stroke-miterlimit="6" stroke-linecap="round" stroke-linejoin="round"/>
<path d="M55.4837 18.4242C55.4837 19.1169 55.2085 19.7813 54.7186 20.2711C54.2288 20.761 53.5644 21.0362 52.8717 21.0362C52.179 21.0362 51.5146 20.761 51.0248 20.2711C50.535 19.7813 50.2598 19.1169 50.2598 18.4242C50.2598 18.0812 50.3273 17.7416 50.4586 17.4247C50.5898 17.1078 50.7822 16.8198 51.0248 16.5773C51.2673 16.3347 51.5553 16.1423 51.8722 16.0111C52.1891 15.8798 52.5287 15.8123 52.8717 15.8123C53.5644 15.8123 54.2288 16.0874 54.7186 16.5773C55.2085 17.0671 55.4837 17.7315 55.4837 18.4242Z" fill="white" stroke="#3EA1DA" stroke-width="1.5" stroke-miterlimit="6" stroke-linecap="round" stroke-linejoin="round"/>
</svg>
