<svg width="66" height="65" viewBox="0 0 66 65" fill="none" xmlns="http://www.w3.org/2000/svg">
<path d="M39.8444 50.4026H53.2836C54.3365 50.4026 55.1842 51.2503 55.1842 52.3032V53.0994C55.1842 54.1523 54.3365 55 53.2836 55H39.8444C38.7915 55 37.9438 54.1523 37.9438 53.0994V52.3032C37.9438 51.2503 38.7915 50.4026 39.8444 50.4026Z" fill="white"/>
<path d="M38.438 45.803H51.8771C52.93 45.803 53.7777 46.6507 53.7777 47.7037V48.4998C53.7777 49.5528 52.93 50.4005 51.8771 50.4005H38.438C37.385 50.4005 36.5373 49.5528 36.5373 48.4998V47.7037C36.5373 46.6507 37.385 45.803 38.438 45.803Z" fill="white"/>
<path d="M39.8444 41.2035H53.2836C54.3365 41.2035 55.1842 42.0512 55.1842 43.1041V43.9003C55.1842 44.9532 54.3365 45.8009 53.2836 45.8009H39.8444C38.7915 45.8009 37.9438 44.9532 37.9438 43.9003V43.1041C37.9438 42.0512 38.7915 41.2035 39.8444 41.2035Z" fill="white"/>
<path d="M38.438 36.604H51.8771C52.93 36.604 53.7777 37.4517 53.7777 38.5046V39.3008C53.7777 40.3538 52.93 41.2014 51.8771 41.2014H38.438C37.385 41.2014 36.5373 40.3538 36.5373 39.3008V38.5046C36.5373 37.4517 37.385 36.604 38.438 36.604Z" fill="white"/>
<path d="M10.3086 48.5453V33.7731C10.3086 33.0781 10.8681 32.5187 11.563 32.5187H12.628C13.3229 32.5187 13.8824 33.0781 13.8824 33.7731V48.5453C13.8824 49.2403 13.3229 49.7998 12.628 49.7998H11.563C10.8681 49.7998 10.3086 49.2403 10.3086 48.5453Z" fill="white"/>
<path d="M16.5971 43.3689V20.8868C16.5971 20.2123 17.1401 19.6693 17.8146 19.6693H18.8482C19.5227 19.6693 20.0657 20.2123 20.0657 20.8868V43.3689C20.0657 44.0434 19.5227 44.5864 18.8482 44.5864H17.8146C17.1401 44.5864 16.5971 44.0434 16.5971 43.3689Z" fill="white"/>
<path d="M22.8153 48.1049V28.4077C22.8153 27.7263 23.3638 27.1777 24.0452 27.1777H25.0894C25.7708 27.1777 26.3194 27.7263 26.3194 28.4077V48.1049C26.3194 48.7863 25.7708 49.3349 25.0894 49.3349H24.0452C23.3638 49.3349 22.8153 48.7863 22.8153 48.1049Z" fill="white"/>
<path d="M29.0806 40.57V16.1596C29.0806 15.4896 29.6199 14.9503 30.2899 14.9503H31.3166C31.9866 14.9503 32.526 15.4896 32.526 16.1596V40.57C32.526 41.24 31.9866 41.7794 31.3166 41.7794H30.2899C29.6199 41.7794 29.0806 41.24 29.0806 40.57Z" fill="white"/>
<path d="M35.2426 31.1307V17.6428C35.2426 16.9441 35.8051 16.3816 36.5038 16.3816H37.5745C38.2732 16.3816 38.8357 16.9441 38.8357 17.6428V31.1307C38.8357 31.8294 38.2732 32.3919 37.5745 32.3919H36.5038C35.8051 32.3919 35.2426 31.8294 35.2426 31.1307Z" fill="white"/>
<path d="M41.4816 27.6415V13.7254C41.4816 13.0279 42.0431 12.4664 42.7407 12.4664H43.8096C44.5071 12.4664 45.0686 13.0279 45.0686 13.7254V27.6415C45.0686 28.339 44.5071 28.9006 43.8096 28.9006H42.7407C42.0431 28.9006 41.4816 28.339 41.4816 27.6415Z" fill="white"/>
<path d="M12.0955 30.0613V32.4923V30.0613Z" fill="white"/>
<path d="M12.0955 49.8442V52.2752V49.8442Z" fill="white"/>
<path d="M18.3314 17.0703V19.5013V17.0703Z" fill="white"/>
<path d="M18.3314 44.8985V47.3295V44.8985Z" fill="white"/>
<path d="M24.5673 24.5208V26.9517V24.5208Z" fill="white"/>
<path d="M24.5673 49.536V51.967V49.536Z" fill="white"/>
<path d="M30.8033 12.2047V14.6357V12.2047Z" fill="white"/>
<path d="M30.8033 41.7055V44.1364V41.7055Z" fill="white"/>
<path d="M37.0392 13.8012V16.2322V13.8012Z" fill="white"/>
<path d="M37.0392 32.5064V34.9373V32.5064Z" fill="white"/>
<path d="M43.2751 10V12.431V10Z" fill="white"/>
<path d="M43.2751 29.0853V31.5162V29.0853Z" fill="white"/>
<path d="M12.0955 30.0613V32.4923M12.0955 49.8442V52.2752M18.3314 17.0703V19.5013M18.3314 44.8985V47.3295M24.5673 24.5208V26.9517M24.5673 49.536V51.967M30.8033 12.2047V14.6357M30.8033 41.7055V44.1364M37.0392 13.8012V16.2322M37.0392 32.5064V34.9373M43.2751 10V12.431M43.2751 29.0853V31.5162M39.8444 50.4026H53.2836C54.3365 50.4026 55.1842 51.2503 55.1842 52.3032V53.0994C55.1842 54.1523 54.3365 55 53.2836 55H39.8444C38.7915 55 37.9438 54.1523 37.9438 53.0994V52.3032C37.9438 51.2503 38.7915 50.4026 39.8444 50.4026ZM38.438 45.803H51.8771C52.93 45.803 53.7777 46.6507 53.7777 47.7037V48.4998C53.7777 49.5528 52.93 50.4005 51.8771 50.4005H38.438C37.385 50.4005 36.5373 49.5528 36.5373 48.4998V47.7037C36.5373 46.6507 37.385 45.803 38.438 45.803ZM39.8444 41.2035H53.2836C54.3365 41.2035 55.1842 42.0512 55.1842 43.1041V43.9003C55.1842 44.9532 54.3365 45.8009 53.2836 45.8009H39.8444C38.7915 45.8009 37.9438 44.9532 37.9438 43.9003V43.1041C37.9438 42.0512 38.7915 41.2035 39.8444 41.2035ZM38.438 36.604H51.8771C52.93 36.604 53.7777 37.4517 53.7777 38.5046V39.3008C53.7777 40.3538 52.93 41.2014 51.8771 41.2014H38.438C37.385 41.2014 36.5373 40.3538 36.5373 39.3008V38.5046C36.5373 37.4517 37.385 36.604 38.438 36.604ZM10.3086 48.5453V33.7731C10.3086 33.0781 10.8681 32.5187 11.563 32.5187H12.628C13.3229 32.5187 13.8824 33.0781 13.8824 33.7731V48.5453C13.8824 49.2403 13.3229 49.7998 12.628 49.7998H11.563C10.8681 49.7998 10.3086 49.2403 10.3086 48.5453ZM16.5971 43.3689V20.8868C16.5971 20.2123 17.1401 19.6693 17.8146 19.6693H18.8482C19.5227 19.6693 20.0657 20.2123 20.0657 20.8868V43.3689C20.0657 44.0434 19.5227 44.5864 18.8482 44.5864H17.8146C17.1401 44.5864 16.5971 44.0434 16.5971 43.3689ZM22.8153 48.1049V28.4077C22.8153 27.7263 23.3638 27.1777 24.0452 27.1777H25.0894C25.7708 27.1777 26.3194 27.7263 26.3194 28.4077V48.1049C26.3194 48.7863 25.7708 49.3349 25.0894 49.3349H24.0452C23.3638 49.3349 22.8153 48.7863 22.8153 48.1049ZM29.0806 40.57V16.1596C29.0806 15.4896 29.6199 14.9503 30.2899 14.9503H31.3166C31.9866 14.9503 32.526 15.4896 32.526 16.1596V40.57C32.526 41.24 31.9866 41.7794 31.3166 41.7794H30.2899C29.6199 41.7794 29.0806 41.24 29.0806 40.57ZM35.2426 31.1307V17.6428C35.2426 16.9441 35.8051 16.3816 36.5038 16.3816H37.5745C38.2732 16.3816 38.8357 16.9441 38.8357 17.6428V31.1307C38.8357 31.8294 38.2732 32.3919 37.5745 32.3919H36.5038C35.8051 32.3919 35.2426 31.8294 35.2426 31.1307ZM41.4816 27.6415V13.7254C41.4816 13.0279 42.0431 12.4664 42.7407 12.4664H43.8096C44.5071 12.4664 45.0686 13.0279 45.0686 13.7254V27.6415C45.0686 28.339 44.5071 28.9006 43.8096 28.9006H42.7407C42.0431 28.9006 41.4816 28.339 41.4816 27.6415Z" stroke="#3EA1DA" stroke-width="1.5" stroke-miterlimit="6" stroke-linecap="round" stroke-linejoin="round"/>
</svg>
