<svg width="419" height="243" viewBox="0 0 419 243" fill="none" xmlns="http://www.w3.org/2000/svg">
<rect x="0.246094" width="418" height="243" rx="16" fill="white"/>
<path d="M25.9901 20.68V19.601H28.4341V29H27.2381V20.68H25.9901ZM30.3232 28.051C31.4238 27.167 32.2862 26.4433 32.9102 25.88C33.5342 25.308 34.0585 24.7143 34.4832 24.099C34.9165 23.475 35.1332 22.864 35.1332 22.266C35.1332 21.7027 34.9945 21.2607 34.7172 20.94C34.4485 20.6107 34.0108 20.446 33.4042 20.446C32.8148 20.446 32.3555 20.6323 32.0262 21.005C31.7055 21.369 31.5322 21.8587 31.5062 22.474H30.3622C30.3968 21.5033 30.6915 20.7537 31.2462 20.225C31.8008 19.6963 32.5158 19.432 33.3912 19.432C34.2838 19.432 34.9902 19.679 35.5102 20.173C36.0388 20.667 36.3032 21.3473 36.3032 22.214C36.3032 22.9333 36.0865 23.6353 35.6532 24.32C35.2285 24.996 34.7432 25.594 34.1972 26.114C33.6512 26.6253 32.9535 27.2233 32.1042 27.908H36.5762V28.896H30.3232V28.051ZM37.6577 26.907V26.01L42.2207 19.692H43.6377V25.88H44.9377V26.907H43.6377V29H42.4677V26.907H37.6577ZM42.5197 20.927L39.0227 25.88H42.5197V20.927ZM46.1195 24.203C46.1195 22.7123 46.3621 21.551 46.8475 20.719C47.3328 19.8783 48.1821 19.458 49.3955 19.458C50.6001 19.458 51.4451 19.8783 51.9305 20.719C52.4158 21.551 52.6585 22.7123 52.6585 24.203C52.6585 25.7197 52.4158 26.8983 51.9305 27.739C51.4451 28.5797 50.6001 29 49.3955 29C48.1821 29 47.3328 28.5797 46.8475 27.739C46.3621 26.8983 46.1195 25.7197 46.1195 24.203ZM51.4885 24.203C51.4885 23.449 51.4365 22.812 51.3325 22.292C51.2371 21.7633 51.0335 21.3387 50.7215 21.018C50.4181 20.6973 49.9761 20.537 49.3955 20.537C48.8061 20.537 48.3555 20.6973 48.0435 21.018C47.7401 21.3387 47.5365 21.7633 47.4325 22.292C47.3371 22.812 47.2895 23.449 47.2895 24.203C47.2895 24.983 47.3371 25.6373 47.4325 26.166C47.5365 26.6947 47.7401 27.1193 48.0435 27.44C48.3555 27.7607 48.8061 27.921 49.3955 27.921C49.9761 27.921 50.4181 27.7607 50.7215 27.44C51.0335 27.1193 51.2371 26.6947 51.3325 26.166C51.4365 25.6373 51.4885 24.983 51.4885 24.203Z" fill="#A5A5A7"/>
<path d="M25.9901 59.68V58.601H28.4341V68H27.2381V59.68H25.9901ZM30.3232 67.051C31.4238 66.167 32.2862 65.4433 32.9102 64.88C33.5342 64.308 34.0585 63.7143 34.4832 63.099C34.9165 62.475 35.1332 61.864 35.1332 61.266C35.1332 60.7027 34.9945 60.2607 34.7172 59.94C34.4485 59.6107 34.0108 59.446 33.4042 59.446C32.8148 59.446 32.3555 59.6323 32.0262 60.005C31.7055 60.369 31.5322 60.8587 31.5062 61.474H30.3622C30.3968 60.5033 30.6915 59.7537 31.2462 59.225C31.8008 58.6963 32.5158 58.432 33.3912 58.432C34.2838 58.432 34.9902 58.679 35.5102 59.173C36.0388 59.667 36.3032 60.3473 36.3032 61.214C36.3032 61.9333 36.0865 62.6353 35.6532 63.32C35.2285 63.996 34.7432 64.594 34.1972 65.114C33.6512 65.6253 32.9535 66.2233 32.1042 66.908H36.5762V67.896H30.3232V67.051ZM37.9177 60.967C37.9784 60.1697 38.286 59.5457 38.8407 59.095C39.3954 58.6443 40.1147 58.419 40.9987 58.419C41.588 58.419 42.095 58.5273 42.5197 58.744C42.953 58.952 43.278 59.238 43.4947 59.602C43.72 59.966 43.8327 60.3777 43.8327 60.837C43.8327 61.3743 43.6767 61.838 43.3647 62.228C43.0614 62.618 42.6627 62.8693 42.1687 62.982V63.047C42.732 63.1857 43.1784 63.4587 43.5077 63.866C43.837 64.2733 44.0017 64.8063 44.0017 65.465C44.0017 65.959 43.889 66.4053 43.6637 66.804C43.4384 67.194 43.1004 67.5017 42.6497 67.727C42.199 67.9523 41.6574 68.065 41.0247 68.065C40.106 68.065 39.352 67.8267 38.7627 67.35C38.1734 66.8647 37.844 66.18 37.7747 65.296H38.9187C38.9794 65.816 39.1917 66.2407 39.5557 66.57C39.9197 66.8993 40.405 67.064 41.0117 67.064C41.6184 67.064 42.0777 66.908 42.3897 66.596C42.7104 66.2753 42.8707 65.8637 42.8707 65.361C42.8707 64.711 42.654 64.243 42.2207 63.957C41.7874 63.671 41.133 63.528 40.2577 63.528H39.9587V62.54H40.2707C41.068 62.5313 41.6704 62.4013 42.0777 62.15C42.485 61.89 42.6887 61.4913 42.6887 60.954C42.6887 60.4947 42.537 60.1263 42.2337 59.849C41.939 59.5717 41.5144 59.433 40.9597 59.433C40.4224 59.433 39.989 59.5717 39.6597 59.849C39.3304 60.1263 39.1354 60.499 39.0747 60.967H37.9177ZM51.592 59.628H47.029V62.592C47.2283 62.3147 47.523 62.0893 47.913 61.916C48.303 61.734 48.7233 61.643 49.174 61.643C49.8933 61.643 50.4783 61.7947 50.929 62.098C51.3796 62.3927 51.7003 62.7783 51.891 63.255C52.0903 63.723 52.19 64.2213 52.19 64.75C52.19 65.374 52.073 65.933 51.839 66.427C51.605 66.921 51.2453 67.311 50.76 67.597C50.2833 67.883 49.6896 68.026 48.979 68.026C48.069 68.026 47.3323 67.792 46.769 67.324C46.2056 66.856 45.8633 66.232 45.742 65.452H46.899C47.0116 65.946 47.25 66.3317 47.614 66.609C47.978 66.8863 48.4373 67.025 48.992 67.025C49.6766 67.025 50.1923 66.8213 50.539 66.414C50.8856 65.998 51.059 65.452 51.059 64.776C51.059 64.1 50.8856 63.58 50.539 63.216C50.1923 62.8433 49.681 62.657 49.005 62.657C48.5456 62.657 48.1426 62.7697 47.796 62.995C47.458 63.2117 47.211 63.5107 47.055 63.892H45.937V58.588H51.592V59.628Z" fill="#A5A5A7"/>
<path d="M25.9901 98.68V97.601H28.4341V107H27.2381V98.68H25.9901ZM30.3232 106.051C31.4238 105.167 32.2862 104.443 32.9102 103.88C33.5342 103.308 34.0585 102.714 34.4832 102.099C34.9165 101.475 35.1332 100.864 35.1332 100.266C35.1332 99.7027 34.9945 99.2607 34.7172 98.94C34.4485 98.6107 34.0108 98.446 33.4042 98.446C32.8148 98.446 32.3555 98.6323 32.0262 99.005C31.7055 99.369 31.5322 99.8587 31.5062 100.474H30.3622C30.3968 99.5033 30.6915 98.7537 31.2462 98.225C31.8008 97.6963 32.5158 97.432 33.3912 97.432C34.2838 97.432 34.9902 97.679 35.5102 98.173C36.0388 98.667 36.3032 99.3473 36.3032 100.214C36.3032 100.933 36.0865 101.635 35.6532 102.32C35.2285 102.996 34.7432 103.594 34.1972 104.114C33.6512 104.625 32.9535 105.223 32.1042 105.908H36.5762V106.896H30.3232V106.051ZM37.8007 106.051C38.9014 105.167 39.7637 104.443 40.3877 103.88C41.0117 103.308 41.536 102.714 41.9607 102.099C42.394 101.475 42.6107 100.864 42.6107 100.266C42.6107 99.7027 42.472 99.2607 42.1947 98.94C41.926 98.6107 41.4884 98.446 40.8817 98.446C40.2924 98.446 39.833 98.6323 39.5037 99.005C39.183 99.369 39.0097 99.8587 38.9837 100.474H37.8397C37.8744 99.5033 38.169 98.7537 38.7237 98.225C39.2784 97.6963 39.9934 97.432 40.8687 97.432C41.7614 97.432 42.4677 97.679 42.9877 98.173C43.5164 98.667 43.7807 99.3473 43.7807 100.214C43.7807 100.933 43.564 101.635 43.1307 102.32C42.706 102.996 42.2207 103.594 41.6747 104.114C41.1287 104.625 40.431 105.223 39.5817 105.908H44.0537V106.896H37.8007V106.051ZM46.9422 104.478C47.0289 104.972 47.2282 105.353 47.5402 105.622C47.8609 105.891 48.2899 106.025 48.8272 106.025C49.5466 106.025 50.0752 105.743 50.4132 105.18C50.7599 104.617 50.9246 103.668 50.9072 102.333C50.7252 102.723 50.4219 103.031 49.9972 103.256C49.5726 103.473 49.1002 103.581 48.5802 103.581C47.9996 103.581 47.4796 103.464 47.0202 103.23C46.5696 102.987 46.2142 102.636 45.9542 102.177C45.6942 101.718 45.5642 101.163 45.5642 100.513C45.5642 99.5857 45.8329 98.8403 46.3702 98.277C46.9076 97.705 47.6702 97.419 48.6582 97.419C49.8716 97.419 50.7209 97.8133 51.2062 98.602C51.7002 99.3907 51.9472 100.565 51.9472 102.125C51.9472 103.217 51.8476 104.118 51.6482 104.829C51.4576 105.54 51.1282 106.081 50.6602 106.454C50.2009 106.827 49.5682 107.013 48.7622 107.013C47.8782 107.013 47.1892 106.775 46.6952 106.298C46.2012 105.821 45.9196 105.215 45.8502 104.478H46.9422ZM48.7752 102.58C49.3559 102.58 49.8326 102.402 50.2052 102.047C50.5779 101.683 50.7642 101.193 50.7642 100.578C50.7642 99.928 50.5822 99.4037 50.2182 99.005C49.8542 98.6063 49.3429 98.407 48.6842 98.407C48.0776 98.407 47.5922 98.5977 47.2282 98.979C46.8729 99.3603 46.6952 99.863 46.6952 100.487C46.6952 101.12 46.8729 101.627 47.2282 102.008C47.5836 102.389 48.0992 102.58 48.7752 102.58Z" fill="#A5A5A7"/>
<path d="M25.9901 137.68V136.601H28.4341V146H27.2381V137.68H25.9901ZM30.3232 145.051C31.4238 144.167 32.2862 143.443 32.9102 142.88C33.5342 142.308 34.0585 141.714 34.4832 141.099C34.9165 140.475 35.1332 139.864 35.1332 139.266C35.1332 138.703 34.9945 138.261 34.7172 137.94C34.4485 137.611 34.0108 137.446 33.4042 137.446C32.8148 137.446 32.3555 137.632 32.0262 138.005C31.7055 138.369 31.5322 138.859 31.5062 139.474H30.3622C30.3968 138.503 30.6915 137.754 31.2462 137.225C31.8008 136.696 32.5158 136.432 33.3912 136.432C34.2838 136.432 34.9902 136.679 35.5102 137.173C36.0388 137.667 36.3032 138.347 36.3032 139.214C36.3032 139.933 36.0865 140.635 35.6532 141.32C35.2285 141.996 34.7432 142.594 34.1972 143.114C33.6512 143.625 32.9535 144.223 32.1042 144.908H36.5762V145.896H30.3232V145.051ZM37.8007 145.051C38.9014 144.167 39.7637 143.443 40.3877 142.88C41.0117 142.308 41.536 141.714 41.9607 141.099C42.394 140.475 42.6107 139.864 42.6107 139.266C42.6107 138.703 42.472 138.261 42.1947 137.94C41.926 137.611 41.4884 137.446 40.8817 137.446C40.2924 137.446 39.833 137.632 39.5037 138.005C39.183 138.369 39.0097 138.859 38.9837 139.474H37.8397C37.8744 138.503 38.169 137.754 38.7237 137.225C39.2784 136.696 39.9934 136.432 40.8687 136.432C41.7614 136.432 42.4677 136.679 42.9877 137.173C43.5164 137.667 43.7807 138.347 43.7807 139.214C43.7807 139.933 43.564 140.635 43.1307 141.32C42.706 141.996 42.2207 142.594 41.6747 143.114C41.1287 143.625 40.431 144.223 39.5817 144.908H44.0537V145.896H37.8007V145.051ZM45.1352 143.907V143.01L49.6982 136.692H51.1152V142.88H52.4152V143.907H51.1152V146H49.9452V143.907H45.1352ZM49.9972 137.927L46.5002 142.88H49.9972V137.927Z" fill="#A5A5A7"/>
<path d="M28.9901 176.68V175.601H31.4341V185H30.2381V176.68H28.9901ZM33.3232 184.051C34.4238 183.167 35.2862 182.443 35.9102 181.88C36.5342 181.308 37.0585 180.714 37.4832 180.099C37.9165 179.475 38.1332 178.864 38.1332 178.266C38.1332 177.703 37.9945 177.261 37.7172 176.94C37.4485 176.611 37.0108 176.446 36.4042 176.446C35.8148 176.446 35.3555 176.632 35.0262 177.005C34.7055 177.369 34.5322 177.859 34.5062 178.474H33.3622C33.3968 177.503 33.6915 176.754 34.2462 176.225C34.8008 175.696 35.5158 175.432 36.3912 175.432C37.2838 175.432 37.9902 175.679 38.5102 176.173C39.0388 176.667 39.3032 177.347 39.3032 178.214C39.3032 178.933 39.0865 179.635 38.6532 180.32C38.2285 180.996 37.7432 181.594 37.1972 182.114C36.6512 182.625 35.9535 183.223 35.1042 183.908H39.5762V184.896H33.3232V184.051ZM40.6317 176.68V175.601H43.0757V185H41.8797V176.68H40.6317ZM46.8238 180.112C46.3384 179.921 45.9658 179.644 45.7058 179.28C45.4458 178.916 45.3158 178.474 45.3158 177.954C45.3158 177.486 45.4328 177.066 45.6668 176.693C45.9008 176.312 46.2474 176.013 46.7068 175.796C47.1748 175.571 47.7381 175.458 48.3968 175.458C49.0554 175.458 49.6144 175.571 50.0738 175.796C50.5418 176.013 50.8928 176.312 51.1268 176.693C51.3694 177.066 51.4908 177.486 51.4908 177.954C51.4908 178.457 51.3564 178.899 51.0878 179.28C50.8191 179.653 50.4508 179.93 49.9828 180.112C50.5201 180.277 50.9448 180.567 51.2568 180.983C51.5774 181.39 51.7378 181.884 51.7378 182.465C51.7378 183.028 51.5991 183.522 51.3218 183.947C51.0444 184.363 50.6501 184.688 50.1388 184.922C49.6361 185.147 49.0554 185.26 48.3968 185.26C47.7381 185.26 47.1574 185.147 46.6548 184.922C46.1608 184.688 45.7751 184.363 45.4978 183.947C45.2204 183.522 45.0818 183.028 45.0818 182.465C45.0818 181.884 45.2378 181.386 45.5498 180.97C45.8618 180.554 46.2864 180.268 46.8238 180.112ZM50.3468 178.097C50.3468 177.568 50.1734 177.161 49.8268 176.875C49.4801 176.589 49.0034 176.446 48.3968 176.446C47.7988 176.446 47.3264 176.589 46.9798 176.875C46.6331 177.161 46.4598 177.573 46.4598 178.11C46.4598 178.595 46.6374 178.985 46.9928 179.28C47.3568 179.575 47.8248 179.722 48.3968 179.722C48.9774 179.722 49.4454 179.575 49.8008 179.28C50.1648 178.977 50.3468 178.582 50.3468 178.097ZM48.3968 180.632C47.7554 180.632 47.2311 180.784 46.8238 181.087C46.4164 181.382 46.2128 181.828 46.2128 182.426C46.2128 182.981 46.4078 183.427 46.7978 183.765C47.1964 184.103 47.7294 184.272 48.3968 184.272C49.0641 184.272 49.5928 184.103 49.9828 183.765C50.3728 183.427 50.5678 182.981 50.5678 182.426C50.5678 181.845 50.3684 181.403 49.9698 181.1C49.5711 180.788 49.0468 180.632 48.3968 180.632Z" fill="#A5A5A7"/>
<path d="M195.496 106.547L63.4961 194H392.996V20L305.996 71.6562L294.996 67.5781L261.996 82.9844H244.496L205.996 110.625L195.496 106.547Z" fill="url(#paint0_linear_1146_416)"/>
<path d="M72.2461 188L191.719 108.994C194.456 107.184 198.017 107.212 200.725 109.065V109.065C203.697 111.098 207.657 110.916 210.43 108.617L240.97 83.3012C242.764 81.8139 245.021 81 247.352 81H259.9C261.12 81 262.331 80.7765 263.471 80.3405L291.521 69.6157C294.207 68.5887 297.205 68.7677 299.749 70.107L300.251 70.3708C303.351 72.0026 307.079 71.8928 310.078 70.0815L392.996 20" stroke="#42A5DC" stroke-width="3" stroke-linecap="round"/>
<path d="M71.5681 206.939C72.5561 206.939 73.4098 207.125 74.1291 207.498C74.8571 207.862 75.4118 208.386 75.7931 209.071C76.1831 209.756 76.3781 210.562 76.3781 211.489C76.3781 212.416 76.1831 213.222 75.7931 213.907C75.4118 214.583 74.8571 215.103 74.1291 215.467C73.4098 215.822 72.5561 216 71.5681 216H68.7471V206.939H71.5681ZM71.5681 215.025C72.7381 215.025 73.6308 214.717 74.2461 214.102C74.8614 213.478 75.1691 212.607 75.1691 211.489C75.1691 210.362 74.8571 209.483 74.2331 208.85C73.6178 208.217 72.7294 207.901 71.5681 207.901H69.9301V215.025H71.5681ZM84.4385 212.165C84.4385 212.39 84.4255 212.629 84.3995 212.88H78.7055C78.7488 213.582 78.9872 214.132 79.4205 214.531C79.8625 214.921 80.3955 215.116 81.0195 215.116C81.5308 215.116 81.9555 214.999 82.2935 214.765C82.6402 214.522 82.8828 214.202 83.0215 213.803H84.2955C84.1048 214.488 83.7235 215.047 83.1515 215.48C82.5795 215.905 81.8688 216.117 81.0195 216.117C80.3435 216.117 79.7368 215.965 79.1995 215.662C78.6708 215.359 78.2548 214.93 77.9515 214.375C77.6482 213.812 77.4965 213.162 77.4965 212.425C77.4965 211.688 77.6438 211.043 77.9385 210.488C78.2332 209.933 78.6448 209.509 79.1735 209.214C79.7108 208.911 80.3262 208.759 81.0195 208.759C81.6955 208.759 82.2935 208.906 82.8135 209.201C83.3335 209.496 83.7322 209.903 84.0095 210.423C84.2955 210.934 84.4385 211.515 84.4385 212.165ZM83.2165 211.918C83.2165 211.467 83.1168 211.082 82.9175 210.761C82.7182 210.432 82.4452 210.185 82.0985 210.02C81.7605 209.847 81.3835 209.76 80.9675 209.76C80.3695 209.76 79.8582 209.951 79.4335 210.332C79.0175 210.713 78.7792 211.242 78.7185 211.918H83.2165ZM85.558 212.425C85.558 211.688 85.7054 211.047 86 210.501C86.2947 209.946 86.702 209.517 87.222 209.214C87.7507 208.911 88.353 208.759 89.029 208.759C89.9044 208.759 90.6237 208.971 91.187 209.396C91.759 209.821 92.136 210.41 92.318 211.164H91.044C90.9227 210.731 90.6844 210.388 90.329 210.137C89.9824 209.886 89.549 209.76 89.029 209.76C88.353 209.76 87.807 209.994 87.391 210.462C86.975 210.921 86.767 211.576 86.767 212.425C86.767 213.283 86.975 213.946 87.391 214.414C87.807 214.882 88.353 215.116 89.029 215.116C89.549 215.116 89.9824 214.995 90.329 214.752C90.6757 214.509 90.914 214.163 91.044 213.712H92.318C92.1274 214.44 91.746 215.025 91.174 215.467C90.602 215.9 89.887 216.117 89.029 216.117C88.353 216.117 87.7507 215.965 87.222 215.662C86.702 215.359 86.2947 214.93 86 214.375C85.7054 213.82 85.558 213.17 85.558 212.425ZM97.0243 215.051C98.125 214.167 98.9873 213.443 99.6113 212.88C100.235 212.308 100.76 211.714 101.184 211.099C101.618 210.475 101.834 209.864 101.834 209.266C101.834 208.703 101.696 208.261 101.418 207.94C101.15 207.611 100.712 207.446 100.105 207.446C99.516 207.446 99.0567 207.632 98.7273 208.005C98.4067 208.369 98.2333 208.859 98.2073 209.474H97.0633C97.098 208.503 97.3927 207.754 97.9473 207.225C98.502 206.696 99.217 206.432 100.092 206.432C100.985 206.432 101.691 206.679 102.211 207.173C102.74 207.667 103.004 208.347 103.004 209.214C103.004 209.933 102.788 210.635 102.354 211.32C101.93 211.996 101.444 212.594 100.898 213.114C100.352 213.625 99.6547 214.223 98.8053 214.908H103.277V215.896H97.0243V215.051ZM104.619 208.967C104.68 208.17 104.987 207.546 105.542 207.095C106.097 206.644 106.816 206.419 107.7 206.419C108.289 206.419 108.796 206.527 109.221 206.744C109.654 206.952 109.979 207.238 110.196 207.602C110.421 207.966 110.534 208.378 110.534 208.837C110.534 209.374 110.378 209.838 110.066 210.228C109.763 210.618 109.364 210.869 108.87 210.982V211.047C109.433 211.186 109.88 211.459 110.209 211.866C110.538 212.273 110.703 212.806 110.703 213.465C110.703 213.959 110.59 214.405 110.365 214.804C110.14 215.194 109.802 215.502 109.351 215.727C108.9 215.952 108.359 216.065 107.726 216.065C106.807 216.065 106.053 215.827 105.464 215.35C104.875 214.865 104.545 214.18 104.476 213.296H105.62C105.681 213.816 105.893 214.241 106.257 214.57C106.621 214.899 107.106 215.064 107.713 215.064C108.32 215.064 108.779 214.908 109.091 214.596C109.412 214.275 109.572 213.864 109.572 213.361C109.572 212.711 109.355 212.243 108.922 211.957C108.489 211.671 107.834 211.528 106.959 211.528H106.66V210.54H106.972C107.769 210.531 108.372 210.401 108.779 210.15C109.186 209.89 109.39 209.491 109.39 208.954C109.39 208.495 109.238 208.126 108.935 207.849C108.64 207.572 108.216 207.433 107.661 207.433C107.124 207.433 106.69 207.572 106.361 207.849C106.032 208.126 105.837 208.499 105.776 208.967H104.619Z" fill="#A5A5A7"/>
<path d="M143.869 206.939V207.901H139.93V210.956H143.128V211.918H139.93V216H138.747V206.939H143.869ZM151.798 212.165C151.798 212.39 151.785 212.629 151.759 212.88H146.065C146.108 213.582 146.347 214.132 146.78 214.531C147.222 214.921 147.755 215.116 148.379 215.116C148.89 215.116 149.315 214.999 149.653 214.765C150 214.522 150.242 214.202 150.381 213.803H151.655C151.464 214.488 151.083 215.047 150.511 215.48C149.939 215.905 149.228 216.117 148.379 216.117C147.703 216.117 147.096 215.965 146.559 215.662C146.03 215.359 145.614 214.93 145.311 214.375C145.008 213.812 144.856 213.162 144.856 212.425C144.856 211.688 145.003 211.043 145.298 210.488C145.593 209.933 146.004 209.509 146.533 209.214C147.07 208.911 147.686 208.759 148.379 208.759C149.055 208.759 149.653 208.906 150.173 209.201C150.693 209.496 151.092 209.903 151.369 210.423C151.655 210.934 151.798 211.515 151.798 212.165ZM150.576 211.918C150.576 211.467 150.476 211.082 150.277 210.761C150.078 210.432 149.805 210.185 149.458 210.02C149.12 209.847 148.743 209.76 148.327 209.76C147.729 209.76 147.218 209.951 146.793 210.332C146.377 210.713 146.139 211.242 146.078 211.918H150.576ZM154.542 210.202C154.785 209.777 155.14 209.431 155.608 209.162C156.076 208.893 156.609 208.759 157.207 208.759C157.849 208.759 158.425 208.911 158.936 209.214C159.448 209.517 159.851 209.946 160.145 210.501C160.44 211.047 160.587 211.684 160.587 212.412C160.587 213.131 160.44 213.773 160.145 214.336C159.851 214.899 159.443 215.337 158.923 215.649C158.412 215.961 157.84 216.117 157.207 216.117C156.592 216.117 156.05 215.983 155.582 215.714C155.123 215.445 154.776 215.103 154.542 214.687V216H153.359V206.38H154.542V210.202ZM159.378 212.412C159.378 211.875 159.27 211.407 159.053 211.008C158.837 210.609 158.542 210.306 158.169 210.098C157.805 209.89 157.402 209.786 156.96 209.786C156.527 209.786 156.124 209.894 155.751 210.111C155.387 210.319 155.093 210.627 154.867 211.034C154.651 211.433 154.542 211.896 154.542 212.425C154.542 212.962 154.651 213.435 154.867 213.842C155.093 214.241 155.387 214.548 155.751 214.765C156.124 214.973 156.527 215.077 156.96 215.077C157.402 215.077 157.805 214.973 158.169 214.765C158.542 214.548 158.837 214.241 159.053 213.842C159.27 213.435 159.378 212.958 159.378 212.412ZM165.272 215.051C166.373 214.167 167.235 213.443 167.859 212.88C168.483 212.308 169.008 211.714 169.432 211.099C169.866 210.475 170.082 209.864 170.082 209.266C170.082 208.703 169.944 208.261 169.666 207.94C169.398 207.611 168.96 207.446 168.353 207.446C167.764 207.446 167.305 207.632 166.975 208.005C166.655 208.369 166.481 208.859 166.455 209.474H165.311C165.346 208.503 165.641 207.754 166.195 207.225C166.75 206.696 167.465 206.432 168.34 206.432C169.233 206.432 169.939 206.679 170.459 207.173C170.988 207.667 171.252 208.347 171.252 209.214C171.252 209.933 171.036 210.635 170.602 211.32C170.178 211.996 169.692 212.594 169.146 213.114C168.6 213.625 167.903 214.223 167.053 214.908H171.525V215.896H165.272V215.051ZM172.607 213.907V213.01L177.17 206.692H178.587V212.88H179.887V213.907H178.587V216H177.417V213.907H172.607ZM177.469 207.927L173.972 212.88H177.469V207.927Z" fill="#A5A5A7"/>
<path d="M212.31 206.939V213.634C212.31 214.379 212.08 214.977 211.621 215.428C211.162 215.87 210.555 216.091 209.801 216.091C209.038 216.091 208.427 215.866 207.968 215.415C207.509 214.956 207.279 214.332 207.279 213.543H208.462C208.471 213.985 208.583 214.345 208.8 214.622C209.025 214.899 209.359 215.038 209.801 215.038C210.243 215.038 210.572 214.908 210.789 214.648C211.006 214.379 211.114 214.041 211.114 213.634V206.939H212.31ZM214.199 212.412C214.199 211.684 214.346 211.047 214.641 210.501C214.935 209.946 215.338 209.517 215.85 209.214C216.37 208.911 216.946 208.759 217.579 208.759C218.203 208.759 218.744 208.893 219.204 209.162C219.663 209.431 220.005 209.769 220.231 210.176V208.876H221.427V216H220.231V214.674C219.997 215.09 219.646 215.437 219.178 215.714C218.718 215.983 218.181 216.117 217.566 216.117C216.933 216.117 216.361 215.961 215.85 215.649C215.338 215.337 214.935 214.899 214.641 214.336C214.346 213.773 214.199 213.131 214.199 212.412ZM220.231 212.425C220.231 211.888 220.122 211.42 219.906 211.021C219.689 210.622 219.394 210.319 219.022 210.111C218.658 209.894 218.255 209.786 217.813 209.786C217.371 209.786 216.968 209.89 216.604 210.098C216.24 210.306 215.949 210.609 215.733 211.008C215.516 211.407 215.408 211.875 215.408 212.412C215.408 212.958 215.516 213.435 215.733 213.842C215.949 214.241 216.24 214.548 216.604 214.765C216.968 214.973 217.371 215.077 217.813 215.077C218.255 215.077 218.658 214.973 219.022 214.765C219.394 214.548 219.689 214.241 219.906 213.842C220.122 213.435 220.231 212.962 220.231 212.425ZM226.897 208.746C227.763 208.746 228.465 209.01 229.003 209.539C229.54 210.059 229.809 210.813 229.809 211.801V216H228.639V211.97C228.639 211.259 228.461 210.718 228.106 210.345C227.75 209.964 227.265 209.773 226.65 209.773C226.026 209.773 225.527 209.968 225.155 210.358C224.791 210.748 224.609 211.316 224.609 212.061V216H223.426V208.876H224.609V209.89C224.843 209.526 225.159 209.244 225.558 209.045C225.965 208.846 226.411 208.746 226.897 208.746ZM234.869 215.051C235.97 214.167 236.832 213.443 237.456 212.88C238.08 212.308 238.604 211.714 239.029 211.099C239.462 210.475 239.679 209.864 239.679 209.266C239.679 208.703 239.54 208.261 239.263 207.94C238.994 207.611 238.557 207.446 237.95 207.446C237.361 207.446 236.901 207.632 236.572 208.005C236.251 208.369 236.078 208.859 236.052 209.474H234.908C234.943 208.503 235.237 207.754 235.792 207.225C236.347 206.696 237.062 206.432 237.937 206.432C238.83 206.432 239.536 206.679 240.056 207.173C240.585 207.667 240.849 208.347 240.849 209.214C240.849 209.933 240.632 210.635 240.199 211.32C239.774 211.996 239.289 212.594 238.743 213.114C238.197 213.625 237.499 214.223 236.65 214.908H241.122V215.896H234.869V215.051ZM242.204 213.907V213.01L246.767 206.692H248.184V212.88H249.484V213.907H248.184V216H247.014V213.907H242.204ZM247.066 207.927L243.569 212.88H247.066V207.927Z" fill="#A5A5A7"/>
<path d="M286.938 207.004V216H285.755V209.292L282.765 216H281.933L278.93 209.279V216H277.747V207.004H279.021L282.349 214.44L285.677 207.004H286.938ZM288.502 212.412C288.502 211.684 288.65 211.047 288.944 210.501C289.239 209.946 289.642 209.517 290.153 209.214C290.673 208.911 291.25 208.759 291.882 208.759C292.506 208.759 293.048 208.893 293.507 209.162C293.967 209.431 294.309 209.769 294.534 210.176V208.876H295.73V216H294.534V214.674C294.3 215.09 293.949 215.437 293.481 215.714C293.022 215.983 292.485 216.117 291.869 216.117C291.237 216.117 290.665 215.961 290.153 215.649C289.642 215.337 289.239 214.899 288.944 214.336C288.65 213.773 288.502 213.131 288.502 212.412ZM294.534 212.425C294.534 211.888 294.426 211.42 294.209 211.021C293.993 210.622 293.698 210.319 293.325 210.111C292.961 209.894 292.558 209.786 292.116 209.786C291.674 209.786 291.271 209.89 290.907 210.098C290.543 210.306 290.253 210.609 290.036 211.008C289.82 211.407 289.711 211.875 289.711 212.412C289.711 212.958 289.82 213.435 290.036 213.842C290.253 214.241 290.543 214.548 290.907 214.765C291.271 214.973 291.674 215.077 292.116 215.077C292.558 215.077 292.961 214.973 293.325 214.765C293.698 214.548 293.993 214.241 294.209 213.842C294.426 213.435 294.534 212.962 294.534 212.425ZM298.913 210.033C299.121 209.626 299.415 209.309 299.797 209.084C300.187 208.859 300.659 208.746 301.214 208.746V209.968H300.902C299.576 209.968 298.913 210.687 298.913 212.126V216H297.73V208.876H298.913V210.033ZM305.707 215.051C306.808 214.167 307.67 213.443 308.294 212.88C308.918 212.308 309.442 211.714 309.867 211.099C310.3 210.475 310.517 209.864 310.517 209.266C310.517 208.703 310.378 208.261 310.101 207.94C309.832 207.611 309.395 207.446 308.788 207.446C308.199 207.446 307.739 207.632 307.41 208.005C307.089 208.369 306.916 208.859 306.89 209.474H305.746C305.781 208.503 306.075 207.754 306.63 207.225C307.185 206.696 307.9 206.432 308.775 206.432C309.668 206.432 310.374 206.679 310.894 207.173C311.423 207.667 311.687 208.347 311.687 209.214C311.687 209.933 311.47 210.635 311.037 211.32C310.612 211.996 310.127 212.594 309.581 213.114C309.035 213.625 308.337 214.223 307.488 214.908H311.96V215.896H305.707V215.051ZM313.041 213.907V213.01L317.604 206.692H319.021V212.88H320.321V213.907H319.021V216H317.851V213.907H313.041ZM317.903 207.927L314.406 212.88H317.903V207.927Z" fill="#A5A5A7"/>
<path d="M353.103 213.985H349.151L348.423 216H347.175L350.451 206.991H351.816L355.079 216H353.831L353.103 213.985ZM352.765 213.023L351.127 208.447L349.489 213.023H352.765ZM357.69 210.189C357.924 209.782 358.271 209.444 358.73 209.175C359.198 208.898 359.74 208.759 360.355 208.759C360.988 208.759 361.56 208.911 362.071 209.214C362.591 209.517 362.998 209.946 363.293 210.501C363.588 211.047 363.735 211.684 363.735 212.412C363.735 213.131 363.588 213.773 363.293 214.336C362.998 214.899 362.591 215.337 362.071 215.649C361.56 215.961 360.988 216.117 360.355 216.117C359.748 216.117 359.211 215.983 358.743 215.714C358.284 215.437 357.933 215.094 357.69 214.687V219.38H356.507V208.876H357.69V210.189ZM362.526 212.412C362.526 211.875 362.418 211.407 362.201 211.008C361.984 210.609 361.69 210.306 361.317 210.098C360.953 209.89 360.55 209.786 360.108 209.786C359.675 209.786 359.272 209.894 358.899 210.111C358.535 210.319 358.24 210.627 358.015 211.034C357.798 211.433 357.69 211.896 357.69 212.425C357.69 212.962 357.798 213.435 358.015 213.842C358.24 214.241 358.535 214.548 358.899 214.765C359.272 214.973 359.675 215.077 360.108 215.077C360.55 215.077 360.953 214.973 361.317 214.765C361.69 214.548 361.984 214.241 362.201 213.842C362.418 213.435 362.526 212.958 362.526 212.412ZM366.475 210.033C366.683 209.626 366.978 209.309 367.359 209.084C367.749 208.859 368.221 208.746 368.776 208.746V209.968H368.464C367.138 209.968 366.475 210.687 366.475 212.126V216H365.292V208.876H366.475V210.033ZM373.269 215.051C374.37 214.167 375.232 213.443 375.856 212.88C376.48 212.308 377.005 211.714 377.429 211.099C377.863 210.475 378.079 209.864 378.079 209.266C378.079 208.703 377.941 208.261 377.663 207.94C377.395 207.611 376.957 207.446 376.35 207.446C375.761 207.446 375.302 207.632 374.972 208.005C374.652 208.369 374.478 208.859 374.452 209.474H373.308C373.343 208.503 373.638 207.754 374.192 207.225C374.747 206.696 375.462 206.432 376.337 206.432C377.23 206.432 377.936 206.679 378.456 207.173C378.985 207.667 379.249 208.347 379.249 209.214C379.249 209.933 379.033 210.635 378.599 211.32C378.175 211.996 377.689 212.594 377.143 213.114C376.597 213.625 375.9 214.223 375.05 214.908H379.522V215.896H373.269V215.051ZM380.604 213.907V213.01L385.167 206.692H386.584V212.88H387.884V213.907H386.584V216H385.414V213.907H380.604ZM385.466 207.927L381.969 212.88H385.466V207.927Z" fill="#A5A5A7"/>
<defs>
<linearGradient id="paint0_linear_1146_416" x1="320.996" y1="172.25" x2="320.996" y2="-69.7188" gradientUnits="userSpaceOnUse">
<stop stop-color="#42A5DC" stop-opacity="0"/>
<stop offset="1" stop-color="#42A5DC"/>
</linearGradient>
</defs>
</svg>
