<svg width="66" height="65" viewBox="0 0 66 65" fill="none" xmlns="http://www.w3.org/2000/svg">
<path d="M9.99609 10V55H54.9961M12.9961 44L20.7938 32.3034C21.4416 31.3317 22.7806 31.1194 23.6972 31.843L29.8064 36.6661C30.7188 37.3864 32.051 37.1798 32.7023 36.2169L41.4055 23.3513C42.1805 22.2056 43.8568 22.1737 44.6749 23.2892L46.4704 25.7377C47.3758 26.9723 49.2758 26.7734 49.906 25.3781L55.4961 13M15.9961 49.5L21.7593 42.0902C22.4409 41.2138 23.7059 41.0604 24.5773 41.7483L30.8064 46.6661C31.7188 47.3864 33.051 47.1798 33.7023 46.2169L42.4055 33.3513C43.1805 32.2056 44.8568 32.1737 45.6749 33.2892L47.5962 35.9092C48.4721 37.1036 50.2971 36.9648 50.9822 35.6517L55.4961 27" stroke="#3EA1DA" stroke-width="1.5" stroke-linecap="round"/>
</svg>
