<svg width="66" height="65" viewBox="0 0 66 65" fill="none" xmlns="http://www.w3.org/2000/svg">
<path d="M25.866 10.0027C25.5062 10.0285 25.1401 10.237 24.953 10.5962L23.8864 12.6425L21.5538 10.849C21.1857 10.5659 20.666 10.6026 20.3476 10.8445C20.0291 11.0864 19.8538 11.5776 20.028 12.0081L22.1123 17.162C22.39 16.9759 22.7222 16.8664 23.0781 16.8664H23.2875L21.4289 12.2679L23.7219 14.0319C24.018 14.2593 24.4476 14.1644 24.6202 13.8333L25.9172 11.3448L26.7085 13.6712C26.832 14.0346 27.2599 14.1904 27.5881 13.9916L31.4962 11.6241L29.2179 16.8664H29.2202C29.6478 16.8664 30.0371 17.0299 30.3427 17.2892L32.8421 11.5434C33.0235 11.1261 32.8776 10.6432 32.5806 10.3837C32.2837 10.1242 31.7869 10.0456 31.3977 10.2813L27.6052 12.5774L26.9823 10.7506C26.8331 10.3126 26.4236 10.0337 26.0188 10.0028C25.9682 9.99884 25.9174 9.99931 25.866 10.0027Z" fill="white"/>
<path d="M22.9865 21.049C21.3842 21.3614 19.9568 21.9081 18.9885 22.6578C14.3333 26.2618 11.1149 32.997 11.1149 38.6804C11.1149 46.9906 17.8397 53.7139 26.1499 53.7139C29.7604 53.7139 33.0701 52.444 35.6603 50.3271C34.4087 48.5464 33.6675 46.3821 33.6675 44.0437C33.6675 39.4591 36.4963 35.5304 40.4992 33.8981C39.3212 29.5678 36.6999 25.2824 33.3098 22.6578C32.3415 21.9082 30.9152 21.3614 29.3133 21.049C29.2819 21.0507 29.2521 21.0583 29.2202 21.0583H23.0781C23.0468 21.0583 23.0175 21.0506 22.9865 21.049ZM17.3013 31.1466H21.1349C21.6974 31.1466 22.1888 31.264 22.6095 31.4987C23.0303 31.7291 23.3559 32.0528 23.5862 32.4692C23.8209 32.8855 23.9384 33.3751 23.9384 33.9376C23.9384 34.4957 23.8209 34.9853 23.5862 35.4061C23.3514 35.8224 23.0241 36.1479 22.6033 36.3827C22.4514 36.4668 22.2892 36.5349 22.1177 36.5883L24.3441 40.8136H22.736L20.6741 36.7279H18.6565V40.8136H17.3013V31.1466ZM18.6565 32.4358V35.4386H21.1876C21.5819 35.4386 21.8987 35.3013 22.1379 35.0267C22.3771 34.7521 22.4971 34.3894 22.4971 33.9376C22.4971 33.4858 22.3771 33.1223 22.1379 32.8477C21.8987 32.5731 21.5819 32.4358 21.1876 32.4358H18.6565ZM28.5283 33.8182C29.268 33.8182 29.8388 34.0634 30.2419 34.5551C30.6449 35.0423 30.8469 35.7339 30.8469 36.6286V38.1296C30.8469 39.0111 30.6388 39.6957 30.2225 40.183C29.8061 40.6702 29.219 40.9137 28.4616 40.9137C28.0319 40.9137 27.658 40.8118 27.3391 40.608C27.0792 40.4383 26.876 40.2116 26.7278 39.9301V43.6178H25.3719V33.9174H26.7278V34.8398C26.9136 34.5522 27.1391 34.3216 27.4051 34.1502C27.7417 33.9287 28.1164 33.8182 28.5283 33.8182ZM28.083 35.0407C27.7951 35.0407 27.5491 35.0934 27.3453 35.1997C27.146 35.306 26.9932 35.4614 26.8869 35.6652C26.7806 35.8689 26.7278 36.1167 26.7278 36.4091V38.2894C26.7278 38.5862 26.7806 38.8383 26.8869 39.0465C26.9932 39.2547 27.146 39.4144 27.3453 39.5251C27.5491 39.6359 27.7951 39.6911 28.083 39.6911C28.5304 39.6911 28.8758 39.5564 29.1194 39.2862C29.3674 39.0116 29.4917 38.6257 29.4917 38.1296V36.6348C29.4917 36.1299 29.3674 35.7379 29.1194 35.4588C28.8758 35.1798 28.5304 35.0407 28.083 35.0407Z" fill="#42A5DC"/>
<path d="M30.7445 20.1437C30.46 20.6579 29.9293 21.0153 29.3133 21.049C30.9152 21.3614 32.3415 21.9082 33.3098 22.6578C36.6999 25.2824 39.3212 29.5678 40.4992 33.8981C40.8734 33.7455 41.2562 33.6104 41.6496 33.4993C40.4101 28.9439 37.6725 24.516 34.046 21.7084C33.1426 21.009 32.0023 20.4972 30.7445 20.1437ZM21.5538 20.1443C20.2962 20.4977 19.1562 21.0089 18.2531 21.7082C13.2444 25.5858 9.91406 32.5529 9.91406 38.6802C9.91406 47.6394 17.1907 54.9145 26.1499 54.9145C30.0363 54.9145 33.6049 53.5439 36.4011 51.2624C36.1384 50.9636 35.8896 50.6533 35.6603 50.3271C33.0701 52.444 29.7604 53.7139 26.1499 53.7139C17.8397 53.7139 11.1149 46.9906 11.1149 38.6804C11.1149 32.997 14.3333 26.2618 18.9885 22.6578C19.9568 21.9081 21.3842 21.3614 22.9865 21.049C22.3702 21.0158 21.8384 20.6586 21.5538 20.1443Z" fill="white"/>
<path d="M23.0781 18.0671C22.7649 18.0671 22.5312 18.2993 22.5312 18.6124V19.3114C22.5312 19.6245 22.7649 19.8567 23.0781 19.8567H29.2203C29.5334 19.8567 29.7679 19.6245 29.7679 19.3114V18.6124C29.7679 18.2993 29.5334 18.0671 29.2203 18.0671H23.0781Z" fill="#42A5DC"/>
<path d="M23.0781 16.8664C22.1204 16.8664 21.3304 17.6548 21.3304 18.6124V19.3114C21.3304 20.269 22.1204 21.0583 23.0781 21.0583H29.2202C30.1779 21.0583 30.9687 20.269 30.9687 19.3114V18.6124C30.9687 17.6548 30.1779 16.8664 29.2202 16.8664H23.0781ZM23.0781 18.0671H29.2203C29.5334 18.0671 29.7679 18.2993 29.7679 18.6124V19.3114C29.7679 19.6245 29.5334 19.8567 29.2203 19.8567H23.0781C22.7649 19.8567 22.5312 19.6245 22.5312 19.3114V18.6124C22.5312 18.2993 22.7649 18.0671 23.0781 18.0671Z" fill="white"/>
<path d="M17.3013 31.1466V40.8136H18.6565V36.7279H20.6741L22.736 40.8136H24.3441L22.1177 36.5883C22.2892 36.5349 22.4514 36.4668 22.6033 36.3827C23.0241 36.1479 23.3514 35.8224 23.5862 35.4061C23.8209 34.9853 23.9384 34.4957 23.9384 33.9376C23.9384 33.3751 23.8209 32.8855 23.5862 32.4692C23.3559 32.0528 23.0303 31.7291 22.6095 31.4987C22.1888 31.264 21.6974 31.1466 21.1349 31.1466H17.3013ZM18.6565 32.4358H21.1876C21.5819 32.4358 21.8987 32.5731 22.1379 32.8477C22.3771 33.1223 22.4971 33.4858 22.4971 33.9376C22.4971 34.3894 22.3771 34.7521 22.1379 35.0267C21.8987 35.3013 21.5819 35.4386 21.1876 35.4386H18.6565V32.4358ZM28.5283 33.8182C28.1164 33.8182 27.7417 33.9287 27.4051 34.1502C27.1391 34.3216 26.9136 34.5522 26.7278 34.8398V33.9174H25.3719V43.6178H26.7278V39.9301C26.876 40.2116 27.0792 40.4383 27.3391 40.608C27.658 40.8118 28.0319 40.9137 28.4616 40.9137C29.219 40.9137 29.8061 40.6702 30.2225 40.183C30.6388 39.6957 30.8469 39.0111 30.8469 38.1296V36.6286C30.8469 35.7339 30.6449 35.0423 30.2419 34.5551C29.8388 34.0634 29.268 33.8182 28.5283 33.8182ZM28.083 35.0407C28.5304 35.0407 28.8758 35.1798 29.1194 35.4588C29.3674 35.7379 29.4917 36.1299 29.4917 36.6348V38.1296C29.4917 38.6257 29.3674 39.0116 29.1194 39.2862C28.8758 39.5564 28.5304 39.6911 28.083 39.6911C27.7951 39.6911 27.5491 39.6359 27.3453 39.5251C27.146 39.4144 26.9932 39.2547 26.8869 39.0465C26.7806 38.8383 26.7278 38.5862 26.7278 38.2894V36.4091C26.7278 36.1167 26.7806 35.8689 26.8869 35.6652C26.9932 35.4614 27.146 35.306 27.3453 35.1997C27.5491 35.0934 27.7951 35.0407 28.083 35.0407Z" fill="white"/>
<path d="M44.623 34.2875C39.2282 34.2875 34.8683 38.6489 34.8683 44.0437C34.8683 49.4385 39.2282 53.7984 44.623 53.7984C50.0178 53.7984 54.3777 49.4385 54.3777 44.0437C54.3777 38.6489 50.0178 34.2875 44.623 34.2875ZM44.623 36.506C48.7787 36.506 52.1607 39.888 52.1607 44.0437C52.1607 48.1995 48.7787 51.5814 44.623 51.5814C40.4673 51.5814 37.0853 48.1995 37.0853 44.0437C37.0853 39.888 40.4673 36.506 44.623 36.506Z" fill="#42A5DC"/>
<path d="M44.623 33.0866C38.5792 33.0866 33.6675 37.9999 33.6675 44.0437C33.6675 50.0876 38.5792 55 44.623 55C50.6668 55 55.5785 50.0875 55.5785 44.0437C55.5785 37.9999 50.6668 33.0866 44.623 33.0866ZM44.623 34.2875C50.0178 34.2875 54.3777 38.6489 54.3777 44.0437C54.3777 49.4385 50.0178 53.7984 44.623 53.7984C39.2282 53.7984 34.8683 49.4385 34.8683 44.0437C34.8683 38.6489 39.2282 34.2875 44.623 34.2875Z" fill="white"/>
<path d="M44.623 37.7068C41.1163 37.7068 38.2861 40.537 38.2861 44.0437C38.2861 47.5504 41.1163 50.3806 44.623 50.3806C48.1297 50.3806 50.9599 47.5504 50.9599 44.0437C50.9599 40.537 48.1297 37.7068 44.623 37.7068Z" fill="#42A5DC"/>
<path d="M44.623 36.506C40.4673 36.506 37.0853 39.888 37.0853 44.0437C37.0853 48.1995 40.4673 51.5814 44.623 51.5814C48.7787 51.5814 52.1607 48.1995 52.1607 44.0437C52.1607 39.888 48.7787 36.506 44.623 36.506ZM44.623 37.7068C48.1297 37.7068 50.9599 40.537 50.9599 44.0437C50.9599 47.5504 48.1297 50.3806 44.623 50.3806C41.1163 50.3806 38.2861 47.5504 38.2861 44.0437C38.2861 40.537 41.1163 37.7068 44.623 37.7068Z" fill="white"/>
</svg>
