<svg width="394" height="59" viewBox="0 0 394 59" fill="none" xmlns="http://www.w3.org/2000/svg">
<g clip-path="url(#clip0_41_2193)">
<path d="M47.8881 15.6463C48.1419 15.6463 48.5913 15.8554 49.2037 16.528C52.3927 20.0054 55.9703 22.7537 58.9802 24.4158C59.4146 24.6511 59.6523 24.832 59.6523 25.0602C59.6523 25.234 59.6277 25.4033 59.253 25.4033C58.5744 25.4033 54.7801 24.6511 53.776 24.1831C52.7673 23.7014 50.5996 21.9355 48.0135 17.4566C47.7206 16.9512 47.4116 16.5164 47.4116 16.1093C47.4116 15.7053 47.7743 15.6463 47.8881 15.6463Z" fill="#6C99D7"/>
<path d="M56.4796 2.8414C56.4796 2.8414 57.109 4.08987 50.9789 4.95846C51.646 3.05754 52.0889 1.80454 52.0889 1.80454C52.4781 0.661877 51.5994 -0.000143852 50.9674 -0.000143852C50.3344 -0.000143852 49.873 0.489065 49.6076 1.10625L47.7865 5.2935C45.3965 5.45371 43.627 5.36504 42.824 5.28896C41.715 5.18064 41.4256 5.79429 41.4256 6.42558C41.4256 7.52693 43.3602 8.64441 44.596 8.52148C45.3719 8.44893 45.8228 8.41718 46.4593 8.34917L39.6807 23.9107C39.4209 24.4916 39.2127 25.4297 40.3748 25.4297C41.5405 25.4297 44.1571 24.3621 44.596 23.1232C44.7786 22.6033 46.1293 18.7571 47.6345 14.4756C48.3808 14.3275 51.1163 13.9088 51.8777 13.9088C52.6 13.9088 52.9721 14.2308 52.9721 14.6142C52.9721 15.5125 50.8305 18.087 46.6815 21.254C46.2296 21.6042 46.6053 21.8767 46.836 21.8767C47.4775 21.8767 50.3374 19.9113 51.7528 18.8347C53.3117 17.6542 56.0206 14.586 56.0206 12.4231C56.0206 11.5771 55.646 10.7987 53.9482 10.7987C52.3041 10.7987 49.39 11.1645 48.772 11.2446C49.1723 10.0914 49.5725 8.96584 49.9447 7.91135C53.1512 7.46496 55.0612 7.17224 56.1892 6.93948C57.739 6.60998 58.9874 5.71217 58.9874 4.78816C58.9874 2.82478 56.4796 2.8414 56.4796 2.8414Z" fill="#5C250B"/>
<path d="M1.95209 12.583H0V10.6453H1.95209V8.06475H4.59232V10.6453H7.08861V12.583H4.59232V17.3275C4.59232 18.1996 4.82605 19.0087 5.83068 19.0087C6.30566 19.0087 6.75607 18.9125 7.02892 18.7382L7.11318 20.8285C6.55595 20.9978 5.95206 21.0684 5.1621 21.0684C3.09164 21.0684 1.95209 19.7801 1.95209 17.7628V12.583Z" fill="#5C250B"/>
<path d="M9.10059 10.6449H11.4414V12.9615H11.4835C11.6004 12.0062 12.6828 10.4036 14.2572 10.4036C14.5125 10.4036 14.7883 10.4036 15.0637 10.4882V13.1565C14.8279 13.0224 14.3565 12.9403 13.8825 12.9403C11.7383 12.9403 11.7383 15.6302 11.7383 17.0898V20.8281H9.10059L9.10059 10.6449Z" fill="#5C250B"/>
<path d="M26.0137 20.8285H23.5089V19.4506H23.4693C22.6663 20.4381 21.5242 21.0684 20.1454 21.0684C17.744 21.0684 16.7002 19.3685 16.7002 17.069V10.6453H19.3309V16.0815C19.3309 17.3275 19.357 19.0087 21.0513 19.0087C22.9592 19.0087 23.3755 16.9325 23.3755 15.6301V10.6453H26.0137V20.8285Z" fill="#5C250B"/>
<path d="M34.7023 14.7389C34.62 13.4551 34.0302 12.3457 32.5571 12.3457C31.0775 12.3457 30.3311 13.375 30.2128 14.7389H34.7023ZM36.4718 20.2547C35.5073 20.7882 34.4058 21.0684 32.9864 21.0684C29.644 21.0684 27.6919 19.1312 27.6919 15.7924C27.6919 12.8415 29.2482 10.404 32.3991 10.404C36.1603 10.404 37.2231 12.9946 37.2231 16.5612H30.2128C30.3311 18.1996 31.4712 19.1312 33.1048 19.1312C34.3908 19.1312 35.4887 18.6561 36.4718 18.1009V20.2547Z" fill="#5C250B"/>
<path d="M57.8696 10.7989H60.2139V13.1094H60.2536C60.3694 12.1592 61.4533 10.5545 63.0307 10.5545C63.2845 10.5545 63.5599 10.5545 63.8347 10.6331V13.3069C63.603 13.1684 63.129 13.0908 62.6551 13.0908C60.5074 13.0908 60.5074 15.7781 60.5074 17.2382V20.9766H57.8696V10.7989Z" fill="#5C250B"/>
<path d="M65.3682 10.7993H68.0094V20.977H65.3682V10.7993ZM65.3682 6.55664H68.0094V9.08784H65.3682V6.55664Z" fill="#5C250B"/>
<path d="M76.6783 14.8893C76.6 13.5985 76.0097 12.4961 74.5331 12.4961C73.0515 12.4961 72.3072 13.5234 72.1928 14.8893H76.6783ZM78.4478 20.4051C77.4848 20.9411 76.3859 21.2188 74.966 21.2188C71.6205 21.2188 69.6694 19.2785 69.6694 15.9357C69.6694 12.9873 71.2213 10.5544 74.3761 10.5544C78.1353 10.5544 79.1946 13.1445 79.1946 16.7091H72.1928C72.3072 18.3525 73.4472 19.2785 75.0843 19.2785C76.3613 19.2785 77.4683 18.8065 78.4478 18.2512V20.4051Z" fill="#5C250B"/>
<path d="M80.7612 10.8897H83.2655V12.2712H83.3006C84.1317 11.1023 85.2542 10.6453 86.629 10.6453C89.0355 10.6453 90.0743 12.3477 90.0743 14.6426V21.0684H87.4391V15.6301C87.4391 14.3842 87.418 12.7029 85.7257 12.7029C83.8203 12.7029 83.4015 14.7766 83.4015 16.0886V21.0684H80.7612V10.8897Z" fill="#5C250B"/>
<path d="M96.6567 19.1591C98.4142 19.1591 98.988 17.3041 98.988 15.8556C98.988 14.4308 98.3139 12.611 96.6191 12.611C94.9118 12.611 94.4403 14.4922 94.4403 15.8556C94.4403 17.2643 94.9269 19.1591 96.6567 19.1591ZM99.0838 19.8337H99.0442C98.2552 20.8212 97.1739 21.2188 95.936 21.2188C92.8208 21.2188 91.6782 18.6442 91.6782 15.8556C91.6782 13.0463 92.8208 10.5544 95.936 10.5544C97.2536 10.5544 98.178 11.0119 98.967 11.9802H99.0071V6.14394H101.642V20.9764H99.0838V19.8337Z" fill="#5C250B"/>
<path d="M112.955 8.22271H118.53V19.2745H118.641C119.195 18.3097 119.786 17.4199 120.339 16.5302L125.988 8.22271H132.892L124.659 18.8664L133.335 33.2188H126.763L120.672 22.4269L118.53 25.0594V33.2188H112.955V8.22271Z" fill="#231F20"/>
<path d="M139.203 24.133C139.203 27.2481 140.495 29.5843 142.894 29.5843C145.073 29.5843 146.476 27.3962 146.476 24.133C146.476 21.4254 145.442 18.6811 142.894 18.6811C140.199 18.6811 139.203 21.4627 139.203 24.133ZM152.273 23.9476C152.273 30.5854 147.583 33.627 142.747 33.627C137.467 33.627 133.406 30.141 133.406 24.2811C133.406 18.4222 137.246 14.6757 143.043 14.6757C148.581 14.6757 152.273 18.4962 152.273 23.9476Z" fill="#231F20"/>
<path d="M155.372 21.055C155.372 18.3847 155.298 16.642 155.224 15.0842H160.061L160.245 18.422H160.393C161.316 15.789 163.531 14.6761 165.266 14.6761C165.783 14.6761 166.042 14.6761 166.448 14.7502V20.0907C166.042 19.9798 165.562 19.9053 164.934 19.9053C162.866 19.9053 161.464 21.0177 161.094 22.7614C161.021 23.1317 160.984 23.5771 160.984 24.022V33.2197H155.372V21.055Z" fill="#231F20"/>
<path d="M179.663 22.094C179.663 20.7216 179.073 18.4226 176.488 18.4226C174.125 18.4226 173.166 20.5729 173.018 22.094H179.663ZM173.055 25.9507C173.239 28.2869 175.529 29.3989 178.15 29.3989C180.07 29.3989 181.62 29.1399 183.134 28.6582L183.873 32.4777C182.026 33.2198 179.775 33.6279 177.338 33.6279C171.209 33.6279 167.702 30.0301 167.702 24.3561C167.702 19.7572 170.544 14.6767 176.821 14.6767C182.654 14.6767 184.869 19.2388 184.869 23.7258C184.869 24.6897 184.758 25.5431 184.685 25.9507H173.055Z" fill="#231F20"/>
<path d="M197.457 24.6519C194.504 24.6151 192.215 25.32 192.215 27.5081C192.215 28.954 193.175 29.6594 194.43 29.6594C195.833 29.6594 196.977 28.7323 197.347 27.5821C197.421 27.2849 197.457 26.9508 197.457 26.6173V24.6519ZM202.921 28.8059C202.921 30.5481 202.996 32.2178 203.18 33.2194H198.122L197.79 31.4016H197.679C196.498 32.8475 194.652 33.627 192.51 33.627C188.855 33.627 186.677 30.9572 186.677 28.0643C186.677 23.3541 190.885 21.0919 197.273 21.1287V20.8697C197.273 19.9049 196.756 18.533 193.987 18.533C192.141 18.533 190.185 19.1633 189.003 19.9049L187.969 16.2708C189.224 15.566 191.698 14.6763 194.984 14.6763C201.002 14.6763 202.921 18.2362 202.921 22.5011V28.8059Z" fill="#231F20"/>
<path d="M219.902 33.2197H214.252V8.22363H219.902V33.2197Z" fill="#231F20"/>
<path d="M224.331 20.8701C224.331 18.6074 224.257 16.6793 224.183 15.0847H229.056L229.314 17.569H229.426C230.163 16.4198 232.01 14.6766 235 14.6766C238.692 14.6766 241.462 17.1242 241.462 22.4647V33.2197H235.848V23.1695C235.848 20.8333 235.036 19.2387 233.007 19.2387C231.455 19.2387 230.533 20.3134 230.163 21.3522C230.016 21.723 229.942 22.242 229.942 22.7614V33.2197H224.331V20.8701Z" fill="#231F20"/>
<path d="M249.064 15.0842L251.5 23.5025C251.945 25.0231 252.276 26.4695 252.534 27.916H252.645C252.941 26.4328 253.237 25.0604 253.642 23.5025L255.969 15.0842H261.876L255.156 33.2197H249.545L242.973 15.0842H249.064Z" fill="#231F20"/>
<path d="M274.463 22.094C274.463 20.7216 273.872 18.4226 271.288 18.4226C268.925 18.4226 267.966 20.5729 267.818 22.094H274.463ZM267.854 25.9507C268.039 28.2869 270.328 29.3989 272.95 29.3989C274.87 29.3989 276.42 29.1399 277.933 28.6582L278.673 32.4777C276.826 33.2198 274.574 33.6279 272.138 33.6279C266.009 33.6279 262.501 30.0301 262.501 24.3561C262.501 19.7572 265.344 14.6767 271.62 14.6767C277.453 14.6767 279.67 19.2388 279.67 23.7258C279.67 24.6897 279.557 25.5431 279.485 25.9507H267.854Z" fill="#231F20"/>
<path d="M282.622 28.286C283.655 28.9162 285.797 29.6594 287.457 29.6594C289.157 29.6594 289.858 29.0654 289.858 28.1378C289.858 27.2113 289.304 26.7659 287.2 26.0611C283.471 24.8005 282.03 22.7606 282.067 20.6465C282.067 17.2347 284.948 14.6757 289.414 14.6757C291.518 14.6757 293.402 15.1574 294.509 15.7141L293.513 19.6081C292.7 19.1628 291.15 18.5698 289.599 18.5698C288.233 18.5698 287.457 19.1255 287.457 20.0535C287.457 20.9065 288.159 21.3509 290.373 22.1298C293.808 23.3168 295.248 25.0595 295.284 27.7297C295.284 31.1048 292.626 33.627 287.457 33.627C285.096 33.627 282.991 33.0707 281.625 32.3286L282.622 28.286Z" fill="#231F20"/>
<path d="M304.586 10.1514V15.0838H308.611V19.2378H304.586V25.8011C304.586 27.9897 305.103 28.9918 306.802 28.9918C307.577 28.9918 307.91 28.9535 308.462 28.8432L308.5 33.108C307.762 33.4043 306.433 33.627 304.845 33.627C303.036 33.627 301.522 32.9594 300.636 32.0314C299.603 30.9567 299.086 29.2135 299.086 26.6541V19.2378H296.687V15.0838H299.086V11.672L304.586 10.1514Z" fill="#231F20"/>
<path d="M311.488 20.8701C311.488 18.6074 311.416 16.6793 311.341 15.0847H316.067L316.325 17.5323H316.436C317.211 16.3826 318.798 14.6766 321.9 14.6766C324.226 14.6766 326.073 15.8631 326.848 17.7545H326.921C327.586 16.7901 328.398 16.0858 329.247 15.5664C330.244 14.9734 331.351 14.6766 332.68 14.6766C336.152 14.6766 338.773 17.1242 338.773 22.5392V33.2197H333.308V23.3549C333.308 20.7215 332.46 19.2014 330.65 19.2014C329.358 19.2014 328.435 20.0912 328.066 21.1668C327.918 21.5749 327.844 22.1679 327.844 22.6128V33.2197H322.379V23.0577C322.379 20.7582 321.567 19.2014 319.795 19.2014C318.356 19.2014 317.506 20.3134 317.174 21.2409C316.99 21.6863 316.953 22.2047 316.953 22.6501V33.2197H311.488V20.8701Z" fill="#231F20"/>
<path d="M353.796 22.094C353.796 20.7216 353.204 18.4226 350.619 18.4226C348.258 18.4226 347.298 20.5729 347.151 22.094H353.796ZM347.187 25.9507C347.37 28.2869 349.66 29.3989 352.281 29.3989C354.201 29.3989 355.752 29.1399 357.266 28.6582L358.004 32.4777C356.157 33.2198 353.906 33.6279 351.469 33.6279C345.341 33.6279 341.833 30.0301 341.833 24.3561C341.833 19.7572 344.676 14.6767 350.952 14.6767C356.786 14.6767 359.001 19.2388 359.001 23.7258C359.001 24.6897 358.89 25.5431 358.816 25.9507H347.187Z" fill="#231F20"/>
<path d="M361.99 20.8701C361.99 18.6074 361.917 16.6793 361.843 15.0847H366.716L366.973 17.569H367.086C367.823 16.4198 369.67 14.6766 372.66 14.6766C376.353 14.6766 379.121 17.1242 379.121 22.4647V33.2197H373.509V23.1695C373.509 20.8333 372.696 19.2387 370.667 19.2387C369.115 19.2387 368.193 20.3134 367.823 21.3522C367.675 21.723 367.602 22.242 367.602 22.7614V33.2197H361.99V20.8701Z" fill="#231F20"/>
<path d="M389.309 10.1514V15.0838H393.333V19.2378H389.309V25.8011C389.309 27.9897 389.825 28.9918 391.524 28.9918C392.299 28.9918 392.631 28.9535 393.186 28.8432L393.222 33.108C392.484 33.4043 391.155 33.627 389.568 33.627C387.758 33.627 386.244 32.9594 385.359 32.0314C384.324 30.9567 383.807 29.2135 383.807 26.6541V19.2378H381.408V15.0838H383.807V11.672L389.309 10.1514Z" fill="#231F20"/>
<path d="M116.262 45.4593C115.096 45.4593 114.482 46.4398 114.482 47.5477C114.482 48.5679 114.948 49.3554 115.562 50.1217C117.003 49.2919 117.936 48.5256 117.936 47.3124C117.936 46.4398 117.449 45.4593 116.283 45.4593H116.262ZM115.902 57.5948C117.109 57.5948 118.148 57.0411 118.827 56.296C117.979 55.3599 116.389 53.6137 114.799 51.7833C114.036 52.273 112.955 53.1879 112.955 54.6999C112.955 56.3383 114.164 57.5948 115.88 57.5948H115.902ZM121.073 58.7657C120.67 58.3612 120.289 57.9571 119.737 57.3611C118.508 58.5108 117.13 59 115.562 59C112.786 59 111.175 57.1258 111.175 54.977C111.175 53.0186 112.341 51.676 113.973 50.7822V50.7187C113.231 49.7821 112.786 48.7397 112.786 47.7164C112.786 45.9722 114.036 44.1826 116.41 44.1826C118.191 44.1826 119.568 45.3747 119.568 47.2277C119.568 48.7397 118.699 49.9312 116.431 51.0598V51.1233C117.64 52.5279 118.996 54.1034 119.908 55.1256C120.565 54.1245 121.009 52.741 121.285 50.9318H122.981C122.599 53.1879 121.984 54.977 120.924 56.2325C121.687 57.0411 122.429 57.8503 123.277 58.7657H121.073Z" fill="#231F20"/>
<path d="M128.766 56.5101C129.593 57.0205 130.801 57.4457 132.073 57.4457C133.959 57.4457 135.061 56.4456 135.061 54.9982C135.061 53.657 134.298 52.8902 132.369 52.1455C130.038 51.3142 128.597 50.1005 128.597 48.0792C128.597 45.8427 130.44 44.1826 133.217 44.1826C134.679 44.1826 135.739 44.5237 136.375 44.886L135.866 46.3979C135.399 46.1415 134.446 45.7158 133.153 45.7158C131.203 45.7158 130.462 46.8866 130.462 47.8661C130.462 49.2077 131.33 49.8678 133.302 50.6336C135.718 51.5702 136.947 52.7415 136.947 54.849C136.947 57.0628 135.315 59 131.945 59C130.568 59 129.063 58.5748 128.3 58.0644L128.766 56.5101Z" fill="#231F20"/>
<path d="M145.826 52.6141C145.847 51.422 145.339 49.569 143.241 49.569C141.354 49.569 140.528 51.3137 140.38 52.6141H145.826ZM140.359 53.9542C140.401 56.4885 142.012 57.5304 143.877 57.5304C145.212 57.5304 146.017 57.2976 146.716 56.9988L147.035 58.34C146.377 58.6378 145.254 59 143.622 59C140.465 59 138.578 56.893 138.578 53.785C138.578 50.6764 140.401 48.2278 143.389 48.2278C146.738 48.2278 147.628 51.1868 147.628 53.0821C147.628 53.465 147.585 53.7638 147.564 53.9542H140.359Z" fill="#231F20"/>
<path d="M151.569 53.1878H151.611C151.866 52.8256 152.227 52.3792 152.523 52.0169L155.533 48.462H157.779L153.816 52.6986L158.33 58.7656H156.062L152.523 53.8277L151.569 54.8912V58.7656H149.726V43.651H151.569V53.1878Z" fill="#231F20"/>
<path d="M168.122 55.9549C168.122 57.02 168.143 57.9571 168.206 58.7657H166.553L166.447 57.0835H166.405C165.918 57.9138 164.837 59 163.014 59C161.403 59 159.475 58.1067 159.475 54.4868V48.4621H161.34V54.1684C161.34 56.1267 161.933 57.4457 163.629 57.4457C164.879 57.4457 165.748 56.5736 166.087 55.7433C166.193 55.4657 166.257 55.1256 166.257 54.7845V48.4621H168.122V55.9549Z" fill="#231F20"/>
<path d="M171.004 51.6759C171.004 50.4627 170.983 49.4198 170.919 48.462H172.551L172.615 50.4838H172.699C173.165 49.1018 174.289 48.2277 175.539 48.2277C175.751 48.2277 175.899 48.2489 176.069 48.2912V50.0581C175.878 50.0158 175.687 49.9951 175.434 49.9951C174.119 49.9951 173.187 50.9952 172.933 52.3999C172.89 52.6563 172.847 52.9536 172.847 53.2735V58.7656H171.004V51.6759Z" fill="#231F20"/>
<path d="M177.806 48.4623H179.671V58.766H177.806V48.4623ZM179.883 45.5669C179.905 46.2047 179.439 46.7161 178.696 46.7161C178.039 46.7161 177.574 46.2047 177.574 45.5669C177.574 44.9069 178.061 44.3955 178.739 44.3955C179.439 44.3955 179.883 44.9069 179.883 45.5669Z" fill="#231F20"/>
<path d="M184.8 45.9934V48.4621H187.471V49.8889H184.8V55.445C184.8 56.7217 185.161 57.4457 186.2 57.4457C186.708 57.4457 187.005 57.4034 187.28 57.3188L187.365 58.7239C187.005 58.873 186.432 59 185.712 59C184.843 59 184.143 58.7017 183.698 58.1914C183.168 57.6377 182.978 56.7217 182.978 55.5085V49.8889H181.388V48.4621H182.978V46.5672L184.8 45.9934Z" fill="#231F20"/>
<path d="M194.762 53.5079C192.727 53.4655 190.417 53.8278 190.417 55.8279C190.417 57.0416 191.222 57.616 192.176 57.616C193.511 57.616 194.359 56.764 194.656 55.8914C194.719 55.7005 194.762 55.4879 194.762 55.2959V53.5079ZM196.563 56.296C196.563 57.1913 196.605 58.0644 196.733 58.7662H195.037L194.889 57.4669H194.825C194.253 58.276 193.151 59 191.689 59C189.612 59 188.552 57.5304 188.552 56.0411C188.552 53.5502 190.756 52.1873 194.719 52.21V51.9959C194.719 51.1449 194.486 49.6118 192.388 49.6118C191.434 49.6118 190.438 49.9101 189.717 50.3781L189.294 49.1438C190.141 48.5891 191.371 48.2283 192.663 48.2283C195.8 48.2283 196.563 50.3781 196.563 52.4428V56.296Z" fill="#231F20"/>
<path d="M199.106 56.8497C199.657 57.2119 200.632 57.5948 201.564 57.5948C202.92 57.5948 203.557 56.9142 203.557 56.0622C203.557 55.1669 203.026 54.6782 201.649 54.1684C199.806 53.5073 198.937 52.4846 198.937 51.2502C198.937 49.5901 200.271 48.2278 202.476 48.2278C203.515 48.2278 204.425 48.5256 204.997 48.8662L204.531 50.2285C204.128 49.9736 203.387 49.633 202.433 49.633C201.331 49.633 200.717 50.2718 200.717 51.0386C200.717 51.8896 201.331 52.273 202.666 52.7834C204.446 53.465 205.358 54.3588 205.358 55.8914C205.358 57.7017 203.96 59 201.522 59C200.399 59 199.36 58.7012 198.64 58.2755L199.106 56.8497Z" fill="#231F20"/>
<path d="M213.73 58.7653H211.885V44.417H213.73V58.7653Z" fill="#231F20"/>
<path d="M216.887 51.2501C216.887 50.1866 216.866 49.3124 216.803 48.462H218.455L218.561 50.1654H218.604C219.113 49.186 220.3 48.2277 221.994 48.2277C223.415 48.2277 225.619 49.0787 225.619 52.614V58.7656H223.754V52.8256C223.754 51.1655 223.139 49.782 221.38 49.782C220.151 49.782 219.197 50.6551 218.879 51.697C218.795 51.9323 218.753 52.2517 218.753 52.5701V58.7656H216.887V51.2501Z" fill="#231F20"/>
<path d="M235.431 52.6564C235.431 52.4211 235.41 52.1022 235.345 51.8689C235.07 50.6764 234.053 49.6959 232.653 49.6959C230.726 49.6959 229.581 51.3999 229.581 53.6776C229.581 55.7645 230.599 57.488 232.611 57.488C233.863 57.488 235.007 56.6577 235.345 55.2531C235.41 54.9977 235.431 54.7422 235.431 54.4445V52.6564ZM237.295 43.6511V56.1056C237.295 57.02 237.317 58.0639 237.381 58.7657H235.706L235.622 56.9777H235.58C235.007 58.1274 233.756 59 232.082 59C229.603 59 227.695 56.893 227.695 53.7638C227.674 50.3358 229.794 48.2278 232.294 48.2278C233.863 48.2278 234.922 48.9725 235.388 49.8033H235.431V43.6511H237.295Z" fill="#231F20"/>
<path d="M241.323 53.6348C241.323 55.8914 242.615 57.5948 244.439 57.5948C246.218 57.5948 247.554 55.9126 247.554 53.5925C247.554 51.8478 246.684 49.6335 244.481 49.6335C242.276 49.6335 241.323 51.676 241.323 53.6348ZM249.462 53.529C249.462 57.3399 246.833 59 244.353 59C241.576 59 239.437 56.957 239.437 53.6993C239.437 50.2501 241.684 48.2283 244.523 48.2283C247.469 48.2283 249.462 50.3781 249.462 53.529Z" fill="#231F20"/>
<path d="M251.601 51.2501C251.601 50.1866 251.58 49.3124 251.517 48.462H253.169L253.276 50.1654H253.319C253.826 49.186 255.014 48.2277 256.709 48.2277C258.129 48.2277 260.334 49.0787 260.334 52.614V58.7656H258.468V52.8256C258.468 51.1655 257.853 49.782 256.095 49.782C254.866 49.782 253.911 50.6551 253.594 51.697C253.508 51.9323 253.467 52.2517 253.467 52.5701V58.7656H251.601V51.2501Z" fill="#231F20"/>
<path d="M269.658 52.6141C269.679 51.422 269.17 49.569 267.073 49.569C265.186 49.569 264.36 51.3137 264.211 52.6141H269.658ZM264.19 53.9542C264.232 56.4885 265.844 57.5304 267.708 57.5304C269.043 57.5304 269.848 57.2976 270.548 56.9988L270.867 58.34C270.209 58.6378 269.085 59 267.454 59C264.297 59 262.41 56.893 262.41 53.785C262.41 50.6764 264.232 48.2278 267.22 48.2278C270.569 48.2278 271.459 51.1868 271.459 53.0821C271.459 53.465 271.417 53.7638 271.396 53.9542H264.19Z" fill="#231F20"/>
<path d="M273.303 56.8497C273.854 57.2119 274.829 57.5948 275.761 57.5948C277.118 57.5948 277.753 56.9142 277.753 56.0622C277.753 55.1669 277.224 54.6782 275.846 54.1684C274.004 53.5073 273.133 52.4846 273.133 51.2502C273.133 49.5901 274.469 48.2278 276.673 48.2278C277.711 48.2278 278.622 48.5256 279.195 48.8662L278.729 50.2285C278.327 49.9736 277.584 49.633 276.631 49.633C275.528 49.633 274.913 50.2718 274.913 51.0386C274.913 51.8896 275.528 52.273 276.863 52.7834C278.643 53.465 279.555 54.3588 279.555 55.8914C279.555 57.7017 278.155 59 275.718 59C274.595 59 273.557 58.7012 272.837 58.2755L273.303 56.8497Z" fill="#231F20"/>
<path d="M281.738 48.4623H283.602V58.766H281.738V48.4623ZM283.815 45.5669C283.836 46.2047 283.371 46.7161 282.628 46.7161C281.971 46.7161 281.505 46.2047 281.505 45.5669C281.505 44.9069 281.992 44.3955 282.671 44.3955C283.371 44.3955 283.815 44.9069 283.815 45.5669Z" fill="#231F20"/>
<path d="M291.89 53.5079C289.855 53.4655 287.545 53.8278 287.545 55.8279C287.545 57.0416 288.35 57.616 289.304 57.616C290.639 57.616 291.487 56.764 291.784 55.8914C291.847 55.7005 291.89 55.4879 291.89 55.2959V53.5079ZM293.69 56.296C293.69 57.1913 293.733 58.0644 293.861 58.7662H292.165L292.016 57.4669H291.953C291.379 58.276 290.279 59 288.817 59C286.739 59 285.68 57.5304 285.68 56.0411C285.68 53.5502 287.883 52.1873 291.847 52.21V51.9959C291.847 51.1449 291.614 49.6118 289.516 49.6118C288.562 49.6118 287.566 49.9101 286.846 50.3781L286.421 49.1438C287.27 48.5891 288.498 48.2283 289.79 48.2283C292.927 48.2283 293.69 50.3781 293.69 52.4428V56.296Z" fill="#231F20"/>
</g>
<defs>
<clipPath id="clip0_41_2193">
<rect width="393.333" height="59" fill="white"/>
</clipPath>
</defs>
</svg>
