<svg width="300" height="45" viewBox="0 0 300 45" fill="none" xmlns="http://www.w3.org/2000/svg">
<g clip-path="url(#clip0_47_4638)">
<path d="M36.5246 11.9332C36.7181 11.9332 37.0609 12.0927 37.528 12.6057C39.9602 15.2579 42.6889 17.3541 44.9846 18.6218C45.3159 18.8013 45.4972 18.9392 45.4972 19.1133C45.4972 19.2459 45.4785 19.375 45.1927 19.375C44.6751 19.375 41.7812 18.8013 41.0153 18.4443C40.246 18.0769 38.5926 16.7301 36.6202 13.3139C36.3968 12.9285 36.1611 12.5969 36.1611 12.2864C36.1611 11.9782 36.4377 11.9332 36.5246 11.9332Z" fill="#6C99D7"/>
<path d="M43.0776 2.16813C43.0776 2.16813 43.5577 3.12035 38.8822 3.78283C39.391 2.33298 39.7288 1.3773 39.7288 1.3773C40.0257 0.50578 39.3554 0.000849171 38.8734 0.000849171C38.3906 0.000849171 38.0387 0.373975 37.8363 0.844705L36.4473 4.03837C34.6244 4.16057 33.2748 4.09294 32.6624 4.03491C31.8165 3.9523 31.5958 4.42034 31.5958 4.90183C31.5958 5.74184 33.0713 6.59415 34.0139 6.50039C34.6057 6.44505 34.9496 6.42084 35.4351 6.36897L30.2649 18.2379C30.0668 18.681 29.908 19.3965 30.7944 19.3965C31.6834 19.3965 33.6792 18.5822 34.0139 17.6373C34.1531 17.2407 35.1834 14.3072 36.3314 11.0417C36.9006 10.9287 38.987 10.6094 39.5677 10.6094C40.1186 10.6094 40.4025 10.8549 40.4025 11.1474C40.4025 11.8325 38.769 13.7961 35.6045 16.2117C35.2599 16.4787 35.5464 16.6866 35.7224 16.6866C36.2116 16.6866 38.3929 15.1876 39.4725 14.3664C40.6615 13.466 42.7276 11.1258 42.7276 9.47617C42.7276 8.83099 42.4418 8.23729 41.1469 8.23729C39.8929 8.23729 37.6703 8.51627 37.199 8.57737C37.5043 7.69777 37.8096 6.83931 38.0934 6.03504C40.539 5.69457 41.9958 5.47131 42.8561 5.29378C44.0382 5.04247 44.9904 4.3577 44.9904 3.65295C44.9904 2.15545 43.0776 2.16813 43.0776 2.16813Z" fill="#5C250B"/>
<path d="M1.48888 9.59649H0V8.11858H1.48888V6.15035H3.50262V8.11858H5.40656V9.59649H3.50262V13.2152C3.50262 13.8803 3.68089 14.4975 4.44713 14.4975C4.8094 14.4975 5.15293 14.4241 5.36104 14.2911L5.42531 15.8854C5.0003 16.0146 4.53971 16.0684 3.93719 16.0684C2.35803 16.0684 1.48888 15.0858 1.48888 13.5472V9.59649Z" fill="#5C250B"/>
<path d="M6.94141 8.11986H8.72676V9.88673H8.7589C8.84803 9.15815 9.67357 7.93579 10.8744 7.93579C11.0691 7.93579 11.2795 7.93579 11.4895 8.00035V10.0354C11.3097 9.93323 10.9501 9.87059 10.5886 9.87059C8.95323 9.87059 8.95323 11.9222 8.95323 13.0354V15.8867H6.94141L6.94141 8.11986Z" fill="#5C250B"/>
<path d="M19.8409 15.8854H17.9304V14.8345H17.9002C17.2877 15.5876 16.4167 16.0684 15.365 16.0684C13.5334 16.0684 12.7373 14.7718 12.7373 13.018V8.11858H14.7438V12.2649C14.7438 13.2152 14.7637 14.4975 16.0559 14.4975C17.5111 14.4975 17.8286 12.9139 17.8286 11.9206V8.11858H19.8409V15.8854Z" fill="#5C250B"/>
<path d="M26.468 11.2408C26.4052 10.2617 25.9554 9.41549 24.8318 9.41549C23.7033 9.41549 23.1341 10.2006 23.0438 11.2408H26.468ZM27.8176 15.4478C27.082 15.8547 26.2419 16.0684 25.1593 16.0684C22.61 16.0684 21.1211 14.5908 21.1211 12.0443C21.1211 9.79362 22.3081 7.93452 24.7113 7.93452C27.58 7.93452 28.3907 9.91043 28.3907 12.6307H23.0438C23.1341 13.8803 24.0036 14.5908 25.2496 14.5908C26.2304 14.5908 27.0678 14.2285 27.8176 13.805V15.4478Z" fill="#5C250B"/>
<path d="M44.1377 8.23737H45.9257V9.99963H45.956C46.0443 9.27489 46.871 8.05099 48.0741 8.05099C48.2677 8.05099 48.4777 8.05099 48.6873 8.11094V10.1503C48.5106 10.0446 48.1491 9.98541 47.7876 9.98541C46.1495 9.98541 46.1495 12.0351 46.1495 13.1487V16H44.1377V8.23737Z" fill="#5C250B"/>
<path d="M49.8574 8.23594H51.8719V15.9986H49.8574V8.23594ZM49.8574 5H51.8719V6.93057H49.8574V5Z" fill="#5C250B"/>
<path d="M58.4834 11.356C58.4238 10.3715 57.9735 9.53073 56.8473 9.53073C55.7172 9.53073 55.1495 10.3143 55.0623 11.356H58.4834ZM59.8331 15.563C59.0986 15.9719 58.2604 16.1836 57.1774 16.1836C54.6258 16.1836 53.1377 14.7038 53.1377 12.1541C53.1377 9.90539 54.3213 8.04975 56.7275 8.04975C59.5947 8.04975 60.4027 10.0253 60.4027 12.744H55.0623C55.1495 13.9975 56.0191 14.7038 57.2677 14.7038C58.2417 14.7038 59.0859 14.3437 59.8331 13.9202V15.563Z" fill="#5C250B"/>
<path d="M61.5977 8.30496H63.5077V9.35862H63.5345C64.1684 8.46712 65.0245 8.11858 66.0731 8.11858C67.9086 8.11858 68.7008 9.41703 68.7008 11.1674V16.0684H66.6909V11.9206C66.6909 10.9703 66.6748 9.68794 65.3841 9.68794C63.9308 9.68794 63.6114 11.2696 63.6114 12.2702V16.0684H61.5977V8.30496Z" fill="#5C250B"/>
<path d="M73.721 14.6127C75.0615 14.6127 75.4991 13.1978 75.4991 12.093C75.4991 11.0063 74.985 9.61834 73.6923 9.61834C72.3901 9.61834 72.0305 11.0532 72.0305 12.093C72.0305 13.1675 72.4016 14.6127 73.721 14.6127ZM75.5722 15.1272H75.5419C74.9402 15.8804 74.1154 16.1836 73.1713 16.1836C70.7953 16.1836 69.9238 14.22 69.9238 12.093C69.9238 9.95035 70.7953 8.04975 73.1713 8.04975C74.1762 8.04975 74.8813 8.39867 75.483 9.13724H75.5136V4.68586H77.5235V15.9988H75.5722V15.1272Z" fill="#5C250B"/>
<path d="M86.1523 6.27116H90.4044V14.7005H90.4893C90.9113 13.9646 91.3623 13.286 91.7842 12.6074L96.0925 6.27116H101.359L95.0787 14.3892L101.696 25.3359H96.6839L92.0379 17.1049L90.4044 19.1127V25.3359H86.1523V6.27116Z" fill="#231F20"/>
<path d="M106.172 18.4073C106.172 20.7832 107.158 22.5651 108.988 22.5651C110.649 22.5651 111.719 20.8962 111.719 18.4073C111.719 16.3422 110.931 14.2491 108.988 14.2491C106.932 14.2491 106.172 16.3706 106.172 18.4073ZM116.141 18.2658C116.141 23.3286 112.564 25.6484 108.876 25.6484C104.848 25.6484 101.751 22.9897 101.751 18.5202C101.751 14.0516 104.68 11.1941 109.101 11.1941C113.325 11.1941 116.141 14.108 116.141 18.2658Z" fill="#231F20"/>
<path d="M118.504 16.0597C118.504 14.0231 118.448 12.6939 118.392 11.5057H122.081L122.221 14.0515H122.334C123.038 12.0433 124.727 11.1945 126.051 11.1945C126.445 11.1945 126.642 11.1945 126.952 11.2509V15.3242C126.642 15.2397 126.276 15.1828 125.797 15.1828C124.22 15.1828 123.151 16.0313 122.869 17.3612C122.813 17.6437 122.784 17.9833 122.784 18.3227V25.3379H118.504V16.0597Z" fill="#231F20"/>
<path d="M137.032 16.8513C137.032 15.8046 136.581 14.0512 134.61 14.0512C132.808 14.0512 132.076 15.6912 131.963 16.8513H137.032ZM131.992 19.7929C132.132 21.5748 133.878 22.4229 135.877 22.4229C137.341 22.4229 138.524 22.2254 139.678 21.858L140.242 24.7711C138.834 25.3372 137.117 25.6484 135.258 25.6484C130.583 25.6484 127.908 22.9044 127.908 18.5767C127.908 15.0691 130.076 11.1941 134.863 11.1941C139.313 11.1941 141.002 14.6737 141.002 18.096C141.002 18.8311 140.918 19.4821 140.861 19.7929H131.992Z" fill="#231F20"/>
<path d="M150.603 18.8031C148.351 18.775 146.605 19.3126 146.605 20.9815C146.605 22.0843 147.337 22.6223 148.294 22.6223C149.364 22.6223 150.237 21.9153 150.519 21.038C150.575 20.8112 150.603 20.5565 150.603 20.3021V18.8031ZM154.771 21.9714C154.771 23.3002 154.827 24.5736 154.968 25.3376H151.11L150.857 23.9511H150.772C149.872 25.054 148.463 25.6484 146.83 25.6484C144.042 25.6484 142.381 23.6122 142.381 21.4057C142.381 17.8132 145.591 16.0878 150.463 16.1159V15.9183C150.463 15.1825 150.068 14.1361 147.957 14.1361C146.549 14.1361 145.056 14.6168 144.155 15.1825L143.367 12.4107C144.324 11.8731 146.211 11.1945 148.717 11.1945C153.307 11.1945 154.771 13.9098 154.771 17.1626V21.9714Z" fill="#231F20"/>
<path d="M167.722 25.3363H163.413V6.27148H167.722V25.3363Z" fill="#231F20"/>
<path d="M171.099 15.9167C171.099 14.191 171.043 12.7204 170.986 11.5041H174.704L174.9 13.399H174.985C175.548 12.5225 176.956 11.1929 179.237 11.1929C182.053 11.1929 184.165 13.0597 184.165 17.1329V25.3359H179.884V17.6705C179.884 15.8887 179.265 14.6724 177.717 14.6724C176.533 14.6724 175.83 15.4921 175.548 16.2845C175.435 16.5673 175.379 16.9631 175.379 17.3593V25.3359H171.099V15.9167Z" fill="#231F20"/>
<path d="M189.964 11.5057L191.822 17.9265C192.161 19.0862 192.413 20.1894 192.611 21.2927H192.695C192.921 20.1614 193.146 19.1146 193.456 17.9265L195.23 11.5057H199.736L194.61 25.3379H190.331L185.318 11.5057H189.964Z" fill="#231F20"/>
<path d="M209.337 16.8513C209.337 15.8046 208.886 14.0512 206.915 14.0512C205.113 14.0512 204.381 15.6912 204.268 16.8513H209.337ZM204.296 19.7929C204.437 21.5748 206.183 22.4229 208.182 22.4229C209.647 22.4229 210.829 22.2254 211.983 21.858L212.547 24.7711C211.139 25.3372 209.421 25.6484 207.563 25.6484C202.888 25.6484 200.213 22.9044 200.213 18.5767C200.213 15.0691 202.381 11.1941 207.168 11.1941C211.617 11.1941 213.308 14.6737 213.308 18.096C213.308 18.8311 213.222 19.4821 213.167 19.7929H204.296Z" fill="#231F20"/>
<path d="M215.558 21.5748C216.346 22.0555 217.98 22.6223 219.247 22.6223C220.543 22.6223 221.077 22.1693 221.077 21.4618C221.077 20.7551 220.655 20.4155 219.05 19.8779C216.206 18.9164 215.107 17.3605 215.135 15.7481C215.135 13.1458 217.333 11.1941 220.739 11.1941C222.344 11.1941 223.781 11.5615 224.625 11.9861L223.865 14.9561C223.245 14.6164 222.063 14.1641 220.88 14.1641C219.838 14.1641 219.247 14.588 219.247 15.2958C219.247 15.9464 219.782 16.2853 221.471 16.8794C224.09 17.7847 225.189 19.1139 225.216 21.1506C225.216 23.7248 223.189 25.6484 219.247 25.6484C217.445 25.6484 215.84 25.2242 214.798 24.6582L215.558 21.5748Z" fill="#231F20"/>
<path d="M232.311 7.74338V11.5054H235.381V14.6737H232.311V19.6796C232.311 21.3488 232.706 22.1132 234.001 22.1132C234.593 22.1132 234.846 22.0839 235.268 21.9998L235.296 25.2526C234.734 25.4786 233.72 25.6484 232.509 25.6484C231.129 25.6484 229.974 25.1393 229.299 24.4315C228.51 23.6118 228.116 22.2822 228.116 20.3301V14.6737H226.286V11.5054H228.116V8.90311L232.311 7.74338Z" fill="#231F20"/>
<path d="M237.576 15.9167C237.576 14.191 237.521 12.7204 237.464 11.5041H241.068L241.266 13.3709H241.35C241.941 12.494 243.152 11.1929 245.517 11.1929C247.292 11.1929 248.7 12.0978 249.291 13.5404H249.347C249.854 12.8049 250.474 12.2677 251.121 11.8715C251.882 11.4192 252.726 11.1929 253.74 11.1929C256.387 11.1929 258.387 13.0597 258.387 17.1898V25.3359H254.218V17.8119C254.218 15.8034 253.571 14.644 252.191 14.644C251.206 14.644 250.502 15.3226 250.22 16.143C250.107 16.4543 250.051 16.9066 250.051 17.2459V25.3359H245.883V17.5852C245.883 15.8314 245.264 14.644 243.912 14.644C242.814 14.644 242.166 15.4921 241.913 16.1995C241.773 16.5392 241.745 16.9346 241.745 17.2743V25.3359H237.576V15.9167Z" fill="#231F20"/>
<path d="M269.844 16.8513C269.844 15.8046 269.393 14.0512 267.422 14.0512C265.62 14.0512 264.888 15.6912 264.776 16.8513H269.844ZM264.803 19.7929C264.943 21.5748 266.69 22.4229 268.689 22.4229C270.153 22.4229 271.336 22.2254 272.491 21.858L273.054 24.7711C271.645 25.3372 269.928 25.6484 268.07 25.6484C263.396 25.6484 260.72 22.9044 260.72 18.5767C260.72 15.0691 262.889 11.1941 267.675 11.1941C272.125 11.1941 273.814 14.6737 273.814 18.096C273.814 18.8311 273.729 19.4821 273.674 19.7929H264.803Z" fill="#231F20"/>
<path d="M276.094 15.9167C276.094 14.191 276.038 12.7204 275.981 11.5041H279.698L279.895 13.399H279.98C280.543 12.5225 281.952 11.1929 284.231 11.1929C287.048 11.1929 289.16 13.0597 289.16 17.1329V25.3359H284.879V17.6705C284.879 15.8887 284.259 14.6724 282.712 14.6724C281.528 14.6724 280.825 15.4921 280.543 16.2845C280.43 16.5673 280.374 16.9631 280.374 17.3593V25.3359H276.094V15.9167Z" fill="#231F20"/>
<path d="M296.93 7.74338V11.5054H300V14.6737H296.93V19.6796C296.93 21.3488 297.324 22.1132 298.62 22.1132C299.211 22.1132 299.464 22.0839 299.887 21.9998L299.914 25.2526C299.352 25.4786 298.338 25.6484 297.128 25.6484C295.747 25.6484 294.592 25.1393 293.918 24.4315C293.128 23.6118 292.734 22.2822 292.734 20.3301V14.6737H290.904V11.5054H292.734V8.90311L296.93 7.74338Z" fill="#231F20"/>
<path d="M88.6744 34.6724C87.7853 34.6724 87.3167 35.4202 87.3167 36.2652C87.3167 37.0433 87.6725 37.6439 88.1411 38.2284C89.2401 37.5955 89.9517 37.011 89.9517 36.0857C89.9517 35.4202 89.5798 34.6724 88.6908 34.6724H88.6744ZM88.4001 43.9283C89.3209 43.9283 90.1131 43.506 90.6307 42.9376C89.9838 42.2237 88.7715 40.8918 87.5588 39.4957C86.977 39.8692 86.1526 40.5671 86.1526 41.7203C86.1526 42.9699 87.0741 43.9283 88.3832 43.9283H88.4001ZM92.3441 44.8213C92.037 44.5127 91.7458 44.2046 91.3254 43.75C90.3878 44.6269 89.3369 45 88.1411 45C86.0233 45 84.7949 43.5705 84.7949 41.9316C84.7949 40.4379 85.6843 39.4139 86.9288 38.7322V38.6838C86.363 37.9694 86.0233 37.1743 86.0233 36.3939C86.0233 35.0635 86.977 33.6986 88.7876 33.6986C90.1456 33.6986 91.1961 34.6078 91.1961 36.0211C91.1961 37.1743 90.5332 38.0831 88.8037 38.9439V38.9923C89.7256 40.0637 90.76 41.2653 91.4551 42.045C91.9562 41.2814 92.2952 40.2262 92.5056 38.8463H93.799C93.5079 40.5671 93.0389 41.9316 92.2305 42.8892C92.8124 43.506 93.3786 44.1231 94.0251 44.8213H92.3441Z" fill="#231F20"/>
<path d="M98.2112 43.1009C98.8417 43.4902 99.7632 43.8145 100.733 43.8145C102.172 43.8145 103.012 43.0518 103.012 41.9477C103.012 40.9248 102.43 40.34 100.959 39.772C99.181 39.138 98.0819 38.2123 98.0819 36.6706C98.0819 34.9648 99.4882 33.6986 101.606 33.6986C102.721 33.6986 103.529 33.9588 104.015 34.2351L103.626 35.3883C103.27 35.1927 102.544 34.868 101.557 34.868C100.07 34.868 99.5046 35.761 99.5046 36.508C99.5046 37.5313 100.167 38.0347 101.671 38.6188C103.513 39.3332 104.451 40.2266 104.451 41.834C104.451 43.5225 103.206 45 100.636 45C99.5854 45 98.4373 44.6757 97.8555 44.2864L98.2112 43.1009Z" fill="#231F20"/>
<path d="M111.224 40.1294C111.24 39.2202 110.852 37.8069 109.252 37.8069C107.813 37.8069 107.183 39.1376 107.07 40.1294H111.224ZM107.054 41.1515C107.086 43.0844 108.315 43.8791 109.737 43.8791C110.755 43.8791 111.369 43.7016 111.903 43.4737L112.145 44.4966C111.644 44.7237 110.787 45 109.543 45C107.134 45 105.695 43.393 105.695 41.0224C105.695 38.6515 107.086 36.7839 109.365 36.7839C111.919 36.7839 112.598 39.0407 112.598 40.4864C112.598 40.7784 112.566 41.0063 112.549 41.1515H107.054Z" fill="#231F20"/>
<path d="M115.604 40.5661H115.636C115.83 40.2898 116.105 39.9493 116.331 39.673L118.626 36.9616H120.34L117.317 40.1929L120.76 44.8203H119.03L116.331 41.0541L115.604 41.8653V44.8203H114.197V33.2922H115.604V40.5661Z" fill="#231F20"/>
<path d="M128.228 42.6775C128.228 43.4898 128.244 44.2046 128.293 44.8213H127.032L126.951 43.5382H126.919C126.547 44.1715 125.723 45 124.332 45C123.104 45 121.633 44.3187 121.633 41.5577V36.9626H123.056V41.3149C123.056 42.8085 123.508 43.8145 124.801 43.8145C125.755 43.8145 126.418 43.1494 126.676 42.5161C126.757 42.3043 126.806 42.045 126.806 41.7848V36.9626H128.228V42.6775Z" fill="#231F20"/>
<path d="M130.427 39.4129C130.427 38.4875 130.411 37.6921 130.362 36.9616H131.607L131.656 38.5037H131.72C132.076 37.4496 132.933 36.7829 133.886 36.7829C134.048 36.7829 134.161 36.7991 134.29 36.8313V38.179C134.145 38.1467 133.999 38.1309 133.806 38.1309C132.803 38.1309 132.092 38.8937 131.898 39.9651C131.865 40.1607 131.833 40.3874 131.833 40.6314V44.8203H130.427V39.4129Z" fill="#231F20"/>
<path d="M135.615 36.9632H137.037V44.8219H135.615V36.9632ZM137.199 34.7548C137.216 35.2412 136.86 35.6313 136.294 35.6313C135.793 35.6313 135.438 35.2412 135.438 34.7548C135.438 34.2514 135.809 33.8613 136.327 33.8613C136.86 33.8613 137.199 34.2514 137.199 34.7548Z" fill="#231F20"/>
<path d="M140.949 35.0797V36.9626H142.986V38.0509H140.949V42.2886C140.949 43.2623 141.224 43.8145 142.016 43.8145C142.404 43.8145 142.63 43.7822 142.84 43.7177L142.905 44.7894C142.63 44.9032 142.194 45 141.644 45C140.982 45 140.448 44.7725 140.109 44.3832C139.704 43.9609 139.559 43.2623 139.559 42.337V38.0509H138.347V36.9626H139.559V35.5174L140.949 35.0797Z" fill="#231F20"/>
<path d="M148.547 40.8111C146.995 40.7788 145.232 41.0551 145.232 42.5806C145.232 43.5063 145.847 43.9444 146.574 43.9444C147.593 43.9444 148.24 43.2946 148.466 42.6291C148.514 42.4834 148.547 42.3213 148.547 42.1748V40.8111ZM149.92 42.9376C149.92 43.6205 149.953 44.2864 150.05 44.8217H148.757L148.643 43.8307H148.595C148.158 44.4478 147.318 45 146.203 45C144.618 45 143.811 43.8791 143.811 42.7432C143.811 40.8434 145.491 39.8039 148.514 39.8212V39.6579C148.514 39.0088 148.336 37.8395 146.736 37.8395C146.008 37.8395 145.249 38.067 144.699 38.424L144.376 37.4825C145.022 37.0594 145.96 36.7843 146.946 36.7843C149.338 36.7843 149.92 38.424 149.92 39.9987V42.9376Z" fill="#231F20"/>
<path d="M151.86 43.3599C152.281 43.6362 153.024 43.9283 153.736 43.9283C154.77 43.9283 155.255 43.4091 155.255 42.7593C155.255 42.0765 154.851 41.7037 153.8 41.3149C152.394 40.8107 151.731 40.0306 151.731 39.0892C151.731 37.823 152.749 36.7839 154.431 36.7839C155.223 36.7839 155.918 37.011 156.354 37.2708L155.998 38.3099C155.691 38.1154 155.126 37.8557 154.398 37.8557C153.558 37.8557 153.089 38.3429 153.089 38.9278C153.089 39.5768 153.558 39.8692 154.576 40.2585C155.934 40.7784 156.629 41.4601 156.629 42.6291C156.629 44.0097 155.563 45 153.703 45C152.846 45 152.054 44.7721 151.505 44.4474L151.86 43.3599Z" fill="#231F20"/>
<path d="M163.014 44.8206H161.607V33.877H163.014V44.8206Z" fill="#231F20"/>
<path d="M165.422 39.0882C165.422 38.277 165.406 37.6103 165.357 36.9616H166.618L166.698 38.2608H166.731C167.119 37.5138 168.025 36.7829 169.317 36.7829C170.401 36.7829 172.081 37.432 172.081 40.1284V44.8203H170.66V40.2898C170.66 39.0236 170.19 37.9684 168.849 37.9684C167.911 37.9684 167.184 38.6343 166.941 39.429C166.877 39.6085 166.845 39.8521 166.845 40.0949V44.8203H165.422V39.0882Z" fill="#231F20"/>
<path d="M179.565 40.1617C179.565 39.9822 179.549 39.739 179.5 39.561C179.29 38.6515 178.515 37.9037 177.447 37.9037C175.977 37.9037 175.104 39.2033 175.104 40.9406C175.104 42.5322 175.88 43.8468 177.415 43.8468C178.369 43.8468 179.242 43.2135 179.5 42.1422C179.549 41.9474 179.565 41.7525 179.565 41.5254V40.1617ZM180.987 33.2932V42.7924C180.987 43.4898 181.004 44.286 181.053 44.8213H179.775L179.711 43.4575H179.679C179.242 44.3344 178.288 45 177.011 45C175.12 45 173.665 43.393 173.665 41.0063C173.649 38.3917 175.266 36.7839 177.173 36.7839C178.369 36.7839 179.177 37.3519 179.533 37.9855H179.565V33.2932H180.987Z" fill="#231F20"/>
<path d="M184.06 40.9079C184.06 42.6291 185.046 43.9283 186.436 43.9283C187.793 43.9283 188.813 42.6452 188.813 40.8756C188.813 39.5449 188.149 37.856 186.468 37.856C184.787 37.856 184.06 39.4139 184.06 40.9079ZM190.267 40.8272C190.267 43.7338 188.263 45 186.371 45C184.253 45 182.621 43.4418 182.621 40.9571C182.621 38.3264 184.335 36.7843 186.501 36.7843C188.747 36.7843 190.267 38.424 190.267 40.8272Z" fill="#231F20"/>
<path d="M191.899 39.0882C191.899 38.277 191.883 37.6103 191.835 36.9616H193.095L193.177 38.2608H193.209C193.597 37.5138 194.502 36.7829 195.795 36.7829C196.878 36.7829 198.56 37.432 198.56 40.1284V44.8203H197.137V40.2898C197.137 39.0236 196.668 37.9684 195.327 37.9684C194.39 37.9684 193.661 38.6343 193.419 39.429C193.354 39.6085 193.322 39.8521 193.322 40.0949V44.8203H191.899V39.0882Z" fill="#231F20"/>
<path d="M205.671 40.1294C205.687 39.2202 205.299 37.8069 203.7 37.8069C202.261 37.8069 201.631 39.1376 201.517 40.1294H205.671ZM201.501 41.1515C201.533 43.0844 202.762 43.8791 204.184 43.8791C205.202 43.8791 205.817 43.7016 206.35 43.4737L206.593 44.4966C206.092 44.7237 205.235 45 203.99 45C201.582 45 200.144 43.393 200.144 41.0224C200.144 38.6515 201.533 36.7839 203.812 36.7839C206.366 36.7839 207.045 39.0407 207.045 40.4864C207.045 40.7784 207.013 41.0063 206.997 41.1515H201.501Z" fill="#231F20"/>
<path d="M208.452 43.3599C208.872 43.6362 209.616 43.9283 210.326 43.9283C211.362 43.9283 211.846 43.4091 211.846 42.7593C211.846 42.0765 211.442 41.7037 210.392 41.3149C208.986 40.8107 208.322 40.0306 208.322 39.0892C208.322 37.823 209.341 36.7839 211.022 36.7839C211.814 36.7839 212.509 37.011 212.945 37.2708L212.59 38.3099C212.283 38.1154 211.717 37.8557 210.99 37.8557C210.149 37.8557 209.68 38.3429 209.68 38.9278C209.68 39.5768 210.149 39.8692 211.167 40.2585C212.525 40.7784 213.221 41.4601 213.221 42.6291C213.221 44.0097 212.153 45 210.294 45C209.437 45 208.646 44.7721 208.097 44.4474L208.452 43.3599Z" fill="#231F20"/>
<path d="M214.885 36.9632H216.307V44.8219H214.885V36.9632ZM216.469 34.7548C216.485 35.2412 216.13 35.6313 215.564 35.6313C215.062 35.6313 214.707 35.2412 214.707 34.7548C214.707 34.2514 215.078 33.8613 215.596 33.8613C216.13 33.8613 216.469 34.2514 216.469 34.7548Z" fill="#231F20"/>
<path d="M222.628 40.8111C221.076 40.7788 219.314 41.0551 219.314 42.5806C219.314 43.5063 219.928 43.9444 220.656 43.9444C221.674 43.9444 222.321 43.2946 222.547 42.6291C222.595 42.4834 222.628 42.3213 222.628 42.1748V40.8111ZM224.001 42.9376C224.001 43.6205 224.034 44.2864 224.131 44.8217H222.838L222.724 43.8307H222.676C222.239 44.4478 221.399 45 220.284 45C218.7 45 217.892 43.8791 217.892 42.7432C217.892 40.8434 219.572 39.8039 222.595 39.8212V39.6579C222.595 39.0088 222.417 37.8395 220.817 37.8395C220.089 37.8395 219.33 38.067 218.781 38.424L218.457 37.4825C219.104 37.0594 220.041 36.7843 221.027 36.7843C223.419 36.7843 224.001 38.424 224.001 39.9987V42.9376Z" fill="#231F20"/>
</g>
<defs>
<clipPath id="clip0_47_4638">
<rect width="300" height="45" fill="white"/>
</clipPath>
</defs>
</svg>
