<svg width="25" height="25" viewBox="0 0 25 25" fill="none" xmlns="http://www.w3.org/2000/svg">
<path d="M18.5318 0H6.38089C3.31283 0 0 3.35647 0 6.42452V18.5318C0 21.5999 3.40009 25 6.46815 25H13.3625V15.3319H10.1083V11.5472H13.3625V8.7625C13.3625 5.53472 15.3361 3.775 18.2167 3.775C19.1875 3.77222 20.1569 3.82222 21.1222 3.92083V7.29583H19.1389C17.5694 7.29583 17.2639 8.0375 17.2639 9.13194V11.5417H21.0139L20.5264 15.3264H17.2417V25H18.5318C21.5999 25 25 21.6435 25 18.5755V6.46815C25 3.40009 21.5999 0 18.5318 0Z" fill="#42A5DC"/>
</svg>
