<svg width="29" height="28" viewBox="0 0 29 28" fill="none" xmlns="http://www.w3.org/2000/svg">
<path d="M20.9475 0H7.58148C4.20662 0 0.5625 3.69211 0.5625 7.06697V20.385C0.5625 23.7599 4.3026 27.5 7.67747 27.5H15.2613V16.8651H11.6817V12.7019H15.2613V9.63875C15.2613 6.08819 17.4322 4.1525 20.6008 4.1525C21.6687 4.14944 22.7351 4.20444 23.7969 4.31292V8.02542H21.6153C19.8889 8.02542 19.5528 8.84125 19.5528 10.0451V12.6958H23.6778L23.1415 16.859H19.5283V27.5H20.9475C24.3224 27.5 28.0625 23.8079 28.0625 20.433V7.11496C28.0625 3.7401 24.3224 0 20.9475 0Z" fill="#42A5DC"/>
</svg>
