<svg width="300" height="46" viewBox="0 0 300 46" fill="none" xmlns="http://www.w3.org/2000/svg">
<path d="M36.5245 12.055C36.7181 12.055 37.0609 12.2161 37.5279 12.7342C39.9602 15.4128 42.6889 17.5299 44.9845 18.8103C45.3158 18.9915 45.4972 19.1308 45.4972 19.3066C45.4972 19.4405 45.4784 19.5709 45.1926 19.5709C44.6751 19.5709 41.7811 18.9915 41.0152 18.631C40.2459 18.2599 38.5926 16.8996 36.6202 13.4494C36.3968 13.0602 36.1611 12.7252 36.1611 12.4117C36.1611 12.1004 36.4377 12.055 36.5245 12.055Z" fill="white"/>
<path d="M43.0736 2.18925C43.0736 2.18925 43.5537 3.15112 38.8783 3.82032C39.387 2.35577 39.7248 1.39041 39.7248 1.39041C40.0217 0.510048 39.3515 0 38.8695 0C38.3867 0 38.0347 0.376907 37.8324 0.852409L36.4433 4.07845C34.6205 4.20188 33.2709 4.13357 32.6584 4.07496C31.8126 3.9915 31.5919 4.46428 31.5919 4.95065C31.5919 5.79918 33.0674 6.66013 34.01 6.56542C34.6018 6.50953 34.9457 6.48507 35.4311 6.43267L30.261 18.4219C30.0628 18.8695 29.9041 19.5922 30.7904 19.5922C31.6795 19.5922 33.6752 18.7697 34.01 17.8152C34.1492 17.4146 35.1794 14.4514 36.3274 11.1528C36.8967 11.0386 38.9831 10.7161 39.5638 10.7161C40.1146 10.7161 40.3985 10.9641 40.3985 11.2595C40.3985 11.9516 38.765 13.9351 35.6006 16.3751C35.2559 16.6449 35.5424 16.8549 35.7184 16.8549C36.2077 16.8549 38.389 15.3407 39.4685 14.5112C40.6575 13.6017 42.7236 11.2378 42.7236 9.57137C42.7236 8.91964 42.4378 8.31993 41.1429 8.31993C39.8889 8.31993 37.6663 8.60174 37.195 8.66345C37.5003 7.77494 37.8056 6.90778 38.0894 6.09535C40.5351 5.75144 41.9918 5.52592 42.8521 5.34658C44.0342 5.09272 44.9864 4.40101 44.9864 3.68912C44.9864 2.17644 43.0736 2.18925 43.0736 2.18925Z" fill="white"/>
<path d="M1.48887 9.69185H0V8.19922H1.48887V6.21138H3.5026V8.19922H5.40653V9.69185H3.5026V13.3466C3.5026 14.0184 3.68086 14.6417 4.4471 14.6417C4.80938 14.6417 5.1529 14.5675 5.36101 14.4333L5.42528 16.0435C5.00027 16.1739 4.53968 16.2282 3.93717 16.2282C2.35802 16.2282 1.48887 15.2359 1.48887 13.6819V9.69185Z" fill="white"/>
<path d="M6.94245 8.20111H8.72779V9.98559H8.75993C8.84906 9.24975 9.6746 8.01521 10.8754 8.01521C11.0701 8.01521 11.2805 8.01521 11.4905 8.08041V10.1358C11.3107 10.0326 10.9512 9.96929 10.5896 9.96929C8.95426 9.96929 8.95426 12.0414 8.95426 13.1657V16.0454H6.94245V8.20111Z" fill="white"/>
<path d="M19.8414 16.0435H17.931V14.982H17.9007C17.2883 15.7427 16.4172 16.2282 15.3656 16.2282C13.534 16.2282 12.7379 14.9188 12.7379 13.1475V8.19922H14.7443V12.3868C14.7443 13.3466 14.7642 14.6417 16.0565 14.6417C17.5117 14.6417 17.8292 13.0423 17.8292 12.0391V8.19922H19.8414V16.0435Z" fill="white"/>
<path d="M26.4689 11.3525C26.4062 10.3637 25.9563 9.50906 24.8328 9.50906C23.7043 9.50906 23.135 10.3019 23.0448 11.3525H26.4689ZM27.8186 15.6014C27.0829 16.0124 26.2429 16.2282 25.1603 16.2282C22.611 16.2282 21.1221 14.736 21.1221 12.164C21.1221 9.89095 22.3091 8.01332 24.7123 8.01332C27.581 8.01332 28.3916 10.0089 28.3916 12.7563H23.0448C23.135 14.0184 24.0046 14.736 25.2505 14.736C26.2314 14.736 27.0688 14.37 27.8186 13.9423V15.6014Z" fill="white"/>
<path d="M44.1369 8.31721H45.9249V10.097H45.9552C46.0435 9.36508 46.8702 8.12899 48.0733 8.12899C48.2669 8.12899 48.4769 8.12899 48.6866 8.18953V10.2492C48.5098 10.1424 48.1483 10.0827 47.7868 10.0827C46.1487 10.0827 46.1487 12.1528 46.1487 13.2775V16.1572H44.1369V8.31721Z" fill="white"/>
<path d="M49.8576 8.35388H51.8721V16.1939H49.8576V8.35388ZM49.8576 5.08569H51.8721V7.0355H49.8576V5.08569Z" fill="white"/>
<path d="M58.4812 11.4715C58.4215 10.4772 57.9712 9.628 56.845 9.628C55.715 9.628 55.1473 10.4193 55.0601 11.4715H58.4812ZM59.8308 15.7204C59.0963 16.1333 58.2582 16.3472 57.1752 16.3472C54.6236 16.3472 53.1355 14.8526 53.1355 12.2776C53.1355 10.0064 54.3191 8.13226 56.7253 8.13226C59.5925 8.13226 60.4004 10.1275 60.4004 12.8733H55.0601C55.1473 14.1393 56.0168 14.8526 57.2655 14.8526C58.2394 14.8526 59.0837 14.4889 59.8308 14.0613V15.7204Z" fill="white"/>
<path d="M61.5978 8.38745H63.5079V9.45162H63.5346C64.1685 8.55123 65.0247 8.19922 66.0732 8.19922C67.9087 8.19922 68.7009 9.51061 68.7009 11.2784V16.2282H66.691V12.0391C66.691 11.0793 66.675 9.78422 65.3843 9.78422C63.931 9.78422 63.6115 11.3816 63.6115 12.3922V16.2282H61.5978V8.38745Z" fill="white"/>
<path d="M73.7224 14.7588C75.0628 14.7588 75.5004 13.3299 75.5004 12.2141C75.5004 11.1165 74.9863 9.71471 73.6937 9.71471C72.3915 9.71471 72.0319 11.1639 72.0319 12.2141C72.0319 13.2992 72.4029 14.7588 73.7224 14.7588ZM75.5735 15.2785H75.5433C74.9415 16.0392 74.1168 16.3454 73.1726 16.3454C70.7966 16.3454 69.9252 14.3622 69.9252 12.2141C69.9252 10.05 70.7966 8.13048 73.1726 8.13048C74.1776 8.13048 74.8826 8.48288 75.4844 9.22881H75.515V4.73306H77.5249V16.1587H75.5735V15.2785Z" fill="white"/>
<path d="M86.1503 6.3344H90.4023V14.8492H90.4872C90.9092 14.1059 91.3602 13.4204 91.7821 12.7349L96.0904 6.3344H101.357L95.0766 14.5348L101.694 25.5924H96.6818L92.0358 17.2779L90.4023 19.3061V25.5924H86.1503V6.3344Z" fill="white"/>
<path d="M106.171 18.5968C106.171 20.9965 107.157 22.7961 108.987 22.7961C110.649 22.7961 111.718 21.1106 111.718 18.5968C111.718 16.5112 110.93 14.3972 108.987 14.3972C106.932 14.3972 106.171 16.5399 106.171 18.5968ZM116.14 18.454C116.14 23.5672 112.563 25.9102 108.875 25.9102C104.848 25.9102 101.75 23.2249 101.75 18.7109C101.75 14.1977 104.679 11.3118 109.1 11.3118C113.324 11.3118 116.14 14.2548 116.14 18.454Z" fill="white"/>
<path d="M118.5 16.2271C118.5 14.1702 118.444 12.8277 118.387 11.6277H122.076L122.217 14.1989H122.33C123.034 12.1707 124.723 11.3134 126.047 11.3134C126.441 11.3134 126.638 11.3134 126.948 11.3704V15.4843C126.638 15.3989 126.272 15.3414 125.793 15.3414C124.216 15.3414 123.146 16.1984 122.865 17.5416C122.808 17.8268 122.78 18.1699 122.78 18.5126V25.5978H118.5V16.2271Z" fill="white"/>
<path d="M137.031 17.0254C137.031 15.9682 136.581 14.1973 134.609 14.1973C132.807 14.1973 132.075 15.8538 131.963 17.0254H137.031ZM131.991 19.9963C132.132 21.7959 133.878 22.6525 135.877 22.6525C137.341 22.6525 138.524 22.453 139.678 22.082L140.242 25.0242C138.833 25.5958 137.116 25.9102 135.258 25.9102C130.583 25.9102 127.908 23.1388 127.908 18.768C127.908 15.2254 130.076 11.3118 134.863 11.3118C139.312 11.3118 141.002 14.8261 141.002 18.2825C141.002 19.0249 140.917 19.6824 140.861 19.9963H131.991Z" fill="white"/>
<path d="M150.601 18.9966C148.349 18.9683 146.603 19.5112 146.603 21.1967C146.603 22.3106 147.335 22.8539 148.292 22.8539C149.362 22.8539 150.235 22.1398 150.517 21.2538C150.573 21.0248 150.601 20.7675 150.601 20.5106V18.9966ZM154.769 22.1965C154.769 23.5385 154.825 24.8247 154.966 25.5962H151.108L150.855 24.196H150.77C149.869 25.3098 148.461 25.9102 146.828 25.9102C144.04 25.9102 142.379 23.8537 142.379 21.6252C142.379 17.9968 145.589 16.2543 150.46 16.2826V16.0831C150.46 15.3399 150.066 14.2831 147.954 14.2831C146.547 14.2831 145.054 14.7686 144.153 15.3399L143.365 12.5405C144.322 11.9976 146.208 11.3122 148.715 11.3122C153.305 11.3122 154.769 14.0545 154.769 17.3398V22.1965Z" fill="white"/>
<path d="M167.724 25.588H163.416V6.32995H167.724V25.588Z" fill="white"/>
<path d="M171.099 16.0793C171.099 14.3364 171.043 12.8511 170.987 11.6228H174.704L174.9 13.5365H174.986C175.548 12.6512 176.957 11.3084 179.237 11.3084C182.053 11.3084 184.165 13.1938 184.165 17.3077V25.5924H179.884V17.8506C179.884 16.051 179.265 14.8227 177.717 14.8227C176.534 14.8227 175.83 15.6505 175.548 16.4507C175.436 16.7364 175.379 17.1361 175.379 17.5363V25.5924H171.099V16.0793Z" fill="white"/>
<path d="M189.964 11.6277L191.822 18.1125C192.162 19.2838 192.414 20.398 192.611 21.5122H192.696C192.921 20.3697 193.147 19.3125 193.456 18.1125L195.231 11.6277H199.736L194.611 25.5978H190.331L185.319 11.6277H189.964Z" fill="white"/>
<path d="M209.333 17.0254C209.333 15.9682 208.882 14.1973 206.911 14.1973C205.109 14.1973 204.377 15.8538 204.264 17.0254H209.333ZM204.292 19.9963C204.433 21.7959 206.179 22.6525 208.178 22.6525C209.642 22.6525 210.825 22.453 211.979 22.082L212.543 25.0242C211.135 25.5958 209.417 25.9102 207.559 25.9102C202.884 25.9102 200.209 23.1388 200.209 18.768C200.209 15.2254 202.377 11.3118 207.164 11.3118C211.613 11.3118 213.304 14.8261 213.304 18.2825C213.304 19.0249 213.218 19.6824 213.163 19.9963H204.292Z" fill="white"/>
<path d="M215.554 21.7959C216.342 22.2815 217.975 22.8539 219.242 22.8539C220.538 22.8539 221.073 22.3963 221.073 21.6818C221.073 20.9681 220.65 20.6251 219.046 20.0821C216.201 19.1111 215.103 17.5397 215.131 15.9112C215.131 13.283 217.328 11.3118 220.734 11.3118C222.339 11.3118 223.776 11.6828 224.621 12.1117L223.86 15.1113C223.241 14.7682 222.058 14.3114 220.875 14.3114C219.834 14.3114 219.242 14.7395 219.242 15.4544C219.242 16.1115 219.778 16.4538 221.466 17.0538C224.085 17.9681 225.184 19.3106 225.212 21.3675C225.212 23.9674 223.184 25.9102 219.242 25.9102C217.441 25.9102 215.836 25.4817 214.793 24.9101L215.554 21.7959Z" fill="white"/>
<path d="M232.31 7.8245V11.6245H235.379V14.8247H232.31V19.8811C232.31 21.5672 232.704 22.3392 234 22.3392C234.591 22.3392 234.845 22.3097 235.266 22.2247L235.295 25.5104C234.732 25.7386 233.718 25.9102 232.507 25.9102C231.128 25.9102 229.973 25.3959 229.297 24.6809C228.509 23.853 228.114 22.51 228.114 20.5382V14.8247H226.285V11.6245H228.114V8.99593L232.31 7.8245Z" fill="white"/>
<path d="M237.576 16.0793C237.576 14.3364 237.521 12.8511 237.464 11.6228H241.068L241.265 13.5082H241.35C241.941 12.6225 243.151 11.3084 245.517 11.3084C247.291 11.3084 248.7 12.2224 249.291 13.6793H249.347C249.854 12.9365 250.473 12.3939 251.121 11.9938C251.881 11.537 252.726 11.3084 253.74 11.3084C256.387 11.3084 258.386 13.1938 258.386 17.3651V25.5924H254.218V17.9934C254.218 15.9648 253.571 14.7939 252.191 14.7939C251.206 14.7939 250.501 15.4793 250.22 16.3079C250.107 16.6223 250.051 17.0791 250.051 17.4218V25.5924H245.883V17.7645C245.883 15.9932 245.263 14.7939 243.912 14.7939C242.814 14.7939 242.166 15.6505 241.912 16.365C241.772 16.7081 241.744 17.1074 241.744 17.4505V25.5924H237.576V16.0793Z" fill="white"/>
<path d="M269.845 17.0254C269.845 15.9682 269.393 14.1973 267.422 14.1973C265.62 14.1973 264.889 15.8538 264.776 17.0254H269.845ZM264.804 19.9963C264.944 21.7959 266.69 22.6525 268.689 22.6525C270.153 22.6525 271.336 22.453 272.491 22.082L273.054 25.0242C271.646 25.5958 269.928 25.9102 268.07 25.9102C263.396 25.9102 260.72 23.1388 260.72 18.768C260.72 15.2254 262.889 11.3118 267.675 11.3118C272.125 11.3118 273.815 14.8261 273.815 18.2825C273.815 19.0249 273.73 19.6824 273.674 19.9963H264.804Z" fill="white"/>
<path d="M276.092 16.0793C276.092 14.3364 276.035 12.8511 275.979 11.6228H279.696L279.892 13.5365H279.978C280.54 12.6512 281.949 11.3084 284.229 11.3084C287.046 11.3084 289.158 13.1938 289.158 17.3077V25.5924H284.877V17.8506C284.877 16.051 284.257 14.8227 282.709 14.8227C281.526 14.8227 280.822 15.6505 280.54 16.4507C280.428 16.7364 280.372 17.1361 280.372 17.5363V25.5924H276.092V16.0793Z" fill="white"/>
<path d="M296.93 7.8245V11.6245H300V14.8247H296.93V19.8811C296.93 21.5672 297.324 22.3392 298.62 22.3392C299.211 22.3392 299.464 22.3097 299.888 22.2247L299.915 25.5104C299.352 25.7386 298.338 25.9102 297.128 25.9102C295.748 25.9102 294.593 25.3959 293.918 24.6809C293.129 23.853 292.734 22.51 292.734 20.5382V14.8247H290.905V11.6245H292.734V8.99593L296.93 7.8245Z" fill="white"/>
<path d="M88.6696 35.0193C87.7806 35.0193 87.312 35.7745 87.312 36.628C87.312 37.4139 87.6677 38.0205 88.1363 38.6108C89.2354 37.9716 89.9469 37.3813 89.9469 36.4467C89.9469 35.7745 89.5751 35.0193 88.6861 35.0193H88.6696ZM88.3953 44.3675C89.3161 44.3675 90.1084 43.9409 90.6259 43.3669C89.9791 42.6458 88.7668 41.3007 87.5541 39.8907C86.9722 40.268 86.1479 40.9728 86.1479 42.1374C86.1479 43.3995 87.0694 44.3675 88.3785 44.3675H88.3953ZM92.3394 45.2694C92.0322 44.9578 91.7411 44.6465 91.3207 44.1874C90.383 45.073 89.3322 45.4499 88.1363 45.4499C86.0186 45.4499 84.7902 44.0061 84.7902 42.3509C84.7902 40.8424 85.6796 39.8081 86.924 39.1196V39.0707C86.3583 38.3492 86.0186 37.5462 86.0186 36.758C86.0186 35.4144 86.9723 34.0359 88.7828 34.0359C90.1409 34.0359 91.1914 34.9541 91.1914 36.3815C91.1914 37.5462 90.5284 38.4641 88.7989 39.3334V39.3823C89.7208 40.4643 90.7552 41.6779 91.4503 42.4654C91.9515 41.6942 92.2904 40.6285 92.5008 39.2348H93.7942C93.5031 40.9728 93.0341 42.3509 92.2258 43.318C92.8076 43.9409 93.3738 44.5642 94.0203 45.2694H92.3394Z" fill="white"/>
<path d="M98.2106 43.5319C98.841 43.925 99.7626 44.2526 100.732 44.2526C102.171 44.2526 103.012 43.4822 103.012 42.3672C103.012 41.3341 102.429 40.7434 100.958 40.1698C99.1803 39.5294 98.0813 38.5945 98.0813 37.0374C98.0813 35.3146 99.4875 34.0359 101.605 34.0359C102.72 34.0359 103.529 34.2986 104.014 34.5776L103.626 35.7423C103.27 35.5448 102.543 35.2168 101.557 35.2168C100.069 35.2168 99.5039 36.1188 99.5039 36.8733C99.5039 37.9068 100.166 38.4152 101.67 39.0051C103.513 39.7266 104.45 40.6289 104.45 42.2523C104.45 43.9576 103.205 45.4499 100.635 45.4499C99.5847 45.4499 98.4366 45.1223 97.8548 44.7292L98.2106 43.5319Z" fill="white"/>
<path d="M111.224 40.5307C111.24 39.6125 110.852 38.185 109.252 38.185C107.813 38.185 107.183 39.529 107.07 40.5307H111.224ZM107.054 41.563C107.086 43.5152 108.315 44.3178 109.737 44.3178C110.756 44.3178 111.37 44.1385 111.903 43.9083L112.146 44.9415C111.645 45.1708 110.788 45.4499 109.543 45.4499C107.135 45.4499 105.696 43.8268 105.696 41.4326C105.696 39.0381 107.086 37.1519 109.365 37.1519C111.92 37.1519 112.598 39.4312 112.598 40.8913C112.598 41.1862 112.566 41.4163 112.55 41.563H107.054Z" fill="white"/>
<path d="M115.607 40.9739H115.639C115.833 40.6949 116.108 40.351 116.334 40.072L118.63 37.3335H120.343L117.32 40.5971L120.764 45.2706H119.034L116.334 41.4668L115.607 42.2861V45.2706H114.201V33.6276H115.607V40.9739Z" fill="white"/>
<path d="M128.229 43.1042C128.229 43.9246 128.245 44.6465 128.293 45.2694H127.032L126.951 43.9735H126.919C126.547 44.6131 125.723 45.4499 124.333 45.4499C123.104 45.4499 121.633 44.7618 121.633 41.9733V37.3324H123.056V41.728C123.056 43.2365 123.508 44.2526 124.801 44.2526C125.755 44.2526 126.418 43.5808 126.677 42.9412C126.757 42.7273 126.806 42.4654 126.806 42.2026V37.3324H128.229V43.1042Z" fill="white"/>
<path d="M130.43 39.8092C130.43 38.8747 130.414 38.0713 130.365 37.3335H131.61L131.659 38.891H131.723C132.079 37.8264 132.936 37.1531 133.889 37.1531C134.051 37.1531 134.164 37.1694 134.293 37.202V38.563C134.148 38.5304 134.002 38.5145 133.809 38.5145C132.806 38.5145 132.095 39.2849 131.901 40.3669C131.868 40.5645 131.836 40.7935 131.836 41.0399V45.2706H130.43V39.8092Z" fill="white"/>
<path d="M135.614 37.3381H137.036V45.2752H135.614V37.3381ZM137.198 35.1077C137.214 35.599 136.859 35.993 136.292 35.993C135.791 35.993 135.436 35.599 135.436 35.1077C135.436 34.5993 135.808 34.2054 136.325 34.2054C136.859 34.2054 137.198 34.5993 137.198 35.1077Z" fill="white"/>
<path d="M140.947 35.4307V37.3324H142.984V38.4315H140.947V42.7114C140.947 43.6949 141.222 44.2526 142.014 44.2526C142.402 44.2526 142.628 44.22 142.839 44.1548L142.903 45.2372C142.628 45.3521 142.192 45.4499 141.642 45.4499C140.98 45.4499 140.446 45.2201 140.107 44.827C139.702 44.4004 139.557 43.6949 139.557 42.7603V38.4315H138.345V37.3324H139.557V35.8727L140.947 35.4307Z" fill="white"/>
<path d="M148.549 41.2192C146.998 41.1866 145.235 41.4656 145.235 43.0064C145.235 43.9413 145.85 44.3838 146.577 44.3838C147.596 44.3838 148.243 43.7275 148.469 43.0553C148.517 42.9082 148.549 42.7444 148.549 42.5966V41.2192ZM149.923 43.3669C149.923 44.0566 149.956 44.7292 150.053 45.2698H148.76L148.646 44.2689H148.598C148.161 44.8922 147.321 45.4499 146.206 45.4499C144.621 45.4499 143.813 44.3178 143.813 43.1706C143.813 41.2518 145.494 40.202 148.517 40.2195V40.0545C148.517 39.399 148.339 38.218 146.739 38.218C146.011 38.218 145.251 38.4478 144.702 38.8083L144.379 37.8575C145.025 37.4302 145.963 37.1523 146.949 37.1523C149.341 37.1523 149.923 38.8083 149.923 40.3988V43.3669Z" fill="white"/>
<path d="M151.857 43.7935C152.277 44.0725 153.021 44.3675 153.732 44.3675C154.766 44.3675 155.252 43.8431 155.252 43.1869C155.252 42.4972 154.847 42.1208 153.797 41.728C152.391 41.2188 151.728 40.431 151.728 39.4801C151.728 38.2013 152.746 37.1519 154.427 37.1519C155.22 37.1519 155.914 37.3813 156.351 37.6436L155.995 38.6931C155.688 38.4967 155.122 38.2343 154.395 38.2343C153.554 38.2343 153.086 38.7264 153.086 39.3171C153.086 39.9726 153.554 40.268 154.573 40.6611C155.93 41.1862 156.626 41.8747 156.626 43.0553C156.626 44.4497 155.559 45.4499 153.7 45.4499C152.843 45.4499 152.051 45.2197 151.502 44.8918L151.857 43.7935Z" fill="white"/>
<path d="M163.012 45.2723H161.605V34.2196H163.012V45.2723Z" fill="white"/>
<path d="M165.422 39.4813C165.422 38.662 165.406 37.9887 165.358 37.3335H166.619L166.699 38.6457H166.732C167.12 37.8912 168.026 37.1531 169.318 37.1531C170.402 37.1531 172.082 37.8086 172.082 40.5319V45.2706H170.66V40.6949C170.66 39.4161 170.191 38.3504 168.849 38.3504C167.912 38.3504 167.184 39.0229 166.942 39.8255C166.878 40.0068 166.845 40.2528 166.845 40.4981V45.2706H165.422V39.4813Z" fill="white"/>
<path d="M179.564 40.5633C179.564 40.3821 179.548 40.1364 179.499 39.9567C179.289 39.0381 178.514 38.2828 177.446 38.2828C175.976 38.2828 175.103 39.5954 175.103 41.35C175.103 42.9575 175.879 44.2852 177.414 44.2852C178.368 44.2852 179.241 43.6456 179.499 42.5636C179.548 42.3668 179.564 42.17 179.564 41.9407V40.5633ZM180.986 33.6264V43.2202C180.986 43.9246 181.003 44.7288 181.052 45.2694H179.774L179.71 43.892H179.678C179.241 44.7777 178.287 45.4499 177.01 45.4499C175.12 45.4499 173.664 43.8268 173.664 41.4164C173.648 38.7757 175.265 37.1519 177.172 37.1519C178.368 37.1519 179.176 37.7255 179.532 38.3655H179.564V33.6264H180.986Z" fill="white"/>
<path d="M184.059 41.317C184.059 43.0553 185.045 44.3675 186.435 44.3675C187.792 44.3675 188.812 43.0716 188.812 41.2844C188.812 39.9404 188.148 38.2347 186.467 38.2347C184.786 38.2347 184.059 39.8081 184.059 41.317ZM190.266 41.2355C190.266 44.1711 188.262 45.4499 186.37 45.4499C184.252 45.4499 182.62 43.8761 182.62 41.3667C182.62 38.7097 184.334 37.1523 186.5 37.1523C188.746 37.1523 190.266 38.8083 190.266 41.2355Z" fill="white"/>
<path d="M191.9 39.4813C191.9 38.662 191.883 37.9887 191.835 37.3335H193.096L193.177 38.6457H193.21C193.597 37.8912 194.502 37.1531 195.796 37.1531C196.879 37.1531 198.56 37.8086 198.56 40.5319V45.2706H197.137V40.6949C197.137 39.4161 196.668 38.3504 195.327 38.3504C194.39 38.3504 193.661 39.0229 193.42 39.8255C193.354 40.0068 193.323 40.2528 193.323 40.4981V45.2706H191.9V39.4813Z" fill="white"/>
<path d="M205.669 40.5307C205.685 39.6125 205.297 38.185 203.698 38.185C202.258 38.185 201.628 39.529 201.515 40.5307H205.669ZM201.499 41.563C201.531 43.5152 202.76 44.3178 204.182 44.3178C205.2 44.3178 205.815 44.1385 206.348 43.9083L206.591 44.9415C206.09 45.1708 205.233 45.4499 203.988 45.4499C201.58 45.4499 200.141 43.8268 200.141 41.4326C200.141 39.0381 201.531 37.1519 203.81 37.1519C206.364 37.1519 207.043 39.4312 207.043 40.8913C207.043 41.1862 207.011 41.4163 206.995 41.563H201.499Z" fill="white"/>
<path d="M208.451 43.7935C208.871 44.0725 209.615 44.3675 210.325 44.3675C211.361 44.3675 211.845 43.8431 211.845 43.1869C211.845 42.4972 211.441 42.1208 210.391 41.728C208.985 41.2188 208.322 40.431 208.322 39.4801C208.322 38.2013 209.34 37.1519 211.021 37.1519C211.813 37.1519 212.508 37.3813 212.945 37.6436L212.589 38.6931C212.282 38.4967 211.716 38.2343 210.989 38.2343C210.148 38.2343 209.679 38.7264 209.679 39.3171C209.679 39.9726 210.148 40.268 211.167 40.6611C212.524 41.1862 213.22 41.8747 213.22 43.0553C213.22 44.4497 212.152 45.4499 210.293 45.4499C209.436 45.4499 208.645 45.2197 208.096 44.8918L208.451 43.7935Z" fill="white"/>
<path d="M214.882 37.3381H216.304V45.2752H214.882V37.3381ZM216.467 35.1077C216.483 35.599 216.128 35.993 215.561 35.993C215.06 35.993 214.705 35.599 214.705 35.1077C214.705 34.5993 215.076 34.2054 215.594 34.2054C216.128 34.2054 216.467 34.5993 216.467 35.1077Z" fill="white"/>
<path d="M222.626 41.2192C221.074 41.1866 219.312 41.4656 219.312 43.0064C219.312 43.9413 219.926 44.3838 220.654 44.3838C221.672 44.3838 222.319 43.7275 222.545 43.0553C222.593 42.9082 222.626 42.7444 222.626 42.5966V41.2192ZM223.999 43.3669C223.999 44.0566 224.032 44.7292 224.13 45.2698H222.836L222.723 44.2689H222.674C222.237 44.8922 221.397 45.4499 220.282 45.4499C218.698 45.4499 217.89 44.3178 217.89 43.1706C217.89 41.2518 219.57 40.202 222.593 40.2195V40.0545C222.593 39.399 222.415 38.218 220.815 38.218C220.088 38.218 219.328 38.4478 218.779 38.8083L218.455 37.8575C219.102 37.4302 220.039 37.1523 221.025 37.1523C223.417 37.1523 223.999 38.8083 223.999 40.3988V43.3669Z" fill="white"/>
</svg>
