<svg width="301" height="46" viewBox="0 0 301 46" fill="none" xmlns="http://www.w3.org/2000/svg">
<path d="M37.0233 12.0534C37.2169 12.0534 37.5597 12.2145 38.0268 12.7327C40.459 15.4117 43.1878 17.529 45.4835 18.8095C45.8148 18.9908 45.9961 19.1302 45.9961 19.306C45.9961 19.4399 45.9773 19.5703 45.6916 19.5703C45.174 19.5703 42.28 18.9908 41.5141 18.6302C40.7448 18.2591 39.0914 16.8987 37.119 13.448C36.8956 13.0587 36.6599 12.7237 36.6599 12.4101C36.6599 12.0988 36.9365 12.0534 37.0233 12.0534Z" fill="white"/>
<path d="M43.5782 2.18935C43.5782 2.18935 44.0583 3.15125 39.3828 3.82046C39.8916 2.35588 40.2294 1.39049 40.2294 1.39049C40.5262 0.510109 39.856 4.57764e-05 39.374 4.57764e-05C38.8912 4.57764e-05 38.5392 0.376965 38.3369 0.852478L36.9478 4.0786C35.125 4.20204 33.7753 4.13372 33.1629 4.0751C32.317 3.99165 32.0963 4.46444 32.0963 4.95082C32.0963 5.79937 33.5718 6.66035 34.5144 6.56563C35.1062 6.50974 35.4501 6.48528 35.9356 6.43288L30.7654 18.4224C30.5672 18.87 30.4085 19.5928 31.2949 19.5928C32.1839 19.5928 34.1797 18.7702 34.5144 17.8157C34.6537 17.4151 35.6839 14.4518 36.8319 11.1531C37.4012 11.039 39.4876 10.7164 40.0683 10.7164C40.6192 10.7164 40.903 10.9644 40.903 11.2598C40.903 11.9519 39.2695 13.9355 36.1051 16.3756C35.7604 16.6454 36.0469 16.8554 36.2229 16.8554C36.7122 16.8554 38.8935 15.3411 39.9731 14.5116C41.162 13.6021 43.2282 11.2381 43.2282 9.57166C43.2282 8.91991 42.9424 8.32018 41.6475 8.32018C40.3935 8.32018 38.1709 8.602 37.6995 8.66372C38.0048 7.77518 38.3101 6.908 38.594 6.09555C41.0396 5.75163 42.4964 5.5261 43.3567 5.34676C44.5388 5.0929 45.491 4.40117 45.491 3.68926C45.491 2.17654 43.5782 2.18935 43.5782 2.18935Z" fill="white"/>
<path d="M1.98889 9.68836H0.5V8.19553H1.98889V6.20742H4.00265V8.19553H5.90661V9.68836H4.00265V13.3436C4.00265 14.0155 4.18092 14.6388 4.94717 14.6388C5.30944 14.6388 5.65298 14.5647 5.86108 14.4304L5.92535 16.0408C5.50034 16.1712 5.03974 16.2256 4.43722 16.2256C2.85805 16.2256 1.98889 15.2331 1.98889 13.6789V9.68836Z" fill="white"/>
<path d="M7.44153 8.19865H9.2269V9.98336H9.25903C9.34817 9.24743 10.1737 8.01272 11.3745 8.01272C11.5693 8.01272 11.7797 8.01272 11.9897 8.07793V10.1336C11.8099 10.0303 11.4503 9.96706 11.0888 9.96706C9.45337 9.96706 9.45337 12.0394 9.45337 13.1639V16.0439H7.44153L7.44153 8.19865Z" fill="white"/>
<path d="M20.3392 16.0408H18.4287V14.9792H18.3985C17.7861 15.74 16.915 16.2256 15.8633 16.2256C14.0317 16.2256 13.2356 14.916 13.2356 13.1444V8.19553H15.2421V12.3837C15.2421 13.3436 15.262 14.6388 16.5542 14.6388C18.0095 14.6388 18.327 13.0393 18.327 12.0359V8.19553H20.3392V16.0408Z" fill="white"/>
<path d="M26.9684 11.3493C26.9057 10.3602 26.4558 9.50554 25.3322 9.50554C24.2037 9.50554 23.6344 10.2985 23.5442 11.3493H26.9684ZM28.318 15.5987C27.5824 16.0098 26.7423 16.2256 25.6597 16.2256C23.1104 16.2256 21.6215 14.7331 21.6215 12.1609C21.6215 9.88748 22.8085 8.0096 25.2117 8.0096C28.0805 8.0096 28.8911 10.0055 28.8911 12.7532H23.5442C23.6344 14.0155 24.504 14.7331 25.75 14.7331C26.7308 14.7331 27.5682 14.3671 28.318 13.9394V15.5987Z" fill="white"/>
<path d="M44.6423 8.31132H46.4304V10.0914H46.4606C46.549 9.35932 47.3757 8.12306 48.5788 8.12306C48.7724 8.12306 48.9824 8.12306 49.192 8.18361V10.2435C49.0153 10.1368 48.6538 10.077 48.2923 10.077C46.6542 10.077 46.6542 12.1474 46.6542 13.2723V16.1523H44.6423V8.31132Z" fill="white"/>
<path d="M50.36 8.31451H52.3745V16.1555H50.36V8.31451ZM50.36 5.0459H52.3745V6.99597H50.36V5.0459Z" fill="white"/>
<path d="M58.9809 11.4664C58.9212 10.472 58.471 9.62272 57.3447 9.62272C56.2147 9.62272 55.647 10.4142 55.5598 11.4664H58.9809ZM60.3306 15.7159C59.5961 16.1289 58.7579 16.3428 57.6749 16.3428C55.1233 16.3428 53.6351 14.848 53.6351 12.2726C53.6351 10.0012 54.8187 8.12679 57.225 8.12679C60.0922 8.12679 60.9002 10.1223 60.9002 12.8684H55.5598C55.647 14.1346 56.5165 14.848 57.7652 14.848C58.7391 14.848 59.5834 14.4843 60.3306 14.0566V15.7159Z" fill="white"/>
<path d="M62.0967 8.38378H64.0068V9.44809H64.0335C64.6674 8.54758 65.5236 8.19553 66.5722 8.19553C68.4076 8.19553 69.1999 9.50709 69.1999 11.2751V16.2256H67.19V12.0359C67.19 11.076 67.1739 9.78074 65.8832 9.78074C64.4299 9.78074 64.1104 11.3784 64.1104 12.3891V16.2256H62.0967V8.38378Z" fill="white"/>
<path d="M74.2212 14.756C75.5616 14.756 75.9993 13.3268 75.9993 12.2109C75.9993 11.1132 75.4851 9.71122 74.1925 9.71122C72.8903 9.71122 72.5307 11.1606 72.5307 12.2109C72.5307 13.2962 72.9017 14.756 74.2212 14.756ZM76.0723 15.2757H76.0421C75.4404 16.0365 74.6156 16.3428 73.6714 16.3428C71.2954 16.3428 70.424 14.3593 70.424 12.2109C70.424 10.0466 71.2954 8.12679 73.6714 8.12679C74.6764 8.12679 75.3814 8.47923 75.9832 9.22526H76.0138V4.72892H78.0237V16.1561H76.0723V15.2757Z" fill="white"/>
<path d="M86.6514 6.33133H90.9034V14.8463H90.9884C91.4103 14.103 91.8613 13.4175 92.2833 12.7319L96.5916 6.33133H101.858L95.5778 14.5319L102.196 25.5898H97.183L92.5369 17.2751L90.9034 19.3034V25.5898H86.6514V6.33133Z" fill="white"/>
<path d="M106.669 18.5929C106.669 20.9929 107.654 22.7927 109.485 22.7927C111.146 22.7927 112.216 21.107 112.216 18.5929C112.216 16.507 111.428 14.3927 109.485 14.3927C107.429 14.3927 106.669 16.5357 106.669 18.5929ZM116.637 18.4501C116.637 23.564 113.061 25.9072 109.372 25.9072C105.345 25.9072 102.248 23.2216 102.248 18.707C102.248 14.1932 105.177 11.3069 109.598 11.3069C113.822 11.3069 116.637 14.2503 116.637 18.4501Z" fill="white"/>
<path d="M119.002 16.2248C119.002 14.1676 118.945 12.825 118.889 11.6248H122.578L122.718 14.1963H122.831C123.535 12.1678 125.224 11.3104 126.548 11.3104C126.942 11.3104 127.14 11.3104 127.449 11.3675V15.4819C127.14 15.3965 126.773 15.339 126.294 15.339C124.718 15.339 123.648 16.1961 123.366 17.5395C123.31 17.8247 123.282 18.1679 123.282 18.5106V25.5967H119.002V16.2248Z" fill="white"/>
<path d="M137.536 17.0213C137.536 15.964 137.085 14.1928 135.114 14.1928C133.312 14.1928 132.58 15.8495 132.467 17.0213H137.536ZM132.496 19.9926C132.636 21.7924 134.382 22.6491 136.382 22.6491C137.846 22.6491 139.028 22.4496 140.183 22.0785L140.746 25.0211C139.338 25.5928 137.621 25.9072 135.762 25.9072C131.087 25.9072 128.412 23.1354 128.412 18.7641C128.412 15.2211 130.58 11.3069 135.367 11.3069C139.817 11.3069 141.506 14.8216 141.506 18.2785C141.506 19.021 141.422 19.6786 141.365 19.9926H132.496Z" fill="white"/>
<path d="M151.101 18.9927C148.848 18.9644 147.102 19.5074 147.102 21.1931C147.102 22.3071 147.834 22.8505 148.792 22.8505C149.862 22.8505 150.735 22.1363 151.016 21.2502C151.073 21.0212 151.101 20.7638 151.101 20.5069V18.9927ZM155.268 22.193C155.268 23.5352 155.325 24.8216 155.466 25.5932H151.608L151.354 24.1928H151.27C150.369 25.3068 148.961 25.9072 147.328 25.9072C144.54 25.9072 142.878 23.8504 142.878 21.6217C142.878 17.9928 146.088 16.25 150.96 16.2784V16.0789C150.96 15.3356 150.566 14.2786 148.454 14.2786C147.046 14.2786 145.554 14.7642 144.653 15.3356L143.864 12.5358C144.821 11.9928 146.708 11.3073 149.214 11.3073C153.804 11.3073 155.268 14.05 155.268 17.3357V22.193Z" fill="white"/>
<path d="M168.228 25.5886H163.919V6.33008H168.228V25.5886Z" fill="white"/>
<path d="M171.606 16.0755C171.606 14.3323 171.55 12.8469 171.493 11.6184H175.21L175.407 13.5323H175.492C176.055 12.647 177.463 11.304 179.744 11.304C182.56 11.304 184.672 13.1896 184.672 17.304V25.5898H180.391V17.847C180.391 16.0472 179.771 14.8187 178.224 14.8187C177.04 14.8187 176.337 15.6466 176.055 16.447C175.942 16.7326 175.886 17.1324 175.886 17.5326V25.5898H171.606V16.0755Z" fill="white"/>
<path d="M190.466 11.6248L192.324 18.1104C192.664 19.2819 192.916 20.3962 193.114 21.5106H193.198C193.423 20.3679 193.649 19.3106 193.958 18.1104L195.733 11.6248H200.239L195.113 25.5967H190.833L185.821 11.6248H190.466Z" fill="white"/>
<path d="M209.831 17.0213C209.831 15.964 209.38 14.1928 207.409 14.1928C205.607 14.1928 204.875 15.8495 204.763 17.0213H209.831ZM204.79 19.9926C204.931 21.7924 206.678 22.6491 208.677 22.6491C210.141 22.6491 211.324 22.4496 212.478 22.0785L213.042 25.0211C211.633 25.5928 209.916 25.9072 208.057 25.9072C203.383 25.9072 200.707 23.1354 200.707 18.7641C200.707 15.2211 202.876 11.3069 207.663 11.3069C212.112 11.3069 213.803 14.8216 213.803 18.2785C213.803 19.021 213.716 19.6786 213.661 19.9926H204.79Z" fill="white"/>
<path d="M216.058 21.7924C216.846 22.278 218.48 22.8505 219.746 22.8505C221.042 22.8505 221.577 22.3929 221.577 21.6783C221.577 20.9645 221.155 20.6214 219.55 20.0784C216.706 19.1072 215.607 17.5356 215.635 15.9069C215.635 13.2784 217.833 11.3069 221.239 11.3069C222.843 11.3069 224.281 11.678 225.125 12.1069L224.365 15.1069C223.745 14.7638 222.563 14.307 221.38 14.307C220.338 14.307 219.746 14.7351 219.746 15.4501C219.746 16.1072 220.282 16.4496 221.97 17.0496C224.59 17.9641 225.688 19.3067 225.716 21.3639C225.716 23.9641 223.689 25.9072 219.746 25.9072C217.945 25.9072 216.34 25.4787 215.297 24.907L216.058 21.7924Z" fill="white"/>
<path d="M232.807 7.82023V11.6205H235.877V14.821H232.807V19.8777C232.807 21.5639 233.202 22.336 234.497 22.336C235.089 22.336 235.342 22.3065 235.764 22.2215L235.792 25.5074C235.229 25.7357 234.216 25.9072 233.005 25.9072C231.625 25.9072 230.47 25.3929 229.795 24.6779C229.006 23.8499 228.612 22.5068 228.612 20.5349V14.821H226.782V11.6205H228.612V8.99174L232.807 7.82023Z" fill="white"/>
<path d="M238.076 16.0755C238.076 14.3323 238.02 12.8469 237.963 11.6184H241.568L241.765 13.504H241.85C242.441 12.6182 243.651 11.304 246.017 11.304C247.791 11.304 249.2 12.2181 249.791 13.6752H249.847C250.354 12.9323 250.973 12.3896 251.62 11.9894C252.381 11.5326 253.226 11.304 254.239 11.304C256.887 11.304 258.886 13.1896 258.886 17.3614V25.5898H254.718V17.9899C254.718 15.961 254.071 14.7899 252.691 14.7899C251.705 14.7899 251.001 15.4754 250.72 16.3041C250.607 16.6185 250.551 17.0754 250.551 17.4181V25.5898H246.383V17.7608C246.383 15.9893 245.763 14.7899 244.412 14.7899C243.314 14.7899 242.666 15.6466 242.412 16.3612C242.272 16.7043 242.244 17.1037 242.244 17.4468V25.5898H238.076V16.0755Z" fill="white"/>
<path d="M270.347 17.0213C270.347 15.964 269.896 14.1928 267.924 14.1928C266.123 14.1928 265.391 15.8495 265.278 17.0213H270.347ZM265.306 19.9926C265.446 21.7924 267.192 22.6491 269.191 22.6491C270.655 22.6491 271.839 22.4496 272.993 22.0785L273.557 25.0211C272.148 25.5928 270.43 25.9072 268.572 25.9072C263.898 25.9072 261.222 23.1354 261.222 18.7641C261.222 15.2211 263.391 11.3069 268.178 11.3069C272.627 11.3069 274.317 14.8216 274.317 18.2785C274.317 19.021 274.232 19.6786 274.176 19.9926H265.306Z" fill="white"/>
<path d="M276.593 16.0755C276.593 14.3323 276.537 12.8469 276.481 11.6184H280.197L280.394 13.5323H280.479C281.042 12.647 282.451 11.304 284.731 11.304C287.547 11.304 289.659 13.1896 289.659 17.304V25.5898H285.378V17.847C285.378 16.0472 284.759 14.8187 283.211 14.8187C282.027 14.8187 281.324 15.6466 281.042 16.447C280.929 16.7326 280.873 17.1324 280.873 17.5326V25.5898H276.593V16.0755Z" fill="white"/>
<path d="M297.431 7.82023V11.6205H300.501V14.821H297.431V19.8777C297.431 21.5639 297.825 22.336 299.121 22.336C299.712 22.336 299.965 22.3065 300.388 22.2215L300.415 25.5074C299.853 25.7357 298.839 25.9072 297.629 25.9072C296.248 25.9072 295.093 25.3929 294.419 24.6779C293.629 23.8499 293.235 22.5068 293.235 20.5349V14.821H291.405V11.6205H293.235V8.99174L297.431 7.82023Z" fill="white"/>
<path d="M89.1694 35.0183C88.2803 35.0183 87.8117 35.7736 87.8117 36.6271C87.8117 37.4132 88.1675 38.0198 88.6361 38.6102C89.7352 37.9709 90.4467 37.3805 90.4467 36.4459C90.4467 35.7736 90.0749 35.0183 89.1858 35.0183H89.1694ZM88.8951 44.3676C89.8159 44.3676 90.6082 43.9411 91.1257 43.367C90.4789 42.6458 89.2665 41.3005 88.0539 39.8903C87.472 40.2676 86.6476 40.9725 86.6476 42.1373C86.6476 43.3996 87.5692 44.3676 88.8783 44.3676H88.8951ZM92.8392 45.2697C92.532 44.958 92.2409 44.6467 91.8205 44.1875C90.8828 45.0733 89.832 45.4502 88.6361 45.4502C86.5183 45.4502 85.2899 44.0063 85.2899 42.3508C85.2899 40.8421 86.1794 39.8077 87.4238 39.1191V39.0702C86.858 38.3486 86.5183 37.5455 86.5183 36.7572C86.5183 35.4134 87.472 34.0347 89.2826 34.0347C90.6407 34.0347 91.6912 34.9531 91.6912 36.3807C91.6912 37.5455 91.0282 38.4635 89.2987 39.3329V39.3818C90.2206 40.464 91.255 41.6778 91.9501 42.4653C92.4513 41.6941 92.7902 40.6282 93.0006 39.2344H94.294C94.0029 40.9725 93.5339 42.3508 92.7256 43.3181C93.3074 43.9411 93.8736 44.5644 94.5201 45.2697H92.8392Z" fill="white"/>
<path d="M98.7123 43.532C99.3428 43.9252 100.264 44.2528 101.234 44.2528C102.673 44.2528 103.513 43.4823 103.513 42.3671C103.513 41.3339 102.931 40.7431 101.46 40.1694C99.6821 39.529 98.583 38.5939 98.583 37.0366C98.583 35.3136 99.9893 34.0347 102.107 34.0347C103.222 34.0347 104.031 34.2975 104.516 34.5765L104.127 35.7414C103.772 35.5438 103.045 35.2158 102.059 35.2158C100.571 35.2158 100.006 36.1179 100.006 36.8725C100.006 37.9061 100.668 38.4146 102.172 39.0046C104.015 39.7261 104.952 40.6286 104.952 42.2522C104.952 43.9578 103.707 45.4502 101.137 45.4502C100.086 45.4502 98.9384 45.1226 98.3566 44.7294L98.7123 43.532Z" fill="white"/>
<path d="M111.727 40.5304C111.743 39.612 111.355 38.1844 109.755 38.1844C108.316 38.1844 107.685 39.5286 107.573 40.5304H111.727ZM107.556 41.5629C107.589 43.5153 108.817 44.318 110.24 44.318C111.258 44.318 111.872 44.1386 112.405 43.9085L112.648 44.9417C112.147 45.1711 111.29 45.4502 110.045 45.4502C107.637 45.4502 106.198 43.827 106.198 41.4324C106.198 39.0376 107.589 37.1511 109.868 37.1511C112.422 37.1511 113.101 39.4308 113.101 40.891C113.101 41.186 113.068 41.4161 113.052 41.5629H107.556Z" fill="white"/>
<path d="M116.107 40.9704H116.139C116.334 40.6913 116.609 40.3474 116.835 40.0683L119.13 37.3295H120.844L117.821 40.5935L121.264 45.2676H119.534L116.835 41.4633L116.107 42.2827V45.2676H114.701V33.6231H116.107V40.9704Z" fill="white"/>
<path d="M128.731 43.1042C128.731 43.9248 128.747 44.6467 128.796 45.2697H127.535L127.454 43.9737H127.422C127.05 44.6133 126.226 45.4502 124.835 45.4502C123.607 45.4502 122.136 44.762 122.136 41.9731V37.3316H123.558V41.7278C123.558 43.2366 124.011 44.2528 125.304 44.2528C126.258 44.2528 126.921 43.5809 127.179 42.9412C127.26 42.7273 127.309 42.4653 127.309 42.2025V37.3316H128.731V43.1042Z" fill="white"/>
<path d="M130.935 39.8055C130.935 38.8709 130.918 38.0674 130.87 37.3295H132.115L132.163 38.8872H132.228C132.583 37.8225 133.44 37.149 134.394 37.149C134.555 37.149 134.669 37.1653 134.798 37.1979V38.5592C134.652 38.5266 134.507 38.5107 134.313 38.5107C133.311 38.5107 132.599 39.2811 132.406 40.3633C132.373 40.5609 132.341 40.7899 132.341 41.0363V45.2676H130.935V39.8055Z" fill="white"/>
<path d="M136.118 37.3353H137.54V45.2734H136.118V37.3353ZM137.702 35.1046C137.719 35.596 137.363 35.99 136.797 35.99C136.296 35.99 135.941 35.596 135.941 35.1046C135.941 34.5961 136.312 34.2021 136.83 34.2021C137.363 34.2021 137.702 34.5961 137.702 35.1046Z" fill="white"/>
<path d="M141.451 35.4297V37.3316H143.488V38.4309H141.451V42.7114C141.451 43.695 141.726 44.2528 142.519 44.2528C142.906 44.2528 143.133 44.2201 143.343 44.1549L143.407 45.2375C143.133 45.3524 142.696 45.4502 142.146 45.4502C141.484 45.4502 140.95 45.2204 140.611 44.8272C140.207 44.4006 140.061 43.695 140.061 42.7603V38.4309H138.849V37.3316H140.061V35.8718L141.451 35.4297Z" fill="white"/>
<path d="M149.048 41.219C147.496 41.1864 145.734 41.4654 145.734 43.0064C145.734 43.9415 146.348 44.3839 147.076 44.3839C148.094 44.3839 148.741 43.7276 148.967 43.0553C149.015 42.9082 149.048 42.7444 149.048 42.5965V41.219ZM150.422 43.367C150.422 44.0567 150.454 44.7294 150.551 45.2701H149.258L149.145 44.2691H149.096C148.66 44.8924 147.82 45.4502 146.704 45.4502C145.12 45.4502 144.312 44.318 144.312 43.1706C144.312 41.2516 145.992 40.2016 149.015 40.2191V40.0541C149.015 39.3985 148.838 38.2174 147.237 38.2174C146.51 38.2174 145.75 38.4472 145.201 38.8078L144.877 37.8568C145.524 37.4295 146.461 37.1515 147.447 37.1515C149.84 37.1515 150.422 38.8078 150.422 40.3984V43.367Z" fill="white"/>
<path d="M152.364 43.7936C152.784 44.0726 153.528 44.3676 154.239 44.3676C155.273 44.3676 155.759 43.8433 155.759 43.1869C155.759 42.4971 155.354 42.1206 154.304 41.7278C152.898 41.2186 152.235 40.4306 152.235 39.4797C152.235 38.2007 153.253 37.1511 154.934 37.1511C155.727 37.1511 156.421 37.3805 156.858 37.6429L156.501 38.6925C156.195 38.4961 155.629 38.2337 154.902 38.2337C154.061 38.2337 153.592 38.7259 153.592 39.3166C153.592 39.9722 154.061 40.2676 155.079 40.6608C156.437 41.186 157.133 41.8746 157.133 43.0553C157.133 44.4499 156.066 45.4502 154.206 45.4502C153.35 45.4502 152.558 45.22 152.008 44.892L152.364 43.7936Z" fill="white"/>
<path d="M163.514 45.2729H162.107V34.2188H163.514V45.2729Z" fill="white"/>
<path d="M165.929 39.4775C165.929 38.6582 165.913 37.9847 165.865 37.3295H167.125L167.205 38.6418H167.238C167.627 37.8873 168.532 37.149 169.824 37.149C170.908 37.149 172.589 37.8046 172.589 40.5283V45.2676H171.167V40.6913C171.167 39.4123 170.697 38.3465 169.356 38.3465C168.418 38.3465 167.691 39.0191 167.448 39.8218C167.384 40.0031 167.352 40.2492 167.352 40.4945V45.2676H165.929V39.4775Z" fill="white"/>
<path d="M180.068 40.563C180.068 40.3817 180.052 40.136 180.003 39.9563C179.793 39.0376 179.018 38.2822 177.95 38.2822C176.48 38.2822 175.607 39.5949 175.607 41.3498C175.607 42.9575 176.383 44.2854 177.918 44.2854C178.872 44.2854 179.745 43.6457 180.003 42.5635C180.052 42.3667 180.068 42.1699 180.068 41.9405V40.563ZM181.49 33.6252V43.2203C181.49 43.9248 181.507 44.729 181.555 45.2697H180.278L180.214 43.8922H180.182C179.745 44.7779 178.791 45.4502 177.514 45.4502C175.623 45.4502 174.168 43.8269 174.168 41.4161C174.152 38.7752 175.769 37.1511 177.676 37.1511C178.872 37.1511 179.68 37.7248 180.036 38.3649H180.068V33.6252H181.49Z" fill="white"/>
<path d="M184.558 41.3168C184.558 43.0553 185.543 44.3676 186.934 44.3676C188.291 44.3676 189.31 43.0716 189.31 41.2842C189.31 39.94 188.647 38.2341 186.966 38.2341C185.284 38.2341 184.558 39.8077 184.558 41.3168ZM190.765 41.2353C190.765 44.1712 188.76 45.4502 186.869 45.4502C184.751 45.4502 183.119 43.8762 183.119 41.3665C183.119 38.7092 184.833 37.1515 186.998 37.1515C189.245 37.1515 190.765 38.8078 190.765 41.2353Z" fill="white"/>
<path d="M192.407 39.4775C192.407 38.6582 192.391 37.9847 192.343 37.3295H193.603L193.684 38.6418H193.717C194.104 37.8873 195.01 37.149 196.303 37.149C197.386 37.149 199.067 37.8046 199.067 40.5283V45.2676H197.644V40.6913C197.644 39.4123 197.175 38.3465 195.834 38.3465C194.897 38.3465 194.168 39.0191 193.927 39.8218C193.862 40.0031 193.83 40.2492 193.83 40.4945V45.2676H192.407V39.4775Z" fill="white"/>
<path d="M206.17 40.5304C206.186 39.612 205.798 38.1844 204.198 38.1844C202.759 38.1844 202.129 39.5286 202.016 40.5304H206.17ZM202 41.5629C202.032 43.5153 203.261 44.318 204.682 44.318C205.701 44.318 206.315 44.1386 206.849 43.9085L207.092 44.9417C206.59 45.1711 205.733 45.4502 204.489 45.4502C202.081 45.4502 200.642 43.827 200.642 41.4324C200.642 39.0376 202.032 37.1511 204.311 37.1511C206.865 37.1511 207.544 39.4308 207.544 40.891C207.544 41.186 207.511 41.4161 207.495 41.5629H202Z" fill="white"/>
<path d="M208.956 43.7936C209.376 44.0726 210.12 44.3676 210.83 44.3676C211.866 44.3676 212.35 43.8433 212.35 43.1869C212.35 42.4971 211.946 42.1206 210.896 41.7278C209.49 41.2186 208.826 40.4306 208.826 39.4797C208.826 38.2007 209.845 37.1511 211.526 37.1511C212.317 37.1511 213.013 37.3805 213.449 37.6429L213.094 38.6925C212.787 38.4961 212.221 38.2337 211.494 38.2337C210.653 38.2337 210.184 38.7259 210.184 39.3166C210.184 39.9722 210.653 40.2676 211.671 40.6608C213.029 41.186 213.724 41.8746 213.724 43.0553C213.724 44.4499 212.657 45.4502 210.798 45.4502C209.941 45.4502 209.15 45.22 208.601 44.892L208.956 43.7936Z" fill="white"/>
<path d="M215.385 37.3353H216.807V45.2734H215.385V37.3353ZM216.97 35.1046C216.986 35.596 216.631 35.99 216.064 35.99C215.563 35.99 215.208 35.596 215.208 35.1046C215.208 34.5961 215.579 34.2021 216.097 34.2021C216.631 34.2021 216.97 34.5961 216.97 35.1046Z" fill="white"/>
<path d="M223.129 41.219C221.577 41.1864 219.815 41.4654 219.815 43.0064C219.815 43.9415 220.429 44.3839 221.157 44.3839C222.175 44.3839 222.822 43.7276 223.048 43.0553C223.096 42.9082 223.129 42.7444 223.129 42.5965V41.219ZM224.502 43.367C224.502 44.0567 224.535 44.7294 224.633 45.2701H223.339L223.225 44.2691H223.177C222.74 44.8924 221.9 45.4502 220.785 45.4502C219.201 45.4502 218.393 44.318 218.393 43.1706C218.393 41.2516 220.073 40.2016 223.096 40.2191V40.0541C223.096 39.3985 222.918 38.2174 221.318 38.2174C220.59 38.2174 219.831 38.4472 219.282 38.8078L218.958 37.8568C219.605 37.4295 220.542 37.1515 221.528 37.1515C223.92 37.1515 224.502 38.8078 224.502 40.3984V43.367Z" fill="white"/>
</svg>
