<svg width="301" height="46" viewBox="0 0 301 46" fill="none" xmlns="http://www.w3.org/2000/svg">
<path d="M37.0274 12.0525C37.2209 12.0525 37.5637 12.2136 38.0308 12.7317C40.463 15.4107 43.1918 17.5281 45.4874 18.8086C45.8187 18.9898 46 19.1292 46 19.305C46 19.4389 45.9813 19.5693 45.6955 19.5693C45.1779 19.5693 42.284 18.9898 41.5181 18.6292C40.7488 18.2582 39.0954 16.8977 37.123 13.4471C36.8996 13.0578 36.6639 12.7228 36.6639 12.4092C36.6639 12.0979 36.9405 12.0525 37.0274 12.0525Z" fill="white"/>
<path d="M43.5775 2.18949C43.5775 2.18949 44.0576 3.15138 39.3821 3.82059C39.8909 2.35602 40.2287 1.39064 40.2287 1.39064C40.5255 0.510263 39.8553 0.000205994 39.3733 0.000205994C38.8905 0.000205994 38.5386 0.377119 38.3362 0.852631L36.9472 4.07872C35.1243 4.20216 33.7747 4.13384 33.1622 4.07523C32.3164 3.99177 32.0957 4.46457 32.0957 4.95094C32.0957 5.79949 33.5712 6.66045 34.5138 6.56574C35.1056 6.50984 35.4495 6.48539 35.9349 6.43298L30.7648 18.4224C30.5666 18.87 30.4079 19.5928 31.2942 19.5928C32.1833 19.5928 34.179 18.7702 34.5138 17.8157C34.653 17.4151 35.6832 14.4518 36.8313 11.1531C37.4005 11.039 39.4869 10.7165 40.0676 10.7165C40.6185 10.7165 40.9023 10.9645 40.9023 11.2599C40.9023 11.952 39.2689 13.9356 36.1044 16.3756C35.7597 16.6454 36.0463 16.8554 36.2222 16.8554C36.7115 16.8554 38.8928 15.3411 39.9724 14.5116C41.1613 13.6021 43.2275 11.2382 43.2275 9.57174C43.2275 8.92 42.9417 8.32027 41.6468 8.32027C40.3928 8.32027 38.1702 8.60209 37.6989 8.66381C38.0042 7.77528 38.3094 6.9081 38.5933 6.09566C41.0389 5.75174 42.4957 5.52621 43.356 5.34688C44.5381 5.09301 45.4902 4.40129 45.4902 3.68939C45.4902 2.17668 43.5775 2.18949 43.5775 2.18949Z" fill="white"/>
<path d="M1.98961 9.68841H0.500732V8.19559H1.98961V6.2075H4.00335V8.19559H5.9073V9.68841H4.00335V13.3436C4.00335 14.0155 4.18162 14.6388 4.94786 14.6388C5.31014 14.6388 5.65367 14.5647 5.86177 14.4304L5.92604 16.0408C5.50103 16.1712 5.04044 16.2256 4.43793 16.2256C2.85876 16.2256 1.98961 15.2331 1.98961 13.679V9.68841Z" fill="white"/>
<path d="M7.44482 8.19774H9.23018V9.98244H9.26231C9.35145 9.24651 10.177 8.01181 11.3778 8.01181C11.5725 8.01181 11.7829 8.01181 11.9929 8.07702V10.1327C11.8131 10.0294 11.4536 9.96613 11.092 9.96613C9.45665 9.96613 9.45665 12.0385 9.45665 13.1629V16.043H7.44482L7.44482 8.19774Z" fill="white"/>
<path d="M20.3388 16.0408H18.4283V14.9792H18.3981C17.7856 15.74 16.9146 16.2256 15.863 16.2256C14.0313 16.2256 13.2352 14.916 13.2352 13.1445V8.19559H15.2417V12.3837C15.2417 13.3436 15.2616 14.6388 16.5538 14.6388C18.0091 14.6388 18.3266 13.0393 18.3266 12.0359V8.19559H20.3388V16.0408Z" fill="white"/>
<path d="M26.9727 11.3493C26.91 10.3603 26.4601 9.50559 25.3366 9.50559C24.2081 9.50559 23.6388 10.2986 23.5485 11.3493H26.9727ZM28.3224 15.5987C27.5867 16.0098 26.7467 16.2256 25.664 16.2256C23.1147 16.2256 21.6259 14.7332 21.6259 12.1609C21.6259 9.88753 22.8129 8.00967 25.2161 8.00967C28.0848 8.00967 28.8954 10.0055 28.8954 12.7532H23.5485C23.6388 14.0155 24.5084 14.7332 25.7543 14.7332C26.7352 14.7332 27.5726 14.3671 28.3224 13.9394V15.5987Z" fill="white"/>
<path d="M44.6418 8.31431H46.4299V10.0944H46.4601C46.5485 9.36231 47.3752 8.12606 48.5783 8.12606C48.7718 8.12606 48.9819 8.12606 49.1915 8.18661V10.2465C49.0148 10.1398 48.6533 10.08 48.2917 10.08C46.6537 10.08 46.6537 12.1504 46.6537 13.2752V16.1553H44.6418V8.31431Z" fill="white"/>
<path d="M50.3604 8.31449H52.3749V16.1555H50.3604V8.31449ZM50.3604 5.0459H52.3749V6.99595H50.3604V5.0459Z" fill="white"/>
<path d="M58.9812 11.4665C58.9216 10.472 58.4713 9.62278 57.3451 9.62278C56.215 9.62278 55.6473 10.4142 55.5601 11.4665H58.9812ZM60.3309 15.7159C59.5964 16.1289 58.7582 16.3428 57.6752 16.3428C55.1236 16.3428 53.6355 14.848 53.6355 12.2727C53.6355 10.0012 54.8191 8.12686 57.2253 8.12686C60.0925 8.12686 60.9005 10.1223 60.9005 12.8685H55.5601C55.6473 14.1346 56.5169 14.848 57.7655 14.848C58.7395 14.848 59.5837 14.4843 60.3309 14.0566V15.7159Z" fill="white"/>
<path d="M62.1017 8.38385H64.0118V9.44815H64.0385C64.6724 8.54764 65.5286 8.19559 66.5771 8.19559C68.4126 8.19559 69.2049 9.50714 69.2049 11.2752V16.2256H67.1949V12.0359C67.1949 11.076 67.1789 9.78079 65.8882 9.78079C64.4348 9.78079 64.1154 11.3784 64.1154 12.3891V16.2256H62.1017V8.38385Z" fill="white"/>
<path d="M74.2205 14.756C75.561 14.756 75.9986 13.3269 75.9986 12.2109C75.9986 11.1133 75.4845 9.71128 74.1918 9.71128C72.8896 9.71128 72.53 11.1606 72.53 12.2109C72.53 13.2962 72.9011 14.756 74.2205 14.756ZM76.0717 15.2758H76.0415C75.4397 16.0365 74.6149 16.3428 73.6708 16.3428C71.2948 16.3428 70.4233 14.3593 70.4233 12.2109C70.4233 10.0466 71.2948 8.12686 73.6708 8.12686C74.6758 8.12686 75.3808 8.4793 75.9825 9.22532H76.0131V4.72902H78.0231V16.1561H76.0717V15.2758Z" fill="white"/>
<path d="M86.6515 6.33149H90.9035V14.8464H90.9884C91.4104 14.1031 91.8614 13.4176 92.2834 12.7321L96.5916 6.33149H101.858L95.5779 14.532L102.196 25.5898H97.1831L92.537 17.2752L90.9035 19.3034V25.5898H86.6515V6.33149Z" fill="white"/>
<path d="M106.673 18.594C106.673 20.9939 107.658 22.7937 109.489 22.7937C111.15 22.7937 112.22 21.108 112.22 18.594C112.22 16.5081 111.432 14.3938 109.489 14.3938C107.433 14.3938 106.673 16.5368 106.673 18.594ZM116.641 18.4511C116.641 23.565 113.065 25.9082 109.376 25.9082C105.349 25.9082 102.252 23.2226 102.252 18.7081C102.252 14.1943 105.181 11.308 109.602 11.308C113.825 11.308 116.641 14.2514 116.641 18.4511Z" fill="white"/>
<path d="M119.006 16.2239C119.006 14.1667 118.949 12.8241 118.893 11.624H122.582L122.722 14.1954H122.835C123.539 12.167 125.228 11.3096 126.552 11.3096C126.946 11.3096 127.144 11.3096 127.453 11.3666V15.481C127.144 15.3956 126.777 15.3381 126.298 15.3381C124.722 15.3381 123.652 16.1952 123.37 17.5385C123.314 17.8238 123.286 18.167 123.286 18.5097V25.5957H119.006V16.2239Z" fill="white"/>
<path d="M137.534 17.0223C137.534 15.965 137.084 14.1939 135.113 14.1939C133.31 14.1939 132.578 15.8505 132.466 17.0223H137.534ZM132.494 19.9936C132.635 21.7935 134.381 22.6501 136.38 22.6501C137.844 22.6501 139.027 22.4506 140.181 22.0795L140.745 25.0221C139.337 25.5938 137.619 25.9082 135.761 25.9082C131.086 25.9082 128.411 23.1364 128.411 18.7651C128.411 15.2221 130.579 11.308 135.366 11.308C139.816 11.308 141.505 14.8227 141.505 18.2796C141.505 19.0221 141.42 19.6796 141.364 19.9936H132.494Z" fill="white"/>
<path d="M151.1 18.9937C148.847 18.9654 147.101 19.5084 147.101 21.1942C147.101 22.3081 147.833 22.8515 148.791 22.8515C149.861 22.8515 150.734 22.1374 151.015 21.2512C151.072 21.0222 151.1 20.7649 151.1 20.5079V18.9937ZM155.267 22.194C155.267 23.5362 155.324 24.8226 155.465 25.5942H151.607L151.353 24.1938H151.269C150.368 25.3077 148.96 25.9082 147.327 25.9082C144.539 25.9082 142.877 23.8514 142.877 21.6227C142.877 17.9939 146.087 16.2511 150.959 16.2794V16.0799C150.959 15.3366 150.565 14.2797 148.453 14.2797C147.045 14.2797 145.553 14.7653 144.652 15.3366L143.863 12.5369C144.82 11.9939 146.707 11.3084 149.213 11.3084C153.803 11.3084 155.267 14.0511 155.267 17.3367V22.194Z" fill="white"/>
<path d="M168.227 25.5875H163.918V6.3291H168.227V25.5875Z" fill="white"/>
<path d="M171.602 16.0756C171.602 14.3324 171.546 12.847 171.49 11.6185H175.207L175.403 13.5324H175.489C176.051 12.6471 177.46 11.3041 179.74 11.3041C182.556 11.3041 184.668 13.1897 184.668 17.3041V25.5898H180.387V17.8471C180.387 16.0472 179.768 14.8188 178.22 14.8188C177.037 14.8188 176.333 15.6467 176.051 16.447C175.939 16.7327 175.882 17.1325 175.882 17.5327V25.5898H171.602V16.0756Z" fill="white"/>
<path d="M190.463 11.624L192.321 18.1095C192.661 19.2809 192.913 20.3953 193.11 21.5097H193.195C193.42 20.367 193.646 19.3097 193.955 18.1095L195.73 11.624H200.235L195.11 25.5957H190.83L185.818 11.624H190.463Z" fill="white"/>
<path d="M209.833 17.0223C209.833 15.965 209.382 14.1939 207.411 14.1939C205.608 14.1939 204.877 15.8505 204.764 17.0223H209.833ZM204.792 19.9936C204.932 21.7935 206.679 22.6501 208.678 22.6501C210.142 22.6501 211.325 22.4506 212.479 22.0795L213.043 25.0221C211.635 25.5938 209.917 25.9082 208.059 25.9082C203.384 25.9082 200.709 23.1364 200.709 18.7651C200.709 15.2221 202.877 11.308 207.664 11.308C212.113 11.308 213.804 14.8227 213.804 18.2796C213.804 19.0221 213.718 19.6796 213.663 19.9936H204.792Z" fill="white"/>
<path d="M216.061 21.7935C216.849 22.279 218.482 22.8515 219.749 22.8515C221.045 22.8515 221.58 22.3939 221.58 21.6793C221.58 20.9655 221.157 20.6224 219.552 20.0794C216.708 19.1083 215.61 17.5366 215.637 15.908C215.637 13.2794 217.835 11.308 221.241 11.308C222.846 11.308 224.283 11.6791 225.127 12.108L224.367 15.108C223.747 14.7649 222.565 14.308 221.382 14.308C220.341 14.308 219.749 14.7362 219.749 15.4511C219.749 16.1083 220.284 16.4506 221.973 17.0507C224.592 17.9652 225.691 19.3078 225.718 21.3649C225.718 23.9651 223.691 25.9082 219.749 25.9082C217.948 25.9082 216.342 25.4797 215.3 24.9079L216.061 21.7935Z" fill="white"/>
<path d="M232.81 7.82135V11.6216H235.879V14.822H232.81V19.8787C232.81 21.565 233.204 22.337 234.499 22.337C235.091 22.337 235.345 22.3075 235.766 22.2225L235.795 25.5084C235.232 25.7366 234.218 25.9082 233.007 25.9082C231.628 25.9082 230.473 25.3939 229.797 24.6789C229.009 23.8509 228.614 22.5078 228.614 20.5359V14.822H226.785V11.6216H228.614V8.99285L232.81 7.82135Z" fill="white"/>
<path d="M238.078 16.0756C238.078 14.3324 238.023 12.847 237.966 11.6185H241.57L241.767 13.5041H241.852C242.443 12.6183 243.653 11.3041 246.019 11.3041C247.793 11.3041 249.202 12.2182 249.793 13.6753H249.849C250.356 12.9324 250.975 12.3897 251.623 11.9895C252.383 11.5327 253.228 11.3041 254.241 11.3041C256.889 11.3041 258.888 13.1897 258.888 17.3615V25.5898H254.72V17.9899C254.72 15.9611 254.073 14.79 252.693 14.79C251.707 14.79 251.003 15.4755 250.722 16.3042C250.609 16.6186 250.553 17.0754 250.553 17.4182V25.5898H246.385V17.7609C246.385 15.9894 245.765 14.79 244.414 14.79C243.316 14.79 242.668 15.6467 242.414 16.3613C242.274 16.7044 242.246 17.1038 242.246 17.4469V25.5898H238.078V16.0756Z" fill="white"/>
<path d="M270.347 17.0223C270.347 15.965 269.896 14.1939 267.924 14.1939C266.123 14.1939 265.391 15.8505 265.279 17.0223H270.347ZM265.306 19.9936C265.446 21.7935 267.192 22.6501 269.192 22.6501C270.656 22.6501 271.839 22.4506 272.993 22.0795L273.557 25.0221C272.148 25.5938 270.431 25.9082 268.572 25.9082C263.899 25.9082 261.222 23.1364 261.222 18.7651C261.222 15.2221 263.391 11.308 268.178 11.308C272.627 11.308 274.317 14.8227 274.317 18.2796C274.317 19.0221 274.232 19.6796 274.176 19.9936H265.306Z" fill="white"/>
<path d="M276.594 16.0756C276.594 14.3324 276.538 12.847 276.482 11.6185H280.199L280.395 13.5324H280.48C281.043 12.6471 282.452 11.3041 284.732 11.3041C287.548 11.3041 289.66 13.1897 289.66 17.3041V25.5898H285.379V17.8471C285.379 16.0472 284.76 14.8188 283.212 14.8188C282.028 14.8188 281.325 15.6467 281.043 16.447C280.93 16.7327 280.874 17.1325 280.874 17.5327V25.5898H276.594V16.0756Z" fill="white"/>
<path d="M297.43 7.82135V11.6216H300.499V14.822H297.43V19.8787C297.43 21.565 297.823 22.337 299.119 22.337C299.71 22.337 299.964 22.3075 300.387 22.2225L300.414 25.5084C299.851 25.7366 298.837 25.9082 297.627 25.9082C296.247 25.9082 295.092 25.3939 294.417 24.6789C293.628 23.8509 293.234 22.5078 293.234 20.5359V14.822H291.404V11.6216H293.234V8.99285L297.43 7.82135Z" fill="white"/>
<path d="M89.1689 35.0174C88.2798 35.0174 87.8112 35.7727 87.8112 36.6262C87.8112 37.4122 88.167 38.0189 88.6356 38.6093C89.7346 37.97 90.4462 37.3796 90.4462 36.445C90.4462 35.7727 90.0743 35.0174 89.1853 35.0174H89.1689ZM88.8946 44.3667C89.8154 44.3667 90.6076 43.9401 91.1252 43.366C90.4783 42.6449 89.266 41.2995 88.0533 39.8894C87.4715 40.2667 86.6471 40.9716 86.6471 42.1364C86.6471 43.3986 87.5687 44.3667 88.8777 44.3667H88.8946ZM92.8386 45.2687C92.5315 44.957 92.2403 44.6458 91.8199 44.1866C90.8823 45.0723 89.8314 45.4492 88.6356 45.4492C86.5178 45.4492 85.2894 44.0053 85.2894 42.3499C85.2894 40.8411 86.1789 39.8067 87.4233 39.1181V39.0692C86.8575 38.3477 86.5178 37.5446 86.5178 36.7563C86.5178 35.4125 87.4715 34.0338 89.2821 34.0338C90.6401 34.0338 91.6906 34.9522 91.6906 36.3798C91.6906 37.5446 91.0277 38.4626 89.2982 39.332V39.3809C90.2201 40.4631 91.2545 41.6768 91.9496 42.4644C92.4507 41.6931 92.7897 40.6273 93.0001 39.2334H94.2935C94.0024 40.9716 93.5334 42.3499 92.725 43.3171C93.3069 43.9401 93.8731 44.5635 94.5196 45.2687H92.8386Z" fill="white"/>
<path d="M98.7105 43.531C99.3409 43.9242 100.263 44.2518 101.232 44.2518C102.671 44.2518 103.511 43.4813 103.511 42.3662C103.511 41.3329 102.929 40.7422 101.458 40.1685C99.6803 39.528 98.5812 38.593 98.5812 37.0357C98.5812 35.3128 99.9875 34.0338 102.105 34.0338C103.22 34.0338 104.029 34.2966 104.514 34.5757L104.125 35.7405C103.77 35.5429 103.043 35.2149 102.057 35.2149C100.569 35.2149 100.004 36.117 100.004 36.8716C100.004 37.9052 100.666 38.4137 102.17 39.0036C104.013 39.7252 104.95 40.6277 104.95 42.2513C104.95 43.9568 103.705 45.4492 101.135 45.4492C100.085 45.4492 98.9366 45.1216 98.3547 44.7284L98.7105 43.531Z" fill="white"/>
<path d="M111.725 40.5295C111.741 39.6111 111.353 38.1835 109.752 38.1835C108.314 38.1835 107.683 39.5276 107.57 40.5295H111.725ZM107.554 41.5619C107.586 43.5143 108.815 44.317 110.238 44.317C111.256 44.317 111.87 44.1377 112.403 43.9075L112.646 44.9407C112.145 45.1701 111.288 45.4492 110.043 45.4492C107.635 45.4492 106.196 43.826 106.196 41.4315C106.196 39.0366 107.586 37.1502 109.866 37.1502C112.42 37.1502 113.099 39.4298 113.099 40.89C113.099 41.185 113.066 41.4152 113.05 41.5619H107.554Z" fill="white"/>
<path d="M116.105 40.9714H116.137C116.331 40.6923 116.606 40.3484 116.832 40.0693L119.128 37.3306H120.841L117.818 40.5945L121.262 45.2686H119.532L116.832 41.4643L116.105 42.2837V45.2686H114.699V33.6241H116.105V40.9714Z" fill="white"/>
<path d="M128.725 43.1033C128.725 43.9238 128.741 44.6458 128.789 45.2687H127.529L127.448 43.9727H127.416C127.044 44.6124 126.219 45.4492 124.829 45.4492C123.601 45.4492 122.13 44.761 122.13 41.9722V37.3307H123.552V41.7269C123.552 43.2356 124.005 44.2518 125.298 44.2518C126.252 44.2518 126.915 43.5799 127.173 42.9402C127.254 42.7264 127.302 42.4644 127.302 42.2016V37.3307H128.725V43.1033Z" fill="white"/>
<path d="M130.929 39.8065C130.929 38.8719 130.913 38.0684 130.864 37.3306H132.109L132.158 38.8882H132.222C132.578 37.8235 133.434 37.1501 134.388 37.1501C134.55 37.1501 134.663 37.1664 134.792 37.199V38.5602C134.646 38.5276 134.501 38.5117 134.307 38.5117C133.305 38.5117 132.594 39.2822 132.4 40.3643C132.367 40.5619 132.335 40.7909 132.335 41.0374V45.2686H130.929V39.8065Z" fill="white"/>
<path d="M136.116 37.3353H137.539V45.2733H136.116V37.3353ZM137.701 35.1046C137.717 35.596 137.361 35.99 136.795 35.99C136.294 35.99 135.939 35.596 135.939 35.1046C135.939 34.5961 136.311 34.2021 136.828 34.2021C137.361 34.2021 137.701 34.5961 137.701 35.1046Z" fill="white"/>
<path d="M141.449 35.4288V37.3307H143.485V38.43H141.449V42.7105C141.449 43.694 141.724 44.2518 142.516 44.2518C142.903 44.2518 143.13 44.2192 143.34 44.154L143.405 45.2365C143.13 45.3514 142.693 45.4492 142.144 45.4492C141.481 45.4492 140.947 45.2194 140.608 44.8262C140.204 44.3997 140.058 43.694 140.058 42.7594V38.43H138.846V37.3307H140.058V35.8709L141.449 35.4288Z" fill="white"/>
<path d="M149.051 41.218C147.499 41.1854 145.737 41.4645 145.737 43.0054C145.737 43.9405 146.351 44.383 147.079 44.383C148.097 44.383 148.744 43.7266 148.97 43.0543C149.018 42.9072 149.051 42.7434 149.051 42.5956V41.218ZM150.425 43.366C150.425 44.0558 150.457 44.7284 150.554 45.2691H149.261L149.148 44.2681H149.099C148.662 44.8915 147.822 45.4492 146.707 45.4492C145.123 45.4492 144.315 44.317 144.315 43.1696C144.315 41.2506 145.995 40.2007 149.018 40.2182V40.0532C149.018 39.3976 148.841 38.2165 147.24 38.2165C146.513 38.2165 145.753 38.4463 145.203 38.8069L144.88 37.8559C145.527 37.4285 146.464 37.1506 147.45 37.1506C149.843 37.1506 150.425 38.8069 150.425 40.3975V43.366Z" fill="white"/>
<path d="M152.36 43.7926C152.781 44.0717 153.524 44.3667 154.236 44.3667C155.27 44.3667 155.756 43.8423 155.756 43.1859C155.756 42.4962 155.351 42.1197 154.3 41.7269C152.894 41.2176 152.231 40.4297 152.231 39.4787C152.231 38.1998 153.249 37.1502 154.931 37.1502C155.723 37.1502 156.418 37.3796 156.854 37.642L156.498 38.6916C156.191 38.4952 155.626 38.2328 154.899 38.2328C154.058 38.2328 153.589 38.725 153.589 39.3157C153.589 39.9713 154.058 40.2667 155.076 40.6599C156.434 41.185 157.129 41.8736 157.129 43.0543C157.129 44.449 156.063 45.4492 154.203 45.4492C153.347 45.4492 152.554 45.219 152.005 44.8911L152.36 43.7926Z" fill="white"/>
<path d="M163.513 45.2718H162.106V34.2178H163.513V45.2718Z" fill="white"/>
<path d="M165.926 39.4786C165.926 38.6592 165.91 37.9857 165.862 37.3306H167.122L167.203 38.6429H167.236C167.624 37.8883 168.529 37.1501 169.822 37.1501C170.905 37.1501 172.586 37.8056 172.586 40.5293V45.2686H171.164V40.6923C171.164 39.4134 170.695 38.3475 169.353 38.3475C168.416 38.3475 167.688 39.0202 167.446 39.8228C167.381 40.0041 167.349 40.2502 167.349 40.4955V45.2686H165.926V39.4786Z" fill="white"/>
<path d="M180.062 40.5621C180.062 40.3808 180.046 40.1351 179.997 39.9554C179.787 39.0366 179.011 38.2813 177.943 38.2813C176.473 38.2813 175.6 39.594 175.6 41.3488C175.6 42.9565 176.376 44.2844 177.911 44.2844C178.866 44.2844 179.738 43.6447 179.997 42.5626C180.046 42.3658 180.062 42.169 180.062 41.9396V40.5621ZM181.484 33.6243V43.2193C181.484 43.9238 181.501 44.728 181.549 45.2687H180.272L180.207 43.8912H180.175C179.738 44.7769 178.784 45.4492 177.508 45.4492C175.617 45.4492 174.162 43.826 174.162 41.4152C174.146 38.7742 175.762 37.1502 177.67 37.1502C178.866 37.1502 179.673 37.7239 180.03 38.364H180.062V33.6243H181.484Z" fill="white"/>
<path d="M184.56 41.3158C184.56 43.0543 185.546 44.3667 186.936 44.3667C188.293 44.3667 189.313 43.0707 189.313 41.2832C189.313 39.9391 188.649 38.2332 186.969 38.2332C185.287 38.2332 184.56 39.8067 184.56 41.3158ZM190.768 41.2343C190.768 44.1703 188.763 45.4492 186.871 45.4492C184.753 45.4492 183.121 43.8753 183.121 41.3655C183.121 38.7083 184.836 37.1506 187.001 37.1506C189.247 37.1506 190.768 38.8069 190.768 41.2343Z" fill="white"/>
<path d="M192.404 39.4786C192.404 38.6592 192.388 37.9857 192.34 37.3306H193.601L193.682 38.6429H193.715C194.102 37.8883 195.007 37.1501 196.301 37.1501C197.384 37.1501 199.065 37.8056 199.065 40.5293V45.2686H197.642V40.6923C197.642 39.4134 197.173 38.3475 195.832 38.3475C194.895 38.3475 194.166 39.0202 193.925 39.8228C193.859 40.0041 193.827 40.2502 193.827 40.4955V45.2686H192.404V39.4786Z" fill="white"/>
<path d="M206.171 40.5295C206.187 39.6111 205.799 38.1835 204.2 38.1835C202.761 38.1835 202.131 39.5276 202.017 40.5295H206.171ZM202.001 41.5619C202.033 43.5143 203.262 44.317 204.684 44.317C205.702 44.317 206.317 44.1377 206.85 43.9075L207.093 44.9407C206.592 45.1701 205.735 45.4492 204.49 45.4492C202.082 45.4492 200.644 43.826 200.644 41.4315C200.644 39.0366 202.033 37.1502 204.312 37.1502C206.866 37.1502 207.545 39.4298 207.545 40.89C207.545 41.185 207.513 41.4152 207.497 41.5619H202.001Z" fill="white"/>
<path d="M208.955 43.7926C209.374 44.0717 210.118 44.3667 210.829 44.3667C211.864 44.3667 212.348 43.8423 212.348 43.1859C212.348 42.4962 211.945 42.1197 210.894 41.7269C209.489 41.2176 208.825 40.4297 208.825 39.4787C208.825 38.1998 209.844 37.1502 211.525 37.1502C212.316 37.1502 213.011 37.3796 213.448 37.642L213.093 38.6916C212.786 38.4952 212.22 38.2328 211.493 38.2328C210.652 38.2328 210.183 38.725 210.183 39.3157C210.183 39.9713 210.652 40.2667 211.67 40.6599C213.027 41.185 213.723 41.8736 213.723 43.0543C213.723 44.449 212.656 45.4492 210.797 45.4492C209.94 45.4492 209.148 45.219 208.599 44.8911L208.955 43.7926Z" fill="white"/>
<path d="M215.383 37.3353H216.805V45.2733H215.383V37.3353ZM216.967 35.1046C216.983 35.596 216.628 35.99 216.062 35.99C215.56 35.99 215.205 35.596 215.205 35.1046C215.205 34.5961 215.577 34.2021 216.094 34.2021C216.628 34.2021 216.967 34.5961 216.967 35.1046Z" fill="white"/>
<path d="M223.13 41.218C221.578 41.1854 219.816 41.4645 219.816 43.0054C219.816 43.9405 220.43 44.383 221.158 44.383C222.176 44.383 222.823 43.7266 223.049 43.0543C223.097 42.9072 223.13 42.7434 223.13 42.5956V41.218ZM224.503 43.366C224.503 44.0558 224.536 44.7284 224.634 45.2691H223.34L223.227 44.2681H223.178C222.741 44.8915 221.901 45.4492 220.786 45.4492C219.202 45.4492 218.394 44.317 218.394 43.1696C218.394 41.2506 220.074 40.2007 223.097 40.2182V40.0532C223.097 39.3976 222.919 38.2165 221.319 38.2165C220.592 38.2165 219.832 38.4463 219.283 38.8069L218.959 37.8559C219.606 37.4285 220.543 37.1506 221.529 37.1506C223.921 37.1506 224.503 38.8069 224.503 40.3975V43.366Z" fill="white"/>
</svg>
