<svg width="28" height="28" viewBox="0 0 28 28" fill="none" xmlns="http://www.w3.org/2000/svg">
<path d="M20.2986 0H8.07639C3.875 0 0.4375 3.4375 0.4375 7.63889V19.8611C0.4375 24.0625 3.875 27.5 8.07639 27.5H20.2986C24.5 27.5 27.9375 24.0625 27.9375 19.8611V7.63889C27.9375 3.4375 24.5 0 20.2986 0ZM23.7743 6.72222C23.6215 7.44792 20.7951 21.6944 20.7188 22V22.0764C20.6424 22.3056 20.566 22.4965 20.3368 22.7257C20.184 22.8785 19.8785 23.1076 19.4583 23.1076C18.809 23.1076 18.5799 22.8021 18.5417 22.7639L18.5035 22.6875L14.8368 19.2882L11.8194 21.8472L11.7812 21.8854C11.7812 21.8854 11.5903 22 11.3229 22C11.2847 22 11.2465 22 11.1319 21.9618H11.0556L11.0174 21.9236H10.941C10.8646 21.8854 10.8264 21.8472 10.75 21.7708C10.6354 21.6181 10.5208 21.3889 10.4062 21.0833L10.3681 20.9688C10.1771 20.3958 9.41319 18.066 9.03125 16.9201L8.91667 16.5764C8.91667 16.5764 5.36458 15.1632 4.63889 14.8576C4.44792 14.7813 4.25694 14.7049 4.02778 14.5139C3.875 14.3611 3.72222 14.0556 3.72222 13.7882C3.72222 13.4444 3.95139 13.1007 4.14236 12.9861C4.33333 12.8333 4.52431 12.7569 4.60069 12.7188L4.67708 12.6806L14.8368 8.40278C16.7083 7.60069 20.2604 6.11111 20.2604 6.11111C21.3299 5.65278 21.9792 5.38542 22.2083 5.30903C22.4375 5.19444 22.6285 5.15625 22.8194 5.15625H22.8576C23.0486 5.15625 23.2014 5.19444 23.3924 5.30903C23.5833 5.42361 23.7361 5.65278 23.8125 5.84375C23.8507 6.11111 23.8507 6.37847 23.7743 6.72222Z" fill="#42A5DC"/>
<path d="M22.3605 6.76012C22.0932 6.8747 21.482 7.10387 20.3744 7.6004C19.0376 8.17331 17.2807 8.89901 15.4091 9.70109C11.8188 11.1907 7.9994 12.833 5.74593 13.7497C6.70079 14.1316 8.30496 14.781 9.14524 15.1247C9.25982 15.1629 9.33621 15.2393 9.45079 15.2775C12.0098 13.8261 17.3188 10.7705 18.5793 10.0066C18.6938 9.93026 18.8466 9.81567 18.9994 9.81567C19.1522 9.81567 19.2286 9.89206 19.2286 10.0448C19.2286 10.1212 19.1522 10.2358 18.8848 10.5032C18.5411 10.8469 12.7355 16.6907 12.7355 16.6907L11.8952 19.9754L13.4612 18.6386C14.3015 17.9511 15.5237 17.9511 16.3258 18.715L19.4195 21.5796C19.5723 20.7011 22.2459 7.37123 22.3605 6.76012Z" fill="#42A5DC"/>
</svg>
