<svg width="32" height="25" viewBox="0 0 32 25" fill="none" xmlns="http://www.w3.org/2000/svg">
<path d="M30.5969 3.41562C30.2375 2.07187 29.1781 1.0125 27.8344 0.653125C25.3969 0 15.625 0 15.625 0C15.625 0 5.85312 -1.65568e-07 3.41562 0.653125C2.07187 1.0125 1.0125 2.07187 0.653125 3.41562C0 5.85312 0 12.5 0 12.5C0 12.5 0 19.1469 0.653125 21.5844C1.0125 22.9281 2.07187 23.9875 3.41562 24.3469C5.85312 25 15.625 25 15.625 25C15.625 25 25.3969 25 27.8344 24.3469C29.1797 23.9875 30.2375 22.9281 30.5969 21.5844C31.25 19.1469 31.25 12.5 31.25 12.5C31.25 12.5 31.25 5.85312 30.5969 3.41562ZM12.5 16.5594V8.44062C12.5 7.83906 13.1516 7.46406 13.6719 7.76406L20.7031 11.8234C21.2234 12.1234 21.2234 12.8766 20.7031 13.1766L13.6719 17.2359C13.1516 17.5375 12.5 17.1609 12.5 16.5594Z" fill="#42A5DC"/>
</svg>
