<svg width="35" height="28" viewBox="0 0 35 28" fill="none" xmlns="http://www.w3.org/2000/svg">
<path d="M33.7191 3.75719C33.3238 2.27906 32.1584 1.11375 30.6803 0.718437C27.9991 0 17.25 0 17.25 0C17.25 0 6.50094 -1.82125e-07 3.81969 0.718437C2.34156 1.11375 1.17625 2.27906 0.780937 3.75719C0.0625 6.43844 0.0625 13.75 0.0625 13.75C0.0625 13.75 0.0625 21.0616 0.780937 23.7428C1.17625 25.2209 2.34156 26.3863 3.81969 26.7816C6.50094 27.5 17.25 27.5 17.25 27.5C17.25 27.5 27.9991 27.5 30.6803 26.7816C32.1602 26.3863 33.3238 25.2209 33.7191 23.7428C34.4375 21.0616 34.4375 13.75 34.4375 13.75C34.4375 13.75 34.4375 6.43844 33.7191 3.75719ZM13.8125 18.2153V9.28469C13.8125 8.62297 14.5292 8.21047 15.1016 8.54047L22.8359 13.0058C23.4083 13.3358 23.4083 14.1642 22.8359 14.4942L15.1016 18.9595C14.5292 19.2913 13.8125 18.877 13.8125 18.2153Z" fill="#42A5DC"/>
</svg>
