<svg width="394" height="59" viewBox="0 0 394 59" fill="none" xmlns="http://www.w3.org/2000/svg">
<g clip-path="url(#clip0_32_7339)">
<path d="M47.8886 15.6468C48.1424 15.6468 48.5918 15.8559 49.2042 16.5285C52.3931 20.0059 55.9708 22.7542 58.9807 24.4163C59.415 24.6516 59.6528 24.8325 59.6528 25.0607C59.6528 25.2345 59.6282 25.4038 59.2535 25.4038C58.5749 25.4038 54.7806 24.6516 53.7765 24.1836C52.7678 23.7019 50.6001 21.936 48.014 17.457C47.7211 16.9517 47.4121 16.5169 47.4121 16.1098C47.4121 15.7058 47.7747 15.6468 47.8886 15.6468Z" fill="#6C99D7"/>
<path d="M56.4801 2.8414C56.4801 2.8414 57.1095 4.08987 50.9794 4.95846C51.6465 3.05754 52.0894 1.80454 52.0894 1.80454C52.4786 0.661877 51.5998 -0.000143852 50.9679 -0.000143852C50.3349 -0.000143852 49.8735 0.489065 49.6081 1.10625L47.787 5.2935C45.397 5.45371 43.6275 5.36504 42.8245 5.28896C41.7155 5.18064 41.4261 5.79429 41.4261 6.42558C41.4261 7.52693 43.3606 8.64441 44.5965 8.52148C45.3724 8.44893 45.8233 8.41718 46.4598 8.34917L39.6812 23.9107C39.4214 24.4916 39.2132 25.4297 40.3753 25.4297C41.541 25.4297 44.1576 24.3621 44.5965 23.1232C44.7791 22.6033 46.1298 18.7571 47.635 14.4756C48.3813 14.3275 51.1168 13.9088 51.8782 13.9088C52.6005 13.9088 52.9726 14.2308 52.9726 14.6142C52.9726 15.5125 50.8309 18.087 46.682 21.254C46.2301 21.6042 46.6058 21.8767 46.8365 21.8767C47.478 21.8767 50.3379 19.9113 51.7533 18.8347C53.3122 17.6542 56.0211 14.586 56.0211 12.4231C56.0211 11.5771 55.6465 10.7987 53.9487 10.7987C52.3045 10.7987 49.3905 11.1645 48.7725 11.2446C49.1728 10.0914 49.573 8.96584 49.9452 7.91135C53.1517 7.46496 55.0616 7.17224 56.1897 6.93948C57.7395 6.60998 58.9879 5.71217 58.9879 4.78816C58.9879 2.82478 56.4801 2.8414 56.4801 2.8414Z" fill="#5C250B"/>
<path d="M1.95209 12.583H0V10.6453H1.95209V8.06475H4.59232V10.6453H7.08861V12.583H4.59232V17.3275C4.59232 18.1996 4.82605 19.0087 5.83068 19.0087C6.30566 19.0087 6.75607 18.9125 7.02892 18.7382L7.11318 20.8285C6.55595 20.9978 5.95206 21.0684 5.1621 21.0684C3.09164 21.0684 1.95209 19.7801 1.95209 17.7628V12.583Z" fill="#5C250B"/>
<path d="M9.10059 10.6449H11.4414V12.9615H11.4835C11.6004 12.0062 12.6828 10.4036 14.2572 10.4036C14.5125 10.4036 14.7883 10.4036 15.0637 10.4882V13.1565C14.8279 13.0224 14.3565 12.9403 13.8825 12.9403C11.7383 12.9403 11.7383 15.6302 11.7383 17.0898V20.8281H9.10059L9.10059 10.6449Z" fill="#5C250B"/>
<path d="M26.0137 20.8285H23.5089V19.4506H23.4693C22.6663 20.4381 21.5242 21.0684 20.1454 21.0684C17.744 21.0684 16.7002 19.3685 16.7002 17.069V10.6453H19.3309V16.0815C19.3309 17.3275 19.357 19.0087 21.0513 19.0087C22.9592 19.0087 23.3755 16.9325 23.3755 15.6301V10.6453H26.0137V20.8285Z" fill="#5C250B"/>
<path d="M34.7027 14.7389C34.6205 13.4551 34.0307 12.3457 32.5576 12.3457C31.0779 12.3457 30.3316 13.375 30.2132 14.7389H34.7027ZM36.4723 20.2547C35.5078 20.7882 34.4063 21.0684 32.9869 21.0684C29.6445 21.0684 27.6924 19.1312 27.6924 15.7924C27.6924 12.8415 29.2487 10.404 32.3996 10.404C36.1608 10.404 37.2236 12.9946 37.2236 16.5612H30.2132C30.3316 18.1996 31.4717 19.1312 33.1053 19.1312C34.3913 19.1312 35.4892 18.6561 36.4723 18.1009V20.2547Z" fill="#5C250B"/>
<path d="M57.8701 10.7989H60.2144V13.1094H60.2541C60.3699 12.1592 61.4538 10.5545 63.0312 10.5545C63.285 10.5545 63.5604 10.5545 63.8352 10.6331V13.3069C63.6035 13.1684 63.1295 13.0908 62.6555 13.0908C60.5078 13.0908 60.5078 15.7781 60.5078 17.2382V20.9766H57.8701V10.7989Z" fill="#5C250B"/>
<path d="M65.3682 10.7988H68.0094V20.9765H65.3682V10.7988ZM65.3682 6.55615H68.0094V9.08735H65.3682V6.55615Z" fill="#5C250B"/>
<path d="M76.6778 14.8893C76.5996 13.5985 76.0092 12.4961 74.5326 12.4961C73.051 12.4961 72.3067 13.5234 72.1923 14.8893H76.6778ZM78.4473 20.4051C77.4843 20.9411 76.3854 21.2188 74.9655 21.2188C71.62 21.2188 69.6689 19.2785 69.6689 15.9357C69.6689 12.9873 71.2208 10.5544 74.3756 10.5544C78.1348 10.5544 79.1942 13.1445 79.1942 16.7091H72.1923C72.3067 18.3525 73.4467 19.2785 75.0838 19.2785C76.3608 19.2785 77.4678 18.8065 78.4473 18.2512V20.4051Z" fill="#5C250B"/>
<path d="M80.7617 10.8897H83.266V12.2712H83.3011C84.1322 11.1023 85.2547 10.6453 86.6295 10.6453C89.036 10.6453 90.0748 12.3477 90.0748 14.6426V21.0684H87.4395V15.6301C87.4395 14.3842 87.4185 12.7029 85.7262 12.7029C83.8208 12.7029 83.402 14.7766 83.402 16.0886V21.0684H80.7617V10.8897Z" fill="#5C250B"/>
<path d="M96.6563 19.1591C98.4137 19.1591 98.9875 17.3041 98.9875 15.8556C98.9875 14.4308 98.3134 12.611 96.6186 12.611C94.9113 12.611 94.4398 14.4922 94.4398 15.8556C94.4398 17.2643 94.9264 19.1591 96.6563 19.1591ZM99.0833 19.8337H99.0437C98.2547 20.8212 97.1734 21.2188 95.9355 21.2188C92.8203 21.2188 91.6777 18.6442 91.6777 15.8556C91.6777 13.0463 92.8203 10.5544 95.9355 10.5544C97.2531 10.5544 98.1775 11.0119 98.9665 11.9802H99.0066V6.14394H101.642V20.9764H99.0833V19.8337Z" fill="#5C250B"/>
<path d="M112.955 8.22319H118.53V19.275H118.641C119.195 18.3102 119.786 17.4204 120.339 16.5307L125.988 8.22319H132.892L124.659 18.8669L133.335 33.2192H126.763L120.672 22.4274L118.53 25.0599V33.2192H112.955V8.22319Z" fill="#231F20"/>
<path d="M139.203 24.133C139.203 27.2481 140.495 29.5843 142.894 29.5843C145.073 29.5843 146.476 27.3962 146.476 24.133C146.476 21.4254 145.442 18.6811 142.894 18.6811C140.199 18.6811 139.203 21.4627 139.203 24.133ZM152.273 23.9476C152.273 30.5854 147.583 33.627 142.747 33.627C137.467 33.627 133.406 30.141 133.406 24.2811C133.406 18.4222 137.246 14.6757 143.043 14.6757C148.581 14.6757 152.273 18.4962 152.273 23.9476Z" fill="#231F20"/>
<path d="M155.373 21.055C155.373 18.3847 155.299 16.642 155.225 15.0842H160.061L160.246 18.422H160.393C161.317 15.789 163.532 14.6761 165.267 14.6761C165.784 14.6761 166.042 14.6761 166.449 14.7502V20.0907C166.042 19.9798 165.562 19.9053 164.934 19.9053C162.867 19.9053 161.464 21.0177 161.095 22.7614C161.021 23.1317 160.984 23.5771 160.984 24.022V33.2197H155.373V21.055Z" fill="#231F20"/>
<path d="M179.663 22.0935C179.663 20.7211 179.073 18.4221 176.488 18.4221C174.125 18.4221 173.165 20.5724 173.018 22.0935H179.663ZM173.055 25.9502C173.239 28.2864 175.528 29.3984 178.15 29.3984C180.069 29.3984 181.62 29.1394 183.133 28.6578L183.872 32.4772C182.026 33.2193 179.774 33.6274 177.338 33.6274C171.209 33.6274 167.701 30.0297 167.701 24.3556C167.701 19.7568 170.544 14.6762 176.82 14.6762C182.654 14.6762 184.869 19.2383 184.869 23.7254C184.869 24.6892 184.758 25.5426 184.684 25.9502H173.055Z" fill="#231F20"/>
<path d="M197.457 24.6519C194.504 24.6151 192.215 25.32 192.215 27.5081C192.215 28.954 193.175 29.6594 194.43 29.6594C195.833 29.6594 196.977 28.7323 197.347 27.5821C197.421 27.2849 197.457 26.9508 197.457 26.6173V24.6519ZM202.921 28.8059C202.921 30.5481 202.996 32.2178 203.18 33.2194H198.122L197.79 31.4016H197.679C196.498 32.8475 194.652 33.627 192.51 33.627C188.855 33.627 186.677 30.9572 186.677 28.0643C186.677 23.3541 190.885 21.0919 197.273 21.1287V20.8697C197.273 19.9049 196.756 18.533 193.987 18.533C192.141 18.533 190.185 19.1633 189.003 19.9049L187.969 16.2708C189.224 15.566 191.698 14.6763 194.984 14.6763C201.002 14.6763 202.921 18.2362 202.921 22.5011V28.8059Z" fill="#231F20"/>
<path d="M219.902 33.2197H214.253V8.22363H219.902V33.2197Z" fill="#231F20"/>
<path d="M224.331 20.8696C224.331 18.6069 224.257 16.6788 224.183 15.0842H229.056L229.314 17.5686H229.426C230.163 16.4193 232.01 14.6761 235 14.6761C238.692 14.6761 241.462 17.1237 241.462 22.4642V33.2192H235.848V23.169C235.848 20.8328 235.036 19.2382 233.007 19.2382C231.455 19.2382 230.533 20.3129 230.163 21.3517C230.016 21.7226 229.942 22.2415 229.942 22.7609V33.2192H224.331V20.8696Z" fill="#231F20"/>
<path d="M249.064 15.0842L251.5 23.5025C251.945 25.0231 252.276 26.4695 252.535 27.916H252.645C252.941 26.4328 253.237 25.0604 253.642 23.5025L255.969 15.0842H261.877L255.157 33.2197H249.545L242.974 15.0842H249.064Z" fill="#231F20"/>
<path d="M274.463 22.0935C274.463 20.7211 273.872 18.4221 271.288 18.4221C268.925 18.4221 267.966 20.5724 267.818 22.0935H274.463ZM267.854 25.9502C268.039 28.2864 270.328 29.3984 272.95 29.3984C274.87 29.3984 276.42 29.1394 277.933 28.6578L278.673 32.4772C276.826 33.2193 274.574 33.6274 272.138 33.6274C266.009 33.6274 262.501 30.0297 262.501 24.3556C262.501 19.7568 265.344 14.6762 271.62 14.6762C277.453 14.6762 279.67 19.2383 279.67 23.7254C279.67 24.6892 279.557 25.5426 279.485 25.9502H267.854Z" fill="#231F20"/>
<path d="M282.621 28.2864C283.654 28.9167 285.796 29.6599 287.457 29.6599C289.156 29.6599 289.857 29.0659 289.857 28.1383C289.857 27.2118 289.303 26.7664 287.199 26.0616C283.47 24.801 282.03 22.761 282.066 20.647C282.066 17.2351 284.948 14.6762 289.413 14.6762C291.517 14.6762 293.402 15.1579 294.509 15.7146L293.512 19.6086C292.7 19.1633 291.149 18.5703 289.598 18.5703C288.233 18.5703 287.457 19.126 287.457 20.054C287.457 20.907 288.159 21.3514 290.373 22.1303C293.807 23.3173 295.248 25.06 295.284 27.7302C295.284 31.1053 292.626 33.6274 287.457 33.6274C285.095 33.6274 282.991 33.0712 281.624 32.3291L282.621 28.2864Z" fill="#231F20"/>
<path d="M304.586 10.1519V15.0843H308.611V19.2383H304.586V25.8016C304.586 27.9902 305.103 28.9923 306.802 28.9923C307.577 28.9923 307.91 28.954 308.462 28.8437L308.5 33.1085C307.762 33.4048 306.433 33.6274 304.845 33.6274C303.036 33.6274 301.522 32.9599 300.636 32.0318C299.603 30.9572 299.086 29.214 299.086 26.6546V19.2383H296.687V15.0843H299.086V11.6725L304.586 10.1519Z" fill="#231F20"/>
<path d="M311.488 20.8696C311.488 18.6069 311.416 16.6788 311.341 15.0842H316.067L316.325 17.5318H316.436C317.211 16.3821 318.798 14.6761 321.9 14.6761C324.226 14.6761 326.073 15.8626 326.848 17.754H326.921C327.586 16.7897 328.398 16.0853 329.247 15.5659C330.244 14.9729 331.351 14.6761 332.68 14.6761C336.152 14.6761 338.773 17.1237 338.773 22.5387V33.2192H333.308V23.3544C333.308 20.721 332.46 19.2009 330.65 19.2009C329.358 19.2009 328.435 20.0907 328.066 21.1663C327.918 21.5744 327.844 22.1674 327.844 22.6123V33.2192H322.379V23.0572C322.379 20.7577 321.567 19.2009 319.795 19.2009C318.356 19.2009 317.506 20.3129 317.174 21.2404C316.99 21.6858 316.953 22.2042 316.953 22.6496V33.2192H311.488V20.8696Z" fill="#231F20"/>
<path d="M353.795 22.0935C353.795 20.7211 353.204 18.4221 350.619 18.4221C348.257 18.4221 347.298 20.5724 347.15 22.0935H353.795ZM347.186 25.9502C347.37 28.2864 349.659 29.3984 352.281 29.3984C354.2 29.3984 355.751 29.1394 357.265 28.6578L358.004 32.4772C356.157 33.2193 353.905 33.6274 351.469 33.6274C345.341 33.6274 341.832 30.0297 341.832 24.3556C341.832 19.7568 344.676 14.6762 350.951 14.6762C356.785 14.6762 359.001 19.2383 359.001 23.7254C359.001 24.6892 358.889 25.5426 358.816 25.9502H347.186Z" fill="#231F20"/>
<path d="M361.99 20.8696C361.99 18.6069 361.917 16.6788 361.843 15.0842H366.716L366.973 17.5686H367.086C367.823 16.4193 369.67 14.6761 372.66 14.6761C376.353 14.6761 379.121 17.1237 379.121 22.4642V33.2192H373.509V23.169C373.509 20.8328 372.696 19.2382 370.667 19.2382C369.115 19.2382 368.193 20.3129 367.823 21.3517C367.675 21.7226 367.602 22.2415 367.602 22.7609V33.2192H361.99V20.8696Z" fill="#231F20"/>
<path d="M389.309 10.1519V15.0843H393.333V19.2383H389.309V25.8016C389.309 27.9902 389.825 28.9923 391.524 28.9923C392.299 28.9923 392.631 28.954 393.186 28.8437L393.222 33.1085C392.484 33.4048 391.155 33.6274 389.568 33.6274C387.758 33.6274 386.244 32.9599 385.359 32.0318C384.324 30.9572 383.807 29.214 383.807 26.6546V19.2383H381.408V15.0843H383.807V11.6725L389.309 10.1519Z" fill="#231F20"/>
<path d="M116.262 45.4593C115.097 45.4593 114.482 46.4398 114.482 47.5477C114.482 48.5679 114.949 49.3554 115.563 50.1217C117.004 49.2919 117.937 48.5256 117.937 47.3124C117.937 46.4398 117.449 45.4593 116.284 45.4593H116.262ZM115.903 57.5948C117.11 57.5948 118.149 57.0411 118.827 56.296C117.979 55.3599 116.39 53.6137 114.8 51.7833C114.037 52.273 112.956 53.1879 112.956 54.6999C112.956 56.3383 114.164 57.5948 115.88 57.5948H115.903ZM121.074 58.7657C120.671 58.3612 120.289 57.9571 119.738 57.3611C118.509 58.5108 117.131 59 115.563 59C112.786 59 111.176 57.1258 111.176 54.977C111.176 53.0186 112.342 51.676 113.974 50.7822V50.7187C113.232 49.7821 112.786 48.7397 112.786 47.7164C112.786 45.9722 114.037 44.1826 116.411 44.1826C118.191 44.1826 119.568 45.3747 119.568 47.2277C119.568 48.7397 118.699 49.9312 116.432 51.0598V51.1233C117.64 52.5279 118.997 54.1034 119.908 55.1256C120.565 54.1245 121.009 52.741 121.285 50.9318H122.981C122.599 53.1879 121.984 54.977 120.925 56.2325C121.688 57.0411 122.43 57.8503 123.278 58.7657H121.074Z" fill="#231F20"/>
<path d="M128.766 56.5096C129.593 57.02 130.801 57.4452 132.073 57.4452C133.959 57.4452 135.061 56.4451 135.061 54.9977C135.061 53.6565 134.298 52.8897 132.369 52.145C130.038 51.3137 128.597 50.1 128.597 48.0787C128.597 45.8422 130.44 44.1822 133.217 44.1822C134.679 44.1822 135.739 44.5232 136.375 44.8855L135.866 46.3975C135.399 46.141 134.446 45.7153 133.153 45.7153C131.203 45.7153 130.462 46.8862 130.462 47.8656C130.462 49.2073 131.33 49.8673 133.302 50.6331C135.718 51.5697 136.947 52.7411 136.947 54.8485C136.947 57.0623 135.315 58.9995 131.945 58.9995C130.568 58.9995 129.063 58.5743 128.3 58.0639L128.766 56.5096Z" fill="#231F20"/>
<path d="M145.827 52.6141C145.848 51.422 145.339 49.569 143.241 49.569C141.355 49.569 140.528 51.3137 140.38 52.6141H145.827ZM140.359 53.9542C140.401 56.4885 142.012 57.5304 143.877 57.5304C145.212 57.5304 146.017 57.2976 146.717 56.9988L147.035 58.34C146.378 58.6378 145.254 59 143.622 59C140.465 59 138.578 56.893 138.578 53.785C138.578 50.6764 140.401 48.2278 143.39 48.2278C146.739 48.2278 147.628 51.1868 147.628 53.0821C147.628 53.465 147.586 53.7638 147.565 53.9542H140.359Z" fill="#231F20"/>
<path d="M151.569 53.1878H151.611C151.866 52.8256 152.227 52.3792 152.523 52.0169L155.533 48.462H157.779L153.816 52.6986L158.33 58.7656H156.062L152.523 53.8277L151.569 54.8912V58.7656H149.726V43.651H151.569V53.1878Z" fill="#231F20"/>
<path d="M168.122 55.9549C168.122 57.02 168.143 57.9571 168.206 58.7657H166.553L166.447 57.0835H166.405C165.918 57.9138 164.837 59 163.014 59C161.403 59 159.475 58.1067 159.475 54.4868V48.4621H161.34V54.1684C161.34 56.1267 161.933 57.4457 163.629 57.4457C164.879 57.4457 165.748 56.5736 166.087 55.7433C166.193 55.4657 166.257 55.1256 166.257 54.7845V48.4621H168.122V55.9549Z" fill="#231F20"/>
<path d="M171.004 51.6759C171.004 50.4627 170.983 49.4198 170.919 48.462H172.551L172.615 50.4838H172.699C173.165 49.1018 174.289 48.2277 175.539 48.2277C175.751 48.2277 175.899 48.2489 176.069 48.2912V50.0581C175.878 50.0158 175.687 49.9951 175.434 49.9951C174.119 49.9951 173.187 50.9952 172.933 52.3999C172.89 52.6563 172.847 52.9536 172.847 53.2735V58.7656H171.004V51.6759Z" fill="#231F20"/>
<path d="M177.806 48.4623H179.671V58.766H177.806V48.4623ZM179.883 45.5669C179.905 46.2047 179.438 46.7161 178.696 46.7161C178.039 46.7161 177.573 46.2047 177.573 45.5669C177.573 44.9069 178.061 44.3955 178.739 44.3955C179.438 44.3955 179.883 44.9069 179.883 45.5669Z" fill="#231F20"/>
<path d="M184.801 45.9929V48.4616H187.471V49.8884H184.801V55.4446C184.801 56.7212 185.161 57.4452 186.2 57.4452C186.708 57.4452 187.005 57.4029 187.281 57.3183L187.365 58.7234C187.005 58.8725 186.432 58.9995 185.712 58.9995C184.843 58.9995 184.144 58.7013 183.699 58.1909C183.169 57.6372 182.978 56.7212 182.978 55.508V49.8884H181.389V48.4616H182.978V46.5667L184.801 45.9929Z" fill="#231F20"/>
<path d="M194.761 53.5074C192.727 53.465 190.416 53.8273 190.416 55.8275C190.416 57.0412 191.222 57.6155 192.176 57.6155C193.511 57.6155 194.359 56.7636 194.655 55.8909C194.718 55.7 194.761 55.4874 194.761 55.2954V53.5074ZM196.562 56.2955C196.562 57.1908 196.605 58.0639 196.732 58.7657H195.037L194.888 57.4664H194.824C194.252 58.2755 193.151 58.9995 191.688 58.9995C189.611 58.9995 188.552 57.5299 188.552 56.0406C188.552 53.5497 190.755 52.1869 194.718 52.2095V51.9954C194.718 51.1444 194.486 49.6113 192.387 49.6113C191.433 49.6113 190.437 49.9096 189.717 50.3776L189.293 49.1433C190.141 48.5886 191.37 48.2278 192.663 48.2278C195.799 48.2278 196.562 50.3776 196.562 52.4423V56.2955Z" fill="#231F20"/>
<path d="M199.106 56.8497C199.657 57.2119 200.632 57.5948 201.564 57.5948C202.92 57.5948 203.557 56.9142 203.557 56.0622C203.557 55.1669 203.026 54.6782 201.649 54.1684C199.806 53.5073 198.937 52.4846 198.937 51.2502C198.937 49.5901 200.271 48.2278 202.476 48.2278C203.515 48.2278 204.425 48.5256 204.997 48.8662L204.531 50.2285C204.128 49.9736 203.387 49.633 202.433 49.633C201.331 49.633 200.717 50.2718 200.717 51.0386C200.717 51.8896 201.331 52.273 202.666 52.7834C204.446 53.465 205.358 54.3588 205.358 55.8914C205.358 57.7017 203.96 59 201.522 59C200.399 59 199.36 58.7012 198.64 58.2755L199.106 56.8497Z" fill="#231F20"/>
<path d="M213.73 58.7658H211.885V44.4175H213.73V58.7658Z" fill="#231F20"/>
<path d="M216.887 51.2501C216.887 50.1866 216.866 49.3124 216.803 48.462H218.455L218.561 50.1654H218.604C219.113 49.186 220.3 48.2277 221.994 48.2277C223.415 48.2277 225.619 49.0787 225.619 52.614V58.7656H223.754V52.8256C223.754 51.1655 223.139 49.782 221.38 49.782C220.151 49.782 219.197 50.6551 218.879 51.697C218.795 51.9323 218.753 52.2517 218.753 52.5701V58.7656H216.887V51.2501Z" fill="#231F20"/>
<path d="M235.43 52.6564C235.43 52.4211 235.409 52.1022 235.345 51.8689C235.069 50.6764 234.053 49.6959 232.653 49.6959C230.725 49.6959 229.581 51.3999 229.581 53.6776C229.581 55.7645 230.598 57.488 232.611 57.488C233.862 57.488 235.006 56.6577 235.345 55.2531C235.409 54.9977 235.43 54.7422 235.43 54.4445V52.6564ZM237.294 43.6511V56.1056C237.294 57.02 237.317 58.0639 237.38 58.7657H235.705L235.621 56.9777H235.579C235.006 58.1274 233.755 59 232.082 59C229.602 59 227.694 56.893 227.694 53.7638C227.673 50.3358 229.793 48.2278 232.294 48.2278C233.862 48.2278 234.921 48.9725 235.388 49.8033H235.43V43.6511H237.294Z" fill="#231F20"/>
<path d="M241.323 53.6343C241.323 55.8909 242.615 57.5944 244.439 57.5944C246.218 57.5944 247.554 55.9121 247.554 53.592C247.554 51.8473 246.684 49.633 244.481 49.633C242.276 49.633 241.323 51.6755 241.323 53.6343ZM249.462 53.5285C249.462 57.3394 246.833 58.9995 244.353 58.9995C241.576 58.9995 239.437 56.9565 239.437 53.6988C239.437 50.2497 241.684 48.2278 244.523 48.2278C247.469 48.2278 249.462 50.3776 249.462 53.5285Z" fill="#231F20"/>
<path d="M251.601 51.2501C251.601 50.1866 251.58 49.3124 251.517 48.462H253.169L253.276 50.1654H253.319C253.826 49.186 255.014 48.2277 256.709 48.2277C258.129 48.2277 260.334 49.0787 260.334 52.614V58.7656H258.468V52.8256C258.468 51.1655 257.853 49.782 256.095 49.782C254.866 49.782 253.911 50.6551 253.594 51.697C253.508 51.9323 253.467 52.2517 253.467 52.5701V58.7656H251.601V51.2501Z" fill="#231F20"/>
<path d="M269.658 52.6141C269.679 51.422 269.17 49.569 267.073 49.569C265.186 49.569 264.36 51.3137 264.211 52.6141H269.658ZM264.19 53.9542C264.232 56.4885 265.844 57.5304 267.708 57.5304C269.043 57.5304 269.848 57.2976 270.548 56.9988L270.867 58.34C270.209 58.6378 269.085 59 267.454 59C264.297 59 262.41 56.893 262.41 53.785C262.41 50.6764 264.232 48.2278 267.22 48.2278C270.569 48.2278 271.459 51.1868 271.459 53.0821C271.459 53.465 271.417 53.7638 271.396 53.9542H264.19Z" fill="#231F20"/>
<path d="M273.304 56.8497C273.854 57.2119 274.83 57.5948 275.761 57.5948C277.119 57.5948 277.753 56.9142 277.753 56.0622C277.753 55.1669 277.224 54.6782 275.847 54.1684C274.004 53.5073 273.134 52.4846 273.134 51.2502C273.134 49.5901 274.469 48.2278 276.673 48.2278C277.711 48.2278 278.622 48.5256 279.195 48.8662L278.729 50.2285C278.327 49.9736 277.585 49.633 276.631 49.633C275.529 49.633 274.914 50.2718 274.914 51.0386C274.914 51.8896 275.529 52.273 276.864 52.7834C278.643 53.465 279.556 54.3588 279.556 55.8914C279.556 57.7017 278.156 59 275.719 59C274.595 59 273.558 58.7012 272.838 58.2755L273.304 56.8497Z" fill="#231F20"/>
<path d="M281.738 48.4623H283.602V58.766H281.738V48.4623ZM283.815 45.5669C283.836 46.2047 283.371 46.7161 282.628 46.7161C281.971 46.7161 281.505 46.2047 281.505 45.5669C281.505 44.9069 281.992 44.3955 282.671 44.3955C283.371 44.3955 283.815 44.9069 283.815 45.5669Z" fill="#231F20"/>
<path d="M291.891 53.5074C289.855 53.465 287.545 53.8273 287.545 55.8275C287.545 57.0412 288.35 57.6155 289.304 57.6155C290.64 57.6155 291.488 56.7636 291.784 55.8909C291.847 55.7 291.891 55.4874 291.891 55.2954V53.5074ZM293.691 56.2955C293.691 57.1908 293.734 58.0639 293.862 58.7657H292.166L292.017 57.4664H291.954C291.38 58.2755 290.279 58.9995 288.817 58.9995C286.74 58.9995 285.681 57.5299 285.681 56.0406C285.681 53.5497 287.884 52.1869 291.847 52.2095V51.9954C291.847 51.1444 291.614 49.6113 289.516 49.6113C288.562 49.6113 287.567 49.9096 286.846 50.3776L286.422 49.1433C287.27 48.5886 288.499 48.2278 289.791 48.2278C292.927 48.2278 293.691 50.3776 293.691 52.4423V56.2955Z" fill="#231F20"/>
</g>
<defs>
<clipPath id="clip0_32_7339">
<rect width="393.333" height="59" fill="white"/>
</clipPath>
</defs>
</svg>
