<svg width="32" height="32" viewBox="0 0 32 32" fill="none" xmlns="http://www.w3.org/2000/svg">
<path d="M0 4.66613C0 2.08909 1.79074 0 3.99974 0H27.9982C30.2072 0 31.9979 2.08909 31.9979 4.66613V10.4962C31.5927 10.1618 31.1402 9.89487 30.6492 9.71182L29.7124 9.36261V4.66613C29.7124 3.5617 28.9449 2.66636 27.9982 2.66636H3.99974C3.05304 2.66636 2.28557 3.5617 2.28557 4.66613V21.9975C2.28557 23.1019 3.05304 23.9972 3.99974 23.9972H9.14227V21.3309C9.14227 19.8583 10.1656 18.6645 11.4278 18.6645H20.5701C21.8324 18.6645 22.8557 19.8583 22.8557 21.3309V21.8778C21.4818 21.8407 20.1854 22.6363 19.4046 23.9746L18.3052 25.8589L18.1397 26.1765L18.1118 26.2367C18.0473 26.3762 17.9888 26.5188 17.9365 26.6636H3.99974C1.79074 26.6636 0 24.5745 0 21.9975V4.66613Z" fill="#1E1E1E"/>
<path d="M31.8149 14.6821C31.9361 15.2969 31.9976 15.9416 31.9998 16.6161V16.6906C31.9923 19.021 31.2794 21.7055 29.8608 24.7438C29.563 25.3816 29.2606 25.9786 28.9536 26.5342C27.3606 29.4168 25.6432 31.1934 23.8015 31.8638C22.9485 32.1741 22.0323 31.9486 21.3429 31.2734L21.1608 31.0783L20.4533 30.2496C19.8402 29.5315 19.7139 28.3956 20.125 27.5069L20.2294 27.3064L21.2956 25.4789C21.6103 24.9395 22.0928 24.6131 22.6062 24.5563C22.7086 24.5451 22.8121 24.5443 22.9156 24.555C22.9853 24.5619 23.0553 24.5739 23.1248 24.5913L23.3124 24.651L25.281 25.4168C26.0665 24.7233 26.7216 23.8503 27.2459 22.7981C27.6954 21.8961 27.9896 20.9818 28.1281 20.0555L28.1843 19.591L26.5453 17.7762C26.0053 17.1784 25.8092 16.2474 26.0299 15.4095L26.1006 15.1836L26.8445 13.1372C27.1933 12.1774 28.0289 11.6553 28.8485 11.8545L29.0238 11.9084L29.9554 12.2556C30.879 12.5999 31.5864 13.523 31.8149 14.6821Z" fill="#1E1E1E"/>
<path d="M20.5705 10.6648C20.5705 13.6099 18.5239 15.9975 15.9994 15.9975C13.4748 15.9975 11.4282 13.6099 11.4282 10.6648C11.4282 7.71957 13.4748 5.33203 15.9994 5.33203C18.5239 5.33203 20.5705 7.71957 20.5705 10.6648Z" fill="#1E1E1E"/>
</svg>
