<svg width="300" height="45" viewBox="0 0 300 45" fill="none" xmlns="http://www.w3.org/2000/svg">
<g clip-path="url(#clip0_32_7478)">
<path d="M36.5246 11.9337C36.7181 11.9337 37.0609 12.0932 37.528 12.6062C39.9602 15.2584 42.6889 17.3546 44.9846 18.6223C45.3159 18.8018 45.4972 18.9397 45.4972 19.1138C45.4972 19.2464 45.4785 19.3755 45.1927 19.3755C44.6751 19.3755 41.7812 18.8018 41.0153 18.4448C40.246 18.0774 38.5926 16.7306 36.6202 13.3144C36.3968 12.929 36.1611 12.5974 36.1611 12.2869C36.1611 11.9787 36.4377 11.9337 36.5246 11.9337Z" fill="#6C99D7"/>
<path d="M43.0776 2.16715C43.0776 2.16715 43.5577 3.11937 38.8822 3.78186C39.391 2.33201 39.7288 1.37633 39.7288 1.37633C40.0257 0.504803 39.3554 -0.000127392 38.8734 -0.000127392C38.3906 -0.000127392 38.0387 0.372998 37.8363 0.843729L36.4473 4.0374C34.6244 4.15959 33.2748 4.09196 32.6624 4.03394C31.8165 3.95132 31.5958 4.41936 31.5958 4.90085C31.5958 5.74086 33.0713 6.59317 34.0139 6.49941C34.6057 6.44408 34.9496 6.41987 35.4351 6.36799L30.2649 18.2369C30.0668 18.68 29.908 19.3955 30.7944 19.3955C31.6834 19.3955 33.6792 18.5812 34.0139 17.6363C34.1531 17.2398 35.1834 14.3062 36.3314 11.0407C36.9006 10.9277 38.987 10.6084 39.5677 10.6084C40.1186 10.6084 40.4025 10.854 40.4025 11.1464C40.4025 11.8315 38.769 13.7952 35.6045 16.2107C35.2599 16.4777 35.5464 16.6856 35.7224 16.6856C36.2116 16.6856 38.3929 15.1866 39.4725 14.3654C40.6615 13.4651 42.7276 11.1249 42.7276 9.4752C42.7276 8.83001 42.4418 8.23631 41.1469 8.23631C39.8929 8.23631 37.6703 8.51529 37.199 8.57639C37.5043 7.6968 37.8096 6.83834 38.0934 6.03406C40.539 5.6936 41.9958 5.47034 42.8561 5.2928C44.0382 5.04149 44.9904 4.35672 44.9904 3.65197C44.9904 2.15447 43.0776 2.16715 43.0776 2.16715Z" fill="#5C250B"/>
<path d="M1.48888 9.59697H0V8.11907H1.48888V6.15084H3.50262V8.11907H5.40656V9.59697H3.50262V13.2156C3.50262 13.8808 3.68089 14.498 4.44713 14.498C4.8094 14.498 5.15293 14.4246 5.36104 14.2916L5.42531 15.8859C5.0003 16.015 4.53971 16.0688 3.93719 16.0688C2.35803 16.0688 1.48888 15.0863 1.48888 13.5477V9.59697Z" fill="#5C250B"/>
<path d="M6.94141 8.11937H8.72676V9.88624H8.7589C8.84803 9.15766 9.67357 7.9353 10.8744 7.9353C11.0691 7.9353 11.2795 7.9353 11.4895 7.99986V10.035C11.3097 9.93274 10.9501 9.8701 10.5886 9.8701C8.95323 9.8701 8.95323 11.9217 8.95323 13.0349V15.8862H6.94141L6.94141 8.11937Z" fill="#5C250B"/>
<path d="M19.8409 15.8859H17.9304V14.835H17.9002C17.2877 15.5881 16.4167 16.0688 15.365 16.0688C13.5334 16.0688 12.7373 14.7723 12.7373 13.0185V8.11907H14.7438V12.2653C14.7438 13.2156 14.7637 14.498 16.0559 14.498C17.5111 14.498 17.8286 12.9144 17.8286 11.921V8.11907H19.8409V15.8859Z" fill="#5C250B"/>
<path d="M26.468 11.2418C26.4052 10.2626 25.9554 9.41647 24.8318 9.41647C23.7033 9.41647 23.1341 10.2015 23.0438 11.2418H26.468ZM27.8176 15.4487C27.082 15.8557 26.2419 16.0693 25.1593 16.0693C22.61 16.0693 21.1211 14.5918 21.1211 12.0453C21.1211 9.79459 22.3081 7.9355 24.7113 7.9355C27.58 7.9355 28.3907 9.91141 28.3907 12.6317H23.0438C23.1341 13.8813 24.0036 14.5918 25.2496 14.5918C26.2304 14.5918 27.0678 14.2295 27.8176 13.806V15.4487Z" fill="#5C250B"/>
<path d="M44.1377 8.23639H45.9257V9.99865H45.956C46.0443 9.27392 46.871 8.05002 48.0741 8.05002C48.2677 8.05002 48.4777 8.05002 48.6873 8.10996V10.1493C48.5106 10.0436 48.1491 9.98443 47.7876 9.98443C46.1495 9.98443 46.1495 12.0341 46.1495 13.1477V15.999H44.1377V8.23639Z" fill="#5C250B"/>
<path d="M49.8574 8.23643H51.8719V15.9991H49.8574V8.23643ZM49.8574 5.00049H51.8719V6.93106H49.8574V5.00049Z" fill="#5C250B"/>
<path d="M58.4834 11.3565C58.4238 10.372 57.9735 9.53122 56.8473 9.53122C55.7172 9.53122 55.1495 10.3147 55.0623 11.3565H58.4834ZM59.8331 15.5635C59.0986 15.9723 58.2604 16.1841 57.1774 16.1841C54.6258 16.1841 53.1377 14.7043 53.1377 12.1546C53.1377 9.90588 54.3213 8.05024 56.7275 8.05024C59.5947 8.05024 60.4027 10.0258 60.4027 12.7445H55.0623C55.1495 13.998 56.0191 14.7043 57.2677 14.7043C58.2417 14.7043 59.0859 14.3442 59.8331 13.9207V15.5635Z" fill="#5C250B"/>
<path d="M61.5977 8.30544H63.5077V9.35911H63.5345C64.1684 8.46761 65.0245 8.11907 66.0731 8.11907C67.9086 8.11907 68.7008 9.41752 68.7008 11.1679V16.0688H66.6909V11.921C66.6909 10.9707 66.6748 9.68843 65.3841 9.68843C63.9308 9.68843 63.6114 11.2701 63.6114 12.2707V16.0688H61.5977V8.30544Z" fill="#5C250B"/>
<path d="M73.721 14.6127C75.0615 14.6127 75.4991 13.1978 75.4991 12.093C75.4991 11.0063 74.985 9.61834 73.6923 9.61834C72.3901 9.61834 72.0305 11.0532 72.0305 12.093C72.0305 13.1675 72.4016 14.6127 73.721 14.6127ZM75.5722 15.1272H75.5419C74.9402 15.8804 74.1154 16.1836 73.1713 16.1836C70.7953 16.1836 69.9238 14.22 69.9238 12.093C69.9238 9.95035 70.7953 8.04975 73.1713 8.04975C74.1762 8.04975 74.8813 8.39867 75.483 9.13724H75.5136V4.68586H77.5235V15.9988H75.5722V15.1272Z" fill="#5C250B"/>
<path d="M86.1523 6.27213H90.4044V14.7015H90.4893C90.9113 13.9656 91.3623 13.287 91.7842 12.6084L96.0925 6.27213H101.359L95.0787 14.3902L101.696 25.3369H96.6839L92.0379 17.1059L90.4044 19.1137V25.3369H86.1523V6.27213Z" fill="#231F20"/>
<path d="M106.172 18.4068C106.172 20.7827 107.158 22.5646 108.988 22.5646C110.649 22.5646 111.719 20.8957 111.719 18.4068C111.719 16.3417 110.931 14.2486 108.988 14.2486C106.932 14.2486 106.172 16.3701 106.172 18.4068ZM116.141 18.2654C116.141 23.3281 112.564 25.6479 108.876 25.6479C104.848 25.6479 101.751 22.9892 101.751 18.5197C101.751 14.0511 104.68 11.1936 109.101 11.1936C113.325 11.1936 116.141 14.1076 116.141 18.2654Z" fill="#231F20"/>
<path d="M118.504 16.0587C118.504 14.0221 118.448 12.6929 118.392 11.5047H122.081L122.221 14.0505H122.334C123.038 12.0423 124.727 11.1935 126.051 11.1935C126.445 11.1935 126.642 11.1935 126.952 11.25V15.3232C126.642 15.2387 126.276 15.1818 125.797 15.1818C124.22 15.1818 123.151 16.0303 122.869 17.3602C122.813 17.6427 122.784 17.9824 122.784 18.3217V25.3369H118.504V16.0587Z" fill="#231F20"/>
<path d="M137.032 16.8509C137.032 15.8041 136.581 14.0507 134.61 14.0507C132.808 14.0507 132.076 15.6907 131.963 16.8509H137.032ZM131.992 19.7924C132.132 21.5743 133.878 22.4224 135.877 22.4224C137.341 22.4224 138.524 22.2249 139.678 21.8575L140.242 24.7707C138.834 25.3367 137.117 25.6479 135.258 25.6479C130.583 25.6479 127.908 22.9039 127.908 18.5762C127.908 15.0686 130.076 11.1936 134.863 11.1936C139.313 11.1936 141.002 14.6732 141.002 18.0955C141.002 18.8306 140.918 19.4816 140.861 19.7924H131.992Z" fill="#231F20"/>
<path d="M150.603 18.8021C148.351 18.774 146.605 19.3116 146.605 20.9805C146.605 22.0834 147.337 22.6213 148.294 22.6213C149.364 22.6213 150.237 21.9143 150.519 21.037C150.575 20.8103 150.603 20.5555 150.603 20.3011V18.8021ZM154.771 21.9704C154.771 23.2992 154.827 24.5727 154.968 25.3366H151.11L150.857 23.9501H150.772C149.872 25.053 148.463 25.6475 146.83 25.6475C144.042 25.6475 142.381 23.6112 142.381 21.4047C142.381 17.8122 145.591 16.0868 150.463 16.1149V15.9174C150.463 15.1815 150.068 14.1351 147.957 14.1351C146.549 14.1351 145.056 14.6158 144.155 15.1815L143.367 12.4097C144.324 11.8722 146.211 11.1935 148.717 11.1935C153.307 11.1935 154.771 13.9088 154.771 17.1616V21.9704Z" fill="#231F20"/>
<path d="M167.722 25.3368H163.413V6.27197H167.722V25.3368Z" fill="#231F20"/>
<path d="M171.099 15.9177C171.099 14.1919 171.043 12.7213 170.986 11.5051H174.704L174.9 13.4H174.985C175.548 12.5234 176.956 11.1939 179.237 11.1939C182.053 11.1939 184.165 13.0606 184.165 17.1339V25.3369H179.884V17.6715C179.884 15.8896 179.265 14.6734 177.717 14.6734C176.533 14.6734 175.83 15.4931 175.548 16.2854C175.435 16.5683 175.379 16.9641 175.379 17.3602V25.3369H171.099V15.9177Z" fill="#231F20"/>
<path d="M189.964 11.5047L191.822 17.9255C192.161 19.0852 192.413 20.1885 192.611 21.2917H192.695C192.921 20.1604 193.146 19.1137 193.456 17.9255L195.23 11.5047H199.736L194.61 25.3369H190.331L185.318 11.5047H189.964Z" fill="#231F20"/>
<path d="M209.337 16.8509C209.337 15.8041 208.886 14.0507 206.915 14.0507C205.113 14.0507 204.381 15.6907 204.268 16.8509H209.337ZM204.296 19.7924C204.437 21.5743 206.183 22.4224 208.182 22.4224C209.647 22.4224 210.829 22.2249 211.983 21.8575L212.547 24.7707C211.139 25.3367 209.421 25.6479 207.563 25.6479C202.888 25.6479 200.213 22.9039 200.213 18.5762C200.213 15.0686 202.381 11.1936 207.168 11.1936C211.617 11.1936 213.308 14.6732 213.308 18.0955C213.308 18.8306 213.222 19.4816 213.167 19.7924H204.296Z" fill="#231F20"/>
<path d="M215.558 21.5743C216.346 22.055 217.98 22.6218 219.247 22.6218C220.543 22.6218 221.077 22.1688 221.077 21.4613C221.077 20.7547 220.655 20.415 219.05 19.8774C216.206 18.9159 215.107 17.36 215.135 15.7476C215.135 13.1453 217.333 11.1936 220.739 11.1936C222.344 11.1936 223.781 11.561 224.625 11.9856L223.865 14.9556C223.245 14.6159 222.063 14.1637 220.88 14.1637C219.838 14.1637 219.247 14.5875 219.247 15.2953C219.247 15.9459 219.782 16.2848 221.471 16.8789C224.09 17.7843 225.189 19.1134 225.216 21.1501C225.216 23.7243 223.189 25.6479 219.247 25.6479C217.445 25.6479 215.84 25.2237 214.798 24.6577L215.558 21.5743Z" fill="#231F20"/>
<path d="M232.311 7.74289V11.5049H235.381V14.6732H232.311V19.6791C232.311 21.3484 232.706 22.1127 234.001 22.1127C234.593 22.1127 234.846 22.0835 235.268 21.9993L235.296 25.2522C234.734 25.4781 233.72 25.6479 232.509 25.6479C231.129 25.6479 229.974 25.1388 229.299 24.431C228.51 23.6113 228.116 22.2817 228.116 20.3297V14.6732H226.286V11.5049H228.116V8.90262L232.311 7.74289Z" fill="#231F20"/>
<path d="M237.576 15.9177C237.576 14.1919 237.521 12.7213 237.464 11.5051H241.068L241.266 13.3719H241.35C241.941 12.495 243.152 11.1939 245.517 11.1939C247.292 11.1939 248.7 12.0988 249.291 13.5414H249.347C249.854 12.8059 250.474 12.2687 251.121 11.8725C251.882 11.4202 252.726 11.1939 253.74 11.1939C256.387 11.1939 258.387 13.0606 258.387 17.1908V25.3369H254.218V17.8129C254.218 15.8043 253.571 14.645 252.191 14.645C251.206 14.645 250.502 15.3236 250.22 16.144C250.107 16.4553 250.051 16.9076 250.051 17.2469V25.3369H245.883V17.5862C245.883 15.8324 245.264 14.645 243.912 14.645C242.814 14.645 242.166 15.4931 241.913 16.2005C241.773 16.5402 241.745 16.9356 241.745 17.2753V25.3369H237.576V15.9177Z" fill="#231F20"/>
<path d="M269.844 16.8509C269.844 15.8041 269.393 14.0507 267.422 14.0507C265.62 14.0507 264.888 15.6907 264.776 16.8509H269.844ZM264.803 19.7924C264.943 21.5743 266.69 22.4224 268.689 22.4224C270.153 22.4224 271.336 22.2249 272.491 21.8575L273.054 24.7707C271.645 25.3367 269.928 25.6479 268.07 25.6479C263.396 25.6479 260.72 22.9039 260.72 18.5762C260.72 15.0686 262.889 11.1936 267.675 11.1936C272.125 11.1936 273.814 14.6732 273.814 18.0955C273.814 18.8306 273.729 19.4816 273.674 19.7924H264.803Z" fill="#231F20"/>
<path d="M276.094 15.9177C276.094 14.1919 276.038 12.7213 275.981 11.5051H279.698L279.895 13.4H279.98C280.543 12.5234 281.952 11.1939 284.231 11.1939C287.048 11.1939 289.16 13.0606 289.16 17.1339V25.3369H284.879V17.6715C284.879 15.8896 284.259 14.6734 282.712 14.6734C281.528 14.6734 280.825 15.4931 280.543 16.2854C280.43 16.5683 280.374 16.9641 280.374 17.3602V25.3369H276.094V15.9177Z" fill="#231F20"/>
<path d="M296.93 7.74289V11.5049H300V14.6732H296.93V19.6791C296.93 21.3484 297.324 22.1127 298.62 22.1127C299.211 22.1127 299.464 22.0835 299.887 21.9993L299.914 25.2522C299.352 25.4781 298.338 25.6479 297.128 25.6479C295.747 25.6479 294.592 25.1388 293.918 24.431C293.128 23.6113 292.734 22.2817 292.734 20.3297V14.6732H290.904V11.5049H292.734V8.90262L296.93 7.74289Z" fill="#231F20"/>
<path d="M88.6744 34.6724C87.7853 34.6724 87.3167 35.4202 87.3167 36.2652C87.3167 37.0433 87.6725 37.6439 88.1411 38.2284C89.2401 37.5955 89.9517 37.011 89.9517 36.0857C89.9517 35.4202 89.5798 34.6724 88.6908 34.6724H88.6744ZM88.4001 43.9283C89.3209 43.9283 90.1131 43.506 90.6307 42.9376C89.9838 42.2237 88.7715 40.8918 87.5588 39.4957C86.977 39.8692 86.1526 40.5671 86.1526 41.7203C86.1526 42.9699 87.0741 43.9283 88.3832 43.9283H88.4001ZM92.3441 44.8213C92.037 44.5127 91.7458 44.2046 91.3254 43.75C90.3878 44.6269 89.3369 45 88.1411 45C86.0233 45 84.7949 43.5705 84.7949 41.9316C84.7949 40.4379 85.6843 39.4139 86.9288 38.7322V38.6838C86.363 37.9694 86.0233 37.1743 86.0233 36.3939C86.0233 35.0635 86.977 33.6986 88.7876 33.6986C90.1456 33.6986 91.1961 34.6078 91.1961 36.0211C91.1961 37.1743 90.5332 38.0831 88.8037 38.9439V38.9923C89.7256 40.0637 90.76 41.2653 91.4551 42.045C91.9562 41.2814 92.2952 40.2262 92.5056 38.8463H93.799C93.5079 40.5671 93.0389 41.9316 92.2305 42.8892C92.8124 43.506 93.3786 44.1231 94.0251 44.8213H92.3441Z" fill="#231F20"/>
<path d="M98.2112 43.1004C98.8417 43.4897 99.7632 43.814 100.733 43.814C102.172 43.814 103.012 43.0513 103.012 41.9473C103.012 40.9243 102.43 40.3395 100.959 39.7715C99.181 39.1375 98.0819 38.2118 98.0819 36.6701C98.0819 34.9643 99.4882 33.6981 101.606 33.6981C102.721 33.6981 103.529 33.9583 104.015 34.2346L103.626 35.3878C103.27 35.1922 102.544 34.8675 101.557 34.8675C100.07 34.8675 99.5046 35.7605 99.5046 36.5075C99.5046 37.5308 100.167 38.0342 101.671 38.6183C103.513 39.3327 104.451 40.2261 104.451 41.8335C104.451 43.522 103.206 44.9995 100.636 44.9995C99.5854 44.9995 98.4373 44.6752 97.8555 44.2859L98.2112 43.1004Z" fill="#231F20"/>
<path d="M111.224 40.1294C111.24 39.2202 110.852 37.8069 109.252 37.8069C107.813 37.8069 107.183 39.1376 107.07 40.1294H111.224ZM107.054 41.1515C107.086 43.0844 108.315 43.8791 109.737 43.8791C110.755 43.8791 111.369 43.7016 111.903 43.4737L112.145 44.4966C111.644 44.7237 110.787 45 109.543 45C107.134 45 105.695 43.393 105.695 41.0224C105.695 38.6515 107.086 36.7839 109.365 36.7839C111.919 36.7839 112.598 39.0407 112.598 40.4864C112.598 40.7784 112.566 41.0063 112.549 41.1515H107.054Z" fill="#231F20"/>
<path d="M115.604 40.567H115.636C115.83 40.2907 116.105 39.9503 116.331 39.674L118.626 36.9626H120.34L117.317 40.1939L120.76 44.8213H119.03L116.331 41.0551L115.604 41.8663V44.8213H114.197V33.2932H115.604V40.567Z" fill="#231F20"/>
<path d="M128.228 42.6775C128.228 43.4898 128.244 44.2046 128.293 44.8213H127.032L126.951 43.5382H126.919C126.547 44.1715 125.723 45 124.332 45C123.104 45 121.633 44.3187 121.633 41.5577V36.9626H123.056V41.3149C123.056 42.8085 123.508 43.8145 124.801 43.8145C125.755 43.8145 126.418 43.1494 126.676 42.5161C126.757 42.3043 126.806 42.045 126.806 41.7848V36.9626H128.228V42.6775Z" fill="#231F20"/>
<path d="M130.427 39.4138C130.427 38.4885 130.411 37.6931 130.362 36.9626H131.607L131.656 38.5047H131.72C132.076 37.4506 132.933 36.7839 133.886 36.7839C134.048 36.7839 134.161 36.8 134.29 36.8323V38.18C134.145 38.1477 133.999 38.1319 133.806 38.1319C132.803 38.1319 132.092 38.8947 131.898 39.966C131.865 40.1616 131.833 40.3884 131.833 40.6324V44.8213H130.427V39.4138Z" fill="#231F20"/>
<path d="M135.615 36.9627H137.037V44.8214H135.615V36.9627ZM137.199 34.7543C137.216 35.2408 136.86 35.6308 136.294 35.6308C135.793 35.6308 135.438 35.2408 135.438 34.7543C135.438 34.2509 135.809 33.8608 136.327 33.8608C136.86 33.8608 137.199 34.2509 137.199 34.7543Z" fill="#231F20"/>
<path d="M140.949 35.0797V36.9626H142.986V38.0509H140.949V42.2886C140.949 43.2623 141.224 43.8145 142.016 43.8145C142.404 43.8145 142.63 43.7822 142.84 43.7177L142.905 44.7894C142.63 44.9032 142.194 45 141.644 45C140.982 45 140.448 44.7725 140.109 44.3832C139.704 43.9609 139.559 43.2623 139.559 42.337V38.0509H138.347V36.9626H139.559V35.5174L140.949 35.0797Z" fill="#231F20"/>
<path d="M148.547 40.8106C146.995 40.7783 145.232 41.0546 145.232 42.5801C145.232 43.5059 145.847 43.9439 146.574 43.9439C147.593 43.9439 148.24 43.2941 148.466 42.6286C148.514 42.4829 148.547 42.3208 148.547 42.1744V40.8106ZM149.92 42.9371C149.92 43.62 149.953 44.2859 150.05 44.8212H148.757L148.643 43.8302H148.595C148.158 44.4473 147.318 44.9995 146.203 44.9995C144.618 44.9995 143.811 43.8786 143.811 42.7427C143.811 40.8429 145.491 39.8034 148.514 39.8207V39.6574C148.514 39.0084 148.336 37.839 146.736 37.839C146.008 37.839 145.249 38.0665 144.699 38.4235L144.376 37.482C145.022 37.059 145.96 36.7838 146.946 36.7838C149.338 36.7838 149.92 38.4235 149.92 39.9982V42.9371Z" fill="#231F20"/>
<path d="M151.86 43.3599C152.281 43.6362 153.024 43.9283 153.736 43.9283C154.77 43.9283 155.255 43.4091 155.255 42.7593C155.255 42.0765 154.851 41.7037 153.8 41.3149C152.394 40.8107 151.731 40.0306 151.731 39.0892C151.731 37.823 152.749 36.7839 154.431 36.7839C155.223 36.7839 155.918 37.011 156.354 37.2708L155.998 38.3099C155.691 38.1154 155.126 37.8557 154.398 37.8557C153.558 37.8557 153.089 38.3429 153.089 38.9278C153.089 39.5768 153.558 39.8692 154.576 40.2585C155.934 40.7784 156.629 41.4601 156.629 42.6291C156.629 44.0097 155.563 45 153.703 45C152.846 45 152.054 44.7721 151.505 44.4474L151.86 43.3599Z" fill="#231F20"/>
<path d="M163.014 44.8216H161.607V33.8779H163.014V44.8216Z" fill="#231F20"/>
<path d="M165.422 39.0891C165.422 38.2779 165.406 37.6112 165.357 36.9626H166.618L166.698 38.2618H166.731C167.119 37.5148 168.025 36.7839 169.317 36.7839C170.401 36.7839 172.081 37.4329 172.081 40.1294V44.8213H170.66V40.2907C170.66 39.0246 170.19 37.9694 168.849 37.9694C167.911 37.9694 167.184 38.6353 166.941 39.43C166.877 39.6094 166.845 39.8531 166.845 40.0959V44.8213H165.422V39.0891Z" fill="#231F20"/>
<path d="M179.565 40.1617C179.565 39.9822 179.549 39.739 179.5 39.561C179.29 38.6515 178.515 37.9037 177.447 37.9037C175.977 37.9037 175.104 39.2033 175.104 40.9406C175.104 42.5322 175.88 43.8468 177.415 43.8468C178.369 43.8468 179.242 43.2135 179.5 42.1422C179.549 41.9474 179.565 41.7525 179.565 41.5254V40.1617ZM180.987 33.2932V42.7924C180.987 43.4898 181.004 44.286 181.053 44.8213H179.775L179.711 43.4575H179.679C179.242 44.3344 178.288 45 177.011 45C175.12 45 173.665 43.393 173.665 41.0063C173.649 38.3917 175.266 36.7839 177.173 36.7839C178.369 36.7839 179.177 37.3519 179.533 37.9855H179.565V33.2932H180.987Z" fill="#231F20"/>
<path d="M184.06 40.9074C184.06 42.6286 185.046 43.9278 186.436 43.9278C187.793 43.9278 188.813 42.6447 188.813 40.8751C188.813 39.5444 188.149 37.8556 186.468 37.8556C184.787 37.8556 184.06 39.4134 184.06 40.9074ZM190.267 40.8267C190.267 43.7333 188.263 44.9995 186.371 44.9995C184.253 44.9995 182.621 43.4413 182.621 40.9566C182.621 38.3259 184.335 36.7838 186.501 36.7838C188.747 36.7838 190.267 38.4235 190.267 40.8267Z" fill="#231F20"/>
<path d="M191.899 39.0891C191.899 38.2779 191.883 37.6112 191.835 36.9626H193.095L193.177 38.2618H193.209C193.597 37.5148 194.502 36.7839 195.795 36.7839C196.878 36.7839 198.56 37.4329 198.56 40.1294V44.8213H197.137V40.2907C197.137 39.0246 196.668 37.9694 195.327 37.9694C194.39 37.9694 193.661 38.6353 193.419 39.43C193.354 39.6094 193.322 39.8531 193.322 40.0959V44.8213H191.899V39.0891Z" fill="#231F20"/>
<path d="M205.671 40.1294C205.687 39.2202 205.299 37.8069 203.7 37.8069C202.261 37.8069 201.631 39.1376 201.517 40.1294H205.671ZM201.501 41.1515C201.533 43.0844 202.762 43.8791 204.184 43.8791C205.202 43.8791 205.817 43.7016 206.35 43.4737L206.593 44.4966C206.092 44.7237 205.235 45 203.99 45C201.582 45 200.144 43.393 200.144 41.0224C200.144 38.6515 201.533 36.7839 203.812 36.7839C206.366 36.7839 207.045 39.0407 207.045 40.4864C207.045 40.7784 207.013 41.0063 206.997 41.1515H201.501Z" fill="#231F20"/>
<path d="M208.452 43.3599C208.872 43.6362 209.616 43.9283 210.326 43.9283C211.362 43.9283 211.846 43.4091 211.846 42.7593C211.846 42.0765 211.442 41.7037 210.392 41.3149C208.986 40.8107 208.322 40.0306 208.322 39.0892C208.322 37.823 209.341 36.7839 211.022 36.7839C211.814 36.7839 212.509 37.011 212.945 37.2708L212.59 38.3099C212.283 38.1154 211.717 37.8557 210.99 37.8557C210.149 37.8557 209.68 38.3429 209.68 38.9278C209.68 39.5768 210.149 39.8692 211.167 40.2585C212.525 40.7784 213.221 41.4601 213.221 42.6291C213.221 44.0097 212.153 45 210.294 45C209.437 45 208.646 44.7721 208.097 44.4474L208.452 43.3599Z" fill="#231F20"/>
<path d="M214.885 36.9627H216.307V44.8214H214.885V36.9627ZM216.469 34.7543C216.485 35.2408 216.13 35.6308 215.564 35.6308C215.062 35.6308 214.707 35.2408 214.707 34.7543C214.707 34.2509 215.078 33.8608 215.596 33.8608C216.13 33.8608 216.469 34.2509 216.469 34.7543Z" fill="#231F20"/>
<path d="M222.628 40.8106C221.076 40.7783 219.314 41.0546 219.314 42.5801C219.314 43.5059 219.928 43.9439 220.656 43.9439C221.674 43.9439 222.321 43.2941 222.547 42.6286C222.595 42.4829 222.628 42.3208 222.628 42.1744V40.8106ZM224.001 42.9371C224.001 43.62 224.034 44.2859 224.131 44.8212H222.838L222.724 43.8302H222.676C222.239 44.4473 221.399 44.9995 220.284 44.9995C218.7 44.9995 217.892 43.8786 217.892 42.7427C217.892 40.8429 219.572 39.8034 222.595 39.8207V39.6574C222.595 39.0084 222.417 37.839 220.817 37.839C220.089 37.839 219.33 38.0665 218.781 38.4235L218.457 37.482C219.104 37.059 220.041 36.7838 221.027 36.7838C223.419 36.7838 224.001 38.4235 224.001 39.9982V42.9371Z" fill="#231F20"/>
</g>
<defs>
<clipPath id="clip0_32_7478">
<rect width="300" height="45" fill="white"/>
</clipPath>
</defs>
</svg>
