<svg width="32" height="32" viewBox="0 0 32 32" fill="none" xmlns="http://www.w3.org/2000/svg">
<path d="M18.5319 13.4699L13.4719 18.5299C12.8219 17.8799 12.4219 16.9899 12.4219 15.9999C12.4219 14.0199 14.0218 12.4199 16.0019 12.4199C16.9919 12.4199 17.8819 12.8199 18.5319 13.4699Z" stroke="#1E1E1E" stroke-width="2" stroke-linecap="round" stroke-linejoin="round"/>
<path d="M21.82 9.77048C20.0699 8.45047 18.0699 7.73047 15.9999 7.73047C12.4699 7.73047 9.17986 9.81048 6.88985 13.4105C5.98984 14.8205 5.98984 17.1905 6.88985 18.6005C7.67985 19.8406 8.59986 20.9106 9.59986 21.7706" stroke="#1E1E1E" stroke-width="2" stroke-linecap="round" stroke-linejoin="round"/>
<path d="M12.4219 23.5298C13.5619 24.0098 14.7718 24.2698 16.0019 24.2698C19.5319 24.2698 22.8219 22.1898 25.1119 18.5898C26.0119 17.1798 26.0119 14.8098 25.1119 13.3997C24.7819 12.8797 24.4219 12.3897 24.0519 11.9297" stroke="#1E1E1E" stroke-width="2" stroke-linecap="round" stroke-linejoin="round"/>
<path d="M19.5114 16.7012C19.2514 18.1112 18.1014 19.2612 16.6914 19.5212" stroke="#1E1E1E" stroke-width="2" stroke-linecap="round" stroke-linejoin="round"/>
<path d="M13.47 18.5312L6 26.0013" stroke="#1E1E1E" stroke-width="2" stroke-linecap="round" stroke-linejoin="round"/>
<path d="M26.0013 6L18.5312 13.47" stroke="#1E1E1E" stroke-width="2" stroke-linecap="round" stroke-linejoin="round"/>
</svg>
