<svg width="20" height="21" viewBox="0 0 20 21" fill="none" xmlns="http://www.w3.org/2000/svg">
<g id="ikon progress akun">
<g id="Vector">
<mask id="path-1-inside-1_1654_805" fill="white">
<path d="M10.9771 0.5V0.52003V2.52303C15.378 3.06385 18.4957 7.05984 17.9544 11.4564C17.4932 15.1019 14.6262 17.9962 10.9771 18.4269V20.4299C16.4908 19.8791 20.5007 14.9917 19.9493 9.48348C19.4982 4.72634 15.7189 0.970706 10.9771 0.5ZM8.97218 0.530045C7.01735 0.72033 5.15274 1.47146 3.62897 2.73335L5.06252 4.21557C6.18529 3.31422 7.53864 2.73335 8.97218 2.53305V0.530045ZM2.21548 4.14547C0.952355 5.66775 0.200496 7.52053 0 9.48348H2.00496C2.19543 8.06134 2.75682 6.70931 3.64902 5.57762L2.21548 4.14547ZM13.4833 6.97972L8.59124 11.8671L6.46598 9.74387L5.40336 10.8055L8.59124 13.9902L14.546 8.04131L13.4833 6.97972ZM0.0100248 11.4865C0.21052 13.4494 0.982429 15.3022 2.2255 16.8245L3.64902 15.3923C2.76684 14.2606 2.19543 12.9086 2.01498 11.4865H0.0100248ZM5.06252 16.8645L3.62897 18.2366C5.14271 19.4985 7.00732 20.2897 8.97218 20.5V18.497C7.54866 18.3167 6.19532 17.7459 5.06252 16.8645Z"/>
</mask>
<path d="M10.9771 0.5V0.52003V2.52303C15.378 3.06385 18.4957 7.05984 17.9544 11.4564C17.4932 15.1019 14.6262 17.9962 10.9771 18.4269V20.4299C16.4908 19.8791 20.5007 14.9917 19.9493 9.48348C19.4982 4.72634 15.7189 0.970706 10.9771 0.5ZM8.97218 0.530045C7.01735 0.72033 5.15274 1.47146 3.62897 2.73335L5.06252 4.21557C6.18529 3.31422 7.53864 2.73335 8.97218 2.53305V0.530045ZM2.21548 4.14547C0.952355 5.66775 0.200496 7.52053 0 9.48348H2.00496C2.19543 8.06134 2.75682 6.70931 3.64902 5.57762L2.21548 4.14547ZM13.4833 6.97972L8.59124 11.8671L6.46598 9.74387L5.40336 10.8055L8.59124 13.9902L14.546 8.04131L13.4833 6.97972ZM0.0100248 11.4865C0.21052 13.4494 0.982429 15.3022 2.2255 16.8245L3.64902 15.3923C2.76684 14.2606 2.19543 12.9086 2.01498 11.4865H0.0100248ZM5.06252 16.8645L3.62897 18.2366C5.14271 19.4985 7.00732 20.2897 8.97218 20.5V18.497C7.54866 18.3167 6.19532 17.7459 5.06252 16.8645Z" fill="#434343"/>
<path d="M10.9771 0.5L11.6676 -6.45528L3.98767 -7.21766V0.5H10.9771ZM10.9771 2.52303H3.98767V8.70616L10.1246 9.46032L10.9771 2.52303ZM17.9544 11.4564L24.8886 12.3336L24.89 12.3221L24.8915 12.3106L17.9544 11.4564ZM10.9771 18.4269L10.1579 11.4856L3.98767 12.2138V18.4269H10.9771ZM10.9771 20.4299H3.98767V28.1524L11.6719 27.3847L10.9771 20.4299ZM19.9493 9.48348L12.9911 10.1433L12.9928 10.1615L12.9946 10.1796L19.9493 9.48348ZM8.97218 0.530045H15.9616V-7.17282L8.29502 -6.42654L8.97218 0.530045ZM3.62897 2.73335L-0.829058 -2.64983L-6.64379 2.16558L-1.39514 7.59246L3.62897 2.73335ZM5.06252 4.21557L0.0384034 9.07468L4.46867 13.6554L9.43806 9.66601L5.06252 4.21557ZM8.97218 2.53305L9.93938 9.45527L15.9616 8.61382V2.53305H8.97218ZM2.21548 4.14547L7.15537 -0.799238L1.73189 -6.21743L-3.16343 -0.317711L2.21548 4.14547ZM0 9.48348L-6.95329 8.77326L-7.73974 16.4729H0V9.48348ZM2.00496 9.48348V16.4729H8.12071L8.93257 10.4113L2.00496 9.48348ZM3.64902 5.57762L9.13786 9.90489L12.9852 5.02487L8.58891 0.632909L3.64902 5.57762ZM13.4833 6.97972L18.4232 2.03502L13.4833 -2.90007L8.54344 2.03501L13.4833 6.97972ZM8.59124 11.8671L3.65135 16.8118L8.59124 21.7468L13.5311 16.8118L8.59124 11.8671ZM6.46598 9.74387L11.4059 4.79916L6.46598 -0.135923L1.52609 4.79916L6.46598 9.74387ZM5.40336 10.8055L0.463466 5.86075L-4.48606 10.8055L0.463465 15.7502L5.40336 10.8055ZM8.59124 13.9902L3.65135 18.9349L8.59124 23.87L13.5311 18.9349L8.59124 13.9902ZM14.546 8.04131L19.4859 12.986L24.4354 8.04132L19.4859 3.09661L14.546 8.04131ZM0.0100248 11.4865V4.49701H-7.72971L-6.94327 12.1967L0.0100248 11.4865ZM2.2255 16.8245L-3.18828 21.2453L1.71624 27.2514L7.18271 21.7518L2.2255 16.8245ZM3.64902 15.3923L8.60623 20.3197L12.9475 15.9521L9.16152 11.0952L3.64902 15.3923ZM2.01498 11.4865L8.94886 10.6067L8.17364 4.49701H2.01498V11.4865ZM5.06252 16.8645L9.35441 11.348L4.59033 7.64154L0.22969 11.8151L5.06252 16.8645ZM3.62897 18.2366L-1.20385 13.1872L-6.85528 18.5962L-0.8465 23.6053L3.62897 18.2366ZM8.97218 20.5L8.22829 27.4498L15.9616 28.2775V20.5H8.97218ZM8.97218 18.497H15.9616V12.3368L9.85029 11.5629L8.97218 18.497ZM3.98767 0.5V0.52003H17.9666V0.5H3.98767ZM3.98767 0.52003V2.52303H17.9666V0.52003H3.98767ZM10.1246 9.46032C10.6922 9.53007 11.087 10.0363 11.0173 10.6023L24.8915 12.3106C25.9045 4.08338 20.0638 -3.40238 11.8296 -4.41425L10.1246 9.46032ZM11.0202 10.5793C10.9543 11.1 10.5564 11.4386 10.1579 11.4856L11.7963 25.3682C18.6959 24.5539 24.0322 19.1039 24.8886 12.3336L11.0202 10.5793ZM3.98767 18.4269V20.4299H17.9666V18.4269H3.98767ZM11.6719 27.3847C21.0137 26.4515 27.8413 18.1506 26.904 8.78733L12.9946 10.1796C13.1601 11.8329 11.9679 13.3067 10.2823 13.475L11.6719 27.3847ZM26.9076 8.82363C26.1379 0.707185 19.7026 -5.65765 11.6676 -6.45528L10.2867 7.45528C11.7351 7.59906 12.8585 8.74549 12.9911 10.1433L26.9076 8.82363ZM8.29502 -6.42654C5.00338 -6.10613 1.80942 -4.83486 -0.829058 -2.64983L8.087 8.11653C8.49606 7.77777 9.03132 7.54679 9.64934 7.48663L8.29502 -6.42654ZM-1.39514 7.59246L0.0384034 9.07468L10.0866 -0.643538L8.65308 -2.12576L-1.39514 7.59246ZM9.43806 9.66601C9.567 9.5625 9.73959 9.48319 9.93938 9.45527L8.00498 -4.38917C5.33768 -4.01649 2.80358 -2.93406 0.686966 -1.23486L9.43806 9.66601ZM15.9616 2.53305V0.530045H1.98271V2.53305H15.9616ZM-3.16343 -0.317711C-5.34795 2.31501 -6.61773 5.48794 -6.95329 8.77326L6.95329 10.1937C7.01872 9.55312 7.25266 9.02049 7.59439 8.60865L-3.16343 -0.317711ZM0 16.4729H2.00496V2.49401H0V16.4729ZM8.93257 10.4113C8.96089 10.1998 9.04031 10.0286 9.13786 9.90489L-1.83982 1.25034C-3.52668 3.39001 -4.57003 5.92284 -4.92265 8.55564L8.93257 10.4113ZM8.58891 0.632909L7.15537 -0.799238L-2.72441 9.09017L-1.29087 10.5223L8.58891 0.632909ZM8.54344 2.03501L3.65135 6.92234L13.5311 16.8118L18.4232 11.9244L8.54344 2.03501ZM13.5311 6.92234L11.4059 4.79916L1.52609 14.6886L3.65135 16.8118L13.5311 6.92234ZM1.52609 4.79916L0.463466 5.86075L10.3433 15.7502L11.4059 14.6886L1.52609 4.79916ZM0.463465 15.7502L3.65135 18.9349L13.5311 9.04553L10.3433 5.86075L0.463465 15.7502ZM13.5311 18.9349L19.4859 12.986L9.60607 3.09661L3.65135 9.04553L13.5311 18.9349ZM19.4859 3.09661L18.4232 2.03502L8.54344 11.9244L9.60606 12.986L19.4859 3.09661ZM-6.94327 12.1967C-6.60331 15.5251 -5.29368 18.667 -3.18828 21.2453L7.63929 12.4037C7.25853 11.9374 7.02435 11.3738 6.96332 10.7763L-6.94327 12.1967ZM7.18271 21.7518L8.60623 20.3197L-1.30819 10.465L-2.73171 11.8971L7.18271 21.7518ZM9.16152 11.0952C9.03369 10.9313 8.96756 10.7541 8.94886 10.6067L-4.91889 12.3663C-4.57671 15.0631 -3.50001 17.59 -1.86347 19.6894L9.16152 11.0952ZM2.01498 4.49701H0.0100248V18.4759H2.01498V4.49701ZM0.22969 11.8151L-1.20385 13.1872L8.4618 23.286L9.89534 21.9139L0.22969 11.8151ZM-0.8465 23.6053C1.72712 25.7507 4.89003 27.0924 8.22829 27.4498L9.71607 13.5502C9.12462 13.4869 8.5583 13.2463 8.10444 12.8679L-0.8465 23.6053ZM15.9616 20.5V18.497H1.98271V20.5H15.9616ZM9.85029 11.5629C9.6989 11.5437 9.51931 11.4763 9.35441 11.348L0.770624 22.3811C2.87132 24.0154 5.39842 25.0897 8.09407 25.4311L9.85029 11.5629Z" fill="#434343" mask="url(#path-1-inside-1_1654_805)"/>
</g>
</g>
</svg>
