<svg width="20" height="20" viewBox="0 0 20 20" fill="none" xmlns="http://www.w3.org/2000/svg">
<path d="M14.1561 2.73934L13.7135 3.47694C13.6522 3.58211 13.6335 3.70678 13.6613 3.82531C13.6891 3.94383 13.7613 4.0472 13.863 4.11414C15.224 5.04258 16.2518 6.38264 16.7957 7.93785C17.3396 9.49306 17.3709 11.1816 16.8851 12.7559C16.3993 14.3302 15.4219 15.7075 14.0962 16.6858C12.7705 17.6641 11.1663 18.1919 9.5187 18.1919C7.87113 18.1919 6.26689 17.6641 4.9412 16.6858C3.61551 15.7075 2.63811 14.3302 2.15229 12.7559C1.66647 11.1816 1.69779 9.49306 2.24167 7.93785C2.78555 6.38264 3.81337 5.04258 5.17443 4.11414C5.27591 4.04714 5.34789 3.94383 5.37559 3.82542C5.40329 3.70701 5.38461 3.58249 5.32338 3.47742L4.88272 2.74172C4.84967 2.68608 4.80576 2.63768 4.75359 2.5994C4.70142 2.56112 4.64207 2.53374 4.57909 2.51891C4.5161 2.50407 4.45078 2.50208 4.38701 2.51305C4.32324 2.52403 4.26233 2.54774 4.20793 2.58277C2.51523 3.72061 1.23282 5.37211 0.549703 7.29389C-0.133415 9.21568 -0.181104 11.3061 0.413663 13.257C1.00843 15.2079 2.21419 16.9162 3.85324 18.1301C5.49229 19.3439 7.47793 19.9991 9.51751 19.9991C11.5571 19.9991 13.5427 19.3439 15.1818 18.1301C16.8208 16.9162 18.0266 15.2079 18.6214 13.257C19.2161 11.3061 19.1684 9.21568 18.4853 7.29389C17.8022 5.37211 16.5198 3.72061 14.8271 2.58277C14.7732 2.54745 14.7127 2.52344 14.6493 2.51219C14.5859 2.50094 14.5208 2.50269 14.4581 2.51733C14.3953 2.53197 14.3362 2.55919 14.2843 2.59736C14.2324 2.63552 14.1888 2.68382 14.1561 2.73934Z" fill="white"/>
<path d="M9.99403 0H9.04228C8.77946 0 8.56641 0.213057 8.56641 0.475875V9.04163C8.56641 9.30445 8.77946 9.51751 9.04228 9.51751H9.99403C10.2569 9.51751 10.4699 9.30445 10.4699 9.04163V0.475875C10.4699 0.213057 10.2569 0 9.99403 0Z" fill="white"/>
</svg>
