<svg width="24" height="24" viewBox="0 0 24 24" fill="none" xmlns="http://www.w3.org/2000/svg">
<path fill-rule="evenodd" clip-rule="evenodd" d="M13.7797 2.88013C13.2607 2.47305 12.6099 2.27317 11.9531 2.31794C11.3088 2.29176 10.6761 2.50004 10.173 2.90517C9.6646 3.31452 9.32435 3.8959 9.21608 4.53882C9.20363 4.58442 9.1823 4.62717 9.15323 4.66459C9.12204 4.70475 9.08269 4.73781 9.0378 4.76161L8.2859 5.12651C7.58028 5.46714 6.95464 5.9531 6.45002 6.55252L6.44878 6.55401C5.73053 7.41202 5.31586 8.0997 5.11086 8.9802C4.92205 9.79114 4.92212 10.737 4.9222 12.0442L4.92221 12.1301C4.92221 12.5247 4.70643 12.9635 4.32537 13.5517C4.26626 13.6429 4.20052 13.7419 4.13239 13.8444C4.0055 14.0354 3.87035 14.2388 3.7545 14.4278C3.56957 14.7297 3.38573 15.0692 3.27277 15.4309C3.14704 15.8348 3.02103 16.5527 3.26026 17.2185C3.38708 17.5715 3.61923 17.9134 4.00015 18.1596C4.37514 18.4019 4.84042 18.5166 5.37928 18.5166H8.14529C8.19053 18.7846 8.26447 19.0477 8.36627 19.3012C8.55756 19.7776 8.84326 20.2103 9.20617 20.5733C9.56908 20.9363 10.0017 21.2221 10.478 21.4136C10.9498 21.6032 11.4548 21.6963 11.9632 21.6875C12.4712 21.6957 12.9758 21.6021 13.4473 21.4123C13.9232 21.2207 14.3555 20.935 14.7183 20.5722C15.081 20.2094 15.3668 19.7771 15.5584 19.3012C15.6604 19.0478 15.7347 18.7847 15.7802 18.5166H18.5624C18.9322 18.5338 19.3006 18.4577 19.6337 18.2953C19.9731 18.1298 20.2645 17.8801 20.4801 17.57C20.6957 17.2599 20.8282 16.8998 20.8651 16.5239C20.9009 16.159 20.8454 15.7911 20.7038 15.4533C20.5884 15.1177 20.4047 14.7934 20.2223 14.5025C20.1159 14.3328 19.9873 14.1402 19.8643 13.956C19.7821 13.833 19.7023 13.7135 19.6334 13.6073C19.2344 12.9918 19.0051 12.523 19.0051 12.1301L19.0051 12.0442C19.0052 10.737 19.0053 9.79108 18.8163 8.98009C18.6111 8.09951 18.1961 7.41181 17.4774 6.55382L17.4762 6.55241C16.9713 5.95291 16.3445 5.46656 15.6385 5.12607L14.9156 4.77519C14.8799 4.75041 14.8488 4.71948 14.8238 4.68379C14.7962 4.64424 14.7765 4.59966 14.766 4.55261C14.6592 3.89118 14.3072 3.29395 13.7797 2.88013ZM14.348 18.5166H9.5771C9.60141 18.6057 9.63088 18.6935 9.66543 18.7795C9.78633 19.0806 9.9669 19.3541 10.1963 19.5835C10.4256 19.8129 10.6991 19.9936 11.0001 20.1146C11.3011 20.2356 11.6235 20.2944 11.9479 20.2875C11.9574 20.2873 11.967 20.2873 11.9766 20.2875C12.301 20.294 12.6234 20.2348 12.9244 20.1136C13.2254 19.9924 13.4989 19.8117 13.7283 19.5822C13.9578 19.3528 14.1385 19.0794 14.2597 18.7784C14.2942 18.6927 14.3236 18.6053 14.348 18.5166ZM8.79322 17.1166H18.5801C18.5932 17.1166 18.6062 17.117 18.6193 17.1177C18.7576 17.1255 18.8956 17.0977 19.0201 17.037C19.1446 16.9763 19.2515 16.8847 19.3306 16.7709C19.4096 16.6572 19.4583 16.5251 19.4718 16.3872C19.4853 16.2493 19.4633 16.1103 19.4079 15.9833C19.3992 15.9636 19.3915 15.9435 19.3848 15.923C19.3244 15.7406 19.2082 15.5206 19.0361 15.2461C18.9329 15.0813 18.832 14.9309 18.724 14.7696C18.6412 14.6461 18.5542 14.5163 18.4587 14.3689C18.0731 13.7741 17.6051 12.985 17.6051 12.1301C17.6051 10.7126 17.6008 9.93301 17.4528 9.29777C17.3169 8.7146 17.0499 8.22371 16.4047 7.45343C16.0269 7.00512 15.5586 6.64176 15.0306 6.38716L15.0289 6.38637L14.2681 6.01712C14.2489 6.00782 14.2302 5.99766 14.212 5.98666C14.0007 5.85913 13.8184 5.68881 13.6769 5.48664C13.5354 5.28447 13.4377 5.05492 13.3902 4.81276C13.3884 4.80343 13.3868 4.79407 13.3853 4.78468C13.3364 4.46708 13.1684 4.17999 12.9156 3.98165C12.6627 3.7833 12.3439 3.68855 12.0238 3.71661C11.9895 3.71961 11.9551 3.72008 11.9207 3.71802C11.6064 3.69915 11.2963 3.79812 11.051 3.99562C10.8057 4.19312 10.6429 4.47496 10.5942 4.78609C10.5918 4.80165 10.5889 4.81712 10.5854 4.83249C10.5285 5.08392 10.417 5.31978 10.2589 5.52337C10.1008 5.72696 9.89982 5.89331 9.67028 6.01065L9.6573 6.01712L8.89644 6.38637L8.89504 6.38705C8.36721 6.64176 7.89919 7.00516 7.52165 7.45342C6.87704 8.22358 6.61017 8.71446 6.47439 9.29766C6.32647 9.93296 6.32221 10.7126 6.32221 12.1301C6.32221 12.9832 5.87236 13.7387 5.50034 14.3129C5.42083 14.4356 5.34612 14.5479 5.27463 14.6553C5.15967 14.828 5.05304 14.9882 4.94826 15.1592C4.78529 15.4252 4.6714 15.649 4.60943 15.8473C4.52434 16.1207 4.48666 16.4915 4.57779 16.7451C4.61616 16.8519 4.67273 16.9273 4.75994 16.9837C4.85308 17.0439 5.03533 17.1166 5.37928 17.1166H8.79208C8.79246 17.1166 8.79284 17.1166 8.79322 17.1166Z" fill="#212225"/>
</svg>
