<svg width="20" height="20" viewBox="0 0 20 20" fill="none" xmlns="http://www.w3.org/2000/svg">
<path fill-rule="evenodd" clip-rule="evenodd" d="M4.534 12.7C6.31466 12.7 7.75818 11.2673 7.75818 9.5C7.75818 7.73269 6.31466 6.3 4.534 6.3C2.75334 6.3 1.30982 7.73269 1.30982 9.5C1.30982 11.2673 2.75334 12.7 4.534 12.7ZM4.534 14C7.03806 14 9.068 11.9853 9.068 9.5C9.068 7.01472 7.03806 5 4.534 5C2.02994 5 0 7.01472 0 9.5C0 11.9853 2.02994 14 4.534 14Z" fill="#333333"/>
<path fill-rule="evenodd" clip-rule="evenodd" d="M3.17382 3.90863C3.17382 1.74996 4.91055 0 7.05291 0H16.1209C18.2633 0 20 1.74995 20 3.90863V16.0914C20 18.25 18.2633 20 16.1209 20H7.05291C4.91055 20 3.17382 18.25 3.17382 16.0914V13.198H4.88667V16.0914C4.88667 17.2969 5.85653 18.2741 7.05291 18.2741H16.1209C17.3173 18.2741 18.2872 17.2969 18.2872 16.0914V3.90863C18.2872 2.70313 17.3173 1.72589 16.1209 1.72589H7.05291C5.85653 1.72589 4.88667 2.70314 4.88667 3.90863V5.88832H3.17382V3.90863Z" fill="#333333"/>
<path fill-rule="evenodd" clip-rule="evenodd" d="M11.335 5.93906C11.335 5.51854 11.6733 5.17764 12.0907 5.17764H16.1209C16.5382 5.17764 16.8766 5.51854 16.8766 5.93906C16.8766 6.35958 16.5382 6.70048 16.1209 6.70048H12.0907C11.6733 6.70048 11.335 6.35958 11.335 5.93906Z" fill="#333333"/>
<path fill-rule="evenodd" clip-rule="evenodd" d="M11.335 9.99998C11.335 9.57945 11.6733 9.23855 12.0907 9.23855H16.1209C16.5382 9.23855 16.8766 9.57945 16.8766 9.99998C16.8766 10.4205 16.5382 10.7614 16.1209 10.7614H12.0907C11.6733 10.7614 11.335 10.4205 11.335 9.99998Z" fill="#333333"/>
<path fill-rule="evenodd" clip-rule="evenodd" d="M4.534 11.0152C4.36706 11.0152 4.23173 10.8788 4.23173 10.7106V8.27409C4.23173 8.10588 4.36706 7.96952 4.534 7.96952C4.70094 7.96952 4.83627 8.10588 4.83627 8.27409V10.7106C4.83627 10.8788 4.70094 11.0152 4.534 11.0152Z" fill="#333333"/>
<path fill-rule="evenodd" clip-rule="evenodd" d="M3.02267 9.49236C3.02267 9.32415 3.158 9.18779 3.32493 9.18779H5.74307C5.91 9.18779 6.04533 9.32415 6.04533 9.49236C6.04533 9.66057 5.91 9.79693 5.74307 9.79693H3.32493C3.158 9.79693 3.02267 9.66057 3.02267 9.49236Z" fill="#333333"/>
<path fill-rule="evenodd" clip-rule="evenodd" d="M11.335 14.0609C11.335 13.6404 11.6733 13.2995 12.0907 13.2995H16.1209C16.5382 13.2995 16.8766 13.6404 16.8766 14.0609C16.8766 14.4814 16.5382 14.8223 16.1209 14.8223H12.0907C11.6733 14.8223 11.335 14.4814 11.335 14.0609Z" fill="#333333"/>
</svg>
