<svg width="20" height="21" viewBox="0 0 20 21" fill="none" xmlns="http://www.w3.org/2000/svg">
<path fill-rule="evenodd" clip-rule="evenodd" d="M3.5772 2.6703C5.37393 1.16212 7.62935 0.394041 9.9241 0.51178C12.2188 0.629517 14.3927 1.6248 16.0424 3.30911C16.941 4.2266 17.6507 5.31449 18.1416 6.50441C18.3319 6.96563 18.1275 7.50035 17.6852 7.69874C17.2429 7.89714 16.73 7.68408 16.5398 7.22286C16.1374 6.24762 15.5565 5.35769 14.8224 4.60819C13.4751 3.23261 11.7038 2.42347 9.8384 2.32776C7.97306 2.23206 6.13667 2.85603 4.67068 4.08657C3.20435 5.3174 2.20791 7.072 1.87015 9.02576C1.53237 10.9797 1.87706 12.9961 2.8385 14.6996C3.79975 16.4027 5.31099 17.6754 7.0887 18.2847C8.86614 18.8939 10.792 18.7997 12.5092 18.0191C14.2267 17.2383 15.6209 15.8227 16.4296 14.0321C16.6348 13.5779 17.1543 13.3831 17.5899 13.597C18.0255 13.8109 18.2124 14.3525 18.0072 14.8068C17.0202 16.9919 15.3152 18.7269 13.2061 19.6857C11.0966 20.6447 8.7289 20.7608 6.54414 20.0119C4.35964 19.2632 2.50967 17.7018 1.33567 15.6217C0.161844 13.542 -0.257471 11.0837 0.154055 8.70322C0.565604 6.32261 1.78079 4.17819 3.5772 2.6703Z" fill="white"/>
<path fill-rule="evenodd" clip-rule="evenodd" d="M19.3377 3.51952C19.8051 3.64032 20.09 4.1333 19.9742 4.62063L19.275 7.56192C19.0304 8.59073 18.0322 9.21801 17.0455 8.96299L14.2247 8.23392C13.7573 8.11312 13.4723 7.62014 13.5882 7.13281C13.704 6.64548 14.1768 6.34835 14.6442 6.46915L17.4651 7.19822C17.517 7.21164 17.5695 7.17863 17.5824 7.12448L18.2816 4.18319C18.3975 3.69586 18.8703 3.39873 19.3377 3.51952Z" fill="white"/>
<path fill-rule="evenodd" clip-rule="evenodd" d="M11.5274 10.5009H7.65235C7.11732 10.5009 6.6836 10.9531 6.6836 11.511V13.5312C6.6836 14.089 7.11732 14.5413 7.65235 14.5413H11.5274C12.0624 14.5413 12.4961 14.089 12.4961 13.5312V11.511C12.4961 10.9531 12.0624 10.5009 11.5274 10.5009ZM7.65235 9.49077C6.5823 9.49077 5.71484 10.3952 5.71484 11.511V13.5312C5.71484 14.6469 6.5823 15.5514 7.65235 15.5514H11.5274C12.5974 15.5514 13.4649 14.6469 13.4649 13.5312V11.511C13.4649 10.3952 12.5974 9.49077 11.5274 9.49077H7.65235Z" fill="white"/>
<path fill-rule="evenodd" clip-rule="evenodd" d="M7.16797 7.47056C7.16797 6.07591 8.25229 4.94531 9.58986 4.94531C10.9274 4.94531 12.0117 6.07591 12.0117 7.47056V8.48067H11.043V7.47056C11.043 6.63377 10.3924 5.95541 9.58986 5.95541C8.78732 5.95541 8.13673 6.63377 8.13673 7.47056V9.99582H7.16797V7.47056Z" fill="white"/>
</svg>
