<svg width="20" height="21" viewBox="0 0 20 21" fill="none" xmlns="http://www.w3.org/2000/svg">
<g id="penambahan akun yang ada">
<g id="penambahan akun yang ada_2">
<path fill-rule="evenodd" clip-rule="evenodd" d="M4.534 13.2C6.31466 13.2 7.75818 11.7673 7.75818 10C7.75818 8.23269 6.31466 6.8 4.534 6.8C2.75334 6.8 1.30982 8.23269 1.30982 10C1.30982 11.7673 2.75334 13.2 4.534 13.2ZM4.534 14.5C7.03806 14.5 9.068 12.4853 9.068 10C9.068 7.51472 7.03806 5.5 4.534 5.5C2.02994 5.5 0 7.51472 0 10C0 12.4853 2.02994 14.5 4.534 14.5Z" fill="white"/>
<path fill-rule="evenodd" clip-rule="evenodd" d="M3.17382 4.40863C3.17382 2.24996 4.91055 0.5 7.05291 0.5H16.1209C18.2633 0.5 20 2.24995 20 4.40863V16.5914C20 18.75 18.2633 20.5 16.1209 20.5H7.05291C4.91055 20.5 3.17382 18.75 3.17382 16.5914V13.698H4.88667V16.5914C4.88667 17.7969 5.85653 18.7741 7.05291 18.7741H16.1209C17.3173 18.7741 18.2872 17.7969 18.2872 16.5914V4.40863C18.2872 3.20313 17.3173 2.22589 16.1209 2.22589H7.05291C5.85653 2.22589 4.88667 3.20314 4.88667 4.40863V6.38832H3.17382V4.40863Z" fill="white"/>
<path fill-rule="evenodd" clip-rule="evenodd" d="M11.335 6.43906C11.335 6.01854 11.6733 5.67764 12.0907 5.67764H16.1209C16.5382 5.67764 16.8766 6.01854 16.8766 6.43906C16.8766 6.85958 16.5382 7.20048 16.1209 7.20048H12.0907C11.6733 7.20048 11.335 6.85958 11.335 6.43906Z" fill="white"/>
<path fill-rule="evenodd" clip-rule="evenodd" d="M11.335 10.5C11.335 10.0795 11.6733 9.73855 12.0907 9.73855H16.1209C16.5382 9.73855 16.8766 10.0795 16.8766 10.5C16.8766 10.9205 16.5382 11.2614 16.1209 11.2614H12.0907C11.6733 11.2614 11.335 10.9205 11.335 10.5Z" fill="white"/>
<path fill-rule="evenodd" clip-rule="evenodd" d="M4.534 11.5152C4.36706 11.5152 4.23173 11.3788 4.23173 11.2106V8.77409C4.23173 8.60588 4.36706 8.46952 4.534 8.46952C4.70094 8.46952 4.83627 8.60588 4.83627 8.77409V11.2106C4.83627 11.3788 4.70094 11.5152 4.534 11.5152Z" fill="white"/>
<path fill-rule="evenodd" clip-rule="evenodd" d="M3.02267 9.99236C3.02267 9.82415 3.158 9.68779 3.32493 9.68779H5.74307C5.91 9.68779 6.04533 9.82415 6.04533 9.99236C6.04533 10.1606 5.91 10.2969 5.74307 10.2969H3.32493C3.158 10.2969 3.02267 10.1606 3.02267 9.99236Z" fill="white"/>
<path fill-rule="evenodd" clip-rule="evenodd" d="M11.335 14.5609C11.335 14.1404 11.6733 13.7995 12.0907 13.7995H16.1209C16.5382 13.7995 16.8766 14.1404 16.8766 14.5609C16.8766 14.9814 16.5382 15.3223 16.1209 15.3223H12.0907C11.6733 15.3223 11.335 14.9814 11.335 14.5609Z" fill="white"/>
</g>
</g>
</svg>
