<svg width="20" height="20" viewBox="0 0 20 20" fill="none" xmlns="http://www.w3.org/2000/svg">
<path fill-rule="evenodd" clip-rule="evenodd" d="M2.9366 8.07421C3.44239 8.07421 3.85241 8.48426 3.85241 8.99007V18.1683H16.1517V8.99007C16.1517 8.48426 16.5618 8.07421 17.0676 8.07421C17.5733 8.07421 17.9834 8.48426 17.9834 8.99007V18.4785C17.9834 19.3188 17.3022 20 16.4619 20H3.54221C2.70198 20 2.02078 19.3189 2.02078 18.4785V8.99007C2.02078 8.48426 2.43081 8.07421 2.9366 8.07421Z" fill="#333333"/>
<path fill-rule="evenodd" clip-rule="evenodd" d="M7.97922 8.07421C8.48501 8.07421 8.89503 8.48426 8.89503 8.99007V15.0465C8.89503 15.5523 8.48501 15.9624 7.97922 15.9624C7.47343 15.9624 7.0634 15.5523 7.0634 15.0465V8.99007C7.0634 8.48426 7.47343 8.07421 7.97922 8.07421Z" fill="#333333"/>
<path fill-rule="evenodd" clip-rule="evenodd" d="M12.0208 8.07421C12.5266 8.07421 12.9366 8.48426 12.9366 8.99007V15.0465C12.9366 15.5523 12.5266 15.9624 12.0208 15.9624C11.515 15.9624 11.105 15.5523 11.105 15.0465V8.99007C11.105 8.48426 11.515 8.07421 12.0208 8.07421Z" fill="#333333"/>
<path fill-rule="evenodd" clip-rule="evenodd" d="M6.8784 1.83172V4.03762H13.1216V1.83172H6.8784ZM14.9532 4.03762V1.52151C14.9532 0.681231 14.2721 0 13.4318 0H6.5682C5.72794 0 5.04677 0.681201 5.04677 1.52151V4.03762H0.915815C0.410024 4.03762 0 4.44767 0 4.95349C0 5.4593 0.410024 5.86935 0.915815 5.86935H19.0842C19.59 5.86935 20 5.4593 20 4.95349C20 4.44767 19.59 4.03762 19.0842 4.03762H14.9532Z" fill="#333333"/>
</svg>
