<svg width="20" height="20" viewBox="0 0 20 20" fill="none" xmlns="http://www.w3.org/2000/svg">
<path fill-rule="evenodd" clip-rule="evenodd" d="M10.0518 6.35455C9.39789 6.35455 8.86845 6.88399 8.86845 7.53789V8.29934H11.2351V7.53789C11.2351 6.88399 10.7057 6.35455 10.0518 6.35455ZM12.2351 8.29934V7.53789C12.2351 6.33171 11.258 5.35455 10.0518 5.35455C8.8456 5.35455 7.86845 6.33171 7.86845 7.53789V8.29934H7.78161C7.13514 8.29934 6.60828 8.8262 6.60828 9.47267V12.4185C6.60828 13.2502 7.28664 13.9285 8.11828 13.9285H11.99C12.8216 13.9285 13.5 13.2502 13.5 12.4185V9.47267C13.5 8.8262 12.9731 8.29934 12.3266 8.29934H12.2351ZM11.7023 9.29934C11.7131 9.30004 11.7241 9.3004 11.7351 9.3004C11.7462 9.3004 11.7571 9.30004 11.768 9.29934H12.3266C12.4208 9.29934 12.5 9.37848 12.5 9.47267V12.4185C12.5 12.6979 12.2693 12.9285 11.99 12.9285H8.11828C7.83892 12.9285 7.60828 12.6979 7.60828 12.4185V9.47267C7.60828 9.37848 7.68742 9.29934 7.78161 9.29934H8.33562C8.34647 9.30004 8.35742 9.3004 8.36845 9.3004C8.37948 9.3004 8.39043 9.30004 8.40129 9.29934H11.7023ZM9.40417 9.83214C9.57686 9.65945 9.81107 9.56243 10.0553 9.56243C10.2995 9.56243 10.5337 9.65945 10.7064 9.83214C10.8791 10.0048 10.9761 10.239 10.9761 10.4833C10.9761 10.7275 10.8791 10.9617 10.7064 11.1344C10.6599 11.1809 10.6089 11.2219 10.5545 11.257V12.168C10.5545 12.4441 10.3307 12.668 10.0545 12.668C9.77838 12.668 9.55452 12.4441 9.55452 12.168V11.256C9.50068 11.2211 9.45023 11.1805 9.40417 11.1344C9.23148 10.9617 9.13446 10.7275 9.13446 10.4833C9.13446 10.239 9.23148 10.0048 9.40417 9.83214ZM10.0713 10.4057C10.066 10.4056 10.0607 10.4055 10.0553 10.4055C10.0556 10.4055 10.055 10.4055 10.0553 10.4055C10.0503 10.4055 10.0445 10.4055 10.0395 10.4057C10.0447 10.4046 10.05 10.4041 10.0553 10.4041C10.0607 10.4041 10.0661 10.4047 10.0713 10.4057Z" fill="#333333"/>
<path d="M10 1.99091L18 4.59596V8.86869C18 12.9778 14.4667 16.9909 10 18.1182C5.53333 16.9909 2 13.2 2 9.09091V4.81818L10 1.99091ZM10 0L0 3.63636V9.09091C0 14.1364 4.26667 18.8545 10 20C15.7333 18.8545 20 14.1364 20 9.09091V3.63636L10 0Z" fill="#333333"/>
</svg>
