<svg width="32" height="32" viewBox="0 0 32 32" fill="none" xmlns="http://www.w3.org/2000/svg">
<path d="M19.6571 16.0049C19.6571 18.1584 18.022 19.8986 15.9985 19.8986C13.975 19.8986 12.3398 18.1584 12.3398 16.0049C12.3398 13.8515 13.975 12.1113 15.9985 12.1113C18.022 12.1113 19.6571 13.8515 19.6571 16.0049Z" stroke="#1E1E1E" stroke-width="1.8" stroke-linecap="round" stroke-linejoin="round"/>
<path d="M16 25C19.6076 25 22.9699 22.7378 25.3102 18.8224C26.2299 17.2888 26.2299 14.7112 25.3102 13.1776C22.9699 9.26223 19.6076 7 16 7C12.3924 7 9.03014 9.26223 6.68983 13.1776C5.77006 14.7112 5.77006 17.2888 6.68983 18.8224C9.03014 22.7378 12.3924 25 16 25Z" stroke="#1E1E1E" stroke-width="1.8" stroke-linecap="round" stroke-linejoin="round"/>
</svg>
