<svg width="22" height="23" viewBox="0 0 22 23" fill="none" xmlns="http://www.w3.org/2000/svg">
<path d="M9.5543 5.73925L6.17139 1.83587C5.7811 1.38554 5.06647 1.38845 4.61329 1.84223L1.83134 4.62787C1.00339 5.45692 0.7664 6.6882 1.24482 7.67518C4.1264 13.6199 8.86965 18.3695 14.8065 21.2549C15.7922 21.7339 17.0219 21.4966 17.8498 20.6676L20.6582 17.8554C21.1132 17.3999 21.114 16.681 20.6602 16.2914L16.7396 12.9264C16.3293 12.5742 15.6927 12.6204 15.2815 13.0322L13.9177 14.3978C13.766 14.5497 13.538 14.586 13.3646 14.486C11.1314 13.1984 9.2906 11.3552 8.00467 9.11904C7.90481 8.94539 7.94113 8.71706 8.09277 8.56522L9.4524 7.20377C9.8654 6.79024 9.91 6.14965 9.5543 5.73925Z" stroke="#434343" stroke-width="2" stroke-linecap="round" stroke-linejoin="round"/>
</svg>
