<svg width="65" height="65" viewBox="0 0 65 65" fill="none" xmlns="http://www.w3.org/2000/svg">
<circle cx="32.5" cy="32.5" r="32.5" fill="#60D66A"/>
<path d="M12.043 52.7864L14.9192 42.2971C13.1492 39.2298 12.2139 35.7401 12.2139 32.18C12.2139 21.0169 21.3053 11.9355 32.4583 11.9355C37.879 11.9355 42.9577 14.0475 46.7793 17.8691C50.6009 21.6907 52.7028 26.7794 52.7028 32.19C52.7028 43.3531 43.6114 52.4344 32.4583 52.4344H32.4483C29.0591 52.4344 25.7303 51.5796 22.7736 49.9705L12.043 52.7864Z" fill="url(#paint0_linear_1967_3447)"/>
<path d="M11.3105 53.52L14.2874 42.6587C12.457 39.4807 11.4815 35.8703 11.4916 32.1794C11.4916 20.6141 20.9048 11.2109 32.4701 11.2109C38.0818 11.2109 43.3516 13.3933 47.304 17.3557C51.2664 21.3181 53.4487 26.5878 53.4386 32.1895C53.4386 43.7549 44.0254 53.158 32.4601 53.158H32.45C28.9402 53.158 25.4907 52.273 22.4233 50.6036L11.3105 53.52ZM22.9463 46.8021L23.5799 47.1842C26.255 48.7732 29.3223 49.6079 32.45 49.618H32.4601C42.0644 49.618 49.8886 41.8038 49.8886 32.1895C49.8886 27.5332 48.0783 23.1585 44.7898 19.8598C41.5012 16.5612 37.1164 14.7509 32.4601 14.7509C22.8457 14.7509 15.0215 22.5651 15.0215 32.1794C15.0215 35.468 15.9367 38.6762 17.6866 41.4518L18.0989 42.1156L16.339 48.5419L22.9463 46.8021Z" fill="white"/>
<path d="M27.2211 23.3995C26.8289 22.5246 26.4166 22.5045 26.0445 22.4944C25.7428 22.4844 25.3908 22.4844 25.0388 22.4844C24.6868 22.4844 24.1236 22.6151 23.6409 23.1381C23.1582 23.661 21.8105 24.9282 21.8105 27.5128C21.8105 30.0873 23.6912 32.5814 23.9527 32.9334C24.2141 33.2854 27.5832 38.7463 32.9032 40.8482C37.3282 42.598 38.2334 42.2461 39.1888 42.1555C40.1542 42.065 42.2863 40.8884 42.7288 39.6614C43.1612 38.4345 43.1612 37.3886 43.0305 37.1674C42.8997 36.9461 42.5477 36.8154 42.0248 36.5539C41.5018 36.2924 38.9273 35.0252 38.4445 34.8442C37.9618 34.6632 37.6098 34.5827 37.2679 35.1057C36.9159 35.6287 35.9102 36.8053 35.6085 37.1573C35.3068 37.5093 34.9951 37.5495 34.4721 37.288C33.9491 37.0266 32.2596 36.4734 30.2583 34.6833C28.6995 33.2955 27.6435 31.5758 27.3418 31.0528C27.0401 30.5298 27.3116 30.2483 27.5731 29.9868C27.8044 29.7555 28.0961 29.3733 28.3575 29.0716C28.619 28.7699 28.7095 28.5486 28.8805 28.1967C29.0515 27.8447 28.971 27.543 28.8403 27.2815C28.7095 27.02 27.6837 24.4354 27.2211 23.3995Z" fill="white"/>
<defs>
<linearGradient id="paint0_linear_1967_3447" x1="5216.34" y1="10509.9" x2="5216.34" y2="11.3486" gradientUnits="userSpaceOnUse">
<stop stop-color="#20B038"/>
<stop offset="1" stop-color="#60D66A"/>
</linearGradient>
</defs>
</svg>
