<svg width="20" height="21" viewBox="0 0 20 21" fill="none" xmlns="http://www.w3.org/2000/svg">
<path d="M14.58 12.4856C14.3294 12.3588 13.1087 11.7631 12.8806 11.6781C12.6525 11.5969 12.4869 11.5544 12.3206 11.805C12.1581 12.0494 11.6794 12.6088 11.5331 12.7719C11.3869 12.935 11.2431 12.9475 10.9962 12.8369C10.7456 12.71 9.945 12.4494 8.99437 11.5969C8.25187 10.9362 7.7575 10.1225 7.61063 9.87187C7.46438 9.62437 7.59437 9.48438 7.71812 9.36063C7.83187 9.24688 7.96875 9.07438 8.09563 8.92438C8.21625 8.77438 8.255 8.67375 8.34312 8.51125C8.42437 8.33562 8.3825 8.19875 8.32062 8.075C8.25875 7.95125 7.76062 6.72438 7.5525 6.23563C7.35375 5.75063 7.14562 5.8125 6.9925 5.8125C6.84937 5.79938 6.68313 5.79938 6.5175 5.79938C6.35188 5.79938 6.08125 5.86125 5.85312 6.09875C5.625 6.34938 4.98062 6.94813 4.98062 8.15938C4.98062 9.37375 5.8725 10.5487 5.99625 10.7244C6.12312 10.8869 7.75063 13.3869 10.2475 14.4612C10.8431 14.7119 11.3056 14.8619 11.6669 14.9856C12.2625 15.1744 12.8063 15.1481 13.2356 15.0862C13.7106 15.0081 14.7069 14.4838 14.9156 13.8981C15.1275 13.3088 15.1275 12.8206 15.0656 12.71C15.0037 12.5962 14.8412 12.5344 14.5906 12.4237L14.58 12.4856ZM10.0519 18.625H10.0388C8.56063 18.625 7.09938 18.2244 5.82313 17.4756L5.52375 17.2969L2.39875 18.1106L3.23875 15.07L3.03688 14.7575C2.21313 13.4456 1.77375 11.9319 1.77375 10.3763C1.77375 5.83875 5.48813 2.1375 10.0581 2.1375C12.2719 2.1375 14.3488 3 15.9113 4.5625C17.4738 6.11188 18.3362 8.18875 18.3362 10.3894C18.33 14.9238 14.6187 18.625 10.055 18.625H10.0519ZM17.0994 3.37437C15.1981 1.53813 12.6981 0.5 10.0388 0.5C4.55375 0.5 0.0875 4.94687 0.084375 10.4119C0.084375 12.1569 0.54 13.8594 1.4125 15.3662L0 20.5L5.28 19.1231C6.735 19.9075 8.3725 20.3275 10.0394 20.3306H10.0425C15.5306 20.3306 19.9969 15.8838 20 10.415C20 7.76875 18.9681 5.27812 17.0869 3.40625L17.0994 3.37437Z" fill="#434343"/>
</svg>
