<svg width="344" height="346" viewBox="0 0 344 346" fill="none" xmlns="http://www.w3.org/2000/svg">
<path d="M0 345.187L24.287 256.572C9.35377 230.644 1.39486 201.188 1.47691 171.076C1.47691 76.7174 78.2763 0 172.635 0C218.419 0 261.413 17.805 293.659 50.133C325.987 82.4609 343.792 125.455 343.71 171.158C343.71 265.516 266.911 342.233 172.553 342.233H172.47C143.835 342.233 115.691 335.013 90.666 321.392L0 345.187ZM94.9326 290.377L100.102 293.495C121.927 306.459 146.953 313.269 172.47 313.351H172.553C250.911 313.351 314.746 249.598 314.746 171.158C314.746 133.168 299.977 97.4762 273.147 70.5636C246.316 43.6509 210.542 28.8818 172.553 28.8818C94.1121 28.8818 30.2767 92.6352 30.2767 171.076C30.2767 197.906 37.7433 224.08 52.0201 246.726L55.3842 252.142L41.0253 304.572L94.9326 290.377Z" fill="black" fill-opacity="0.24"/>
<path d="M7.76367 336.041L30.9389 251.525C16.6772 226.81 9.14122 198.692 9.14122 170.006C9.14122 80.0607 82.3943 6.88867 172.259 6.88867C215.935 6.88867 256.856 23.9054 287.649 54.6976C318.441 85.4898 335.377 126.492 335.377 170.087C335.377 260.033 262.124 333.205 172.259 333.205H172.178C144.87 333.205 118.048 326.317 94.2249 313.352L7.76367 336.041Z" fill="url(#paint0_linear_1967_3447)"/>
<path d="M1.84961 341.957L25.8351 254.442C11.0873 228.836 3.22716 199.745 3.30819 170.007C3.30819 76.8197 79.1543 1.05469 172.341 1.05469C217.557 1.05469 260.018 18.6387 291.864 50.5653C323.79 82.492 341.374 124.953 341.293 170.088C341.293 263.275 265.447 339.04 172.26 339.04H172.179C143.899 339.04 116.105 331.909 91.3901 318.457L1.84961 341.957ZM95.6038 287.827L100.709 290.907C122.263 303.71 146.978 310.435 172.179 310.516H172.26C249.646 310.516 312.689 247.554 312.689 170.088C312.689 132.57 298.103 97.3208 271.606 70.7423C245.108 44.1638 209.778 29.578 172.26 29.578C94.7935 29.578 31.7505 92.54 31.7505 170.007C31.7505 196.504 39.1244 222.353 53.224 244.718L56.5463 250.066L42.3657 301.846L95.6038 287.827Z" fill="white"/>
<path d="M130.041 99.2645C126.88 92.2147 123.558 92.0527 120.56 91.9717C118.129 91.8906 115.293 91.8906 112.457 91.8906C109.62 91.8906 105.083 92.944 101.193 97.1577C97.3036 101.371 86.4453 111.581 86.4453 132.407C86.4453 153.151 101.598 173.247 103.705 176.083C105.812 178.919 132.958 222.92 175.824 239.855C211.478 253.955 218.771 251.119 226.469 250.389C234.248 249.66 251.427 240.179 254.992 230.293C258.476 220.408 258.476 211.98 257.423 210.198C256.37 208.415 253.534 207.361 249.32 205.255C245.106 203.148 224.362 192.938 220.472 191.479C216.583 190.021 213.747 189.372 210.992 193.586C208.156 197.8 200.052 207.28 197.621 210.116C195.19 212.953 192.678 213.277 188.465 211.17C184.251 209.063 170.638 204.606 154.512 190.183C141.952 179 133.444 165.144 131.013 160.93C128.582 156.716 130.77 154.447 132.877 152.341C134.74 150.477 137.09 147.398 139.197 144.967C141.304 142.536 142.033 140.753 143.411 137.917C144.788 135.081 144.14 132.65 143.087 130.543C142.033 128.436 133.768 107.611 130.041 99.2645Z" fill="white"/>
<defs>
<linearGradient id="paint0_linear_1967_3447" x1="41940.9" y1="84593.1" x2="41940.9" y2="2.15926" gradientUnits="userSpaceOnUse">
<stop stop-color="#20B038"/>
<stop offset="1" stop-color="#60D66A"/>
</linearGradient>
</defs>
</svg>
