<svg width="80" height="80" viewBox="0 0 80 80" fill="none" xmlns="http://www.w3.org/2000/svg">
<rect x="0.5" y="0.5" width="79" height="79" rx="15.5" fill="#F9FAFB"/>
<rect x="0.5" y="0.5" width="79" height="79" rx="15.5" stroke="#EFF0F4"/>
<path d="M37.9715 23.0066C37.9715 21.9025 38.866 21.0074 39.9695 21.0074C41.073 21.0074 41.9676 21.9025 41.9676 23.0066V55.3065C41.9676 56.4107 41.073 57.3057 39.9695 57.3057C38.866 57.3057 37.9715 56.4107 37.9715 55.3065V23.0066Z" fill="white"/>
<path d="M21.5355 47.0597C21.5355 45.9556 22.4301 45.0605 23.5336 45.0605H31.3539C32.4574 45.0605 33.352 45.9556 33.352 47.0597C33.352 48.1639 32.4574 49.059 31.3539 49.059H23.5336C22.4301 49.059 21.5355 48.1639 21.5355 47.0597Z" fill="white"/>
<path fill-rule="evenodd" clip-rule="evenodd" d="M20.5365 47.0597C20.5365 45.4035 21.8783 44.0609 23.5336 44.0609H31.3539C33.0091 44.0609 34.351 45.4035 34.351 47.0597C34.351 48.7159 33.0092 50.0586 31.3539 50.0586H23.5336C21.8784 50.0586 20.5365 48.7159 20.5365 47.0597ZM23.5336 46.0601C22.9818 46.0601 22.5346 46.5077 22.5346 47.0597C22.5346 47.6118 22.9818 48.0593 23.5336 48.0593H31.3539C31.9057 48.0593 32.3529 47.6118 32.3529 47.0597C32.3529 46.5077 31.9057 46.0601 31.3539 46.0601H23.5336Z" fill="#212225"/>
<path d="M22.9387 43.0613C22.9387 41.9572 23.8333 41.0621 24.9368 41.0621H32.7571C33.8606 41.0621 34.7552 41.9572 34.7552 43.0613C34.7552 44.1654 33.8606 45.0605 32.7571 45.0605H24.9368C23.8333 45.0605 22.9387 44.1654 22.9387 43.0613Z" fill="white"/>
<path fill-rule="evenodd" clip-rule="evenodd" d="M21.9397 43.0613C21.9397 41.4051 23.2816 40.0625 24.9368 40.0625H32.7571C34.4123 40.0625 35.7542 41.4051 35.7542 43.0613C35.7542 44.7175 34.4124 46.0601 32.7571 46.0601H24.9368C23.2816 46.0601 21.9397 44.7175 21.9397 43.0613ZM24.9368 42.0617C24.385 42.0617 23.9378 42.5092 23.9378 43.0613C23.9378 43.6134 24.385 44.0609 24.9368 44.0609H32.7571C33.3089 44.0609 33.7561 43.6134 33.7561 43.0613C33.7561 42.5092 33.3089 42.0617 32.7571 42.0617H24.9368Z" fill="#212225"/>
<path d="M21.0186 39.0629C21.0186 37.9587 21.9131 37.0636 23.0166 37.0636H30.8369C31.9404 37.0636 32.835 37.9587 32.835 39.0629C32.835 40.167 31.9404 41.0621 30.8369 41.0621H23.0166C21.9131 41.0621 21.0186 40.167 21.0186 39.0629Z" fill="white"/>
<path d="M47.2423 38.0633H55.343L54.1072 38.9082C53.5623 39.2808 53.2365 39.8985 53.2365 40.5589V48.0593H47.2423V38.0633Z" fill="white"/>
<path fill-rule="evenodd" clip-rule="evenodd" d="M39.9695 20.0078C38.3143 20.0078 36.9724 21.3504 36.9724 23.0066V26.8309H26.8878C26.8567 26.8309 26.8259 26.8323 26.7955 26.8351C26.1359 26.8775 25.4946 27.2397 25.1469 27.9217L20.4632 37.1092C20.3711 37.29 20.3392 37.4856 20.3601 37.6732C20.1426 38.0886 20.0195 38.5614 20.0195 39.0629C20.0195 40.7191 21.3614 42.0617 23.0166 42.0617H30.8369C32.4922 42.0617 33.834 40.7191 33.834 39.0629C33.834 38.5614 33.711 38.0886 33.4935 37.6732C33.5144 37.4856 33.4824 37.29 33.3903 37.1092L29.1697 28.8301H36.9724V55.3065C36.9724 56.9627 38.3143 58.3053 39.9695 58.3053C41.6247 58.3053 42.9666 56.9627 42.9666 55.3065V28.8301H50.4342L46.7099 36.1358C45.8649 36.369 45.2443 37.1436 45.2443 38.0633V48.0593C45.2443 49.1635 46.1388 50.0586 47.2423 50.0586H53.2365C54.34 50.0586 55.2345 49.1635 55.2345 48.0593V44.998H57.9825C59.086 44.998 59.9805 44.103 59.9805 42.9988V39.4284C59.9805 38.6144 59.6916 37.8679 59.2107 37.286C59.1934 37.2261 59.1701 37.1669 59.1407 37.1092L54.457 27.9217C54.0863 27.1945 53.3818 26.8309 52.6772 26.8309H42.9666V23.0066C42.9666 21.3504 41.6248 20.0078 39.9695 20.0078ZM56.3695 36.0731L52.6772 28.8301L48.9894 36.064H55.343C55.5438 36.064 55.7323 36.0906 55.9071 36.1394C56.0578 36.1069 56.2121 36.0846 56.3695 36.0731ZM30.6145 36.064H23.239L26.9268 28.8301L30.6145 36.064ZM38.9705 23.0066C38.9705 22.4546 39.4178 22.007 39.9695 22.007C40.5213 22.007 40.9685 22.4546 40.9685 23.0066V55.3065C40.9685 55.8586 40.5213 56.3061 39.9695 56.3061C39.4178 56.3061 38.9705 55.8586 38.9705 55.3065V23.0066ZM23.0166 38.0633C22.4649 38.0633 22.0176 38.5108 22.0176 39.0629C22.0176 39.6149 22.4649 40.0625 23.0166 40.0625H30.8369C31.3887 40.0625 31.836 39.6149 31.836 39.0629C31.836 38.5108 31.3887 38.0633 30.8369 38.0633H23.0166ZM56.4703 39.7139L55.2537 40.5458V42.9988H57.9825V39.4284C57.9825 38.9382 57.7242 38.5084 57.3365 38.2676C57.2868 38.8107 57.0135 39.3425 56.4703 39.7139ZM47.2423 38.0633H53.544C53.3586 38.4805 53.2556 38.9424 53.2556 39.4284V40.2824C53.243 40.3733 53.2365 40.4657 53.2365 40.5589V48.0593H47.2423V38.0633Z" fill="#212225"/>
<path d="M45.9637 54.9941C47.0672 54.9941 47.9617 55.8892 47.9617 56.9934C47.9617 58.0975 47.0672 58.9926 45.9637 58.9926H33.9754C32.8719 58.9926 31.9773 58.0975 31.9773 56.9934C31.9773 55.8892 32.8719 54.9941 33.9754 54.9941H45.9637Z" fill="white"/>
<path fill-rule="evenodd" clip-rule="evenodd" d="M45.9637 53.9945C47.6189 53.9945 48.9607 55.3372 48.9607 56.9934C48.9607 58.6496 47.6189 59.9922 45.9637 59.9922H33.9754C32.3201 59.9922 30.9783 58.6496 30.9783 56.9934C30.9783 55.3372 32.3201 53.9945 33.9754 53.9945H45.9637ZM46.9627 56.9934C46.9627 56.4413 46.5154 55.9937 45.9637 55.9937H33.9754C33.4236 55.9937 32.9763 56.4413 32.9763 56.9934C32.9763 57.5454 33.4236 57.993 33.9754 57.993H45.9637C46.5154 57.993 46.9627 57.5454 46.9627 56.9934Z" fill="#212225"/>
<path d="M55.2537 39.4284C55.2537 38.6745 55.8646 38.0633 56.6181 38.0633C57.3716 38.0633 57.9825 38.6745 57.9825 39.4284V42.9988H55.2537V39.4284Z" fill="white"/>
</svg>
