<svg width="81" height="81" viewBox="0 0 81 81" fill="none" xmlns="http://www.w3.org/2000/svg">
<rect x="0.633301" y="0.306885" width="80" height="80" rx="16" fill="#2E394D"/>
<path d="M38.6048 23.3135C38.6048 22.2094 39.4993 21.3143 40.6028 21.3143C41.7063 21.3143 42.6009 22.2094 42.6009 23.3135V55.6134C42.6009 56.7175 41.7063 57.6126 40.6028 57.6126C39.4993 57.6126 38.6048 56.7175 38.6048 55.6134V23.3135Z" fill="#2E394D"/>
<path d="M22.1688 47.3666C22.1688 46.2625 23.0634 45.3674 24.1669 45.3674H31.9872C33.0907 45.3674 33.9853 46.2625 33.9853 47.3666C33.9853 48.4708 33.0907 49.3658 31.9872 49.3658H24.1669C23.0634 49.3658 22.1688 48.4708 22.1688 47.3666Z" fill="#2E394D"/>
<path fill-rule="evenodd" clip-rule="evenodd" d="M21.1698 47.3666C21.1698 45.7104 22.5117 44.3678 24.1669 44.3678H31.9872C33.6424 44.3678 34.9843 45.7104 34.9843 47.3666C34.9843 49.0228 33.6425 50.3655 31.9872 50.3655H24.1669C22.5117 50.3655 21.1698 49.0228 21.1698 47.3666ZM24.1669 46.367C23.6151 46.367 23.1679 46.8146 23.1679 47.3666C23.1679 47.9187 23.6151 48.3662 24.1669 48.3662H31.9872C32.539 48.3662 32.9862 47.9187 32.9862 47.3666C32.9862 46.8146 32.539 46.367 31.9872 46.367H24.1669Z" fill="#EFF0F4"/>
<path d="M23.572 43.3682C23.572 42.264 24.4666 41.369 25.5701 41.369H33.3904C34.4939 41.369 35.3885 42.264 35.3885 43.3682C35.3885 44.4723 34.4939 45.3674 33.3904 45.3674H25.5701C24.4666 45.3674 23.572 44.4723 23.572 43.3682Z" fill="#2E394D"/>
<path fill-rule="evenodd" clip-rule="evenodd" d="M22.573 43.3682C22.573 41.712 23.9149 40.3694 25.5701 40.3694H33.3904C35.0457 40.3694 36.3875 41.712 36.3875 43.3682C36.3875 45.0244 35.0457 46.367 33.3904 46.367H25.5701C23.9149 46.367 22.573 45.0244 22.573 43.3682ZM25.5701 42.3686C25.0183 42.3686 24.5711 42.8161 24.5711 43.3682C24.5711 43.9203 25.0183 44.3678 25.5701 44.3678H33.3904C33.9422 44.3678 34.3894 43.9203 34.3894 43.3682C34.3894 42.8161 33.9422 42.3686 33.3904 42.3686H25.5701Z" fill="#EFF0F4"/>
<path d="M21.6519 39.3698C21.6519 38.2656 22.5464 37.3705 23.6499 37.3705H31.4702C32.5737 37.3705 33.4683 38.2656 33.4683 39.3698C33.4683 40.4739 32.5737 41.369 31.4702 41.369H23.6499C22.5464 41.369 21.6519 40.4739 21.6519 39.3698Z" fill="#2E394D"/>
<path d="M47.8756 38.3701H55.9763L54.7405 39.2151C54.1956 39.5877 53.8698 40.2054 53.8698 40.8657V48.3662H47.8756V38.3701Z" fill="#2E394D"/>
<path fill-rule="evenodd" clip-rule="evenodd" d="M40.6028 20.3147C38.9476 20.3147 37.6057 21.6573 37.6057 23.3135V27.1378H27.5211C27.49 27.1378 27.4592 27.1392 27.4288 27.142C26.7692 27.1844 26.1279 27.5466 25.7802 28.2286L21.0965 37.4161C21.0044 37.5969 20.9725 37.7925 20.9934 37.9801C20.7759 38.3955 20.6528 38.8683 20.6528 39.3698C20.6528 41.026 21.9947 42.3686 23.6499 42.3686H31.4702C33.1255 42.3686 34.4673 41.026 34.4673 39.3698C34.4673 38.8683 34.3443 38.3955 34.1268 37.9801C34.1477 37.7925 34.1157 37.5969 34.0236 37.4161L29.803 29.137H37.6057V55.6134C37.6057 57.2696 38.9476 58.6122 40.6028 58.6122C42.2581 58.6122 43.5999 57.2696 43.5999 55.6134V29.137H51.0675L47.3432 36.4427C46.4982 36.6759 45.8776 37.4505 45.8776 38.3701V48.3662C45.8776 49.4704 46.7721 50.3655 47.8756 50.3655H53.8698C54.9733 50.3655 55.8678 49.4704 55.8678 48.3662V45.3049H58.6158C59.7193 45.3049 60.6138 44.4098 60.6138 43.3057V39.7353C60.6138 38.9213 60.3249 38.1748 59.844 37.5929C59.8267 37.5329 59.8034 37.4738 59.774 37.4161L55.0903 28.2286C54.7196 27.5014 54.0151 27.1378 53.3105 27.1378H43.5999V23.3135C43.5999 21.6573 42.2581 20.3147 40.6028 20.3147ZM57.0028 36.38L53.3105 29.137L49.6227 36.3709H55.9763C56.1771 36.3709 56.3656 36.3975 56.5404 36.4463C56.6911 36.4138 56.8454 36.3915 57.0028 36.38ZM31.2478 36.3709H23.8723L27.5601 29.137L31.2478 36.3709ZM39.6038 23.3135C39.6038 22.7615 40.0511 22.3139 40.6028 22.3139C41.1546 22.3139 41.6018 22.7615 41.6018 23.3135V55.6134C41.6018 56.1655 41.1546 56.613 40.6028 56.613C40.0511 56.613 39.6038 56.1655 39.6038 55.6134V23.3135ZM23.6499 38.3701C23.0982 38.3701 22.6509 38.8177 22.6509 39.3698C22.6509 39.9218 23.0982 40.3694 23.6499 40.3694H31.4702C32.022 40.3694 32.4693 39.9218 32.4693 39.3698C32.4693 38.8177 32.022 38.3701 31.4702 38.3701H23.6499ZM57.1036 40.0208L55.887 40.8526V43.3057H58.6158V39.7353C58.6158 39.2451 58.3575 38.8152 57.9698 38.5745C57.9201 39.1176 57.6468 39.6494 57.1036 40.0208ZM47.8756 38.3701H54.1773C53.9919 38.7874 53.8889 39.2493 53.8889 39.7353V40.5892C53.8763 40.6802 53.8698 40.7725 53.8698 40.8657V48.3662H47.8756V38.3701Z" fill="#EFF0F4"/>
<path d="M46.597 55.301C47.7005 55.301 48.595 56.1961 48.595 57.3002C48.595 58.4044 47.7005 59.2995 46.597 59.2995H34.6087C33.5052 59.2995 32.6106 58.4044 32.6106 57.3002C32.6106 56.1961 33.5052 55.301 34.6087 55.301H46.597Z" fill="#2E394D"/>
<path fill-rule="evenodd" clip-rule="evenodd" d="M46.597 54.3014C48.2522 54.3014 49.594 55.644 49.594 57.3002C49.594 58.9565 48.2522 60.2991 46.597 60.2991H34.6087C32.9534 60.2991 31.6116 58.9565 31.6116 57.3002C31.6116 55.644 32.9534 54.3014 34.6087 54.3014H46.597ZM47.596 57.3002C47.596 56.7482 47.1487 56.3006 46.597 56.3006H34.6087C34.0569 56.3006 33.6096 56.7482 33.6096 57.3002C33.6096 57.8523 34.0569 58.2999 34.6087 58.2999H46.597C47.1487 58.2999 47.596 57.8523 47.596 57.3002Z" fill="#EFF0F4"/>
<path d="M55.887 39.7353C55.887 38.9814 56.4979 38.3701 57.2514 38.3701C58.0049 38.3701 58.6158 38.9814 58.6158 39.7353V43.3057H55.887V39.7353Z" fill="#2E394D"/>
</svg>
