<svg width="190" height="75" viewBox="0 0 190 75" fill="none" xmlns="http://www.w3.org/2000/svg">
<rect x="0.246094" width="189" height="75" rx="16" fill="white"/>
<path d="M72.9849 32.0399L67.416 20.4155L61.6309 32.0399" stroke="#3EA1DA" stroke-width="1.5" stroke-miterlimit="6" stroke-linecap="round" stroke-linejoin="round"/>
<path d="M39.1848 21.5269H66.5231C66.9677 21.5269 67.3281 21.1664 67.3281 20.7219V20.3429C67.3281 19.8983 66.9677 19.5379 66.5231 19.5379H39.1848C38.7402 19.5379 38.3798 19.8983 38.3798 20.3429V20.7219C38.3798 21.1664 38.7402 21.5269 39.1848 21.5269Z" fill="white" stroke="#3EA1DA" stroke-width="1.5" stroke-miterlimit="6" stroke-linecap="round" stroke-linejoin="round"/>
<path d="M61.8584 32.1458L61.8587 32.1482C60.8952 32.1976 60.1405 32.9898 60.1335 33.9664L60.124 35.2952C60.1143 35.6158 60.1076 36.1601 60.1076 36.8135V37.598L60.1016 38.4381C60.1012 38.4907 60.1036 38.5425 60.1076 38.5939C60.2696 41.7549 60.1663 44.8719 60.1418 48.1102H71.2405C71.3193 44.5142 71.2749 40.9113 71.2749 37.3132L71.289 37.3053L71.3128 33.9664C71.32 32.9578 72.1248 32.1458 73.1334 32.1458H61.9542H61.8584Z" fill="white" stroke="#3EA1DA" stroke-width="1.5" stroke-miterlimit="6" stroke-linecap="round" stroke-linejoin="round"/>
<path d="M73.1335 32.1458C72.1248 32.1458 71.3201 32.9578 71.3129 33.9664L71.2871 37.5758H74.9283L74.9541 33.9664C74.9613 32.9578 74.1421 32.1458 73.1335 32.1458Z" fill="white" stroke="#3EA1DA" stroke-width="1.5" stroke-miterlimit="6" stroke-linecap="round" stroke-linejoin="round"/>
<path d="M45.243 36.1846H33.4424C32.5206 36.1846 31.7734 36.9318 31.7734 37.8535V38.5526C31.7734 39.4743 32.5206 40.2215 33.4424 40.2215H45.243C46.1647 40.2215 46.9119 39.4743 46.9119 38.5526V37.8535C46.9119 36.9318 46.1647 36.1846 45.243 36.1846Z" fill="white" stroke="#3EA1DA" stroke-width="1.5" stroke-miterlimit="6" stroke-linecap="round" stroke-linejoin="round"/>
<path d="M45.243 44.262H33.4424C32.5206 44.262 31.7734 45.0092 31.7734 45.9309V46.63C31.7734 47.5517 32.5206 48.2989 33.4424 48.2989H45.243C46.1647 48.2989 46.9119 47.5517 46.9119 46.63V45.9309C46.9119 45.0092 46.1647 44.262 45.243 44.262Z" fill="white" stroke="#3EA1DA" stroke-width="1.5" stroke-miterlimit="6" stroke-linecap="round" stroke-linejoin="round"/>
<path d="M44.0086 40.2231H32.208C31.2863 40.2231 30.5391 40.9703 30.5391 41.8921V42.5912C30.5391 43.5129 31.2863 44.2601 32.208 44.2601H44.0086C44.9304 44.2601 45.6775 43.5129 45.6775 42.5912V41.8921C45.6775 40.9703 44.9304 40.2231 44.0086 40.2231Z" fill="white" stroke="#3EA1DA" stroke-width="1.5" stroke-miterlimit="6" stroke-linecap="round" stroke-linejoin="round"/>
<path d="M44.0086 32.1458H32.208C31.2863 32.1458 30.5391 32.8929 30.5391 33.8147V34.5138C30.5391 35.4355 31.2863 36.1827 32.208 36.1827H44.0086C44.9304 36.1827 45.6775 35.4355 45.6775 34.5138V33.8147C45.6775 32.8929 44.9304 32.1458 44.0086 32.1458Z" fill="white" stroke="#3EA1DA" stroke-width="1.5" stroke-miterlimit="6" stroke-linecap="round" stroke-linejoin="round"/>
<path d="M54.918 55.6963V16.7054C54.918 15.7635 54.1545 15 53.2126 15H52.4934C51.5516 15 50.7881 15.7635 50.7881 16.7054V55.6963C50.7881 56.6381 51.5516 57.4016 52.4934 57.4016H53.2126C54.1545 57.4016 54.918 56.6381 54.918 55.6963Z" fill="white" stroke="#3EA1DA" stroke-width="1.5" stroke-miterlimit="6" stroke-linecap="round" stroke-linejoin="round"/>
<path d="M63.8676 56.2524H42.0439C41.545 56.2524 41.1406 56.6569 41.1406 57.1557V59.0967C41.1406 59.5956 41.545 60 42.0439 60H63.8676C64.3665 60 64.7709 59.5956 64.7709 59.0967V57.1557C64.7709 56.6569 64.3665 56.2524 63.8676 56.2524Z" fill="white" stroke="#3EA1DA" stroke-width="1.5" stroke-miterlimit="6" stroke-linecap="round" stroke-linejoin="round"/>
<path d="M43.9517 32.0399L38.3828 20.4155L32.5977 32.0399" stroke="#3EA1DA" stroke-width="1.5" stroke-miterlimit="6" stroke-linecap="round" stroke-linejoin="round"/>
<path d="M101.21 28.474C101.565 28.53 101.887 28.6747 102.176 28.908C102.475 29.1413 102.708 29.4307 102.876 29.776C103.053 30.1213 103.142 30.49 103.142 30.882C103.142 31.3767 103.016 31.8247 102.764 32.226C102.512 32.618 102.143 32.9307 101.658 33.164C101.182 33.388 100.617 33.5 99.9641 33.5H96.3241V23.742H99.8241C100.487 23.742 101.051 23.854 101.518 24.078C101.985 24.2927 102.335 24.5867 102.568 24.96C102.801 25.3333 102.918 25.7533 102.918 26.22C102.918 26.7987 102.759 27.2793 102.442 27.662C102.134 28.0353 101.723 28.306 101.21 28.474ZM97.5981 27.956H99.7401C100.337 27.956 100.799 27.816 101.126 27.536C101.453 27.256 101.616 26.8687 101.616 26.374C101.616 25.8793 101.453 25.492 101.126 25.212C100.799 24.932 100.328 24.792 99.7121 24.792H97.5981V27.956ZM99.8521 32.45C100.487 32.45 100.981 32.3007 101.336 32.002C101.691 31.7033 101.868 31.288 101.868 30.756C101.868 30.2147 101.681 29.79 101.308 29.482C100.935 29.1647 100.435 29.006 99.8101 29.006H97.5981V32.45H99.8521ZM104.434 29.636C104.434 28.852 104.593 28.166 104.91 27.578C105.227 26.9807 105.661 26.5187 106.212 26.192C106.772 25.8653 107.393 25.702 108.074 25.702C108.746 25.702 109.329 25.8467 109.824 26.136C110.319 26.4253 110.687 26.7893 110.93 27.228V25.828H112.218V33.5H110.93V32.072C110.678 32.52 110.3 32.8933 109.796 33.192C109.301 33.4813 108.723 33.626 108.06 33.626C107.379 33.626 106.763 33.458 106.212 33.122C105.661 32.786 105.227 32.3147 104.91 31.708C104.593 31.1013 104.434 30.4107 104.434 29.636ZM110.93 29.65C110.93 29.0713 110.813 28.5673 110.58 28.138C110.347 27.7087 110.029 27.382 109.628 27.158C109.236 26.9247 108.802 26.808 108.326 26.808C107.85 26.808 107.416 26.92 107.024 27.144C106.632 27.368 106.319 27.6947 106.086 28.124C105.853 28.5533 105.736 29.0573 105.736 29.636C105.736 30.224 105.853 30.7373 106.086 31.176C106.319 31.6053 106.632 31.9367 107.024 32.17C107.416 32.394 107.85 32.506 108.326 32.506C108.802 32.506 109.236 32.394 109.628 32.17C110.029 31.9367 110.347 31.6053 110.58 31.176C110.813 30.7373 110.93 30.2287 110.93 29.65ZM115.645 23.14V33.5H114.371V23.14H115.645ZM117.34 29.636C117.34 28.852 117.499 28.166 117.816 27.578C118.134 26.9807 118.568 26.5187 119.118 26.192C119.678 25.8653 120.299 25.702 120.98 25.702C121.652 25.702 122.236 25.8467 122.73 26.136C123.225 26.4253 123.594 26.7893 123.836 27.228V25.828H125.124V33.5H123.836V32.072C123.584 32.52 123.206 32.8933 122.702 33.192C122.208 33.4813 121.629 33.626 120.966 33.626C120.285 33.626 119.669 33.458 119.118 33.122C118.568 32.786 118.134 32.3147 117.816 31.708C117.499 31.1013 117.34 30.4107 117.34 29.636ZM123.836 29.65C123.836 29.0713 123.72 28.5673 123.486 28.138C123.253 27.7087 122.936 27.382 122.534 27.158C122.142 26.9247 121.708 26.808 121.232 26.808C120.756 26.808 120.322 26.92 119.93 27.144C119.538 27.368 119.226 27.6947 118.992 28.124C118.759 28.5533 118.642 29.0573 118.642 29.636C118.642 30.224 118.759 30.7373 118.992 31.176C119.226 31.6053 119.538 31.9367 119.93 32.17C120.322 32.394 120.756 32.506 121.232 32.506C121.708 32.506 122.142 32.394 122.534 32.17C122.936 31.9367 123.253 31.6053 123.486 31.176C123.72 30.7373 123.836 30.2287 123.836 29.65ZM131.015 25.688C131.949 25.688 132.705 25.9727 133.283 26.542C133.862 27.102 134.151 27.914 134.151 28.978V33.5H132.891V29.16C132.891 28.3947 132.7 27.8113 132.317 27.41C131.935 26.9993 131.412 26.794 130.749 26.794C130.077 26.794 129.541 27.004 129.139 27.424C128.747 27.844 128.551 28.4553 128.551 29.258V33.5H127.277V25.828H128.551V26.92C128.803 26.528 129.144 26.2247 129.573 26.01C130.012 25.7953 130.493 25.688 131.015 25.688ZM135.756 29.65C135.756 28.8567 135.915 28.166 136.232 27.578C136.55 26.9807 136.988 26.5187 137.548 26.192C138.118 25.8653 138.766 25.702 139.494 25.702C140.437 25.702 141.212 25.9307 141.818 26.388C142.434 26.8453 142.84 27.48 143.036 28.292H141.664C141.534 27.8253 141.277 27.4567 140.894 27.186C140.521 26.9153 140.054 26.78 139.494 26.78C138.766 26.78 138.178 27.032 137.73 27.536C137.282 28.0307 137.058 28.7353 137.058 29.65C137.058 30.574 137.282 31.288 137.73 31.792C138.178 32.296 138.766 32.548 139.494 32.548C140.054 32.548 140.521 32.4173 140.894 32.156C141.268 31.8947 141.524 31.5213 141.664 31.036H143.036C142.831 31.82 142.42 32.45 141.804 32.926C141.188 33.3927 140.418 33.626 139.494 33.626C138.766 33.626 138.118 33.4627 137.548 33.136C136.988 32.8093 136.55 32.3473 136.232 31.75C135.915 31.1527 135.756 30.4527 135.756 29.65ZM151.736 29.37C151.736 29.6127 151.722 29.8693 151.694 30.14H145.562C145.609 30.896 145.866 31.4887 146.332 31.918C146.808 32.338 147.382 32.548 148.054 32.548C148.605 32.548 149.062 32.422 149.426 32.17C149.8 31.9087 150.061 31.5633 150.21 31.134H151.582C151.377 31.8713 150.966 32.4733 150.35 32.94C149.734 33.3973 148.969 33.626 148.054 33.626C147.326 33.626 146.673 33.4627 146.094 33.136C145.525 32.8093 145.077 32.3473 144.75 31.75C144.424 31.1433 144.26 30.4433 144.26 29.65C144.26 28.8567 144.419 28.1613 144.736 27.564C145.054 26.9667 145.497 26.5093 146.066 26.192C146.645 25.8653 147.308 25.702 148.054 25.702C148.782 25.702 149.426 25.8607 149.986 26.178C150.546 26.4953 150.976 26.934 151.274 27.494C151.582 28.0447 151.736 28.67 151.736 29.37ZM150.42 29.104C150.42 28.6187 150.313 28.2033 150.098 27.858C149.884 27.5033 149.59 27.2373 149.216 27.06C148.852 26.8733 148.446 26.78 147.998 26.78C147.354 26.78 146.804 26.9853 146.346 27.396C145.898 27.8067 145.642 28.376 145.576 29.104H150.42ZM101.84 41.742V42.778H97.5981V46.068H101.042V47.104H97.5981V51.5H96.3241V41.742H101.84ZM110.183 43.828V51.5H108.909V50.366C108.666 50.758 108.325 51.066 107.887 51.29C107.457 51.5047 106.981 51.612 106.459 51.612C105.861 51.612 105.325 51.4907 104.849 51.248C104.373 50.996 103.995 50.6227 103.715 50.128C103.444 49.6333 103.309 49.0313 103.309 48.322V43.828H104.569V48.154C104.569 48.91 104.76 49.4933 105.143 49.904C105.525 50.3053 106.048 50.506 106.711 50.506C107.392 50.506 107.929 50.296 108.321 49.876C108.713 49.456 108.909 48.8447 108.909 48.042V43.828H110.183ZM116.072 43.688C117.005 43.688 117.761 43.9727 118.34 44.542C118.919 45.102 119.208 45.914 119.208 46.978V51.5H117.948V47.16C117.948 46.3947 117.757 45.8113 117.374 45.41C116.991 44.9993 116.469 44.794 115.806 44.794C115.134 44.794 114.597 45.004 114.196 45.424C113.804 45.844 113.608 46.4553 113.608 47.258V51.5H112.334V43.828H113.608V44.92C113.86 44.528 114.201 44.2247 114.63 44.01C115.069 43.7953 115.549 43.688 116.072 43.688ZM120.813 47.636C120.813 46.852 120.972 46.166 121.289 45.578C121.606 44.9807 122.04 44.5187 122.591 44.192C123.151 43.8653 123.776 43.702 124.467 43.702C125.064 43.702 125.62 43.842 126.133 44.122C126.646 44.3927 127.038 44.752 127.309 45.2V41.14H128.597V51.5H127.309V50.058C127.057 50.5153 126.684 50.8933 126.189 51.192C125.694 51.4813 125.116 51.626 124.453 51.626C123.772 51.626 123.151 51.458 122.591 51.122C122.04 50.786 121.606 50.3147 121.289 49.708C120.972 49.1013 120.813 48.4107 120.813 47.636ZM127.309 47.65C127.309 47.0713 127.192 46.5673 126.959 46.138C126.726 45.7087 126.408 45.382 126.007 45.158C125.615 44.9247 125.181 44.808 124.705 44.808C124.229 44.808 123.795 44.92 123.403 45.144C123.011 45.368 122.698 45.6947 122.465 46.124C122.232 46.5533 122.115 47.0573 122.115 47.636C122.115 48.224 122.232 48.7373 122.465 49.176C122.698 49.6053 123.011 49.9367 123.403 50.17C123.795 50.394 124.229 50.506 124.705 50.506C125.181 50.506 125.615 50.394 126.007 50.17C126.408 49.9367 126.726 49.6053 126.959 49.176C127.192 48.7373 127.309 48.2287 127.309 47.65Z" fill="#434343"/>
</svg>
