<svg width="105" height="105" viewBox="0 0 105 105" fill="none" xmlns="http://www.w3.org/2000/svg">
<g filter="url(#filter0_d_466_9673)">
<rect x="20" y="10" width="65" height="65" rx="10" fill="white" shape-rendering="crispEdges"/>
<path d="M72.7394 37.0403L67.1705 25.416L61.3854 37.0403" stroke="#3EA1DA" stroke-width="1.5" stroke-miterlimit="6" stroke-linecap="round" stroke-linejoin="round"/>
<path d="M38.938 26.5273H66.2763C66.7209 26.5273 67.0813 26.1669 67.0813 25.7223V25.3434C67.0813 24.8988 66.7209 24.5384 66.2763 24.5384H38.938C38.4934 24.5384 38.133 24.8988 38.133 25.3434V25.7223C38.133 26.1669 38.4934 26.5273 38.938 26.5273Z" fill="white" stroke="#3EA1DA" stroke-width="1.5" stroke-miterlimit="6" stroke-linecap="round" stroke-linejoin="round"/>
<path d="M61.6114 37.1465L61.6117 37.149C60.6483 37.1983 59.8936 37.9906 59.8866 38.9671L59.8771 40.2959C59.8674 40.6165 59.8607 41.1609 59.8607 41.8143V42.5988L59.8547 43.4388C59.8543 43.4914 59.8566 43.5432 59.8607 43.5946C60.0227 46.7556 59.9194 49.8726 59.8949 53.1109H70.9935C71.0723 49.515 71.0279 45.912 71.0279 42.314L71.0421 42.306L71.0659 38.9671C71.0731 37.9585 71.8779 37.1465 72.8865 37.1465H61.7072H61.6114Z" fill="white" stroke="#3EA1DA" stroke-width="1.5" stroke-miterlimit="6" stroke-linecap="round" stroke-linejoin="round"/>
<path d="M72.8865 37.1465C71.8779 37.1465 71.0731 37.9585 71.0659 38.9671L71.0402 42.5765H74.6814L74.7071 38.9671C74.7143 37.9585 73.8951 37.1465 72.8865 37.1465Z" fill="white" stroke="#3EA1DA" stroke-width="1.5" stroke-miterlimit="6" stroke-linecap="round" stroke-linejoin="round"/>
<path d="M44.9975 41.1855H33.1969C32.2752 41.1855 31.528 41.9327 31.528 42.8545V43.5536C31.528 44.4753 32.2752 45.2225 33.1969 45.2225H44.9975C45.9192 45.2225 46.6664 44.4753 46.6664 43.5536V42.8545C46.6664 41.9327 45.9192 41.1855 44.9975 41.1855Z" fill="white" stroke="#3EA1DA" stroke-width="1.5" stroke-miterlimit="6" stroke-linecap="round" stroke-linejoin="round"/>
<path d="M44.9975 49.2637H33.1969C32.2752 49.2637 31.528 50.0109 31.528 50.9326V51.6317C31.528 52.5534 32.2752 53.3006 33.1969 53.3006H44.9975C45.9192 53.3006 46.6664 52.5534 46.6664 51.6317V50.9326C46.6664 50.0109 45.9192 49.2637 44.9975 49.2637Z" fill="white" stroke="#3EA1DA" stroke-width="1.5" stroke-miterlimit="6" stroke-linecap="round" stroke-linejoin="round"/>
<path d="M43.7624 45.2246H31.9618C31.04 45.2246 30.2928 45.9718 30.2928 46.8935V47.5926C30.2928 48.5143 31.04 49.2615 31.9618 49.2615H43.7624C44.6841 49.2615 45.4313 48.5143 45.4313 47.5926V46.8935C45.4313 45.9718 44.6841 45.2246 43.7624 45.2246Z" fill="white" stroke="#3EA1DA" stroke-width="1.5" stroke-miterlimit="6" stroke-linecap="round" stroke-linejoin="round"/>
<path d="M43.7624 37.1465H31.9618C31.04 37.1465 30.2928 37.8937 30.2928 38.8154V39.5145C30.2928 40.4362 31.04 41.1834 31.9618 41.1834H43.7624C44.6841 41.1834 45.4313 40.4362 45.4313 39.5145V38.8154C45.4313 37.8937 44.6841 37.1465 43.7624 37.1465Z" fill="white" stroke="#3EA1DA" stroke-width="1.5" stroke-miterlimit="6" stroke-linecap="round" stroke-linejoin="round"/>
<path d="M54.6721 60.6963V21.7054C54.6721 20.7635 53.9086 20 52.9668 20H52.2476C51.3057 20 50.5422 20.7635 50.5422 21.7054V60.6963C50.5422 61.6381 51.3057 62.4016 52.2476 62.4016H52.9668C53.9086 62.4016 54.6721 61.6381 54.6721 60.6963Z" fill="white" stroke="#3EA1DA" stroke-width="1.5" stroke-miterlimit="6" stroke-linecap="round" stroke-linejoin="round"/>
<path d="M63.6212 61.252H41.7976C41.2987 61.252 40.8943 61.6564 40.8943 62.1553V64.0962C40.8943 64.5951 41.2987 64.9995 41.7976 64.9995H63.6212C64.1201 64.9995 64.5246 64.5951 64.5246 64.0962V62.1553C64.5246 61.6564 64.1201 61.252 63.6212 61.252Z" fill="white" stroke="#3EA1DA" stroke-width="1.5" stroke-miterlimit="6" stroke-linecap="round" stroke-linejoin="round"/>
<path d="M43.7057 37.0403L38.1368 25.416L32.3517 37.0403" stroke="#3EA1DA" stroke-width="1.5" stroke-miterlimit="6" stroke-linecap="round" stroke-linejoin="round"/>
</g>
<defs>
<filter id="filter0_d_466_9673" x="0" y="0" width="105" height="105" filterUnits="userSpaceOnUse" color-interpolation-filters="sRGB">
<feFlood flood-opacity="0" result="BackgroundImageFix"/>
<feColorMatrix in="SourceAlpha" type="matrix" values="0 0 0 0 0 0 0 0 0 0 0 0 0 0 0 0 0 0 127 0" result="hardAlpha"/>
<feOffset dy="10"/>
<feGaussianBlur stdDeviation="10"/>
<feComposite in2="hardAlpha" operator="out"/>
<feColorMatrix type="matrix" values="0 0 0 0 0.827451 0 0 0 0 0.878431 0 0 0 0 0.929412 0 0 0 1 0"/>
<feBlend mode="normal" in2="BackgroundImageFix" result="effect1_dropShadow_466_9673"/>
<feBlend mode="normal" in="SourceGraphic" in2="effect1_dropShadow_466_9673" result="shape"/>
</filter>
</defs>
</svg>
