<svg width="391" height="238" viewBox="0 0 391 238" fill="none" xmlns="http://www.w3.org/2000/svg">
<g clip-path="url(#clip0_3147_501)">
<rect width="391" height="238" fill="white"/>
<g filter="url(#filter0_d_3147_501)">
<path d="M351 4C351 1.79086 352.791 0 355 0H371C373.209 0 375 1.79086 375 4V20C375 22.2091 373.209 24 371 24H355C352.791 24 351 22.2091 351 20V4Z" fill="white"/>
<path d="M369.95 4.17539L364.81 4.15771C364.598 4.15771 364.418 4.23149 364.271 4.37904C364.124 4.52612 364.05 4.70572 364.05 4.91785C364.05 5.12999 364.127 5.30676 364.281 5.44818C364.433 5.58961 364.604 5.66032 364.793 5.66032L368.288 5.66032L364.311 9.63779C364.169 9.77921 364.096 9.95316 364.09 10.1596C364.084 10.3656 364.157 10.5452 364.311 10.6985C364.464 10.8517 364.644 10.9254 364.85 10.9198C365.056 10.9136 365.23 10.8399 365.371 10.6985L369.349 6.72098L369.331 10.1986C369.343 10.4225 369.422 10.6022 369.57 10.7374C369.717 10.8732 369.897 10.9411 370.109 10.9411C370.321 10.9411 370.495 10.8676 370.631 10.7205C370.766 10.5729 370.839 10.399 370.851 10.1986L370.834 5.05928C370.845 4.92964 370.828 4.81203 370.781 4.70643C370.733 4.59989 370.669 4.50538 370.586 4.42288C370.504 4.34038 370.409 4.2758 370.303 4.22913C370.197 4.18152 370.079 4.16361 369.95 4.17539Z" fill="#969BA6"/>
<path d="M356.052 19.8247L361.191 19.8423C361.403 19.8423 361.583 19.7686 361.731 19.621C361.878 19.4739 361.951 19.2943 361.951 19.0822C361.951 18.8701 361.875 18.6933 361.721 18.5519C361.568 18.4104 361.398 18.3397 361.209 18.3397L357.714 18.3397L361.691 14.3623C361.833 14.2208 361.906 14.0469 361.912 13.8404C361.918 13.6344 361.844 13.4548 361.691 13.3016C361.538 13.1484 361.358 13.0746 361.152 13.0803C360.946 13.0864 360.772 13.1602 360.63 13.3016L356.653 17.2791L356.671 13.8014C356.659 13.5775 356.579 13.3979 356.432 13.2626C356.285 13.1268 356.105 13.0589 355.893 13.0589C355.681 13.0589 355.507 13.1325 355.371 13.2796C355.236 13.4271 355.162 13.6011 355.15 13.8014L355.168 18.9408C355.156 19.0704 355.174 19.188 355.221 19.2936C355.268 19.4002 355.333 19.4947 355.416 19.5772C355.498 19.6597 355.592 19.7242 355.698 19.7709C355.804 19.8185 355.922 19.8364 356.052 19.8247Z" fill="#969BA6"/>
</g>
<g clip-path="url(#clip1_3147_501)">
<path d="M30.8208 52C1.93766 52 21.4338 99.3401 -32 99.3401V200H524V58.9764C483.564 58.9764 477.787 101.832 458.291 101.832C438.795 101.832 436.629 62.963 402.691 62.963C365.865 62.963 369.475 158.64 331.927 158.64C309.543 158.64 321.818 129.239 282.826 129.239C244.556 129.239 262.608 93.8586 233.725 93.8586C204.119 93.8586 196.177 147.677 169.46 147.677C136.244 147.677 144.187 83.8923 96.5299 83.8923C50.3169 83.8923 56.8156 52 30.8208 52Z" fill="url(#paint0_linear_3147_501)"/>
<path d="M-37 99.5C16.4286 99.5 1.98842 52 30.8687 52C56.861 52 50.3629 84 96.5714 84C144.224 84 136.282 148 169.494 148C196.209 148 204.151 94 233.753 94C264.799 94 243.139 129.5 282.849 129.5C321.838 129.5 309.564 159 331.946 159C369.49 159 365.88 63 402.703 63C436.637 63 438.803 102 458.297 102C477.792 102 483.568 59 524 59" stroke="#2EB76C" stroke-width="3"/>
</g>
<rect x="16.5" y="208.5" width="41" height="29" rx="14.5" fill="white"/>
<rect x="16.5" y="208.5" width="41" height="29" rx="14.5" stroke="#E0E4ED"/>
<path d="M32.3652 227V220.215H32.2598L30.1855 221.656V220.062L32.3711 218.545H34.1348V227H32.3652ZM36.6074 227V218.545H39.9355C42.4492 218.545 43.9023 220.062 43.9023 222.711V222.723C43.9023 225.453 42.4668 227 39.9355 227H36.6074ZM38.377 225.541H39.6543C41.2188 225.541 42.0977 224.557 42.0977 222.752V222.74C42.0977 221 41.1895 220.004 39.6543 220.004H38.377V225.541Z" fill="#71747E"/>
<path d="M84.2559 227V219.717H84.1621L82.0117 221.275V220.162L84.2617 218.545H85.3105V227H84.2559ZM89.6406 227L87.3379 218.545H88.4395L90.1211 225.418H90.1914L92.084 218.545H93.1504L95.043 225.418H95.1133L96.7949 218.545H97.8965L95.5938 227H94.5977L92.6523 220.326H92.582L90.6367 227H89.6406Z" fill="#969BA6"/>
<path d="M138.15 227V219.717H138.057L135.906 221.275V220.162L138.156 218.545H139.205V227H138.15ZM141.783 227V218.545H143.008L145.902 225.6H145.996L148.891 218.545H150.115V227H149.131V220.543H149.066L146.395 227H145.504L142.832 220.543H142.768V227H141.783Z" fill="#969BA6"/>
<path d="M190.814 227.141C189.068 227.141 187.938 226.168 187.826 224.832L187.82 224.762H188.834L188.84 224.82C188.922 225.652 189.689 226.227 190.814 226.227C191.922 226.227 192.678 225.605 192.678 224.709V224.697C192.678 223.66 191.934 223.08 190.75 223.08H189.689V222.189H190.703C191.711 222.189 192.414 221.568 192.414 220.725V220.713C192.414 219.828 191.834 219.318 190.803 219.318C189.807 219.318 189.098 219.846 189.01 220.701L189.004 220.76H187.99L187.996 220.701C188.131 219.324 189.221 218.404 190.803 218.404C192.414 218.404 193.475 219.301 193.475 220.584V220.596C193.475 221.639 192.736 222.354 191.682 222.576V222.6C192.912 222.705 193.75 223.473 193.75 224.674V224.686C193.75 226.098 192.508 227.141 190.814 227.141ZM195.596 227V218.545H196.82L199.715 225.6H199.809L202.703 218.545H203.928V227H202.943V220.543H202.879L200.207 227H199.316L196.645 220.543H196.58V227H195.596Z" fill="#969BA6"/>
<path d="M244.631 227V219.717H244.537L242.387 221.275V220.162L244.637 218.545H245.686V227H244.631ZM250.59 227V223.361L247.59 218.545H248.791L251.07 222.301H251.164L253.443 218.545H254.645L251.645 223.361V227H250.59Z" fill="#969BA6"/>
<path d="M297.439 227.141C295.693 227.141 294.562 226.168 294.451 224.832L294.445 224.762H295.459L295.465 224.82C295.547 225.652 296.314 226.227 297.439 226.227C298.547 226.227 299.303 225.605 299.303 224.709V224.697C299.303 223.66 298.559 223.08 297.375 223.08H296.314V222.189H297.328C298.336 222.189 299.039 221.568 299.039 220.725V220.713C299.039 219.828 298.459 219.318 297.428 219.318C296.432 219.318 295.723 219.846 295.635 220.701L295.629 220.76H294.615L294.621 220.701C294.756 219.324 295.846 218.404 297.428 218.404C299.039 218.404 300.1 219.301 300.1 220.584V220.596C300.1 221.639 299.361 222.354 298.307 222.576V222.6C299.537 222.705 300.375 223.473 300.375 224.674V224.686C300.375 226.098 299.133 227.141 297.439 227.141ZM304.254 227V223.361L301.254 218.545H302.455L304.734 222.301H304.828L307.107 218.545H308.309L305.309 223.361V227H304.254Z" fill="#969BA6"/>
<rect x="346" y="222" width="3" height="7" rx="0.8" fill="#E3535B"/>
<rect x="355" y="219" width="3" height="12" rx="0.8" fill="#E3535B"/>
<rect x="360" y="217" width="3" height="8" rx="0.8" fill="#2EB76C"/>
<rect x="351" y="215" width="3" height="12" rx="0.8" fill="#2EB76C"/>
<line y1="132.5" x2="375" y2="132.5" stroke="#B9BECA" stroke-dasharray="4 2"/>
<rect x="16" y="126" width="41" height="12" rx="2" fill="#2E394D"/>
<path d="M22.9209 136V129.931H22.8428L21.0508 131.229V130.302L22.9258 128.954H23.7998V136H22.9209ZM28.2432 136.117C26.749 136.117 25.6846 135.277 25.6846 134.096V134.086C25.6846 133.217 26.2949 132.494 27.1982 132.284V132.265C26.4268 132.025 25.9385 131.439 25.9385 130.697V130.688C25.9385 129.623 26.9102 128.837 28.2432 128.837C29.5762 128.837 30.5479 129.623 30.5479 130.688V130.697C30.5479 131.439 30.0596 132.025 29.2881 132.265V132.284C30.1914 132.494 30.8018 133.217 30.8018 134.086V134.096C30.8018 135.277 29.7373 136.117 28.2432 136.117ZM28.2432 131.938C29.0928 131.938 29.6738 131.454 29.6738 130.771V130.761C29.6738 130.077 29.0928 129.594 28.2432 129.594C27.3936 129.594 26.8125 130.077 26.8125 130.761V130.771C26.8125 131.454 27.3936 131.938 28.2432 131.938ZM28.2432 135.351C29.2148 135.351 29.9082 134.804 29.9082 134.042V134.032C29.9082 133.261 29.2197 132.709 28.2432 132.709C27.2666 132.709 26.5781 133.261 26.5781 134.032V134.042C26.5781 134.804 27.2715 135.351 28.2432 135.351ZM34.5811 136.166C33.0234 136.166 32.0957 134.745 32.0957 132.479V132.47C32.0957 130.204 33.0234 128.788 34.5811 128.788C36.1387 128.788 37.0762 130.204 37.0762 132.47V132.479C37.0762 134.745 36.1387 136.166 34.5811 136.166ZM34.5811 135.399C35.5918 135.399 36.1924 134.276 36.1924 132.479V132.47C36.1924 130.673 35.5918 129.56 34.5811 129.56C33.5703 129.56 32.9795 130.673 32.9795 132.47V132.479C32.9795 134.276 33.5703 135.399 34.5811 135.399ZM38.8291 136.049C38.4824 136.049 38.1943 135.761 38.1943 135.414C38.1943 135.062 38.4824 134.779 38.8291 134.779C39.1807 134.779 39.4639 135.062 39.4639 135.414C39.4639 135.761 39.1807 136.049 38.8291 136.049ZM43.1992 136.166C41.9102 136.166 40.5479 135.258 40.5479 132.606V132.597C40.5479 130.194 41.5488 128.788 43.2578 128.788C44.4395 128.788 45.3184 129.481 45.5576 130.521L45.5723 130.585H44.6885L44.6689 130.531C44.4541 129.94 43.9609 129.574 43.248 129.574C41.9688 129.574 41.4463 130.824 41.3926 132.294C41.3877 132.348 41.3877 132.406 41.3877 132.46H41.4805C41.7393 131.884 42.4033 131.371 43.3555 131.371C44.6787 131.371 45.665 132.377 45.665 133.729V133.739C45.665 135.146 44.6201 136.166 43.1992 136.166ZM41.5977 133.729C41.5977 134.657 42.2959 135.39 43.1895 135.39C44.0732 135.39 44.7812 134.672 44.7812 133.759V133.749C44.7812 132.812 44.1172 132.138 43.2041 132.138C42.291 132.138 41.5977 132.807 41.5977 133.725V133.729ZM49.4346 136.166C47.877 136.166 46.9492 134.745 46.9492 132.479V132.47C46.9492 130.204 47.877 128.788 49.4346 128.788C50.9922 128.788 51.9297 130.204 51.9297 132.47V132.479C51.9297 134.745 50.9922 136.166 49.4346 136.166ZM49.4346 135.399C50.4453 135.399 51.0459 134.276 51.0459 132.479V132.47C51.0459 130.673 50.4453 129.56 49.4346 129.56C48.4238 129.56 47.833 130.673 47.833 132.47V132.479C47.833 134.276 48.4238 135.399 49.4346 135.399Z" fill="white"/>
<g filter="url(#filter1_d_3147_501)">
<rect x="57" width="121" height="47" rx="8" fill="white" shape-rendering="crispEdges"/>
<path d="M67.7344 18.0928C66.4014 18.0928 65.5273 17.0137 65.5273 15.373V15.3633C65.5273 13.7129 66.3965 12.6436 67.7344 12.6436C68.457 12.6436 69.0869 13.0049 69.375 13.5664H69.4531V10.6465H70.3027V18H69.4531V17.1602H69.375C69.0527 17.7461 68.4668 18.0928 67.7344 18.0928ZM67.9297 17.3408C68.8867 17.3408 69.4727 16.5889 69.4727 15.373V15.3633C69.4727 14.1475 68.8867 13.3955 67.9297 13.3955C66.9678 13.3955 66.3965 14.1377 66.3965 15.3633V15.373C66.3965 16.5986 66.9678 17.3408 67.9297 17.3408ZM73.877 18.0928C72.5439 18.0928 71.6699 17.0137 71.6699 15.373V15.3633C71.6699 13.7129 72.5391 12.6436 73.877 12.6436C74.5996 12.6436 75.2295 13.0049 75.5176 13.5664H75.5957V10.6465H76.4453V18H75.5957V17.1602H75.5176C75.1953 17.7461 74.6094 18.0928 73.877 18.0928ZM74.0723 17.3408C75.0293 17.3408 75.6152 16.5889 75.6152 15.373V15.3633C75.6152 14.1475 75.0293 13.3955 74.0723 13.3955C73.1104 13.3955 72.5391 14.1377 72.5391 15.3633V15.373C72.5391 16.5986 73.1104 17.3408 74.0723 17.3408ZM80.3271 10.6465L78.1006 19.7578H77.2852L79.5117 10.6465H80.3271ZM81.123 18V12.7363H81.9727V13.5371H82.0508C82.2852 12.9707 82.7832 12.6436 83.4717 12.6436C84.1846 12.6436 84.6826 13.0195 84.9268 13.5664H85.0049C85.2881 13.0098 85.8887 12.6436 86.6162 12.6436C87.6904 12.6436 88.291 13.2588 88.291 14.3623V18H87.4414V14.5576C87.4414 13.7812 87.085 13.3955 86.3428 13.3955C85.6104 13.3955 85.127 13.9473 85.127 14.6162V18H84.2773V14.4258C84.2773 13.8008 83.8477 13.3955 83.1836 13.3955C82.4951 13.3955 81.9727 13.9961 81.9727 14.7383V18H81.123ZM89.8242 18V12.7363H90.6738V13.5371H90.752C90.9863 12.9707 91.4844 12.6436 92.1729 12.6436C92.8857 12.6436 93.3838 13.0195 93.6279 13.5664H93.7061C93.9893 13.0098 94.5898 12.6436 95.3174 12.6436C96.3916 12.6436 96.9922 13.2588 96.9922 14.3623V18H96.1426V14.5576C96.1426 13.7812 95.7861 13.3955 95.0439 13.3955C94.3115 13.3955 93.8281 13.9473 93.8281 14.6162V18H92.9785V14.4258C92.9785 13.8008 92.5488 13.3955 91.8848 13.3955C91.1963 13.3955 90.6738 13.9961 90.6738 14.7383V18H89.8242ZM100.776 10.6465L98.5498 19.7578H97.7344L99.9609 10.6465H100.776ZM102.021 19.8457C101.909 19.8457 101.763 19.8359 101.646 19.8164V19.1182C101.748 19.1377 101.88 19.1426 101.997 19.1426C102.48 19.1426 102.773 18.9229 102.964 18.3174L103.062 18.0049L101.113 12.7363H102.021L103.467 17.0674H103.545L104.985 12.7363H105.879L103.823 18.3223C103.389 19.5039 102.954 19.8457 102.021 19.8457ZM107.451 19.8457C107.339 19.8457 107.192 19.8359 107.075 19.8164V19.1182C107.178 19.1377 107.31 19.1426 107.427 19.1426C107.91 19.1426 108.203 18.9229 108.394 18.3174L108.491 18.0049L106.543 12.7363H107.451L108.896 17.0674H108.975L110.415 12.7363H111.309L109.253 18.3223C108.818 19.5039 108.384 19.8457 107.451 19.8457ZM112.881 19.8457C112.769 19.8457 112.622 19.8359 112.505 19.8164V19.1182C112.607 19.1377 112.739 19.1426 112.856 19.1426C113.34 19.1426 113.633 18.9229 113.823 18.3174L113.921 18.0049L111.973 12.7363H112.881L114.326 17.0674H114.404L115.845 12.7363H116.738L114.683 18.3223C114.248 19.5039 113.813 19.8457 112.881 19.8457ZM118.311 19.8457C118.198 19.8457 118.052 19.8359 117.935 19.8164V19.1182C118.037 19.1377 118.169 19.1426 118.286 19.1426C118.77 19.1426 119.062 18.9229 119.253 18.3174L119.351 18.0049L117.402 12.7363H118.311L119.756 17.0674H119.834L121.274 12.7363H122.168L120.112 18.3223C119.678 19.5039 119.243 19.8457 118.311 19.8457ZM128.457 18.166C126.899 18.166 125.972 16.7451 125.972 14.4795V14.4697C125.972 12.2041 126.899 10.7881 128.457 10.7881C130.015 10.7881 130.952 12.2041 130.952 14.4697V14.4795C130.952 16.7451 130.015 18.166 128.457 18.166ZM128.457 17.3994C129.468 17.3994 130.068 16.2764 130.068 14.4795V14.4697C130.068 12.6729 129.468 11.5596 128.457 11.5596C127.446 11.5596 126.855 12.6729 126.855 14.4697V14.4795C126.855 16.2764 127.446 17.3994 128.457 17.3994ZM134.756 18.166C133.198 18.166 132.271 16.7451 132.271 14.4795V14.4697C132.271 12.2041 133.198 10.7881 134.756 10.7881C136.313 10.7881 137.251 12.2041 137.251 14.4697V14.4795C137.251 16.7451 136.313 18.166 134.756 18.166ZM134.756 17.3994C135.767 17.3994 136.367 16.2764 136.367 14.4795V14.4697C136.367 12.6729 135.767 11.5596 134.756 11.5596C133.745 11.5596 133.154 12.6729 133.154 14.4697V14.4795C133.154 16.2764 133.745 17.3994 134.756 17.3994ZM139.395 13.2197C139.048 13.2197 138.76 12.9316 138.76 12.585C138.76 12.2334 139.048 11.9502 139.395 11.9502C139.746 11.9502 140.029 12.2334 140.029 12.585C140.029 12.9316 139.746 13.2197 139.395 13.2197ZM139.395 16.999C139.048 16.999 138.76 16.7109 138.76 16.3643C138.76 16.0127 139.048 15.7295 139.395 15.7295C139.746 15.7295 140.029 16.0127 140.029 16.3643C140.029 16.7109 139.746 16.999 139.395 16.999ZM144.023 18.166C142.466 18.166 141.538 16.7451 141.538 14.4795V14.4697C141.538 12.2041 142.466 10.7881 144.023 10.7881C145.581 10.7881 146.519 12.2041 146.519 14.4697V14.4795C146.519 16.7451 145.581 18.166 144.023 18.166ZM144.023 17.3994C145.034 17.3994 145.635 16.2764 145.635 14.4795V14.4697C145.635 12.6729 145.034 11.5596 144.023 11.5596C143.013 11.5596 142.422 12.6729 142.422 14.4697V14.4795C142.422 16.2764 143.013 17.3994 144.023 17.3994ZM150.322 18.166C148.765 18.166 147.837 16.7451 147.837 14.4795V14.4697C147.837 12.2041 148.765 10.7881 150.322 10.7881C151.88 10.7881 152.817 12.2041 152.817 14.4697V14.4795C152.817 16.7451 151.88 18.166 150.322 18.166ZM150.322 17.3994C151.333 17.3994 151.934 16.2764 151.934 14.4795V14.4697C151.934 12.6729 151.333 11.5596 150.322 11.5596C149.312 11.5596 148.721 12.6729 148.721 14.4697V14.4795C148.721 16.2764 149.312 17.3994 150.322 17.3994ZM154.961 13.2197C154.614 13.2197 154.326 12.9316 154.326 12.585C154.326 12.2334 154.614 11.9502 154.961 11.9502C155.312 11.9502 155.596 12.2334 155.596 12.585C155.596 12.9316 155.312 13.2197 154.961 13.2197ZM154.961 16.999C154.614 16.999 154.326 16.7109 154.326 16.3643C154.326 16.0127 154.614 15.7295 154.961 15.7295C155.312 15.7295 155.596 16.0127 155.596 16.3643C155.596 16.7109 155.312 16.999 154.961 16.999ZM159.59 18.166C158.032 18.166 157.104 16.7451 157.104 14.4795V14.4697C157.104 12.2041 158.032 10.7881 159.59 10.7881C161.147 10.7881 162.085 12.2041 162.085 14.4697V14.4795C162.085 16.7451 161.147 18.166 159.59 18.166ZM159.59 17.3994C160.601 17.3994 161.201 16.2764 161.201 14.4795V14.4697C161.201 12.6729 160.601 11.5596 159.59 11.5596C158.579 11.5596 157.988 12.6729 157.988 14.4697V14.4795C157.988 16.2764 158.579 17.3994 159.59 17.3994ZM165.889 18.166C164.331 18.166 163.403 16.7451 163.403 14.4795V14.4697C163.403 12.2041 164.331 10.7881 165.889 10.7881C167.446 10.7881 168.384 12.2041 168.384 14.4697V14.4795C168.384 16.7451 167.446 18.166 165.889 18.166ZM165.889 17.3994C166.899 17.3994 167.5 16.2764 167.5 14.4795V14.4697C167.5 12.6729 166.899 11.5596 165.889 11.5596C164.878 11.5596 164.287 12.6729 164.287 14.4697V14.4795C164.287 16.2764 164.878 17.3994 165.889 17.3994Z" fill="#A9AEB9"/>
<path d="M104.605 35V32.9561H99.7998V31.835C101.133 29.5996 102.644 27.1934 104.024 25.1357H105.809V31.8555H107.21V32.9561H105.809V35H104.605ZM101.058 31.8623H104.612V26.2773H104.53C103.423 27.9316 102.131 29.9688 101.058 31.7803V31.8623ZM109.521 35L113.95 26.332V26.2363H108.673V25.1357H115.201V26.2773L110.812 35H109.521ZM116.555 35.0684C116.069 35.0684 115.666 34.665 115.666 34.1797C115.666 33.6875 116.069 33.291 116.555 33.291C117.047 33.291 117.443 33.6875 117.443 34.1797C117.443 34.665 117.047 35.0684 116.555 35.0684ZM122.673 35.2324C120.868 35.2324 118.961 33.9609 118.961 30.249V30.2354C118.961 26.8721 120.362 24.9033 122.755 24.9033C124.409 24.9033 125.64 25.874 125.975 27.3301L125.995 27.4189H124.758L124.73 27.3438C124.43 26.5166 123.739 26.0039 122.741 26.0039C120.95 26.0039 120.219 27.7539 120.144 29.8115C120.137 29.8867 120.137 29.9688 120.137 30.0439H120.267C120.629 29.2373 121.559 28.5195 122.892 28.5195C124.744 28.5195 126.125 29.9277 126.125 31.8213V31.835C126.125 33.8037 124.662 35.2324 122.673 35.2324ZM120.431 31.8213C120.431 33.1201 121.408 34.1455 122.659 34.1455C123.896 34.1455 124.888 33.1406 124.888 31.8623V31.8486C124.888 30.5361 123.958 29.5928 122.68 29.5928C121.401 29.5928 120.431 30.5293 120.431 31.8145V31.8213ZM131.402 35.2324C129.222 35.2324 127.923 33.2432 127.923 30.0713V30.0576C127.923 26.8857 129.222 24.9033 131.402 24.9033C133.583 24.9033 134.896 26.8857 134.896 30.0576V30.0713C134.896 33.2432 133.583 35.2324 131.402 35.2324ZM131.402 34.1592C132.817 34.1592 133.658 32.5869 133.658 30.0713V30.0576C133.658 27.542 132.817 25.9834 131.402 25.9834C129.987 25.9834 129.16 27.542 129.16 30.0576V30.0713C129.16 32.5869 129.987 34.1592 131.402 34.1592Z" fill="#2EB76C"/>
</g>
<path d="M117.5 47L117.5 192" stroke="#B9BECA" stroke-dasharray="4 2"/>
<g filter="url(#filter2_d_3147_501)">
<circle cx="117.5" cy="90" r="4" fill="white"/>
<circle cx="117.5" cy="90" r="5" stroke="#2EB76C" stroke-width="2"/>
</g>
</g>
<defs>
<filter id="filter0_d_3147_501" x="343" y="-6" width="40" height="40" filterUnits="userSpaceOnUse" color-interpolation-filters="sRGB">
<feFlood flood-opacity="0" result="BackgroundImageFix"/>
<feColorMatrix in="SourceAlpha" type="matrix" values="0 0 0 0 0 0 0 0 0 0 0 0 0 0 0 0 0 0 127 0" result="hardAlpha"/>
<feOffset dy="2"/>
<feGaussianBlur stdDeviation="4"/>
<feComposite in2="hardAlpha" operator="out"/>
<feColorMatrix type="matrix" values="0 0 0 0 0 0 0 0 0 0 0 0 0 0 0 0 0 0 0.1 0"/>
<feBlend mode="normal" in2="BackgroundImageFix" result="effect1_dropShadow_3147_501"/>
<feBlend mode="normal" in="SourceGraphic" in2="effect1_dropShadow_3147_501" result="shape"/>
</filter>
<filter id="filter1_d_3147_501" x="49" y="-6" width="137" height="63" filterUnits="userSpaceOnUse" color-interpolation-filters="sRGB">
<feFlood flood-opacity="0" result="BackgroundImageFix"/>
<feColorMatrix in="SourceAlpha" type="matrix" values="0 0 0 0 0 0 0 0 0 0 0 0 0 0 0 0 0 0 127 0" result="hardAlpha"/>
<feOffset dy="2"/>
<feGaussianBlur stdDeviation="4"/>
<feComposite in2="hardAlpha" operator="out"/>
<feColorMatrix type="matrix" values="0 0 0 0 0 0 0 0 0 0 0 0 0 0 0 0 0 0 0.1 0"/>
<feBlend mode="normal" in2="BackgroundImageFix" result="effect1_dropShadow_3147_501"/>
<feBlend mode="normal" in="SourceGraphic" in2="effect1_dropShadow_3147_501" result="shape"/>
</filter>
<filter id="filter2_d_3147_501" x="103.5" y="76" width="28" height="28" filterUnits="userSpaceOnUse" color-interpolation-filters="sRGB">
<feFlood flood-opacity="0" result="BackgroundImageFix"/>
<feColorMatrix in="SourceAlpha" type="matrix" values="0 0 0 0 0 0 0 0 0 0 0 0 0 0 0 0 0 0 127 0" result="hardAlpha"/>
<feOffset/>
<feGaussianBlur stdDeviation="4"/>
<feComposite in2="hardAlpha" operator="out"/>
<feColorMatrix type="matrix" values="0 0 0 0 0.180392 0 0 0 0 0.717647 0 0 0 0 0.423529 0 0 0 1 0"/>
<feBlend mode="normal" in2="BackgroundImageFix" result="effect1_dropShadow_3147_501"/>
<feBlend mode="normal" in="SourceGraphic" in2="effect1_dropShadow_3147_501" result="shape"/>
</filter>
<linearGradient id="paint0_linear_3147_501" x1="246" y1="52" x2="246" y2="200" gradientUnits="userSpaceOnUse">
<stop stop-color="#5BC88D" stop-opacity="0.1"/>
<stop offset="1" stop-color="#5BC88D" stop-opacity="0"/>
</linearGradient>
<clipPath id="clip0_3147_501">
<rect width="391" height="238" fill="white"/>
</clipPath>
<clipPath id="clip1_3147_501">
<rect width="391" height="168" fill="white" transform="translate(0 24)"/>
</clipPath>
</defs>
</svg>
