<svg width="24" height="24" viewBox="0 0 24 24" fill="none" xmlns="http://www.w3.org/2000/svg">
<path d="M12.0004 13.0499L6.92539 18.1249C6.79206 18.2582 6.62139 18.3289 6.41339 18.3369C6.20472 18.3456 6.02539 18.2749 5.87539 18.1249C5.72539 17.9749 5.65039 17.7999 5.65039 17.5999C5.65039 17.3999 5.72539 17.2249 5.87539 17.0749L10.9504 11.9999L5.87539 6.9249C5.74206 6.79157 5.67139 6.62057 5.66339 6.4119C5.65472 6.2039 5.72539 6.0249 5.87539 5.8749C6.02539 5.7249 6.20039 5.6499 6.40039 5.6499C6.60039 5.6499 6.77539 5.7249 6.92539 5.8749L12.0004 10.9499L17.0754 5.8749C17.2087 5.74157 17.3797 5.67057 17.5884 5.6619C17.7964 5.6539 17.9754 5.7249 18.1254 5.8749C18.2754 6.0249 18.3504 6.1999 18.3504 6.3999C18.3504 6.5999 18.2754 6.7749 18.1254 6.9249L13.0504 11.9999L18.1254 17.0749C18.2587 17.2082 18.3294 17.3789 18.3374 17.5869C18.3461 17.7956 18.2754 17.9749 18.1254 18.1249C17.9754 18.2749 17.8004 18.3499 17.6004 18.3499C17.4004 18.3499 17.2254 18.2749 17.0754 18.1249L12.0004 13.0499Z" fill="#212225"/>
</svg>
