<svg width="390" height="157" viewBox="0 0 390 157" fill="none" xmlns="http://www.w3.org/2000/svg">
<path d="M101.571 133.286C108.872 130.179 115.485 125.655 121.026 119.975C126.567 114.295 130.926 107.573 133.851 100.197C136.776 92.8212 138.21 84.9383 138.068 77.0047C137.926 69.0712 136.212 61.2445 133.025 53.9779C129.838 46.7113 125.241 40.149 119.5 34.6709C113.76 29.1928 106.99 24.9078 99.5824 22.0638C92.1748 19.2198 84.2766 17.8734 76.345 18.1025C68.4135 18.3315 60.6062 20.1316 53.3751 23.3984L78.0773 78.0774L101.571 133.286Z" fill="#51CBC3"/>
<path d="M54.5834 22.8684C47.3333 25.9537 40.7618 30.4368 35.2442 36.0617C29.7266 41.6866 25.371 48.3432 22.4259 55.6515C19.4809 62.9597 18.0042 70.7765 18.0801 78.6554C18.156 86.5344 19.783 94.3212 22.8683 101.571C25.9536 108.822 30.4366 115.393 36.0616 120.911C41.6865 126.428 48.3431 130.784 55.6514 133.729C62.9596 136.674 70.7763 138.151 78.6553 138.075C86.5342 137.999 94.3211 136.372 101.571 133.286L78.0773 78.0774L54.5834 22.8684Z" fill="#F6BC62"/>
<circle cx="188.654" cy="25.5774" r="12.5" fill="#F6BC62"/>
<path d="M221.169 30.2932C218.541 30.2932 216.967 28.427 216.967 25.5007V25.488C216.967 22.5491 218.579 20.7019 221.169 20.7019C223.771 20.7019 225.371 22.5554 225.371 25.488V25.5007C225.371 28.4207 223.784 30.2932 221.169 30.2932ZM221.169 29.2395C223.048 29.2395 224.203 27.7668 224.203 25.5007V25.488C224.203 23.2029 223.042 21.7556 221.169 21.7556C219.303 21.7556 218.135 23.2029 218.135 25.488V25.5007C218.135 27.7668 219.265 29.2395 221.169 29.2395ZM230.614 30.198C229.662 30.198 228.9 29.7473 228.481 28.9856H228.38V30.0774H227.275V20.5178H228.38V24.3137H228.481C228.856 23.5837 229.675 23.114 230.614 23.114C232.354 23.114 233.483 24.5042 233.483 26.6497V26.6624C233.483 28.7952 232.347 30.198 230.614 30.198ZM230.36 29.2205C231.611 29.2205 232.354 28.2556 232.354 26.6624V26.6497C232.354 25.0564 231.611 24.0916 230.36 24.0916C229.116 24.0916 228.354 25.0691 228.354 26.6497V26.6624C228.354 28.2429 229.116 29.2205 230.36 29.2205ZM235.261 30.0774V20.5178H236.365V30.0774H235.261ZM239.069 21.9143C238.65 21.9143 238.308 21.5715 238.308 21.1526C238.308 20.7336 238.65 20.3909 239.069 20.3909C239.488 20.3909 239.831 20.7336 239.831 21.1526C239.831 21.5715 239.488 21.9143 239.069 21.9143ZM238.511 30.0774V23.2346H239.615V30.0774H238.511ZM244.516 32.4895C242.865 32.4895 241.812 31.7468 241.64 30.6233L241.653 30.6169H242.795L242.802 30.6233C242.922 31.1438 243.532 31.512 244.516 31.512C245.741 31.512 246.471 30.9343 246.471 29.925V28.5413H246.369C245.938 29.2966 245.163 29.7219 244.224 29.7219C242.453 29.7219 241.354 28.3508 241.354 26.4338V26.4211C241.354 24.5042 242.459 23.114 244.249 23.114C245.214 23.114 245.963 23.5901 246.382 24.3645H246.458V23.2346H247.562V29.9822C247.562 31.512 246.382 32.4895 244.516 32.4895ZM244.465 28.7444C245.734 28.7444 246.496 27.7922 246.496 26.4338V26.4211C246.496 25.0627 245.728 24.0916 244.465 24.0916C243.195 24.0916 242.484 25.0627 242.484 26.4211V26.4338C242.484 27.7922 243.195 28.7444 244.465 28.7444ZM251.498 30.198C250.197 30.198 249.213 29.4109 249.213 28.1667V28.1541C249.213 26.9353 250.114 26.2307 251.708 26.1355L253.669 26.0149V25.3928C253.669 24.5486 253.155 24.0916 252.133 24.0916C251.314 24.0916 250.774 24.3962 250.597 24.9294L250.59 24.9485H249.486L249.492 24.9104C249.67 23.8376 250.711 23.114 252.171 23.114C253.84 23.114 254.773 23.9709 254.773 25.3928V30.0774H253.669V29.0681H253.567C253.136 29.7981 252.418 30.198 251.498 30.198ZM250.343 28.1414C250.343 28.8333 250.933 29.2395 251.727 29.2395C252.85 29.2395 253.669 28.5032 253.669 27.5256V26.9036L251.841 27.0178C250.8 27.0813 250.343 27.4495 250.343 28.1287V28.1414ZM259.141 30.198C257.617 30.198 256.57 29.4617 256.443 28.3318H257.573C257.757 28.9031 258.303 29.2776 259.179 29.2776C260.099 29.2776 260.753 28.8396 260.753 28.2175V28.2048C260.753 27.7415 260.404 27.4177 259.56 27.2146L258.5 26.9607C257.217 26.656 256.64 26.0974 256.64 25.1135V25.1072C256.64 23.9709 257.731 23.114 259.185 23.114C260.62 23.114 261.616 23.8313 261.769 24.9485H260.683C260.537 24.4089 260.004 24.0344 259.179 24.0344C258.366 24.0344 257.77 24.4534 257.77 25.0564V25.0691C257.77 25.5325 258.112 25.8245 258.918 26.0212L259.972 26.2751C261.261 26.5862 261.883 27.1448 261.883 28.1223V28.135C261.883 29.3538 260.696 30.198 259.141 30.198ZM264.181 21.9143C263.762 21.9143 263.419 21.5715 263.419 21.1526C263.419 20.7336 263.762 20.3909 264.181 20.3909C264.6 20.3909 264.942 20.7336 264.942 21.1526C264.942 21.5715 264.6 21.9143 264.181 21.9143ZM263.622 30.0774V23.2346H264.727V30.0774H263.622ZM273.467 30.2932C271.76 30.2932 270.541 29.1951 270.408 27.7288L270.401 27.6589H271.5L271.506 27.7097C271.614 28.5857 272.407 29.2839 273.48 29.2839C274.699 29.2839 275.537 28.4143 275.537 27.1765V27.1638C275.537 25.9451 274.686 25.0754 273.499 25.0754C272.89 25.0754 272.369 25.2595 271.976 25.634C271.817 25.7864 271.671 25.9641 271.557 26.1799H270.566L271.049 20.9177H276.146V21.9397H271.95L271.639 25.0374H271.741C272.147 24.4216 272.864 24.0852 273.696 24.0852C275.416 24.0852 276.654 25.3738 276.654 27.1448V27.1575C276.654 29.0046 275.327 30.2932 273.467 30.2932ZM281.561 30.2932C279.536 30.2932 278.33 28.446 278.33 25.5007V25.488C278.33 22.5427 279.536 20.7019 281.561 20.7019C283.585 20.7019 284.804 22.5427 284.804 25.488V25.5007C284.804 28.446 283.585 30.2932 281.561 30.2932ZM281.561 29.2966C282.875 29.2966 283.655 27.8367 283.655 25.5007V25.488C283.655 23.1521 282.875 21.7048 281.561 21.7048C280.247 21.7048 279.479 23.1521 279.479 25.488V25.5007C279.479 27.8367 280.247 29.2966 281.561 29.2966ZM287.083 30.1409C286.632 30.1409 286.258 29.7664 286.258 29.3157C286.258 28.8586 286.632 28.4905 287.083 28.4905C287.54 28.4905 287.908 28.8586 287.908 29.3157C287.908 29.7664 287.54 30.1409 287.083 30.1409ZM292.771 30.2297C290.879 30.2297 289.654 29.176 289.533 27.7288L289.527 27.6526H290.625L290.631 27.7161C290.72 28.6174 291.552 29.2395 292.771 29.2395C293.97 29.2395 294.789 28.5667 294.789 27.5955V27.5828C294.789 26.4592 293.983 25.8308 292.701 25.8308H291.552V24.866H292.65C293.742 24.866 294.503 24.1931 294.503 23.2791V23.2664C294.503 22.3079 293.875 21.7556 292.758 21.7556C291.679 21.7556 290.911 22.3269 290.815 23.2537L290.809 23.3171H289.711L289.717 23.2537C289.863 21.762 291.044 20.7654 292.758 20.7654C294.503 20.7654 295.652 21.7366 295.652 23.1267V23.1394C295.652 24.2693 294.853 25.0437 293.71 25.2849V25.3103C295.043 25.4246 295.951 26.2561 295.951 27.5574V27.5701C295.951 29.0999 294.605 30.2297 292.771 30.2297ZM300.813 30.2932C299.105 30.2932 297.887 29.1951 297.753 27.7288L297.747 27.6589H298.845L298.852 27.7097C298.959 28.5857 299.753 29.2839 300.826 29.2839C302.044 29.2839 302.882 28.4143 302.882 27.1765V27.1638C302.882 25.9451 302.032 25.0754 300.845 25.0754C300.235 25.0754 299.715 25.2595 299.321 25.634C299.163 25.7864 299.017 25.9641 298.902 26.1799H297.912L298.395 20.9177H303.492V21.9397H299.296L298.985 25.0374H299.086C299.493 24.4216 300.21 24.0852 301.042 24.0852C302.762 24.0852 304 25.3738 304 27.1448V27.1575C304 29.0046 302.673 30.2932 300.813 30.2932ZM307.548 25.7356C306.38 25.7356 305.675 24.7834 305.675 23.2664V23.26C305.675 21.7429 306.38 20.7971 307.548 20.7971C308.716 20.7971 309.427 21.7429 309.427 23.26V23.2664C309.427 24.7834 308.716 25.7356 307.548 25.7356ZM308.233 30.0774H307.205L313.438 20.9177H314.467L308.233 30.0774ZM307.548 24.9802C308.176 24.9802 308.544 24.3391 308.544 23.2664V23.26C308.544 22.1873 308.176 21.5525 307.548 21.5525C306.919 21.5525 306.558 22.1873 306.558 23.26V23.2664C306.558 24.3391 306.919 24.9802 307.548 24.9802ZM314.111 30.198C312.943 30.198 312.239 29.2458 312.239 27.7288V27.7224C312.239 26.2053 312.943 25.2595 314.111 25.2595C315.279 25.2595 315.99 26.2053 315.99 27.7224V27.7288C315.99 29.2458 315.279 30.198 314.111 30.198ZM314.111 29.4426C314.74 29.4426 315.108 28.8015 315.108 27.7288V27.7224C315.108 26.6497 314.74 26.0149 314.111 26.0149C313.483 26.0149 313.121 26.6497 313.121 27.7224V27.7288C313.121 28.8015 313.483 29.4426 314.111 29.4426Z" fill="#434343"/>
<circle cx="188.654" cy="60.5774" r="12.5" fill="#7EC2E7"/>
<path d="M220.325 65.2932C218.319 65.2932 217.024 64.2395 216.891 62.7478L216.884 62.678H218.027L218.033 62.7478C218.116 63.6619 219.068 64.2395 220.388 64.2395C221.632 64.2395 222.54 63.5984 222.54 62.6653V62.6589C222.54 61.8972 222.013 61.3767 220.756 61.0974L219.741 60.8752C217.906 60.469 217.113 59.6248 217.113 58.2981V58.2917C217.119 56.7747 218.446 55.7019 220.337 55.7019C222.166 55.7019 223.441 56.781 223.537 58.1458L223.543 58.2346H222.4L222.388 58.1521C222.261 57.3459 221.499 56.7493 220.306 56.7556C219.163 56.762 218.281 57.3015 218.281 58.26V58.2664C218.281 58.9963 218.782 59.4915 220.026 59.7644L221.042 59.9929C222.953 60.4182 223.708 61.1863 223.708 62.5066V62.5129C223.708 64.2268 222.369 65.2932 220.325 65.2932ZM227.352 65.198C226.05 65.198 225.066 64.4109 225.066 63.1667V63.1541C225.066 61.9353 225.968 61.2307 227.561 61.1355L229.522 61.0149V60.3928C229.522 59.5486 229.008 59.0916 227.986 59.0916C227.167 59.0916 226.628 59.3962 226.45 59.9294L226.444 59.9485H225.339L225.346 59.9104C225.523 58.8376 226.564 58.114 228.024 58.114C229.694 58.114 230.627 58.9709 230.627 60.3928V65.0774H229.522V64.0681H229.421C228.989 64.7981 228.272 65.198 227.352 65.198ZM226.196 63.1414C226.196 63.8333 226.787 64.2395 227.58 64.2395C228.704 64.2395 229.522 63.5032 229.522 62.5256V61.9036L227.694 62.0178C226.653 62.0813 226.196 62.4495 226.196 63.1287V63.1414ZM232.709 65.0774V55.5178H233.813V59.2629H233.915C234.258 58.5393 234.899 58.114 235.908 58.114C237.444 58.114 238.301 59.0217 238.301 60.6467V65.0774H237.197V60.9133C237.197 59.6819 236.689 59.0916 235.597 59.0916C234.505 59.0916 233.813 59.8279 233.813 61.0276V65.0774H232.709ZM242.18 65.198C240.878 65.198 239.895 64.4109 239.895 63.1667V63.1541C239.895 61.9353 240.796 61.2307 242.389 61.1355L244.351 61.0149V60.3928C244.351 59.5486 243.836 59.0916 242.814 59.0916C241.996 59.0916 241.456 59.3962 241.278 59.9294L241.272 59.9485H240.167L240.174 59.9104C240.352 58.8376 241.393 58.114 242.853 58.114C244.522 58.114 245.455 58.9709 245.455 60.3928V65.0774H244.351V64.0681H244.249C243.817 64.7981 243.1 65.198 242.18 65.198ZM241.024 63.1414C241.024 63.8333 241.615 64.2395 242.408 64.2395C243.532 64.2395 244.351 63.5032 244.351 62.5256V61.9036L242.522 62.0178C241.481 62.0813 241.024 62.4495 241.024 63.1287V63.1414ZM247.474 65.0774V58.2346H248.578V59.2756H248.68C248.984 58.5393 249.632 58.114 250.527 58.114C251.454 58.114 252.101 58.6028 252.418 59.3137H252.52C252.888 58.5901 253.669 58.114 254.615 58.114C256.011 58.114 256.792 58.9138 256.792 60.3484V65.0774H255.688V60.6023C255.688 59.593 255.224 59.0916 254.259 59.0916C253.307 59.0916 252.679 59.8088 252.679 60.6785V65.0774H251.574V60.4309C251.574 59.6184 251.016 59.0916 250.152 59.0916C249.257 59.0916 248.578 59.8723 248.578 60.8372V65.0774H247.474Z" fill="#434343"/>
<circle cx="188.654" cy="95.5774" r="12.5" fill="#51CBC3"/>
<path d="M217.322 100.077V90.9177H220.775C222.496 90.9177 223.714 92.1047 223.714 93.844V93.8567C223.714 95.5959 222.496 96.8083 220.775 96.8083H218.465V100.077H217.322ZM220.483 91.9333H218.465V95.7927H220.483C221.791 95.7927 222.546 95.0754 222.546 93.8694V93.8567C222.546 92.6506 221.791 91.9333 220.483 91.9333ZM227.072 100.198C225.771 100.198 224.787 99.4109 224.787 98.1667V98.1541C224.787 96.9353 225.688 96.2307 227.282 96.1355L229.243 96.0149V95.3928C229.243 94.5486 228.729 94.0916 227.707 94.0916C226.888 94.0916 226.349 94.3962 226.171 94.9294L226.165 94.9485H225.06L225.066 94.9104C225.244 93.8376 226.285 93.114 227.745 93.114C229.415 93.114 230.348 93.9709 230.348 95.3928V100.077H229.243V99.0681H229.142C228.71 99.7981 227.993 100.198 227.072 100.198ZM225.917 98.1414C225.917 98.8333 226.507 99.2395 227.301 99.2395C228.424 99.2395 229.243 98.5032 229.243 97.5256V96.9036L227.415 97.0178C226.374 97.0813 225.917 97.4495 225.917 98.1287V98.1414ZM234.715 100.198C233.191 100.198 232.144 99.4617 232.017 98.3318H233.147C233.331 98.9031 233.877 99.2776 234.753 99.2776C235.673 99.2776 236.327 98.8396 236.327 98.2175V98.2048C236.327 97.7415 235.978 97.4177 235.134 97.2146L234.074 96.9607C232.792 96.656 232.214 96.0974 232.214 95.1135V95.1072C232.214 93.9709 233.306 93.114 234.759 93.114C236.194 93.114 237.19 93.8313 237.343 94.9485H236.257C236.111 94.4089 235.578 94.0344 234.753 94.0344C233.94 94.0344 233.344 94.4534 233.344 95.0564V95.0691C233.344 95.5325 233.687 95.8245 234.493 96.0212L235.546 96.2751C236.835 96.5862 237.457 97.1448 237.457 98.1223V98.135C237.457 99.3538 236.27 100.198 234.715 100.198ZM241.05 100.198C239.749 100.198 238.765 99.4109 238.765 98.1667V98.1541C238.765 96.9353 239.666 96.2307 241.259 96.1355L243.221 96.0149V95.3928C243.221 94.5486 242.707 94.0916 241.685 94.0916C240.866 94.0916 240.326 94.3962 240.148 94.9294L240.142 94.9485H239.038L239.044 94.9104C239.222 93.8376 240.263 93.114 241.723 93.114C243.392 93.114 244.325 93.9709 244.325 95.3928V100.077H243.221V99.0681H243.119C242.688 99.7981 241.97 100.198 241.05 100.198ZM239.895 98.1414C239.895 98.8333 240.485 99.2395 241.278 99.2395C242.402 99.2395 243.221 98.5032 243.221 97.5256V96.9036L241.393 97.0178C240.352 97.0813 239.895 97.4495 239.895 98.1287V98.1414ZM246.344 100.077V93.2346H247.448V94.2502H247.55C247.81 93.533 248.451 93.114 249.378 93.114C249.587 93.114 249.822 93.1394 249.93 93.1584V94.2312C249.702 94.1931 249.492 94.1677 249.251 94.1677C248.197 94.1677 247.448 94.8342 247.448 95.8372V100.077H246.344ZM258.722 100.293C256.449 100.293 255.078 98.9221 255.078 96.929V90.9177H256.221V96.8528C256.221 98.262 257.135 99.2395 258.722 99.2395C260.309 99.2395 261.21 98.262 261.21 96.8528V90.9177H262.353V96.929C262.353 98.9221 260.994 100.293 258.722 100.293ZM266.415 100.198C265.114 100.198 264.13 99.4109 264.13 98.1667V98.1541C264.13 96.9353 265.031 96.2307 266.625 96.1355L268.586 96.0149V95.3928C268.586 94.5486 268.072 94.0916 267.05 94.0916C266.231 94.0916 265.691 94.3962 265.514 94.9294L265.507 94.9485H264.403L264.409 94.9104C264.587 93.8376 265.628 93.114 267.088 93.114C268.757 93.114 269.69 93.9709 269.69 95.3928V100.077H268.586V99.0681H268.484C268.053 99.7981 267.335 100.198 266.415 100.198ZM265.26 98.1414C265.26 98.8333 265.85 99.2395 266.644 99.2395C267.767 99.2395 268.586 98.5032 268.586 97.5256V96.9036L266.758 97.0178C265.717 97.0813 265.26 97.4495 265.26 98.1287V98.1414ZM271.709 100.077V93.2346H272.813V94.2629H272.915C273.258 93.5393 273.899 93.114 274.908 93.114C276.444 93.114 277.301 94.0217 277.301 95.6467V100.077H276.197V95.9133C276.197 94.6819 275.689 94.0916 274.597 94.0916C273.505 94.0916 272.813 94.8279 272.813 96.0276V100.077H271.709ZM282.119 102.49C280.469 102.49 279.415 101.747 279.244 100.623L279.256 100.617H280.399L280.405 100.623C280.526 101.144 281.135 101.512 282.119 101.512C283.344 101.512 284.074 100.934 284.074 99.925V98.5413H283.973C283.541 99.2966 282.767 99.7219 281.827 99.7219C280.056 99.7219 278.958 98.3508 278.958 96.4338V96.4211C278.958 94.5042 280.062 93.114 281.853 93.114C282.817 93.114 283.566 93.5901 283.985 94.3645H284.062V93.2346H285.166V99.9822C285.166 101.512 283.985 102.49 282.119 102.49ZM282.068 98.7444C283.338 98.7444 284.1 97.7922 284.1 96.4338V96.4211C284.1 95.0627 283.332 94.0916 282.068 94.0916C280.799 94.0916 280.088 95.0627 280.088 96.4211V96.4338C280.088 97.7922 280.799 98.7444 282.068 98.7444ZM293.113 100.077V92.1873H293.012L290.682 93.8757V92.6697L293.12 90.9177H294.256V100.077H293.113ZM299.899 90.7019C301.575 90.7019 303.346 91.8826 303.346 95.3293V95.342C303.346 98.4651 302.044 100.293 299.823 100.293C298.287 100.293 297.144 99.3918 296.833 98.0398L296.814 97.9573H297.963L297.988 98.0271C298.268 98.7952 298.909 99.2712 299.835 99.2712C301.499 99.2712 302.178 97.6462 302.248 95.7356C302.254 95.6658 302.254 95.5896 302.254 95.5198H302.133C301.797 96.2688 300.934 96.9353 299.696 96.9353C297.976 96.9353 296.693 95.6277 296.693 93.8694V93.8567C296.693 92.0286 298.052 90.7019 299.899 90.7019ZM299.893 95.9387C301.08 95.9387 301.981 95.0691 301.981 93.8757V93.8694C301.981 92.6633 301.073 91.7112 299.912 91.7112C298.763 91.7112 297.842 92.6443 297.842 93.8313V93.844C297.842 95.0627 298.706 95.9387 299.893 95.9387ZM305.58 100.141C305.129 100.141 304.755 99.7664 304.755 99.3157C304.755 98.8586 305.129 98.4905 305.58 98.4905C306.037 98.4905 306.405 98.8586 306.405 99.3157C306.405 99.7664 306.037 100.141 305.58 100.141ZM311.261 100.293C309.585 100.293 307.814 99.1125 307.814 95.6658V95.6531C307.814 92.53 309.116 90.7019 311.337 90.7019C312.874 90.7019 314.016 91.6033 314.327 92.9553L314.346 93.0378H313.197L313.172 92.968C312.893 92.2 312.251 91.7239 311.325 91.7239C309.662 91.7239 308.982 93.3489 308.913 95.2595C308.906 95.3293 308.906 95.4055 308.906 95.4753H309.027C309.363 94.7263 310.227 94.0598 311.464 94.0598C313.185 94.0598 314.467 95.3674 314.467 97.1257V97.1384C314.467 98.9666 313.108 100.293 311.261 100.293ZM309.179 97.1257C309.179 98.3318 310.087 99.2839 311.249 99.2839C312.397 99.2839 313.318 98.3508 313.318 97.1638V97.1511C313.318 95.9324 312.455 95.0564 311.268 95.0564C310.081 95.0564 309.179 95.926 309.179 97.1194V97.1257ZM319.31 100.293C317.603 100.293 316.384 99.1951 316.25 97.7288L316.244 97.6589H317.342L317.349 97.7097C317.457 98.5857 318.25 99.2839 319.323 99.2839C320.542 99.2839 321.379 98.4143 321.379 97.1765V97.1638C321.379 95.9451 320.529 95.0754 319.342 95.0754C318.732 95.0754 318.212 95.2595 317.818 95.634C317.66 95.7864 317.514 95.9641 317.399 96.1799H316.409L316.892 90.9177H321.989V91.9397H317.793L317.482 95.0374H317.583C317.99 94.4216 318.707 94.0852 319.539 94.0852C321.259 94.0852 322.497 95.3738 322.497 97.1448V97.1575C322.497 99.0046 321.17 100.293 319.31 100.293ZM326.045 95.7356C324.877 95.7356 324.172 94.7834 324.172 93.2664V93.26C324.172 91.7429 324.877 90.7971 326.045 90.7971C327.213 90.7971 327.924 91.7429 327.924 93.26V93.2664C327.924 94.7834 327.213 95.7356 326.045 95.7356ZM326.73 100.077H325.702L331.936 90.9177H332.964L326.73 100.077ZM326.045 94.9802C326.673 94.9802 327.042 94.3391 327.042 93.2664V93.26C327.042 92.1873 326.673 91.5525 326.045 91.5525C325.417 91.5525 325.055 92.1873 325.055 93.26V93.2664C325.055 94.3391 325.417 94.9802 326.045 94.9802ZM332.608 100.198C331.44 100.198 330.736 99.2458 330.736 97.7288V97.7224C330.736 96.2053 331.44 95.2595 332.608 95.2595C333.776 95.2595 334.487 96.2053 334.487 97.7224V97.7288C334.487 99.2458 333.776 100.198 332.608 100.198ZM332.608 99.4426C333.237 99.4426 333.605 98.8015 333.605 97.7288V97.7224C333.605 96.6497 333.237 96.0149 332.608 96.0149C331.98 96.0149 331.618 96.6497 331.618 97.7224V97.7288C331.618 98.8015 331.98 99.4426 332.608 99.4426Z" fill="#434343"/>
<circle cx="188.654" cy="130.577" r="12.5" fill="#5351CB"/>
<path d="M217.322 135.077V125.918H220.775C222.496 125.918 223.714 127.105 223.714 128.844V128.857C223.714 130.596 222.496 131.808 220.775 131.808H218.465V135.077H217.322ZM220.483 126.933H218.465V130.793H220.483C221.791 130.793 222.546 130.075 222.546 128.869V128.857C222.546 127.651 221.791 126.933 220.483 126.933ZM225.447 135.077V128.235H226.552V129.25H226.653C226.914 128.533 227.555 128.114 228.481 128.114C228.691 128.114 228.926 128.139 229.034 128.158V129.231C228.805 129.193 228.596 129.168 228.354 129.168C227.301 129.168 226.552 129.834 226.552 130.837V135.077H225.447ZM233.02 135.198C231.071 135.198 229.865 133.852 229.865 131.662V131.65C229.865 129.453 231.071 128.114 233.02 128.114C234.969 128.114 236.175 129.453 236.175 131.65V131.662C236.175 133.852 234.969 135.198 233.02 135.198ZM233.02 134.22C234.315 134.22 235.045 133.275 235.045 131.662V131.65C235.045 130.031 234.315 129.092 233.02 129.092C231.725 129.092 230.995 130.031 230.995 131.65V131.662C230.995 133.275 231.725 134.22 233.02 134.22ZM237.889 137.363V128.235H238.993V129.326H239.095C239.514 128.565 240.275 128.114 241.228 128.114C242.96 128.114 244.097 129.517 244.097 131.65V131.662C244.097 133.808 242.967 135.198 241.228 135.198C240.288 135.198 239.469 134.728 239.095 133.998H238.993V137.363H237.889ZM240.974 134.22C242.224 134.22 242.967 133.256 242.967 131.662V131.65C242.967 130.056 242.224 129.092 240.974 129.092C239.729 129.092 238.968 130.069 238.968 131.65V131.662C238.968 133.243 239.729 134.22 240.974 134.22ZM248.616 135.198C246.661 135.198 245.48 133.827 245.48 131.681V131.675C245.48 129.561 246.687 128.114 248.546 128.114C250.406 128.114 251.536 129.498 251.536 131.542V131.973H246.61C246.642 133.389 247.423 134.214 248.642 134.214C249.568 134.214 250.14 133.776 250.324 133.364L250.349 133.306H251.454L251.441 133.357C251.206 134.284 250.229 135.198 248.616 135.198ZM248.54 129.098C247.524 129.098 246.75 129.79 246.629 131.091H250.413C250.298 129.739 249.549 129.098 248.54 129.098ZM253.25 135.077V128.235H254.354V129.25H254.456C254.716 128.533 255.357 128.114 256.284 128.114C256.494 128.114 256.729 128.139 256.836 128.158V129.231C256.608 129.193 256.398 129.168 256.157 129.168C255.104 129.168 254.354 129.834 254.354 130.837V135.077H253.25ZM260.759 135.128C259.35 135.128 258.76 134.608 258.76 133.3V129.149H257.681V128.235H258.76V126.464H259.902V128.235H261.4V129.149H259.902V133.021C259.902 133.827 260.182 134.151 260.893 134.151C261.089 134.151 261.197 134.144 261.4 134.125V135.065C261.185 135.103 260.975 135.128 260.759 135.128ZM263.635 126.914C263.216 126.914 262.873 126.572 262.873 126.153C262.873 125.734 263.216 125.391 263.635 125.391C264.054 125.391 264.396 125.734 264.396 126.153C264.396 126.572 264.054 126.914 263.635 126.914ZM263.076 135.077V128.235H264.181V135.077H263.076Z" fill="#434343"/>
</svg>
