<svg width="105" height="105" viewBox="0 0 105 105" fill="none" xmlns="http://www.w3.org/2000/svg">
<g filter="url(#filter0_d_466_9690)">
<rect x="20" y="10" width="65" height="65" rx="10" fill="white" shape-rendering="crispEdges"/>
<path d="M32.3525 32.1171L40.5174 38.6928L48.7371 34.9118L56.7924 26.9661L64.6285 22.4727L72.9578 28.61" stroke="#3EA1DA" stroke-width="1.5" stroke-miterlimit="6" stroke-linecap="round" stroke-linejoin="round"/>
<path d="M29.9803 64.9297V39.1735H34.8761V64.9297H29.9803Z" fill="white" stroke="#3EA1DA" stroke-width="1.5" stroke-miterlimit="6" stroke-linecap="round" stroke-linejoin="round"/>
<path d="M37.9388 65V47.3178H42.9752V65H37.9388Z" fill="white" stroke="#3EA1DA" stroke-width="1.5" stroke-miterlimit="6" stroke-linecap="round" stroke-linejoin="round"/>
<path d="M45.9937 64.9746V44.0901H50.9774V64.9746H45.9937Z" fill="white" stroke="#3EA1DA" stroke-width="1.5" stroke-miterlimit="6" stroke-linecap="round" stroke-linejoin="round"/>
<path d="M54.0859 64.9102V37.6432H58.9425V64.9102H54.0859Z" fill="white" stroke="#3EA1DA" stroke-width="1.5" stroke-miterlimit="6" stroke-linecap="round" stroke-linejoin="round"/>
<path d="M62.1559 64.8691V31.3303H66.9296V64.8691H62.1559Z" fill="white" stroke="#3EA1DA" stroke-width="1.5" stroke-miterlimit="6" stroke-linecap="round" stroke-linejoin="round"/>
<path d="M70.1555 64.8984V35.8744H74.9868V64.8984H70.1555Z" fill="white" stroke="#3EA1DA" stroke-width="1.5" stroke-miterlimit="6" stroke-linecap="round" stroke-linejoin="round"/>
<path d="M34.9845 32.1432C34.9845 32.4862 34.917 32.8259 34.7857 33.1427C34.6544 33.4596 34.462 33.7476 34.2195 33.9901C33.977 34.2327 33.689 34.4251 33.3721 34.5563C33.0552 34.6876 32.7156 34.7552 32.3726 34.7552C32.0296 34.7552 31.6899 34.6876 31.373 34.5563C31.0561 34.4251 30.7682 34.2327 30.5256 33.9901C30.2831 33.7476 30.0907 33.4596 29.9594 33.1427C29.8282 32.8259 29.7606 32.4862 29.7606 32.1432C29.7606 31.4505 30.0358 30.7861 30.5256 30.2963C31.0155 29.8064 31.6798 29.5312 32.3726 29.5312C33.0653 29.5312 33.7297 29.8064 34.2195 30.2963C34.7093 30.7861 34.9845 31.4505 34.9845 32.1432Z" fill="white" stroke="#3EA1DA" stroke-width="1.5" stroke-miterlimit="6" stroke-linecap="round" stroke-linejoin="round"/>
<path d="M43.1248 38.4205C43.1248 39.1133 42.8496 39.7776 42.3598 40.2675C41.8699 40.7573 41.2056 41.0325 40.5128 41.0325C39.8201 41.0325 39.1557 40.7573 38.6659 40.2675C38.1761 39.7776 37.9009 39.1133 37.9009 38.4205C37.9009 38.0775 37.9684 37.7379 38.0997 37.421C38.231 37.1041 38.4234 36.8162 38.6659 36.5736C38.9084 36.3311 39.1964 36.1387 39.5133 36.0074C39.8302 35.8762 40.1698 35.8086 40.5128 35.8086C40.8558 35.8086 41.1955 35.8762 41.5124 36.0074C41.8293 36.1387 42.1172 36.3311 42.3598 36.5736C42.6023 36.8162 42.7947 37.1041 42.926 37.421C43.0572 37.7379 43.1248 38.0775 43.1248 38.4205Z" fill="white" stroke="#3EA1DA" stroke-width="1.5" stroke-miterlimit="6" stroke-linecap="round" stroke-linejoin="round"/>
<path d="M51.1532 35.0104C51.1532 35.3534 51.0857 35.693 50.9544 36.0099C50.8231 36.3268 50.6307 36.6148 50.3882 36.8573C50.1457 37.0999 49.8577 37.2923 49.5408 37.4235C49.2239 37.5548 48.8843 37.6223 48.5413 37.6223C48.1983 37.6223 47.8586 37.5548 47.5417 37.4235C47.2248 37.2923 46.9369 37.0999 46.6943 36.8573C46.4518 36.6148 46.2594 36.3268 46.1281 36.0099C45.9969 35.693 45.9293 35.3534 45.9293 35.0104C45.9293 34.3177 46.2045 33.6533 46.6943 33.1635C47.1842 32.6736 47.8485 32.3984 48.5413 32.3984C49.234 32.3984 49.8984 32.6736 50.3882 33.1635C50.878 33.6533 51.1532 34.3177 51.1532 35.0104Z" fill="white" stroke="#3EA1DA" stroke-width="1.5" stroke-miterlimit="6" stroke-linecap="round" stroke-linejoin="round"/>
<path d="M59.182 26.9518C59.182 27.6445 58.9068 28.3089 58.417 28.7987C57.9272 29.2886 57.2628 29.5637 56.5701 29.5637C55.8774 29.5637 55.213 29.2886 54.7232 28.7987C54.2333 28.3089 53.9581 27.6445 53.9581 26.9518C53.9581 26.6088 54.0257 26.2691 54.157 25.9522C54.2882 25.6354 54.4806 25.3474 54.7232 25.1049C54.9657 24.8623 55.2536 24.6699 55.5705 24.5387C55.8874 24.4074 56.2271 24.3398 56.5701 24.3398C57.2628 24.3398 57.9272 24.615 58.417 25.1049C58.9069 25.5947 59.182 26.2591 59.182 26.9518Z" fill="white" stroke="#3EA1DA" stroke-width="1.5" stroke-miterlimit="6" stroke-linecap="round" stroke-linejoin="round"/>
<path d="M67.2108 22.612C67.2108 23.3047 66.9357 23.969 66.4458 24.4589C65.956 24.9487 65.2916 25.2239 64.5989 25.2239C64.2559 25.2239 63.9162 25.1563 63.5993 25.0251C63.2824 24.8938 62.9945 24.7014 62.752 24.4589C62.5094 24.2163 62.317 23.9284 62.1858 23.6115C62.0545 23.2946 61.9869 22.955 61.9869 22.612C61.9869 22.2689 62.0545 21.9293 62.1858 21.6124C62.317 21.2955 62.5094 21.0076 62.752 20.765C62.9945 20.5225 63.2824 20.3301 63.5993 20.1988C63.9162 20.0676 64.2559 20 64.5989 20C65.2916 20 65.956 20.2752 66.4458 20.765C66.9357 21.2549 67.2108 21.9192 67.2108 22.612Z" fill="white" stroke="#3EA1DA" stroke-width="1.5" stroke-miterlimit="6" stroke-linecap="round" stroke-linejoin="round"/>
<path d="M75.2393 28.4245C75.2393 29.1172 74.9641 29.7815 74.4743 30.2714C73.9844 30.7612 73.3201 31.0364 72.6273 31.0364C71.9346 31.0364 71.2702 30.7612 70.7804 30.2714C70.2906 29.7815 70.0154 29.1172 70.0154 28.4245C70.0154 28.0814 70.0829 27.7418 70.2142 27.4249C70.3455 27.108 70.5379 26.8201 70.7804 26.5775C71.0229 26.335 71.3109 26.1426 71.6278 26.0113C71.9447 25.8801 72.2843 25.8125 72.6273 25.8125C73.3201 25.8125 73.9844 26.0877 74.4743 26.5775C74.9641 27.0674 75.2393 27.7317 75.2393 28.4245Z" fill="white" stroke="#3EA1DA" stroke-width="1.5" stroke-miterlimit="6" stroke-linecap="round" stroke-linejoin="round"/>
</g>
<defs>
<filter id="filter0_d_466_9690" x="0" y="0" width="105" height="105" filterUnits="userSpaceOnUse" color-interpolation-filters="sRGB">
<feFlood flood-opacity="0" result="BackgroundImageFix"/>
<feColorMatrix in="SourceAlpha" type="matrix" values="0 0 0 0 0 0 0 0 0 0 0 0 0 0 0 0 0 0 127 0" result="hardAlpha"/>
<feOffset dy="10"/>
<feGaussianBlur stdDeviation="10"/>
<feComposite in2="hardAlpha" operator="out"/>
<feColorMatrix type="matrix" values="0 0 0 0 0.827451 0 0 0 0 0.878431 0 0 0 0 0.929412 0 0 0 1 0"/>
<feBlend mode="normal" in2="BackgroundImageFix" result="effect1_dropShadow_466_9690"/>
<feBlend mode="normal" in="SourceGraphic" in2="effect1_dropShadow_466_9690" result="shape"/>
</filter>
</defs>
</svg>
