<svg width="80" height="80" viewBox="0 0 80 80" fill="none" xmlns="http://www.w3.org/2000/svg">
<rect x="0.5" y="0.5" width="79" height="79" rx="15.5" fill="#F9FAFB"/>
<rect x="0.5" y="0.5" width="79" height="79" rx="15.5" stroke="#EFF0F4"/>
<path d="M21.043 42.9922C21.043 41.8876 21.9385 40.9922 23.043 40.9922H25.043C26.1476 40.9922 27.043 41.8876 27.043 42.9922V57.9922C27.043 58.5445 26.5953 58.9922 26.043 58.9922H22.043C21.4907 58.9922 21.043 58.5445 21.043 57.9922V42.9922Z" fill="white"/>
<path fill-rule="evenodd" clip-rule="evenodd" d="M20.043 42.9922C20.043 41.3353 21.3862 39.9922 23.043 39.9922H25.043C26.6999 39.9922 28.043 41.3353 28.043 42.9922V57.9922C28.043 59.0968 27.1476 59.9922 26.043 59.9922H22.043C20.9385 59.9922 20.043 59.0968 20.043 57.9922V42.9922ZM23.043 41.9922C22.4907 41.9922 22.043 42.4399 22.043 42.9922V57.9922H26.043V42.9922C26.043 42.4399 25.5953 41.9922 25.043 41.9922H23.043Z" fill="#212225"/>
<path d="M27.9362 30.3411C27.9362 32.5273 26.164 34.2995 23.9779 34.2995C21.7917 34.2995 20.0195 32.5273 20.0195 30.3411C20.0195 28.155 21.7917 26.3828 23.9779 26.3828C26.164 26.3828 27.9362 28.155 27.9362 30.3411Z" fill="white"/>
<path d="M38.6262 23.9662C38.6262 26.1523 36.854 27.9245 34.6679 27.9245C32.4817 27.9245 30.7095 26.1523 30.7095 23.9662C30.7095 21.78 32.4817 20.0078 34.6679 20.0078C36.854 20.0078 38.6262 21.78 38.6262 23.9662Z" fill="white"/>
<path d="M49.3791 33.0495C49.3791 35.2356 47.6068 37.0078 45.4207 37.0078C43.2346 37.0078 41.4623 35.2356 41.4623 33.0495C41.4623 30.8633 43.2346 29.0911 45.4207 29.0911C47.6068 29.0911 49.3791 30.8633 49.3791 33.0495Z" fill="white"/>
<path d="M59.6266 23.9662C59.6266 26.1523 57.8544 27.9245 55.6682 27.9245C53.4821 27.9245 51.7099 26.1523 51.7099 23.9662C51.7099 21.78 53.4821 20.0078 55.6682 20.0078C57.8544 20.0078 59.6266 21.78 59.6266 23.9662Z" fill="white"/>
<path d="M31.6889 37.2578C31.6889 36.1532 32.5843 35.2578 33.6889 35.2578H35.6889C36.7934 35.2578 37.6889 36.1532 37.6889 37.2578V57.9922C37.6889 58.5445 37.2412 58.9922 36.6889 58.9922H32.6889C32.1366 58.9922 31.6889 58.5445 31.6889 57.9922V37.2578Z" fill="white"/>
<path fill-rule="evenodd" clip-rule="evenodd" d="M30.6889 37.2578C30.6889 35.601 32.032 34.2578 33.6889 34.2578H35.6889C37.3457 34.2578 38.6889 35.601 38.6889 37.2578V57.9922C38.6889 59.0968 37.7934 59.9922 36.6889 59.9922H32.6889C31.5843 59.9922 30.6889 59.0968 30.6889 57.9922V37.2578ZM33.6889 36.2578C33.1366 36.2578 32.6889 36.7055 32.6889 37.2578V57.9922H36.6889V37.2578C36.6889 36.7055 36.2412 36.2578 35.6889 36.2578H33.6889Z" fill="#212225"/>
<path d="M42.3347 42.9922C42.3347 41.8876 43.2301 40.9922 44.3347 40.9922H46.3347C47.4393 40.9922 48.3347 41.8876 48.3347 42.9922V57.9922C48.3347 58.5445 47.887 58.9922 47.3347 58.9922H43.3347C42.7824 58.9922 42.3347 58.5445 42.3347 57.9922V42.9922Z" fill="white"/>
<path fill-rule="evenodd" clip-rule="evenodd" d="M41.3347 42.9922C41.3347 41.3353 42.6779 39.9922 44.3347 39.9922H46.3347C47.9916 39.9922 49.3347 41.3353 49.3347 42.9922V57.9922C49.3347 59.0968 48.4393 59.9922 47.3347 59.9922H43.3347C42.2301 59.9922 41.3347 59.0968 41.3347 57.9922V42.9922ZM44.3347 41.9922C43.7824 41.9922 43.3347 42.4399 43.3347 42.9922V57.9922H47.3347V42.9922C47.3347 42.4399 46.887 41.9922 46.3347 41.9922H44.3347Z" fill="#212225"/>
<path d="M52.9805 33.5078C52.9805 32.4032 53.876 31.5078 54.9805 31.5078H56.9805C58.0851 31.5078 58.9805 32.4032 58.9805 33.5078V57.9922C58.9805 58.5445 58.5328 58.9922 57.9805 58.9922H53.9805C53.4282 58.9922 52.9805 58.5445 52.9805 57.9922V33.5078Z" fill="white"/>
<path fill-rule="evenodd" clip-rule="evenodd" d="M51.9805 33.5078C51.9805 31.851 53.3237 30.5078 54.9805 30.5078H56.9805C58.6374 30.5078 59.9805 31.851 59.9805 33.5078V57.9922C59.9805 59.0968 59.0851 59.9922 57.9805 59.9922H53.9805C52.876 59.9922 51.9805 59.0968 51.9805 57.9922V33.5078ZM54.9805 32.5078C54.4282 32.5078 53.9805 32.9555 53.9805 33.5078V57.9922H57.9805V33.5078C57.9805 32.9555 57.5328 32.5078 56.9805 32.5078H54.9805Z" fill="#212225"/>
<path fill-rule="evenodd" clip-rule="evenodd" d="M34.6679 27.9245C35.3801 27.9245 36.0484 27.7364 36.6258 27.4072L41.4949 32.5394C41.4734 32.7064 41.4623 32.8766 41.4623 33.0495C41.4623 35.2356 43.2346 37.0078 45.4207 37.0078C47.6068 37.0078 49.3791 35.2356 49.3791 33.0495C49.3791 32.3707 49.2082 31.7318 48.9071 31.1734L53.4834 27.2674C54.1095 27.6827 54.8606 27.9245 55.6682 27.9245C57.8544 27.9245 59.6266 26.1523 59.6266 23.9662C59.6266 21.78 57.8544 20.0078 55.6682 20.0078C53.4821 20.0078 51.7099 21.78 51.7099 23.9662C51.7099 24.619 51.8679 25.235 52.1479 25.7779L47.5435 29.7079C46.9301 29.3173 46.2018 29.0911 45.4207 29.0911C44.1859 29.0911 43.0832 29.6565 42.3572 30.5425L38.0579 26.0108C38.4186 25.414 38.6262 24.7144 38.6262 23.9662C38.6262 21.78 36.854 20.0078 34.6679 20.0078C32.4817 20.0078 30.7095 21.78 30.7095 23.9662C30.7095 24.3592 30.7668 24.7388 30.8734 25.0972L26.9628 27.7413C26.2372 26.9088 25.169 26.3828 23.9779 26.3828C21.7917 26.3828 20.0195 28.155 20.0195 30.3411C20.0195 32.5273 21.7917 34.2995 23.9779 34.2995C26.164 34.2995 27.9362 32.5273 27.9362 30.3411C27.9362 30.0704 27.9091 29.8061 27.8573 29.5507L31.913 26.8086C32.6255 27.4993 33.597 27.9245 34.6679 27.9245ZM34.6679 25.9245C35.7494 25.9245 36.6262 25.0477 36.6262 23.9662C36.6262 22.8846 35.7494 22.0078 34.6679 22.0078C33.5863 22.0078 32.7095 22.8846 32.7095 23.9662C32.7095 25.0477 33.5863 25.9245 34.6679 25.9245ZM23.9779 32.2995C25.0595 32.2995 25.9362 31.4227 25.9362 30.3411C25.9362 29.2595 25.0595 28.3828 23.9779 28.3828C22.8963 28.3828 22.0195 29.2595 22.0195 30.3411C22.0195 31.4227 22.8963 32.2995 23.9779 32.2995ZM47.3791 33.0495C47.3791 34.131 46.5023 35.0078 45.4207 35.0078C44.3391 35.0078 43.4623 34.131 43.4623 33.0495C43.4623 31.9679 44.3391 31.0911 45.4207 31.0911C46.5023 31.0911 47.3791 31.9679 47.3791 33.0495ZM55.6682 25.9245C56.7498 25.9245 57.6266 25.0477 57.6266 23.9662C57.6266 22.8846 56.7498 22.0078 55.6682 22.0078C54.5867 22.0078 53.7099 22.8846 53.7099 23.9662C53.7099 25.0477 54.5867 25.9245 55.6682 25.9245Z" fill="#212225"/>
</svg>
