<svg width="81" height="81" viewBox="0 0 81 81" fill="none" xmlns="http://www.w3.org/2000/svg">
<rect x="0.633301" y="0.306885" width="80" height="80" rx="16" fill="#2E394D"/>
<path d="M21.6763 43.2991C21.6763 42.1945 22.5718 41.2991 23.6763 41.2991H25.6763C26.7809 41.2991 27.6763 42.1945 27.6763 43.2991V58.2991C27.6763 58.8514 27.2286 59.2991 26.6763 59.2991H22.6763C22.124 59.2991 21.6763 58.8514 21.6763 58.2991V43.2991Z" fill="#2E394D"/>
<path fill-rule="evenodd" clip-rule="evenodd" d="M20.6763 43.2991C20.6763 41.6422 22.0195 40.2991 23.6763 40.2991H25.6763C27.3332 40.2991 28.6763 41.6422 28.6763 43.2991V58.2991C28.6763 59.4036 27.7809 60.2991 26.6763 60.2991H22.6763C21.5718 60.2991 20.6763 59.4036 20.6763 58.2991V43.2991ZM23.6763 42.2991C23.124 42.2991 22.6763 42.7468 22.6763 43.2991V58.2991H26.6763V43.2991C26.6763 42.7468 26.2286 42.2991 25.6763 42.2991H23.6763Z" fill="#EFF0F4"/>
<path d="M28.5695 30.648C28.5695 32.8341 26.7973 34.6064 24.6112 34.6064C22.425 34.6064 20.6528 32.8341 20.6528 30.648C20.6528 28.4619 22.425 26.6896 24.6112 26.6896C26.7973 26.6896 28.5695 28.4619 28.5695 30.648Z" fill="#2E394D"/>
<path d="M39.2595 24.2731C39.2595 26.4592 37.4873 28.2314 35.3012 28.2314C33.115 28.2314 31.3428 26.4592 31.3428 24.2731C31.3428 22.0869 33.115 20.3147 35.3012 20.3147C37.4873 20.3147 39.2595 22.0869 39.2595 24.2731Z" fill="#2E394D"/>
<path d="M50.0124 33.3563C50.0124 35.5425 48.2401 37.3147 46.054 37.3147C43.8679 37.3147 42.0956 35.5425 42.0956 33.3563C42.0956 31.1702 43.8679 29.398 46.054 29.398C48.2401 29.398 50.0124 31.1702 50.0124 33.3563Z" fill="#2E394D"/>
<path d="M60.2599 24.2731C60.2599 26.4592 58.4877 28.2314 56.3015 28.2314C54.1154 28.2314 52.3432 26.4592 52.3432 24.2731C52.3432 22.0869 54.1154 20.3147 56.3015 20.3147C58.4877 20.3147 60.2599 22.0869 60.2599 24.2731Z" fill="#2E394D"/>
<path d="M32.3222 37.5647C32.3222 36.4601 33.2176 35.5647 34.3222 35.5647H36.3222C37.4267 35.5647 38.3222 36.4601 38.3222 37.5647V58.2991C38.3222 58.8514 37.8745 59.2991 37.3222 59.2991H33.3222C32.7699 59.2991 32.3222 58.8514 32.3222 58.2991V37.5647Z" fill="#2E394D"/>
<path fill-rule="evenodd" clip-rule="evenodd" d="M31.3222 37.5647C31.3222 35.9078 32.6653 34.5647 34.3222 34.5647H36.3222C37.979 34.5647 39.3222 35.9078 39.3222 37.5647V58.2991C39.3222 59.4036 38.4267 60.2991 37.3222 60.2991H33.3222C32.2176 60.2991 31.3222 59.4036 31.3222 58.2991V37.5647ZM34.3222 36.5647C33.7699 36.5647 33.3222 37.0124 33.3222 37.5647V58.2991H37.3222V37.5647C37.3222 37.0124 36.8745 36.5647 36.3222 36.5647H34.3222Z" fill="#EFF0F4"/>
<path d="M42.968 43.2991C42.968 42.1945 43.8634 41.2991 44.968 41.2991H46.968C48.0726 41.2991 48.968 42.1945 48.968 43.2991V58.2991C48.968 58.8514 48.5203 59.2991 47.968 59.2991H43.968C43.4157 59.2991 42.968 58.8514 42.968 58.2991V43.2991Z" fill="#2E394D"/>
<path fill-rule="evenodd" clip-rule="evenodd" d="M41.968 43.2991C41.968 41.6422 43.3112 40.2991 44.968 40.2991H46.968C48.6249 40.2991 49.968 41.6422 49.968 43.2991V58.2991C49.968 59.4036 49.0726 60.2991 47.968 60.2991H43.968C42.8634 60.2991 41.968 59.4036 41.968 58.2991V43.2991ZM44.968 42.2991C44.4157 42.2991 43.968 42.7468 43.968 43.2991V58.2991H47.968V43.2991C47.968 42.7468 47.5203 42.2991 46.968 42.2991H44.968Z" fill="#EFF0F4"/>
<path d="M53.6138 33.8147C53.6138 32.7101 54.5093 31.8147 55.6138 31.8147H57.6138C58.7184 31.8147 59.6138 32.7101 59.6138 33.8147V58.2991C59.6138 58.8514 59.1661 59.2991 58.6138 59.2991H54.6138C54.0615 59.2991 53.6138 58.8514 53.6138 58.2991V33.8147Z" fill="#2E394D"/>
<path fill-rule="evenodd" clip-rule="evenodd" d="M52.6138 33.8147C52.6138 32.1578 53.957 30.8147 55.6138 30.8147H57.6138C59.2707 30.8147 60.6138 32.1578 60.6138 33.8147V58.2991C60.6138 59.4036 59.7184 60.2991 58.6138 60.2991H54.6138C53.5093 60.2991 52.6138 59.4036 52.6138 58.2991V33.8147ZM55.6138 32.8147C55.0615 32.8147 54.6138 33.2624 54.6138 33.8147V58.2991H58.6138V33.8147C58.6138 33.2624 58.1661 32.8147 57.6138 32.8147H55.6138Z" fill="#EFF0F4"/>
<path fill-rule="evenodd" clip-rule="evenodd" d="M35.3012 28.2314C36.0134 28.2314 36.6817 28.0433 37.2591 27.714L42.1282 32.8463C42.1067 33.0133 42.0956 33.1835 42.0956 33.3563C42.0956 35.5425 43.8679 37.3147 46.054 37.3147C48.2401 37.3147 50.0124 35.5425 50.0124 33.3563C50.0124 32.6775 49.8415 32.0386 49.5404 31.4803L54.1167 27.5743C54.7428 27.9896 55.4939 28.2314 56.3015 28.2314C58.4877 28.2314 60.2599 26.4592 60.2599 24.2731C60.2599 22.0869 58.4877 20.3147 56.3015 20.3147C54.1154 20.3147 52.3432 22.0869 52.3432 24.2731C52.3432 24.9259 52.5012 25.5419 52.7812 26.0848L48.1768 30.0147C47.5634 29.6242 46.8351 29.398 46.054 29.398C44.8192 29.398 43.7165 29.9634 42.9905 30.8494L38.6912 26.3177C39.0519 25.7209 39.2595 25.0212 39.2595 24.2731C39.2595 22.0869 37.4873 20.3147 35.3012 20.3147C33.115 20.3147 31.3428 22.0869 31.3428 24.2731C31.3428 24.6661 31.4001 25.0457 31.5067 25.4041L27.5961 28.0481C26.8705 27.2157 25.8023 26.6896 24.6112 26.6896C22.425 26.6896 20.6528 28.4619 20.6528 30.648C20.6528 32.8341 22.425 34.6064 24.6112 34.6064C26.7973 34.6064 28.5695 32.8341 28.5695 30.648C28.5695 30.3773 28.5424 30.113 28.4906 29.8576L32.5463 27.1155C33.2588 27.8062 34.2303 28.2314 35.3012 28.2314ZM35.3012 26.2314C36.3827 26.2314 37.2595 25.3546 37.2595 24.2731C37.2595 23.1915 36.3827 22.3147 35.3012 22.3147C34.2196 22.3147 33.3428 23.1915 33.3428 24.2731C33.3428 25.3546 34.2196 26.2314 35.3012 26.2314ZM24.6112 32.6064C25.6928 32.6064 26.5695 31.7296 26.5695 30.648C26.5695 29.5664 25.6928 28.6896 24.6112 28.6896C23.5296 28.6896 22.6528 29.5664 22.6528 30.648C22.6528 31.7296 23.5296 32.6064 24.6112 32.6064ZM48.0124 33.3563C48.0124 34.4379 47.1356 35.3147 46.054 35.3147C44.9724 35.3147 44.0956 34.4379 44.0956 33.3563C44.0956 32.2748 44.9724 31.398 46.054 31.398C47.1356 31.398 48.0124 32.2748 48.0124 33.3563ZM56.3015 26.2314C57.3831 26.2314 58.2599 25.3546 58.2599 24.2731C58.2599 23.1915 57.3831 22.3147 56.3015 22.3147C55.22 22.3147 54.3432 23.1915 54.3432 24.2731C54.3432 25.3546 55.22 26.2314 56.3015 26.2314Z" fill="#EFF0F4"/>
</svg>
