<svg width="190" height="75" viewBox="0 0 190 75" fill="none" xmlns="http://www.w3.org/2000/svg">
<rect x="0.246094" width="189" height="75" rx="16" fill="white"/>
<path d="M32.5977 27.1173L40.7625 33.6931L48.9822 29.912L57.0375 21.9663L64.8736 17.4729L73.2029 23.6103" stroke="#3EA1DA" stroke-width="1.5" stroke-miterlimit="6" stroke-linecap="round" stroke-linejoin="round"/>
<path d="M30.2266 59.9297V34.1735H35.1223V59.9297H30.2266Z" fill="white" stroke="#3EA1DA" stroke-width="1.5" stroke-miterlimit="6" stroke-linecap="round" stroke-linejoin="round"/>
<path d="M38.1836 60V42.3178H43.22V60H38.1836Z" fill="white" stroke="#3EA1DA" stroke-width="1.5" stroke-miterlimit="6" stroke-linecap="round" stroke-linejoin="round"/>
<path d="M46.2383 59.9736V39.0891H51.2221V59.9736H46.2383Z" fill="white" stroke="#3EA1DA" stroke-width="1.5" stroke-miterlimit="6" stroke-linecap="round" stroke-linejoin="round"/>
<path d="M54.332 59.9102V32.6432H59.1886V59.9102H54.332Z" fill="white" stroke="#3EA1DA" stroke-width="1.5" stroke-miterlimit="6" stroke-linecap="round" stroke-linejoin="round"/>
<path d="M62.4004 59.8687V26.3298H67.1741V59.8687H62.4004Z" fill="white" stroke="#3EA1DA" stroke-width="1.5" stroke-miterlimit="6" stroke-linecap="round" stroke-linejoin="round"/>
<path d="M70.4004 59.8975V30.8734H75.2317V59.8975H70.4004Z" fill="white" stroke="#3EA1DA" stroke-width="1.5" stroke-miterlimit="6" stroke-linecap="round" stroke-linejoin="round"/>
<path d="M35.2298 27.1439C35.2298 27.4869 35.1622 27.8266 35.0309 28.1435C34.8997 28.4604 34.7073 28.7483 34.4647 28.9909C34.2222 29.2334 33.9343 29.4258 33.6174 29.5571C33.3005 29.6883 32.9608 29.7559 32.6178 29.7559C32.2748 29.7559 31.9352 29.6883 31.6183 29.5571C31.3014 29.4258 31.0134 29.2334 30.7709 28.9909C30.5283 28.7483 30.3359 28.4604 30.2047 28.1435C30.0734 27.8266 30.0059 27.4869 30.0059 27.1439C30.0059 26.4512 30.2811 25.7868 30.7709 25.297C31.2607 24.8072 31.9251 24.532 32.6178 24.532C33.3105 24.532 33.9749 24.8072 34.4647 25.297C34.9546 25.7868 35.2298 26.4512 35.2298 27.1439Z" fill="white" stroke="#3EA1DA" stroke-width="1.5" stroke-miterlimit="6" stroke-linecap="round" stroke-linejoin="round"/>
<path d="M43.3704 33.421C43.3704 34.1138 43.0952 34.7781 42.6054 35.268C42.1155 35.7578 41.4512 36.033 40.7584 36.033C40.0657 36.033 39.4013 35.7578 38.9115 35.268C38.4217 34.7781 38.1465 34.1138 38.1465 33.421C38.1465 33.078 38.214 32.7384 38.3453 32.4215C38.4766 32.1046 38.669 31.8166 38.9115 31.5741C39.154 31.3316 39.442 31.1392 39.7589 31.0079C40.0758 30.8766 40.4154 30.8091 40.7584 30.8091C41.1014 30.8091 41.4411 30.8766 41.758 31.0079C42.0749 31.1392 42.3628 31.3316 42.6054 31.5741C42.8479 31.8166 43.0403 32.1046 43.1716 32.4215C43.3028 32.7384 43.3704 33.078 43.3704 33.421Z" fill="white" stroke="#3EA1DA" stroke-width="1.5" stroke-miterlimit="6" stroke-linecap="round" stroke-linejoin="round"/>
<path d="M51.3977 30.0114C51.3977 30.3544 51.3302 30.694 51.1989 31.0109C51.0676 31.3278 50.8753 31.6157 50.6327 31.8583C50.3902 32.1008 50.1022 32.2932 49.7853 32.4245C49.4684 32.5558 49.1288 32.6233 48.7858 32.6233C48.4428 32.6233 48.1031 32.5558 47.7862 32.4245C47.4693 32.2932 47.1814 32.1008 46.9389 31.8583C46.6963 31.6157 46.5039 31.3278 46.3727 31.0109C46.2414 30.694 46.1738 30.3544 46.1738 30.0114C46.1738 29.3186 46.449 28.6543 46.9389 28.1644C47.4287 27.6746 48.0931 27.3994 48.7858 27.3994C49.4785 27.3994 50.1429 27.6746 50.6327 28.1644C51.1225 28.6543 51.3977 29.3186 51.3977 30.0114Z" fill="white" stroke="#3EA1DA" stroke-width="1.5" stroke-miterlimit="6" stroke-linecap="round" stroke-linejoin="round"/>
<path d="M59.427 21.9518C59.427 22.6445 59.1518 23.3089 58.662 23.7987C58.1722 24.2886 57.5078 24.5637 56.8151 24.5637C56.1223 24.5637 55.458 24.2886 54.9682 23.7987C54.4783 23.3089 54.2031 22.6445 54.2031 21.9518C54.2031 21.6088 54.2707 21.2691 54.4019 20.9522C54.5332 20.6354 54.7256 20.3474 54.9681 20.1049C55.2107 19.8623 55.4986 19.6699 55.8155 19.5387C56.1324 19.4074 56.4721 19.3398 56.8151 19.3398C57.5078 19.3398 58.1722 19.615 58.662 20.1049C59.1518 20.5947 59.427 21.2591 59.427 21.9518Z" fill="white" stroke="#3EA1DA" stroke-width="1.5" stroke-miterlimit="6" stroke-linecap="round" stroke-linejoin="round"/>
<path d="M67.4563 17.612C67.4563 18.3047 67.1811 18.969 66.6913 19.4589C66.2015 19.9487 65.5371 20.2239 64.8444 20.2239C64.5014 20.2239 64.1617 20.1563 63.8448 20.0251C63.5279 19.8938 63.24 19.7014 62.9974 19.4589C62.7549 19.2163 62.5625 18.9284 62.4312 18.6115C62.3 18.2946 62.2324 17.955 62.2324 17.612C62.2324 17.2689 62.3 16.9293 62.4312 16.6124C62.5625 16.2955 62.7549 16.0076 62.9974 15.765C63.24 15.5225 63.5279 15.3301 63.8448 15.1988C64.1617 15.0676 64.5014 15 64.8444 15C65.5371 15 66.2015 15.2752 66.6913 15.765C67.1811 16.2549 67.4563 16.9192 67.4563 17.612Z" fill="white" stroke="#3EA1DA" stroke-width="1.5" stroke-miterlimit="6" stroke-linecap="round" stroke-linejoin="round"/>
<path d="M75.4837 23.4242C75.4837 24.1169 75.2085 24.7813 74.7186 25.2711C74.2288 25.761 73.5644 26.0362 72.8717 26.0362C72.179 26.0362 71.5146 25.761 71.0248 25.2711C70.535 24.7813 70.2598 24.1169 70.2598 23.4242C70.2598 23.0812 70.3273 22.7416 70.4586 22.4247C70.5898 22.1078 70.7822 21.8198 71.0248 21.5773C71.2673 21.3347 71.5553 21.1423 71.8722 21.0111C72.1891 20.8798 72.5287 20.8123 72.8717 20.8123C73.5644 20.8123 74.2288 21.0874 74.7186 21.5773C75.2085 22.0671 75.4837 22.7315 75.4837 23.4242Z" fill="white" stroke="#3EA1DA" stroke-width="1.5" stroke-miterlimit="6" stroke-linecap="round" stroke-linejoin="round"/>
<path d="M97.5981 24.778V28.04H101.154V29.09H97.5981V32.45H101.574V33.5H96.3241V23.728H101.574V24.778H97.5981ZM103.026 29.636C103.026 28.852 103.184 28.166 103.502 27.578C103.819 26.9807 104.253 26.5187 104.804 26.192C105.364 25.8653 105.989 25.702 106.68 25.702C107.342 25.702 107.921 25.8513 108.416 26.15C108.92 26.4393 109.288 26.7987 109.522 27.228V25.828H110.81V37.14H109.522V32.086C109.279 32.5153 108.906 32.8793 108.402 33.178C107.898 33.4767 107.31 33.626 106.638 33.626C105.966 33.626 105.354 33.458 104.804 33.122C104.253 32.786 103.819 32.3147 103.502 31.708C103.184 31.1013 103.026 30.4107 103.026 29.636ZM109.522 29.65C109.522 29.0713 109.405 28.5673 109.172 28.138C108.938 27.7087 108.621 27.382 108.22 27.158C107.828 26.9247 107.394 26.808 106.918 26.808C106.442 26.808 106.008 26.92 105.616 27.144C105.224 27.368 104.911 27.6947 104.678 28.124C104.444 28.5533 104.328 29.0573 104.328 29.636C104.328 30.224 104.444 30.7373 104.678 31.176C104.911 31.6053 105.224 31.9367 105.616 32.17C106.008 32.394 106.442 32.506 106.918 32.506C107.394 32.506 107.828 32.394 108.22 32.17C108.621 31.9367 108.938 31.6053 109.172 31.176C109.405 30.7373 109.522 30.2287 109.522 29.65ZM119.767 25.828V33.5H118.493V32.366C118.25 32.758 117.909 33.066 117.471 33.29C117.041 33.5047 116.565 33.612 116.043 33.612C115.445 33.612 114.909 33.4907 114.433 33.248C113.957 32.996 113.579 32.6227 113.299 32.128C113.028 31.6333 112.893 31.0313 112.893 30.322V25.828H114.153V30.154C114.153 30.91 114.344 31.4933 114.727 31.904C115.109 32.3053 115.632 32.506 116.295 32.506C116.976 32.506 117.513 32.296 117.905 31.876C118.297 31.456 118.493 30.8447 118.493 30.042V25.828H119.767ZM122.576 24.582C122.333 24.582 122.128 24.498 121.96 24.33C121.792 24.162 121.708 23.9567 121.708 23.714C121.708 23.4713 121.792 23.266 121.96 23.098C122.128 22.93 122.333 22.846 122.576 22.846C122.809 22.846 123.005 22.93 123.164 23.098C123.332 23.266 123.416 23.4713 123.416 23.714C123.416 23.9567 123.332 24.162 123.164 24.33C123.005 24.498 122.809 24.582 122.576 24.582ZM123.192 25.828V33.5H121.918V25.828H123.192ZM126.917 26.878V31.4C126.917 31.7733 126.996 32.0393 127.155 32.198C127.314 32.3473 127.589 32.422 127.981 32.422H128.919V33.5H127.771C127.062 33.5 126.53 33.3367 126.175 33.01C125.82 32.6833 125.643 32.1467 125.643 31.4V26.878H124.649V25.828H125.643V23.896H126.917V25.828H128.919V26.878H126.917ZM137.071 25.828L132.451 37.112H131.135L132.647 33.416L129.553 25.828H130.967L133.375 32.044L135.755 25.828H137.071ZM101.84 41.742V42.778H97.5981V46.068H101.042V47.104H97.5981V51.5H96.3241V41.742H101.84ZM110.183 43.828V51.5H108.909V50.366C108.666 50.758 108.325 51.066 107.887 51.29C107.457 51.5047 106.981 51.612 106.459 51.612C105.861 51.612 105.325 51.4907 104.849 51.248C104.373 50.996 103.995 50.6227 103.715 50.128C103.444 49.6333 103.309 49.0313 103.309 48.322V43.828H104.569V48.154C104.569 48.91 104.76 49.4933 105.143 49.904C105.525 50.3053 106.048 50.506 106.711 50.506C107.392 50.506 107.929 50.296 108.321 49.876C108.713 49.456 108.909 48.8447 108.909 48.042V43.828H110.183ZM116.072 43.688C117.005 43.688 117.761 43.9727 118.34 44.542C118.919 45.102 119.208 45.914 119.208 46.978V51.5H117.948V47.16C117.948 46.3947 117.757 45.8113 117.374 45.41C116.991 44.9993 116.469 44.794 115.806 44.794C115.134 44.794 114.597 45.004 114.196 45.424C113.804 45.844 113.608 46.4553 113.608 47.258V51.5H112.334V43.828H113.608V44.92C113.86 44.528 114.201 44.2247 114.63 44.01C115.069 43.7953 115.549 43.688 116.072 43.688ZM120.813 47.636C120.813 46.852 120.972 46.166 121.289 45.578C121.606 44.9807 122.04 44.5187 122.591 44.192C123.151 43.8653 123.776 43.702 124.467 43.702C125.064 43.702 125.62 43.842 126.133 44.122C126.646 44.3927 127.038 44.752 127.309 45.2V41.14H128.597V51.5H127.309V50.058C127.057 50.5153 126.684 50.8933 126.189 51.192C125.694 51.4813 125.116 51.626 124.453 51.626C123.772 51.626 123.151 51.458 122.591 51.122C122.04 50.786 121.606 50.3147 121.289 49.708C120.972 49.1013 120.813 48.4107 120.813 47.636ZM127.309 47.65C127.309 47.0713 127.192 46.5673 126.959 46.138C126.726 45.7087 126.408 45.382 126.007 45.158C125.615 44.9247 125.181 44.808 124.705 44.808C124.229 44.808 123.795 44.92 123.403 45.144C123.011 45.368 122.698 45.6947 122.465 46.124C122.232 46.5533 122.115 47.0573 122.115 47.636C122.115 48.224 122.232 48.7373 122.465 49.176C122.698 49.6053 123.011 49.9367 123.403 50.17C123.795 50.394 124.229 50.506 124.705 50.506C125.181 50.506 125.615 50.394 126.007 50.17C126.408 49.9367 126.726 49.6053 126.959 49.176C127.192 48.7373 127.309 48.2287 127.309 47.65Z" fill="#434343"/>
</svg>
