<svg width="43" height="43" viewBox="0 0 43 43" fill="none" xmlns="http://www.w3.org/2000/svg">
<path d="M5.13552 5.28906H37.8647C38.3058 5.28906 38.7425 5.37593 39.1499 5.54471C39.5574 5.71349 39.9276 5.96086 40.2395 6.27272C40.5513 6.58458 40.7987 6.95481 40.9675 7.36227C41.1363 7.76974 41.2231 8.20645 41.2231 8.64748V38.1422C41.2231 39.0329 40.8693 39.8871 40.2395 40.5169C39.6097 41.1468 38.7554 41.5006 37.8647 41.5006H5.13552C4.24481 41.5006 3.39058 41.1468 2.76075 40.5169C2.13093 39.8871 1.7771 39.0329 1.7771 38.1422V8.64748C1.7771 8.20645 1.86396 7.76974 2.03274 7.36227C2.20152 6.95481 2.4489 6.58458 2.76075 6.27272C3.07261 5.96086 3.44285 5.71349 3.85031 5.54471C4.25777 5.37593 4.69449 5.28906 5.13552 5.28906Z" fill="white" stroke="#555561" stroke-width="1.5" stroke-miterlimit="6" stroke-linecap="round" stroke-linejoin="round"/>
<path d="M5.45667 5.23633C4.467 5.23633 3.51784 5.62948 2.81803 6.32928C2.11823 7.02909 1.7251 7.97823 1.7251 8.96791V15.1906H41.2747V8.96791C41.2747 7.97823 40.8816 7.02909 40.1818 6.32928C39.482 5.62948 38.5329 5.23633 37.5432 5.23633H5.45667Z" fill="#3EA1DA"/>
<path d="M21.0381 15.2344H2.20166Z" fill="white"/>
<path d="M21.0381 15.2344H2.20166" stroke="#555561" stroke-width="1.5" stroke-miterlimit="6" stroke-linecap="round" stroke-linejoin="round"/>
<path d="M41.1069 15.2344H27.1873Z" fill="white"/>
<path d="M41.1069 15.2344H27.1873" stroke="#555561" stroke-width="1.5" stroke-miterlimit="6" stroke-linecap="round" stroke-linejoin="round"/>
<path d="M5.45667 5.23633H37.5434C38.533 5.23633 39.4822 5.62948 40.182 6.32929C40.8818 7.02909 41.2749 7.97823 41.2749 8.96791V30.5639C41.2749 31.5535 40.8818 32.5027 40.182 33.2025C39.4822 33.9023 38.533 34.2955 37.5434 34.2955H5.45667C4.467 34.2955 3.51786 33.9023 2.81805 33.2025C2.11825 32.5027 1.7251 31.5535 1.7251 30.5639V8.96791C1.7251 7.97823 2.11825 7.02909 2.81805 6.32929C3.51786 5.62948 4.467 5.23633 5.45667 5.23633Z" stroke="#555561" stroke-width="1.5" stroke-miterlimit="6" stroke-linecap="round" stroke-linejoin="round"/>
<path d="M10.5222 19.791H6.15808V23.5449H10.5222V19.791Z" fill="white" stroke="#555561" stroke-width="1.5" stroke-miterlimit="6" stroke-linecap="round" stroke-linejoin="round"/>
<path d="M19.1244 19.791H14.7603V23.5449H19.1244V19.791Z" fill="white" stroke="#555561" stroke-width="1.5" stroke-miterlimit="6" stroke-linecap="round" stroke-linejoin="round"/>
<path d="M27.7266 19.791H23.3624V23.5449H27.7266V19.791Z" fill="white" stroke="#555561" stroke-width="1.5" stroke-miterlimit="6" stroke-linecap="round" stroke-linejoin="round"/>
<path d="M36.3288 19.791H31.9647V23.5449H36.3288V19.791Z" fill="white" stroke="#555561" stroke-width="1.5" stroke-miterlimit="6" stroke-linecap="round" stroke-linejoin="round"/>
<path d="M10.5222 26.5781H6.15808V30.332H10.5222V26.5781Z" fill="white" stroke="#555561" stroke-width="1.5" stroke-miterlimit="6" stroke-linecap="round" stroke-linejoin="round"/>
<path d="M19.1244 26.5781H14.7603V30.332H19.1244V26.5781Z" fill="white" stroke="#555561" stroke-width="1.5" stroke-miterlimit="6" stroke-linecap="round" stroke-linejoin="round"/>
<path d="M27.7266 26.5781H23.3624V30.332H27.7266V26.5781Z" fill="white" stroke="#555561" stroke-width="1.5" stroke-miterlimit="6" stroke-linecap="round" stroke-linejoin="round"/>
<path d="M36.3288 26.5781H31.9647V30.332H36.3288V26.5781Z" fill="white" stroke="#555561" stroke-width="1.5" stroke-miterlimit="6" stroke-linecap="round" stroke-linejoin="round"/>
<path d="M9.11825 1.5H8.36689C7.54253 1.5 6.87427 2.16828 6.87427 2.99263V8.22189C6.87427 9.04625 7.54253 9.71453 8.36689 9.71453H9.11825C9.94261 9.71453 10.6109 9.04625 10.6109 8.22189V2.99263C10.6109 2.16828 9.94261 1.5 9.11825 1.5Z" fill="white" stroke="#555561" stroke-width="1.5" stroke-miterlimit="6" stroke-linecap="round" stroke-linejoin="round"/>
<path d="M21.7358 1.5H21.2643C20.3626 1.5 19.6317 2.23092 19.6317 3.13257V8.08196C19.6317 8.98361 20.3626 9.71453 21.2643 9.71453H21.7358C22.6374 9.71453 23.3683 8.98361 23.3683 8.08196V3.13257C23.3683 2.23092 22.6374 1.5 21.7358 1.5Z" fill="white" stroke="#555561" stroke-width="1.5" stroke-miterlimit="6" stroke-linecap="round" stroke-linejoin="round"/>
<path d="M34.493 1.5H34.0215C33.1198 1.5 32.3889 2.23092 32.3889 3.13257V8.08196C32.3889 8.98361 33.1198 9.71453 34.0215 9.71453H34.493C35.3946 9.71453 36.1255 8.98361 36.1255 8.08196V3.13257C36.1255 2.23092 35.3946 1.5 34.493 1.5Z" fill="white" stroke="#555561" stroke-width="1.5" stroke-miterlimit="6" stroke-linecap="round" stroke-linejoin="round"/>
</svg>
