<svg width="43" height="43" viewBox="0 0 43 43" fill="none" xmlns="http://www.w3.org/2000/svg">
<path d="M25.4944 30.5113C24.1349 31.8824 24.1349 34.1053 25.4944 35.4764L30.3984 40.4218C31.7581 41.7927 33.9623 41.7927 35.322 40.4218L40.2267 35.4764C41.5862 34.1053 41.5862 31.8824 40.2267 30.5113L35.322 25.5659C34.5728 24.8102 33.5231 24.4397 32.4701 24.5593C32.0783 24.6039 31.6997 24.7149 31.3495 24.8851C30.9992 25.0553 30.6772 25.2847 30.3984 25.5659M28.4306 27.5503L27.2046 28.7866M4.61283 1.5C3.72755 1.5 2.87854 1.85464 2.25256 2.4859C1.62658 3.11717 1.2749 3.97334 1.2749 4.86609V15.1492C1.2749 16.0419 1.62658 16.8981 2.25256 17.5293C2.87854 18.1606 3.72755 18.5152 4.61283 18.5152H14.8106C15.6959 18.5152 16.5449 18.1606 17.1708 17.5293C17.7968 16.8981 18.1485 16.0419 18.1485 15.1492V4.86609C18.1485 3.97334 17.7968 3.11717 17.1708 2.4859C16.5449 1.85464 15.6959 1.5 14.8106 1.5H4.61283ZM4.61283 24.4848C3.72755 24.4848 2.87854 24.8394 2.25256 25.4707C1.62658 26.1019 1.2749 26.9581 1.2749 27.8508V38.1339C1.2749 39.0267 1.62658 39.8828 2.25256 40.5141C2.87854 41.1454 3.72755 41.5 4.61283 41.5H14.8106C15.6959 41.5 16.5449 41.1454 17.1708 40.5141C17.7968 39.8828 18.1485 39.0267 18.1485 38.1339V27.8508C18.1485 26.9581 17.7968 26.1019 17.1708 25.4707C16.5449 24.8394 15.6959 24.4848 14.8106 24.4848H4.61283ZM27.74 1.5C27.3016 1.5 26.8676 1.58707 26.4626 1.75623C26.0576 1.92539 25.6896 2.17333 25.3797 2.4859C25.0697 2.79847 24.8239 3.16955 24.6561 3.57794C24.4884 3.98633 24.402 4.42404 24.402 4.86609V15.1492C24.402 15.5912 24.4884 16.0289 24.6561 16.4373C24.8239 16.8457 25.0697 17.2168 25.3797 17.5293C25.6896 17.8419 26.0576 18.0898 26.4626 18.259C26.8676 18.4282 27.3016 18.5152 27.74 18.5152H37.937C38.8223 18.5152 39.6713 18.1606 40.2972 17.5293C40.9232 16.8981 41.2749 16.0419 41.2749 15.1492V4.86609C41.2749 3.97334 40.9232 3.11717 40.2972 2.4859C39.6713 1.85464 38.8223 1.5 37.937 1.5H27.74Z" stroke="#434343" stroke-width="1.5" stroke-miterlimit="6" stroke-linecap="round" stroke-linejoin="round"/>
</svg>
