<svg width="105" height="105" viewBox="0 0 105 105" fill="none" xmlns="http://www.w3.org/2000/svg">
<g filter="url(#filter0_d_466_9669)">
<rect x="20" y="10" width="65" height="65" rx="10" fill="white" shape-rendering="crispEdges"/>
<path d="M59.5981 60.4026H73.0372C74.0902 60.4026 74.9379 61.2503 74.9379 62.3032V63.0994C74.9379 64.1523 74.0902 65 73.0372 65H59.5981C58.5452 65 57.6975 64.1523 57.6975 63.0994V62.3032C57.6975 61.2503 58.5452 60.4026 59.5981 60.4026Z" fill="white"/>
<path d="M58.1916 55.803H71.6307C72.6837 55.803 73.5314 56.6507 73.5314 57.7037V58.4998C73.5314 59.5528 72.6837 60.4005 71.6307 60.4005H58.1916C57.1387 60.4005 56.291 59.5528 56.291 58.4998V57.7037C56.291 56.6507 57.1387 55.803 58.1916 55.803Z" fill="white"/>
<path d="M59.5981 51.2035H73.0372C74.0902 51.2035 74.9379 52.0512 74.9379 53.1041V53.9003C74.9379 54.9532 74.0902 55.8009 73.0372 55.8009H59.5981C58.5452 55.8009 57.6975 54.9532 57.6975 53.9003V53.1041C57.6975 52.0512 58.5452 51.2035 59.5981 51.2035Z" fill="white"/>
<path d="M58.1916 46.604H71.6307C72.6837 46.604 73.5314 47.4517 73.5314 48.5046V49.3008C73.5314 50.3538 72.6837 51.2014 71.6307 51.2014H58.1916C57.1387 51.2014 56.291 50.3538 56.291 49.3008V48.5046C56.291 47.4517 57.1387 46.604 58.1916 46.604Z" fill="white"/>
<path d="M30.0623 58.5453V43.7731C30.0623 43.0781 30.6217 42.5187 31.3167 42.5187H32.3816C33.0766 42.5187 33.6361 43.0781 33.6361 43.7731V58.5453C33.6361 59.2403 33.0766 59.7998 32.3816 59.7998H31.3167C30.6217 59.7998 30.0623 59.2403 30.0623 58.5453Z" fill="white"/>
<path d="M36.3508 53.3689V30.8868C36.3508 30.2123 36.8938 29.6693 37.5683 29.6693H38.6019C39.2764 29.6693 39.8194 30.2123 39.8194 30.8868V53.3689C39.8194 54.0434 39.2764 54.5864 38.6019 54.5864H37.5683C36.8938 54.5864 36.3508 54.0434 36.3508 53.3689Z" fill="white"/>
<path d="M42.5689 58.1049V38.4077C42.5689 37.7263 43.1175 37.1777 43.7989 37.1777H44.8431C45.5245 37.1777 46.0731 37.7263 46.0731 38.4077V58.1049C46.0731 58.7863 45.5245 59.3349 44.8431 59.3349H43.7989C43.1175 59.3349 42.5689 58.7863 42.5689 58.1049Z" fill="white"/>
<path d="M48.8342 50.57V26.1596C48.8342 25.4896 49.3736 24.9503 50.0436 24.9503H51.0703C51.7403 24.9503 52.2796 25.4896 52.2796 26.1596V50.57C52.2796 51.24 51.7403 51.7794 51.0703 51.7794H50.0436C49.3736 51.7794 48.8342 51.24 48.8342 50.57Z" fill="white"/>
<path d="M54.9963 41.1307V27.6428C54.9963 26.9441 55.5588 26.3816 56.2575 26.3816H57.3282C58.0269 26.3816 58.5894 26.9441 58.5894 27.6428V41.1307C58.5894 41.8294 58.0269 42.3919 57.3282 42.3919H56.2575C55.5588 42.3919 54.9963 41.8294 54.9963 41.1307Z" fill="white"/>
<path d="M61.2353 37.6415V23.7254C61.2353 23.0279 61.7968 22.4664 62.4943 22.4664H63.5632C64.2608 22.4664 64.8223 23.0279 64.8223 23.7254V37.6415C64.8223 38.339 64.2608 38.9006 63.5632 38.9006H62.4943C61.7968 38.9006 61.2353 38.339 61.2353 37.6415Z" fill="white"/>
<path d="M31.8492 40.0613V42.4923Z" fill="white"/>
<path d="M31.8492 59.8442V62.2752Z" fill="white"/>
<path d="M38.0851 27.0703V29.5013Z" fill="white"/>
<path d="M38.0851 54.8985V57.3295Z" fill="white"/>
<path d="M44.321 34.5208V36.9517Z" fill="white"/>
<path d="M44.321 59.536V61.967Z" fill="white"/>
<path d="M50.5569 22.2047V24.6357Z" fill="white"/>
<path d="M50.5569 51.7055V54.1364Z" fill="white"/>
<path d="M56.7929 23.8012V26.2322Z" fill="white"/>
<path d="M56.7929 42.5064V44.9373Z" fill="white"/>
<path d="M63.0288 20V22.431Z" fill="white"/>
<path d="M63.0288 39.0853V41.5162Z" fill="white"/>
<path d="M31.8492 40.0613V42.4923M31.8492 59.8442V62.2752M38.0851 27.0703V29.5013M38.0851 54.8985V57.3295M44.321 34.5208V36.9517M44.321 59.536V61.967M50.5569 22.2047V24.6357M50.5569 51.7055V54.1364M56.7929 23.8012V26.2322M56.7929 42.5064V44.9373M63.0288 20V22.431M63.0288 39.0853V41.5162M59.5981 60.4026H73.0372C74.0902 60.4026 74.9379 61.2503 74.9379 62.3032V63.0994C74.9379 64.1523 74.0902 65 73.0372 65H59.5981C58.5452 65 57.6975 64.1523 57.6975 63.0994V62.3032C57.6975 61.2503 58.5452 60.4026 59.5981 60.4026ZM58.1916 55.803H71.6307C72.6837 55.803 73.5314 56.6507 73.5314 57.7037V58.4998C73.5314 59.5528 72.6837 60.4005 71.6307 60.4005H58.1916C57.1387 60.4005 56.291 59.5528 56.291 58.4998V57.7037C56.291 56.6507 57.1387 55.803 58.1916 55.803ZM59.5981 51.2035H73.0372C74.0902 51.2035 74.9379 52.0512 74.9379 53.1041V53.9003C74.9379 54.9532 74.0902 55.8009 73.0372 55.8009H59.5981C58.5452 55.8009 57.6975 54.9532 57.6975 53.9003V53.1041C57.6975 52.0512 58.5452 51.2035 59.5981 51.2035ZM58.1916 46.604H71.6307C72.6837 46.604 73.5314 47.4517 73.5314 48.5046V49.3008C73.5314 50.3538 72.6837 51.2014 71.6307 51.2014H58.1916C57.1387 51.2014 56.291 50.3538 56.291 49.3008V48.5046C56.291 47.4517 57.1387 46.604 58.1916 46.604ZM30.0623 58.5453V43.7731C30.0623 43.0781 30.6217 42.5187 31.3167 42.5187H32.3816C33.0766 42.5187 33.6361 43.0781 33.6361 43.7731V58.5453C33.6361 59.2403 33.0766 59.7998 32.3816 59.7998H31.3167C30.6217 59.7998 30.0623 59.2403 30.0623 58.5453ZM36.3508 53.3689V30.8868C36.3508 30.2123 36.8938 29.6693 37.5683 29.6693H38.6019C39.2764 29.6693 39.8194 30.2123 39.8194 30.8868V53.3689C39.8194 54.0434 39.2764 54.5864 38.6019 54.5864H37.5683C36.8938 54.5864 36.3508 54.0434 36.3508 53.3689ZM42.5689 58.1049V38.4077C42.5689 37.7263 43.1175 37.1777 43.7989 37.1777H44.8431C45.5245 37.1777 46.0731 37.7263 46.0731 38.4077V58.1049C46.0731 58.7863 45.5245 59.3349 44.8431 59.3349H43.7989C43.1175 59.3349 42.5689 58.7863 42.5689 58.1049ZM48.8342 50.57V26.1596C48.8342 25.4896 49.3736 24.9503 50.0436 24.9503H51.0703C51.7403 24.9503 52.2796 25.4896 52.2796 26.1596V50.57C52.2796 51.24 51.7403 51.7794 51.0703 51.7794H50.0436C49.3736 51.7794 48.8342 51.24 48.8342 50.57ZM54.9963 41.1307V27.6428C54.9963 26.9441 55.5588 26.3816 56.2575 26.3816H57.3282C58.0269 26.3816 58.5894 26.9441 58.5894 27.6428V41.1307C58.5894 41.8294 58.0269 42.3919 57.3282 42.3919H56.2575C55.5588 42.3919 54.9963 41.8294 54.9963 41.1307ZM61.2353 37.6415V23.7254C61.2353 23.0279 61.7968 22.4664 62.4943 22.4664H63.5632C64.2608 22.4664 64.8223 23.0279 64.8223 23.7254V37.6415C64.8223 38.339 64.2608 38.9006 63.5632 38.9006H62.4943C61.7968 38.9006 61.2353 38.339 61.2353 37.6415Z" stroke="#3EA1DA" stroke-width="1.5" stroke-miterlimit="6" stroke-linecap="round" stroke-linejoin="round"/>
</g>
<defs>
<filter id="filter0_d_466_9669" x="0" y="0" width="105" height="105" filterUnits="userSpaceOnUse" color-interpolation-filters="sRGB">
<feFlood flood-opacity="0" result="BackgroundImageFix"/>
<feColorMatrix in="SourceAlpha" type="matrix" values="0 0 0 0 0 0 0 0 0 0 0 0 0 0 0 0 0 0 127 0" result="hardAlpha"/>
<feOffset dy="10"/>
<feGaussianBlur stdDeviation="10"/>
<feComposite in2="hardAlpha" operator="out"/>
<feColorMatrix type="matrix" values="0 0 0 0 0.827451 0 0 0 0 0.878431 0 0 0 0 0.929412 0 0 0 1 0"/>
<feBlend mode="normal" in2="BackgroundImageFix" result="effect1_dropShadow_466_9669"/>
<feBlend mode="normal" in="SourceGraphic" in2="effect1_dropShadow_466_9669" result="shape"/>
</filter>
</defs>
</svg>
