<svg width="80" height="80" viewBox="0 0 80 80" fill="none" xmlns="http://www.w3.org/2000/svg">
<rect x="0.5" y="0.5" width="79" height="79" rx="15.5" fill="#F9FAFB"/>
<rect x="0.5" y="0.5" width="79" height="79" rx="15.5" stroke="#EFF0F4"/>
<path fill-rule="evenodd" clip-rule="evenodd" d="M23.0331 38.0094C23.5879 38.0094 24.0376 38.4567 24.0376 39.0086V41.007C24.0376 41.5589 23.5879 42.0062 23.0331 42.0062C22.4783 42.0062 22.0286 41.5589 22.0286 41.007V39.0086C22.0286 38.4567 22.4783 38.0094 23.0331 38.0094Z" fill="#212225"/>
<path fill-rule="evenodd" clip-rule="evenodd" d="M39.3565 20.0078C39.9113 20.0078 40.361 20.4552 40.361 21.007V23.0055C40.361 23.5573 39.9113 24.0047 39.3565 24.0047C38.8017 24.0047 38.352 23.5573 38.352 23.0055V21.007C38.352 20.4552 38.8017 20.0078 39.3565 20.0078Z" fill="#212225"/>
<path fill-rule="evenodd" clip-rule="evenodd" d="M47.5182 23.5051C48.073 23.5051 48.5227 23.9524 48.5227 24.5043V26.5027C48.5227 27.0546 48.073 27.502 47.5182 27.502C46.9634 27.502 46.5137 27.0546 46.5137 26.5027V24.5043C46.5137 23.9524 46.9634 23.5051 47.5182 23.5051Z" fill="#212225"/>
<path fill-rule="evenodd" clip-rule="evenodd" d="M55.6799 20.0078C56.2347 20.0078 56.6845 20.4552 56.6845 21.007V23.0055C56.6845 23.5573 56.2347 24.0047 55.6799 24.0047C55.1252 24.0047 54.6754 23.5573 54.6754 23.0055V21.007C54.6754 20.4552 55.1252 20.0078 55.6799 20.0078Z" fill="#212225"/>
<path fill-rule="evenodd" clip-rule="evenodd" d="M31.1948 29.0008C31.7496 29.0008 32.1993 29.4481 32.1993 30V31.9984C32.1993 32.5503 31.7496 32.9977 31.1948 32.9977C30.64 32.9977 30.1903 32.5503 30.1903 31.9984V30C30.1903 29.4481 30.64 29.0008 31.1948 29.0008Z" fill="#212225"/>
<path fill-rule="evenodd" clip-rule="evenodd" d="M23.0331 55.9953C23.5879 55.9953 24.0376 56.4427 24.0376 56.9945V58.993C24.0376 59.5448 23.5879 59.9922 23.0331 59.9922C22.4783 59.9922 22.0286 59.5448 22.0286 58.993V56.9945C22.0286 56.4427 22.4783 55.9953 23.0331 55.9953Z" fill="#212225"/>
<path fill-rule="evenodd" clip-rule="evenodd" d="M39.3565 33.8095C39.9113 33.8095 40.361 34.2569 40.361 34.8087V36.8072C40.361 37.359 39.9113 37.8064 39.3565 37.8064C38.8017 37.8064 38.352 37.359 38.352 36.8072V34.8087C38.352 34.2569 38.8017 33.8095 39.3565 33.8095Z" fill="#212225"/>
<path fill-rule="evenodd" clip-rule="evenodd" d="M47.5182 33.8095C48.073 33.8095 48.5227 34.2569 48.5227 34.8087V36.8072C48.5227 37.359 48.073 37.8064 47.5182 37.8064C46.9634 37.8064 46.5137 37.359 46.5137 36.8072V34.8087C46.5137 34.2569 46.9634 33.8095 47.5182 33.8095Z" fill="#212225"/>
<path fill-rule="evenodd" clip-rule="evenodd" d="M55.6799 30.3123C56.2347 30.3123 56.6845 30.7596 56.6845 31.3115V33.3099C56.6845 33.8618 56.2347 34.3091 55.6799 34.3091C55.1252 34.3091 54.6754 33.8618 54.6754 33.3099V31.3115C54.6754 30.7596 55.1252 30.3123 55.6799 30.3123Z" fill="#212225"/>
<path fill-rule="evenodd" clip-rule="evenodd" d="M31.1948 48.8603C31.7496 48.8603 32.1993 49.3076 32.1993 49.8595V51.8579C32.1993 52.4098 31.7496 52.8571 31.1948 52.8571C30.64 52.8571 30.1903 52.4098 30.1903 51.8579V49.8595C30.1903 49.3076 30.64 48.8603 31.1948 48.8603Z" fill="#212225"/>
<path d="M21.024 43.0055C21.024 41.9018 21.9235 41.007 23.0331 41.007C24.1426 41.007 25.0421 41.9018 25.0421 43.0055V54.9961C25.0421 56.0998 24.1426 56.9945 23.0331 56.9945C21.9235 56.9945 21.024 56.0998 21.024 54.9961V43.0055Z" fill="white"/>
<path fill-rule="evenodd" clip-rule="evenodd" d="M20.0195 43.0055C20.0195 41.3499 21.3687 40.0078 23.0331 40.0078C24.6974 40.0078 26.0466 41.3499 26.0466 43.0055V54.9961C26.0466 56.6517 24.6974 57.9937 23.0331 57.9937C21.3687 57.9937 20.0195 56.6517 20.0195 54.9961V43.0055ZM23.0331 42.0062C22.4783 42.0062 22.0286 42.4536 22.0286 43.0055V54.9961C22.0286 55.5479 22.4783 55.9953 23.0331 55.9953C23.5879 55.9953 24.0376 55.5479 24.0376 54.9961V43.0055C24.0376 42.4536 23.5879 42.0062 23.0331 42.0062Z" fill="#212225"/>
<path d="M37.3475 25.0039C37.3475 23.9002 38.2469 23.0055 39.3565 23.0055C40.4661 23.0055 41.3655 23.9002 41.3655 25.0039V32.8103C41.3655 33.914 40.4661 34.8087 39.3565 34.8087C38.2469 34.8087 37.3475 33.914 37.3475 32.8103V25.0039Z" fill="white"/>
<path fill-rule="evenodd" clip-rule="evenodd" d="M36.343 25.0039C36.343 23.3483 37.6922 22.0063 39.3565 22.0063C41.0209 22.0063 42.3701 23.3483 42.3701 25.0039V32.8103C42.3701 34.4659 41.0209 35.808 39.3565 35.808C37.6922 35.808 36.343 34.4659 36.343 32.8103V25.0039ZM39.3565 24.0047C38.8017 24.0047 38.352 24.4521 38.352 25.0039V32.8103C38.352 33.3622 38.8017 33.8095 39.3565 33.8095C39.9113 33.8095 40.361 33.3622 40.361 32.8103V25.0039C40.361 24.4521 39.9113 24.0047 39.3565 24.0047Z" fill="#212225"/>
<path d="M45.5092 28.5012C45.5092 27.3975 46.4087 26.5027 47.5182 26.5027C48.6278 26.5027 49.5273 27.3975 49.5273 28.5012V32.8103C49.5273 33.914 48.6278 34.8087 47.5182 34.8087C46.4087 34.8087 45.5092 33.914 45.5092 32.8103V28.5012Z" fill="white"/>
<path fill-rule="evenodd" clip-rule="evenodd" d="M44.5047 28.5012C44.5047 26.8456 45.8539 25.5035 47.5182 25.5035C49.1826 25.5035 50.5318 26.8456 50.5318 28.5012V32.8103C50.5318 34.4659 49.1826 35.808 47.5182 35.808C45.8539 35.808 44.5047 34.4659 44.5047 32.8103V28.5012ZM47.5182 27.502C46.9634 27.502 46.5137 27.9493 46.5137 28.5012V32.8103C46.5137 33.3622 46.9634 33.8095 47.5182 33.8095C48.073 33.8095 48.5227 33.3622 48.5227 32.8103V28.5012C48.5227 27.9493 48.073 27.502 47.5182 27.502Z" fill="#212225"/>
<path d="M53.6709 25.0039C53.6709 23.9002 54.5704 23.0055 55.6799 23.0055C56.7895 23.0055 57.689 23.9002 57.689 25.0039V29.313C57.689 30.4167 56.7895 31.3115 55.6799 31.3115C54.5704 31.3115 53.6709 30.4167 53.6709 29.313V25.0039Z" fill="white"/>
<path fill-rule="evenodd" clip-rule="evenodd" d="M52.6664 25.0039C52.6664 23.3483 54.0156 22.0063 55.6799 22.0063C57.3443 22.0063 58.6935 23.3483 58.6935 25.0039V29.313C58.6935 30.9686 57.3443 32.3107 55.6799 32.3107C54.0156 32.3107 52.6664 30.9686 52.6664 29.313V25.0039ZM55.6799 24.0047C55.1252 24.0047 54.6754 24.4521 54.6754 25.0039V29.313C54.6754 29.8649 55.1252 30.3123 55.6799 30.3123C56.2347 30.3123 56.6845 29.8649 56.6845 29.313V25.0039C56.6845 24.4521 56.2347 24.0047 55.6799 24.0047Z" fill="#212225"/>
<path d="M53.2942 52.982C54.9585 52.982 56.3078 54.3241 56.3078 55.9797C56.3078 57.6353 54.9585 58.9774 53.2942 58.9774H43.249C41.5847 58.9774 40.2355 57.6353 40.2355 55.9797C40.2355 54.3241 41.5847 52.982 43.249 52.982H53.2942Z" fill="white"/>
<path fill-rule="evenodd" clip-rule="evenodd" d="M53.2942 51.9828C55.5133 51.9828 57.3123 53.7723 57.3123 55.9797C57.3123 58.1871 55.5133 59.9766 53.2942 59.9766H43.249C41.0299 59.9766 39.2309 58.1871 39.2309 55.9797C39.2309 53.7723 41.0299 51.9828 43.249 51.9828H53.2942ZM55.3032 55.9797C55.3032 54.876 54.4038 53.9813 53.2942 53.9813H43.249C42.1395 53.9813 41.24 54.876 41.24 55.9797C41.24 57.0834 42.1395 57.9781 43.249 57.9781H53.2942C54.4038 57.9781 55.3032 57.0834 55.3032 55.9797Z" fill="#212225"/>
<path d="M55.9625 46.9867C57.6268 46.9867 58.976 48.3288 58.976 49.9844C58.976 51.6399 57.6268 52.982 55.9625 52.982H45.9173C44.2529 52.982 42.9037 51.6399 42.9037 49.9844C42.9037 48.3288 44.2529 46.9867 45.9173 46.9867H55.9625Z" fill="white"/>
<path fill-rule="evenodd" clip-rule="evenodd" d="M55.9625 45.9875C58.1816 45.9875 59.9805 47.777 59.9805 49.9844C59.9805 52.1918 58.1816 53.9813 55.9625 53.9813H45.9173C43.6982 53.9813 41.8992 52.1918 41.8992 49.9844C41.8992 47.777 43.6982 45.9875 45.9173 45.9875H55.9625ZM57.9715 49.9844C57.9715 48.8807 57.072 47.9859 55.9625 47.9859H45.9173C44.8077 47.9859 43.9082 48.8807 43.9082 49.9844C43.9082 51.0881 44.8077 51.9828 45.9173 51.9828H55.9625C57.072 51.9828 57.9715 51.0881 57.9715 49.9844Z" fill="#212225"/>
<path d="M52.4152 40.9914C54.0796 40.9914 55.4288 42.3335 55.4288 43.9891C55.4288 45.6446 54.0796 46.9867 52.4152 46.9867H42.3701C40.7057 46.9867 39.3565 45.6446 39.3565 43.9891C39.3565 42.3335 40.7057 40.9914 42.3701 40.9914H52.4152Z" fill="white"/>
<path fill-rule="evenodd" clip-rule="evenodd" d="M52.4152 39.9922C54.6344 39.9922 56.4333 41.7817 56.4333 43.9891C56.4333 46.1965 54.6344 47.9859 52.4152 47.9859H42.3701C40.1509 47.9859 38.352 46.1965 38.352 43.9891C38.352 41.7817 40.1509 39.9922 42.3701 39.9922H52.4152ZM54.4243 43.9891C54.4243 42.8854 53.5248 41.9906 52.4152 41.9906H42.3701C41.2605 41.9906 40.361 42.8854 40.361 43.9891C40.361 45.0928 41.2605 45.9875 42.3701 45.9875H52.4152C53.5248 45.9875 54.4243 45.0928 54.4243 43.9891Z" fill="#212225"/>
<path d="M29.1858 33.9969C29.1858 32.8932 30.0852 31.9984 31.1948 31.9984C32.3044 31.9984 33.2038 32.8932 33.2038 33.9969V47.861C33.2038 48.9648 32.3044 49.8595 31.1948 49.8595C30.0852 49.8595 29.1858 48.9648 29.1858 47.861V33.9969Z" fill="white"/>
<path fill-rule="evenodd" clip-rule="evenodd" d="M28.1812 33.9969C28.1812 32.3413 29.5305 30.9992 31.1948 30.9992C32.8591 30.9992 34.2084 32.3413 34.2084 33.9969V47.861C34.2084 49.5166 32.8591 50.8587 31.1948 50.8587C29.5305 50.8587 28.1812 49.5166 28.1812 47.861V33.9969ZM31.1948 32.9977C30.64 32.9977 30.1903 33.445 30.1903 33.9969V47.861C30.1903 48.4129 30.64 48.8603 31.1948 48.8603C31.7496 48.8603 32.1993 48.4129 32.1993 47.861V33.9969C32.1993 33.445 31.7496 32.9977 31.1948 32.9977Z" fill="#212225"/>
</svg>
