<svg width="81" height="81" viewBox="0 0 81 81" fill="none" xmlns="http://www.w3.org/2000/svg">
<rect x="0.633179" y="0.306885" width="80" height="80" rx="16" fill="#2E394D"/>
<path fill-rule="evenodd" clip-rule="evenodd" d="M23.6661 38.3163C24.2209 38.3163 24.6707 38.7636 24.6707 39.3155V41.3139C24.6707 41.8658 24.2209 42.3131 23.6661 42.3131C23.1114 42.3131 22.6616 41.8658 22.6616 41.3139V39.3155C22.6616 38.7636 23.1114 38.3163 23.6661 38.3163Z" fill="#EFF0F4"/>
<path fill-rule="evenodd" clip-rule="evenodd" d="M39.9896 20.3147C40.5443 20.3147 40.9941 20.7621 40.9941 21.3139V23.3124C40.9941 23.8642 40.5443 24.3116 39.9896 24.3116C39.4348 24.3116 38.985 23.8642 38.985 23.3124V21.3139C38.985 20.7621 39.4348 20.3147 39.9896 20.3147Z" fill="#EFF0F4"/>
<path fill-rule="evenodd" clip-rule="evenodd" d="M48.1513 23.812C48.7061 23.812 49.1558 24.2593 49.1558 24.8112V26.8096C49.1558 27.3615 48.7061 27.8088 48.1513 27.8088C47.5965 27.8088 47.1468 27.3615 47.1468 26.8096V24.8112C47.1468 24.2593 47.5965 23.812 48.1513 23.812Z" fill="#EFF0F4"/>
<path fill-rule="evenodd" clip-rule="evenodd" d="M56.313 20.3147C56.8678 20.3147 57.3175 20.7621 57.3175 21.3139V23.3124C57.3175 23.8642 56.8678 24.3116 56.313 24.3116C55.7582 24.3116 55.3085 23.8642 55.3085 23.3124V21.3139C55.3085 20.7621 55.7582 20.3147 56.313 20.3147Z" fill="#EFF0F4"/>
<path fill-rule="evenodd" clip-rule="evenodd" d="M31.8279 29.3077C32.3826 29.3077 32.8324 29.755 32.8324 30.3069V32.3053C32.8324 32.8572 32.3826 33.3045 31.8279 33.3045C31.2731 33.3045 30.8233 32.8572 30.8233 32.3053V30.3069C30.8233 29.755 31.2731 29.3077 31.8279 29.3077Z" fill="#EFF0F4"/>
<path fill-rule="evenodd" clip-rule="evenodd" d="M23.6661 56.3022C24.2209 56.3022 24.6707 56.7496 24.6707 57.3014V59.2999C24.6707 59.8517 24.2209 60.2991 23.6661 60.2991C23.1114 60.2991 22.6616 59.8517 22.6616 59.2999V57.3014C22.6616 56.7496 23.1114 56.3022 23.6661 56.3022Z" fill="#EFF0F4"/>
<path fill-rule="evenodd" clip-rule="evenodd" d="M39.9896 34.1164C40.5443 34.1164 40.9941 34.5638 40.9941 35.1156V37.1141C40.9941 37.6659 40.5443 38.1133 39.9896 38.1133C39.4348 38.1133 38.985 37.6659 38.985 37.1141V35.1156C38.985 34.5638 39.4348 34.1164 39.9896 34.1164Z" fill="#EFF0F4"/>
<path fill-rule="evenodd" clip-rule="evenodd" d="M48.1513 34.1164C48.7061 34.1164 49.1558 34.5638 49.1558 35.1156V37.1141C49.1558 37.6659 48.7061 38.1133 48.1513 38.1133C47.5965 38.1133 47.1468 37.6659 47.1468 37.1141V35.1156C47.1468 34.5638 47.5965 34.1164 48.1513 34.1164Z" fill="#EFF0F4"/>
<path fill-rule="evenodd" clip-rule="evenodd" d="M56.313 30.6191C56.8678 30.6191 57.3175 31.0665 57.3175 31.6184V33.6168C57.3175 34.1687 56.8678 34.616 56.313 34.616C55.7582 34.616 55.3085 34.1687 55.3085 33.6168V31.6184C55.3085 31.0665 55.7582 30.6191 56.313 30.6191Z" fill="#EFF0F4"/>
<path fill-rule="evenodd" clip-rule="evenodd" d="M31.8279 49.1671C32.3826 49.1671 32.8324 49.6145 32.8324 50.1664V52.1648C32.8324 52.7167 32.3826 53.164 31.8279 53.164C31.2731 53.164 30.8233 52.7167 30.8233 52.1648V50.1664C30.8233 49.6145 31.2731 49.1671 31.8279 49.1671Z" fill="#EFF0F4"/>
<path d="M21.6571 43.3123C21.6571 42.2086 22.5566 41.3139 23.6661 41.3139C24.7757 41.3139 25.6752 42.2086 25.6752 43.3123V55.303C25.6752 56.4067 24.7757 57.3014 23.6661 57.3014C22.5566 57.3014 21.6571 56.4067 21.6571 55.303V43.3123Z" fill="#2E394D"/>
<path fill-rule="evenodd" clip-rule="evenodd" d="M20.6526 43.3123C20.6526 41.6568 22.0018 40.3147 23.6661 40.3147C25.3305 40.3147 26.6797 41.6568 26.6797 43.3123V55.303C26.6797 56.9585 25.3305 58.3006 23.6661 58.3006C22.0018 58.3006 20.6526 56.9585 20.6526 55.303V43.3123ZM23.6661 42.3131C23.1114 42.3131 22.6616 42.7605 22.6616 43.3123V55.303C22.6616 55.8548 23.1114 56.3022 23.6661 56.3022C24.2209 56.3022 24.6707 55.8548 24.6707 55.303V43.3123C24.6707 42.7605 24.2209 42.3131 23.6661 42.3131Z" fill="#EFF0F4"/>
<path d="M37.9805 25.3108C37.9805 24.2071 38.88 23.3124 39.9896 23.3124C41.0991 23.3124 41.9986 24.2071 41.9986 25.3108V33.1172C41.9986 34.2209 41.0991 35.1156 39.9896 35.1156C38.88 35.1156 37.9805 34.2209 37.9805 33.1172V25.3108Z" fill="#2E394D"/>
<path fill-rule="evenodd" clip-rule="evenodd" d="M36.976 25.3108C36.976 23.6552 38.3252 22.3131 39.9896 22.3131C41.6539 22.3131 43.0031 23.6552 43.0031 25.3108V33.1172C43.0031 34.7728 41.6539 36.1148 39.9896 36.1148C38.3252 36.1148 36.976 34.7728 36.976 33.1172V25.3108ZM39.9896 24.3116C39.4348 24.3116 38.985 24.7589 38.985 25.3108V33.1172C38.985 33.669 39.4348 34.1164 39.9896 34.1164C40.5443 34.1164 40.9941 33.669 40.9941 33.1172V25.3108C40.9941 24.7589 40.5443 24.3116 39.9896 24.3116Z" fill="#EFF0F4"/>
<path d="M46.1422 28.8081C46.1422 27.7044 47.0417 26.8096 48.1513 26.8096C49.2608 26.8096 50.1603 27.7044 50.1603 28.8081V33.1172C50.1603 34.2209 49.2608 35.1156 48.1513 35.1156C47.0417 35.1156 46.1422 34.2209 46.1422 33.1172V28.8081Z" fill="#2E394D"/>
<path fill-rule="evenodd" clip-rule="evenodd" d="M45.1377 28.8081C45.1377 27.1525 46.4869 25.8104 48.1513 25.8104C49.8156 25.8104 51.1648 27.1525 51.1648 28.8081V33.1172C51.1648 34.7728 49.8156 36.1148 48.1513 36.1148C46.4869 36.1148 45.1377 34.7728 45.1377 33.1172V28.8081ZM48.1513 27.8088C47.5965 27.8088 47.1468 28.2562 47.1468 28.8081V33.1172C47.1468 33.669 47.5965 34.1164 48.1513 34.1164C48.7061 34.1164 49.1558 33.669 49.1558 33.1172V28.8081C49.1558 28.2562 48.7061 27.8088 48.1513 27.8088Z" fill="#EFF0F4"/>
<path d="M54.304 25.3108C54.304 24.2071 55.2034 23.3124 56.313 23.3124C57.4226 23.3124 58.322 24.2071 58.322 25.3108V29.6199C58.322 30.7236 57.4226 31.6184 56.313 31.6184C55.2034 31.6184 54.304 30.7236 54.304 29.6199V25.3108Z" fill="#2E394D"/>
<path fill-rule="evenodd" clip-rule="evenodd" d="M53.2994 25.3108C53.2994 23.6552 54.6487 22.3131 56.313 22.3131C57.9773 22.3131 59.3265 23.6552 59.3265 25.3108V29.6199C59.3265 31.2755 57.9773 32.6176 56.313 32.6176C54.6487 32.6176 53.2994 31.2755 53.2994 29.6199V25.3108ZM56.313 24.3116C55.7582 24.3116 55.3085 24.7589 55.3085 25.3108V29.6199C55.3085 30.1718 55.7582 30.6191 56.313 30.6191C56.8678 30.6191 57.3175 30.1718 57.3175 29.6199V25.3108C57.3175 24.7589 56.8678 24.3116 56.313 24.3116Z" fill="#EFF0F4"/>
<path d="M53.9273 53.2889C55.5916 53.2889 56.9408 54.631 56.9408 56.2866C56.9408 57.9421 55.5916 59.2842 53.9273 59.2842H43.8821C42.2177 59.2842 40.8685 57.9421 40.8685 56.2866C40.8685 54.631 42.2177 53.2889 43.8821 53.2889H53.9273Z" fill="#2E394D"/>
<path fill-rule="evenodd" clip-rule="evenodd" d="M53.9273 52.2897C56.1464 52.2897 57.9453 54.0792 57.9453 56.2866C57.9453 58.494 56.1464 60.2835 53.9273 60.2835H43.8821C41.663 60.2835 39.864 58.494 39.864 56.2866C39.864 54.0792 41.663 52.2897 43.8821 52.2897H53.9273ZM55.9363 56.2866C55.9363 55.1829 55.0368 54.2881 53.9273 54.2881H43.8821C42.7725 54.2881 41.873 55.1829 41.873 56.2866C41.873 57.3903 42.7725 58.285 43.8821 58.285H53.9273C55.0368 58.285 55.9363 57.3903 55.9363 56.2866Z" fill="#EFF0F4"/>
<path d="M56.5955 47.2936C58.2599 47.2936 59.6091 48.6357 59.6091 50.2913C59.6091 51.9468 58.2599 53.2889 56.5955 53.2889H46.5503C44.886 53.2889 43.5368 51.9468 43.5368 50.2913C43.5368 48.6357 44.886 47.2936 46.5503 47.2936H56.5955Z" fill="#2E394D"/>
<path fill-rule="evenodd" clip-rule="evenodd" d="M56.5955 46.2944C58.8146 46.2944 60.6136 48.0839 60.6136 50.2913C60.6136 52.4987 58.8146 54.2881 56.5955 54.2881H46.5503C44.3312 54.2881 42.5323 52.4987 42.5323 50.2913C42.5323 48.0839 44.3312 46.2944 46.5503 46.2944H56.5955ZM58.6045 50.2913C58.6045 49.1876 57.7051 48.2928 56.5955 48.2928H46.5503C45.4408 48.2928 44.5413 49.1876 44.5413 50.2913C44.5413 51.395 45.4408 52.2897 46.5503 52.2897H56.5955C57.7051 52.2897 58.6045 51.395 58.6045 50.2913Z" fill="#EFF0F4"/>
<path d="M53.0483 41.2983C54.7126 41.2983 56.0619 42.6404 56.0619 44.296C56.0619 45.9515 54.7126 47.2936 53.0483 47.2936H43.0031C41.3388 47.2936 39.9896 45.9515 39.9896 44.296C39.9896 42.6404 41.3388 41.2983 43.0031 41.2983H53.0483Z" fill="#2E394D"/>
<path fill-rule="evenodd" clip-rule="evenodd" d="M53.0483 40.2991C55.2674 40.2991 57.0664 42.0885 57.0664 44.296C57.0664 46.5034 55.2674 48.2928 53.0483 48.2928H43.0031C40.784 48.2928 38.985 46.5034 38.985 44.296C38.985 42.0885 40.784 40.2991 43.0031 40.2991H53.0483ZM55.0573 44.296C55.0573 43.1922 54.1579 42.2975 53.0483 42.2975H43.0031C41.8936 42.2975 40.9941 43.1922 40.9941 44.296C40.9941 45.3997 41.8936 46.2944 43.0031 46.2944H53.0483C54.1579 46.2944 55.0573 45.3997 55.0573 44.296Z" fill="#EFF0F4"/>
<path d="M29.8188 34.3038C29.8188 33.2001 30.7183 32.3053 31.8279 32.3053C32.9374 32.3053 33.8369 33.2001 33.8369 34.3038V48.1679C33.8369 49.2716 32.9374 50.1664 31.8279 50.1664C30.7183 50.1664 29.8188 49.2716 29.8188 48.1679V34.3038Z" fill="#2E394D"/>
<path fill-rule="evenodd" clip-rule="evenodd" d="M28.8143 34.3038C28.8143 32.6482 30.1635 31.3061 31.8279 31.3061C33.4922 31.3061 34.8414 32.6482 34.8414 34.3038V48.1679C34.8414 49.8235 33.4922 51.1656 31.8279 51.1656C30.1635 51.1656 28.8143 49.8235 28.8143 48.1679V34.3038ZM31.8279 33.3045C31.2731 33.3045 30.8233 33.7519 30.8233 34.3038V48.1679C30.8233 48.7198 31.2731 49.1671 31.8279 49.1671C32.3826 49.1671 32.8324 48.7198 32.8324 48.1679V34.3038C32.8324 33.7519 32.3826 33.3045 31.8279 33.3045Z" fill="#EFF0F4"/>
</svg>
