<svg width="190" height="75" viewBox="0 0 190 75" fill="none" xmlns="http://www.w3.org/2000/svg">
<rect x="0.246094" width="189" height="75" rx="16" fill="white"/>
<path d="M59.8444 55.4026H73.2836C74.3365 55.4026 75.1842 56.2503 75.1842 57.3032V58.0994C75.1842 59.1523 74.3365 60 73.2836 60H59.8444C58.7915 60 57.9438 59.1523 57.9438 58.0994V57.3032C57.9438 56.2503 58.7915 55.4026 59.8444 55.4026Z" fill="white"/>
<path d="M58.438 50.803H71.8771C72.93 50.803 73.7777 51.6507 73.7777 52.7037V53.4998C73.7777 54.5528 72.93 55.4005 71.8771 55.4005H58.438C57.385 55.4005 56.5373 54.5528 56.5373 53.4998V52.7037C56.5373 51.6507 57.385 50.803 58.438 50.803Z" fill="white"/>
<path d="M59.8444 46.2035H73.2836C74.3365 46.2035 75.1842 47.0512 75.1842 48.1041V48.9003C75.1842 49.9532 74.3365 50.8009 73.2836 50.8009H59.8444C58.7915 50.8009 57.9438 49.9532 57.9438 48.9003V48.1041C57.9438 47.0512 58.7915 46.2035 59.8444 46.2035Z" fill="white"/>
<path d="M58.438 41.604H71.8771C72.93 41.604 73.7777 42.4517 73.7777 43.5046V44.3008C73.7777 45.3538 72.93 46.2014 71.8771 46.2014H58.438C57.385 46.2014 56.5373 45.3538 56.5373 44.3008V43.5046C56.5373 42.4517 57.385 41.604 58.438 41.604Z" fill="white"/>
<path d="M30.3086 53.5453V38.7731C30.3086 38.0781 30.8681 37.5187 31.563 37.5187H32.628C33.3229 37.5187 33.8824 38.0781 33.8824 38.7731V53.5453C33.8824 54.2403 33.3229 54.7998 32.628 54.7998H31.563C30.8681 54.7998 30.3086 54.2403 30.3086 53.5453Z" fill="white"/>
<path d="M36.5971 48.3689V25.8868C36.5971 25.2123 37.1401 24.6693 37.8146 24.6693H38.8482C39.5227 24.6693 40.0657 25.2123 40.0657 25.8868V48.3689C40.0657 49.0434 39.5227 49.5864 38.8482 49.5864H37.8146C37.1401 49.5864 36.5971 49.0434 36.5971 48.3689Z" fill="white"/>
<path d="M42.8153 53.1049V33.4077C42.8153 32.7263 43.3638 32.1777 44.0452 32.1777H45.0894C45.7708 32.1777 46.3194 32.7263 46.3194 33.4077V53.1049C46.3194 53.7863 45.7708 54.3349 45.0894 54.3349H44.0452C43.3638 54.3349 42.8153 53.7863 42.8153 53.1049Z" fill="white"/>
<path d="M49.0806 45.57V21.1596C49.0806 20.4896 49.6199 19.9503 50.2899 19.9503H51.3166C51.9866 19.9503 52.526 20.4896 52.526 21.1596V45.57C52.526 46.24 51.9866 46.7794 51.3166 46.7794H50.2899C49.6199 46.7794 49.0806 46.24 49.0806 45.57Z" fill="white"/>
<path d="M55.2426 36.1307V22.6428C55.2426 21.9441 55.8051 21.3816 56.5038 21.3816H57.5745C58.2732 21.3816 58.8357 21.9441 58.8357 22.6428V36.1307C58.8357 36.8294 58.2732 37.3919 57.5745 37.3919H56.5038C55.8051 37.3919 55.2426 36.8294 55.2426 36.1307Z" fill="white"/>
<path d="M61.4816 32.6415V18.7254C61.4816 18.0279 62.0431 17.4664 62.7407 17.4664H63.8096C64.5071 17.4664 65.0686 18.0279 65.0686 18.7254V32.6415C65.0686 33.339 64.5071 33.9006 63.8096 33.9006H62.7407C62.0431 33.9006 61.4816 33.339 61.4816 32.6415Z" fill="white"/>
<path d="M32.0955 35.0613V37.4923V35.0613Z" fill="white"/>
<path d="M32.0955 54.8442V57.2752V54.8442Z" fill="white"/>
<path d="M38.3314 22.0703V24.5013V22.0703Z" fill="white"/>
<path d="M38.3314 49.8985V52.3295V49.8985Z" fill="white"/>
<path d="M44.5673 29.5208V31.9517V29.5208Z" fill="white"/>
<path d="M44.5673 54.536V56.967V54.536Z" fill="white"/>
<path d="M50.8033 17.2047V19.6357V17.2047Z" fill="white"/>
<path d="M50.8033 46.7055V49.1364V46.7055Z" fill="white"/>
<path d="M57.0392 18.8012V21.2322V18.8012Z" fill="white"/>
<path d="M57.0392 37.5064V39.9373V37.5064Z" fill="white"/>
<path d="M63.2751 15V17.431V15Z" fill="white"/>
<path d="M63.2751 34.0853V36.5162V34.0853Z" fill="white"/>
<path d="M32.0955 35.0613V37.4923M32.0955 54.8442V57.2752M38.3314 22.0703V24.5013M38.3314 49.8985V52.3295M44.5673 29.5208V31.9517M44.5673 54.536V56.967M50.8033 17.2047V19.6357M50.8033 46.7055V49.1364M57.0392 18.8012V21.2322M57.0392 37.5064V39.9373M63.2751 15V17.431M63.2751 34.0853V36.5162M59.8444 55.4026H73.2836C74.3365 55.4026 75.1842 56.2503 75.1842 57.3032V58.0994C75.1842 59.1523 74.3365 60 73.2836 60H59.8444C58.7915 60 57.9438 59.1523 57.9438 58.0994V57.3032C57.9438 56.2503 58.7915 55.4026 59.8444 55.4026ZM58.438 50.803H71.8771C72.93 50.803 73.7777 51.6507 73.7777 52.7037V53.4998C73.7777 54.5528 72.93 55.4005 71.8771 55.4005H58.438C57.385 55.4005 56.5373 54.5528 56.5373 53.4998V52.7037C56.5373 51.6507 57.385 50.803 58.438 50.803ZM59.8444 46.2035H73.2836C74.3365 46.2035 75.1842 47.0512 75.1842 48.1041V48.9003C75.1842 49.9532 74.3365 50.8009 73.2836 50.8009H59.8444C58.7915 50.8009 57.9438 49.9532 57.9438 48.9003V48.1041C57.9438 47.0512 58.7915 46.2035 59.8444 46.2035ZM58.438 41.604H71.8771C72.93 41.604 73.7777 42.4517 73.7777 43.5046V44.3008C73.7777 45.3538 72.93 46.2014 71.8771 46.2014H58.438C57.385 46.2014 56.5373 45.3538 56.5373 44.3008V43.5046C56.5373 42.4517 57.385 41.604 58.438 41.604ZM30.3086 53.5453V38.7731C30.3086 38.0781 30.8681 37.5187 31.563 37.5187H32.628C33.3229 37.5187 33.8824 38.0781 33.8824 38.7731V53.5453C33.8824 54.2403 33.3229 54.7998 32.628 54.7998H31.563C30.8681 54.7998 30.3086 54.2403 30.3086 53.5453ZM36.5971 48.3689V25.8868C36.5971 25.2123 37.1401 24.6693 37.8146 24.6693H38.8482C39.5227 24.6693 40.0657 25.2123 40.0657 25.8868V48.3689C40.0657 49.0434 39.5227 49.5864 38.8482 49.5864H37.8146C37.1401 49.5864 36.5971 49.0434 36.5971 48.3689ZM42.8153 53.1049V33.4077C42.8153 32.7263 43.3638 32.1777 44.0452 32.1777H45.0894C45.7708 32.1777 46.3194 32.7263 46.3194 33.4077V53.1049C46.3194 53.7863 45.7708 54.3349 45.0894 54.3349H44.0452C43.3638 54.3349 42.8153 53.7863 42.8153 53.1049ZM49.0806 45.57V21.1596C49.0806 20.4896 49.6199 19.9503 50.2899 19.9503H51.3166C51.9866 19.9503 52.526 20.4896 52.526 21.1596V45.57C52.526 46.24 51.9866 46.7794 51.3166 46.7794H50.2899C49.6199 46.7794 49.0806 46.24 49.0806 45.57ZM55.2426 36.1307V22.6428C55.2426 21.9441 55.8051 21.3816 56.5038 21.3816H57.5745C58.2732 21.3816 58.8357 21.9441 58.8357 22.6428V36.1307C58.8357 36.8294 58.2732 37.3919 57.5745 37.3919H56.5038C55.8051 37.3919 55.2426 36.8294 55.2426 36.1307ZM61.4816 32.6415V18.7254C61.4816 18.0279 62.0431 17.4664 62.7407 17.4664H63.8096C64.5071 17.4664 65.0686 18.0279 65.0686 18.7254V32.6415C65.0686 33.339 64.5071 33.9006 63.8096 33.9006H62.7407C62.0431 33.9006 61.4816 33.339 61.4816 32.6415Z" stroke="#3EA1DA" stroke-width="1.5" stroke-miterlimit="6" stroke-linecap="round" stroke-linejoin="round"/>
<path d="M101.84 23.742V24.778H97.5981V28.068H101.042V29.104H97.5981V33.5H96.3241V23.742H101.84ZM104.037 24.582C103.794 24.582 103.589 24.498 103.421 24.33C103.253 24.162 103.169 23.9567 103.169 23.714C103.169 23.4713 103.253 23.266 103.421 23.098C103.589 22.93 103.794 22.846 104.037 22.846C104.27 22.846 104.466 22.93 104.625 23.098C104.793 23.266 104.877 23.4713 104.877 23.714C104.877 23.9567 104.793 24.162 104.625 24.33C104.466 24.498 104.27 24.582 104.037 24.582ZM104.653 25.828V33.5H103.379V25.828H104.653ZM110.828 33.5L109.008 30.644L107.258 33.5H105.928L108.406 29.692L105.928 25.828H107.37L109.19 28.67L110.926 25.828H112.256L109.792 29.622L112.27 33.5H110.828ZM120.523 29.37C120.523 29.6127 120.509 29.8693 120.481 30.14H114.349C114.396 30.896 114.653 31.4887 115.119 31.918C115.595 32.338 116.169 32.548 116.841 32.548C117.392 32.548 117.849 32.422 118.213 32.17C118.587 31.9087 118.848 31.5633 118.997 31.134H120.369C120.164 31.8713 119.753 32.4733 119.137 32.94C118.521 33.3973 117.756 33.626 116.841 33.626C116.113 33.626 115.46 33.4627 114.881 33.136C114.312 32.8093 113.864 32.3473 113.537 31.75C113.211 31.1433 113.047 30.4433 113.047 29.65C113.047 28.8567 113.206 28.1613 113.523 27.564C113.841 26.9667 114.284 26.5093 114.853 26.192C115.432 25.8653 116.095 25.702 116.841 25.702C117.569 25.702 118.213 25.8607 118.773 26.178C119.333 26.4953 119.763 26.934 120.061 27.494C120.369 28.0447 120.523 28.67 120.523 29.37ZM119.207 29.104C119.207 28.6187 119.1 28.2033 118.885 27.858C118.671 27.5033 118.377 27.2373 118.003 27.06C117.639 26.8733 117.233 26.78 116.785 26.78C116.141 26.78 115.591 26.9853 115.133 27.396C114.685 27.8067 114.429 28.376 114.363 29.104H119.207ZM121.729 29.636C121.729 28.852 121.888 28.166 122.205 27.578C122.522 26.9807 122.956 26.5187 123.507 26.192C124.067 25.8653 124.692 25.702 125.383 25.702C125.98 25.702 126.536 25.842 127.049 26.122C127.562 26.3927 127.954 26.752 128.225 27.2V23.14H129.513V33.5H128.225V32.058C127.973 32.5153 127.6 32.8933 127.105 33.192C126.61 33.4813 126.032 33.626 125.369 33.626C124.688 33.626 124.067 33.458 123.507 33.122C122.956 32.786 122.522 32.3147 122.205 31.708C121.888 31.1013 121.729 30.4107 121.729 29.636ZM128.225 29.65C128.225 29.0713 128.108 28.5673 127.875 28.138C127.642 27.7087 127.324 27.382 126.923 27.158C126.531 26.9247 126.097 26.808 125.621 26.808C125.145 26.808 124.711 26.92 124.319 27.144C123.927 27.368 123.614 27.6947 123.381 28.124C123.148 28.5533 123.031 29.0573 123.031 29.636C123.031 30.224 123.148 30.7373 123.381 31.176C123.614 31.6053 123.927 31.9367 124.319 32.17C124.711 32.394 125.145 32.506 125.621 32.506C126.097 32.506 126.531 32.394 126.923 32.17C127.324 31.9367 127.642 31.6053 127.875 31.176C128.108 30.7373 128.225 30.2287 128.225 29.65ZM97.5981 41.742V51.5H96.3241V41.742H97.5981ZM103.507 43.688C104.441 43.688 105.197 43.9727 105.775 44.542C106.354 45.102 106.643 45.914 106.643 46.978V51.5H105.383V47.16C105.383 46.3947 105.192 45.8113 104.809 45.41C104.427 44.9993 103.904 44.794 103.241 44.794C102.569 44.794 102.033 45.004 101.631 45.424C101.239 45.844 101.043 46.4553 101.043 47.258V51.5H99.7694V43.828H101.043V44.92C101.295 44.528 101.636 44.2247 102.065 44.01C102.504 43.7953 102.985 43.688 103.507 43.688ZM108.248 47.65C108.248 46.8567 108.407 46.166 108.724 45.578C109.042 44.9807 109.48 44.5187 110.04 44.192C110.61 43.8653 111.258 43.702 111.986 43.702C112.929 43.702 113.704 43.9307 114.31 44.388C114.926 44.8453 115.332 45.48 115.528 46.292H114.156C114.026 45.8253 113.769 45.4567 113.386 45.186C113.013 44.9153 112.546 44.78 111.986 44.78C111.258 44.78 110.67 45.032 110.222 45.536C109.774 46.0307 109.55 46.7353 109.55 47.65C109.55 48.574 109.774 49.288 110.222 49.792C110.67 50.296 111.258 50.548 111.986 50.548C112.546 50.548 113.013 50.4173 113.386 50.156C113.76 49.8947 114.016 49.5213 114.156 49.036H115.528C115.323 49.82 114.912 50.45 114.296 50.926C113.68 51.3927 112.91 51.626 111.986 51.626C111.258 51.626 110.61 51.4627 110.04 51.136C109.48 50.8093 109.042 50.3473 108.724 49.75C108.407 49.1527 108.248 48.4527 108.248 47.65ZM120.574 51.626C119.856 51.626 119.202 51.4627 118.614 51.136C118.036 50.8093 117.578 50.3473 117.242 49.75C116.916 49.1433 116.752 48.4433 116.752 47.65C116.752 46.866 116.92 46.1753 117.256 45.578C117.602 44.9713 118.068 44.5093 118.656 44.192C119.244 43.8653 119.902 43.702 120.63 43.702C121.358 43.702 122.016 43.8653 122.604 44.192C123.192 44.5093 123.654 44.9667 123.99 45.564C124.336 46.1613 124.508 46.8567 124.508 47.65C124.508 48.4433 124.331 49.1433 123.976 49.75C123.631 50.3473 123.16 50.8093 122.562 51.136C121.965 51.4627 121.302 51.626 120.574 51.626ZM120.574 50.506C121.032 50.506 121.461 50.3987 121.862 50.184C122.264 49.9693 122.586 49.6473 122.828 49.218C123.08 48.7887 123.206 48.266 123.206 47.65C123.206 47.034 123.085 46.5113 122.842 46.082C122.6 45.6527 122.282 45.3353 121.89 45.13C121.498 44.9153 121.074 44.808 120.616 44.808C120.15 44.808 119.72 44.9153 119.328 45.13C118.946 45.3353 118.638 45.6527 118.404 46.082C118.171 46.5113 118.054 47.034 118.054 47.65C118.054 48.2753 118.166 48.8027 118.39 49.232C118.624 49.6613 118.932 49.9833 119.314 50.198C119.697 50.4033 120.117 50.506 120.574 50.506ZM135.409 43.688C136.007 43.688 136.539 43.814 137.005 44.066C137.472 44.3087 137.841 44.6773 138.111 45.172C138.382 45.6667 138.517 46.2687 138.517 46.978V51.5H137.257V47.16C137.257 46.3947 137.066 45.8113 136.683 45.41C136.31 44.9993 135.801 44.794 135.157 44.794C134.495 44.794 133.967 45.0087 133.575 45.438C133.183 45.858 132.987 46.4693 132.987 47.272V51.5H131.727V47.16C131.727 46.3947 131.536 45.8113 131.153 45.41C130.78 44.9993 130.271 44.794 129.627 44.794C128.965 44.794 128.437 45.0087 128.045 45.438C127.653 45.858 127.457 46.4693 127.457 47.272V51.5H126.183V43.828H127.457V44.934C127.709 44.5327 128.045 44.2247 128.465 44.01C128.895 43.7953 129.366 43.688 129.879 43.688C130.523 43.688 131.093 43.8327 131.587 44.122C132.082 44.4113 132.451 44.836 132.693 45.396C132.908 44.8547 133.263 44.4347 133.757 44.136C134.252 43.8373 134.803 43.688 135.409 43.688ZM147.607 47.37C147.607 47.6127 147.593 47.8693 147.565 48.14H141.433C141.48 48.896 141.737 49.4887 142.203 49.918C142.679 50.338 143.253 50.548 143.925 50.548C144.476 50.548 144.933 50.422 145.297 50.17C145.671 49.9087 145.932 49.5633 146.081 49.134H147.453C147.248 49.8713 146.837 50.4733 146.221 50.94C145.605 51.3973 144.84 51.626 143.925 51.626C143.197 51.626 142.544 51.4627 141.965 51.136C141.396 50.8093 140.948 50.3473 140.621 49.75C140.295 49.1433 140.131 48.4433 140.131 47.65C140.131 46.8567 140.29 46.1613 140.607 45.564C140.925 44.9667 141.368 44.5093 141.937 44.192C142.516 43.8653 143.179 43.702 143.925 43.702C144.653 43.702 145.297 43.8607 145.857 44.178C146.417 44.4953 146.847 44.934 147.145 45.494C147.453 46.0447 147.607 46.67 147.607 47.37ZM146.291 47.104C146.291 46.6187 146.184 46.2033 145.969 45.858C145.755 45.5033 145.461 45.2373 145.087 45.06C144.723 44.8733 144.317 44.78 143.869 44.78C143.225 44.78 142.675 44.9853 142.217 45.396C141.769 45.8067 141.513 46.376 141.447 47.104H146.291Z" fill="#434343"/>
</svg>
