<svg width="30" height="30" viewBox="0 0 30 30" fill="none" xmlns="http://www.w3.org/2000/svg">
<path d="M29 15.2855V17.415C29 22.8761 29 25.6068 27.3598 27.3033C25.7197 29 23.0797 29 17.8 29H12.2C6.92026 29 4.28041 29 2.6402 27.3033C1 25.6068 1 22.8761 1 17.415V15.2855C1 12.0817 1 10.4798 1.72688 9.15184C2.45376 7.82389 3.78173 6.99971 6.43764 5.35138L9.23764 3.61362C12.0451 1.87121 13.4489 1 15 1C16.5511 1 17.9548 1.87121 20.7624 3.61362L23.5624 5.35137C26.2183 6.99971 27.5462 7.82389 28.2731 9.15184M18.5 22H11.5" stroke="#117DA7" stroke-width="2" stroke-linecap="round"/>
</svg>
