<svg width="31" height="30" viewBox="0 0 31 30" fill="none" xmlns="http://www.w3.org/2000/svg">
<path d="M29.5 15.2855V17.415C29.5 22.8761 29.5 25.6068 27.8598 27.3033C26.2197 29 23.5797 29 18.3 29H12.7C7.42026 29 4.78041 29 3.1402 27.3033C1.5 25.6068 1.5 22.8761 1.5 17.415V15.2855C1.5 12.0817 1.5 10.4798 2.22688 9.15184C2.95376 7.82389 4.28173 6.99971 6.93764 5.35138L9.73764 3.61362C12.5451 1.87121 13.9489 1 15.5 1C17.0511 1 18.4548 1.87121 21.2624 3.61362L24.0624 5.35137C26.7183 6.99971 28.0462 7.82389 28.7731 9.15184M19 22H12" stroke="#2E394D" stroke-width="2" stroke-linecap="round"/>
</svg>
