<svg width="19" height="19" viewBox="0 0 19 19" fill="none" xmlns="http://www.w3.org/2000/svg">
<path d="M5.78526 16.2292C5.38537 16.2292 5.04688 16.0907 4.76979 15.8136C4.49271 15.5365 4.35417 15.198 4.35417 14.7981V4.75009H4.15625C3.98777 4.75009 3.8467 4.69326 3.73302 4.57959C3.61934 4.46592 3.5625 4.32484 3.5625 4.15636C3.5625 3.98788 3.61934 3.84681 3.73302 3.73314C3.8467 3.61945 3.98777 3.56261 4.15625 3.56261H7.12498C7.12498 3.36369 7.1945 3.19725 7.33354 3.06327C7.4726 2.92929 7.6416 2.8623 7.84053 2.8623H11.1594C11.3584 2.8623 11.5274 2.92929 11.6664 3.06327C11.8055 3.19725 11.875 3.36369 11.875 3.56261H14.8437C15.0122 3.56261 15.1533 3.61945 15.2669 3.73314C15.3806 3.84681 15.4375 3.98788 15.4375 4.15636C15.4375 4.32484 15.3806 4.46592 15.2669 4.57959C15.1533 4.69326 15.0122 4.75009 14.8437 4.75009H14.6458V14.7981C14.6458 15.198 14.5073 15.5365 14.2302 15.8136C13.9531 16.0907 13.6146 16.2292 13.2147 16.2292H5.78526ZM5.54165 4.75009V14.7981C5.54165 14.8692 5.56449 14.9276 5.61017 14.9732C5.65584 15.0189 5.71421 15.0418 5.78526 15.0418H13.2147C13.2857 15.0418 13.3441 15.0189 13.3898 14.9732C13.4355 14.9276 13.4583 14.8692 13.4583 14.7981V4.75009H5.54165ZM7.44471 12.8647C7.44471 13.0332 7.50155 13.1743 7.61522 13.2879C7.72889 13.4016 7.86996 13.4584 8.03844 13.4584C8.20692 13.4584 8.348 13.4016 8.46167 13.2879C8.57535 13.1743 8.63219 13.0332 8.63219 12.8647V6.92716C8.63219 6.75868 8.57535 6.6176 8.46167 6.50393C8.348 6.39026 8.20692 6.33343 8.03844 6.33343C7.86996 6.33343 7.72889 6.39026 7.61522 6.50393C7.50155 6.6176 7.44471 6.75868 7.44471 6.92716V12.8647ZM10.3678 12.8647C10.3678 13.0332 10.4246 13.1743 10.5383 13.2879C10.652 13.4016 10.793 13.4584 10.9615 13.4584C11.13 13.4584 11.2711 13.4016 11.3847 13.2879C11.4984 13.1743 11.5552 13.0332 11.5552 12.8647V6.92716C11.5552 6.75868 11.4984 6.6176 11.3847 6.50393C11.2711 6.39026 11.13 6.33343 10.9615 6.33343C10.793 6.33343 10.652 6.39026 10.5383 6.50393C10.4246 6.6176 10.3678 6.75868 10.3678 6.92716V12.8647ZM5.54165 4.75009V14.7981C5.54165 14.8692 5.56449 14.9276 5.61017 14.9732C5.65584 15.0189 5.71421 15.0418 5.78526 15.0418H5.54165V4.75009Z" fill="#212225"/>
</svg>
