<svg width="81" height="80" viewBox="0 0 81 80" fill="none" xmlns="http://www.w3.org/2000/svg">
<rect x="1.06787" y="0.494904" width="79" height="79" rx="15.5" fill="#F9FAFB"/>
<rect x="1.06787" y="0.494904" width="79" height="79" rx="15.5" stroke="#EFF0F4"/>
<path fill-rule="evenodd" clip-rule="evenodd" d="M21.5625 20.0049C22.1011 20.0049 22.5376 20.4415 22.5376 20.9801V58.0367H59.5733C60.1118 58.0367 60.5484 58.4733 60.5484 59.0119C60.5484 59.5505 60.1118 59.9871 59.5733 59.9871H20.5874V20.9801C20.5874 20.4415 21.024 20.0049 21.5625 20.0049Z" fill="#212225"/>
<path fill-rule="evenodd" clip-rule="evenodd" d="M50.3701 25.855C50.9792 27.1102 51.5379 28.4556 52.0274 29.6351L52.059 29.7112C53.6998 33.6644 56.7566 36.678 58.1199 37.7243C58.5471 38.0522 59.1592 37.9716 59.4871 37.5444C59.815 37.1171 59.7344 36.505 59.3072 36.1771C58.1329 35.2758 55.3353 32.5174 53.8602 28.9635C53.8602 28.9635 53.8602 28.9635 53.8602 28.9635L53.824 28.8763C53.3389 27.7074 52.7607 26.3141 52.1246 25.0035C51.4927 23.7013 50.7714 22.4114 49.9836 21.4855C49.2491 20.6223 48.1531 19.7287 46.822 20.0818C46.1861 20.2505 45.6556 20.6753 45.2126 21.2362C44.7697 21.7969 44.3689 22.5495 43.9972 23.4903C43.5992 24.4979 43.2161 25.5063 42.8388 26.4996C41.8482 29.1075 40.8972 31.6108 39.82 33.7182C38.3088 36.6746 36.7513 38.4218 34.9149 38.7336C34.0056 38.888 33.4512 38.6695 33.0416 38.3278C32.5806 37.9434 32.2174 37.3298 31.8781 36.5503C31.7307 36.2117 31.5984 35.8682 31.4631 35.517C31.4453 35.4709 31.4275 35.4247 31.4096 35.3783C31.2603 34.9913 31.1012 34.5857 30.9254 34.2254C30.7532 33.8726 30.5311 33.4902 30.2254 33.1881C29.8985 32.8651 29.4499 32.6115 28.8817 32.6115C28.0696 32.6115 27.592 33.2396 27.3563 33.6353C27.0866 34.0882 26.8695 34.6783 26.6811 35.2926C26.4317 36.1055 26.1893 37.1161 25.9406 38.153C25.815 38.6763 25.6879 39.2063 25.5574 39.721C25.1539 41.313 24.7088 42.808 24.145 43.893C23.5539 45.0305 23.0264 45.3594 22.5966 45.3594C22.0581 45.3594 21.6215 45.796 21.6215 46.3346C21.6215 46.8732 22.0581 47.3098 22.5966 47.3098C24.2028 47.3098 25.2245 46.0451 25.8755 44.7924C26.5537 43.4872 27.0436 41.7952 27.4479 40.2002C27.5949 39.6202 27.7298 39.057 27.8585 38.5198C28.0965 37.5264 28.3133 36.6219 28.5456 35.8645C28.7018 35.355 28.8461 34.9802 28.9774 34.7309C29.0333 34.815 29.0986 34.9289 29.1727 35.0808C29.3067 35.3554 29.4381 35.6864 29.5903 36.0806C29.6075 36.1253 29.625 36.1707 29.6427 36.2168C29.7765 36.5642 29.9246 36.949 30.09 37.3289C30.4588 38.1762 30.9698 39.1394 31.7924 39.8256C32.6664 40.5546 33.8049 40.9004 35.2414 40.6564C38.0968 40.1715 40.0358 37.5809 41.5565 34.6059C42.6862 32.3959 43.6961 29.7372 44.7008 27.0919C45.0697 26.1208 45.4379 25.1516 45.811 24.2069C46.1437 23.3648 46.4609 22.8023 46.743 22.4451C47.0248 22.0883 47.2262 21.9924 47.3221 21.967C47.4548 21.9318 47.8229 21.9556 48.4983 22.7494C49.1203 23.4805 49.7548 24.5872 50.3701 25.855ZM29.1438 34.4781C29.1438 34.4775 29.1395 34.4809 29.1311 34.4901C29.1397 34.4833 29.1439 34.4787 29.1438 34.4781Z" fill="#212225"/>
<path fill-rule="evenodd" clip-rule="evenodd" d="M50.77 37.1036C51.3037 37.9288 51.8165 38.9799 52.2922 40.1261C53.0992 42.0704 54.0651 43.6979 55.1 44.8576C56.1064 45.9854 57.3201 46.8243 58.6264 46.8243C59.1649 46.8243 59.6015 46.3877 59.6015 45.8491C59.6015 45.3105 59.1649 44.8739 58.6264 44.8739C58.1558 44.8739 57.4316 44.5412 56.555 43.5589C55.7068 42.6085 54.8443 41.1876 54.0934 39.3783C53.5954 38.1785 53.0308 37.008 52.4075 36.0443C51.8019 35.1079 51.0617 34.2402 50.1651 33.8136C49.6945 33.5897 49.1682 33.4818 48.6115 33.5665C48.0594 33.6505 47.5557 33.9118 47.1045 34.2971C46.2307 35.0432 45.4543 36.3384 44.7287 38.1749C44.1533 39.6315 43.7006 40.9024 43.3127 41.9914C43.2183 42.2564 43.1277 42.5108 43.0401 42.7543C42.5859 44.0175 42.2229 44.9607 41.8204 45.6974C41.4288 46.4141 41.0221 46.8917 40.502 47.2413C39.972 47.5975 39.2521 47.8693 38.159 48.0549C36.1618 48.3941 34.8612 47.7433 33.754 46.9416C33.4676 46.7343 33.1979 46.5192 32.9224 46.2993L32.9067 46.2867C32.6433 46.0764 32.3668 45.8555 32.0925 45.6608C31.5502 45.2758 30.8599 44.8739 30.0338 44.8739C29.3844 44.8739 28.8994 45.2477 28.583 45.5839C28.2562 45.931 27.9709 46.3834 27.717 46.8462C27.3835 47.454 27.034 48.217 26.6812 48.9872C26.506 49.3696 26.3301 49.7538 26.1548 50.1216C25.5999 51.2865 25.0213 52.3624 24.3693 53.1404C23.7167 53.9191 23.1124 54.2578 22.5094 54.2578C21.9709 54.2578 21.5343 54.6944 21.5343 55.233C21.5343 55.7716 21.9709 56.2082 22.5094 56.2082C23.9425 56.2082 25.0422 55.3739 25.8641 54.3932C26.6865 53.4117 27.3528 52.1416 27.9154 50.9605C28.1245 50.5216 28.3167 50.1015 28.4985 49.704C28.8293 48.9809 29.1257 48.3329 29.4267 47.7845C29.6555 47.3676 29.8466 47.0868 30.003 46.9208C30.0471 46.8739 30.0799 46.8451 30.1016 46.828C30.2886 46.8484 30.5468 46.9554 30.9636 47.2512C31.1899 47.4118 31.427 47.601 31.7056 47.8234L31.7082 47.8254C31.9787 48.0415 32.2822 48.2838 32.6104 48.5214C33.9655 49.5025 35.7911 50.4353 38.4855 49.9777C39.7383 49.765 40.7515 49.4235 41.5899 48.86C42.4383 48.2897 43.0356 47.5408 43.5318 46.6326C44.017 45.7445 44.4257 44.6645 44.8752 43.4143C44.9657 43.1629 45.0582 42.9031 45.1539 42.6345C45.5412 41.5474 45.9806 40.3142 46.5426 38.8916C47.2334 37.1428 47.8663 36.2111 48.3708 35.7804C48.6087 35.5773 48.7863 35.5127 48.9047 35.4947C49.0186 35.4774 49.152 35.4914 49.3273 35.5748C49.7224 35.7628 50.2187 36.2512 50.77 37.1036Z" fill="#212225"/>
</svg>
