<svg width="81" height="81" viewBox="0 0 81 81" fill="none" xmlns="http://www.w3.org/2000/svg">
<rect x="0.633301" y="0.306885" width="80" height="80" rx="16" fill="#2E394D"/>
<path fill-rule="evenodd" clip-rule="evenodd" d="M21.6279 20.3169C22.1665 20.3169 22.6031 20.7535 22.6031 21.2921V58.3487H59.6387C60.1773 58.3487 60.6138 58.7853 60.6138 59.3239C60.6138 59.8625 60.1773 60.2991 59.6387 60.2991H20.6528V21.2921C20.6528 20.7535 21.0894 20.3169 21.6279 20.3169Z" fill="#EFF0F4"/>
<path fill-rule="evenodd" clip-rule="evenodd" d="M50.4355 26.167C51.0446 27.4222 51.6033 28.7676 52.0928 29.9471L52.1244 30.0232C53.7653 33.9764 56.822 36.99 58.1853 38.0363C58.6125 38.3642 59.2246 38.2836 59.5525 37.8564C59.8804 37.4291 59.7999 36.8169 59.3726 36.489C58.1983 35.5878 55.4008 32.8294 53.9256 29.2755C53.9256 29.2755 53.9257 29.2755 53.9256 29.2755L53.8894 29.1882C53.4043 28.0194 52.8261 26.6261 52.19 25.3155C51.5581 24.0133 50.8369 22.7234 50.049 21.7975C49.3145 20.9343 48.2185 20.0407 46.8875 20.3938C46.2515 20.5625 45.7211 20.9873 45.278 21.5482C44.8352 22.1089 44.4343 22.8615 44.0626 23.8023C43.6646 24.8098 43.2816 25.8183 42.9042 26.8115C41.9136 29.4195 40.9627 31.9228 39.8854 34.0302C38.3742 36.9866 36.8167 38.7338 34.9804 39.0456C34.0711 39.2 33.5166 38.9815 33.107 38.6398C32.6461 38.2553 32.2829 37.6418 31.9435 36.8623C31.7961 36.5237 31.6638 36.1802 31.5285 35.829C31.5108 35.7829 31.493 35.7366 31.4751 35.6903C31.3257 35.3033 31.1666 34.8977 30.9908 34.5374C30.8186 34.1846 30.5965 33.8022 30.2909 33.5001C29.9639 33.1771 29.5153 32.9235 28.9471 32.9235C28.1351 32.9235 27.6575 33.5516 27.4218 33.9473C27.152 34.4002 26.9349 34.9903 26.7465 35.6045C26.4972 36.4175 26.2547 37.4281 26.006 38.465C25.8804 38.9883 25.7533 39.5183 25.6228 40.033C25.2194 41.6249 24.7742 43.12 24.2104 44.205C23.6193 45.3425 23.0919 45.6714 22.662 45.6714C22.1235 45.6714 21.6869 46.108 21.6869 46.6466C21.6869 47.1851 22.1235 47.6217 22.662 47.6217C24.2682 47.6217 25.2899 46.3571 25.9409 45.1044C26.6191 43.7992 27.109 42.1072 27.5133 40.5122C27.6603 39.9322 27.7952 39.369 27.9239 38.8318C28.162 37.8384 28.3787 36.9338 28.611 36.1764C28.7672 35.667 28.9115 35.2922 29.0428 35.0429C29.0987 35.127 29.164 35.2408 29.2381 35.3928C29.3722 35.6674 29.5035 35.9984 29.6557 36.3926C29.6729 36.4373 29.6904 36.4827 29.7081 36.5287C29.8419 36.8762 29.99 37.261 30.1554 37.6409C30.5243 38.4881 31.0352 39.4514 31.8579 40.1376C32.7318 40.8665 33.8704 41.2124 35.3069 40.9684C38.1622 40.4835 40.1013 37.8929 41.6219 34.9179C42.7516 32.7079 43.7615 30.0492 44.7663 27.4039C45.1351 26.4328 45.5033 25.4635 45.8765 24.5189C46.2091 23.6768 46.5263 23.1143 46.8084 22.7571C47.0903 22.4003 47.2916 22.3044 47.3875 22.2789C47.5202 22.2437 47.8883 22.2676 48.5637 23.0614C49.1858 23.7925 49.8203 24.8992 50.4355 26.167ZM29.2093 34.7901C29.2092 34.7895 29.2049 34.7929 29.1965 34.8021C29.2051 34.7953 29.2093 34.7907 29.2093 34.7901Z" fill="#EFF0F4"/>
<path fill-rule="evenodd" clip-rule="evenodd" d="M50.8354 37.4155C51.3691 38.2407 51.8819 39.2919 52.3576 40.438C53.1646 42.3824 54.1305 44.0099 55.1654 45.1696C56.1719 46.2974 57.3855 47.1363 58.6918 47.1363C59.2303 47.1363 59.6669 46.6997 59.6669 46.1611C59.6669 45.6225 59.2303 45.1859 58.6918 45.1859C58.2212 45.1859 57.497 44.8532 56.6204 43.8709C55.7723 42.9205 54.9098 41.4996 54.1588 39.6903C53.6608 38.4905 53.0962 37.32 52.4729 36.3563C51.8673 35.4199 51.1271 34.5522 50.2305 34.1256C49.7599 33.9017 49.2336 33.7938 48.6769 33.8785C48.1249 33.9625 47.6211 34.2238 47.1699 34.6091C46.2961 35.3552 45.5197 36.6503 44.7942 38.4869C44.2188 39.9435 43.7661 41.2143 43.3781 42.3033C43.2837 42.5684 43.1931 42.8227 43.1055 43.0663C42.6513 44.3295 42.2884 45.2727 41.8858 46.0094C41.4942 46.7261 41.0875 47.2036 40.5674 47.5532C40.0374 47.9095 39.3176 48.1813 38.2245 48.3669C36.2272 48.7061 34.9267 48.0553 33.8195 47.2536C33.5331 47.0463 33.2633 46.8312 32.9879 46.6112L32.9721 46.5987C32.7087 46.3883 32.4322 46.1675 32.1579 45.9728C31.6156 45.5878 30.9254 45.1859 30.0993 45.1859C29.4498 45.1859 28.9648 45.5597 28.6484 45.8959C28.3217 46.243 28.0363 46.6954 27.7824 47.1582C27.4489 47.766 27.0994 48.529 26.7466 49.2991C26.5715 49.6816 26.3955 50.0658 26.2202 50.4336C25.6653 51.5985 25.0867 52.6744 24.4347 53.4524C23.7822 54.2311 23.1778 54.5698 22.5749 54.5698C22.0363 54.5698 21.5998 55.0064 21.5998 55.545C21.5998 56.0836 22.0363 56.5202 22.5749 56.5202C24.0079 56.5202 25.1076 55.6859 25.9295 54.7051C26.7519 53.7237 27.4182 52.4535 27.9809 51.2725C28.1899 50.8336 28.3821 50.4135 28.564 50.016C28.8948 49.2929 29.1912 48.6449 29.4921 48.0965C29.7209 47.6795 29.9121 47.3988 30.0684 47.2327C30.1125 47.1859 30.1453 47.1571 30.167 47.14C30.354 47.1603 30.6123 47.2673 31.0291 47.5632C31.2553 47.7238 31.4925 47.913 31.771 48.1354L31.7736 48.1374C32.0442 48.3535 32.3476 48.5958 32.6758 48.8334C34.0309 49.8145 35.8565 50.7473 38.551 50.2897C39.8037 50.077 40.8169 49.7355 41.6553 49.1719C42.5037 48.6017 43.101 47.8527 43.5972 46.9446C44.0825 46.0565 44.4911 44.9765 44.9407 43.7263C45.0311 43.4748 45.1236 43.2151 45.2193 42.9465C45.6066 41.8594 46.046 40.6262 46.608 39.2035C47.2988 37.4548 47.9318 36.5231 48.4362 36.0924C48.6741 35.8893 48.8517 35.8247 48.9702 35.8067C49.084 35.7894 49.2174 35.8034 49.3927 35.8868C49.7878 36.0748 50.2841 36.5631 50.8354 37.4155Z" fill="#EFF0F4"/>
</svg>
