<svg width="190" height="75" viewBox="0 0 190 75" fill="none" xmlns="http://www.w3.org/2000/svg">
<rect x="0.246094" width="189" height="75" rx="16" fill="white"/>
<path d="M29.9961 15V60H74.9961M32.9961 49L40.7938 37.3034C41.4416 36.3317 42.7806 36.1194 43.6972 36.843L49.8064 41.6661C50.7188 42.3864 52.051 42.1798 52.7023 41.2169L61.4055 28.3513C62.1805 27.2056 63.8568 27.1737 64.6749 28.2892L66.4704 30.7377C67.3758 31.9723 69.2758 31.7734 69.906 30.3781L75.4961 18M35.9961 54.5L41.7593 47.0902C42.4409 46.2138 43.7059 46.0604 44.5773 46.7483L50.8064 51.6661C51.7188 52.3864 53.051 52.1798 53.7023 51.2169L62.4055 38.3513C63.1805 37.2056 64.8568 37.1737 65.6749 38.2892L67.5962 40.9092C68.4721 42.1036 70.2971 41.9648 70.9822 40.6517L75.4961 32" stroke="#3EA1DA" stroke-width="1.5" stroke-linecap="round"/>
<path d="M97.5981 23.742V33.5H96.3241V23.742H97.5981ZM103.507 25.688C104.441 25.688 105.197 25.9727 105.775 26.542C106.354 27.102 106.643 27.914 106.643 28.978V33.5H105.383V29.16C105.383 28.3947 105.192 27.8113 104.809 27.41C104.427 26.9993 103.904 26.794 103.241 26.794C102.569 26.794 102.033 27.004 101.631 27.424C101.239 27.844 101.043 28.4553 101.043 29.258V33.5H99.7694V25.828H101.043V26.92C101.295 26.528 101.636 26.2247 102.065 26.01C102.504 25.7953 102.985 25.688 103.507 25.688ZM108.248 29.636C108.248 28.852 108.407 28.166 108.724 27.578C109.042 26.9807 109.476 26.5187 110.026 26.192C110.586 25.8653 111.212 25.702 111.902 25.702C112.5 25.702 113.055 25.842 113.568 26.122C114.082 26.3927 114.474 26.752 114.744 27.2V23.14H116.032V33.5H114.744V32.058C114.492 32.5153 114.119 32.8933 113.624 33.192C113.13 33.4813 112.551 33.626 111.888 33.626C111.207 33.626 110.586 33.458 110.026 33.122C109.476 32.786 109.042 32.3147 108.724 31.708C108.407 31.1013 108.248 30.4107 108.248 29.636ZM114.744 29.65C114.744 29.0713 114.628 28.5673 114.394 28.138C114.161 27.7087 113.844 27.382 113.442 27.158C113.05 26.9247 112.616 26.808 112.14 26.808C111.664 26.808 111.23 26.92 110.838 27.144C110.446 27.368 110.134 27.6947 109.9 28.124C109.667 28.5533 109.55 29.0573 109.55 29.636C109.55 30.224 109.667 30.7373 109.9 31.176C110.134 31.6053 110.446 31.9367 110.838 32.17C111.23 32.394 111.664 32.506 112.14 32.506C112.616 32.506 113.05 32.394 113.442 32.17C113.844 31.9367 114.161 31.6053 114.394 31.176C114.628 30.7373 114.744 30.2287 114.744 29.65ZM125.185 29.37C125.185 29.6127 125.171 29.8693 125.143 30.14H119.011C119.058 30.896 119.315 31.4887 119.781 31.918C120.257 32.338 120.831 32.548 121.503 32.548C122.054 32.548 122.511 32.422 122.875 32.17C123.249 31.9087 123.51 31.5633 123.659 31.134H125.031C124.826 31.8713 124.415 32.4733 123.799 32.94C123.183 33.3973 122.418 33.626 121.503 33.626C120.775 33.626 120.122 33.4627 119.543 33.136C118.974 32.8093 118.526 32.3473 118.199 31.75C117.873 31.1433 117.709 30.4433 117.709 29.65C117.709 28.8567 117.868 28.1613 118.185 27.564C118.503 26.9667 118.946 26.5093 119.515 26.192C120.094 25.8653 120.757 25.702 121.503 25.702C122.231 25.702 122.875 25.8607 123.435 26.178C123.995 26.4953 124.425 26.934 124.723 27.494C125.031 28.0447 125.185 28.67 125.185 29.37ZM123.869 29.104C123.869 28.6187 123.762 28.2033 123.547 27.858C123.333 27.5033 123.039 27.2373 122.665 27.06C122.301 26.8733 121.895 26.78 121.447 26.78C120.803 26.78 120.253 26.9853 119.795 27.396C119.347 27.8067 119.091 28.376 119.025 29.104H123.869ZM130.871 33.5L129.051 30.644L127.301 33.5H125.971L128.449 29.692L125.971 25.828H127.413L129.233 28.67L130.969 25.828H132.299L129.835 29.622L132.313 33.5H130.871ZM101.84 41.742V42.778H97.5981V46.068H101.042V47.104H97.5981V51.5H96.3241V41.742H101.84ZM110.183 43.828V51.5H108.909V50.366C108.666 50.758 108.325 51.066 107.887 51.29C107.457 51.5047 106.981 51.612 106.459 51.612C105.861 51.612 105.325 51.4907 104.849 51.248C104.373 50.996 103.995 50.6227 103.715 50.128C103.444 49.6333 103.309 49.0313 103.309 48.322V43.828H104.569V48.154C104.569 48.91 104.76 49.4933 105.143 49.904C105.525 50.3053 106.048 50.506 106.711 50.506C107.392 50.506 107.929 50.296 108.321 49.876C108.713 49.456 108.909 48.8447 108.909 48.042V43.828H110.183ZM116.072 43.688C117.005 43.688 117.761 43.9727 118.34 44.542C118.919 45.102 119.208 45.914 119.208 46.978V51.5H117.948V47.16C117.948 46.3947 117.757 45.8113 117.374 45.41C116.991 44.9993 116.469 44.794 115.806 44.794C115.134 44.794 114.597 45.004 114.196 45.424C113.804 45.844 113.608 46.4553 113.608 47.258V51.5H112.334V43.828H113.608V44.92C113.86 44.528 114.201 44.2247 114.63 44.01C115.069 43.7953 115.549 43.688 116.072 43.688ZM120.813 47.636C120.813 46.852 120.972 46.166 121.289 45.578C121.606 44.9807 122.04 44.5187 122.591 44.192C123.151 43.8653 123.776 43.702 124.467 43.702C125.064 43.702 125.62 43.842 126.133 44.122C126.646 44.3927 127.038 44.752 127.309 45.2V41.14H128.597V51.5H127.309V50.058C127.057 50.5153 126.684 50.8933 126.189 51.192C125.694 51.4813 125.116 51.626 124.453 51.626C123.772 51.626 123.151 51.458 122.591 51.122C122.04 50.786 121.606 50.3147 121.289 49.708C120.972 49.1013 120.813 48.4107 120.813 47.636ZM127.309 47.65C127.309 47.0713 127.192 46.5673 126.959 46.138C126.726 45.7087 126.408 45.382 126.007 45.158C125.615 44.9247 125.181 44.808 124.705 44.808C124.229 44.808 123.795 44.92 123.403 45.144C123.011 45.368 122.698 45.6947 122.465 46.124C122.232 46.5533 122.115 47.0573 122.115 47.636C122.115 48.224 122.232 48.7373 122.465 49.176C122.698 49.6053 123.011 49.9367 123.403 50.17C123.795 50.394 124.229 50.506 124.705 50.506C125.181 50.506 125.615 50.394 126.007 50.17C126.408 49.9367 126.726 49.6053 126.959 49.176C127.192 48.7373 127.309 48.2287 127.309 47.65Z" fill="#434343"/>
</svg>
