<svg width="16" height="17" viewBox="0 0 16 17" fill="none" xmlns="http://www.w3.org/2000/svg">
<rect width="16" height="17" rx="8" fill="#46C9E6"/>
<path d="M8.50391 6.66016V13H7.41406V6.66016H8.50391ZM7.33203 4.97852C7.33203 4.80273 7.38477 4.6543 7.49023 4.5332C7.59961 4.41211 7.75977 4.35156 7.9707 4.35156C8.17773 4.35156 8.33594 4.41211 8.44531 4.5332C8.55859 4.6543 8.61523 4.80273 8.61523 4.97852C8.61523 5.14648 8.55859 5.29102 8.44531 5.41211C8.33594 5.5293 8.17773 5.58789 7.9707 5.58789C7.75977 5.58789 7.59961 5.5293 7.49023 5.41211C7.38477 5.29102 7.33203 5.14648 7.33203 4.97852Z" fill="white"/>
</svg>
