<svg width="240" height="36" viewBox="0 0 240 36" fill="none" xmlns="http://www.w3.org/2000/svg">
<g clip-path="url(#clip0_3108_246)">
<path d="M29.2185 9.54878C29.3733 9.54878 29.6475 9.67636 30.0212 10.0868C31.967 12.2085 34.15 13.8855 35.9865 14.8997C36.2516 15.0432 36.3966 15.1536 36.3966 15.2928C36.3966 15.3989 36.3816 15.5022 36.153 15.5022C35.7389 15.5022 33.4238 15.0432 32.8111 14.7576C32.1956 14.4637 30.8729 13.3863 29.295 10.6533C29.1163 10.345 28.9277 10.0797 28.9277 9.8313C28.9277 9.58475 29.149 9.54878 29.2185 9.54878Z" fill="#6C99D7"/>
<path d="M34.4598 1.73514C34.4598 1.73514 34.8438 2.49692 31.1034 3.0269C31.5105 1.86702 31.7807 1.10248 31.7807 1.10248C32.0182 0.405263 31.482 0.00131798 31.0964 0.00131798C30.7102 0.00131798 30.4286 0.299819 30.2667 0.676403L29.1555 3.23134C27.6972 3.32909 26.6175 3.27499 26.1275 3.22857C25.4509 3.16248 25.2743 3.53691 25.2743 3.9221C25.2743 4.59411 26.4547 5.27596 27.2088 5.20095C27.6822 5.15668 27.9573 5.13731 28.3457 5.09581L24.2096 14.591C24.0511 14.9454 23.9241 15.5178 24.6332 15.5178C25.3444 15.5178 26.941 14.8664 27.2088 14.1105C27.3202 13.7932 28.1443 11.4464 29.0628 8.83399C29.5181 8.74361 31.1873 8.48815 31.6519 8.48815C32.0926 8.48815 32.3196 8.68458 32.3196 8.91853C32.3196 9.46665 31.0128 11.0375 28.4813 12.97C28.2055 13.1836 28.4348 13.3499 28.5755 13.3499C28.967 13.3499 30.712 12.1507 31.5757 11.4937C32.5268 10.7735 34.1797 8.90131 34.1797 7.58158C34.1797 7.06542 33.9511 6.59047 32.9152 6.59047C31.912 6.59047 30.1339 6.81365 29.7569 6.86253C30.0011 6.15886 30.2453 5.47209 30.4724 4.82867C32.4289 4.5563 33.5943 4.37769 34.2826 4.23566C35.2282 4.03461 35.99 3.4868 35.99 2.923C35.99 1.725 34.4598 1.73514 34.4598 1.73514Z" fill="#5C250B"/>
<path d="M1.18915 7.67846H-0.00195312V6.49614H1.18915V4.92155H2.80014V6.49614H4.3233V7.67846H2.80014V10.5734C2.80014 11.1055 2.94276 11.5992 3.55575 11.5992C3.84557 11.5992 4.12039 11.5405 4.28688 11.4342L4.33829 12.7096C3.99829 12.8129 3.62981 12.856 3.1478 12.856C1.88447 12.856 1.18915 12.0699 1.18915 10.839V7.67846Z" fill="#5C250B"/>
<path d="M5.55078 6.49598H6.97907V7.90948H7.00477C7.07608 7.32662 7.73651 6.34873 8.69717 6.34873C8.85294 6.34873 9.02127 6.34873 9.18928 6.40038V8.02845C9.04544 7.94668 8.75777 7.89657 8.46856 7.89657C7.16024 7.89657 7.16024 9.53786 7.16024 10.4284V12.7095H5.55078L5.55078 6.49598Z" fill="#5C250B"/>
<path d="M15.8703 12.7101H14.342V11.8693H14.3178C13.8278 12.4719 13.131 12.8564 12.2897 12.8564C10.8244 12.8564 10.1875 11.8192 10.1875 10.4162V6.49663H11.7927V9.81364C11.7927 10.5739 11.8086 11.5997 12.8424 11.5997C14.0066 11.5997 14.2606 10.3329 14.2606 9.5382V6.49663H15.8703V12.7101Z" fill="#5C250B"/>
<path d="M21.174 8.99438C21.1238 8.21108 20.7639 7.53415 19.8651 7.53415C18.9622 7.53415 18.5069 8.1622 18.4346 8.99438H21.174ZM22.2537 12.36C21.6652 12.6855 20.9931 12.8564 20.127 12.8564C18.0876 12.8564 16.8965 11.6744 16.8965 9.63719C16.8965 7.83665 17.8461 6.34937 19.7687 6.34937C22.0637 6.34937 22.7121 7.93011 22.7121 10.1063H18.4346C18.5069 11.106 19.2025 11.6744 20.1993 11.6744C20.9839 11.6744 21.6539 11.3845 22.2537 11.0458V12.36Z" fill="#5C250B"/>
<path d="M35.3086 6.59141H36.739V8.00121H36.7632C36.8339 7.42143 37.4952 6.44231 38.4577 6.44231C38.6126 6.44231 38.7806 6.44231 38.9483 6.49027V8.12172C38.8069 8.03718 38.5177 7.98984 38.2285 7.98984C36.9181 7.98984 36.9181 9.6296 36.9181 10.5205V12.8015H35.3086V6.59141Z" fill="#5C250B"/>
<path d="M39.8828 6.59095H41.4944V12.8011H39.8828V6.59095ZM39.8828 4.0022H41.4944V5.54665H39.8828V4.0022Z" fill="#5C250B"/>
<path d="M46.7844 9.08642C46.7367 8.29882 46.3765 7.62619 45.4755 7.62619C44.5714 7.62619 44.1173 8.25302 44.0475 9.08642H46.7844ZM47.8641 12.452C47.2765 12.7791 46.606 12.9485 45.7396 12.9485C43.6983 12.9485 42.5078 11.7646 42.5078 9.72492C42.5078 7.92593 43.4547 6.44141 45.3797 6.44141C47.6734 6.44141 48.3198 8.02184 48.3198 10.1968H44.0475C44.1173 11.1996 44.8129 11.7646 45.8118 11.7646C46.591 11.7646 47.2664 11.4766 47.8641 11.1378V12.452Z" fill="#5C250B"/>
<path d="M49.2754 6.64572H50.8034V7.48866H50.8249C51.332 6.77545 52.0169 6.49663 52.8557 6.49663C54.3241 6.49663 54.9579 7.53538 54.9579 8.93566V12.8564H53.35V9.5382C53.35 8.77796 53.3371 7.75211 52.3046 7.75211C51.1419 7.75211 50.8864 9.01744 50.8864 9.81795V12.8564H49.2754V6.64572Z" fill="#5C250B"/>
<path d="M58.9752 11.6918C60.0476 11.6918 60.3977 10.5599 60.3977 9.67604C60.3977 8.80667 59.9864 7.69629 58.9523 7.69629C57.9105 7.69629 57.6229 8.84418 57.6229 9.67604C57.6229 10.5356 57.9197 11.6918 58.9752 11.6918ZM60.4562 12.1034H60.432C59.9506 12.7059 59.2908 12.9485 58.5355 12.9485C56.6347 12.9485 55.9375 11.3776 55.9375 9.67604C55.9375 7.96189 56.6347 6.44141 58.5355 6.44141C59.3394 6.44141 59.9035 6.72055 60.3849 7.3114H60.4093V3.7503H62.0173V12.8006H60.4562V12.1034Z" fill="#5C250B"/>
<path d="M68.9199 5.01917H72.3215V11.7626H72.3895C72.727 11.1739 73.0879 10.631 73.4254 10.0882L76.872 5.01917H81.085L76.061 11.5136L81.3552 20.271H77.3452L73.6283 13.6861L72.3215 15.2924V20.271H68.9199V5.01917Z" fill="#231F20"/>
<path d="M84.9353 14.7271C84.9353 16.6278 85.7237 18.0533 87.1878 18.0533C88.5172 18.0533 89.3729 16.7182 89.3729 14.7271C89.3729 13.075 88.7425 11.4005 87.1878 11.4005C85.5434 11.4005 84.9353 13.0978 84.9353 14.7271ZM92.9101 14.6139C92.9101 18.6641 90.0489 20.52 87.0981 20.52C83.8764 20.52 81.3984 18.393 81.3984 14.8175C81.3984 11.2425 83.7415 8.95657 87.2784 8.95657C90.6573 8.95657 92.9101 11.2877 92.9101 14.6139Z" fill="#231F20"/>
<path d="M94.8032 12.8484C94.8032 11.2191 94.7582 10.1558 94.7129 9.20525H97.664L97.7766 11.2419H97.8666C98.43 9.63533 99.7815 8.95625 100.84 8.95625C101.156 8.95625 101.314 8.95625 101.561 9.00144V12.26C101.314 12.1924 101.021 12.1469 100.638 12.1469C99.376 12.1469 98.52 12.8257 98.2948 13.8897C98.2498 14.1156 98.2271 14.3874 98.2271 14.6588V20.271H94.8032V12.8484Z" fill="#231F20"/>
<path d="M109.623 13.4823C109.623 12.6449 109.263 11.2422 107.685 11.2422C106.244 11.2422 105.658 12.5543 105.568 13.4823H109.623ZM105.591 15.8356C105.703 17.2611 107.1 17.9396 108.7 17.9396C109.871 17.9396 110.817 17.7816 111.74 17.4877L112.191 19.8182C111.065 20.271 109.691 20.52 108.204 20.52C104.464 20.52 102.324 18.3248 102.324 14.8626C102.324 12.0566 104.059 8.95657 107.888 8.95657C111.448 8.95657 112.799 11.7402 112.799 14.4781C112.799 15.0662 112.732 15.5869 112.687 15.8356H105.591Z" fill="#231F20"/>
<path d="M120.48 15.0437C118.678 15.0213 117.282 15.4513 117.282 16.7865C117.282 17.6687 117.867 18.0991 118.633 18.0991C119.489 18.0991 120.187 17.5335 120.413 16.8316C120.458 16.6503 120.48 16.4465 120.48 16.2429V15.0437ZM123.814 17.5784C123.814 18.6414 123.86 19.6602 123.972 20.2713H120.886L120.683 19.1622H120.616C119.895 20.0444 118.768 20.52 117.462 20.52C115.231 20.52 113.902 18.891 113.902 17.1258C113.902 14.2518 116.47 12.8715 120.368 12.894V12.7359C120.368 12.1472 120.052 11.3101 118.363 11.3101C117.237 11.3101 116.043 11.6947 115.322 12.1472L114.691 9.92985C115.457 9.49978 116.966 8.95688 118.971 8.95688C122.643 8.95688 123.814 11.1291 123.814 13.7314V17.5784Z" fill="#231F20"/>
<path d="M134.175 20.2699H130.729V5.01807H134.175V20.2699Z" fill="#231F20"/>
<path d="M136.877 12.7356C136.877 11.355 136.832 10.1785 136.787 9.20556H139.761L139.918 10.7214H139.986C140.436 10.0202 141.563 8.95655 143.387 8.95655C145.641 8.95655 147.33 10.45 147.33 13.7086V20.271H143.905V14.1387C143.905 12.7132 143.41 11.7402 142.172 11.7402C141.225 11.7402 140.662 12.3959 140.436 13.0298C140.346 13.2561 140.301 13.5727 140.301 13.8897V20.271H136.877V12.7356Z" fill="#231F20"/>
<path d="M151.968 9.20525L153.455 14.3419C153.726 15.2696 153.928 16.1522 154.086 17.0348H154.153C154.334 16.1298 154.514 15.2924 154.762 14.3419L156.181 9.20525H159.786L155.686 20.271H152.262L148.252 9.20525H151.968Z" fill="#231F20"/>
<path d="M167.467 13.4823C167.467 12.6449 167.106 11.2422 165.529 11.2422C164.088 11.2422 163.502 12.5543 163.412 13.4823H167.467ZM163.434 15.8356C163.547 17.2611 164.944 17.9396 166.543 17.9396C167.715 17.9396 168.661 17.7816 169.584 17.4877L170.036 19.8182C168.909 20.271 167.535 20.52 166.048 20.52C162.308 20.52 160.168 18.3248 160.168 14.8626C160.168 12.0566 161.903 8.95657 165.732 8.95657C169.291 8.95657 170.644 11.7402 170.644 14.4781C170.644 15.0662 170.575 15.5869 170.531 15.8356H163.434Z" fill="#231F20"/>
<path d="M172.446 17.2611C173.077 17.6457 174.384 18.0991 175.397 18.0991C176.434 18.0991 176.862 17.7367 176.862 17.1707C176.862 16.6054 176.524 16.3336 175.24 15.9036C172.964 15.1344 172.085 13.8897 172.108 12.5998C172.108 10.5179 173.866 8.95657 176.591 8.95657C177.875 8.95657 179.024 9.25046 179.7 9.59016L179.092 11.9662C178.596 11.6944 177.65 11.3326 176.704 11.3326C175.87 11.3326 175.397 11.6717 175.397 12.2379C175.397 12.7584 175.825 13.0295 177.176 13.5048C179.272 14.2291 180.151 15.2924 180.173 16.9217C180.173 18.9811 178.551 20.52 175.397 20.52C173.956 20.52 172.672 20.1806 171.838 19.7278L172.446 17.2611Z" fill="#231F20"/>
<path d="M185.847 6.19597V9.20558H188.303V11.7402H185.847V15.7449C185.847 17.0803 186.163 17.6918 187.199 17.6918C187.673 17.6918 187.876 17.6684 188.213 17.6011L188.235 20.2034C187.785 20.3841 186.974 20.52 186.005 20.52C184.902 20.52 183.978 20.1127 183.437 19.5464C182.807 18.8907 182.491 17.8271 182.491 16.2654V11.7402H181.027V9.20558H182.491V7.12376L185.847 6.19597Z" fill="#231F20"/>
<path d="M190.059 12.7356C190.059 11.355 190.014 10.1785 189.969 9.20556H192.852L193.01 10.699H193.078C193.551 9.99746 194.519 8.95655 196.411 8.95655C197.831 8.95655 198.958 9.68052 199.431 10.8346H199.476C199.881 10.2462 200.377 9.81639 200.894 9.49945C201.503 9.13762 202.178 8.95655 202.989 8.95655C205.108 8.95655 206.707 10.45 206.707 13.7541V20.271H203.372V14.2518C203.372 12.6449 202.855 11.7175 201.751 11.7175C200.962 11.7175 200.399 12.2604 200.174 12.9167C200.083 13.1657 200.039 13.5275 200.039 13.799V20.271H196.704V14.0704C196.704 12.6674 196.209 11.7175 195.127 11.7175C194.249 11.7175 193.731 12.3959 193.528 12.9619C193.416 13.2336 193.393 13.55 193.393 13.8217V20.271H190.059V12.7356Z" fill="#231F20"/>
<path d="M215.872 13.4823C215.872 12.6449 215.511 11.2422 213.934 11.2422C212.493 11.2422 211.907 12.5543 211.817 13.4823H215.872ZM211.839 15.8356C211.951 17.2611 213.348 17.9396 214.948 17.9396C216.119 17.9396 217.065 17.7816 217.989 17.4877L218.44 19.8182C217.313 20.271 215.939 20.52 214.452 20.52C210.713 20.52 208.572 18.3248 208.572 14.8626C208.572 12.0566 210.308 8.95657 214.137 8.95657C217.696 8.95657 219.048 11.7402 219.048 14.4781C219.048 15.0662 218.98 15.5869 218.935 15.8356H211.839Z" fill="#231F20"/>
<path d="M220.873 12.7356C220.873 11.355 220.828 10.1785 220.783 9.20556H223.757L223.914 10.7214H223.982C224.432 10.0202 225.559 8.95655 227.383 8.95655C229.637 8.95655 231.326 10.45 231.326 13.7086V20.271H227.901V14.1387C227.901 12.7132 227.406 11.7402 226.167 11.7402C225.22 11.7402 224.658 12.3959 224.432 13.0298C224.342 13.2561 224.297 13.5727 224.297 13.8897V20.271H220.873V12.7356Z" fill="#231F20"/>
<path d="M237.541 6.19597V9.20558H239.997V11.7402H237.541V15.7449C237.541 17.0803 237.856 17.6918 238.893 17.6918C239.366 17.6918 239.569 17.6684 239.907 17.6011L239.929 20.2034C239.479 20.3841 238.668 20.52 237.699 20.52C236.595 20.52 235.671 20.1127 235.131 19.5464C234.5 18.8907 234.184 17.8271 234.184 16.2654V11.7402H232.721V9.20558H234.184V7.12376L237.541 6.19597Z" fill="#231F20"/>
<path d="M70.9375 27.7391C70.2263 27.7391 69.8514 28.3373 69.8514 29.0134C69.8514 29.6359 70.136 30.1164 70.5109 30.5839C71.3902 30.0776 71.9594 29.61 71.9594 28.8698C71.9594 28.3373 71.6619 27.7391 70.9507 27.7391H70.9375ZM70.7181 35.1438C71.4547 35.1438 72.0885 34.806 72.5026 34.3513C71.9851 33.7801 71.0153 32.7146 70.0451 31.5978C69.5796 31.8966 68.9201 32.4549 68.9201 33.3774C68.9201 34.3771 69.6574 35.1438 70.7046 35.1438H70.7181ZM73.8734 35.8583C73.6276 35.6114 73.3947 35.3649 73.0584 35.0012C72.3083 35.7027 71.4676 36.0012 70.5109 36.0012C68.8167 36.0012 67.834 34.8576 67.834 33.5465C67.834 32.3516 68.5455 31.5323 69.5411 30.987V30.9482C69.0884 30.3767 68.8167 29.7407 68.8167 29.1163C68.8167 28.0521 69.5796 26.9601 71.0281 26.9601C72.1146 26.9601 72.9549 27.6875 72.9549 28.8181C72.9549 29.7407 72.4246 30.4677 71.041 31.1563V31.1951C71.7785 32.0522 72.6061 33.0134 73.1621 33.6372C73.563 33.0264 73.8342 32.1822 74.0025 31.0783H75.0372C74.8043 32.4549 74.4291 33.5465 73.7825 34.3126C74.248 34.806 74.7009 35.2997 75.2181 35.8583H73.8734Z" fill="#231F20"/>
<path d="M78.5659 34.482C79.0702 34.7934 79.8075 35.0528 80.5833 35.0528C81.7343 35.0528 82.4067 34.4426 82.4067 33.5594C82.4067 32.7411 81.9409 32.2732 80.7641 31.8188C79.3417 31.3116 78.4624 30.571 78.4624 29.3377C78.4624 27.9731 79.5874 26.9601 81.2817 26.9601C82.1738 26.9601 82.8204 27.1682 83.2085 27.3893L82.8979 28.3118C82.6132 28.1554 82.0318 27.8956 81.2428 27.8956C80.0529 27.8956 79.6006 28.61 79.6006 29.2076C79.6006 30.0263 80.1303 30.429 81.3334 30.8963C82.8076 31.4678 83.5574 32.1825 83.5574 33.4684C83.5574 34.8192 82.5618 36.0012 80.5055 36.0012C79.6652 36.0012 78.7467 35.7418 78.2812 35.4303L78.5659 34.482Z" fill="#231F20"/>
<path d="M88.9776 32.1047C88.9904 31.3774 88.6801 30.2467 87.3999 30.2467C86.2489 30.2467 85.7446 31.3113 85.6543 32.1047H88.9776ZM85.6414 32.9225C85.6671 34.4688 86.6501 35.1045 87.788 35.1045C88.6027 35.1045 89.0939 34.9625 89.5205 34.7802L89.7148 35.5985C89.3139 35.7802 88.6284 36.0012 87.6325 36.0012C85.706 36.0012 84.5547 34.7156 84.5547 32.8192C84.5547 30.9224 85.6671 29.4284 87.4905 29.4284C89.5339 29.4284 90.0769 31.2338 90.0769 32.3903C90.0769 32.6239 90.0508 32.8062 90.038 32.9225H85.6414Z" fill="#231F20"/>
<path d="M92.4805 32.454H92.5062C92.6616 32.233 92.8817 31.9606 93.0626 31.7396L94.8988 29.5705H96.2695L93.8512 32.1555L96.6059 35.8574H95.222L93.0626 32.8444L92.4805 33.4934V35.8574H91.3555V26.6349H92.4805V32.454Z" fill="#231F20"/>
<path d="M102.583 34.1432C102.583 34.7931 102.596 35.3649 102.634 35.8583H101.626L101.561 34.8318H101.535C101.238 35.3384 100.579 36.0012 99.4664 36.0012C98.4834 36.0012 97.3066 35.4562 97.3066 33.2474V29.5713H98.4448V33.0531C98.4448 34.248 98.8068 35.0528 99.8413 35.0528C100.604 35.0528 101.135 34.5207 101.341 34.0141C101.406 33.8447 101.445 33.6372 101.445 33.4291V29.5713H102.583V34.1432Z" fill="#231F20"/>
<path d="M104.339 31.5315C104.339 30.7912 104.326 30.1549 104.287 29.5705H105.283L105.322 30.8041H105.373C105.658 29.9609 106.343 29.4275 107.106 29.4275C107.235 29.4275 107.326 29.4404 107.43 29.4662V30.5444C107.313 30.5185 107.197 30.5059 107.042 30.5059C106.24 30.5059 105.671 31.1161 105.516 31.9732C105.49 32.1297 105.464 32.3111 105.464 32.5063V35.8574H104.339V31.5315Z" fill="#231F20"/>
<path d="M108.49 29.5715H109.628V35.8585H108.49V29.5715ZM109.757 27.8048C109.77 28.194 109.486 28.506 109.033 28.506C108.632 28.506 108.348 28.194 108.348 27.8048C108.348 27.4021 108.645 27.0901 109.059 27.0901C109.486 27.0901 109.757 27.4021 109.757 27.8048Z" fill="#231F20"/>
<path d="M112.758 28.065V29.5713H114.387V30.4419H112.758V33.8321C112.758 34.6111 112.978 35.0528 113.612 35.0528C113.922 35.0528 114.103 35.027 114.271 34.9754L114.323 35.8328C114.103 35.9238 113.753 36.0012 113.314 36.0012C112.784 36.0012 112.357 35.8192 112.085 35.5078C111.762 35.17 111.646 34.6111 111.646 33.8708V30.4419H110.676V29.5713H111.646V28.4151L112.758 28.065Z" fill="#231F20"/>
<path d="M118.836 32.6501C117.594 32.6243 116.184 32.8453 116.184 34.0657C116.184 34.8063 116.676 35.1567 117.258 35.1567C118.073 35.1567 118.59 34.6369 118.771 34.1045C118.81 33.988 118.836 33.8582 118.836 33.7411V32.6501ZM119.935 34.3513C119.935 34.8976 119.961 35.4303 120.038 35.8586H119.004L118.913 35.0658H118.874C118.525 35.5595 117.853 36.0012 116.961 36.0012C115.693 36.0012 115.047 35.1045 115.047 34.1958C115.047 32.6759 116.391 31.8443 118.81 31.8582V31.7275C118.81 31.2083 118.668 30.2728 117.387 30.2728C116.805 30.2728 116.197 30.4548 115.758 30.7404L115.499 29.9872C116.016 29.6488 116.767 29.4287 117.555 29.4287C119.469 29.4287 119.935 30.7404 119.935 32.0002V34.3513Z" fill="#231F20"/>
<path d="M121.485 34.6892C121.822 34.9102 122.417 35.1438 122.986 35.1438C123.813 35.1438 124.202 34.7285 124.202 34.2087C124.202 33.6624 123.878 33.3642 123.037 33.0531C121.913 32.6498 121.382 32.0257 121.382 31.2725C121.382 30.2596 122.197 29.4284 123.542 29.4284C124.176 29.4284 124.731 29.61 125.081 29.8179L124.796 30.6491C124.55 30.4936 124.098 30.2857 123.516 30.2857C122.843 30.2857 122.468 30.6755 122.468 31.1434C122.468 31.6627 122.843 31.8966 123.658 32.208C124.744 32.6239 125.301 33.1693 125.301 34.1045C125.301 35.209 124.447 36.0012 122.96 36.0012C122.274 36.0012 121.641 35.8189 121.201 35.5592L121.485 34.6892Z" fill="#231F20"/>
<path d="M130.409 35.8584H129.283V27.1035H130.409V35.8584Z" fill="#231F20"/>
<path d="M132.335 31.2717C132.335 30.6227 132.322 30.0894 132.283 29.5705H133.292L133.356 30.6098H133.382C133.693 30.0122 134.417 29.4275 135.451 29.4275C136.318 29.4275 137.662 29.9467 137.662 32.1039V35.8574H136.525V32.233C136.525 31.2201 136.149 30.3759 135.076 30.3759C134.326 30.3759 133.744 30.9086 133.55 31.5444C133.499 31.6879 133.473 31.8828 133.473 32.0771V35.8574H132.335V31.2717Z" fill="#231F20"/>
<path d="M143.65 32.1305C143.65 31.987 143.637 31.7924 143.598 31.6501C143.43 30.9224 142.809 30.3242 141.955 30.3242C140.779 30.3242 140.081 31.3639 140.081 32.7537C140.081 34.027 140.701 35.0787 141.93 35.0787C142.693 35.0787 143.391 34.572 143.598 33.715C143.637 33.5591 143.65 33.4032 143.65 33.2216V32.1305ZM144.787 26.6358V34.2351C144.787 34.7931 144.801 35.43 144.84 35.8583H143.818L143.766 34.7673H143.741C143.391 35.4688 142.628 36.0012 141.607 36.0012C140.094 36.0012 138.93 34.7156 138.93 32.8062C138.917 30.7146 140.21 29.4284 141.736 29.4284C142.693 29.4284 143.339 29.8827 143.624 30.3897H143.65V26.6358H144.787Z" fill="#231F20"/>
<path d="M147.245 32.7275C147.245 34.1045 148.033 35.1438 149.146 35.1438C150.231 35.1438 151.047 34.1174 151.047 32.7017C151.047 31.6371 150.516 30.2861 149.172 30.2861C147.826 30.2861 147.245 31.5323 147.245 32.7275ZM152.211 32.663C152.211 34.9883 150.607 36.0012 149.094 36.0012C147.399 36.0012 146.094 34.7546 146.094 32.7669C146.094 30.6623 147.465 29.4287 149.197 29.4287C150.995 29.4287 152.211 30.7404 152.211 32.663Z" fill="#231F20"/>
<path d="M153.518 31.2717C153.518 30.6227 153.505 30.0894 153.467 29.5705H154.475L154.54 30.6098H154.566C154.876 30.0122 155.601 29.4275 156.635 29.4275C157.502 29.4275 158.847 29.9467 158.847 32.1039V35.8574H157.708V32.233C157.708 31.2201 157.333 30.3759 156.26 30.3759C155.511 30.3759 154.928 30.9086 154.734 31.5444C154.682 31.6879 154.657 31.8828 154.657 32.0771V35.8574H153.518V31.2717Z" fill="#231F20"/>
<path d="M164.536 32.1047C164.548 31.3774 164.238 30.2467 162.958 30.2467C161.807 30.2467 161.303 31.3113 161.212 32.1047H164.536ZM161.199 32.9225C161.225 34.4688 162.208 35.1045 163.346 35.1045C164.16 35.1045 164.652 34.9625 165.079 34.7802L165.273 35.5985C164.872 35.7802 164.186 36.0012 163.191 36.0012C161.264 36.0012 160.113 34.7156 160.113 32.8192C160.113 30.9224 161.225 29.4284 163.048 29.4284C165.092 29.4284 165.635 31.2338 165.635 32.3903C165.635 32.6239 165.609 32.8062 165.596 32.9225H161.199Z" fill="#231F20"/>
<path d="M166.761 34.6892C167.097 34.9102 167.692 35.1438 168.26 35.1438C169.089 35.1438 169.476 34.7285 169.476 34.2087C169.476 33.6624 169.153 33.3642 168.312 33.0531C167.188 32.6498 166.657 32.0257 166.657 31.2725C166.657 30.2596 167.472 29.4284 168.817 29.4284C169.45 29.4284 170.006 29.61 170.356 29.8179L170.071 30.6491C169.826 30.4936 169.373 30.2857 168.791 30.2857C168.118 30.2857 167.743 30.6755 167.743 31.1434C167.743 31.6627 168.118 31.8966 168.933 32.208C170.019 32.6239 170.576 33.1693 170.576 34.1045C170.576 35.209 169.721 36.0012 168.234 36.0012C167.549 36.0012 166.916 35.8189 166.477 35.5592L166.761 34.6892Z" fill="#231F20"/>
<path d="M171.904 29.5715H173.042V35.8585H171.904V29.5715ZM173.171 27.8048C173.184 28.194 172.9 28.506 172.447 28.506C172.046 28.506 171.762 28.194 171.762 27.8048C171.762 27.4021 172.059 27.0901 172.473 27.0901C172.9 27.0901 173.171 27.4021 173.171 27.8048Z" fill="#231F20"/>
<path d="M178.1 32.6501C176.858 32.6243 175.448 32.8453 175.448 34.0657C175.448 34.8063 175.94 35.1567 176.522 35.1567C177.336 35.1567 177.854 34.6369 178.035 34.1045C178.073 33.988 178.1 33.8582 178.1 33.7411V32.6501ZM179.198 34.3513C179.198 34.8976 179.224 35.4303 179.302 35.8586H178.268L178.177 35.0658H178.138C177.788 35.5595 177.116 36.0012 176.225 36.0012C174.957 36.0012 174.311 35.1045 174.311 34.1958C174.311 32.6759 175.655 31.8443 178.073 31.8582V31.7275C178.073 31.2083 177.931 30.2728 176.651 30.2728C176.069 30.2728 175.461 30.4548 175.022 30.7404L174.763 29.9872C175.28 29.6488 176.03 29.4287 176.819 29.4287C178.732 29.4287 179.198 30.7404 179.198 32.0002V34.3513Z" fill="#231F20"/>
</g>
<defs>
<clipPath id="clip0_3108_246">
<rect width="240" height="36" fill="white"/>
</clipPath>
</defs>
</svg>
