<svg width="19" height="19" viewBox="0 0 19 19" fill="none" xmlns="http://www.w3.org/2000/svg">
<path fill-rule="evenodd" clip-rule="evenodd" d="M17.9872 7.58336C18.4408 8.03702 18.4408 8.77255 17.9872 9.22621L10.3205 16.8928C9.26199 17.9514 7.54576 17.9514 6.48722 16.8928L2.10628 12.5119C1.04774 11.4534 1.04774 9.73714 2.10628 8.67859L9.77292 1.01196C10.2266 0.558298 10.9621 0.558297 11.4158 1.01196L12.511 2.10719C12.9775 2.57374 12.9105 3.26351 12.686 3.72573C12.5592 3.98688 12.4915 4.27568 12.4915 4.57147C12.4915 5.08496 12.6955 5.57742 13.0586 5.94051C13.4217 6.3036 13.9142 6.50759 14.4277 6.50759C14.7234 6.50759 15.0122 6.43991 15.2734 6.3131C15.7356 6.08866 16.4254 6.02158 16.8919 6.48813L17.9872 7.58336ZM17.4396 8.67859C17.5908 8.52737 17.5908 8.2822 17.4396 8.13098L16.3443 7.03574C16.206 6.89741 15.919 6.86055 15.6117 7.00976C15.2461 7.18726 14.8418 7.28203 14.4277 7.28203C13.7088 7.28203 13.0193 6.99646 12.511 6.48813C12.0027 5.9798 11.7171 5.29035 11.7171 4.57147C11.7171 4.15736 11.8119 3.753 11.9894 3.38746C12.1386 3.08017 12.1017 2.79314 11.9634 2.65481L10.8682 1.55958C10.7169 1.40835 10.4718 1.40835 10.3205 1.55958L2.6539 9.22621C1.8978 9.98231 1.8978 11.2082 2.6539 11.9643L7.03483 16.3452C7.79093 17.1013 9.01682 17.1013 9.77292 16.3452L17.4396 8.67859ZM10.497 14.0991C10.3458 14.2503 10.1006 14.2503 9.94936 14.0991L7.42469 11.5744C7.27347 11.4232 7.27347 11.178 7.42469 11.0268C7.57591 10.8756 7.82108 10.8756 7.97231 11.0268L10.497 13.5515C10.6482 13.7027 10.6482 13.9479 10.497 14.0991ZM6.93727 10.5394C6.78605 10.6906 6.54087 10.6906 6.38965 10.5394L4.69991 8.84966C4.54869 8.69844 4.54869 8.45326 4.69991 8.30204C4.85113 8.15082 5.0963 8.15082 5.24752 8.30204L6.93727 9.99178C7.08849 10.143 7.08849 10.3882 6.93727 10.5394Z" fill="#212225"/>
</svg>
