<svg width="105" height="105" viewBox="0 0 105 105" fill="none" xmlns="http://www.w3.org/2000/svg">
<g filter="url(#filter0_d_466_9665)">
<rect x="20" y="10" width="65" height="65" rx="10" fill="white" shape-rendering="crispEdges"/>
<path d="M45.6197 20.0027C45.2599 20.0285 44.8937 20.237 44.7067 20.5962L43.6401 22.6425L41.3075 20.849C40.9394 20.5659 40.4196 20.6026 40.1012 20.8445C39.7828 21.0864 39.6075 21.5776 39.7816 22.0081L41.866 27.162C42.1436 26.9759 42.4758 26.8664 42.8318 26.8664H43.0412L41.1826 22.2679L43.4756 24.0319C43.7717 24.2593 44.2013 24.1644 44.3739 23.8333L45.6709 21.3448L46.4621 23.6712C46.5856 24.0346 47.0136 24.1904 47.3418 23.9916L51.2499 21.6241L48.9716 26.8664H48.9739C49.4015 26.8664 49.7908 27.0299 50.0963 27.2892L52.5957 21.5434C52.7772 21.1261 52.6312 20.6432 52.3343 20.3837C52.0374 20.1242 51.5405 20.0456 51.1513 20.2813L47.3588 22.5774L46.7359 20.7506C46.5868 20.3126 46.1773 20.0337 45.7725 20.0028C45.7219 19.9988 45.6711 19.9993 45.6197 20.0027Z" fill="#3EA1DA"/>
<path d="M42.7402 31.049C41.1379 31.3614 39.7105 31.9081 38.7421 32.6578C34.087 36.2618 30.8686 42.997 30.8686 48.6804C30.8686 56.9906 37.5934 63.7139 45.9036 63.7139C49.5141 63.7139 52.8238 62.444 55.4139 60.3271C54.1624 58.5464 53.4211 56.3821 53.4211 54.0437C53.4211 49.4591 56.25 45.5304 60.2529 43.8981C59.0748 39.5678 56.4536 35.2824 53.0635 32.6578C52.0952 31.9082 50.6688 31.3614 49.067 31.049C49.0356 31.0507 49.0057 31.0583 48.9739 31.0583H42.8317C42.8004 31.0583 42.7711 31.0506 42.7402 31.049ZM37.0549 41.1466H40.8886C41.4511 41.1466 41.9424 41.264 42.3632 41.4987C42.784 41.7291 43.1095 42.0528 43.3398 42.4692C43.5746 42.8855 43.692 43.3751 43.692 43.9376C43.692 44.4957 43.5746 44.9853 43.3398 45.4061C43.1051 45.8224 42.7778 46.1479 42.357 46.3827C42.205 46.4668 42.0428 46.5349 41.8714 46.5883L44.0977 50.8136H42.4896L40.4278 46.7279H38.4101V50.8136H37.0549V41.1466ZM38.4101 42.4358V45.4386H40.9413C41.3355 45.4386 41.6524 45.3013 41.8916 45.0267C42.1307 44.7521 42.2507 44.3894 42.2507 43.9376C42.2507 43.4858 42.1307 43.1223 41.8916 42.8477C41.6524 42.5731 41.3355 42.4358 40.9413 42.4358H38.4101ZM48.282 43.8182C49.0217 43.8182 49.5925 44.0634 49.9955 44.5551C50.3986 45.0423 50.6006 45.7339 50.6006 46.6286V48.1296C50.6006 49.0111 50.3925 49.6957 49.9761 50.183C49.5598 50.6702 48.9727 50.9137 48.2152 50.9137C47.7856 50.9137 47.4117 50.8118 47.0928 50.608C46.8328 50.4383 46.6296 50.2116 46.4815 49.9301V53.6178H45.1255V43.9174H46.4815V44.8398C46.6673 44.5522 46.8928 44.3216 47.1587 44.1502C47.4953 43.9287 47.87 43.8182 48.282 43.8182ZM47.8367 45.0407C47.5488 45.0407 47.3027 45.0934 47.099 45.1997C46.8997 45.306 46.7468 45.4614 46.6405 45.6652C46.5342 45.8689 46.4815 46.1167 46.4815 46.4091V48.2894C46.4815 48.5862 46.5342 48.8383 46.6405 49.0465C46.7468 49.2547 46.8997 49.4144 47.099 49.5251C47.3027 49.6359 47.5488 49.6911 47.8367 49.6911C48.2841 49.6911 48.6294 49.5564 48.8731 49.2862C49.1211 49.0116 49.2454 48.6257 49.2454 48.1296V46.6348C49.2454 46.1299 49.1211 45.7379 48.8731 45.4588C48.6294 45.1798 48.2841 45.0407 47.8367 45.0407Z" fill="white"/>
<path d="M50.4982 30.1437C50.2136 30.6579 49.683 31.0153 49.067 31.049C50.6688 31.3614 52.0952 31.9082 53.0635 32.6578C56.4536 35.2824 59.0748 39.5678 60.2529 43.8981C60.6271 43.7455 61.0099 43.6104 61.4033 43.4993C60.1638 38.9439 57.4262 34.516 53.7997 31.7084C52.8963 31.009 51.756 30.4972 50.4982 30.1437ZM41.3074 30.1443C40.0498 30.4977 38.9099 31.0089 38.0067 31.7082C32.9981 35.5858 29.6677 42.5529 29.6677 48.6802C29.6677 57.6394 36.9444 64.9145 45.9036 64.9145C49.79 64.9145 53.3585 63.5439 56.1547 61.2624C55.8921 60.9636 55.6433 60.6533 55.4139 60.3271C52.8238 62.444 49.5141 63.7139 45.9036 63.7139C37.5934 63.7139 30.8686 56.9906 30.8686 48.6804C30.8686 42.997 34.087 36.2618 38.7421 32.6578C39.7105 31.9081 41.1379 31.3614 42.7402 31.049C42.1238 31.0158 41.5921 30.6586 41.3074 30.1443Z" fill="#3EA1DA"/>
<path d="M42.8317 28.0671C42.5186 28.0671 42.2849 28.2993 42.2849 28.6124V29.3114C42.2849 29.6245 42.5186 29.8567 42.8317 29.8567H48.9739C49.2871 29.8567 49.5216 29.6245 49.5216 29.3114V28.6124C49.5216 28.2993 49.2871 28.0671 48.9739 28.0671H42.8317Z" fill="white"/>
<path d="M42.8318 26.8664C41.8741 26.8664 41.084 27.6548 41.084 28.6124V29.3114C41.084 30.269 41.8741 31.0583 42.8317 31.0583H48.9739C49.9316 31.0583 50.7224 30.269 50.7224 29.3114V28.6124C50.7224 27.6548 49.9315 26.8664 48.9739 26.8664H42.8318ZM42.8317 28.0671H48.9739C49.2871 28.0671 49.5216 28.2993 49.5216 28.6124V29.3114C49.5216 29.6245 49.2871 29.8567 48.9739 29.8567H42.8317C42.5186 29.8567 42.2849 29.6245 42.2849 29.3114V28.6124C42.2849 28.2993 42.5186 28.0671 42.8317 28.0671Z" fill="#3EA1DA"/>
<path d="M37.0549 41.1466V50.8136H38.4101V46.7279H40.4278L42.4896 50.8136H44.0977L41.8714 46.5883C42.0428 46.5349 42.205 46.4668 42.357 46.3827C42.7778 46.1479 43.1051 45.8224 43.3398 45.4061C43.5746 44.9853 43.692 44.4957 43.692 43.9376C43.692 43.3751 43.5746 42.8855 43.3398 42.4692C43.1095 42.0528 42.784 41.7291 42.3632 41.4987C41.9424 41.264 41.4511 41.1466 40.8886 41.1466H37.0549ZM38.4101 42.4358H40.9413C41.3355 42.4358 41.6524 42.5731 41.8916 42.8477C42.1307 43.1223 42.2507 43.4858 42.2507 43.9376C42.2507 44.3894 42.1307 44.7521 41.8916 45.0267C41.6524 45.3013 41.3355 45.4386 40.9413 45.4386H38.4101V42.4358ZM48.282 43.8182C47.87 43.8182 47.4953 43.9287 47.1587 44.1502C46.8928 44.3216 46.6673 44.5522 46.4815 44.8398V43.9174H45.1255V53.6178H46.4815V49.9301C46.6296 50.2116 46.8328 50.4383 47.0928 50.608C47.4117 50.8118 47.7856 50.9137 48.2152 50.9137C48.9727 50.9137 49.5598 50.6702 49.9761 50.183C50.3925 49.6957 50.6006 49.0111 50.6006 48.1296V46.6286C50.6006 45.7339 50.3986 45.0423 49.9955 44.5551C49.5925 44.0634 49.0217 43.8182 48.282 43.8182ZM47.8367 45.0407C48.2841 45.0407 48.6294 45.1798 48.8731 45.4588C49.1211 45.7379 49.2454 46.1299 49.2454 46.6348V48.1296C49.2454 48.6257 49.1211 49.0116 48.8731 49.2862C48.6294 49.5564 48.2841 49.6911 47.8367 49.6911C47.5488 49.6911 47.3027 49.6359 47.099 49.5251C46.8997 49.4144 46.7468 49.2547 46.6405 49.0465C46.5342 48.8383 46.4815 48.5862 46.4815 48.2894V46.4091C46.4815 46.1167 46.5342 45.8689 46.6405 45.6652C46.7468 45.4614 46.8997 45.306 47.099 45.1997C47.3027 45.0934 47.5488 45.0407 47.8367 45.0407Z" fill="#3EA1DA"/>
<path d="M64.3767 44.2875C58.9819 44.2875 54.622 48.6489 54.622 54.0437C54.622 59.4385 58.9819 63.7984 64.3767 63.7984C69.7715 63.7984 74.1314 59.4385 74.1314 54.0437C74.1314 48.6489 69.7715 44.2875 64.3767 44.2875ZM64.3767 46.506C68.5324 46.506 71.9144 49.888 71.9144 54.0437C71.9144 58.1995 68.5324 61.5814 64.3767 61.5814C60.2209 61.5814 56.839 58.1995 56.839 54.0437C56.839 49.888 60.2209 46.506 64.3767 46.506Z" fill="white"/>
<path d="M64.3767 43.0866C58.3328 43.0866 53.4211 47.9999 53.4211 54.0437C53.4211 60.0876 58.3328 65 64.3767 65C70.4205 65 75.3322 60.0875 75.3322 54.0437C75.3322 47.9999 70.4205 43.0866 64.3767 43.0866ZM64.3767 44.2875C69.7715 44.2875 74.1314 48.6489 74.1314 54.0437C74.1314 59.4385 69.7715 63.7984 64.3767 63.7984C58.9819 63.7984 54.622 59.4385 54.622 54.0437C54.622 48.6489 58.9819 44.2875 64.3767 44.2875Z" fill="#3EA1DA"/>
<path d="M64.3767 47.7068C60.8699 47.7068 58.0398 50.537 58.0398 54.0437C58.0398 57.5504 60.8699 60.3806 64.3767 60.3806C67.8834 60.3806 70.7135 57.5504 70.7135 54.0437C70.7135 50.537 67.8834 47.7068 64.3767 47.7068Z" fill="white"/>
<path d="M64.3767 46.506C60.2209 46.506 56.839 49.888 56.839 54.0437C56.839 58.1995 60.2209 61.5814 64.3767 61.5814C68.5324 61.5814 71.9144 58.1995 71.9144 54.0437C71.9144 49.888 68.5324 46.506 64.3767 46.506ZM64.3767 47.7068C67.8834 47.7068 70.7135 50.537 70.7135 54.0437C70.7135 57.5504 67.8834 60.3806 64.3767 60.3806C60.8699 60.3806 58.0398 57.5504 58.0398 54.0437C58.0398 50.537 60.8699 47.7068 64.3767 47.7068Z" fill="#3EA1DA"/>
</g>
<defs>
<filter id="filter0_d_466_9665" x="0" y="0" width="105" height="105" filterUnits="userSpaceOnUse" color-interpolation-filters="sRGB">
<feFlood flood-opacity="0" result="BackgroundImageFix"/>
<feColorMatrix in="SourceAlpha" type="matrix" values="0 0 0 0 0 0 0 0 0 0 0 0 0 0 0 0 0 0 127 0" result="hardAlpha"/>
<feOffset dy="10"/>
<feGaussianBlur stdDeviation="10"/>
<feComposite in2="hardAlpha" operator="out"/>
<feColorMatrix type="matrix" values="0 0 0 0 0.827451 0 0 0 0 0.878431 0 0 0 0 0.929412 0 0 0 1 0"/>
<feBlend mode="normal" in2="BackgroundImageFix" result="effect1_dropShadow_466_9665"/>
<feBlend mode="normal" in="SourceGraphic" in2="effect1_dropShadow_466_9665" result="shape"/>
</filter>
</defs>
</svg>
