<svg width="80" height="80" viewBox="0 0 80 80" fill="none" xmlns="http://www.w3.org/2000/svg">
<rect width="80" height="80" rx="16" fill="#2E394D"/>
<path d="M47.6055 47.1448C47.6055 54.238 41.4153 59.9882 33.7793 59.9882C26.1433 59.9882 19.9531 54.238 19.9531 47.1448C19.9531 40.0517 26.1433 33.2799 33.7793 33.2799C41.4153 33.2799 47.6055 40.0517 47.6055 47.1448Z" fill="#2E394D"/>
<path fill-rule="evenodd" clip-rule="evenodd" d="M33.7793 57.9882C40.4522 57.9882 45.6055 52.9971 45.6055 47.1448C45.6055 41.0983 40.2536 35.2799 33.7793 35.2799C27.305 35.2799 21.9531 41.0983 21.9531 47.1448C21.9531 52.9971 27.1064 57.9882 33.7793 57.9882ZM33.7793 59.9882C41.4153 59.9882 47.6055 54.238 47.6055 47.1448C47.6055 40.0517 41.4153 33.2799 33.7793 33.2799C26.1433 33.2799 19.9531 40.0517 19.9531 47.1448C19.9531 54.238 26.1433 59.9882 33.7793 59.9882Z" fill="#EFF0F4"/>
<path d="M28.5753 32.3226C28.5753 31.1512 29.525 30.2016 30.6964 30.2016H36.8623C38.0337 30.2016 38.9834 31.1512 38.9834 32.3226C38.9834 33.4941 38.0337 34.4437 36.8623 34.4437H30.6964C29.5249 34.4437 28.5753 33.4941 28.5753 32.3226Z" fill="#2E394D"/>
<path fill-rule="evenodd" clip-rule="evenodd" d="M27.5753 32.3226C27.5753 30.5989 28.9727 29.2016 30.6964 29.2016H36.8623C38.586 29.2016 39.9834 30.5989 39.9834 32.3226C39.9834 34.0463 38.586 35.4437 36.8623 35.4437H30.6964C28.9727 35.4437 27.5753 34.0463 27.5753 32.3226ZM30.6964 31.2016C30.0772 31.2016 29.5753 31.7035 29.5753 32.3226C29.5753 32.9418 30.0772 33.4437 30.6964 33.4437H36.8623C37.4814 33.4437 37.9834 32.9418 37.9834 32.3226C37.9834 31.7035 37.4814 31.2016 36.8623 31.2016H30.6964Z" fill="#EFF0F4"/>
<path d="M41.0213 24.194L38.6754 29.5997C38.5168 29.9651 38.1565 30.2016 37.7581 30.2016H29.6549C29.2507 30.2016 28.8863 29.9582 28.7313 29.5849L26.4649 24.1251C26.1222 23.2993 26.9526 22.4731 27.7766 22.8201L30.6003 24.009C31.1011 24.2199 31.6786 23.9923 31.9009 23.4964L32.7498 21.6027C33.0823 20.861 34.1139 20.8048 34.525 21.5061L35.7671 23.6249C36.0226 24.0608 36.563 24.2376 37.0267 24.0371L39.707 22.878C40.5391 22.5182 41.3821 23.3624 41.0213 24.194Z" fill="#2E394D"/>
<path fill-rule="evenodd" clip-rule="evenodd" d="M31.8373 21.1937C32.5023 19.7102 34.5656 19.5978 35.3877 21.0004L36.6298 23.1192L39.3101 21.9602C40.9742 21.2406 42.6604 22.9289 41.9386 24.5921L39.5928 29.9978C39.2756 30.7287 38.5548 31.2016 37.7581 31.2016H29.6549C28.8465 31.2016 28.1177 30.7149 27.8077 29.9683L25.5414 24.5085C24.8558 22.8569 26.5166 21.2045 28.1647 21.8984L30.9884 23.0874L31.8373 21.1937ZM34.9044 24.1307L33.6623 22.0118L32.8134 23.9055C32.3689 24.8971 31.2139 25.3524 30.2123 24.9307L27.3886 23.7417L29.6549 29.2016L37.7581 29.2016L40.1039 23.7959L37.4237 24.9549C36.4963 25.356 35.4154 25.0023 34.9044 24.1307Z" fill="#EFF0F4"/>
<path d="M60.0476 49.9882C60.0476 55.511 55.5704 59.9882 50.0476 59.9882C44.5247 59.9882 40.0476 55.511 40.0476 49.9882C40.0476 44.4653 44.5247 39.9882 50.0476 39.9882C55.5704 39.9882 60.0476 44.4653 60.0476 49.9882Z" fill="#2E394D"/>
<path fill-rule="evenodd" clip-rule="evenodd" d="M50.0476 57.9882C54.4659 57.9882 58.0476 54.4065 58.0476 49.9882C58.0476 45.5699 54.4659 41.9882 50.0476 41.9882C45.6293 41.9882 42.0476 45.5699 42.0476 49.9882C42.0476 54.4065 45.6293 57.9882 50.0476 57.9882ZM50.0476 59.9882C55.5704 59.9882 60.0476 55.511 60.0476 49.9882C60.0476 44.4653 55.5704 39.9882 50.0476 39.9882C44.5247 39.9882 40.0476 44.4653 40.0476 49.9882C40.0476 55.511 44.5247 59.9882 50.0476 59.9882Z" fill="#EFF0F4"/>
<path d="M54.0476 49.9882C54.0476 52.1973 52.2567 53.9882 50.0476 53.9882C47.8384 53.9882 46.0476 52.1973 46.0476 49.9882C46.0476 47.779 47.8384 45.9882 50.0476 45.9882C52.2567 45.9882 54.0476 47.779 54.0476 49.9882Z" fill="#2E394D"/>
<path fill-rule="evenodd" clip-rule="evenodd" d="M50.0476 51.9882C51.1521 51.9882 52.0476 51.0927 52.0476 49.9882C52.0476 48.8836 51.1521 47.9882 50.0476 47.9882C48.943 47.9882 48.0476 48.8836 48.0476 49.9882C48.0476 51.0927 48.943 51.9882 50.0476 51.9882ZM50.0476 53.9882C52.2567 53.9882 54.0476 52.1973 54.0476 49.9882C54.0476 47.779 52.2567 45.9882 50.0476 45.9882C47.8384 45.9882 46.0476 47.779 46.0476 49.9882C46.0476 52.1973 47.8384 53.9882 50.0476 53.9882Z" fill="#EFF0F4"/>
<path d="M34.3842 44.6982C34.5508 44.4382 34.7808 44.2282 35.0742 44.0682C35.3675 43.9082 35.7108 43.8282 36.1042 43.8282C36.5642 43.8282 36.9808 43.9448 37.3542 44.1782C37.7275 44.4115 38.0208 44.7448 38.2342 45.1782C38.4542 45.6115 38.5642 46.1148 38.5642 46.6882C38.5642 47.2615 38.4542 47.7682 38.2342 48.2082C38.0208 48.6415 37.7275 48.9782 37.3542 49.2182C36.9808 49.4515 36.5642 49.5682 36.1042 49.5682C35.7175 49.5682 35.3742 49.4882 35.0742 49.3282C34.7808 49.1682 34.5508 48.9615 34.3842 48.7082V52.1482H32.6742V43.9082H34.3842V44.6982ZM36.8242 46.6882C36.8242 46.2615 36.7042 45.9282 36.4642 45.6882C36.2308 45.4415 35.9408 45.3182 35.5942 45.3182C35.2542 45.3182 34.9642 45.4415 34.7242 45.6882C34.4908 45.9348 34.3742 46.2715 34.3742 46.6982C34.3742 47.1248 34.4908 47.4615 34.7242 47.7082C34.9642 47.9548 35.2542 48.0782 35.5942 48.0782C35.9342 48.0782 36.2242 47.9548 36.4642 47.7082C36.7042 47.4548 36.8242 47.1148 36.8242 46.6882Z" fill="#EFF0F4"/>
<path d="M29.7307 49.4882L28.2707 46.8382H27.8607V49.4882H26.1507V42.4682H29.0207C29.5741 42.4682 30.0441 42.5648 30.4307 42.7582C30.8241 42.9515 31.1174 43.2182 31.3107 43.5582C31.5041 43.8915 31.6007 44.2648 31.6007 44.6782C31.6007 45.1448 31.4674 45.5615 31.2007 45.9282C30.9407 46.2948 30.5541 46.5548 30.0407 46.7082L31.6607 49.4882H29.7307ZM27.8607 45.6282H28.9207C29.2341 45.6282 29.4674 45.5515 29.6207 45.3982C29.7807 45.2448 29.8607 45.0282 29.8607 44.7482C29.8607 44.4815 29.7807 44.2715 29.6207 44.1182C29.4674 43.9648 29.2341 43.8882 28.9207 43.8882H27.8607V45.6282Z" fill="#EFF0F4"/>
</svg>
