<svg width="190" height="75" viewBox="0 0 190 75" fill="none" xmlns="http://www.w3.org/2000/svg">
<rect x="0.246094" width="189" height="75" rx="16" fill="#42A5DC"/>
<path d="M45.866 15.0027C45.5062 15.0285 45.1401 15.237 44.953 15.5962L43.8864 17.6425L41.5538 15.849C41.1857 15.5659 40.666 15.6026 40.3476 15.8445C40.0291 16.0864 39.8538 16.5776 40.028 17.0081L42.1123 22.162C42.39 21.9759 42.7222 21.8664 43.0781 21.8664H43.2875L41.4289 17.2679L43.7219 19.0319C44.018 19.2593 44.4476 19.1644 44.6202 18.8333L45.9172 16.3448L46.7085 18.6712C46.832 19.0346 47.2599 19.1904 47.5881 18.9916L51.4962 16.6241L49.2179 21.8664H49.2202C49.6478 21.8664 50.0371 22.0299 50.3427 22.2892L52.8421 16.5434C53.0235 16.1261 52.8776 15.6432 52.5806 15.3837C52.2837 15.1242 51.7869 15.0456 51.3977 15.2813L47.6052 17.5774L46.9823 15.7506C46.8331 15.3126 46.4236 15.0337 46.0188 15.0028C45.9682 14.9988 45.9174 14.9993 45.866 15.0027Z" fill="white"/>
<path d="M42.9865 26.049C41.3842 26.3614 39.9568 26.9081 38.9885 27.6578C34.3333 31.2618 31.1149 37.997 31.1149 43.6804C31.1149 51.9906 37.8397 58.7139 46.1499 58.7139C49.7604 58.7139 53.0701 57.444 55.6603 55.3271C54.4087 53.5464 53.6675 51.3821 53.6675 49.0437C53.6675 44.4591 56.4963 40.5304 60.4992 38.8981C59.3212 34.5678 56.6999 30.2824 53.3098 27.6578C52.3415 26.9082 50.9152 26.3614 49.3133 26.049C49.2819 26.0507 49.2521 26.0583 49.2202 26.0583H43.0781C43.0468 26.0583 43.0175 26.0506 42.9865 26.049ZM37.3013 36.1466H41.1349C41.6974 36.1466 42.1888 36.264 42.6095 36.4987C43.0303 36.7291 43.3559 37.0528 43.5862 37.4692C43.8209 37.8855 43.9384 38.3751 43.9384 38.9376C43.9384 39.4957 43.8209 39.9853 43.5862 40.4061C43.3514 40.8224 43.0241 41.1479 42.6033 41.3827C42.4514 41.4668 42.2892 41.5349 42.1177 41.5883L44.3441 45.8136H42.736L40.6741 41.7279H38.6565V45.8136H37.3013V36.1466ZM38.6565 37.4358V40.4386H41.1876C41.5819 40.4386 41.8987 40.3013 42.1379 40.0267C42.3771 39.7521 42.4971 39.3894 42.4971 38.9376C42.4971 38.4858 42.3771 38.1223 42.1379 37.8477C41.8987 37.5731 41.5819 37.4358 41.1876 37.4358H38.6565ZM48.5283 38.8182C49.268 38.8182 49.8388 39.0634 50.2419 39.5551C50.6449 40.0423 50.8469 40.7339 50.8469 41.6286V43.1296C50.8469 44.0111 50.6388 44.6957 50.2225 45.183C49.8061 45.6702 49.219 45.9137 48.4616 45.9137C48.0319 45.9137 47.658 45.8118 47.3391 45.608C47.0792 45.4383 46.876 45.2116 46.7278 44.9301V48.6178H45.3719V38.9174H46.7278V39.8398C46.9136 39.5522 47.1391 39.3216 47.4051 39.1502C47.7417 38.9287 48.1164 38.8182 48.5283 38.8182ZM48.083 40.0407C47.7951 40.0407 47.5491 40.0934 47.3453 40.1997C47.146 40.306 46.9932 40.4614 46.8869 40.6652C46.7806 40.8689 46.7278 41.1167 46.7278 41.4091V43.2894C46.7278 43.5862 46.7806 43.8383 46.8869 44.0465C46.9932 44.2547 47.146 44.4144 47.3453 44.5251C47.5491 44.6359 47.7951 44.6911 48.083 44.6911C48.5304 44.6911 48.8758 44.5564 49.1194 44.2862C49.3674 44.0116 49.4917 43.6257 49.4917 43.1296V41.6348C49.4917 41.1299 49.3674 40.7379 49.1194 40.4588C48.8758 40.1798 48.5304 40.0407 48.083 40.0407Z" fill="#42A5DC"/>
<path d="M50.7445 25.1437C50.46 25.6579 49.9293 26.0153 49.3133 26.049C50.9152 26.3614 52.3415 26.9082 53.3098 27.6578C56.6999 30.2824 59.3212 34.5678 60.4992 38.8981C60.8734 38.7455 61.2562 38.6104 61.6496 38.4993C60.4101 33.9439 57.6725 29.516 54.046 26.7084C53.1426 26.009 52.0023 25.4972 50.7445 25.1437ZM41.5538 25.1443C40.2962 25.4977 39.1562 26.0089 38.2531 26.7082C33.2444 30.5858 29.9141 37.5529 29.9141 43.6802C29.9141 52.6394 37.1907 59.9145 46.1499 59.9145C50.0363 59.9145 53.6049 58.5439 56.4011 56.2624C56.1384 55.9636 55.8896 55.6533 55.6603 55.3271C53.0701 57.444 49.7604 58.7139 46.1499 58.7139C37.8397 58.7139 31.1149 51.9906 31.1149 43.6804C31.1149 37.997 34.3333 31.2618 38.9885 27.6578C39.9568 26.9081 41.3842 26.3614 42.9865 26.049C42.3702 26.0158 41.8384 25.6586 41.5538 25.1443Z" fill="white"/>
<path d="M43.0781 23.0671C42.7649 23.0671 42.5312 23.2993 42.5312 23.6124V24.3114C42.5312 24.6245 42.7649 24.8567 43.0781 24.8567H49.2203C49.5334 24.8567 49.7679 24.6245 49.7679 24.3114V23.6124C49.7679 23.2993 49.5334 23.0671 49.2203 23.0671H43.0781Z" fill="#42A5DC"/>
<path d="M43.0781 21.8664C42.1204 21.8664 41.3304 22.6548 41.3304 23.6124V24.3114C41.3304 25.269 42.1204 26.0583 43.0781 26.0583H49.2202C50.1779 26.0583 50.9687 25.269 50.9687 24.3114V23.6124C50.9687 22.6548 50.1779 21.8664 49.2202 21.8664H43.0781ZM43.0781 23.0671H49.2203C49.5334 23.0671 49.7679 23.2993 49.7679 23.6124V24.3114C49.7679 24.6245 49.5334 24.8567 49.2203 24.8567H43.0781C42.7649 24.8567 42.5312 24.6245 42.5312 24.3114V23.6124C42.5312 23.2993 42.7649 23.0671 43.0781 23.0671Z" fill="white"/>
<path d="M37.3013 36.1466V45.8136H38.6565V41.7279H40.6741L42.736 45.8136H44.3441L42.1177 41.5883C42.2892 41.5349 42.4514 41.4668 42.6033 41.3827C43.0241 41.1479 43.3514 40.8224 43.5862 40.4061C43.8209 39.9853 43.9384 39.4957 43.9384 38.9376C43.9384 38.3751 43.8209 37.8855 43.5862 37.4692C43.3559 37.0528 43.0303 36.7291 42.6095 36.4987C42.1888 36.264 41.6974 36.1466 41.1349 36.1466H37.3013ZM38.6565 37.4358H41.1876C41.5819 37.4358 41.8987 37.5731 42.1379 37.8477C42.3771 38.1223 42.4971 38.4858 42.4971 38.9376C42.4971 39.3894 42.3771 39.7521 42.1379 40.0267C41.8987 40.3013 41.5819 40.4386 41.1876 40.4386H38.6565V37.4358ZM48.5283 38.8182C48.1164 38.8182 47.7417 38.9287 47.4051 39.1502C47.1391 39.3216 46.9136 39.5522 46.7278 39.8398V38.9174H45.3719V48.6178H46.7278V44.9301C46.876 45.2116 47.0792 45.4383 47.3391 45.608C47.658 45.8118 48.0319 45.9137 48.4616 45.9137C49.219 45.9137 49.8061 45.6702 50.2225 45.183C50.6388 44.6957 50.8469 44.0111 50.8469 43.1296V41.6286C50.8469 40.7339 50.6449 40.0423 50.2419 39.5551C49.8388 39.0634 49.268 38.8182 48.5283 38.8182ZM48.083 40.0407C48.5304 40.0407 48.8758 40.1798 49.1194 40.4588C49.3674 40.7379 49.4917 41.1299 49.4917 41.6348V43.1296C49.4917 43.6257 49.3674 44.0116 49.1194 44.2862C48.8758 44.5564 48.5304 44.6911 48.083 44.6911C47.7951 44.6911 47.5491 44.6359 47.3453 44.5251C47.146 44.4144 46.9932 44.2547 46.8869 44.0465C46.7806 43.8383 46.7278 43.5862 46.7278 43.2894V41.4091C46.7278 41.1167 46.7806 40.8689 46.8869 40.6652C46.9932 40.4614 47.146 40.306 47.3453 40.1997C47.5491 40.0934 47.7951 40.0407 48.083 40.0407Z" fill="white"/>
<path d="M64.623 39.2875C59.2282 39.2875 54.8683 43.6489 54.8683 49.0437C54.8683 54.4385 59.2282 58.7984 64.623 58.7984C70.0178 58.7984 74.3777 54.4385 74.3777 49.0437C74.3777 43.6489 70.0178 39.2875 64.623 39.2875ZM64.623 41.506C68.7787 41.506 72.1607 44.888 72.1607 49.0437C72.1607 53.1995 68.7787 56.5814 64.623 56.5814C60.4673 56.5814 57.0853 53.1995 57.0853 49.0437C57.0853 44.888 60.4673 41.506 64.623 41.506Z" fill="#42A5DC"/>
<path d="M64.623 38.0866C58.5792 38.0866 53.6675 42.9999 53.6675 49.0437C53.6675 55.0876 58.5792 60 64.623 60C70.6668 60 75.5785 55.0875 75.5785 49.0437C75.5785 42.9999 70.6668 38.0866 64.623 38.0866ZM64.623 39.2875C70.0178 39.2875 74.3777 43.6489 74.3777 49.0437C74.3777 54.4385 70.0178 58.7984 64.623 58.7984C59.2282 58.7984 54.8683 54.4385 54.8683 49.0437C54.8683 43.6489 59.2282 39.2875 64.623 39.2875Z" fill="white"/>
<path d="M64.623 42.7068C61.1163 42.7068 58.2861 45.537 58.2861 49.0437C58.2861 52.5504 61.1163 55.3806 64.623 55.3806C68.1297 55.3806 70.9599 52.5504 70.9599 49.0437C70.9599 45.537 68.1297 42.7068 64.623 42.7068Z" fill="#42A5DC"/>
<path d="M64.623 41.506C60.4673 41.506 57.0853 44.888 57.0853 49.0437C57.0853 53.1995 60.4673 56.5814 64.623 56.5814C68.7787 56.5814 72.1607 53.1995 72.1607 49.0437C72.1607 44.888 68.7787 41.506 64.623 41.506ZM64.623 42.7068C68.1297 42.7068 70.9599 45.537 70.9599 49.0437C70.9599 52.5504 68.1297 55.3806 64.623 55.3806C61.1163 55.3806 58.2861 52.5504 58.2861 49.0437C58.2861 45.537 61.1163 42.7068 64.623 42.7068Z" fill="white"/>
<path d="M106.222 23.812V33.5H104.948V26.276L101.728 33.5H100.832L97.5981 26.262V33.5H96.3241V23.812H97.6961L101.28 31.82L104.864 23.812H106.222ZM111.729 33.626C111.01 33.626 110.357 33.4627 109.769 33.136C109.19 32.8093 108.733 32.3473 108.397 31.75C108.07 31.1433 107.907 30.4433 107.907 29.65C107.907 28.866 108.075 28.1753 108.411 27.578C108.756 26.9713 109.223 26.5093 109.811 26.192C110.399 25.8653 111.057 25.702 111.785 25.702C112.513 25.702 113.171 25.8653 113.759 26.192C114.347 26.5093 114.809 26.9667 115.145 27.564C115.49 28.1613 115.663 28.8567 115.663 29.65C115.663 30.4433 115.485 31.1433 115.131 31.75C114.785 32.3473 114.314 32.8093 113.717 33.136C113.119 33.4627 112.457 33.626 111.729 33.626ZM111.729 32.506C112.186 32.506 112.615 32.3987 113.017 32.184C113.418 31.9693 113.74 31.6473 113.983 31.218C114.235 30.7887 114.361 30.266 114.361 29.65C114.361 29.034 114.239 28.5113 113.997 28.082C113.754 27.6527 113.437 27.3353 113.045 27.13C112.653 26.9153 112.228 26.808 111.771 26.808C111.304 26.808 110.875 26.9153 110.483 27.13C110.1 27.3353 109.792 27.6527 109.559 28.082C109.325 28.5113 109.209 29.034 109.209 29.65C109.209 30.2753 109.321 30.8027 109.545 31.232C109.778 31.6613 110.086 31.9833 110.469 32.198C110.851 32.4033 111.271 32.506 111.729 32.506ZM121.076 25.688C122.009 25.688 122.765 25.9727 123.344 26.542C123.922 27.102 124.212 27.914 124.212 28.978V33.5H122.952V29.16C122.952 28.3947 122.76 27.8113 122.378 27.41C121.995 26.9993 121.472 26.794 120.81 26.794C120.138 26.794 119.601 27.004 119.2 27.424C118.808 27.844 118.612 28.4553 118.612 29.258V33.5H117.338V25.828H118.612V26.92C118.864 26.528 119.204 26.2247 119.634 26.01C120.072 25.7953 120.553 25.688 121.076 25.688ZM133.293 29.37C133.293 29.6127 133.279 29.8693 133.251 30.14H127.119C127.166 30.896 127.422 31.4887 127.889 31.918C128.365 32.338 128.939 32.548 129.611 32.548C130.162 32.548 130.619 32.422 130.983 32.17C131.356 31.9087 131.618 31.5633 131.767 31.134H133.139C132.934 31.8713 132.523 32.4733 131.907 32.94C131.291 33.3973 130.526 33.626 129.611 33.626C128.883 33.626 128.23 33.4627 127.651 33.136C127.082 32.8093 126.634 32.3473 126.307 31.75C125.98 31.1433 125.817 30.4433 125.817 29.65C125.817 28.8567 125.976 28.1613 126.293 27.564C126.61 26.9667 127.054 26.5093 127.623 26.192C128.202 25.8653 128.864 25.702 129.611 25.702C130.339 25.702 130.983 25.8607 131.543 26.178C132.103 26.4953 132.532 26.934 132.831 27.494C133.139 28.0447 133.293 28.67 133.293 29.37ZM131.977 29.104C131.977 28.6187 131.87 28.2033 131.655 27.858C131.44 27.5033 131.146 27.2373 130.773 27.06C130.409 26.8733 130.003 26.78 129.555 26.78C128.911 26.78 128.36 26.9853 127.903 27.396C127.455 27.8067 127.198 28.376 127.133 29.104H131.977ZM141.582 25.828L136.962 37.112H135.646L137.158 33.416L134.064 25.828H135.478L137.886 32.044L140.266 25.828H141.582ZM106.222 41.812V51.5H104.948V44.276L101.728 51.5H100.832L97.5981 44.262V51.5H96.3241V41.812H97.6961L101.28 49.82L104.864 41.812H106.222ZM107.907 47.636C107.907 46.852 108.065 46.166 108.383 45.578C108.7 44.9807 109.134 44.5187 109.685 44.192C110.245 43.8653 110.865 43.702 111.547 43.702C112.219 43.702 112.802 43.8467 113.297 44.136C113.791 44.4253 114.16 44.7893 114.403 45.228V43.828H115.691V51.5H114.403V50.072C114.151 50.52 113.773 50.8933 113.269 51.192C112.774 51.4813 112.195 51.626 111.533 51.626C110.851 51.626 110.235 51.458 109.685 51.122C109.134 50.786 108.7 50.3147 108.383 49.708C108.065 49.1013 107.907 48.4107 107.907 47.636ZM114.403 47.65C114.403 47.0713 114.286 46.5673 114.053 46.138C113.819 45.7087 113.502 45.382 113.101 45.158C112.709 44.9247 112.275 44.808 111.799 44.808C111.323 44.808 110.889 44.92 110.497 45.144C110.105 45.368 109.792 45.6947 109.559 46.124C109.325 46.5533 109.209 47.0573 109.209 47.636C109.209 48.224 109.325 48.7373 109.559 49.176C109.792 49.6053 110.105 49.9367 110.497 50.17C110.889 50.394 111.323 50.506 111.799 50.506C112.275 50.506 112.709 50.394 113.101 50.17C113.502 49.9367 113.819 49.6053 114.053 49.176C114.286 48.7373 114.403 48.2287 114.403 47.65ZM119.118 45.074C119.342 44.6353 119.659 44.2947 120.07 44.052C120.49 43.8093 120.998 43.688 121.596 43.688V45.004H121.26C119.832 45.004 119.118 45.7787 119.118 47.328V51.5H117.844V43.828H119.118V45.074ZM127.35 51.5L124.34 48.112V51.5H123.066V41.14H124.34V47.23L127.294 43.828H129.072L125.46 47.65L129.086 51.5H127.35ZM137.271 47.37C137.271 47.6127 137.257 47.8693 137.229 48.14H131.097C131.144 48.896 131.401 49.4887 131.867 49.918C132.343 50.338 132.917 50.548 133.589 50.548C134.14 50.548 134.597 50.422 134.961 50.17C135.335 49.9087 135.596 49.5633 135.745 49.134H137.117C136.912 49.8713 136.501 50.4733 135.885 50.94C135.269 51.3973 134.504 51.626 133.589 51.626C132.861 51.626 132.208 51.4627 131.629 51.136C131.06 50.8093 130.612 50.3473 130.285 49.75C129.959 49.1433 129.795 48.4433 129.795 47.65C129.795 46.8567 129.954 46.1613 130.271 45.564C130.589 44.9667 131.032 44.5093 131.601 44.192C132.18 43.8653 132.843 43.702 133.589 43.702C134.317 43.702 134.961 43.8607 135.521 44.178C136.081 44.4953 136.511 44.934 136.809 45.494C137.117 46.0447 137.271 46.67 137.271 47.37ZM135.955 47.104C135.955 46.6187 135.848 46.2033 135.633 45.858C135.419 45.5033 135.125 45.2373 134.751 45.06C134.387 44.8733 133.981 44.78 133.533 44.78C132.889 44.78 132.339 44.9853 131.881 45.396C131.433 45.8067 131.177 46.376 131.111 47.104H135.955ZM140.507 44.878V49.4C140.507 49.7733 140.586 50.0393 140.745 50.198C140.904 50.3473 141.179 50.422 141.571 50.422H142.509V51.5H141.361C140.652 51.5 140.12 51.3367 139.765 51.01C139.41 50.6833 139.233 50.1467 139.233 49.4V44.878H138.239V43.828H139.233V41.896H140.507V43.828H142.509V44.878H140.507Z" fill="white"/>
</svg>
