<svg width="30" height="30" viewBox="0 0 30 30" fill="none" xmlns="http://www.w3.org/2000/svg">
<path d="M29 12.432C29 10.9673 28.4124 9.56255 27.3663 8.52686C26.3204 7.49115 24.9017 6.90931 23.4223 6.90931H6.68933C5.21004 6.90931 3.79143 7.49115 2.74541 8.52686C1.6994 9.56255 1.11166 10.9673 1.11166 12.432C9.60366 20.716 20.508 20.716 29 12.432ZM29 12.432L27.6054 23.4773C27.3974 24.9806 26.6563 26.3614 25.5142 27.3732C24.3724 28.3849 22.9043 28.9616 21.3724 29H8.62742C7.09555 28.9616 5.62744 28.3849 4.48554 27.3732C3.34362 26.3614 2.60244 24.9806 2.39442 23.4773L1 12.432M9.49179 6.52268C9.49179 5.05797 10.0794 3.65325 11.1254 2.61755C12.1715 1.58184 13.5902 1 15.0695 1C16.5487 1 17.9675 1.58184 19.0135 2.61755C20.0594 3.65325 20.6472 5.05797 20.6472 6.52268" stroke="#A5A5A7" stroke-width="2" stroke-linecap="round" stroke-linejoin="round"/>
</svg>
