<svg width="31" height="30" viewBox="0 0 31 30" fill="none" xmlns="http://www.w3.org/2000/svg">
<path d="M21.1 6.6C21.1 3.9596 21.1 2.6408 20.2796 1.8204C19.4592 1 18.1404 1 15.5 1C12.8596 1 11.5408 1 10.7204 1.8204C9.9 2.6408 9.9 3.9596 9.9 6.6M1.5 17.8C1.5 12.5206 1.5 9.8802 3.1408 8.2408C4.7816 6.6014 7.4206 6.6 12.7 6.6H18.3C23.5794 6.6 26.2198 6.6 27.8592 8.2408C29.4986 9.8816 29.5 12.5206 29.5 17.8C29.5 23.0794 29.5 25.7198 27.8592 27.3592C26.2184 28.9986 23.5794 29 18.3 29H12.7C7.4206 29 4.7802 29 3.1408 27.3592C1.5014 25.7184 1.5 23.0794 1.5 17.8Z" stroke="#2E394D" stroke-width="1.5"/>
<path d="M1.5 15C12.5438 20.6179 18.6736 20.5796 29.5 15" stroke="#2E394D" stroke-width="1.3"/>
<path d="M10.5364 10.1635L10.8899 9.80995L10.5364 10.1635C10.7052 10.3323 10.8 10.5612 10.8 10.7999C10.8 11.0386 10.7052 11.2675 10.5364 11.4363C10.3676 11.6051 10.1387 11.6999 9.9 11.6999C9.66131 11.6999 9.43239 11.6051 9.2636 11.4363L8.91005 11.7899L9.2636 11.4363C9.09482 11.2675 9 11.0386 9 10.7999C9 10.5612 9.09482 10.3323 9.2636 10.1635C9.43239 9.99472 9.66131 9.8999 9.9 9.8999C10.1387 9.8999 10.3676 9.99472 10.5364 10.1635ZM22 10.7999C22 11.0386 21.9052 11.2675 21.7364 11.4363C21.5676 11.6051 21.3387 11.6999 21.1 11.6999C20.8613 11.6999 20.6324 11.6051 20.4636 11.4363C20.2948 11.2675 20.2 11.0386 20.2 10.7999C20.2 10.5612 20.2948 10.3323 20.4636 10.1635C20.6324 9.99472 20.8613 9.8999 21.1 9.8999C21.3387 9.8999 21.5676 9.99472 21.7364 10.1635C21.9052 10.3323 22 10.5612 22 10.7999Z" stroke="#2E394D"/>
</svg>
