<svg width="29" height="28" viewBox="0 0 29 28" fill="none" xmlns="http://www.w3.org/2000/svg">
<path fill-rule="evenodd" clip-rule="evenodd" d="M14.4993 5.19588C13.1978 5.19588 11.9497 5.71289 11.0294 6.63317C10.1091 7.55345 9.5921 8.80162 9.5921 10.1031C9.5921 11.4046 10.1091 12.6527 11.0294 13.573C11.9497 14.4933 13.1978 15.0103 14.4993 15.0103C15.8008 15.0103 17.049 14.4933 17.9692 13.573C18.8895 12.6527 19.4065 11.4046 19.4065 10.1031C19.4065 8.80162 18.8895 7.55345 17.9692 6.63317C17.049 5.71289 15.8008 5.19588 14.4993 5.19588ZM12.4582 8.06196C12.9995 7.52062 13.7337 7.2165 14.4993 7.2165C15.2649 7.2165 15.9991 7.52062 16.5405 8.06196C17.0818 8.60331 17.3859 9.33752 17.3859 10.1031C17.3859 10.8687 17.0818 11.6029 16.5405 12.1442C15.9991 12.6856 15.2649 12.9897 14.4993 12.9897C13.7337 12.9897 12.9995 12.6856 12.4582 12.1442C11.9168 11.6029 11.6127 10.8687 11.6127 10.1031C11.6127 9.33752 11.9168 8.60331 12.4582 8.06196Z" fill="#2E394D"/>
<path fill-rule="evenodd" clip-rule="evenodd" d="M14.5 0C6.76782 0 0.5 6.26782 0.5 14C0.5 17.3574 1.68176 20.4388 3.65202 22.8508C3.66898 22.8733 3.68697 22.8952 3.706 22.9164C6.27384 26.0215 10.1558 28 14.5 28C18.8447 28 22.727 26.0211 25.2948 22.9154C25.3132 22.8948 25.3306 22.8736 25.3471 22.8519C27.3179 20.4397 28.5 17.358 28.5 14C28.5 6.26782 22.2322 0 14.5 0ZM24.4226 20.7141C25.7209 18.799 26.4794 16.4881 26.4794 14C26.4794 7.38377 21.1162 2.02062 14.5 2.02062C7.88377 2.02062 2.52062 7.38377 2.52062 14C2.52062 16.488 3.27903 18.7988 4.57728 20.7139C4.99639 20.3588 5.56601 19.9367 6.29896 19.5177C8.06174 18.5101 10.7436 17.5361 14.4993 17.5361C18.255 17.5361 20.9372 18.5101 22.7002 19.5177C23.4335 19.9367 24.0034 20.359 24.4226 20.7141ZM5.84809 22.2857C8.02864 24.562 11.0987 25.9794 14.5 25.9794C17.9012 25.9794 20.9712 24.5621 23.1518 22.2859C22.8169 21.9988 22.3366 21.6371 21.6977 21.272C20.2263 20.4311 17.888 19.5567 14.4993 19.5567C11.1107 19.5567 8.7727 20.4311 7.30169 21.272C6.66301 21.637 6.18283 21.9987 5.84809 22.2857Z" fill="#2E394D"/>
</svg>
