<svg width="29" height="28" viewBox="0 0 29 28" fill="none" xmlns="http://www.w3.org/2000/svg">
<circle cx="14.5" cy="14" r="13" stroke="#A5A5A7" stroke-width="2"/>
<circle cx="14.5" cy="11" r="4" stroke="#A5A5A7" stroke-width="2"/>
<path d="M5.79799 23.5C6.64574 22.6552 7.61737 21.9397 8.68215 21.3796C10.2421 20.5591 11.9637 20.0922 13.7245 20.0123C15.4853 19.9324 17.2421 20.2414 18.87 20.9173C20.3176 21.5183 21.6315 22.3963 22.7391 23.5C23.2127 23.028 23.6472 22.5166 24.0371 21.9712C22.7691 20.7362 21.2764 19.7509 19.6369 19.0702C17.7377 18.2816 15.6882 17.9212 13.6339 18.0144C11.5796 18.1076 9.57106 18.6522 7.75108 19.6096C6.55622 20.2381 5.46188 21.0343 4.5 21.9712C4.8899 22.5166 5.32433 23.028 5.79799 23.5Z" fill="#A5A5A7"/>
</svg>
