<svg width="46" height="41" viewBox="0 0 46 41" fill="none" xmlns="http://www.w3.org/2000/svg">
<path d="M2.21529 24.4164L4.39018 27.6917C4.39612 27.6872 4.40205 27.6827 4.40799 27.6782C6.45849 26.3163 9.22485 26.8746 10.5866 28.9252C11.9483 30.9759 11.3895 33.7422 9.33872 35.1036C9.3323 35.1074 9.32589 35.1111 9.31946 35.1149L11.494 38.3896C11.678 38.6666 11.9147 38.9047 12.1907 39.0903C12.4667 39.2758 12.7765 39.4052 13.1025 39.4711C13.4285 39.5369 13.7643 39.5378 14.0907 39.4739C14.4171 39.4099 14.7276 39.2823 15.0047 39.0984L24.6129 32.7181L25.5171 28.24L29.9957 29.1438L43.6257 20.093C43.9028 19.909 44.1409 19.6722 44.3264 19.3962C44.512 19.1202 44.6414 18.8104 44.7072 18.4844C44.773 18.1584 44.774 17.8226 44.71 17.4963C44.6461 17.1699 44.5185 16.8593 44.3345 16.5822L42.16 13.3075C40.1104 14.6556 37.3567 14.0937 35.999 12.0505C34.6426 10.0064 35.1931 7.25048 37.2308 5.8844L35.0558 2.60908C34.8718 2.33202 34.6351 2.09392 34.3591 1.90835C34.0831 1.72279 33.7733 1.5934 33.4473 1.52758C33.1213 1.46177 32.7855 1.4608 32.4591 1.52475C32.1327 1.5887 31.8222 1.7163 31.5451 1.90028L17.9106 10.9541L17.9265 10.9573L17.0205 15.4447L12.5337 14.5384L12.5369 14.5224L2.92409 20.9057C2.64703 21.0897 2.40892 21.3264 2.22336 21.6024C2.0378 21.8784 1.90842 22.1882 1.8426 22.5142C1.77678 22.8402 1.77582 23.176 1.83976 23.5024C1.90371 23.8288 2.03131 24.1393 2.21529 24.4164Z" fill="white"/>
<path d="M12.5368 14.5234L2.92393 20.9066C2.64682 21.0906 2.40867 21.3273 2.22307 21.6034C2.03747 21.8794 1.90805 22.1892 1.84222 22.5153C1.77638 22.8413 1.77542 23.1771 1.83938 23.5035C1.90334 23.8299 2.03097 24.1405 2.21498 24.4176L4.39038 27.6925C4.39638 27.6881 4.402 27.6842 4.40793 27.6797C6.45842 26.3178 9.22495 26.8757 10.5867 28.9263C11.9484 30.977 11.3896 33.7436 9.33882 35.1051C9.33243 35.1089 9.3257 35.1121 9.31926 35.1159L11.494 38.3908C11.6779 38.6679 11.9147 38.9061 12.1907 39.0917C12.4667 39.2773 12.7766 39.4067 13.1026 39.4725C13.4287 39.5384 13.7645 39.5393 14.0909 39.4754C14.4173 39.4114 14.7279 39.2838 15.005 39.0998L24.6131 32.7193L25.517 28.241L25.6479 28.2673L17.0401 15.3491L17.0205 15.4463L12.5334 14.5397L12.5368 14.5234Z" fill="#3EA1DA"/>
<path d="M23.9374 25.7048L21.0959 21.4258" stroke="#434343" stroke-width="1.5" stroke-miterlimit="6" stroke-linecap="round" stroke-linejoin="round"/>
<path d="M19.7137 19.3457L18.5309 17.5645" stroke="#434343" stroke-width="1.5" stroke-miterlimit="6" stroke-linecap="round" stroke-linejoin="round"/>
<path d="M10.1796 23.0742L14.4586 20.2328" stroke="#434343" stroke-width="1.5" stroke-miterlimit="6" stroke-linecap="round" stroke-linejoin="round"/>
<path d="M15.5833 31.2109L19.8623 28.3695" stroke="#434343" stroke-width="1.5" stroke-miterlimit="6" stroke-linecap="round" stroke-linejoin="round"/>
<path d="M13.7821 28.5L18.0611 25.6586" stroke="#434343" stroke-width="1.5" stroke-miterlimit="6" stroke-linecap="round" stroke-linejoin="round"/>
<path d="M11.9807 25.7871L16.2597 22.9457" stroke="#434343" stroke-width="1.5" stroke-miterlimit="6" stroke-linecap="round" stroke-linejoin="round"/>
<path d="M28.5238 22.1276L30.5627 12.0286" stroke="#434343" stroke-width="1.5" stroke-miterlimit="6" stroke-linecap="round" stroke-linejoin="round"/>
<path d="M26.8947 17.5131C27.5129 17.1025 27.6813 16.2686 27.2708 15.6503C26.8603 15.0321 26.0263 14.8637 25.4081 15.2743C24.7899 15.6848 24.6215 16.5187 25.032 17.137C25.4425 17.7552 26.2765 17.9236 26.8947 17.5131Z" stroke="#434343" stroke-width="1.5" stroke-miterlimit="6" stroke-linecap="round" stroke-linejoin="round"/>
<path d="M33.5893 18.8588C34.2075 18.4482 34.3759 17.6143 33.9654 16.996C33.5549 16.3778 32.7209 16.2094 32.1027 16.62C31.4844 17.0305 31.3161 17.8645 31.7266 18.4827C32.1371 19.1009 32.9711 19.2693 33.5893 18.8588Z" stroke="#434343" stroke-width="1.5" stroke-miterlimit="6" stroke-linecap="round" stroke-linejoin="round"/>
<path d="M2.21529 24.4164L4.39018 27.6917C4.39612 27.6872 4.40205 27.6827 4.40799 27.6782C6.45849 26.3163 9.22485 26.8746 10.5866 28.9252C11.9483 30.9759 11.3895 33.7422 9.33872 35.1036C9.3323 35.1074 9.32589 35.1111 9.31946 35.1149L11.494 38.3896C11.678 38.6666 11.9147 38.9047 12.1907 39.0903C12.4667 39.2758 12.7765 39.4052 13.1025 39.4711C13.4285 39.5369 13.7643 39.5378 14.0907 39.4739C14.4171 39.4099 14.7276 39.2823 15.0047 39.0984L24.6129 32.7181L25.5171 28.24L29.9957 29.1438L43.6257 20.093C43.9028 19.909 44.1409 19.6722 44.3264 19.3962C44.512 19.1202 44.6414 18.8104 44.7072 18.4844C44.773 18.1584 44.774 17.8226 44.71 17.4963C44.6461 17.1699 44.5185 16.8593 44.3345 16.5822L42.16 13.3075C40.1104 14.6556 37.3567 14.0937 35.999 12.0505C34.6426 10.0064 35.1931 7.25048 37.2308 5.8844L35.0558 2.60908C34.8718 2.33202 34.6351 2.09392 34.3591 1.90835C34.0831 1.72279 33.7733 1.5934 33.4473 1.52758C33.1213 1.46177 32.7855 1.4608 32.4591 1.52475C32.1327 1.5887 31.8222 1.7163 31.5451 1.90028L17.9106 10.9541L17.9265 10.9573L17.0205 15.4447L12.5337 14.5384L12.5369 14.5224L2.92409 20.9057C2.64703 21.0897 2.40892 21.3264 2.22336 21.6024C2.0378 21.8784 1.90842 22.1882 1.8426 22.5142C1.77678 22.8402 1.77582 23.176 1.83976 23.5024C1.90371 23.8288 2.03131 24.1393 2.21529 24.4164Z" stroke="#434343" stroke-width="1.5" stroke-miterlimit="6" stroke-linecap="round" stroke-linejoin="round"/>
</svg>
