<svg width="21" height="22" viewBox="0 0 21 22" fill="none" xmlns="http://www.w3.org/2000/svg">
<path fill-rule="evenodd" clip-rule="evenodd" d="M8.8501 15.125C12.2743 15.125 15.0501 12.3492 15.0501 8.925C15.0501 5.50084 12.2743 2.725 8.8501 2.725C5.42593 2.725 2.6501 5.50084 2.6501 8.925C2.6501 12.3492 5.42593 15.125 8.8501 15.125ZM8.8501 16.925C13.2684 16.925 16.8501 13.3433 16.8501 8.925C16.8501 4.50673 13.2684 0.925003 8.8501 0.925003C4.43182 0.925003 0.850098 4.50673 0.850098 8.925C0.850098 13.3433 4.43182 16.925 8.8501 16.925Z" fill="#434343"/>
<path fill-rule="evenodd" clip-rule="evenodd" d="M14.8501 13.2987L20.6633 19.1118C21.1124 19.5609 21.1124 20.2891 20.6633 20.7382C20.2142 21.1873 19.486 21.1873 19.0369 20.7382L13.2238 14.925L14.8501 13.2987Z" fill="#434343"/>
</svg>
