<svg width="31" height="30" viewBox="0 0 31 30" fill="none" xmlns="http://www.w3.org/2000/svg">
<path d="M9.9 12.9H21.1M9.9 17.8H17.6M22.5 2.87295C20.4407 1.68176 18.05 1 15.5 1C7.76801 1 1.5 7.26801 1.5 15C1.5 17.2396 2.02587 19.3562 2.96084 21.2335C3.20932 21.7323 3.29201 22.3025 3.14797 22.8408L2.31411 25.9574C1.95213 27.3102 3.18981 28.5478 4.54269 28.1859L7.65915 27.3521C8.1975 27.208 8.76769 27.2907 9.26654 27.5391C11.1437 28.4742 13.2604 29 15.5 29C23.2319 29 29.5 22.7319 29.5 15C29.5 12.45 28.8182 10.0592 27.6271 8" stroke="#A5A5A7" stroke-width="2" stroke-linecap="round"/>
</svg>
