<svg width="48" height="43" viewBox="0 0 48 43" fill="none" xmlns="http://www.w3.org/2000/svg">
<path d="M4.44846 1.51558C8.2841 1.47539 14.7839 1.67966 19.8391 3.22881C21.8896 3.85721 24.9512 3.85813 27.0025 3.23179C32.2257 1.63688 39.0497 1.45349 43.0141 1.50812C44.8068 1.53283 46.2584 3.07565 46.2584 4.86891V24.9821C46.2584 26.7754 44.809 28.1038 43.0168 28.0501C39.0913 27.9324 32.3362 28.0513 26.9483 29.8059C24.9283 30.4637 21.9004 30.4789 19.8654 29.8714C14.8776 28.3824 8.31252 28.1453 4.44611 28.155C2.6548 28.1595 1.20349 26.7754 1.20349 24.9821V4.8689C1.20349 3.07564 2.65546 1.53437 4.44846 1.51558Z" fill="white"/>
<path d="M41.4017 1.50109C37.3684 1.52139 31.5726 1.83584 27.0024 3.23137C26.0535 3.52112 24.8873 3.6708 23.7062 3.69208V30.3014C24.87 30.2694 26.0167 30.1092 26.9481 29.8059C32.3361 28.0513 39.0916 27.932 43.0171 28.0497C44.8093 28.1034 46.2582 26.7751 46.2582 24.9818V4.86855C46.2582 3.07529 44.8065 1.53308 43.0138 1.50837C42.5182 1.50148 41.9779 1.49827 41.4017 1.50109Z" fill="#3EA1DA"/>
<path d="M4.44846 1.51558C8.2841 1.47539 14.7839 1.67966 19.8391 3.22881C21.8896 3.85721 24.9512 3.85813 27.0025 3.23179C32.2257 1.63688 39.0497 1.45349 43.0141 1.50812C44.8068 1.53283 46.2584 3.07565 46.2584 4.86891V24.9821C46.2584 26.7754 44.809 28.1038 43.0168 28.0501C39.0913 27.9324 32.3362 28.0513 26.9483 29.8059C24.9283 30.4637 21.9004 30.4789 19.8654 29.8714C14.8776 28.3824 8.31252 28.1453 4.44611 28.155C2.6548 28.1595 1.20349 26.7754 1.20349 24.9821V4.8689C1.20349 3.07564 2.65546 1.53437 4.44846 1.51558Z" stroke="#555561" stroke-width="1.5" stroke-miterlimit="6" stroke-linecap="round" stroke-linejoin="round"/>
<path d="M23.7311 17.0898V25.5872" stroke="#555561" stroke-width="1.5" stroke-miterlimit="6" stroke-linecap="round" stroke-linejoin="round"/>
<path d="M6.69934 9.29202C6.69934 9.29202 13.7698 8.61964 17.1223 11.3487" stroke="#555561" stroke-width="1.5" stroke-miterlimit="6" stroke-linecap="round" stroke-linejoin="round"/>
<path d="M6.69934 14.3819C6.69934 14.3819 13.7698 13.7095 17.1223 16.4385" stroke="#555561" stroke-width="1.5" stroke-miterlimit="6" stroke-linecap="round" stroke-linejoin="round"/>
<path d="M6.69934 19.4717C6.69934 19.4717 13.7698 18.7993 17.1223 21.5284" stroke="#555561" stroke-width="1.5" stroke-miterlimit="6" stroke-linecap="round" stroke-linejoin="round"/>
<path d="M31.5133 20.7022V12.1855C31.5133 12.0223 31.5563 11.862 31.6379 11.7207C31.7195 11.5794 31.8368 11.462 31.9781 11.3804C32.1194 11.2988 32.2798 11.2559 32.4429 11.2559C32.6061 11.2559 32.7664 11.2988 32.9078 11.3804L39.8147 15.3681C39.9598 15.4519 40.0809 15.5718 40.1662 15.7161C40.2515 15.8603 40.2981 16.0242 40.3015 16.1918C40.3049 16.3593 40.265 16.5249 40.1857 16.6726C40.1064 16.8202 39.9903 16.9449 39.8487 17.0346L32.8737 21.451C32.7397 21.5359 32.5853 21.5832 32.4267 21.5881C32.2682 21.593 32.1112 21.5552 31.9722 21.4787C31.8332 21.4022 31.7173 21.2898 31.6366 21.1532C31.5559 21.0166 31.5133 20.8609 31.5133 20.7022Z" fill="white" stroke="#555561" stroke-width="1.5" stroke-miterlimit="6" stroke-linecap="round" stroke-linejoin="round"/>
<path d="M23.7828 8.68164V12.6453" stroke="#555561" stroke-width="1.5" stroke-miterlimit="6" stroke-linecap="round" stroke-linejoin="round"/>
<path d="M5.25496 33.8686H42.6217C43.6095 33.8686 44.5569 34.3115 45.2554 35.1C45.9539 35.8885 46.3463 36.9579 46.3463 38.073C46.2525 39.0821 45.8073 40.0077 45.1088 40.6463C44.4103 41.285 43.5156 41.5842 42.6217 41.4782H5.25496C4.26711 41.4782 3.31972 41.0353 2.6212 40.2468C1.92269 39.4583 1.53027 38.3889 1.53027 37.2739C1.62415 36.2648 2.06931 35.3391 2.76782 34.7005C3.46634 34.0619 4.36099 33.7626 5.25496 33.8686Z" fill="white" stroke="#555561" stroke-width="1.5" stroke-miterlimit="6" stroke-linecap="round" stroke-linejoin="round"/>
<path d="M16.624 37.7129H6.65356Z" fill="white"/>
<path d="M16.624 37.7129H6.65356" stroke="#555561" stroke-width="1.5" stroke-miterlimit="6" stroke-linecap="round" stroke-linejoin="round"/>
<path d="M41.2233 37.7129H20.2971Z" fill="white"/>
<path d="M41.2233 37.7129H20.2971" stroke="#555561" stroke-width="1.5" stroke-miterlimit="6" stroke-linecap="round" stroke-linejoin="round"/>
<path d="M19.2215 39.0568C19.9636 38.564 20.1657 37.563 19.6729 36.8209C19.1802 36.0788 18.1791 35.8767 17.437 36.3695C16.695 36.8623 16.4929 37.8633 16.9856 38.6054C17.4784 39.3475 18.4794 39.5496 19.2215 39.0568Z" fill="white" stroke="#555561" stroke-width="1.5" stroke-miterlimit="6" stroke-linecap="round" stroke-linejoin="round"/>
</svg>
