<svg width="79" height="31" viewBox="0 0 79 31" fill="none" xmlns="http://www.w3.org/2000/svg">
<path fill-rule="evenodd" clip-rule="evenodd" d="M27.2447 22.142L32.2327 30.3884H37.8743L30.2891 18.8333L36.5843 11.6051L31.3727 11.1639L29.9279 12.5892L24.7163 18.9691L24.5959 24.7042L27.2447 22.142ZM9.09858 15.2192C5.29736 16.6106 5.21136 24.4327 8.27297 26.4349C11.8506 28.7764 14.7574 25.5526 15.067 22.0063C15.2046 20.1738 14.8434 17.4929 13.3814 16.0846C12.2634 14.9986 10.5778 14.7102 9.09858 15.2192ZM19.7626 11.7408H23.5639L23.6154 23.228C23.667 29.4891 20.4506 31.8476 14.3618 29.6927C14.3618 29.6927 10.7498 31.1689 7.56777 29.9981C2.27014 28.0298 0.997338 19.6987 4.17935 15.0495C6.46697 11.7408 10.2682 11.0621 13.4674 12.2668C15.3078 12.9965 17.8706 14.7102 18.5414 19.0879C18.5414 19.0879 19.5046 22.9565 17.2514 27.0797C17.2514 27.0797 19.7626 27.7753 19.7626 24.6024C19.7626 21.4464 19.7626 11.7408 19.7626 11.7408Z" fill="url(#paint0_radial_14_484)"/>
<path fill-rule="evenodd" clip-rule="evenodd" d="M9.95966 4.63185C6.43364 5.66688 3.83643 9.2301 3.83643 9.2301C4.76523 10.8081 5.50483 12.7594 5.59083 14.9312C12.8665 8.31384 17.9749 8.44958 27.3489 10.8081C35.3126 12.8103 39.6298 11.368 42.3302 8.46655C42.3302 8.46655 36.379 11.5547 32.4058 9.94274C32.4058 9.94274 32.3542 9.90881 32.2166 9.8579C30.015 10.0785 26.3685 7.94055 26.3685 7.94055C21.6385 5.3954 14.6381 3.30837 9.95966 4.63185Z" fill="#A1A0A0"/>
<path fill-rule="evenodd" clip-rule="evenodd" d="M3.83562 8.87378C3.83562 8.87378 6.43283 5.31056 9.95885 4.30947C14.6373 2.95205 21.6377 5.03908 26.3505 7.61817C26.3505 7.61817 29.9969 9.7561 32.1986 9.51855C31.4074 9.21313 28.5865 7.95752 25.8173 5.61598C22.5665 2.83328 16.2885 -0.950524 9.20205 0.220248C2.11561 1.39102 0 4.22463 0 4.22463C0 4.22463 2.18441 5.9723 3.83562 8.87378Z" fill="url(#paint1_linear_14_484)"/>
<path fill-rule="evenodd" clip-rule="evenodd" d="M9.95966 4.30923C6.43364 5.31033 3.83643 8.87355 3.83643 8.87355C4.76523 10.4855 5.50483 12.4028 5.59083 14.6086C12.8665 7.95729 17.9749 8.09303 27.3489 10.4685C35.3126 12.4707 39.6298 11.0454 42.3302 8.1609C42.3302 8.1609 36.379 11.2151 32.4058 9.60316C32.4058 9.60316 32.3542 9.56922 32.2166 9.51832C30.015 9.77283 26.3685 7.61794 26.3685 7.61794C21.6385 5.02188 14.6381 2.93485 9.95966 4.30923Z" fill="url(#paint2_linear_14_484)"/>
<path fill-rule="evenodd" clip-rule="evenodd" d="M41.1255 11.368H41.8307V30.9657H41.1255V11.368Z" fill="#801710"/>
<path d="M41.1247 11.3508H41.8815V30.9994H41.0903V11.3508H41.1247ZM41.7955 11.4017H41.1419V30.9146H41.7955V11.4017Z" fill="#801710"/>
<path d="M45.4946 29.3204V24.5695H46.3202V26.7413H46.3546L48.0402 24.5695H49.0894L47.1974 26.928L49.227 29.3204H48.1434L46.3374 27.1825H46.303V29.3204H45.4946ZM50.3451 28.6078H52.5811V29.3374H49.5366V24.5864H52.4779V25.316H50.3623V26.5716H52.1683V27.3013H50.3623V28.6078H50.3451ZM54.9719 29.4053C54.7483 29.4053 54.5419 29.4053 54.3527 29.3544C54.1635 29.3034 53.9915 29.2186 53.8367 29.1338C53.6991 29.0489 53.5787 28.9471 53.4755 28.7944C53.3895 28.6587 53.3035 28.5229 53.2519 28.3533C53.2003 28.2175 53.1315 28.0818 53.1315 27.9121C53.0971 27.7424 53.0971 27.5727 53.0971 27.3861V24.5695H53.9227V27.3013C53.9227 27.6406 53.9571 27.9121 54.0431 28.0818C54.1291 28.3024 54.2323 28.4381 54.4043 28.5569C54.5763 28.6417 54.7655 28.6926 54.9891 28.6926C55.2127 28.6926 55.4191 28.6417 55.5567 28.5569C55.7287 28.4381 55.8663 28.3024 55.9523 28.0818C56.0039 27.9121 56.0727 27.6406 56.0727 27.3013V24.5695H56.8983V27.3861C56.8983 27.5727 56.8983 27.7424 56.8639 27.9121C56.8295 28.0818 56.8123 28.2175 56.7435 28.3533C56.6919 28.5229 56.6059 28.6587 56.4855 28.7944C56.3995 28.9302 56.2619 29.0489 56.1243 29.1338C55.9867 29.2186 55.8147 29.3034 55.6083 29.3544C55.4363 29.4053 55.2299 29.4053 54.9719 29.4053ZM60.2007 28.1327H58.5151L58.0679 29.3374H57.1907L58.9967 24.5864H59.7363L61.5423 29.3374H60.6651L60.2007 28.1327ZM59.3579 25.7063C59.1859 26.2153 59.0483 26.6226 58.9279 26.9619L58.7559 27.3861H59.9427L59.8051 26.9619C59.6675 26.6226 59.5299 26.2153 59.3579 25.7063ZM64.1739 26.7922C64.5179 27.2673 64.7587 27.7085 64.9651 28.0648H64.9995C64.9651 27.454 64.9479 27.0128 64.9479 26.7244V24.5525H65.7907V29.3034H64.9135L63.4515 27.0976C63.1935 26.7413 62.9183 26.2832 62.6259 25.7911C62.6603 26.368 62.6603 26.8262 62.6603 27.1486V29.2865H61.8347V24.5355H62.7119L64.1739 26.7922ZM69.3167 27.5218H68.3363V26.7753H70.1596V29.2016C70.0736 29.2356 69.9876 29.2525 69.9016 29.2865C69.7812 29.3204 69.6779 29.3374 69.5403 29.3713C69.4199 29.3713 69.2823 29.4053 69.1447 29.4222C69.0071 29.4222 68.8695 29.4222 68.7491 29.4222C68.3191 29.4222 67.9923 29.3713 67.6827 29.2525C67.3731 29.1338 67.1151 28.9811 66.9259 28.7775C66.7367 28.5569 66.5819 28.3024 66.4787 28.0309C66.3927 27.7254 66.3411 27.42 66.3411 27.0637C66.3411 26.8431 66.3755 26.5886 66.4271 26.368C66.4787 26.1475 66.5475 25.9269 66.6507 25.7572C66.7711 25.5706 66.8743 25.4009 67.0119 25.2312C67.1839 25.0615 67.3215 24.9597 67.5279 24.8409C67.7171 24.7222 67.9235 24.6543 68.1471 24.5864C68.3707 24.5355 68.5943 24.5016 68.8867 24.5016C69.1103 24.5016 69.3167 24.5016 69.506 24.5355C69.7296 24.5864 69.9016 24.6204 70.022 24.6713V25.4009C69.85 25.35 69.678 25.316 69.4888 25.2821C69.3167 25.2482 69.1447 25.2312 68.9555 25.2312C68.7319 25.2312 68.4739 25.2651 68.2847 25.35C68.0611 25.4348 67.8891 25.5366 67.7171 25.7063C67.5795 25.842 67.4419 26.0456 67.3559 26.2662C67.2699 26.4868 67.2183 26.7413 67.2183 27.0128C67.2183 27.5727 67.3559 28.0139 67.6483 28.2854C67.9235 28.5569 68.3191 28.7096 68.8351 28.7096C68.9211 28.7096 69.0243 28.7096 69.1103 28.6756C69.2307 28.6756 69.2995 28.6417 69.3683 28.6417V27.5218H69.3167ZM73.4276 28.1327H71.7076L71.2776 29.3374H70.3832L72.1892 24.5864H72.946L74.7176 29.3374H73.8404L73.4276 28.1327ZM72.5504 25.7063C72.3784 26.2153 72.2408 26.6226 72.1204 26.9619L71.9484 27.3861H73.1352L72.9976 26.9619C72.86 26.6226 72.7224 26.2153 72.5676 25.7063H72.5504ZM77.3836 26.7922C77.7276 27.2673 77.9684 27.7085 78.1748 28.0648H78.2092C78.1748 27.454 78.1748 27.0128 78.1748 26.7244V24.5525H79.0004V29.3034H78.1232L76.6612 27.0976C76.4032 26.7413 76.128 26.2832 75.87 25.7911H75.8356C75.87 26.368 75.87 26.8262 75.87 27.1486V29.2865H75.0444V24.5355H75.9216L77.3836 26.7922Z" fill="#626261"/>
<path d="M46.405 18.1722H47.2306V21.7015C47.2306 21.8373 47.2306 21.973 47.1962 22.0918C47.1618 22.2106 47.1446 22.3124 47.0758 22.3972C47.0242 22.516 46.9554 22.5838 46.8866 22.6687C46.8006 22.7535 46.6974 22.8044 46.6114 22.8553C46.491 22.9062 46.3878 22.9402 46.2502 22.9741C46.1298 23.008 45.9922 23.008 45.889 23.008C45.7514 23.008 45.6138 23.008 45.459 22.9741C45.3386 22.9402 45.2354 22.9232 45.1494 22.8893V22.1427C45.2354 22.1936 45.3386 22.2275 45.459 22.2615C45.5794 22.2615 45.6826 22.2954 45.803 22.2954C46.0266 22.2954 46.1642 22.2445 46.2502 22.1257C46.3706 22.0409 46.4222 21.8712 46.4222 21.6846V18.1722H46.405ZM50.5158 21.7355H48.8302L48.383 22.9402H47.5058L49.3118 18.1892H50.0514L51.8574 22.9402H50.9802L50.5158 21.7355ZM49.673 19.3091C49.501 19.8181 49.3634 20.2253 49.243 20.5647L49.071 20.9889H50.2578L50.1202 20.5647C49.9826 20.2253 49.845 19.8011 49.673 19.3091ZM54.3515 21.5658C54.3515 21.447 54.3171 21.3452 54.2655 21.2604C54.2139 21.2095 54.1451 21.1416 54.0419 21.0907C53.9559 21.0398 53.8527 21.0059 53.7323 20.9719C53.6119 20.938 53.4743 20.921 53.3367 20.8871C53.1647 20.8362 52.9927 20.7683 52.8551 20.7174C52.683 20.6665 52.5454 20.5986 52.425 20.4968C52.2874 20.378 52.2014 20.2762 52.1154 20.1405C52.0638 19.9708 52.0294 19.7842 52.0294 19.5636C52.0294 19.3091 52.0638 19.0885 52.1498 18.9019C52.2358 18.7322 52.339 18.5625 52.4938 18.4607C52.6314 18.3249 52.8034 18.2401 53.0099 18.1892C53.1991 18.1383 53.4055 18.1044 53.6635 18.1044C53.9215 18.1044 54.1451 18.1044 54.4031 18.1553C54.6267 18.2062 54.8503 18.274 55.0223 18.3419V19.0885C54.7987 19.0037 54.5751 18.9188 54.3515 18.8679C54.1279 18.834 53.9215 18.817 53.7667 18.817C53.4915 18.817 53.2851 18.8679 53.1131 18.9867C52.9755 19.0715 52.8895 19.2412 52.8895 19.4618C52.8895 19.5806 52.9239 19.6824 52.9755 19.7333C53.0271 19.8181 53.0959 19.9029 53.1647 19.9199C53.2507 19.9708 53.3367 20.0387 53.4399 20.0557C53.5603 20.0896 53.6635 20.1066 53.7839 20.1405C53.9731 20.1744 54.1451 20.2253 54.3515 20.2762C54.5235 20.3271 54.6611 20.412 54.7987 20.5308C54.9363 20.6156 55.0567 20.7513 55.1083 20.921C55.1943 21.0568 55.2287 21.2773 55.2287 21.5318C55.2287 21.7864 55.1943 22.0069 55.1083 22.1936C55.0223 22.3633 54.8847 22.5329 54.7127 22.6347C54.5407 22.7705 54.3515 22.8553 54.1279 22.9062C53.8699 22.9571 53.6119 22.9911 53.3367 22.9911C53.1131 22.9911 52.8551 22.9911 52.6315 22.9402C52.3734 22.8893 52.1842 22.8044 52.0466 22.7196V21.973C52.2703 22.0918 52.4766 22.1597 52.7003 22.1936C52.8895 22.2445 53.1303 22.2784 53.3539 22.2784C53.4915 22.2784 53.6119 22.2784 53.7495 22.2445C53.8699 22.2106 53.9731 22.1936 54.0935 22.1257C54.1795 22.0748 54.2655 21.99 54.3171 21.9051C54.3343 21.8203 54.3515 21.7015 54.3515 21.5658ZM58.3935 21.7355H56.6735L56.2435 22.9402H55.3663L57.1379 18.1892H57.8947L59.6663 22.9402H58.8235L58.3935 21.7355ZM57.5163 19.3091C57.3787 19.8181 57.2411 20.2253 57.0863 20.5647L56.9487 20.9889H58.1355L57.9635 20.5647C57.8431 20.2253 57.7055 19.8181 57.5335 19.3091H57.5163Z" fill="#626261"/>
<path d="M48.8488 14.2187C48.8488 13.9473 48.7972 13.6927 48.7284 13.4722C48.6596 13.2516 48.5564 13.0819 48.4532 12.9122C48.3328 12.7765 48.1952 12.6577 48.0232 12.6068C47.8512 12.522 47.6792 12.488 47.49 12.488C47.3008 12.488 47.1288 12.522 46.9568 12.6068C46.7848 12.6577 46.6472 12.7765 46.5268 12.9122C46.4064 13.0819 46.3032 13.2516 46.2516 13.4722C46.1656 13.6927 46.1312 13.9473 46.1312 14.2187C46.1312 14.5242 46.1656 14.7787 46.2516 14.9993C46.3032 15.2198 46.4236 15.3895 46.5268 15.5253C46.6472 15.661 46.7848 15.7798 46.9568 15.8646C47.1288 15.9494 47.3008 15.9834 47.49 15.9834C47.6792 15.9834 47.8512 15.9494 48.0232 15.8646C48.1952 15.7798 48.3328 15.678 48.4532 15.5253C48.5736 15.3895 48.6768 15.2198 48.7284 14.9993C48.7972 14.7617 48.8488 14.5242 48.8488 14.2187ZM49.7088 14.2187C49.7088 14.5751 49.6572 14.9144 49.5712 15.2198C49.4508 15.5253 49.3132 15.7967 49.124 16.0003C48.952 16.2209 48.7284 16.3906 48.4532 16.5263C48.178 16.6451 47.8684 16.696 47.5244 16.696C47.1804 16.696 46.8708 16.6451 46.5956 16.5263C46.3204 16.3906 46.0796 16.2209 45.8904 16.0003C45.7184 15.8137 45.5808 15.5253 45.4604 15.2198C45.3744 14.9144 45.3228 14.5751 45.3228 14.2187C45.3228 13.8624 45.3744 13.5231 45.4604 13.2176C45.5808 12.9462 45.7184 12.6577 45.8904 12.4371C46.0796 12.2166 46.3204 12.0469 46.5956 11.9281C46.8708 11.8093 47.1804 11.7415 47.5244 11.7415C47.8684 11.7415 48.178 11.8263 48.4532 11.9281C48.7284 12.0469 48.9692 12.1996 49.124 12.4371C49.3132 12.6577 49.468 12.9462 49.5712 13.2176C49.64 13.5231 49.7088 13.8455 49.7088 14.2187ZM51.9276 16.6112H51.0848V12.5729H49.64V11.8433H53.3724V12.5729H51.9276V16.6112ZM56.8468 14.2187C56.8468 13.9473 56.8124 13.6927 56.7608 13.4722C56.6748 13.2516 56.5888 13.0819 56.4856 12.9122C56.3652 12.7765 56.2276 12.6577 56.0556 12.6068C55.8836 12.522 55.7116 12.488 55.5224 12.488C55.3332 12.488 55.1268 12.522 54.9892 12.6068C54.8172 12.6577 54.6796 12.7765 54.5592 12.9122C54.4216 13.0819 54.3356 13.2516 54.284 13.4722C54.198 13.6927 54.1636 13.9473 54.1636 14.2187C54.1636 14.5242 54.198 14.7787 54.284 14.9993C54.3356 15.2198 54.4216 15.3895 54.5592 15.5253C54.6796 15.661 54.8172 15.7798 54.9892 15.8646C55.1268 15.9494 55.3332 15.9834 55.5224 15.9834C55.7116 15.9834 55.8836 15.9494 56.0556 15.8646C56.2276 15.7798 56.3652 15.678 56.4856 15.5253C56.606 15.3895 56.6748 15.2198 56.7608 14.9993C56.8124 14.7617 56.8468 14.5242 56.8468 14.2187ZM57.724 14.2187C57.724 14.5751 57.6724 14.9144 57.5864 15.2198C57.466 15.5253 57.3284 15.7967 57.1392 16.0003C56.9672 16.2209 56.7436 16.3906 56.4684 16.5263C56.1932 16.6451 55.8836 16.696 55.5396 16.696C55.1784 16.696 54.8688 16.6451 54.6108 16.5263C54.3356 16.3906 54.0948 16.2209 53.9056 16.0003C53.7336 15.8137 53.5616 15.5253 53.4756 15.2198C53.3896 14.9144 53.338 14.5751 53.338 14.2187C53.338 13.8624 53.3896 13.5231 53.4756 13.2176C53.5616 12.9462 53.7336 12.6577 53.9056 12.4371C54.0948 12.2166 54.3356 12.0469 54.6108 11.9281C54.8688 11.8093 55.1784 11.7415 55.5396 11.7415C55.8836 11.7415 56.1932 11.8263 56.4684 11.9281C56.7436 12.0469 56.9844 12.1996 57.1392 12.4371C57.3284 12.6577 57.4832 12.9462 57.5864 13.2176C57.6552 13.5231 57.724 13.8455 57.724 14.2187ZM61.5768 13.2685C61.5768 13.6079 61.4908 13.8794 61.3188 14.1339C61.1468 14.3545 60.8716 14.5242 60.4932 14.6429V14.6769L61.852 16.6282H60.8716L59.6332 14.7956H59.0656V16.6112H58.24V11.8602H59.5988C59.8568 11.8602 60.046 11.8602 60.2524 11.8942C60.4416 11.9281 60.6136 11.979 60.7684 12.0299C61.0264 12.1487 61.2156 12.2844 61.3532 12.505C61.5252 12.6747 61.5768 12.9631 61.5768 13.2685ZM59.4956 14.0491C59.6676 14.0491 59.8396 14.0151 59.9772 14.0151C60.0976 13.9812 60.2008 13.9642 60.2868 13.9303C60.4588 13.8455 60.562 13.7606 60.648 13.6588C60.6996 13.54 60.734 13.4043 60.734 13.2685C60.734 13.1328 60.6996 13.014 60.648 12.9122C60.6136 12.8274 60.5276 12.7425 60.39 12.6916C60.304 12.6577 60.218 12.6407 60.1148 12.6068C59.9944 12.5729 59.8396 12.5729 59.6676 12.5729H59.0828V14.0491H59.4956ZM62.2648 16.6112V11.8602H63.0904V16.6112H62.2648ZM65.6705 16.6112H64.8449V12.5729H63.3828V11.8433H67.1325V12.5729H65.6705V16.6112ZM69.6437 15.4065H67.9237L67.4937 16.6112H66.6165L68.3881 11.8602H69.1449L70.9165 16.6112H70.0393L69.6437 15.4065ZM68.7837 12.9971C68.6461 13.5061 68.5085 13.9133 68.3537 14.2527L68.2161 14.6769H69.3685L69.2309 14.2527C69.1105 13.9133 68.9729 13.5061 68.8009 12.9971H68.7837ZM73.4793 15.2368C73.4793 15.118 73.4449 15.0162 73.3933 14.9314C73.3417 14.8805 73.2557 14.7956 73.1697 14.7617C73.0493 14.7108 72.9461 14.6769 72.8257 14.6429C72.7053 14.609 72.6021 14.5581 72.4645 14.5242C72.2925 14.4902 72.1205 14.4393 71.9485 14.3884C71.7765 14.3375 71.6389 14.2527 71.5185 14.1678C71.3981 14.0491 71.2949 13.9473 71.2433 13.7776C71.1573 13.6418 71.1229 13.4382 71.1229 13.2176C71.1229 12.9631 71.1745 12.7426 71.2605 12.5559C71.3121 12.3862 71.4497 12.2166 71.6045 12.1147C71.7421 11.979 71.9141 11.8942 72.0861 11.8433C72.2753 11.7924 72.5161 11.7245 72.7397 11.7245C72.9977 11.7245 73.2557 11.7584 73.4793 11.8093C73.7373 11.8602 73.9265 11.9281 74.0985 11.996V12.7425C73.8749 12.6238 73.6513 12.5729 73.4449 12.522C73.2213 12.488 73.0149 12.4711 72.8257 12.4711C72.5505 12.4711 72.3441 12.522 72.2065 12.6407C72.0689 12.7256 71.9829 12.8953 71.9829 13.1158C71.9829 13.2346 72.0173 13.3025 72.0689 13.3873C72.1033 13.4722 72.1893 13.5231 72.2409 13.574C72.3269 13.6249 72.4301 13.6927 72.5505 13.7097C72.6365 13.7436 72.7397 13.7606 72.8945 13.7945C73.0837 13.8285 73.2557 13.8794 73.4277 13.9303C73.5997 13.9812 73.7717 14.066 73.8749 14.1509C74.0125 14.2696 74.1329 14.4054 74.2189 14.5751C74.3049 14.7108 74.3393 14.9314 74.3393 15.1859C74.3393 15.4404 74.2877 15.661 74.2017 15.8476C74.1157 16.0173 73.9781 16.187 73.8405 16.2888C73.6685 16.4245 73.4793 16.5094 73.2213 16.5603C72.9977 16.6112 72.7397 16.6451 72.4645 16.6451C72.2065 16.6451 71.9829 16.6112 71.7249 16.5942C71.5013 16.5433 71.2949 16.4585 71.1401 16.3736V15.6271C71.3637 15.7458 71.5873 15.8137 71.7937 15.8476C72.0173 15.8985 72.2237 15.9325 72.4473 15.9325C72.5849 15.9325 72.7225 15.8985 72.8429 15.8985C72.9805 15.8646 73.1009 15.8137 73.1869 15.7628C73.3073 15.7119 73.3589 15.644 73.4449 15.5422C73.4621 15.4913 73.4793 15.3895 73.4793 15.2368Z" fill="#626261"/>
<defs>
<radialGradient id="paint0_radial_14_484" cx="0" cy="0" r="1" gradientUnits="userSpaceOnUse" gradientTransform="translate(16.9923 23.5307) scale(39.835 39.2967)">
<stop stop-color="#CA1517"/>
<stop offset="0.2784" stop-color="#A61916"/>
<stop offset="1" stop-color="#801710"/>
</radialGradient>
<linearGradient id="paint1_linear_14_484" x1="6.8031" y1="14.0505" x2="27.1492" y2="-2.29421" gradientUnits="userSpaceOnUse">
<stop stop-color="#CE1420"/>
<stop offset="0.4196" stop-color="#F29376"/>
<stop offset="0.7608" stop-color="#B4191B"/>
<stop offset="0.9882" stop-color="#F29379"/>
<stop offset="1" stop-color="white"/>
</linearGradient>
<linearGradient id="paint2_linear_14_484" x1="13.8847" y1="18.8591" x2="31.2372" y2="-1.28765" gradientUnits="userSpaceOnUse">
<stop stop-color="#CBCBCD"/>
<stop offset="0.0117647" stop-color="#CBCBCD"/>
<stop offset="0.349" stop-color="white"/>
<stop offset="0.6392" stop-color="#BFC0C4"/>
<stop offset="0.949" stop-color="white"/>
<stop offset="1" stop-color="white"/>
</linearGradient>
</defs>
</svg>
