<svg width="16" height="16" viewBox="0 0 16 16" fill="none" xmlns="http://www.w3.org/2000/svg">
<path d="M4.44444 0.5C1.99022 0.5 0 2.36584 0 4.66667V11.3333C0 13.6342 1.99022 15.5 4.44444 15.5H11.5556C14.0098 15.5 16 13.6342 16 11.3333V4.66667C16 2.36584 14.0098 0.5 11.5556 0.5H4.44444ZM13.2166 2.6936C13.3982 2.6862 13.5941 2.72028 13.8008 2.83398C14.0075 2.94768 14.179 3.16416 14.2426 3.38615C14.3062 3.60817 14.2904 3.82615 14.2365 4.05143L14.2405 4.0376C14.2405 4.0376 12.5052 12.2019 12.4701 12.373V12.3742V12.3766C12.4195 12.6177 12.3069 12.7953 12.1263 12.9691C11.9457 13.1429 11.6622 13.3076 11.3051 13.3076C10.7058 13.3076 10.4477 12.9785 10.4154 12.9357L8.60851 11.3695L7.13281 12.5398L7.11936 12.5492C7.11936 12.5492 6.9098 12.7229 6.56814 12.7229C6.48856 12.7229 6.40251 12.7062 6.31641 12.6814C6.29194 12.6767 6.27945 12.6771 6.26128 12.6712C6.25013 12.6676 6.24054 12.6615 6.2296 12.6574L6.24436 12.6606C6.23908 12.6586 6.23354 12.6583 6.2283 12.6562C6.19056 12.6418 6.15286 12.6263 6.11892 12.6065C6.03048 12.555 5.95841 12.4897 5.898 12.4177C5.77719 12.2737 5.69038 12.1013 5.60113 11.8367C5.49141 11.5115 5.02342 10.1905 4.82378 9.62964C4.25391 9.41582 2.94295 8.9246 2.51866 8.76619C2.37363 8.71212 2.2003 8.63949 2.02908 8.48421C1.85786 8.32893 1.71571 8.05796 1.71571 7.79167C1.71571 7.46156 1.93163 7.15967 2.12587 7.02059C2.31965 6.88183 2.49499 6.83157 2.53819 6.8147C3.79627 6.31835 6.25173 5.34913 8.43663 4.48763C9.52909 4.05688 10.5538 3.65367 11.3273 3.34953C12.1007 3.04539 12.5865 2.85381 12.7218 2.80387C12.8682 2.74977 13.035 2.70101 13.2166 2.6936ZM12.9688 3.98348C12.8062 4.04645 12.4656 4.17946 11.8134 4.43595C11.0406 4.73981 10.0163 5.14338 8.92405 5.57406C6.84279 6.39469 4.60791 7.27607 3.30425 7.79045C3.85662 7.99713 4.80057 8.35203 5.29167 8.53629C5.35323 8.55944 5.40862 8.59222 5.46484 8.62378C6.96153 7.82563 10.052 6.17417 10.7739 5.75228C10.8304 5.71928 10.9371 5.64893 11.0156 5.64893C11.103 5.64893 11.1406 5.6984 11.1406 5.76733C11.1406 5.81918 11.1066 5.87136 10.9431 6.02043C10.7401 6.20662 7.36979 9.40503 7.36979 9.40503L6.88108 11.1958L7.79688 10.4695C8.27748 10.089 8.99878 10.1031 9.46137 10.5041L11.2561 12.0588C11.3564 11.5763 12.9006 4.30425 12.9688 3.98348ZM11.2365 12.1439C11.2358 12.1475 11.2376 12.1434 11.2365 12.1484C11.2366 12.1482 11.2378 12.1441 11.2378 12.1439H11.2365Z" fill="#5C250B"/>
</svg>
