<svg width="60" height="60" viewBox="0 0 60 60" fill="none" xmlns="http://www.w3.org/2000/svg">
<rect width="60" height="60" rx="30" fill="#FF7E07"/>
<path d="M33.6195 15.3008L32.8195 34.4608H27.0195L26.2195 15.3008H33.6195ZM30.0195 44.7008C28.8195 44.7008 27.8328 44.3541 27.0595 43.6608C26.3128 42.9408 25.9395 42.0608 25.9395 41.0208C25.9395 39.9541 26.3128 39.0608 27.0595 38.3408C27.8328 37.6208 28.8195 37.2608 30.0195 37.2608C31.1928 37.2608 32.1528 37.6208 32.8995 38.3408C33.6728 39.0608 34.0595 39.9541 34.0595 41.0208C34.0595 42.0608 33.6728 42.9408 32.8995 43.6608C32.1528 44.3541 31.1928 44.7008 30.0195 44.7008Z" fill="white"/>
</svg>
