<svg width="60" height="60" viewBox="0 0 60 60" fill="none" xmlns="http://www.w3.org/2000/svg">
<rect width="60" height="60" rx="30" fill="#FFDE07"/>
<path d="M26.6208 35.9342C26.6208 33.9243 26.9914 32.2708 27.7326 30.9737C28.4881 29.6765 29.5572 28.5575 30.9399 27.6167C31.952 26.8612 32.8001 26.1485 33.4843 25.4785C34.1686 24.8086 34.5107 23.9889 34.5107 23.0196C34.5107 21.9505 34.1828 21.1523 33.5271 20.6249C32.8856 20.0832 31.7738 19.8123 30.1915 19.8123C28.5808 19.8123 27.3763 20.2043 26.578 20.9883C25.794 21.7723 25.402 23.0553 25.402 24.8371H18.4102C18.4102 21.3162 19.3581 18.8502 21.2539 17.439C23.164 16.0135 26.1076 15.3008 30.0846 15.3008C34.3325 15.3008 37.3117 15.9209 39.0222 17.161C40.7328 18.3869 41.588 20.1259 41.588 22.3782C41.588 24.2598 41.1176 25.7494 40.1768 26.847C39.236 27.9446 38.1812 28.9139 37.0123 29.7549C35.6439 30.7385 34.7459 31.7363 34.3182 32.7483C33.9048 33.7604 33.6839 34.8224 33.6554 35.9342H26.6208ZM26.8346 39.3981H33.5912V44.7008H26.8346V39.3981Z" fill="white"/>
</svg>
