<svg width="29" height="28" viewBox="0 0 29 28" fill="none" xmlns="http://www.w3.org/2000/svg">
<path d="M8.57639 0C4.375 0 0.9375 3.4375 0.9375 7.63889V19.8611C0.9375 24.0625 4.375 27.5 8.57639 27.5H20.7986C25 27.5 28.4375 24.0625 28.4375 19.8611V7.63889C28.4375 3.4375 25 0 20.7986 0H8.57639ZM23.0903 3.81944C23.9306 3.81944 24.6181 4.50694 24.6181 5.34722C24.6181 6.1875 23.9306 6.875 23.0903 6.875C22.25 6.875 21.5625 6.1875 21.5625 5.34722C21.5625 4.50694 22.25 3.81944 23.0903 3.81944ZM14.6875 6.11111C18.8889 6.11111 22.3264 9.54861 22.3264 13.75C22.3264 17.9514 18.8889 21.3889 14.6875 21.3889C10.4861 21.3889 7.04861 17.9514 7.04861 13.75C7.04861 9.54861 10.4861 6.11111 14.6875 6.11111ZM14.6875 9.16667C12.1667 9.16667 10.1042 11.2292 10.1042 13.75C10.1042 16.2708 12.1667 18.3333 14.6875 18.3333C17.2083 18.3333 19.2708 16.2708 19.2708 13.75C19.2708 11.2292 17.2083 9.16667 14.6875 9.16667Z" fill="#42A5DC"/>
</svg>
