<svg width="60" height="60" viewBox="0 0 60 60" fill="none" xmlns="http://www.w3.org/2000/svg">
<rect width="60" height="60" rx="30" fill="#40B3E0"/>
<path d="M30.016 22.091C29.056 22.091 28.2666 21.7729 27.648 21.1367C27.0506 20.4761 26.752 19.6686 26.752 18.7143C26.752 17.7355 27.0506 16.928 27.648 16.2918C28.2666 15.6311 29.056 15.3008 30.016 15.3008C30.9546 15.3008 31.7226 15.6311 32.32 16.2918C32.9386 16.928 33.248 17.7355 33.248 18.7143C33.248 19.6686 32.9386 20.4761 32.32 21.1367C31.7226 21.7729 30.9546 22.091 30.016 22.091ZM32.736 24.2199V44.7008H27.264V24.2199H32.736Z" fill="white"/>
</svg>
