<svg width="79" height="31" viewBox="0 0 79 31" fill="none" xmlns="http://www.w3.org/2000/svg">
<path fill-rule="evenodd" clip-rule="evenodd" d="M27.2452 22.1422L32.2332 30.3885H37.8748L30.2896 18.8335L36.5848 11.6052L31.3732 11.1641L29.9284 12.5894L24.7167 18.9692L24.5963 24.7043L27.2452 22.1422ZM9.09907 15.2193C5.29785 16.6107 5.21185 24.4328 8.27346 26.435C11.8511 28.7765 14.7579 25.5527 15.0675 22.0064C15.2051 20.1739 14.8439 17.493 13.3819 16.0847C12.2639 14.9988 10.5783 14.7103 9.09907 15.2193ZM19.7631 11.741H23.5643L23.6159 23.2281C23.6675 29.4892 20.4511 31.8477 14.3623 29.6928C14.3623 29.6928 10.7503 31.169 7.56826 29.9982C2.27063 28.03 0.997827 19.6988 4.17984 15.0497C6.46745 11.741 10.2687 11.0623 13.4679 12.267C15.3083 12.9966 17.8711 14.7103 18.5419 19.088C18.5419 19.088 19.5051 22.9566 17.2519 27.0798C17.2519 27.0798 19.7631 27.7755 19.7631 24.6025C19.7631 21.4465 19.7631 11.741 19.7631 11.741Z" fill="url(#paint0_radial_602_957)"/>
<path fill-rule="evenodd" clip-rule="evenodd" d="M9.95917 4.6327C6.43315 5.66773 3.83594 9.23095 3.83594 9.23095C4.76474 10.8089 5.50435 12.7602 5.59035 14.9321C12.866 8.3147 17.9744 8.45044 27.3485 10.8089C35.3121 12.8111 39.6293 11.3689 42.3297 8.46741C42.3297 8.46741 36.3785 11.5555 32.4053 9.9436C32.4053 9.9436 32.3537 9.90966 32.2161 9.85876C30.0145 10.0793 26.3681 7.94141 26.3681 7.94141C21.638 5.39625 14.6376 3.30922 9.95917 4.6327Z" fill="#A1A0A0"/>
<path fill-rule="evenodd" clip-rule="evenodd" d="M3.83562 8.87402C3.83562 8.87402 6.43283 5.31081 9.95885 4.30971C14.6373 2.95229 21.6377 5.03932 26.3505 7.61841C26.3505 7.61841 29.9969 9.75634 32.1986 9.5188C31.4074 9.21338 28.5865 7.95777 25.8173 5.61622C22.5665 2.83352 16.2885 -0.950279 9.20205 0.220492C2.11561 1.39126 0 4.22487 0 4.22487C0 4.22487 2.18441 5.97255 3.83562 8.87402Z" fill="url(#paint1_linear_602_957)"/>
<path fill-rule="evenodd" clip-rule="evenodd" d="M9.95917 4.30899C6.43315 5.31008 3.83594 8.8733 3.83594 8.8733C4.76474 10.4852 5.50435 12.4026 5.59035 14.6084C12.866 7.95705 17.9744 8.09279 27.3485 10.4683C35.3121 12.4705 39.6293 11.0452 42.3297 8.16066C42.3297 8.16066 36.3785 11.2148 32.4053 9.60291C32.4053 9.60291 32.3537 9.56898 32.2161 9.51807C30.0145 9.77259 26.3681 7.61769 26.3681 7.61769C21.638 5.02163 14.6376 2.9346 9.95917 4.30899Z" fill="url(#paint2_linear_602_957)"/>
<path fill-rule="evenodd" clip-rule="evenodd" d="M41.125 11.3691H41.8302V30.9668H41.125V11.3691Z" fill="#801710"/>
<path d="M41.1242 11.3516H41.881V31.0002H41.0898V11.3516H41.1242ZM41.795 11.4025H41.1414V30.9153H41.795V11.4025Z" fill="#801710"/>
<path d="M45.4941 29.3208V24.5698H46.3197V26.7417H46.3541L48.0398 24.5698H49.089L47.1969 26.9283L49.2266 29.3208H48.143L46.3369 27.1828H46.3025V29.3208H45.4941ZM50.3446 28.6081H52.5806V29.3378H49.5362V24.5868H52.4774V25.3164H50.3618V26.572H52.1678V27.3016H50.3618V28.6081H50.3446ZM54.9714 29.4056C54.7478 29.4056 54.5414 29.4056 54.3522 29.3547C54.163 29.3038 53.991 29.219 53.8362 29.1341C53.6986 29.0493 53.5782 28.9475 53.475 28.7948C53.389 28.659 53.303 28.5233 53.2514 28.3536C53.1998 28.2179 53.131 28.0821 53.131 27.9125C53.0966 27.7428 53.0966 27.5731 53.0966 27.3865V24.5698H53.9222V27.3016C53.9222 27.641 53.9566 27.9125 54.0426 28.0821C54.1286 28.3027 54.2318 28.4385 54.4038 28.5572C54.5758 28.6421 54.765 28.693 54.9886 28.693C55.2122 28.693 55.4186 28.6421 55.5562 28.5572C55.7282 28.4385 55.8658 28.3027 55.9518 28.0821C56.0034 27.9125 56.0722 27.641 56.0722 27.3016V24.5698H56.8978V27.3865C56.8978 27.5731 56.8978 27.7428 56.8634 27.9125C56.829 28.0821 56.8118 28.2179 56.743 28.3536C56.6914 28.5233 56.6054 28.659 56.485 28.7948C56.399 28.9305 56.2614 29.0493 56.1238 29.1341C55.9862 29.219 55.8142 29.3038 55.6078 29.3547C55.4358 29.4056 55.2294 29.4056 54.9714 29.4056ZM60.2002 28.133H58.5146L58.0674 29.3378H57.1902L58.9962 24.5868H59.7358L61.5418 29.3378H60.6646L60.2002 28.133ZM59.3574 25.7067C59.1854 26.2157 59.0478 26.6229 58.9274 26.9623L58.7554 27.3865H59.9422L59.8046 26.9623C59.667 26.6229 59.5294 26.2157 59.3574 25.7067ZM64.1734 26.7926C64.5174 27.2677 64.7582 27.7089 64.9646 28.0652H64.999C64.9646 27.4543 64.9474 27.0132 64.9474 26.7247V24.5529H65.7902V29.3038H64.913L63.451 27.098C63.193 26.7417 62.9178 26.2836 62.6254 25.7915C62.6598 26.3684 62.6598 26.8265 62.6598 27.1489V29.2868H61.8342V24.5359H62.7114L64.1734 26.7926ZM69.3163 27.5222H68.3359V26.7756H70.1591V29.202C70.0731 29.2359 69.9871 29.2529 69.9011 29.2868C69.7807 29.3208 69.6775 29.3378 69.5399 29.3717C69.4195 29.3717 69.2819 29.4056 69.1443 29.4226C69.0067 29.4226 68.8691 29.4226 68.7487 29.4226C68.3187 29.4226 67.9919 29.3717 67.6823 29.2529C67.3727 29.1341 67.1147 28.9814 66.9254 28.7778C66.7362 28.5572 66.5814 28.3027 66.4782 28.0312C66.3922 27.7258 66.3406 27.4204 66.3406 27.0641C66.3406 26.8435 66.375 26.589 66.4266 26.3684C66.4782 26.1478 66.547 25.9272 66.6502 25.7576C66.7706 25.5709 66.8738 25.4012 67.0114 25.2316C67.1835 25.0619 67.3211 24.9601 67.5275 24.8413C67.7167 24.7225 67.9231 24.6547 68.1467 24.5868C68.3703 24.5359 68.5939 24.502 68.8863 24.502C69.1099 24.502 69.3163 24.502 69.5055 24.5359C69.7291 24.5868 69.9011 24.6207 70.0215 24.6716V25.4012C69.8495 25.3503 69.6775 25.3164 69.4883 25.2825C69.3163 25.2485 69.1443 25.2316 68.9551 25.2316C68.7315 25.2316 68.4735 25.2655 68.2843 25.3503C68.0607 25.4352 67.8887 25.537 67.7167 25.7067C67.5791 25.8424 67.4415 26.046 67.3555 26.2666C67.2695 26.4872 67.2178 26.7417 67.2178 27.0132C67.2178 27.5731 67.3554 28.0143 67.6479 28.2858C67.9231 28.5572 68.3187 28.7099 68.8347 28.7099C68.9207 28.7099 69.0239 28.7099 69.1099 28.676C69.2303 28.676 69.2991 28.6421 69.3679 28.6421V27.5222H69.3163ZM73.4271 28.133H71.7071L71.2771 29.3378H70.3827L72.1887 24.5868H72.9455L74.7171 29.3378H73.8399L73.4271 28.133ZM72.5499 25.7067C72.3779 26.2157 72.2403 26.6229 72.1199 26.9623L71.9479 27.3865H73.1347L72.9971 26.9623C72.8595 26.6229 72.7219 26.2157 72.5671 25.7067H72.5499ZM77.3831 26.7926C77.7271 27.2677 77.9679 27.7089 78.1743 28.0652H78.2087C78.1743 27.4543 78.1743 27.0132 78.1743 26.7247V24.5529H78.9999V29.3038H78.1227L76.6607 27.098C76.4027 26.7417 76.1275 26.2836 75.8695 25.7915H75.8351C75.8695 26.3684 75.8695 26.8265 75.8695 27.1489V29.2868H75.0439V24.5359H75.9211L77.3831 26.7926Z" fill="#626261"/>
<path d="M46.404 18.1733H47.2296V21.7026C47.2296 21.8384 47.2296 21.9741 47.1952 22.0929C47.1608 22.2117 47.1436 22.3135 47.0748 22.3983C47.0232 22.5171 46.9544 22.5849 46.8856 22.6698C46.7996 22.7546 46.6964 22.8055 46.6104 22.8564C46.49 22.9073 46.3868 22.9413 46.2492 22.9752C46.1288 23.0091 45.9912 23.0091 45.888 23.0091C45.7504 23.0091 45.6128 23.0091 45.458 22.9752C45.3376 22.9413 45.2344 22.9243 45.1484 22.8904V22.1438C45.2344 22.1947 45.3376 22.2286 45.458 22.2626C45.5784 22.2626 45.6816 22.2965 45.802 22.2965C46.0256 22.2965 46.1632 22.2456 46.2492 22.1268C46.3696 22.042 46.4212 21.8723 46.4212 21.6857V18.1733H46.404ZM50.5149 21.7366H48.8293L48.3821 22.9413H47.5048L49.3109 18.1903H50.0505L51.8565 22.9413H50.9793L50.5149 21.7366ZM49.6721 19.3102C49.5001 19.8192 49.3625 20.2264 49.2421 20.5658L49.0701 20.99H50.2569L50.1193 20.5658C49.9817 20.2264 49.8441 19.8022 49.6721 19.3102ZM54.3505 21.5669C54.3505 21.4481 54.3161 21.3463 54.2645 21.2615C54.2129 21.2106 54.1441 21.1427 54.0409 21.0918C53.9549 21.0409 53.8517 21.0069 53.7313 20.973C53.6109 20.9391 53.4733 20.9221 53.3357 20.8882C53.1637 20.8373 52.9917 20.7694 52.8541 20.7185C52.6821 20.6676 52.5445 20.5997 52.4241 20.4979C52.2865 20.3791 52.2005 20.2773 52.1145 20.1416C52.0629 19.9719 52.0285 19.7853 52.0285 19.5647C52.0285 19.3102 52.0629 19.0896 52.1489 18.903C52.2349 18.7333 52.3381 18.5636 52.4929 18.4618C52.6305 18.326 52.8025 18.2412 53.0089 18.1903C53.1981 18.1394 53.4045 18.1055 53.6625 18.1055C53.9205 18.1055 54.1441 18.1055 54.4021 18.1564C54.6257 18.2073 54.8493 18.2751 55.0213 18.343V19.0896C54.7977 19.0048 54.5741 18.9199 54.3505 18.869C54.1269 18.8351 53.9205 18.8181 53.7657 18.8181C53.4905 18.8181 53.2841 18.869 53.1121 18.9878C52.9745 19.0726 52.8885 19.2423 52.8885 19.4629C52.8885 19.5817 52.9229 19.6835 52.9745 19.7344C53.0261 19.8192 53.0949 19.904 53.1637 19.921C53.2497 19.9719 53.3357 20.0398 53.4389 20.0568C53.5593 20.0907 53.6625 20.1077 53.7829 20.1416C53.9721 20.1755 54.1441 20.2264 54.3505 20.2773C54.5225 20.3282 54.6601 20.4131 54.7977 20.5319C54.9353 20.6167 55.0557 20.7524 55.1073 20.9221C55.1933 21.0578 55.2277 21.2784 55.2277 21.5329C55.2277 21.7875 55.1933 22.008 55.1073 22.1947C55.0213 22.3644 54.8837 22.534 54.7117 22.6358C54.5397 22.7716 54.3505 22.8564 54.1269 22.9073C53.8689 22.9582 53.6109 22.9922 53.3357 22.9922C53.1121 22.9922 52.8541 22.9922 52.6305 22.9413C52.3725 22.8904 52.1833 22.8055 52.0457 22.7207V21.9741C52.2693 22.0929 52.4757 22.1607 52.6993 22.1947C52.8885 22.2456 53.1293 22.2795 53.3529 22.2795C53.4905 22.2795 53.6109 22.2795 53.7485 22.2456C53.8689 22.2117 53.9721 22.1947 54.0925 22.1268C54.1785 22.0759 54.2645 21.9911 54.3161 21.9062C54.3333 21.8214 54.3505 21.7026 54.3505 21.5669ZM58.3925 21.7366H56.6725L56.2425 22.9413H55.3653L57.1369 18.1903H57.8937L59.6653 22.9413H58.8225L58.3925 21.7366ZM57.5153 19.3102C57.3777 19.8192 57.2401 20.2264 57.0853 20.5658L56.9477 20.99H58.1345L57.9625 20.5658C57.8421 20.2264 57.7045 19.8192 57.5325 19.3102H57.5153Z" fill="#626261"/>
<path d="M48.8483 14.2189C48.8483 13.9474 48.7967 13.6929 48.7279 13.4723C48.6591 13.2517 48.5559 13.082 48.4527 12.9123C48.3323 12.7766 48.1947 12.6578 48.0227 12.6069C47.8507 12.5221 47.6787 12.4882 47.4895 12.4882C47.3003 12.4882 47.1283 12.5221 46.9563 12.6069C46.7843 12.6578 46.6467 12.7766 46.5263 12.9123C46.4059 13.082 46.3027 13.2517 46.2511 13.4723C46.1651 13.6929 46.1307 13.9474 46.1307 14.2189C46.1307 14.5243 46.1651 14.7788 46.2511 14.9994C46.3027 15.22 46.4231 15.3896 46.5263 15.5254C46.6467 15.6611 46.7843 15.7799 46.9563 15.8647C47.1283 15.9496 47.3003 15.9835 47.4895 15.9835C47.6787 15.9835 47.8507 15.9496 48.0227 15.8647C48.1947 15.7799 48.3323 15.6781 48.4527 15.5254C48.5731 15.3896 48.6763 15.22 48.7279 14.9994C48.7967 14.7618 48.8483 14.5243 48.8483 14.2189ZM49.7083 14.2189C49.7083 14.5752 49.6567 14.9145 49.5707 15.22C49.4503 15.5254 49.3127 15.7969 49.1235 16.0005C48.9515 16.2211 48.7279 16.3907 48.4527 16.5265C48.1775 16.6452 47.8679 16.6961 47.5239 16.6961C47.1799 16.6961 46.8703 16.6452 46.5951 16.5265C46.3199 16.3907 46.0791 16.2211 45.8899 16.0005C45.7179 15.8138 45.5803 15.5254 45.4599 15.22C45.3739 14.9145 45.3223 14.5752 45.3223 14.2189C45.3223 13.8625 45.3739 13.5232 45.4599 13.2178C45.5803 12.9463 45.7179 12.6578 45.8899 12.4373C46.0791 12.2167 46.3199 12.047 46.5951 11.9282C46.8703 11.8094 47.1799 11.7416 47.5239 11.7416C47.8679 11.7416 48.1775 11.8264 48.4527 11.9282C48.7279 12.047 48.9687 12.1997 49.1235 12.4373C49.3127 12.6578 49.4675 12.9463 49.5707 13.2178C49.6395 13.5232 49.7083 13.8456 49.7083 14.2189ZM51.9271 16.6113H51.0843V12.573H49.6395V11.8434H53.3719V12.573H51.9271V16.6113ZM56.8463 14.2189C56.8463 13.9474 56.8119 13.6929 56.7603 13.4723C56.6743 13.2517 56.5883 13.082 56.4851 12.9123C56.3647 12.7766 56.2271 12.6578 56.0551 12.6069C55.8831 12.5221 55.7111 12.4882 55.5219 12.4882C55.3327 12.4882 55.1263 12.5221 54.9887 12.6069C54.8167 12.6578 54.6791 12.7766 54.5587 12.9123C54.4211 13.082 54.3351 13.2517 54.2835 13.4723C54.1975 13.6929 54.1631 13.9474 54.1631 14.2189C54.1631 14.5243 54.1975 14.7788 54.2835 14.9994C54.3351 15.22 54.4211 15.3896 54.5587 15.5254C54.6791 15.6611 54.8167 15.7799 54.9887 15.8647C55.1263 15.9496 55.3327 15.9835 55.5219 15.9835C55.7111 15.9835 55.8831 15.9496 56.0551 15.8647C56.2271 15.7799 56.3647 15.6781 56.4851 15.5254C56.6055 15.3896 56.6743 15.22 56.7603 14.9994C56.8119 14.7618 56.8463 14.5243 56.8463 14.2189ZM57.7235 14.2189C57.7235 14.5752 57.6719 14.9145 57.5859 15.22C57.4655 15.5254 57.3279 15.7969 57.1387 16.0005C56.9667 16.2211 56.7431 16.3907 56.4679 16.5265C56.1927 16.6452 55.8831 16.6961 55.5391 16.6961C55.1779 16.6961 54.8683 16.6452 54.6103 16.5265C54.3351 16.3907 54.0943 16.2211 53.9051 16.0005C53.7331 15.8138 53.5611 15.5254 53.4751 15.22C53.3891 14.9145 53.3375 14.5752 53.3375 14.2189C53.3375 13.8625 53.3891 13.5232 53.4751 13.2178C53.5611 12.9463 53.7331 12.6578 53.9051 12.4373C54.0943 12.2167 54.3351 12.047 54.6103 11.9282C54.8683 11.8094 55.1779 11.7416 55.5391 11.7416C55.8831 11.7416 56.1927 11.8264 56.4679 11.9282C56.7431 12.047 56.9839 12.1997 57.1387 12.4373C57.3279 12.6578 57.4827 12.9463 57.5859 13.2178C57.6547 13.5232 57.7235 13.8456 57.7235 14.2189ZM61.5763 13.2687C61.5763 13.608 61.4903 13.8795 61.3183 14.134C61.1463 14.3546 60.8711 14.5243 60.4927 14.6431V14.677L61.8516 16.6283H60.8711L59.6327 14.7958H59.0651V16.6113H58.2395V11.8604H59.5983C59.8563 11.8604 60.0455 11.8604 60.2519 11.8943C60.4411 11.9282 60.6131 11.9791 60.7679 12.03C61.0259 12.1488 61.2151 12.2845 61.3527 12.5051C61.5247 12.6748 61.5763 12.9633 61.5763 13.2687ZM59.4951 14.0492C59.6671 14.0492 59.8391 14.0152 59.9767 14.0152C60.0971 13.9813 60.2003 13.9643 60.2863 13.9304C60.4583 13.8456 60.5615 13.7607 60.6475 13.6589C60.6991 13.5402 60.7335 13.4044 60.7335 13.2687C60.7335 13.1329 60.6991 13.0142 60.6475 12.9123C60.6131 12.8275 60.5271 12.7427 60.3895 12.6918C60.3035 12.6578 60.2175 12.6409 60.1143 12.6069C59.9939 12.573 59.8391 12.573 59.6671 12.573H59.0823V14.0492H59.4951ZM62.2644 16.6113V11.8604H63.09V16.6113H62.2644ZM65.67 16.6113H64.8444V12.573H63.3824V11.8434H67.132V12.573H65.67V16.6113ZM69.6432 15.4066H67.9232L67.4932 16.6113H66.616L68.3876 11.8604H69.1444L70.916 16.6113H70.0388L69.6432 15.4066ZM68.7832 12.9972C68.6456 13.5062 68.508 13.9134 68.3532 14.2528L68.2156 14.677H69.368L69.2304 14.2528C69.11 13.9134 68.9724 13.5062 68.8004 12.9972H68.7832ZM73.4788 15.2369C73.4788 15.1182 73.4444 15.0163 73.3928 14.9315C73.3412 14.8806 73.2552 14.7958 73.1692 14.7618C73.0488 14.7109 72.9456 14.677 72.8252 14.6431C72.7048 14.6091 72.6016 14.5582 72.464 14.5243C72.292 14.4903 72.12 14.4394 71.948 14.3885C71.776 14.3376 71.6384 14.2528 71.518 14.168C71.3976 14.0492 71.2944 13.9474 71.2428 13.7777C71.1568 13.642 71.1224 13.4383 71.1224 13.2178C71.1224 12.9633 71.174 12.7427 71.26 12.556C71.3116 12.3864 71.4492 12.2167 71.604 12.1149C71.7416 11.9791 71.9136 11.8943 72.0856 11.8434C72.2748 11.7925 72.5156 11.7246 72.7392 11.7246C72.9972 11.7246 73.2552 11.7585 73.4788 11.8094C73.7368 11.8604 73.926 11.9282 74.098 11.9961V12.7427C73.8744 12.6239 73.6508 12.573 73.4444 12.5221C73.2208 12.4882 73.0144 12.4712 72.8252 12.4712C72.55 12.4712 72.3436 12.5221 72.206 12.6409C72.0684 12.7257 71.9824 12.8954 71.9824 13.116C71.9824 13.2347 72.0168 13.3026 72.0684 13.3874C72.1028 13.4723 72.1888 13.5232 72.2404 13.5741C72.3264 13.625 72.4296 13.6929 72.55 13.7098C72.636 13.7438 72.7392 13.7607 72.894 13.7947C73.0832 13.8286 73.2552 13.8795 73.4272 13.9304C73.5992 13.9813 73.7712 14.0662 73.8744 14.151C74.012 14.2698 74.1324 14.4055 74.2184 14.5752C74.3044 14.7109 74.3388 14.9315 74.3388 15.186C74.3388 15.4405 74.2872 15.6611 74.2012 15.8478C74.1152 16.0174 73.9776 16.1871 73.84 16.2889C73.668 16.4247 73.4788 16.5095 73.2208 16.5604C72.9972 16.6113 72.7392 16.6452 72.464 16.6452C72.206 16.6452 71.9824 16.6113 71.7244 16.5943C71.5008 16.5434 71.2944 16.4586 71.1396 16.3738V15.6272C71.3632 15.746 71.5868 15.8138 71.7932 15.8478C72.0168 15.8987 72.2232 15.9326 72.4468 15.9326C72.5844 15.9326 72.722 15.8987 72.8424 15.8987C72.98 15.8647 73.1004 15.8138 73.1864 15.7629C73.3068 15.712 73.3584 15.6441 73.4444 15.5423C73.4616 15.4914 73.4788 15.3896 73.4788 15.2369Z" fill="#626261"/>
<defs>
<radialGradient id="paint0_radial_602_957" cx="0" cy="0" r="1" gradientUnits="userSpaceOnUse" gradientTransform="translate(16.9928 23.5308) scale(39.835 39.2967)">
<stop stop-color="#CA1517"/>
<stop offset="0.2784" stop-color="#A61916"/>
<stop offset="1" stop-color="#801710"/>
</radialGradient>
<linearGradient id="paint1_linear_602_957" x1="6.8031" y1="14.0508" x2="27.1492" y2="-2.29396" gradientUnits="userSpaceOnUse">
<stop stop-color="#CE1420"/>
<stop offset="0.4196" stop-color="#F29376"/>
<stop offset="0.7608" stop-color="#B4191B"/>
<stop offset="0.9882" stop-color="#F29379"/>
<stop offset="1" stop-color="white"/>
</linearGradient>
<linearGradient id="paint2_linear_602_957" x1="13.8842" y1="18.8589" x2="31.2367" y2="-1.2879" gradientUnits="userSpaceOnUse">
<stop stop-color="#CBCBCD"/>
<stop offset="0.0117647" stop-color="#CBCBCD"/>
<stop offset="0.349" stop-color="white"/>
<stop offset="0.6392" stop-color="#BFC0C4"/>
<stop offset="0.949" stop-color="white"/>
<stop offset="1" stop-color="white"/>
</linearGradient>
</defs>
</svg>
