<svg width="330" height="50" viewBox="0 0 330 50" fill="none" xmlns="http://www.w3.org/2000/svg">
<g clip-path="url(#clip0_453_1116)">
<path d="M40.1771 13.2607C40.39 13.2607 40.7671 13.4379 41.2809 14.0079C43.9563 16.9548 46.9579 19.2839 49.4832 20.6924C49.8476 20.8918 50.0471 21.0451 50.0471 21.2385C50.0471 21.3858 50.0264 21.5293 49.7121 21.5293C49.1428 21.5293 45.9594 20.8918 45.1169 20.4952C44.2707 20.087 42.452 18.5905 40.2823 14.7948C40.0366 14.3665 39.7773 13.998 39.7773 13.653C39.7773 13.3106 40.0816 13.2607 40.1771 13.2607Z" fill="#6C99D7"/>
<path d="M47.3851 2.40817C47.3851 2.40817 47.9132 3.46619 42.7701 4.20228C43.3298 2.59134 43.7014 1.52947 43.7014 1.52947C44.0279 0.561111 43.2907 7.62939e-05 42.7605 7.62939e-05C42.2294 7.62939e-05 41.8423 0.414661 41.6197 0.937695L40.0917 4.48621C38.0866 4.62199 36.602 4.54684 35.9283 4.48237C34.9979 4.39057 34.7551 4.91062 34.7551 5.44561C34.7551 6.37895 36.3781 7.32597 37.415 7.22179C38.066 7.16031 38.4443 7.1334 38.9783 7.07576L33.2911 20.2635C33.0731 20.7558 32.8985 21.5508 33.8735 21.5508C34.8515 21.5508 37.0468 20.646 37.415 19.5961C37.5682 19.1555 38.7014 15.896 39.9642 12.2677C40.5904 12.1421 42.8854 11.7873 43.5242 11.7873C44.1302 11.7873 44.4424 12.0602 44.4424 12.3851C44.4424 13.1464 42.6456 15.3282 39.1647 18.0121C38.7856 18.3088 39.1007 18.5398 39.2943 18.5398C39.8325 18.5398 42.2319 16.8742 43.4194 15.9618C44.7273 14.9614 47.0001 12.3612 47.0001 10.5282C47.0001 9.81134 46.6857 9.15168 45.2613 9.15168C43.8819 9.15168 41.437 9.46165 40.9186 9.52954C41.2544 8.55221 41.5902 7.59837 41.9024 6.70473C44.5926 6.32644 46.1951 6.07837 47.1415 5.88111C48.4417 5.60188 49.4891 4.84102 49.4891 4.05796C49.4891 2.39408 47.3851 2.40817 47.3851 2.40817Z" fill="#5C250B"/>
<path d="M1.63777 10.6625H0V9.02043H1.63777V6.83351H3.85288V9.02043H5.94722V10.6625H3.85288V14.6833C3.85288 15.4224 4.04897 16.1081 4.89184 16.1081C5.29035 16.1081 5.66823 16.0265 5.89714 15.8788L5.96784 17.6503C5.50033 17.7937 4.99368 17.8535 4.33091 17.8535C2.59383 17.8535 1.63777 16.7618 1.63777 15.0522V10.6625Z" fill="#5C250B"/>
<path d="M7.63477 9.02054H9.59866V10.9837H9.634C9.73205 10.1742 10.6401 8.81603 11.961 8.81603C12.1752 8.81603 12.4067 8.81603 12.6377 8.88776V11.149C12.4399 11.0354 12.0444 10.9658 11.6467 10.9658C9.84777 10.9658 9.84777 13.2454 9.84777 14.4823V17.6504H7.63477L7.63477 9.02054Z" fill="#5C250B"/>
<path d="M21.8256 17.6522H19.7241V16.4845H19.6909C19.0172 17.3213 18.059 17.8555 16.9022 17.8555C14.8874 17.8555 14.0117 16.4149 14.0117 14.4662V9.02239H16.2188V13.6294C16.2188 14.6852 16.2407 16.11 17.6622 16.11C19.2629 16.11 19.6122 14.3505 19.6122 13.2468V9.02239H21.8256V17.6522Z" fill="#5C250B"/>
<path d="M29.114 12.4915C29.045 11.4036 28.5501 10.4634 27.3142 10.4634C26.0728 10.4634 25.4467 11.3357 25.3474 12.4915H29.114ZM30.5986 17.1659C29.7894 17.6181 28.8653 17.8555 27.6744 17.8555C24.8702 17.8555 23.2324 16.2138 23.2324 13.3843C23.2324 10.8835 24.5382 8.81787 27.1817 8.81787C30.3373 8.81787 31.229 11.0133 31.229 14.0358H25.3474C25.4467 15.4243 26.4032 16.2138 27.7737 16.2138C28.8527 16.2138 29.7738 15.8112 30.5986 15.3406V17.1659Z" fill="#5C250B"/>
<path d="M48.5527 9.15219H50.5196V11.1103H50.5528C50.65 10.305 51.5594 8.94511 52.8828 8.94511C53.0957 8.94511 53.3268 8.94511 53.5574 9.01172V11.2776C53.3629 11.1602 52.9653 11.0945 52.5676 11.0945C50.7657 11.0945 50.7657 13.3719 50.7657 14.6093V17.7773H48.5527V9.15219Z" fill="#5C250B"/>
<path d="M54.8438 9.15213H57.0597V17.7773H54.8438V9.15213ZM54.8438 5.55664H57.0597V7.70172H54.8438V5.55664Z" fill="#5C250B"/>
<path d="M64.3315 12.6184C64.2658 11.5246 63.7706 10.5904 62.5317 10.5904C61.2887 10.5904 60.6642 11.4609 60.5682 12.6184H64.3315ZM65.8161 17.2929C65.0081 17.7472 64.0862 17.9824 62.8949 17.9824C60.0881 17.9824 58.4512 16.3382 58.4512 13.5053C58.4512 11.0066 59.7531 8.94482 62.4 8.94482C65.5539 8.94482 66.4427 11.1399 66.4427 14.1606H60.5682C60.6642 15.5534 61.6207 16.3382 62.9942 16.3382C64.0655 16.3382 64.9943 15.9381 65.8161 15.4676V17.2929Z" fill="#5C250B"/>
<path d="M67.7578 9.22946H69.8589V10.4002H69.8883C70.5856 9.40965 71.5274 9.02239 72.6808 9.02239C74.6998 9.02239 75.5713 10.4651 75.5713 12.4099V17.8555H73.3604V13.2468C73.3604 12.1909 73.3427 10.7661 71.9229 10.7661C70.3243 10.7661 69.9729 12.5235 69.9729 13.6353V17.8555H67.7578V9.22946Z" fill="#5C250B"/>
<path d="M81.0929 16.237C82.5674 16.237 83.0488 14.6649 83.0488 13.4374C83.0488 12.2299 82.4833 10.6877 81.0614 10.6877C79.6289 10.6877 79.2334 12.282 79.2334 13.4374C79.2334 14.6312 79.6416 16.237 81.0929 16.237ZM83.1292 16.8087H83.0959C82.434 17.6455 81.5268 17.9824 80.4882 17.9824C77.8746 17.9824 76.916 15.8006 76.916 13.4374C76.916 11.0566 77.8746 8.94482 80.4882 8.94482C81.5937 8.94482 82.3692 9.33251 83.0311 10.1531H83.0648V5.20716H85.2757V17.7771H83.1292V16.8087Z" fill="#5C250B"/>
<path d="M94.7676 6.96925H99.4448V16.3352H99.5382C100.002 15.5176 100.499 14.7635 100.963 14.0095L105.702 6.96925H111.495L104.587 15.9893L111.866 28.1523H106.352L101.242 19.0067L99.4448 21.2376V28.1523H94.7676V6.96925Z" fill="#231F20"/>
<path d="M116.789 20.4523C116.789 23.0922 117.873 25.0721 119.886 25.0721C121.714 25.0721 122.891 23.2178 122.891 20.4523C122.891 18.1578 122.024 15.8321 119.886 15.8321C117.625 15.8321 116.789 18.1894 116.789 20.4523ZM127.754 20.2952C127.754 25.9205 123.82 28.498 119.763 28.498C115.333 28.498 111.926 25.5439 111.926 20.5778C111.926 15.6126 115.147 12.4377 120.011 12.4377C124.657 12.4377 127.754 15.6754 127.754 20.2952Z" fill="#231F20"/>
<path d="M130.355 17.8432C130.355 15.5803 130.293 14.1034 130.23 12.7833H134.288L134.443 15.6119H134.567C135.342 13.3806 137.2 12.4374 138.656 12.4374C139.089 12.4374 139.306 12.4374 139.647 12.5002V17.026C139.306 16.9321 138.904 16.8689 138.377 16.8689C136.642 16.8689 135.465 17.8116 135.156 19.2894C135.094 19.6032 135.063 19.9806 135.063 20.3576V28.1523H130.355V17.8432Z" fill="#231F20"/>
<path d="M150.735 18.7235C150.735 17.5604 150.24 15.6122 148.071 15.6122C146.088 15.6122 145.283 17.4345 145.16 18.7235H150.735ZM145.191 21.9919C145.345 23.9718 147.266 24.9141 149.465 24.9141C151.076 24.9141 152.377 24.6946 153.647 24.2864L154.266 27.5233C152.717 28.1522 150.828 28.498 148.784 28.498C143.642 28.498 140.699 25.4491 140.699 20.6406C140.699 16.7432 143.084 12.4377 148.35 12.4377C153.244 12.4377 155.102 16.3039 155.102 20.1064C155.102 20.9232 155.009 21.6465 154.948 21.9919H145.191Z" fill="#231F20"/>
<path d="M165.664 20.8921C163.186 20.8609 161.266 21.4582 161.266 23.3125C161.266 24.5379 162.071 25.1357 163.124 25.1357C164.301 25.1357 165.261 24.3501 165.571 23.3753C165.633 23.1234 165.664 22.8403 165.664 22.5577V20.8921ZM170.248 24.4124C170.248 25.8889 170.31 27.3038 170.465 28.1526H166.221L165.943 26.6121H165.85C164.859 27.8375 163.31 28.498 161.514 28.498C158.447 28.498 156.619 26.2356 156.619 23.7839C156.619 19.7922 160.15 17.8751 165.509 17.9063V17.6868C165.509 16.8692 165.075 15.7066 162.752 15.7066C161.204 15.7066 159.562 16.2407 158.571 16.8692L157.704 13.7895C158.756 13.1922 160.832 12.4381 163.588 12.4381C168.638 12.4381 170.248 15.4551 170.248 19.0693V24.4124Z" fill="#231F20"/>
<path d="M184.493 28.1518H179.754V6.96875H184.493V28.1518Z" fill="#231F20"/>
<path d="M188.21 17.6865C188.21 15.769 188.148 14.135 188.086 12.7837H192.175L192.391 14.8891H192.485C193.104 13.9151 194.653 12.4378 197.161 12.4378C200.259 12.4378 202.583 14.512 202.583 19.0379V28.1523H197.873V19.6352C197.873 17.6554 197.192 16.304 195.49 16.304C194.188 16.304 193.414 17.2147 193.104 18.0951C192.98 18.4094 192.918 18.8492 192.918 19.2894V28.1523H188.21V17.6865Z" fill="#231F20"/>
<path d="M208.959 12.7833L211.003 19.9174C211.377 21.206 211.654 22.4318 211.871 23.6577H211.964C212.212 22.4007 212.461 21.2376 212.801 19.9174L214.753 12.7833H219.709L214.071 28.1523H209.363L203.85 12.7833H208.959Z" fill="#231F20"/>
<path d="M230.271 18.7235C230.271 17.5604 229.774 15.6122 227.606 15.6122C225.624 15.6122 224.819 17.4345 224.695 18.7235H230.271ZM224.726 21.9919C224.88 23.9718 226.801 24.9141 229.001 24.9141C230.611 24.9141 231.912 24.6946 233.182 24.2864L233.802 27.5233C232.253 28.1522 230.364 28.498 228.319 28.498C223.177 28.498 220.234 25.4491 220.234 20.6406C220.234 16.7432 222.619 12.4377 227.885 12.4377C232.779 12.4377 234.639 16.3039 234.639 20.1064C234.639 20.9232 234.544 21.6465 234.484 21.9919H224.726Z" fill="#231F20"/>
<path d="M237.114 23.9718C237.981 24.5059 239.778 25.1357 241.171 25.1357C242.597 25.1357 243.185 24.6323 243.185 23.8462C243.185 23.0611 242.72 22.6836 240.955 22.0863C237.826 21.018 236.618 19.2892 236.648 17.4977C236.648 14.6063 239.066 12.4377 242.812 12.4377C244.578 12.4377 246.159 12.8459 247.087 13.3177L246.251 16.6177C245.57 16.2403 244.269 15.7377 242.968 15.7377C241.822 15.7377 241.171 16.2087 241.171 16.9951C241.171 17.718 241.76 18.0946 243.617 18.7547C246.499 19.7606 247.707 21.2375 247.738 23.5004C247.738 26.3607 245.508 28.498 241.171 28.498C239.19 28.498 237.424 28.0267 236.277 27.3978L237.114 23.9718Z" fill="#231F20"/>
<path d="M255.542 8.60354V12.7835H258.918V16.3039H255.542V21.866C255.542 23.7207 255.976 24.57 257.4 24.57C258.051 24.57 258.33 24.5375 258.794 24.444L258.825 28.0583C258.206 28.3093 257.091 28.498 255.759 28.498C254.241 28.498 252.971 27.9323 252.228 27.1458C251.361 26.2351 250.927 24.7578 250.927 22.5888V16.3039H248.914V12.7835H250.927V9.89213L255.542 8.60354Z" fill="#231F20"/>
<path d="M261.333 17.6865C261.333 15.769 261.272 14.135 261.209 12.7837H265.174L265.391 14.8579H265.484C266.134 13.8835 267.465 12.4378 270.068 12.4378C272.019 12.4378 273.569 13.4433 274.219 15.0462H274.281C274.838 14.229 275.52 13.6321 276.232 13.1919C277.069 12.6893 277.997 12.4378 279.113 12.4378C282.025 12.4378 284.224 14.512 284.224 19.1011V28.1523H279.639V19.7923C279.639 17.5606 278.927 16.2724 277.409 16.2724C276.325 16.2724 275.55 17.0265 275.241 17.938C275.117 18.2839 275.055 18.7864 275.055 19.1634V28.1523H270.47V19.5404C270.47 17.5918 269.789 16.2724 268.302 16.2724C267.094 16.2724 266.382 17.2147 266.103 18.0008C265.948 18.3782 265.918 18.8176 265.918 19.195V28.1523H261.333V17.6865Z" fill="#231F20"/>
<path d="M296.828 18.7235C296.828 17.5604 296.332 15.6122 294.163 15.6122C292.182 15.6122 291.377 17.4345 291.253 18.7235H296.828ZM291.283 21.9919C291.437 23.9718 293.358 24.9141 295.557 24.9141C297.168 24.9141 298.469 24.6946 299.739 24.2864L300.359 27.5233C298.809 28.1522 296.92 28.498 294.876 28.498C289.735 28.498 286.791 25.4491 286.791 20.6406C286.791 16.7432 289.177 12.4377 294.442 12.4377C299.336 12.4377 301.195 16.3039 301.195 20.1064C301.195 20.9232 301.102 21.6465 301.04 21.9919H291.283Z" fill="#231F20"/>
<path d="M303.704 17.6865C303.704 15.769 303.642 14.135 303.58 12.7837H307.669L307.884 14.8891H307.979C308.597 13.9151 310.147 12.4378 312.655 12.4378C315.754 12.4378 318.076 14.512 318.076 19.0379V28.1523H313.368V19.6352C313.368 17.6554 312.686 16.304 310.983 16.304C309.681 16.304 308.907 17.2147 308.597 18.0951C308.474 18.4094 308.412 18.8492 308.412 19.2894V28.1523H303.704V17.6865Z" fill="#231F20"/>
<path d="M326.623 8.60354V12.7835H329.999V16.3039H326.623V21.866C326.623 23.7207 327.056 24.57 328.481 24.57C329.131 24.57 329.41 24.5375 329.875 24.444L329.905 28.0583C329.286 28.3093 328.171 28.498 326.84 28.498C325.322 28.498 324.051 27.9323 323.309 27.1458C322.441 26.2351 322.007 24.7578 322.007 22.5888V16.3039H319.994V12.7835H322.007V9.89213L326.623 8.60354Z" fill="#231F20"/>
<path d="M97.5408 38.5248C96.5629 38.5248 96.0474 39.3557 96.0474 40.2946C96.0474 41.1592 96.4387 41.8266 96.9542 42.476C98.1632 41.7728 98.9459 41.1234 98.9459 40.0952C98.9459 39.3557 98.5369 38.5248 97.5589 38.5248H97.5408ZM97.2391 48.8092C98.252 48.8092 99.1235 48.34 99.6928 47.7085C98.9812 46.9152 97.6477 45.4353 96.3137 43.8841C95.6737 44.2991 94.7669 45.0745 94.7669 46.3558C94.7669 47.7443 95.7806 48.8092 97.2206 48.8092H97.2391ZM101.578 49.8015C101.24 49.4586 100.919 49.1162 100.457 48.6111C99.4256 49.5854 98.2696 50 96.9542 50C94.6246 50 93.2734 48.4117 93.2734 46.5907C93.2734 44.9311 94.2518 43.7932 95.6207 43.0357V42.982C94.9983 42.1882 94.6246 41.3048 94.6246 40.4377C94.6246 38.9595 95.6737 37.4429 97.6654 37.4429C99.1592 37.4429 100.315 38.4531 100.315 40.0235C100.315 41.3048 99.5855 42.3146 97.683 43.271V43.3248C98.6972 44.5152 99.835 45.8503 100.6 46.7166C101.151 45.8682 101.524 44.6958 101.755 43.1626H103.178C102.858 45.0745 102.342 46.5907 101.453 47.6547C102.093 48.34 102.715 49.0257 103.427 49.8015H101.578Z" fill="#231F20"/>
<path d="M108.032 47.8899C108.725 48.3224 109.739 48.6828 110.806 48.6828C112.389 48.6828 113.313 47.8353 113.313 46.6086C113.313 45.472 112.673 44.8222 111.055 44.1911C109.099 43.4866 107.89 42.4581 107.89 40.7451C107.89 38.8498 109.437 37.4429 111.766 37.4429C112.993 37.4429 113.882 37.732 114.416 38.039L113.988 39.3203C113.597 39.103 112.798 38.7422 111.713 38.7422C110.077 38.7422 109.455 39.7344 109.455 40.5645C109.455 41.7015 110.183 42.2608 111.837 42.9098C113.864 43.7035 114.895 44.6962 114.895 46.4822C114.895 48.3583 113.526 50 110.699 50C109.543 50 108.281 49.6396 107.641 49.2071L108.032 47.8899Z" fill="#231F20"/>
<path d="M122.345 44.5882C122.363 43.578 121.936 42.0076 120.176 42.0076C118.593 42.0076 117.9 43.4862 117.776 44.5882H122.345ZM117.758 45.7239C117.793 47.8716 119.145 48.7545 120.709 48.7545C121.83 48.7545 122.505 48.5573 123.092 48.3041L123.359 49.4407C122.808 49.693 121.865 50 120.496 50C117.847 50 116.264 48.2144 116.264 45.5805C116.264 42.9461 117.793 40.871 120.3 40.871C123.11 40.871 123.857 43.3786 123.857 44.9849C123.857 45.3093 123.821 45.5625 123.803 45.7239H117.758Z" fill="#231F20"/>
<path d="M127.164 45.0738H127.199C127.413 44.7668 127.716 44.3886 127.964 44.0816L130.489 41.0689H132.374L129.049 44.6593L132.836 49.8008H130.934L127.964 45.6161L127.164 46.5174V49.8008H125.617V36.9918H127.164V45.0738Z" fill="#231F20"/>
<path d="M141.052 47.4194C141.052 48.322 141.07 49.1162 141.123 49.8015H139.736L139.647 48.3758H139.612C139.203 49.0795 138.296 50 136.766 50C135.415 50 133.797 49.243 133.797 46.1752V41.0696H135.362V45.9054C135.362 47.565 135.86 48.6828 137.282 48.6828C138.331 48.6828 139.06 47.9437 139.345 47.2401C139.434 47.0048 139.487 46.7166 139.487 46.4276V41.0696H141.052V47.4194Z" fill="#231F20"/>
<path d="M143.47 43.7925C143.47 42.7644 143.452 41.8806 143.398 41.0689H144.768L144.821 42.7823H144.892C145.283 41.6111 146.226 40.8703 147.275 40.8703C147.452 40.8703 147.577 40.8883 147.719 40.9241V42.4215C147.559 42.3857 147.399 42.3681 147.186 42.3681C146.083 42.3681 145.301 43.2157 145.088 44.4061C145.052 44.6234 145.016 44.8753 145.016 45.1464V49.8008H143.47V43.7925Z" fill="#231F20"/>
<path d="M149.176 41.0695H150.74V49.8014H149.176V41.0695ZM150.918 38.6157C150.936 39.1563 150.545 39.5897 149.922 39.5897C149.371 39.5897 148.98 39.1563 148.98 38.6157C148.98 38.0564 149.389 37.623 149.958 37.623C150.545 37.623 150.918 38.0564 150.918 38.6157Z" fill="#231F20"/>
<path d="M155.044 38.9774V41.0696H157.285V42.2787H155.044V46.9873C155.044 48.0693 155.347 48.6828 156.218 48.6828C156.645 48.6828 156.894 48.6469 157.125 48.5752L157.196 49.766C156.894 49.8924 156.413 50 155.809 50C155.08 50 154.493 49.7472 154.12 49.3147C153.675 48.8455 153.515 48.0693 153.515 47.0411V42.2787H152.182V41.0696H153.515V39.4637L155.044 38.9774Z" fill="#231F20"/>
<path d="M163.401 45.3456C161.694 45.3098 159.756 45.6168 159.756 47.3118C159.756 48.3404 160.431 48.8271 161.232 48.8271C162.352 48.8271 163.063 48.1051 163.312 47.3656C163.365 47.2038 163.401 47.0236 163.401 46.8609V45.3456ZM164.912 47.7085C164.912 48.4672 164.948 49.2071 165.055 49.8019H163.632L163.507 48.7007H163.454C162.974 49.3864 162.05 50 160.823 50C159.08 50 158.191 48.7545 158.191 47.4924C158.191 45.3815 160.04 44.2266 163.365 44.2458V44.0643C163.365 43.3432 163.17 42.0439 161.409 42.0439C160.609 42.0439 159.773 42.2967 159.169 42.6933L158.813 41.6473C159.525 41.1772 160.556 40.8715 161.64 40.8715C164.272 40.8715 164.912 42.6933 164.912 44.443V47.7085Z" fill="#231F20"/>
<path d="M167.047 48.1777C167.51 48.4847 168.328 48.8092 169.11 48.8092C170.247 48.8092 170.782 48.2324 170.782 47.5104C170.782 46.7516 170.337 46.3375 169.181 45.9054C167.635 45.3452 166.905 44.4785 166.905 43.4324C166.905 42.0255 168.025 40.871 169.875 40.871C170.746 40.871 171.51 41.1234 171.99 41.412L171.599 42.5665C171.261 42.3505 170.639 42.0618 169.839 42.0618C168.914 42.0618 168.399 42.6032 168.399 43.2531C168.399 43.9742 168.914 44.2991 170.034 44.7317C171.528 45.3093 172.293 46.0668 172.293 47.3656C172.293 48.8997 171.12 50 169.074 50C168.132 50 167.261 49.7468 166.656 49.386L167.047 48.1777Z" fill="#231F20"/>
<path d="M179.315 49.8022H177.768V37.6426H179.315V49.8022Z" fill="#231F20"/>
<path d="M181.965 43.4317C181.965 42.5304 181.948 41.7896 181.895 41.0689H183.281L183.369 42.5125H183.406C183.833 41.6824 184.829 40.8703 186.25 40.8703C187.442 40.8703 189.291 41.5915 189.291 44.5875V49.8008H187.727V44.7668C187.727 43.36 187.211 42.1875 185.735 42.1875C184.704 42.1875 183.903 42.9275 183.637 43.8104C183.566 44.0098 183.531 44.2805 183.531 44.5504V49.8008H181.965V43.4317Z" fill="#231F20"/>
<path d="M197.521 44.6241C197.521 44.4247 197.504 44.1544 197.45 43.9567C197.219 42.9461 196.366 42.1152 195.191 42.1152C193.574 42.1152 192.614 43.5592 192.614 45.4895C192.614 47.258 193.467 48.7187 195.156 48.7187C196.206 48.7187 197.166 48.015 197.45 46.8247C197.504 46.6082 197.521 46.3917 197.521 46.1394V44.6241ZM199.086 36.9925V47.5471C199.086 48.322 199.105 49.2067 199.158 49.8015H197.752L197.682 48.2862H197.646C197.166 49.2605 196.116 50 194.712 50C192.632 50 191.031 48.2144 191.031 45.5625C191.014 42.6575 192.792 40.871 194.89 40.871C196.206 40.871 197.094 41.5021 197.486 42.2062H197.521V36.9925H199.086Z" fill="#231F20"/>
<path d="M202.466 45.4532C202.466 47.3656 203.55 48.8092 205.079 48.8092C206.572 48.8092 207.694 47.3835 207.694 45.4174C207.694 43.9388 206.963 42.0623 205.115 42.0623C203.265 42.0623 202.466 43.7932 202.466 45.4532ZM209.294 45.3636C209.294 48.5931 207.088 50 205.008 50C202.678 50 200.883 48.2687 200.883 45.5079C200.883 42.5849 202.768 40.8715 205.15 40.8715C207.622 40.8715 209.294 42.6933 209.294 45.3636Z" fill="#231F20"/>
<path d="M211.088 43.4317C211.088 42.5304 211.071 41.7896 211.018 41.0689H212.404L212.493 42.5125H212.53C212.955 41.6824 213.951 40.8703 215.374 40.8703C216.565 40.8703 218.415 41.5915 218.415 44.5875V49.8008H216.849V44.7668C216.849 43.36 216.334 42.1875 214.859 42.1875C213.828 42.1875 213.026 42.9275 212.761 43.8104C212.689 44.0098 212.654 44.2805 212.654 44.5504V49.8008H211.088V43.4317Z" fill="#231F20"/>
<path d="M226.239 44.5882C226.256 43.578 225.829 42.0076 224.07 42.0076C222.487 42.0076 221.794 43.4862 221.669 44.5882H226.239ZM221.652 45.7239C221.687 47.8716 223.039 48.7545 224.603 48.7545C225.723 48.7545 226.399 48.5573 226.986 48.3041L227.253 49.4407C226.701 49.693 225.759 50 224.39 50C221.741 50 220.158 48.2144 220.158 45.5805C220.158 42.9461 221.687 40.871 224.194 40.871C227.003 40.871 227.75 43.3786 227.75 44.9849C227.75 45.3093 227.715 45.5625 227.697 45.7239H221.652Z" fill="#231F20"/>
<path d="M229.297 48.1777C229.759 48.4847 230.577 48.8092 231.359 48.8092C232.498 48.8092 233.03 48.2324 233.03 47.5104C233.03 46.7516 232.586 46.3375 231.431 45.9054C229.885 45.3452 229.155 44.4785 229.155 43.4324C229.155 42.0255 230.275 40.871 232.124 40.871C232.995 40.871 233.759 41.1234 234.24 41.412L233.849 42.5665C233.512 42.3505 232.889 42.0618 232.089 42.0618C231.164 42.0618 230.648 42.6032 230.648 43.2531C230.648 43.9742 231.164 44.2991 232.284 44.7317C233.777 45.3093 234.542 46.0668 234.542 47.3656C234.542 48.8997 233.368 50 231.323 50C230.381 50 229.51 49.7468 228.906 49.386L229.297 48.1777Z" fill="#231F20"/>
<path d="M236.373 41.0695H237.938V49.8014H236.373V41.0695ZM238.116 38.6157C238.134 39.1563 237.743 39.5897 237.12 39.5897C236.569 39.5897 236.178 39.1563 236.178 38.6157C236.178 38.0564 236.586 37.623 237.156 37.623C237.743 37.623 238.116 38.0564 238.116 38.6157Z" fill="#231F20"/>
<path d="M244.892 45.3456C243.184 45.3098 241.246 45.6168 241.246 47.3118C241.246 48.3404 241.922 48.8271 242.722 48.8271C243.842 48.8271 244.554 48.1051 244.802 47.3656C244.855 47.2038 244.892 47.0236 244.892 46.8609V45.3456ZM246.402 47.7085C246.402 48.4672 246.438 49.2071 246.545 49.8019H245.123L244.998 48.7007H244.945C244.463 49.3864 243.54 50 242.313 50C240.57 50 239.682 48.7545 239.682 47.4924C239.682 45.3815 241.53 44.2266 244.855 44.2458V44.0643C244.855 43.3432 244.66 42.0439 242.9 42.0439C242.099 42.0439 241.264 42.2967 240.66 42.6933L240.304 41.6473C241.015 41.1772 242.046 40.8715 243.13 40.8715C245.761 40.8715 246.402 42.6933 246.402 44.443V47.7085Z" fill="#231F20"/>
</g>
<defs>
<clipPath id="clip0_453_1116">
<rect width="330" height="50" fill="white"/>
</clipPath>
</defs>
</svg>
